<?xml version="1.0" encoding="iso-8859-1"?>
<!-- Generator: Adobe Illustrator 17.1.0, SVG Export Plug-In . SVG Version: 6.00 Build 0)  -->
<!DOCTYPE svg PUBLIC "-//W3C//DTD SVG 1.1//EN" "http://www.w3.org/Graphics/SVG/1.1/DTD/svg11.dtd">
<svg version="1.1" id="&#x56FE;&#x5C42;_1" xmlns="http://www.w3.org/2000/svg" xmlns:xlink="http://www.w3.org/1999/xlink" x="0px"
	 y="0px" viewBox="0 0 535.75 215.585" style="enable-background:new 0 0 535.75 215.585;" xml:space="preserve">
<g style="opacity:0.3;">
	<g>
		<path style="fill:#113672;" d="M165.482,106.192v56.996h-0.732v-47.166h-0.687c-0.414,0-0.749-0.335-0.749-0.748
			c0-0.414,0.335-0.749,0.749-0.749h0.483v-1.613c0-2.667-0.12-4.223-1.644-4.85v-3.107c0.011,0.003,0.022,0.004,0.033,0.007
			C163.99,105.192,164.828,105.604,165.482,106.192z"/>
		<rect x="165.294" y="111.784" style="fill:#1283C3;" width="2.579" height="6.355"/>
		<rect x="156.404" y="104.922" style="fill:#1283C3;" width="6.532" height="2.579"/>
		<g>
			<rect x="165.294" y="118.241" style="fill:#113D86;" width="2.579" height="82.798"/>
			<g>
				<g>
					<path style="fill:#113D86;" d="M160.113,104.748h1.158c5.25,0,6.806,2.914,6.806,8.163v2.362h-2.986v-2.362
						c0-3.602-0.217-5.177-3.82-5.177h-1.158V104.748z"/>
				</g>
				<rect x="160.113" y="104.748" style="fill:#113672;" width="1.049" height="2.986"/>
				<rect x="165.09" y="114.117" style="fill:#113672;" width="2.986" height="1.157"/>
				<g>
					<path style="fill:#1283C3;" d="M159.392,104.235v4.113c0,0.414,0.335,0.749,0.749,0.749c0.414,0,0.749-0.335,0.749-0.749
						v-4.113c0-0.414-0.335-0.749-0.749-0.749C159.728,103.486,159.392,103.821,159.392,104.235z"/>
					<path style="fill:#1283C3;" d="M163.858,115.274c0,0.414,0.335,0.749,0.749,0.749h4.113c0.414,0,0.749-0.335,0.749-0.749
						c0-0.414-0.335-0.749-0.749-0.749h-4.113C164.193,114.525,163.858,114.86,163.858,115.274z"/>
				</g>
			</g>
			<rect x="159.407" y="41.572" style="fill:#113D86;" width="2.579" height="33.718"/>
			<rect x="135.532" y="79.573" style="fill:#113D86;" width="21.517" height="2.579"/>
			<g>
				<g>
					<path style="fill:#113D86;" d="M154.226,82.326h1.158c5.25,0,6.806-2.914,6.806-8.163v-2.362h-2.986v2.362
						c0,3.603-0.217,5.177-3.82,5.177h-1.158V82.326z"/>
				</g>
				<rect x="154.226" y="79.34" style="fill:#113672;" width="1.049" height="2.986"/>
				<rect x="159.203" y="71.801" style="fill:#113672;" width="2.986" height="1.156"/>
				<g>
					<path style="fill:#1283C3;" d="M153.505,82.84v-4.112c0-0.414,0.335-0.749,0.749-0.749c0.414,0,0.749,0.335,0.749,0.749v4.112
						c0,0.414-0.335,0.749-0.749,0.749C153.84,83.589,153.505,83.254,153.505,82.84z"/>
					<path style="fill:#1283C3;" d="M157.971,71.801c0-0.414,0.335-0.749,0.749-0.749h4.113c0.414,0,0.749,0.335,0.749,0.749
						c0,0.414-0.335,0.749-0.749,0.749h-4.113C158.306,72.55,157.971,72.215,157.971,71.801z"/>
				</g>
			</g>
			<rect x="92.861" y="61.821" style="fill:#113D86;" width="42.46" height="2.579"/>
			<g>
				<g>
					<path style="fill:#113D86;" d="M132.498,64.574h1.158c5.25,0,6.806-2.914,6.806-8.163v-2.362h-2.986v2.362
						c0,3.603-0.217,5.177-3.82,5.177h-1.158V64.574z"/>
				</g>
				<rect x="132.498" y="61.587" style="fill:#113672;" width="1.049" height="2.986"/>
				<g>
					<path style="fill:#1283C3;" d="M131.777,65.088v-4.113c0-0.414,0.335-0.749,0.749-0.749c0.414,0,0.749,0.335,0.749,0.749v4.113
						c0,0.414-0.335,0.749-0.749,0.749C132.113,65.837,131.777,65.501,131.777,65.088z"/>
				</g>
			</g>
			<path style="fill:#113672;" d="M125.958,65.885l3.126,19.74l-4.23-0.015c-0.631,0-1.182-0.342-1.475-0.852V66.737
				c0.293-0.51,0.844-0.852,1.475-0.852H125.958z"/>
			<rect x="127.795" y="84.252" style="fill:#113672;" width="2.579" height="21.916"/>
			<path style="fill:#1283C3;" d="M133.916,84.252h-7.585c-1.757,0-3.182-1.424-3.182-3.182V67.709c0-1.757,1.424-3.182,3.182-3.182
				h7.585c1.757,0,3.182,1.424,3.182,3.182V81.07C137.097,82.827,135.673,84.252,133.916,84.252z"/>
			<path style="fill:#FFFFFF;" d="M135.312,67.166v3.067c0,0.478-0.363,0.871-0.829,0.917c-0.03,0.003-0.061,0.005-0.092,0.005
				h-8.387c-0.509,0-0.922-0.413-0.922-0.922v-3.067c0-0.509,0.413-0.922,0.922-0.922h8.387
				C134.9,66.245,135.312,66.658,135.312,67.166z"/>
			<path style="fill:#FFFFFF;" d="M135.312,78.614v3.067c0,0.478-0.363,0.871-0.829,0.917c-0.03,0.003-0.061,0.005-0.092,0.005
				h-8.387c-0.509,0-0.922-0.413-0.922-0.922v-3.067c0-0.509,0.413-0.922,0.922-0.922h8.387
				C134.9,77.692,135.312,78.105,135.312,78.614z"/>
			<path style="fill:#113672;" d="M130.442,71.155h-0.463l-1.183-2.786c-0.018-0.042,0-0.091,0.041-0.111
				c0.012-0.006,0.024-0.008,0.036-0.008c0.031,0,0.061,0.017,0.077,0.046L130.442,71.155z"/>
			<path style="fill:#FFFFFF;" d="M135.312,72.943v3.067c0,0.478-0.363,0.871-0.829,0.917c-0.03,0.003-0.061,0.005-0.092,0.005
				h-8.387c-0.509,0-0.922-0.413-0.922-0.922v-3.067c0-0.51,0.413-0.922,0.922-0.922h8.387
				C134.9,72.021,135.312,72.433,135.312,72.943z"/>
			<path style="fill:#113672;" d="M131.658,73.568c0,0.011-0.002,0.022-0.006,0.032l-1.388,3.331h-0.513l1.747-3.403
				c0.021-0.041,0.07-0.058,0.111-0.039C131.64,73.505,131.658,73.535,131.658,73.568z"/>
			<g>
				<path style="fill:#113672;" d="M130.317,66.972c-2.297,0-4.166,1.876-4.166,4.183h0.185c0-2.206,1.786-3.999,3.981-3.999
					c2.196,0,3.983,1.793,3.983,3.999h0.091c0.033,0,0.062-0.003,0.092-0.005C134.48,68.845,132.612,66.972,130.317,66.972z"/>
			</g>
			<g>
				<g>
					<path style="fill:#113672;" d="M133.945,74.879c-0.715-1.271-2.074-2.131-3.628-2.131c-1.554,0-2.913,0.861-3.63,2.131
						c-0.341,0.607-0.536,1.307-0.536,2.052h0.185c0-0.751,0.206-1.452,0.566-2.052c0.696-1.166,1.967-1.946,3.415-1.946
						c1.45,0,2.72,0.78,3.417,1.946c0.36,0.6,0.566,1.302,0.566,2.052h0.091c0.033,0,0.062-0.001,0.092-0.004
						C134.481,76.184,134.287,75.484,133.945,74.879z"/>
				</g>
			</g>
			<g>
				<path style="fill:#113672;" d="M133.607,81.394c-0.025,0-0.051-0.005-0.076-0.014c-0.142-0.052-0.229-0.232-0.253-0.285
					l-0.586-1.35c-0.299,0.485-0.525,1.009-0.673,1.559c-0.006,0.021-0.02,0.037-0.04,0.045c-0.02,0.008-0.042,0.006-0.06-0.005
					c-0.256-0.154-0.471-0.367-0.629-0.62l-0.236,0.525c-0.01,0.022-0.03,0.037-0.054,0.039c-0.024,0.003-0.047-0.007-0.062-0.026
					l-0.353-0.465c-0.077,0.193-0.187,0.374-0.323,0.53c-0.015,0.018-0.038,0.026-0.062,0.022c-0.023-0.004-0.043-0.019-0.052-0.041
					c-0.264-0.625-0.568-1.24-0.906-1.83l-0.463,1.139c-0.042,0.104-0.133,0.239-0.249,0.275c-0.058,0.018-0.114,0.01-0.165-0.024
					c-0.012-0.008-0.021-0.02-0.026-0.034c-0.095-0.265-0.211-0.523-0.345-0.771c-0.105,0.32-0.232,0.635-0.38,0.937
					c-0.012,0.025-0.039,0.04-0.067,0.038c-0.028-0.003-0.052-0.023-0.059-0.05c-0.149-0.556-0.358-1.096-0.622-1.608l-0.242,0.763
					c-0.029,0.091-0.065,0.204-0.152,0.281c-0.078,0.069-0.178,0.095-0.281,0.116c-0.558,0.116-1.155,0.198-1.775,0.244
					c-0.008,0.003-0.016,0.005-0.025,0.005h-0.045c-0.037,0-0.067-0.029-0.068-0.065c-0.001-0.037,0.027-0.067,0.063-0.07
					c0.637-0.044,1.251-0.127,1.823-0.246c0.088-0.018,0.166-0.037,0.219-0.085c0.06-0.053,0.088-0.142,0.113-0.221l0.291-0.917
					c0.008-0.026,0.031-0.044,0.058-0.047c0.026-0.004,0.053,0.011,0.066,0.035c0.276,0.51,0.497,1.049,0.66,1.605
					c0.134-0.293,0.249-0.596,0.342-0.904c0.008-0.026,0.03-0.045,0.057-0.048c0.027-0.003,0.053,0.01,0.067,0.034
					c0.167,0.288,0.309,0.592,0.423,0.904c0.01,0.003,0.021,0.002,0.032-0.001c0.055-0.017,0.125-0.101,0.163-0.196l0.515-1.268
					c0.01-0.024,0.032-0.04,0.058-0.042c0.026-0.002,0.05,0.011,0.063,0.033c0.349,0.599,0.665,1.225,0.938,1.862
					c0.118-0.155,0.211-0.332,0.269-0.517c0.008-0.024,0.028-0.042,0.053-0.046c0.025-0.004,0.05,0.006,0.066,0.026l0.36,0.474
					l0.244-0.542c0.011-0.024,0.034-0.039,0.06-0.04c0.025,0,0.05,0.013,0.062,0.036c0.135,0.256,0.331,0.475,0.57,0.636
					c0.163-0.573,0.409-1.116,0.733-1.617c0.014-0.021,0.037-0.033,0.063-0.031c0.025,0.002,0.047,0.018,0.057,0.041l0.637,1.468
					c0.046,0.105,0.116,0.19,0.175,0.212c0.012,0.005,0.024,0.006,0.035,0.005c0.091-0.384,0.258-0.757,0.482-1.081
					c0.014-0.02,0.037-0.031,0.061-0.029c0.024,0.002,0.045,0.016,0.056,0.038c0.119,0.245,0.258,0.481,0.416,0.703
					c0.078-0.269,0.193-0.525,0.344-0.762c0.01-0.015,0.025-0.026,0.043-0.03c0.017-0.004,0.036-0.001,0.051,0.009
					c0.38,0.245,0.854,0.344,1.301,0.27c0.037-0.007,0.072,0.019,0.078,0.056c0.006,0.037-0.019,0.072-0.056,0.078
					c-0.457,0.076-0.94-0.017-1.338-0.253c-0.151,0.249-0.261,0.519-0.328,0.803c-0.006,0.026-0.026,0.046-0.052,0.051
					c-0.026,0.005-0.052-0.005-0.068-0.026c-0.174-0.231-0.328-0.477-0.461-0.734c-0.19,0.297-0.329,0.632-0.406,0.975
					c-0.004,0.02-0.018,0.037-0.036,0.046C133.671,81.387,133.64,81.394,133.607,81.394z"/>
			</g>
			<g>
				<rect x="91.651" y="41.578" style="fill:#113D86;" width="2.579" height="59.096"/>
				<rect x="96.588" y="104.958" style="fill:#113D86;" width="62.112" height="2.579"/>
				<g>
					<g>
						<path style="fill:#1283C3;" d="M99.411,107.71h-1.158c-5.25,0-6.806-2.914-6.806-8.163v-2.362h2.986v2.362
							c0,3.602,0.217,5.177,3.82,5.177h1.158V107.71z"/>
					</g>
					<rect x="98.362" y="104.724" style="fill:#113672;" width="1.049" height="2.986"/>
					<rect x="91.448" y="97.185" style="fill:#113672;" width="2.986" height="1.157"/>
					<g>
						<path style="fill:#1283C3;" d="M100.132,108.224v-4.112c0-0.414-0.335-0.749-0.749-0.749s-0.749,0.335-0.749,0.749v4.112
							c0,0.414,0.335,0.749,0.749,0.749S100.132,108.638,100.132,108.224z"/>
						<path style="fill:#1283C3;" d="M95.667,97.185c0-0.414-0.335-0.749-0.749-0.749h-4.113c-0.414,0-0.749,0.335-0.749,0.749
							c0,0.414,0.335,0.749,0.749,0.749h4.113C95.331,97.934,95.667,97.599,95.667,97.185z"/>
					</g>
				</g>
				<path style="fill:#7A9D8D;" d="M158.7,104.958v2.579h-3.528v-2.197c0-0.128,0.004-0.255,0.014-0.382H158.7z"/>
			</g>
		</g>
	</g>
	<g>
		<path style="fill:#113D86;" d="M480.045,125.596c-1.974,0-3.58,1.606-3.58,3.58h1.975c0-0.885,0.72-1.605,1.605-1.605h56.063
			v-1.975H480.045z"/>
		<path style="fill:#113D86;" d="M476.368,148.793v11.632c0,0.885-0.72,1.605-1.605,1.605c-0.885,0-1.605-0.72-1.605-1.605v-11.632
			v-0.494c0-1.974-1.606-3.58-3.58-3.58s-3.58,1.606-3.58,3.58v0.507v11.632c0,0.885-0.72,1.605-1.605,1.605
			s-1.605-0.72-1.605-1.605v-11.632v-0.52c0-1.974-1.606-3.58-3.58-3.58s-3.58,1.606-3.58,3.58v0.534v11.632
			c0,0.885-0.72,1.605-1.605,1.605c-0.885,0-1.605-0.72-1.605-1.605V148.82v-0.547c0-1.974-1.606-3.58-3.58-3.58
			c-1.974,0-3.58,1.606-3.58,3.58v0.56v11.632c0,0.885-0.72,1.605-1.605,1.605c-0.885,0-1.605-0.72-1.605-1.605v-29.32h-1.975v29.32
			c0,1.974,1.606,3.58,3.58,3.58c1.829,0,3.342-1.379,3.554-3.153h0.026v-0.428v-11.632v-0.56c0-0.885,0.72-1.605,1.605-1.605
			c0.885,0,1.605,0.72,1.605,1.605v0.547v11.632v0.441h0.028c0.218,1.767,1.727,3.139,3.552,3.139c1.82,0,3.327-1.366,3.551-3.126
			h0.03v-0.454V148.82v-0.534c0-0.885,0.72-1.605,1.605-1.605s1.605,0.72,1.605,1.605v0.52v11.632v0.467h0.032
			c0.23,1.754,1.733,3.113,3.549,3.113c1.811,0,3.311-1.352,3.547-3.1h0.033v-0.481v-11.632v-0.507c0-0.885,0.72-1.605,1.605-1.605
			c0.885,0,1.605,0.72,1.605,1.605v0.494v11.632v0.494h0.035c0.241,1.741,1.739,3.087,3.545,3.087c1.974,0,3.58-1.606,3.58-3.58
			v-11.632V129.3h-1.975V148.793z"/>
	</g>
	<g>
		<g>
			<path style="fill:#113D86;" d="M358.837,107.279c1.974,0,3.665-1.725,3.665-3.699h-1.975c0,0.885-0.804,1.724-1.689,1.724H341.9
				v1.975H358.837z"/>
			<path style="fill:#113D86;" d="M362.515,95.461V83.829c0-0.885,0.72-1.605,1.605-1.605c0.885,0,1.605,0.72,1.605,1.605v11.632
				v0.494c0,1.974,1.606,3.58,3.58,3.58c1.974,0,3.58-1.606,3.58-3.58v-0.507V83.816c0-0.885,0.72-1.605,1.605-1.605
				s1.605,0.72,1.605,1.605v11.632v0.52c0,1.974,1.606,3.58,3.58,3.58s3.58-1.606,3.58-3.58v-0.534V83.803
				c0-0.885,0.72-1.605,1.605-1.605c0.885,0,1.605,0.72,1.605,1.605v11.632v0.547c0,1.974,1.606,3.58,3.58,3.58
				c1.974,0,3.58-1.606,3.58-3.58v-0.56V83.79c0-0.885,0.72-1.605,1.605-1.605c0.885,0,1.605,0.72,1.605,1.605v33.114v31.879h0.092
				v7.083c0,4.536,3.69,8.226,8.226,8.226c4.536,0,8.226-3.69,8.226-8.226v-39.862h-1.975v39.862c0,3.447-2.804,6.251-6.251,6.251
				s-6.251-2.804-6.251-6.251v-20.417h-0.091v-18.545V83.79c0-1.974-1.606-3.58-3.58-3.58c-1.829,0-3.342,1.379-3.554,3.153h-0.026
				v0.428v11.632v0.56c0,0.885-0.72,1.605-1.605,1.605c-0.885,0-1.605-0.72-1.605-1.605v-0.547V83.803v-0.441h-0.028
				c-0.218-1.767-1.727-3.139-3.552-3.139c-1.82,0-3.327,1.366-3.551,3.126h-0.03v0.454v11.632v0.534
				c0,0.885-0.72,1.605-1.605,1.605s-1.605-0.72-1.605-1.605v-0.52V83.816v-0.467h-0.032c-0.23-1.754-1.733-3.113-3.549-3.113
				c-1.811,0-3.311,1.352-3.547,3.1h-0.033v0.481v11.632v0.507c0,0.885-0.72,1.605-1.605,1.605c-0.885,0-1.605-0.72-1.605-1.605
				v-0.494V83.829v-0.494h-0.035c-0.241-1.741-1.739-3.087-3.545-3.087c-1.974,0-3.58,1.606-3.58,3.58v11.632v8.114h1.975V95.461z"
				/>
		</g>
		<path style="fill:#113D86;" d="M431.732,69.777c-1.97-0.799-4.738-1.205-8.228-1.205s-6.258,0.405-8.228,1.205
			c-3.199,1.298-3.871,3.461-3.871,5.046v42.722h1.975V74.823c0-3.534,5.505-4.275,10.124-4.275c4.618,0,10.124,0.742,10.124,4.275
			V95.24h1.975V74.823C435.602,73.238,434.931,71.076,431.732,69.777z"/>
		<g>
			<path style="fill:#113D86;" d="M445.481,130.853v-36.05c0-0.866-0.702-1.567-1.567-1.567H424.06
				c-0.865,0-1.567,0.702-1.567,1.567v36.05c0,0.866,0.702,1.567,1.567,1.567h19.854
				C444.779,132.421,445.481,131.719,445.481,130.853z M424.583,129.808v-33.96h18.809v33.96H424.583z"/>
			<path style="fill:#113D86;" d="M428.947,93.8c-0.577,0-1.045-0.468-1.045-1.045v-2.09c0-0.577,0.468-1.045,1.045-1.045h10.449
				c0.577,0,1.045,0.468,1.045,1.045v2.09c0,0.577-0.468,1.045-1.045,1.045H428.947z"/>
			<path style="fill:#113D86;" d="M426.749,103.892c-0.577,0-1.045-0.468-1.045-1.045v-4.18c0-0.577,0.468-1.045,1.045-1.045h14.107
				c0.577,0,1.045,0.468,1.045,1.045v4.18c0,0.577-0.468,1.045-1.045,1.045H426.749z"/>
			<path style="fill:#113D86;" d="M426.749,111.907c-0.577,0-1.045-0.468-1.045-1.045v-4.18c0-0.577,0.468-1.045,1.045-1.045h14.107
				c0.577,0,1.045,0.468,1.045,1.045v4.18c0,0.577-0.468,1.045-1.045,1.045H426.749z"/>
			<path style="fill:#113D86;" d="M426.749,120.106c-0.577,0-1.045-0.468-1.045-1.045v-4.18c0-0.577,0.468-1.045,1.045-1.045h14.107
				c0.577,0,1.045,0.468,1.045,1.045v4.18c0,0.577-0.468,1.045-1.045,1.045H426.749z"/>
			<path style="fill:#113D86;" d="M426.749,128.12c-0.577,0-1.045-0.468-1.045-1.045v-4.18c0-0.577,0.468-1.045,1.045-1.045h14.107
				c0.577,0,1.045,0.468,1.045,1.045v4.18c0,0.577-0.468,1.045-1.045,1.045H426.749z"/>
		</g>
	</g>
	<g>
		<rect x="192.113" y="25.711" style="fill:#113D86;" width="2.579" height="71.566"/>
		<path style="fill:#9BBAA4;" d="M196.088,52.965c0,0.156-0.054,0.299-0.145,0.411v-0.823
			C196.034,52.666,196.088,52.809,196.088,52.965z"/>
		<path style="fill:#9BBAA4;" d="M195.943,66.854c0.091,0.113,0.145,0.255,0.145,0.411c0,0.156-0.054,0.299-0.145,0.411V66.854z"/>
		<g>
			<path style="fill:#113D86;" d="M193.403,80.21h28.616v0.091h20.417c3.447,0,6.251,2.804,6.251,6.251s-2.804,6.251-6.251,6.251
				h-48.95v1.975h48.95c4.536,0,8.226-3.69,8.226-8.226c0-4.536-3.69-8.226-8.226-8.226h-7.083v-0.092h-41.95V80.21z"/>
		</g>
		<circle style="fill:#113D86;" cx="193.403" cy="99.983" r="2.79"/>
		<rect x="222.962" y="65.289" style="fill:#113672;" width="2.579" height="9.817"/>
		<g>
			<rect x="216.884" y="77.701" style="fill:#1283C3;" width="14.367" height="2.989"/>
			<rect x="222.818" y="72.771" style="fill:#1283C3;" width="2.99" height="7.919"/>
			<rect x="230.254" y="77.701" style="fill:#113672;" width="0.996" height="2.989"/>
			<path style="fill:#1283C3;" d="M231.184,76.593c0.156,0,0.299,0.054,0.411,0.145c0.019,0.014,0.037,0.03,0.054,0.048
				c0.12,0.119,0.193,0.285,0.193,0.466v3.888c0,0.364-0.295,0.658-0.658,0.658c-0.182,0-0.346-0.073-0.466-0.193
				c-0.119-0.119-0.193-0.284-0.193-0.466v-3.888c0-0.208,0.096-0.392,0.247-0.513C230.885,76.647,231.027,76.593,231.184,76.593z"
				/>
			<rect x="222.818" y="72.771" style="opacity:0.46;fill:#F0C879;" width="2.99" height="0.93"/>
			<path style="fill:#1283C3;" d="M222.37,72.112h3.886c0.364,0,0.658,0.295,0.658,0.658c0,0.076-0.012,0.148-0.037,0.216
				c-0.089,0.258-0.334,0.442-0.622,0.442h-3.886c-0.288,0-0.532-0.185-0.622-0.442c-0.024-0.068-0.037-0.14-0.037-0.216
				C221.712,72.407,222.006,72.112,222.37,72.112z"/>
			<rect x="216.883" y="77.701" style="fill:#113672;" width="1.066" height="2.989"/>
			<path style="fill:#1283C3;" d="M216.883,76.593c0.156,0,0.299,0.054,0.411,0.145c0.151,0.121,0.247,0.305,0.247,0.513v3.888
				c0,0.364-0.295,0.658-0.658,0.658c-0.364,0-0.658-0.295-0.658-0.658v-3.888c0-0.208,0.096-0.392,0.247-0.513
				C216.585,76.647,216.727,76.593,216.883,76.593z"/>
		</g>
		<g>
			<circle style="fill:#1283C3;" cx="224.313" cy="63.142" r="6.974"/>
			<g>
				<circle style="fill:#FFFFFF;" cx="224.313" cy="63.142" r="5.475"/>
				<path style="fill:#E3E2E3;" d="M224.313,57.899c-2.985,0-5.412,2.389-5.474,5.359c-0.001-0.039-0.001-0.077-0.001-0.116
					c0-3.024,2.451-5.475,5.475-5.475s5.475,2.452,5.475,5.475c0,0.039-0.001,0.077-0.001,0.116
					C229.725,60.288,227.298,57.899,224.313,57.899z"/>
				<path style="fill:#1283C3;" d="M219.775,63.142c0,0.712,0.165,1.386,0.457,1.986h2.267c-0.538-0.492-0.877-1.199-0.877-1.986
					c0-0.259,0.036-0.51,0.105-0.747c0.324-1.122,1.358-1.943,2.584-1.943c1.485,0,2.689,1.204,2.689,2.689
					c0,0.787-0.337,1.494-0.876,1.986h2.267c0.293-0.6,0.457-1.274,0.457-1.986c0-2.506-2.031-4.538-4.538-4.538
					c-2.252,0-4.12,1.64-4.476,3.791C219.796,62.638,219.775,62.887,219.775,63.142z"/>
				<g>
					<path style="fill:#EFC577;" d="M223.489,63.142c0-0.427,0.318-0.778,0.729-0.833l0.088-4.106h0.046l0.088,4.106
						c0.412,0.054,0.73,0.406,0.73,0.833c0,0.414-0.3,0.757-0.694,0.827l0.027,1.268h-0.348l0.027-1.268
						C223.789,63.899,223.489,63.556,223.489,63.142z"/>
					<ellipse style="fill:#D7A858;" cx="224.33" cy="63.232" rx="0.492" ry="0.529"/>
					<circle style="fill:#F2D38C;" cx="224.33" cy="63.142" r="0.492"/>
				</g>
				<path style="fill:#113672;" d="M219.775,63.142c0,0.712,0.165,1.386,0.457,1.986h2.267c-0.538-0.492-0.877-1.199-0.877-1.986
					c0-0.259,0.036-0.51,0.105-0.747h-1.892C219.796,62.638,219.775,62.887,219.775,63.142z"/>
			</g>
			<g>
				<g>
					<path style="fill:#ECB86C;" d="M223.92,56.87c-0.096,0.341,0.209,0.645,0.549,0.549c0.141-0.04,0.255-0.153,0.295-0.294
						c0.096-0.341-0.209-0.645-0.549-0.549C224.073,56.615,223.96,56.728,223.92,56.87z"/>
					<path style="fill:#D99643;" d="M223.92,56.853c-0.096,0.341,0.209,0.645,0.549,0.549c0.141-0.04,0.255-0.153,0.295-0.294
						c0.096-0.341-0.209-0.645-0.549-0.549C224.073,56.598,223.96,56.712,223.92,56.853z"/>
					<path style="fill:#D9883E;" d="M224.215,56.59c-0.141,0.04-0.255,0.153-0.294,0.294c-0.01,0.038-0.016,0.075-0.017,0.111
						c-0.002-0.046,0.003-0.094,0.017-0.142c0.04-0.141,0.153-0.255,0.294-0.295c0.303-0.085,0.577,0.146,0.566,0.438
						C224.771,56.72,224.507,56.508,224.215,56.59z"/>
					<path style="fill:#EEBD7D;" d="M223.993,56.875c-0.079,0.282,0.172,0.534,0.454,0.454c0.117-0.033,0.211-0.127,0.244-0.244
						c0.079-0.282-0.172-0.533-0.454-0.454C224.12,56.664,224.026,56.758,223.993,56.875z"/>
					<path style="opacity:0.47;fill:#E2AD6E;" d="M224.448,57.251c0.117-0.033,0.211-0.127,0.244-0.244
						c0.006-0.023,0.01-0.045,0.012-0.067c0.005,0.047,0.002,0.095-0.012,0.146c-0.033,0.117-0.127,0.211-0.244,0.244
						c-0.259,0.073-0.492-0.134-0.467-0.387C224.005,57.158,224.216,57.316,224.448,57.251z"/>
					<path style="fill:#F2C895;" d="M224.303,56.754c-0.03,0.108,0.066,0.204,0.174,0.174c0.045-0.013,0.081-0.048,0.093-0.093
						c0.03-0.108-0.066-0.205-0.174-0.174C224.352,56.673,224.316,56.709,224.303,56.754z"/>
				</g>
				<g>
					<path style="fill:#ECB86C;" d="M219.7,58.895c0.166,0.313,0.596,0.323,0.776,0.019c0.075-0.127,0.079-0.287,0.01-0.416
						c-0.166-0.313-0.596-0.323-0.776-0.019C219.636,58.605,219.632,58.766,219.7,58.895z"/>
					<path style="fill:#D99643;" d="M219.689,58.883c0.166,0.313,0.596,0.323,0.776,0.019c0.075-0.126,0.079-0.286,0.01-0.416
						c-0.166-0.313-0.596-0.323-0.776-0.019C219.624,58.594,219.62,58.753,219.689,58.883z"/>
					<path style="fill:#D9883E;" d="M219.721,58.49c-0.075,0.126-0.079,0.286-0.01,0.416c0.018,0.035,0.04,0.065,0.064,0.092
						c-0.033-0.032-0.062-0.07-0.086-0.114c-0.069-0.13-0.065-0.29,0.01-0.416c0.161-0.271,0.518-0.292,0.712-0.073
						C220.214,58.2,219.876,58.229,219.721,58.49z"/>
					<path style="fill:#EEBD7D;" d="M219.757,58.849c0.137,0.259,0.493,0.267,0.642,0.016c0.062-0.105,0.065-0.237,0.008-0.344
						c-0.137-0.259-0.493-0.267-0.642-0.016C219.703,58.609,219.7,58.742,219.757,58.849z"/>
					<path style="opacity:0.47;fill:#E2AD6E;" d="M220.345,58.808c0.062-0.105,0.065-0.237,0.008-0.345
						c-0.011-0.021-0.024-0.039-0.038-0.057c0.036,0.03,0.067,0.068,0.092,0.114c0.057,0.107,0.054,0.24-0.008,0.344
						c-0.137,0.232-0.449,0.242-0.605,0.042C219.96,59.046,220.223,59.015,220.345,58.808z"/>
					<path style="fill:#F2C895;" d="M219.898,58.548c0.053,0.099,0.189,0.102,0.246,0.006c0.024-0.04,0.025-0.091,0.003-0.132
						c-0.052-0.099-0.189-0.103-0.246-0.006C219.877,58.455,219.876,58.506,219.898,58.548z"/>
				</g>
				<g>
					<path style="fill:#ECB86C;" d="M218.042,63.273c0.336,0.112,0.654-0.177,0.575-0.522c-0.033-0.143-0.141-0.262-0.28-0.309
						c-0.336-0.112-0.654,0.177-0.575,0.522C217.795,63.108,217.903,63.226,218.042,63.273z"/>
					<path style="fill:#D99643;" d="M218.026,63.272c0.336,0.112,0.654-0.177,0.575-0.522c-0.033-0.143-0.14-0.262-0.28-0.308
						c-0.336-0.112-0.654,0.177-0.575,0.522C217.779,63.107,217.886,63.225,218.026,63.272z"/>
					<path style="fill:#D9883E;" d="M217.777,62.965c0.033,0.143,0.141,0.262,0.28,0.308c0.037,0.012,0.074,0.019,0.11,0.022
						c-0.046-0.001-0.093-0.008-0.141-0.024c-0.139-0.047-0.247-0.165-0.28-0.308c-0.07-0.307,0.174-0.569,0.465-0.544
						C217.934,62.415,217.709,62.669,217.777,62.965z"/>
					<path style="fill:#EEBD7D;" d="M218.051,63.2c0.278,0.093,0.541-0.146,0.476-0.432c-0.027-0.119-0.116-0.216-0.232-0.255
						c-0.278-0.093-0.541,0.146-0.476,0.432C217.847,63.064,217.936,63.162,218.051,63.2z"/>
					<path style="opacity:0.47;fill:#E2AD6E;" d="M218.449,62.765c-0.027-0.118-0.116-0.216-0.232-0.255
						c-0.022-0.007-0.045-0.012-0.067-0.015c0.047-0.003,0.096,0.003,0.145,0.019c0.115,0.039,0.204,0.137,0.232,0.255
						c0.06,0.262-0.158,0.485-0.409,0.447C218.334,63.202,218.503,62.999,218.449,62.765z"/>
					<path style="fill:#F2C895;" d="M217.945,62.885c0.106,0.035,0.207-0.056,0.182-0.166c-0.01-0.045-0.045-0.083-0.089-0.098
						c-0.106-0.036-0.207,0.056-0.182,0.165C217.867,62.832,217.901,62.87,217.945,62.885z"/>
				</g>
				<g>
					<path style="fill:#ECB86C;" d="M219.861,67.586c0.321-0.15,0.352-0.58,0.057-0.775c-0.123-0.081-0.282-0.093-0.415-0.03
						c-0.32,0.15-0.352,0.579-0.057,0.775C219.568,67.637,219.728,67.648,219.861,67.586z"/>
					<path style="fill:#D99643;" d="M219.848,67.597c0.32-0.15,0.352-0.58,0.057-0.775c-0.123-0.081-0.282-0.093-0.415-0.03
						c-0.321,0.15-0.352,0.579-0.057,0.774C219.556,67.647,219.716,67.659,219.848,67.597z"/>
					<path style="fill:#D9883E;" d="M219.457,67.546c0.123,0.081,0.282,0.093,0.415,0.03c0.035-0.017,0.067-0.037,0.095-0.06
						c-0.034,0.031-0.073,0.059-0.119,0.08c-0.133,0.062-0.293,0.051-0.415-0.03c-0.263-0.173-0.266-0.532-0.038-0.715
						C219.191,67.04,219.204,67.379,219.457,67.546z"/>
					<path style="fill:#EEBD7D;" d="M219.818,67.527c0.265-0.124,0.291-0.48,0.047-0.641c-0.101-0.067-0.234-0.077-0.344-0.025
						c-0.265,0.124-0.291,0.48-0.047,0.641C219.575,67.569,219.707,67.579,219.818,67.527z"/>
					<path style="opacity:0.47;fill:#E2AD6E;" d="M219.805,66.938c-0.101-0.067-0.234-0.077-0.344-0.025
						c-0.021,0.01-0.041,0.022-0.059,0.035c0.032-0.034,0.071-0.064,0.118-0.086c0.11-0.052,0.242-0.042,0.344,0.025
						c0.224,0.148,0.22,0.46,0.012,0.606C220.024,67.334,220.006,67.07,219.805,66.938z"/>
					<path style="fill:#F2C895;" d="M219.523,67.372c0.102-0.047,0.111-0.184,0.018-0.246c-0.039-0.026-0.09-0.029-0.132-0.01
						c-0.102,0.048-0.111,0.184-0.018,0.246C219.43,67.388,219.481,67.392,219.523,67.372z"/>
				</g>
				<g>
					<path style="fill:#ECB86C;" d="M224.153,69.454c0.128-0.33-0.145-0.662-0.493-0.6c-0.145,0.026-0.268,0.128-0.322,0.265
						c-0.128,0.33,0.145,0.662,0.493,0.6C223.976,69.693,224.1,69.591,224.153,69.454z"/>
					<path style="fill:#D99643;" d="M224.151,69.471c0.128-0.33-0.145-0.662-0.493-0.6c-0.145,0.026-0.268,0.128-0.322,0.265
						c-0.128,0.33,0.145,0.662,0.493,0.6C223.974,69.71,224.098,69.608,224.151,69.471z"/>
					<path style="fill:#D9883E;" d="M223.833,69.704c0.145-0.026,0.268-0.128,0.322-0.264c0.014-0.036,0.023-0.073,0.027-0.109
						c-0.003,0.046-0.012,0.093-0.031,0.14c-0.053,0.137-0.177,0.239-0.322,0.264c-0.31,0.056-0.56-0.201-0.521-0.491
						C223.291,69.521,223.534,69.758,223.833,69.704z"/>
					<path style="fill:#EEBD7D;" d="M224.081,69.442c0.106-0.273-0.12-0.548-0.408-0.496c-0.12,0.021-0.222,0.106-0.266,0.219
						c-0.106,0.273,0.12,0.548,0.408,0.496C223.935,69.639,224.037,69.555,224.081,69.442z"/>
					<path style="opacity:0.47;fill:#E2AD6E;" d="M223.665,69.023c-0.12,0.021-0.222,0.106-0.266,0.219
						c-0.009,0.022-0.014,0.044-0.019,0.066c-0.001-0.047,0.007-0.095,0.026-0.144c0.044-0.113,0.147-0.198,0.266-0.219
						c0.265-0.047,0.477,0.181,0.427,0.43C224.097,69.159,223.902,68.981,223.665,69.023z"/>
					<path style="fill:#F2C895;" d="M223.76,69.532c0.041-0.104-0.046-0.21-0.156-0.19c-0.046,0.008-0.085,0.041-0.102,0.084
						c-0.041,0.105,0.046,0.21,0.156,0.19C223.704,69.608,223.743,69.576,223.76,69.532z"/>
				</g>
				<g>
					<path style="fill:#ECB86C;" d="M228.549,67.847c-0.135-0.328-0.562-0.379-0.771-0.094c-0.087,0.119-0.106,0.278-0.05,0.414
						c0.135,0.327,0.562,0.379,0.771,0.094C228.586,68.142,228.605,67.983,228.549,67.847z"/>
					<path style="fill:#D99643;" d="M228.559,67.86c-0.135-0.327-0.562-0.379-0.771-0.094c-0.087,0.118-0.106,0.277-0.05,0.413
						c0.135,0.327,0.562,0.379,0.771,0.094C228.596,68.155,228.615,67.996,228.559,67.86z"/>
					<path style="fill:#D9883E;" d="M228.49,68.249c0.087-0.119,0.106-0.277,0.05-0.413c-0.015-0.036-0.034-0.068-0.055-0.098
						c0.03,0.035,0.055,0.075,0.074,0.122c0.056,0.136,0.036,0.295-0.05,0.414c-0.186,0.254-0.544,0.24-0.716,0.004
						C227.971,68.489,228.31,68.494,228.49,68.249z"/>
					<path style="fill:#EEBD7D;" d="M228.488,67.888c-0.111-0.271-0.465-0.314-0.638-0.078c-0.072,0.098-0.088,0.229-0.042,0.342
						c0.111,0.271,0.465,0.314,0.638,0.078C228.519,68.131,228.535,68,228.488,67.888z"/>
					<path style="opacity:0.47;fill:#E2AD6E;" d="M227.899,67.872c-0.072,0.098-0.088,0.229-0.042,0.342
						c0.009,0.022,0.02,0.042,0.032,0.061c-0.033-0.033-0.06-0.074-0.08-0.122c-0.046-0.112-0.03-0.244,0.042-0.342
						c0.159-0.217,0.47-0.198,0.606,0.017C228.305,67.672,228.041,67.677,227.899,67.872z"/>
					<path style="fill:#F2C895;" d="M228.319,68.174c-0.043-0.104-0.178-0.12-0.244-0.03c-0.028,0.038-0.034,0.088-0.016,0.131
						c0.043,0.104,0.178,0.12,0.244,0.03C228.33,68.268,228.337,68.217,228.319,68.174z"/>
				</g>
				<g>
					<path style="fill:#ECB86C;" d="M230.624,63.651c-0.323-0.144-0.668,0.113-0.623,0.464c0.019,0.146,0.114,0.274,0.249,0.334
						c0.323,0.144,0.668-0.113,0.623-0.464C230.853,63.839,230.758,63.711,230.624,63.651z"/>
					<path style="fill:#D99643;" d="M230.64,63.653c-0.323-0.144-0.668,0.113-0.623,0.464c0.019,0.146,0.115,0.274,0.249,0.334
						c0.323,0.144,0.668-0.113,0.623-0.464C230.87,63.842,230.774,63.713,230.64,63.653z"/>
					<path style="fill:#D9883E;" d="M230.858,63.983c-0.019-0.146-0.115-0.274-0.249-0.334c-0.036-0.016-0.072-0.026-0.107-0.033
						c0.046,0.005,0.092,0.017,0.138,0.037c0.134,0.06,0.23,0.188,0.249,0.334c0.04,0.312-0.228,0.549-0.516,0.497
						C230.648,64.515,230.896,64.284,230.858,63.983z"/>
					<path style="fill:#EEBD7D;" d="M230.608,63.722c-0.267-0.119-0.553,0.093-0.515,0.384c0.016,0.12,0.095,0.227,0.206,0.276
						c0.267,0.119,0.553-0.093,0.515-0.383C230.798,63.878,230.719,63.772,230.608,63.722z"/>
					<path style="opacity:0.47;fill:#E2AD6E;" d="M230.169,64.117c0.016,0.121,0.095,0.227,0.206,0.277
						c0.022,0.009,0.043,0.016,0.065,0.022c-0.047-0.002-0.095-0.012-0.142-0.033c-0.111-0.05-0.19-0.156-0.206-0.277
						c-0.035-0.267,0.204-0.467,0.45-0.405C230.326,63.693,230.138,63.878,230.169,64.117z"/>
					<path style="fill:#F2C895;" d="M230.683,64.047c-0.103-0.046-0.212,0.036-0.197,0.147c0.006,0.046,0.036,0.087,0.079,0.106
						c0.102,0.046,0.212-0.036,0.198-0.147C230.755,64.106,230.725,64.065,230.683,64.047z"/>
				</g>
				<g>
					<path style="fill:#ECB86C;" d="M229.231,59.182c-0.333,0.119-0.406,0.543-0.131,0.765c0.114,0.092,0.272,0.119,0.41,0.07
						c0.333-0.119,0.406-0.543,0.131-0.765C229.528,59.16,229.37,59.133,229.231,59.182z"/>
					<path style="fill:#D99643;" d="M229.245,59.172c-0.333,0.119-0.406,0.543-0.131,0.765c0.114,0.093,0.272,0.12,0.41,0.071
						c0.333-0.119,0.406-0.543,0.131-0.766C229.541,59.15,229.383,59.123,229.245,59.172z"/>
					<path style="fill:#D9883E;" d="M229.63,59.261c-0.114-0.092-0.272-0.119-0.41-0.07c-0.037,0.013-0.07,0.031-0.1,0.05
						c0.037-0.028,0.078-0.052,0.126-0.068c0.139-0.049,0.296-0.022,0.41,0.07c0.245,0.198,0.214,0.555-0.031,0.715
						C229.845,59.79,229.865,59.452,229.63,59.261z"/>
					<path style="fill:#EEBD7D;" d="M229.269,59.244c-0.276,0.098-0.336,0.449-0.109,0.633c0.094,0.077,0.225,0.099,0.34,0.058
						c0.276-0.098,0.336-0.449,0.109-0.633C229.514,59.226,229.383,59.204,229.269,59.244z"/>
					<path style="opacity:0.47;fill:#E2AD6E;" d="M229.224,59.833c0.094,0.077,0.225,0.099,0.34,0.058
						c0.022-0.008,0.043-0.018,0.062-0.029c-0.035,0.031-0.077,0.057-0.126,0.074c-0.115,0.041-0.245,0.018-0.34-0.058
						c-0.209-0.169-0.175-0.479,0.046-0.604C229.045,59.417,229.037,59.681,229.224,59.833z"/>
					<path style="fill:#F2C895;" d="M229.547,59.428c-0.106,0.038-0.129,0.172-0.042,0.243c0.036,0.029,0.086,0.038,0.13,0.022
						c0.106-0.038,0.129-0.172,0.042-0.243C229.641,59.421,229.591,59.412,229.547,59.428z"/>
				</g>
			</g>
		</g>
		<path style="opacity:0.36;fill:#D2D4D6;" d="M221.748,72.987h5.13c-0.089,0.258-0.334,0.442-0.622,0.442h-0.448v3.309h-2.99
			v-3.309h-0.448C222.082,73.429,221.838,73.244,221.748,72.987z"/>
	</g>
	<g>
		<g>
			<path style="fill:#113D86;" d="M340.876,97.643h-23.563c-0.566,0-1.025,0.459-1.025,1.024v12.977
				c0,0.566,0.459,1.024,1.025,1.024h23.563c0.566,0,1.024-0.459,1.024-1.024V98.668C341.9,98.102,341.442,97.643,340.876,97.643z
				 M340.193,111.303h-22.197V99.009h22.197V111.303z"/>
			<path style="fill:#113D86;" d="M316.657,108.45c0,0.377-0.306,0.683-0.683,0.683h-1.366c-0.377,0-0.683-0.306-0.683-0.683v-6.83
				c0-0.377,0.306-0.683,0.683-0.683h1.366c0.377,0,0.683,0.306,0.683,0.683V108.45z"/>
			<path style="fill:#113D86;" d="M323.253,109.887c0,0.377-0.306,0.683-0.683,0.683h-2.732c-0.377,0-0.683-0.306-0.683-0.683v-9.22
				c0-0.377,0.306-0.683,0.683-0.683h2.732c0.377,0,0.683,0.306,0.683,0.683V109.887z"/>
			<path style="fill:#113D86;" d="M328.492,109.887c0,0.377-0.306,0.683-0.683,0.683h-2.732c-0.377,0-0.683-0.306-0.683-0.683v-9.22
				c0-0.377,0.306-0.683,0.683-0.683h2.732c0.377,0,0.683,0.306,0.683,0.683V109.887z"/>
			<path style="fill:#113D86;" d="M333.851,109.887c0,0.377-0.306,0.683-0.683,0.683h-2.732c-0.377,0-0.683-0.306-0.683-0.683v-9.22
				c0-0.377,0.306-0.683,0.683-0.683h2.732c0.377,0,0.683,0.306,0.683,0.683V109.887z"/>
			<path style="fill:#113D86;" d="M339.089,109.887c0,0.377-0.306,0.683-0.683,0.683h-2.732c-0.377,0-0.683-0.306-0.683-0.683v-9.22
				c0-0.377,0.306-0.683,0.683-0.683h2.732c0.377,0,0.683,0.306,0.683,0.683V109.887z"/>
		</g>
		<g>
			<path style="fill:#113D86;" d="M312.552,97.643h-23.563c-0.566,0-1.025,0.459-1.025,1.024v12.977
				c0,0.566,0.459,1.024,1.025,1.024h23.563c0.566,0,1.025-0.459,1.025-1.024V98.668C313.576,98.102,313.117,97.643,312.552,97.643z
				 M311.868,111.303h-22.197V99.009h22.197V111.303z"/>
			<path style="fill:#113D86;" d="M288.332,108.45c0,0.377-0.306,0.683-0.683,0.683h-1.366c-0.377,0-0.683-0.306-0.683-0.683v-6.83
				c0-0.377,0.306-0.683,0.683-0.683h1.366c0.377,0,0.683,0.306,0.683,0.683V108.45z"/>
			<path style="fill:#113D86;" d="M294.929,109.887c0,0.377-0.306,0.683-0.683,0.683h-2.732c-0.377,0-0.683-0.306-0.683-0.683v-9.22
				c0-0.377,0.306-0.683,0.683-0.683h2.732c0.377,0,0.683,0.306,0.683,0.683V109.887z"/>
			<path style="fill:#113D86;" d="M300.168,109.887c0,0.377-0.306,0.683-0.683,0.683h-2.732c-0.377,0-0.683-0.306-0.683-0.683v-9.22
				c0-0.377,0.306-0.683,0.683-0.683h2.732c0.377,0,0.683,0.306,0.683,0.683V109.887z"/>
			<path style="fill:#113D86;" d="M305.527,109.887c0,0.377-0.306,0.683-0.683,0.683h-2.732c-0.377,0-0.683-0.306-0.683-0.683v-9.22
				c0-0.377,0.306-0.683,0.683-0.683h2.732c0.377,0,0.683,0.306,0.683,0.683V109.887z"/>
			<path style="fill:#113D86;" d="M310.765,109.887c0,0.377-0.306,0.683-0.683,0.683h-2.732c-0.377,0-0.683-0.306-0.683-0.683v-9.22
				c0-0.377,0.306-0.683,0.683-0.683h2.732c0.377,0,0.683,0.306,0.683,0.683V109.887z"/>
		</g>
		<g>
			<path style="fill:#113D86;" d="M284.227,97.643h-23.563c-0.566,0-1.024,0.459-1.024,1.024v12.977
				c0,0.566,0.459,1.024,1.024,1.024h23.563c0.566,0,1.024-0.459,1.024-1.024V98.668C285.252,98.102,284.793,97.643,284.227,97.643z
				 M283.544,111.303h-22.197V99.009h22.197V111.303z"/>
			<path style="fill:#113D86;" d="M260.008,108.45c0,0.377-0.306,0.683-0.683,0.683h-1.366c-0.377,0-0.683-0.306-0.683-0.683v-6.83
				c0-0.377,0.306-0.683,0.683-0.683h1.366c0.377,0,0.683,0.306,0.683,0.683V108.45z"/>
			<path style="fill:#113D86;" d="M266.605,109.887c0,0.377-0.306,0.683-0.683,0.683h-2.732c-0.377,0-0.683-0.306-0.683-0.683v-9.22
				c0-0.377,0.306-0.683,0.683-0.683h2.732c0.377,0,0.683,0.306,0.683,0.683V109.887z"/>
			<path style="fill:#113D86;" d="M271.843,109.887c0,0.377-0.306,0.683-0.683,0.683h-2.732c-0.377,0-0.683-0.306-0.683-0.683v-9.22
				c0-0.377,0.306-0.683,0.683-0.683h2.732c0.377,0,0.683,0.306,0.683,0.683V109.887z"/>
			<path style="fill:#113D86;" d="M277.203,109.887c0,0.377-0.306,0.683-0.683,0.683h-2.732c-0.377,0-0.683-0.306-0.683-0.683v-9.22
				c0-0.377,0.306-0.683,0.683-0.683h2.732c0.377,0,0.683,0.306,0.683,0.683V109.887z"/>
			<path style="fill:#113D86;" d="M282.441,109.887c0,0.377-0.306,0.683-0.683,0.683h-2.732c-0.377,0-0.683-0.306-0.683-0.683v-9.22
				c0-0.377,0.306-0.683,0.683-0.683h2.732c0.377,0,0.683,0.306,0.683,0.683V109.887z"/>
		</g>
		<g>
			<g>
				<path style="fill:#113D86;" d="M244.092,106.055h-1.158c-5.25,0-6.806-2.914-6.806-8.163V95.53h2.986v2.362
					c0,3.603,0.217,5.177,3.82,5.177h1.158V106.055z"/>
			</g>
			<rect x="243.043" y="103.069" style="fill:#113672;" width="14.234" height="2.986"/>
			<rect x="236.128" y="95.53" style="fill:#113672;" width="2.986" height="1.156"/>
			<g>
				<path style="fill:#1283C3;" d="M244.813,106.569v-4.112c0-0.414-0.335-0.749-0.749-0.749c-0.414,0-0.749,0.335-0.749,0.749
					v4.112c0,0.414,0.335,0.749,0.749,0.749C244.477,107.318,244.813,106.983,244.813,106.569z"/>
				<path style="fill:#1283C3;" d="M240.347,95.53c0-0.414-0.335-0.749-0.749-0.749h-4.113c-0.414,0-0.749,0.335-0.749,0.749
					c0,0.414,0.335,0.749,0.749,0.749h4.113C240.012,96.279,240.347,95.944,240.347,95.53z"/>
			</g>
		</g>
	</g>
</g>
<g style="opacity:0.4;">
	<rect x="365.078" y="54.519" style="opacity:0.3;fill:#95D3DE;" width="21.948" height="21.948"/>
	
		<linearGradient id="SVGID_1_" gradientUnits="userSpaceOnUse" x1="-9047.6572" y1="39.7543" x2="-8970.1484" y2="39.7543" gradientTransform="matrix(-1 0 0 1 -8597.9482 0)">
		<stop  offset="0" style="stop-color:#113D86"/>
		<stop  offset="1" style="stop-color:#34A4DD"/>
	</linearGradient>
	<circle style="opacity:0.7;fill:url(#SVGID_1_);" cx="410.955" cy="39.754" r="38.754"/>
	<rect x="347.919" y="174.144" style="opacity:0.5;fill:#95D3DE;" width="28.133" height="26.203"/>
</g>
<g style="opacity:0.4;">
	<rect x="107.619" y="116.321" style="opacity:0.5;fill:#113D86;" width="80.19" height="47.675"/>
	<rect x="312.042" y="15.917" style="opacity:0.3;fill:#113D86;" width="80.19" height="47.675"/>
	
		<linearGradient id="SVGID_2_" gradientUnits="userSpaceOnUse" x1="-1026.3308" y1="9213.0059" x2="-978.1409" y2="9213.0059" gradientTransform="matrix(4.489700e-11 -1 1 4.489700e-11 -9121.1006 -889.0714)">
		<stop  offset="0" style="stop-color:#113D86"/>
		<stop  offset="1" style="stop-color:#34A4DD"/>
	</linearGradient>
	<circle style="opacity:0.7;fill:url(#SVGID_2_);" cx="91.906" cy="113.164" r="24.095"/>
	<circle style="fill:#113D86;" cx="147.714" cy="104.846" r="8.671"/>
	<rect x="107.796" y="103.699" style="opacity:0.1;fill:#2A60A4;" width="14.055" height="14.055"/>
</g>
<g style="opacity:0.3;">
	<g>
		<rect x="26.049" y="45.582" style="fill:#113D86;" width="45.979" height="1.722"/>
		<rect x="19.463" y="56.474" style="fill:#113D86;" width="54.158" height="1.722"/>
		<rect x="70.435" y="47.305" style="fill:#113D86;" width="0.904" height="9.17"/>
		<rect x="63.332" y="47.305" style="fill:#113D86;" width="0.904" height="9.17"/>
		<rect x="56.228" y="47.305" style="fill:#113D86;" width="0.904" height="9.17"/>
		<rect x="49.125" y="47.305" style="fill:#113D86;" width="0.904" height="9.17"/>
		<rect x="42.021" y="47.305" style="fill:#113D86;" width="0.904" height="9.17"/>
		<rect x="34.918" y="47.305" style="fill:#113D86;" width="0.904" height="9.17"/>
		<rect x="27.815" y="47.305" style="fill:#113D86;" width="0.904" height="9.17"/>
	</g>
	<g>
		<rect x="10.992" y="51.028" style="fill:#113D86;" width="45.979" height="1.722"/>
		<rect x="4.405" y="61.92" style="fill:#113D86;" width="54.158" height="1.722"/>
		<polygon style="fill:#113D86;" points="4.405,61.945 58.563,61.945 73.621,58.151 19.463,58.151 		"/>
		<rect x="55.378" y="52.75" style="fill:#113D86;" width="0.904" height="9.17"/>
		<rect x="48.274" y="52.75" style="fill:#113D86;" width="0.904" height="9.17"/>
		<rect x="41.171" y="52.75" style="fill:#113D86;" width="0.904" height="9.17"/>
		<rect x="34.067" y="52.75" style="fill:#113D86;" width="0.904" height="9.17"/>
		<rect x="26.964" y="52.75" style="fill:#113D86;" width="0.904" height="9.17"/>
		<rect x="19.86" y="52.75" style="fill:#113D86;" width="0.904" height="9.17"/>
		<rect x="12.757" y="52.75" style="fill:#113D86;" width="0.904" height="9.17"/>
	</g>
	<g>
		<rect x="13.231" y="63.642" style="fill:#113D86;" width="18.77" height="7.792"/>
		<g>
			<rect x="10.992" y="109.19" style="fill:#113D86;" width="23.075" height="2.411"/>
			<rect x="12.154" y="111.601" style="fill:#113D86;" width="20.578" height="8.007"/>
			<g>
				<polygon style="fill:#113D86;" points="31.742,109.19 32.69,109.19 30.968,71.435 30.02,71.435 				"/>
				<polygon style="fill:#113D86;" points="13.274,109.19 12.326,109.19 14.049,71.435 14.996,71.435 				"/>
				<rect x="22.013" y="71.435" style="fill:#113D86;" width="0.818" height="37.756"/>
				
					<rect x="21.927" y="67.129" transform="matrix(-0.5877 -0.8091 0.8091 -0.5877 -27.1869 140.3376)" style="fill:#113D86;" width="0.474" height="19.934"/>
				
					<rect x="22.483" y="66.982" transform="matrix(0.5877 -0.8091 0.8091 0.5877 -53.1734 50.2522)" style="fill:#113D86;" width="0.474" height="20.634"/>
				
					<rect x="21.78" y="78.71" transform="matrix(-0.5877 -0.8091 0.8091 -0.5877 -37.1264 159.3058)" style="fill:#113D86;" width="0.494" height="20.806"/>
				
					<rect x="22.361" y="78.557" transform="matrix(0.5877 -0.8091 0.8091 0.5877 -62.9493 55.1193)" style="fill:#113D86;" width="0.494" height="21.536"/>
				
					<rect x="22.045" y="90.824" transform="matrix(-0.5877 -0.8091 0.8091 -0.5877 -47.4381 180.6934)" style="fill:#113D86;" width="0.552" height="23.22"/>
				
					<rect x="22.693" y="90.653" transform="matrix(0.5877 -0.8091 0.8091 0.5877 -73.5983 60.9137)" style="fill:#113D86;" width="0.552" height="24.035"/>
			</g>
		</g>
		<g>
			<rect x="10.398" y="156.958" style="fill:#113D86;" width="24.262" height="2.535"/>
			<rect x="11.621" y="159.493" style="fill:#113D86;" width="21.637" height="8.419"/>
			<g>
				<polygon style="fill:#113D86;" points="32.216,156.958 33.212,156.958 31.402,117.26 30.406,117.26 				"/>
				<polygon style="fill:#113D86;" points="12.797,156.958 11.802,156.958 13.612,117.26 14.608,117.26 				"/>
				<rect x="21.986" y="117.26" style="fill:#113D86;" width="0.86" height="39.698"/>
				
					<rect x="21.896" y="112.732" transform="matrix(-0.5877 -0.8091 0.8091 -0.5877 -64.5283 213.5415)" style="fill:#113D86;" width="0.498" height="20.959"/>
				
					<rect x="22.481" y="112.578" transform="matrix(0.5877 -0.8091 0.8091 0.5877 -90.4894 69.2779)" style="fill:#113D86;" width="0.498" height="21.695"/>
				
					<rect x="21.741" y="124.909" transform="matrix(-0.5877 -0.8091 0.8091 -0.5877 -74.9791 233.4854)" style="fill:#113D86;" width="0.52" height="21.876"/>
				
					<rect x="22.352" y="124.748" transform="matrix(0.5877 -0.8091 0.8091 0.5877 -100.7682 74.3953)" style="fill:#113D86;" width="0.52" height="22.644"/>
				
					<rect x="22.02" y="137.646" transform="matrix(-0.5877 -0.8091 0.8091 -0.5877 -85.8212 255.9733)" style="fill:#113D86;" width="0.58" height="24.415"/>
				
					<rect x="22.701" y="137.467" transform="matrix(0.5877 -0.8091 0.8091 0.5877 -111.9649 80.4879)" style="fill:#113D86;" width="0.58" height="25.272"/>
			</g>
		</g>
		<g>
			<rect x="10.398" y="204.486" style="fill:#113D86;" width="24.262" height="2.535"/>
			<rect x="11.621" y="207.021" style="fill:#113D86;" width="21.637" height="8.419"/>
			<g>
				<polygon style="fill:#113D86;" points="32.216,204.486 33.212,204.486 31.402,164.788 30.406,164.788 				"/>
				<polygon style="fill:#113D86;" points="12.797,204.486 11.802,204.486 13.612,164.788 14.608,164.788 				"/>
				<rect x="21.986" y="164.788" style="fill:#113D86;" width="0.86" height="39.698"/>
				
					<rect x="21.896" y="160.261" transform="matrix(-0.5877 -0.8091 0.8091 -0.5877 -102.9823 289.0025)" style="fill:#113D86;" width="0.498" height="20.959"/>
				
					<rect x="22.481" y="160.107" transform="matrix(0.5877 -0.8091 0.8091 0.5877 -128.9433 88.8735)" style="fill:#113D86;" width="0.498" height="21.695"/>
				
					<rect x="21.741" y="172.437" transform="matrix(-0.5877 -0.8091 0.8091 -0.5877 -113.433 308.9465)" style="fill:#113D86;" width="0.52" height="21.876"/>
				
					<rect x="22.352" y="172.276" transform="matrix(0.5877 -0.8091 0.8091 0.5877 -139.2221 93.991)" style="fill:#113D86;" width="0.52" height="22.644"/>
				
					<rect x="22.02" y="185.174" transform="matrix(-0.5877 -0.8091 0.8091 -0.5877 -124.2752 331.4344)" style="fill:#113D86;" width="0.58" height="24.415"/>
				
					<rect x="22.701" y="184.995" transform="matrix(0.5877 -0.8091 0.8091 0.5877 -150.4188 100.0835)" style="fill:#113D86;" width="0.58" height="25.272"/>
			</g>
		</g>
	</g>
	<g>
		<polygon style="fill:#113D86;" points="6.726,214.278 7.372,214.278 12.632,63.642 11.986,63.642 		"/>
		<polygon style="fill:#113D86;" points="1,214.278 1.646,214.278 6.906,63.642 6.26,63.642 		"/>
		<polygon style="fill:#113D86;" points="6.476,66.096 12.202,66.096 12.223,65.494 6.497,65.494 		"/>
		<polygon style="fill:#113D86;" points="6.386,68.679 12.112,68.679 12.133,68.077 6.407,68.077 		"/>
		<polygon style="fill:#113D86;" points="6.296,71.262 12.021,71.262 12.042,70.66 6.317,70.66 		"/>
		<polygon style="fill:#113D86;" points="6.205,73.845 11.931,73.845 11.952,73.243 6.226,73.243 		"/>
		<polygon style="fill:#113D86;" points="6.115,76.429 11.841,76.429 11.862,75.826 6.136,75.826 		"/>
		<polygon style="fill:#113D86;" points="6.025,79.012 11.751,79.012 11.772,78.409 6.046,78.409 		"/>
		<polygon style="fill:#113D86;" points="5.935,81.595 11.661,81.595 11.682,80.992 5.956,80.992 		"/>
		<polygon style="fill:#113D86;" points="5.845,84.178 11.57,84.178 11.591,83.575 5.866,83.575 		"/>
		<polygon style="fill:#113D86;" points="5.754,86.761 11.48,86.761 11.501,86.158 5.775,86.158 		"/>
		<polygon style="fill:#113D86;" points="5.664,89.344 11.39,89.344 11.411,88.741 5.685,88.741 		"/>
		<polygon style="fill:#113D86;" points="5.574,91.927 11.3,91.927 11.321,91.324 5.595,91.324 		"/>
		<polygon style="fill:#113D86;" points="5.484,94.51 11.21,94.51 11.231,93.907 5.505,93.907 		"/>
		<polygon style="fill:#113D86;" points="5.394,97.093 11.119,97.093 11.14,96.49 5.415,96.49 		"/>
		<polygon style="fill:#113D86;" points="5.303,99.676 11.029,99.676 11.05,99.073 5.324,99.073 		"/>
		<polygon style="fill:#113D86;" points="5.213,102.259 10.939,102.259 10.96,101.656 5.234,101.656 		"/>
		<polygon style="fill:#113D86;" points="5.123,104.842 10.849,104.842 10.87,104.239 5.144,104.239 		"/>
		<polygon style="fill:#113D86;" points="5.033,107.425 10.759,107.425 10.78,106.823 5.054,106.823 		"/>
		<polygon style="fill:#113D86;" points="4.943,110.008 10.668,110.008 10.689,109.406 4.964,109.406 		"/>
		<polygon style="fill:#113D86;" points="4.852,112.591 10.578,112.591 10.599,111.989 4.873,111.989 		"/>
		<polygon style="fill:#113D86;" points="4.762,115.174 10.488,115.174 10.509,114.572 4.783,114.572 		"/>
		<polygon style="fill:#113D86;" points="4.672,117.758 10.398,117.758 10.419,117.155 4.693,117.155 		"/>
		<polygon style="fill:#113D86;" points="4.582,120.341 10.308,120.341 10.329,119.738 4.603,119.738 		"/>
		<polygon style="fill:#113D86;" points="4.492,122.924 10.217,122.924 10.238,122.321 4.513,122.321 		"/>
		<polygon style="fill:#113D86;" points="4.401,125.507 10.127,125.507 10.148,124.904 4.422,124.904 		"/>
		<polygon style="fill:#113D86;" points="4.311,128.09 10.037,128.09 10.058,127.487 4.332,127.487 		"/>
		<polygon style="fill:#113D86;" points="4.221,130.673 9.947,130.673 9.968,130.07 4.242,130.07 		"/>
		<polygon style="fill:#113D86;" points="4.131,133.256 9.856,133.256 9.878,132.653 4.152,132.653 		"/>
		<polygon style="fill:#113D86;" points="4.041,135.839 9.766,135.839 9.787,135.236 4.062,135.236 		"/>
		<polygon style="fill:#113D86;" points="3.95,138.422 9.676,138.422 9.697,137.819 3.971,137.819 		"/>
		<polygon style="fill:#113D86;" points="3.86,141.005 9.586,141.005 9.607,140.402 3.881,140.402 		"/>
		<polygon style="fill:#113D86;" points="3.77,143.588 9.496,143.588 9.517,142.985 3.791,142.985 		"/>
		<polygon style="fill:#113D86;" points="3.68,146.171 9.405,146.171 9.427,145.568 3.701,145.568 		"/>
		<polygon style="fill:#113D86;" points="3.589,148.754 9.315,148.754 9.336,148.152 3.611,148.152 		"/>
		<polygon style="fill:#113D86;" points="3.499,151.337 9.225,151.337 9.246,150.735 3.52,150.735 		"/>
		<polygon style="fill:#113D86;" points="3.409,153.92 9.135,153.92 9.156,153.318 3.43,153.318 		"/>
		<polygon style="fill:#113D86;" points="3.319,156.503 9.045,156.503 9.066,155.901 3.34,155.901 		"/>
		<polygon style="fill:#113D86;" points="3.229,159.087 8.954,159.087 8.976,158.484 3.25,158.484 		"/>
		<polygon style="fill:#113D86;" points="3.138,161.67 8.864,161.67 8.885,161.067 3.16,161.067 		"/>
		<polygon style="fill:#113D86;" points="3.048,164.253 8.774,164.253 8.795,163.65 3.069,163.65 		"/>
		<polygon style="fill:#113D86;" points="2.958,166.836 8.684,166.836 8.705,166.233 2.979,166.233 		"/>
		<polygon style="fill:#113D86;" points="2.868,169.419 8.594,169.419 8.615,168.816 2.889,168.816 		"/>
		<polygon style="fill:#113D86;" points="2.778,172.002 8.503,172.002 8.525,171.399 2.799,171.399 		"/>
		<polygon style="fill:#113D86;" points="2.687,174.585 8.413,174.585 8.434,173.982 2.709,173.982 		"/>
		<polygon style="fill:#113D86;" points="2.597,177.168 8.323,177.168 8.344,176.565 2.618,176.565 		"/>
		<polygon style="fill:#113D86;" points="2.507,179.751 8.233,179.751 8.254,179.148 2.528,179.148 		"/>
		<polygon style="fill:#113D86;" points="2.417,182.334 8.143,182.334 8.164,181.731 2.438,181.731 		"/>
		<polygon style="fill:#113D86;" points="2.327,184.917 8.052,184.917 8.073,184.314 2.348,184.314 		"/>
		<polygon style="fill:#113D86;" points="2.236,187.5 7.962,187.5 7.983,186.897 2.258,186.897 		"/>
		<polygon style="fill:#113D86;" points="2.146,190.083 7.872,190.083 7.893,189.481 2.167,189.481 		"/>
		<polygon style="fill:#113D86;" points="2.056,192.666 7.782,192.666 7.803,192.064 2.077,192.064 		"/>
		<polygon style="fill:#113D86;" points="1.966,195.249 7.692,195.249 7.713,194.647 1.987,194.647 		"/>
		<polygon style="fill:#113D86;" points="1.876,197.832 7.601,197.832 7.622,197.23 1.897,197.23 		"/>
		<polygon style="fill:#113D86;" points="1.785,200.415 7.511,200.415 7.532,199.813 1.806,199.813 		"/>
		<polygon style="fill:#113D86;" points="1.695,202.999 7.421,202.999 7.442,202.396 1.716,202.396 		"/>
		<polygon style="fill:#113D86;" points="1.605,205.582 7.331,205.582 7.352,204.979 1.626,204.979 		"/>
		<polygon style="fill:#113D86;" points="1.515,208.165 7.241,208.165 7.262,207.562 1.536,207.562 		"/>
		<polygon style="fill:#113D86;" points="1.425,210.748 7.15,210.748 7.171,210.145 1.446,210.145 		"/>
		<polygon style="fill:#113D86;" points="1.334,213.331 7.06,213.331 7.081,212.728 1.355,212.728 		"/>
	</g>
</g>
</svg>
