<?xml version="1.0" encoding="iso-8859-1"?>
<!-- Generator: Adobe Illustrator 17.1.0, SVG Export Plug-In . SVG Version: 6.00 Build 0)  -->
<!DOCTYPE svg PUBLIC "-//W3C//DTD SVG 1.1//EN" "http://www.w3.org/Graphics/SVG/1.1/DTD/svg11.dtd">
<svg version="1.1" id="&#x56FE;&#x5C42;_1" xmlns="http://www.w3.org/2000/svg" xmlns:xlink="http://www.w3.org/1999/xlink" x="0px"
	 y="0px" viewBox="0 0 798 892" style="enable-background:new 0 0 798 892;" xml:space="preserve">
<g style="opacity:0.3;">
	<rect x="689.56" y="698.548" style="opacity:0.1;fill:#2A60A4;" width="156.388" height="100.353"/>
	<linearGradient id="SVGID_1_" gradientUnits="userSpaceOnUse" x1="500.7485" y1="714.6929" x2="701.1286" y2="714.6929">
		<stop  offset="0" style="stop-color:#113D86"/>
		<stop  offset="1" style="stop-color:#34A4DD"/>
	</linearGradient>
	<circle style="fill:url(#SVGID_1_);" cx="600.938" cy="714.693" r="100.19"/>
	<rect x="667.014" y="675.333" style="opacity:0.3;fill:#2A60A4;" width="58.442" height="58.442"/>
	<linearGradient id="SVGID_2_" gradientUnits="userSpaceOnUse" x1="391.5117" y1="823.8618" x2="691.5782" y2="823.8618">
		<stop  offset="0" style="stop-color:#113D86"/>
		<stop  offset="1" style="stop-color:#34A4DD"/>
	</linearGradient>
	<rect x="391.512" y="766.036" style="fill:url(#SVGID_2_);" width="300.067" height="115.651"/>
	<rect x="662.975" y="736.227" style="opacity:0.5;fill:#95D3DE;" width="46.423" height="145.46"/>
</g>
<g>
	<g>
		<rect x="582.999" y="116.97" style="opacity:0.3;fill:#113D86;" width="211.864" height="135.951"/>
		<circle style="opacity:0.1;fill:#1283C3;" cx="462.941" cy="138.842" r="135.731"/>
		<rect x="552.456" y="85.52" style="opacity:0.3;fill:#2A60A4;" width="79.174" height="79.174"/>
		<rect x="282.84" y="208.399" style="opacity:0.15;fill:#2A60A4;" width="302.894" height="156.677"/>
		<rect x="546.983" y="168.016" style="opacity:0.1;fill:#1283C3;" width="62.891" height="197.06"/>
	</g>
	<g style="opacity:0.2;">
		<g>
			<rect x="677.373" y="253.173" style="fill:#113D86;" width="55.368" height="29.832"/>
			<g>
				<rect x="671.277" y="427.549" style="fill:#113D86;" width="68.067" height="9.23"/>
				<rect x="675.214" y="436.778" style="fill:#113D86;" width="60.702" height="30.656"/>
				<g>
					<polygon style="fill:#113D86;" points="678.135,427.549 675.341,427.549 680.42,283.005 683.214,283.005 					"/>
					<polygon style="fill:#113D86;" points="732.614,427.549 735.407,427.549 730.328,283.005 727.534,283.005 					"/>
					<rect x="704.422" y="283.005" style="fill:#113D86;" width="2.413" height="144.544"/>
					<polygon style="fill:#113D86;" points="730.641,326.273 729.82,327.74 682.139,283.083 682.96,281.616 					"/>
					<polygon style="fill:#113D86;" points="679.662,327.839 680.483,329.306 729.835,283.074 729.014,281.608 					"/>
					<polygon style="fill:#113D86;" points="732.106,373.222 731.249,374.753 681.481,328.143 682.338,326.612 					"/>
					<polygon style="fill:#113D86;" points="678.896,374.857 679.753,376.387 731.264,328.134 730.407,326.603 					"/>
					<polygon style="fill:#113D86;" points="734.177,426.837 733.221,428.545 677.678,376.526 678.634,374.817 					"/>
					<polygon style="fill:#113D86;" points="674.793,428.66 675.75,430.369 733.237,376.516 732.281,374.807 					"/>
				</g>
			</g>
		</g>
		<g>
			<g>
				<g>
					<g>
						<polygon style="fill:#113D86;" points="662.317,485.494 678.511,526.071 636.466,584.271 612.529,584.271 						"/>
					</g>
				</g>
				<g>
					<g>
						<polygon style="fill:#113D86;" points="653.245,670.089 669.55,677.974 636.545,583.493 612.529,584.271 						"/>
					</g>
				</g>
			</g>
			<g>
				<g>
					<g>
						<polygon style="fill:#113D86;" points="753.023,487.088 736.826,527.665 778.871,585.865 802.809,585.865 						"/>
					</g>
				</g>
				<g>
					<g>
						<polygon style="fill:#113D86;" points="762.094,671.684 745.787,679.568 778.794,585.088 802.809,585.865 						"/>
					</g>
				</g>
			</g>
			<g>
				<polygon style="fill:#113D86;" points="673.528,533.69 657.034,493.036 673.528,452.381 739.536,452.381 756.031,493.036 
					739.536,533.69 				"/>
			</g>
			<g>
				<polygon style="fill:#113D86;" points="682.26,598.072 669.497,596.261 682.26,594.45 733.338,594.45 746.102,596.261 
					733.338,598.072 				"/>
			</g>
			<g>
				<polygon style="fill:#113D86;" points="662.546,638.259 640.775,631.741 662.546,625.223 749.673,625.223 771.445,631.741 
					749.673,638.259 				"/>
			</g>
			<g>
				<polygon style="fill:#113D86;" points="692.399,566.254 684.703,565.322 692.399,564.39 723.2,564.39 730.896,565.322 
					723.2,566.254 				"/>
			</g>
			<g>
				<polygon style="fill:#113D86;" points="663.109,554.326 640.775,552.65 663.109,550.974 752.489,550.974 774.825,552.65 
					752.489,554.326 				"/>
			</g>
			<g>
				<polygon style="fill:#113D86;" points="694.904,597.244 687.708,604.594 693.203,595.899 718.599,563.789 725.796,556.437 
					720.3,565.134 				"/>
			</g>
			<g>
				<polygon style="fill:#113D86;" points="720.529,597.244 727.725,604.594 722.23,595.899 696.833,563.789 689.636,556.437 
					695.133,565.134 				"/>
			</g>
			<g>
				<polygon style="fill:#113D86;" points="694.904,541.489 687.708,548.839 693.203,540.144 718.599,508.034 725.796,500.682 
					720.3,509.379 				"/>
			</g>
			<g>
				<polygon style="fill:#113D86;" points="720.529,541.489 727.725,548.839 722.23,540.144 696.833,508.034 689.636,500.682 
					695.133,509.379 				"/>
			</g>
			<g>
				<polygon style="fill:#113D86;" points="694.904,631.628 687.708,638.324 693.203,630.402 718.599,601.15 725.796,594.452 
					720.3,602.375 				"/>
			</g>
			<g>
				<polygon style="fill:#113D86;" points="720.529,631.628 727.725,638.324 722.23,630.402 696.833,601.15 689.636,594.452 
					695.133,602.375 				"/>
			</g>
			<g>
				<g>
					<g>
						<polygon style="fill:#113D86;" points="762.799,536.387 771.527,561.853 748.866,598.378 735.965,598.378 						"/>
					</g>
				</g>
				<g>
					<g>
						<polygon style="fill:#113D86;" points="757.91,658.599 766.697,657.186 748.909,597.89 735.965,598.378 						"/>
					</g>
				</g>
			</g>
			<g>
				<g>
					<g>
						<polygon style="fill:#113D86;" points="651.687,536.387 642.959,561.853 665.619,598.378 678.521,598.378 						"/>
					</g>
				</g>
				<g>
					<g>
						<polygon style="fill:#113D86;" points="656.576,658.599 647.789,657.186 665.577,597.89 678.521,598.378 						"/>
					</g>
				</g>
			</g>
			<g>
				<g>
					<g>
						<polygon style="fill:#113D86;" points="732.065,524.459 735.965,535.838 725.84,552.157 720.076,552.157 						"/>
					</g>
				</g>
				<g>
					<g>
						<polygon style="fill:#113D86;" points="729.881,579.064 733.807,578.433 725.859,551.939 720.076,552.157 						"/>
					</g>
				</g>
			</g>
			<g>
				<g>
					<g>
						<polygon style="fill:#113D86;" points="682.42,524.459 678.521,535.838 688.645,552.157 694.41,552.157 						"/>
					</g>
				</g>
				<g>
					<g>
						<polygon style="fill:#113D86;" points="684.605,579.064 680.679,578.433 688.626,551.939 694.41,552.157 						"/>
					</g>
				</g>
			</g>
			<g>
				<g>
					<g>
						<polygon style="fill:#113D86;" points="738.636,562.963 743.568,577.354 730.763,597.993 723.473,597.993 						"/>
					</g>
				</g>
				<g>
					<g>
						<polygon style="fill:#113D86;" points="735.873,632.022 740.839,631.224 730.787,597.717 723.473,597.993 						"/>
					</g>
				</g>
			</g>
			<g>
				<g>
					<g>
						<polygon style="fill:#113D86;" points="661.762,568.659 666.694,583.049 653.889,603.689 646.599,603.689 						"/>
					</g>
				</g>
				<g>
					<g>
						<polygon style="fill:#113D86;" points="658.999,637.718 663.965,636.919 653.913,603.413 646.599,603.689 						"/>
					</g>
				</g>
			</g>
			<g>
				<g>
					<g>
						<polygon style="fill:#113D86;" points="676.695,562.963 671.762,577.354 684.567,597.993 691.857,597.993 						"/>
					</g>
				</g>
				<g>
					<g>
						<polygon style="fill:#113D86;" points="679.457,632.022 674.492,631.224 684.543,597.717 691.857,597.993 						"/>
					</g>
				</g>
			</g>
			<g>
				<g>
					<g>
						<polygon style="fill:#113D86;" points="754.414,568.659 749.481,583.049 762.286,603.689 769.576,603.689 						"/>
					</g>
				</g>
				<g>
					<g>
						<polygon style="fill:#113D86;" points="757.176,637.718 752.211,636.919 762.262,603.413 769.576,603.689 						"/>
					</g>
				</g>
			</g>
			<g>
				<g>
					<g>
						<polygon style="fill:#113D86;" points="752.83,542.472 754.55,547.492 750.083,554.692 747.54,554.692 						"/>
					</g>
				</g>
				<g>
					<g>
						<polygon style="fill:#113D86;" points="751.866,566.562 753.598,566.284 750.092,554.596 747.54,554.692 						"/>
					</g>
				</g>
			</g>
			<g>
				<g>
					<g>
						<polygon style="fill:#113D86;" points="662.501,542.472 660.78,547.492 665.247,554.692 667.79,554.692 						"/>
					</g>
				</g>
				<g>
					<g>
						<polygon style="fill:#113D86;" points="663.465,566.562 661.732,566.284 665.239,554.596 667.79,554.692 						"/>
					</g>
				</g>
			</g>
			<g>
				<polygon style="fill:#ACD4E5;" points="684.654,519.984 673.721,493.036 684.654,466.086 728.41,466.086 739.344,493.036 
					728.41,519.984 				"/>
			</g>
			<g>
				<path style="fill:#ACD4E5;" d="M736.483,530.217h-59.902l-15.085-37.181l15.085-37.182h59.902l15.086,37.182L736.483,530.217z
					 M678.856,526.838h55.352l13.715-33.802l-13.715-33.803h-55.352l-13.714,33.803L678.856,526.838z"/>
			</g>
		</g>
	</g>
</g>
<g style="opacity:0.4;">
	<rect x="317.438" y="579.14" style="opacity:0.1;fill:#2A60A4;" width="260.111" height="166.91"/>
	<linearGradient id="SVGID_3_" gradientUnits="userSpaceOnUse" x1="3.4001" y1="605.9933" x2="336.6799" y2="605.9933">
		<stop  offset="0" style="stop-color:#113D86"/>
		<stop  offset="1" style="stop-color:#34A4DD"/>
	</linearGradient>
	<circle style="fill:url(#SVGID_3_);" cx="170.04" cy="605.993" r="166.64"/>
	<rect x="279.94" y="540.528" style="opacity:0.3;fill:#2A60A4;" width="97.204" height="97.204"/>
	<rect x="-51.075" y="691.389" style="opacity:0.15;fill:#2A60A4;" width="371.87" height="192.356"/>
	<rect x="273.221" y="641.81" style="opacity:0.5;fill:#95D3DE;" width="77.213" height="241.935"/>
</g>
</svg>
