<?xml version="1.0" encoding="iso-8859-1"?>
<!-- Generator: Adobe Illustrator 17.1.0, SVG Export Plug-In . SVG Version: 6.00 Build 0)  -->
<!DOCTYPE svg PUBLIC "-//W3C//DTD SVG 1.1//EN" "http://www.w3.org/Graphics/SVG/1.1/DTD/svg11.dtd">
<svg version="1.1" id="&#x56FE;&#x5C42;_1" xmlns="http://www.w3.org/2000/svg" xmlns:xlink="http://www.w3.org/1999/xlink" x="0px"
	 y="0px" viewBox="0 0 1050.999 1058.601" style="enable-background:new 0 0 1050.999 1058.601;" xml:space="preserve">
<g>
	<g style="opacity:0.1;">
		<g>
			<g>
				<polygon style="fill:#113D86;" points="959.079,342.06 529.079,342.06 529.079,307.06 959.079,307.06 959.079,315.06 
					537.079,315.06 537.079,334.06 959.079,334.06 				"/>
			</g>
			<g>
				<path style="fill:#113D86;" d="M960.079,342.06v-8c5.238,0,9.5-4.262,9.5-9.5s-4.262-9.5-9.5-9.5v-8
					c9.649,0,17.5,7.851,17.5,17.5S969.728,342.06,960.079,342.06z"/>
			</g>
		</g>
		<g>
			<circle style="fill:#113D86;" cx="900.579" cy="324.56" r="7"/>
		</g>
		<g>
			<circle style="fill:#113D86;" cx="943.579" cy="324.56" r="7"/>
		</g>
		<g>
			<circle style="fill:#113D86;" cx="856.579" cy="324.56" r="7"/>
		</g>
		<g>
			<circle style="fill:#113D86;" cx="812.579" cy="324.56" r="7"/>
		</g>
		<g>
			<circle style="fill:#113D86;" cx="768.579" cy="324.56" r="7"/>
		</g>
		<g>
			<circle style="fill:#113D86;" cx="724.579" cy="324.56" r="7"/>
		</g>
		<g>
			<circle style="fill:#113D86;" cx="680.579" cy="324.56" r="7"/>
		</g>
		<g>
			<circle style="fill:#113D86;" cx="636.579" cy="324.56" r="7"/>
		</g>
		<g>
			<circle style="fill:#113D86;" cx="592.579" cy="324.56" r="7"/>
		</g>
		<g>
			<circle style="fill:#113D86;" cx="548.579" cy="324.56" r="7"/>
		</g>
	</g>
	<g style="opacity:0.3;">
		<rect x="23.792" y="369.675" style="fill:#113D86;" width="109.484" height="4.101"/>
		<rect x="8.108" y="395.611" style="fill:#113D86;" width="128.961" height="4.101"/>
		<rect x="129.483" y="373.775" style="fill:#113D86;" width="2.153" height="21.835"/>
		<rect x="112.569" y="373.775" style="fill:#113D86;" width="2.153" height="21.835"/>
		<rect x="95.654" y="373.775" style="fill:#113D86;" width="2.153" height="21.835"/>
		<rect x="78.739" y="373.775" style="fill:#113D86;" width="2.153" height="21.835"/>
		<rect x="61.825" y="373.775" style="fill:#113D86;" width="2.153" height="21.835"/>
		<rect x="44.91" y="373.775" style="fill:#113D86;" width="2.153" height="21.835"/>
		<rect x="27.996" y="373.775" style="fill:#113D86;" width="2.153" height="21.835"/>
		<rect x="29.123" y="399.711" style="fill:#113D86;" width="44.696" height="18.555"/>
		<g>
			<rect x="23.792" y="508.17" style="fill:#113D86;" width="54.947" height="5.741"/>
			<rect x="26.56" y="513.911" style="fill:#113D86;" width="49.001" height="19.067"/>
			<g>
				<polygon style="fill:#113D86;" points="73.204,508.17 75.459,508.17 71.358,418.266 69.103,418.266 				"/>
				<polygon style="fill:#113D86;" points="29.226,508.17 26.97,508.17 31.071,418.266 33.326,418.266 				"/>
				<rect x="50.036" y="418.266" style="fill:#113D86;" width="1.948" height="89.904"/>
				<polygon style="fill:#113D86;" points="30.818,445.178 31.48,446.091 69.971,418.315 69.309,417.402 				"/>
				<polygon style="fill:#113D86;" points="71.97,446.152 71.308,447.064 31.469,418.309 32.132,417.397 				"/>
				<polygon style="fill:#113D86;" points="29.636,474.38 30.327,475.332 70.502,446.341 69.81,445.389 				"/>
				<polygon style="fill:#113D86;" points="72.589,475.396 71.897,476.348 30.315,446.335 31.007,445.383 				"/>
				<polygon style="fill:#113D86;" points="27.964,507.727 28.736,508.79 73.572,476.435 72.8,475.372 				"/>
				<polygon style="fill:#113D86;" points="75.901,508.861 75.129,509.924 28.722,476.428 29.494,475.366 				"/>
			</g>
		</g>
		<g>
			<rect x="22.379" y="621.913" style="fill:#113D86;" width="57.774" height="6.036"/>
			<rect x="25.289" y="627.949" style="fill:#113D86;" width="51.522" height="20.048"/>
			<g>
				<polygon style="fill:#113D86;" points="74.332,621.913 76.704,621.913 72.392,527.384 70.021,527.384 				"/>
				<polygon style="fill:#113D86;" points="28.092,621.913 25.721,621.913 30.032,527.384 32.403,527.384 				"/>
				<rect x="49.973" y="527.384" style="fill:#113D86;" width="2.048" height="94.529"/>
				<polygon style="fill:#113D86;" points="29.766,555.681 30.463,556.64 70.934,527.436 70.237,526.476 				"/>
				<polygon style="fill:#113D86;" points="73.036,556.705 72.339,557.664 30.45,527.43 31.147,526.471 				"/>
				<polygon style="fill:#113D86;" points="28.523,586.385 29.25,587.386 71.492,556.904 70.764,555.902 				"/>
				<polygon style="fill:#113D86;" points="73.686,587.453 72.958,588.455 29.238,556.898 29.965,555.897 				"/>
				<polygon style="fill:#113D86;" points="26.765,621.447 27.577,622.565 74.72,588.545 73.908,587.428 				"/>
				<polygon style="fill:#113D86;" points="77.168,622.64 76.356,623.757 27.562,588.539 28.374,587.421 				"/>
			</g>
		</g>
		<g>
			<rect x="22.379" y="735.087" style="fill:#113D86;" width="57.774" height="6.036"/>
			<rect x="25.289" y="741.123" style="fill:#113D86;" width="51.522" height="20.048"/>
			<g>
				<polygon style="fill:#113D86;" points="74.332,735.087 76.704,735.087 72.392,640.559 70.021,640.559 				"/>
				<polygon style="fill:#113D86;" points="28.092,735.087 25.721,735.087 30.032,640.559 32.403,640.559 				"/>
				<rect x="49.973" y="640.559" style="fill:#113D86;" width="2.048" height="94.529"/>
				<polygon style="fill:#113D86;" points="29.766,668.855 30.463,669.815 70.934,640.61 70.237,639.65 				"/>
				<polygon style="fill:#113D86;" points="73.036,669.879 72.339,670.839 30.45,640.604 31.147,639.645 				"/>
				<polygon style="fill:#113D86;" points="28.523,699.559 29.25,700.56 71.492,670.078 70.764,669.077 				"/>
				<polygon style="fill:#113D86;" points="73.686,700.628 72.958,701.629 29.238,670.072 29.965,669.071 				"/>
				<polygon style="fill:#113D86;" points="26.765,734.621 27.577,735.739 74.72,701.719 73.908,700.602 				"/>
				<polygon style="fill:#113D86;" points="77.168,735.814 76.356,736.932 27.562,701.713 28.374,700.596 				"/>
			</g>
		</g>
		<g>
			<polygon style="fill:#113D86;" points="13.634,758.404 15.172,758.404 27.698,399.711 26.16,399.711 			"/>
			<polygon style="fill:#113D86;" points="0,758.404 1.538,758.404 14.063,399.711 12.526,399.711 			"/>
			<polygon style="fill:#113D86;" points="13.039,405.554 26.673,405.554 26.724,404.119 13.089,404.119 			"/>
			<polygon style="fill:#113D86;" points="12.824,411.705 26.459,411.705 26.509,410.27 12.875,410.27 			"/>
			<polygon style="fill:#113D86;" points="12.61,417.856 26.244,417.856 26.294,416.421 12.66,416.421 			"/>
			<polygon style="fill:#113D86;" points="12.395,424.007 26.029,424.007 26.079,422.572 12.445,422.572 			"/>
			<polygon style="fill:#113D86;" points="12.18,430.157 25.814,430.157 25.864,428.722 12.23,428.722 			"/>
			<polygon style="fill:#113D86;" points="11.965,436.308 25.6,436.308 25.65,434.873 12.015,434.873 			"/>
			<polygon style="fill:#113D86;" points="11.75,442.459 25.385,442.459 25.435,441.024 11.801,441.024 			"/>
			<polygon style="fill:#113D86;" points="11.536,448.61 25.17,448.61 25.22,447.175 11.586,447.175 			"/>
			<polygon style="fill:#113D86;" points="11.321,454.761 24.955,454.761 25.005,453.325 11.371,453.325 			"/>
			<polygon style="fill:#113D86;" points="11.106,460.911 24.74,460.911 24.79,459.476 11.156,459.476 			"/>
			<polygon style="fill:#113D86;" points="10.891,467.062 24.526,467.062 24.576,465.627 10.941,465.627 			"/>
			<polygon style="fill:#113D86;" points="10.677,473.213 24.311,473.213 24.361,471.778 10.727,471.778 			"/>
			<polygon style="fill:#113D86;" points="10.462,479.364 24.096,479.364 24.146,477.928 10.512,477.928 			"/>
			<polygon style="fill:#113D86;" points="10.247,485.514 23.881,485.514 23.931,484.079 10.297,484.079 			"/>
			<polygon style="fill:#113D86;" points="10.032,491.665 23.666,491.665 23.717,490.23 10.082,490.23 			"/>
			<polygon style="fill:#113D86;" points="9.817,497.816 23.452,497.816 23.502,496.381 9.868,496.381 			"/>
			<polygon style="fill:#113D86;" points="9.603,503.967 23.237,503.967 23.287,502.532 9.653,502.532 			"/>
			<polygon style="fill:#113D86;" points="9.388,510.118 23.022,510.118 23.072,508.682 9.438,508.682 			"/>
			<polygon style="fill:#113D86;" points="9.173,516.268 22.807,516.268 22.857,514.833 9.223,514.833 			"/>
			<polygon style="fill:#113D86;" points="8.958,522.419 22.592,522.419 22.643,520.984 9.008,520.984 			"/>
			<polygon style="fill:#113D86;" points="8.743,528.57 22.378,528.57 22.428,527.135 8.794,527.135 			"/>
			<polygon style="fill:#113D86;" points="8.529,534.721 22.163,534.721 22.213,533.285 8.579,533.285 			"/>
			<polygon style="fill:#113D86;" points="8.314,540.871 21.948,540.871 21.998,539.436 8.364,539.436 			"/>
			<polygon style="fill:#113D86;" points="8.099,547.022 21.733,547.022 21.783,545.587 8.149,545.587 			"/>
			<polygon style="fill:#113D86;" points="7.884,553.173 21.518,553.173 21.569,551.738 7.934,551.738 			"/>
			<polygon style="fill:#113D86;" points="7.669,559.324 21.304,559.324 21.354,557.888 7.72,557.888 			"/>
			<polygon style="fill:#113D86;" points="7.455,565.474 21.089,565.474 21.139,564.039 7.505,564.039 			"/>
			<polygon style="fill:#113D86;" points="7.24,571.625 20.874,571.625 20.924,570.19 7.29,570.19 			"/>
			<polygon style="fill:#113D86;" points="7.025,577.776 20.659,577.776 20.709,576.341 7.075,576.341 			"/>
			<polygon style="fill:#113D86;" points="6.81,583.927 20.445,583.927 20.495,582.492 6.86,582.492 			"/>
			<polygon style="fill:#113D86;" points="6.596,590.078 20.23,590.078 20.28,588.642 6.646,588.642 			"/>
			<polygon style="fill:#113D86;" points="6.381,596.228 20.015,596.228 20.065,594.793 6.431,594.793 			"/>
			<polygon style="fill:#113D86;" points="6.166,602.379 19.8,602.379 19.85,600.944 6.216,600.944 			"/>
			<polygon style="fill:#113D86;" points="5.951,608.53 19.585,608.53 19.636,607.095 6.001,607.095 			"/>
			<polygon style="fill:#113D86;" points="5.736,614.681 19.371,614.681 19.421,613.245 5.787,613.245 			"/>
			<polygon style="fill:#113D86;" points="5.522,620.831 19.156,620.831 19.206,619.396 5.572,619.396 			"/>
			<polygon style="fill:#113D86;" points="5.307,626.982 18.941,626.982 18.991,625.547 5.357,625.547 			"/>
			<polygon style="fill:#113D86;" points="5.092,633.133 18.726,633.133 18.776,631.698 5.142,631.698 			"/>
			<polygon style="fill:#113D86;" points="4.877,639.284 18.511,639.284 18.562,637.849 4.927,637.849 			"/>
			<polygon style="fill:#113D86;" points="4.662,645.435 18.297,645.435 18.347,643.999 4.713,643.999 			"/>
			<polygon style="fill:#113D86;" points="4.448,651.585 18.082,651.585 18.132,650.15 4.498,650.15 			"/>
			<polygon style="fill:#113D86;" points="4.233,657.736 17.867,657.736 17.917,656.301 4.283,656.301 			"/>
			<polygon style="fill:#113D86;" points="4.018,663.887 17.652,663.887 17.702,662.452 4.068,662.452 			"/>
			<polygon style="fill:#113D86;" points="3.803,670.038 17.437,670.038 17.488,668.602 3.853,668.602 			"/>
			<polygon style="fill:#113D86;" points="3.588,676.188 17.223,676.188 17.273,674.753 3.639,674.753 			"/>
			<polygon style="fill:#113D86;" points="3.374,682.339 17.008,682.339 17.058,680.904 3.424,680.904 			"/>
			<polygon style="fill:#113D86;" points="3.159,688.49 16.793,688.49 16.843,687.055 3.209,687.055 			"/>
			<polygon style="fill:#113D86;" points="2.944,694.641 16.578,694.641 16.628,693.206 2.994,693.206 			"/>
			<polygon style="fill:#113D86;" points="2.729,700.792 16.364,700.792 16.414,699.356 2.779,699.356 			"/>
			<polygon style="fill:#113D86;" points="2.515,706.942 16.149,706.942 16.199,705.507 2.565,705.507 			"/>
			<polygon style="fill:#113D86;" points="2.3,713.093 15.934,713.093 15.984,711.658 2.35,711.658 			"/>
			<polygon style="fill:#113D86;" points="2.085,719.244 15.719,719.244 15.769,717.809 2.135,717.809 			"/>
			<polygon style="fill:#113D86;" points="1.87,725.395 15.504,725.395 15.555,723.959 1.92,723.959 			"/>
			<polygon style="fill:#113D86;" points="1.655,731.545 15.29,731.545 15.34,730.11 1.705,730.11 			"/>
			<polygon style="fill:#113D86;" points="1.441,737.696 15.075,737.696 15.125,736.261 1.491,736.261 			"/>
			<polygon style="fill:#113D86;" points="1.226,743.847 14.86,743.847 14.91,742.412 1.276,742.412 			"/>
			<polygon style="fill:#113D86;" points="1.011,749.998 14.645,749.998 14.695,748.562 1.061,748.562 			"/>
			<polygon style="fill:#113D86;" points="0.796,756.148 14.43,756.148 14.481,754.713 0.846,754.713 			"/>
		</g>
	</g>
	<rect x="120.662" y="248.796" style="opacity:0.3;fill:#113D86;" width="115.499" height="154.933"/>
	<g style="opacity:0.3;">
		<g>
			<rect x="252.039" y="112.659" style="fill:#113D86;" width="36.786" height="73.573"/>
		</g>
		<g>
			<path style="fill:#113D86;" d="M292.825,491.419h-44.786V285.693h44.786V491.419z M256.039,483.419h28.786V293.693h-28.786
				V483.419z"/>
		</g>
		<g>
			<path style="fill:#113D86;" d="M373.295,496.017h-44.787V359h44.787V496.017z M336.508,488.017h28.787V367h-28.787V488.017z"/>
		</g>
		<g>
			<path style="fill:#113D86;" d="M465.261,367.265H328.902v-44.786h136.359V367.265z M336.902,359.265h120.359v-28.786H336.902
				V359.265z"/>
		</g>
		<g>
			<circle style="fill:#113D86;" cx="270.432" cy="237.962" r="57.479"/>
		</g>
		<g>
			<path style="fill:#113D86;" d="M270.432,485.12h-18.393v18.393C252.039,493.355,260.273,485.12,270.432,485.12z"/>
		</g>
		<g>
			<path style="fill:#113D86;" d="M350.902,485.12c10.159,0,18.393,8.235,18.393,18.393V485.12H350.902z"/>
		</g>
		<g>
			<path style="fill:#113D86;" d="M357.213,485.12H264.12c-11.752,0-21.278,8.235-21.278,18.393
				c0,10.158,9.526,18.393,21.278,18.393h93.093c11.752,0,21.278-8.235,21.278-18.393
				C378.492,493.355,368.965,485.12,357.213,485.12z"/>
		</g>
		<g>
			<circle style="fill:#113D86;" cx="465.859" cy="344.872" r="39.085"/>
		</g>
		<g>
			<circle style="fill:#113D86;" cx="350.902" cy="344.872" r="9"/>
		</g>
		<g>
			<path style="fill:#113D86;" d="M270.432,18.394c-46.978,0-85.281-3.903-87.271-8.797c1.99,61.168,40.293,109.959,87.271,109.959
				s85.281-48.791,87.271-109.959C355.712,14.49,317.409,18.394,270.432,18.394z"/>
		</g>
		<g>
			<path style="fill:#113D86;" d="M183.064,9.197c0,0.134,0.042,0.267,0.097,0.4c-0.009-0.246-0.008-0.494-0.015-0.74
				C183.107,8.97,183.064,9.083,183.064,9.197z"/>
		</g>
		<g>
			<path style="fill:#113D86;" d="M270.398,8.856c-0.007,0.246-0.006,0.495-0.015,0.74c0.055-0.132,0.097-0.266,0.097-0.4
				C270.48,9.083,270.437,8.97,270.398,8.856z"/>
		</g>
		<g style="opacity:0.5;">
			<path style="fill:#113D86;" d="M270.432,0c-47.166,0-85.58,3.935-87.286,8.856c0.007,0.246,0.006,0.495,0.015,0.74
				c1.99,4.894,40.293,8.797,87.271,8.797s85.281-3.903,87.271-8.797c0.009-0.246,0.008-0.494,0.015-0.74
				C356.012,3.935,317.598,0,270.432,0z"/>
		</g>
		<g>
			<polygon style="fill:#113D86;" points="1037.902,811 929.902,811 929.902,348.872 504.945,348.872 504.945,340.872 
				937.902,340.872 937.902,803 1037.902,803 			"/>
		</g>
	</g>
	<g>
		<g>
			<g id="Path-148_1_">
				<path style="opacity:0.2;fill:#113D86;" d="M977.038,1035.284H826.915c-9.231,0-16.741-8.465-16.741-18.87V845.877
					c0-3.023-1.955-5.577-4.269-5.577s-4.269,2.554-4.269,5.577v168.991c0,10.405-7.51,18.87-16.741,18.87H678.311
					c-9.231,0-16.741-8.465-16.741-18.87V722.471c0-8.249-5.533-14.961-12.335-14.961s-12.335,6.712-12.335,14.961v39.004
					c0,2.059-1.668,3.727-3.727,3.727c-2.059,0-3.727-1.668-3.727-3.727v-39.004c0-12.361,8.878-22.416,19.79-22.416
					c10.912,0,19.79,10.055,19.79,22.416v292.397c0,6.295,4.166,11.416,9.286,11.416h106.584c5.12,0,9.286-5.121,9.286-11.416
					V845.877c0-7.186,5.259-13.032,11.724-13.032s11.724,5.846,11.724,13.032v170.537c0,6.295,4.166,11.416,9.286,11.416h150.123
					c5.121,0,9.287-5.121,9.287-11.416V873.36c0-7.587,5.539-13.759,12.348-13.759c6.809,0,12.349,6.172,12.349,13.759v1.837
					c0,1.247-0.072,2.936-0.155,4.863c-0.175,4.016-0.626,14.325,0.723,17.181h35.68c2.059,0,3.728,1.668,3.728,3.727
					s-1.668,3.727-3.728,3.727h-36.449c-1.675,0-3.193-0.66-4.387-1.908c-3.562-3.721-3.487-12.267-3.016-23.052
					c0.078-1.799,0.149-3.376,0.149-4.539v-1.837c0-3.417-2.241-6.304-4.894-6.304c-2.652,0-4.893,2.887-4.893,6.304v143.054
					C993.781,1026.818,986.27,1035.284,977.038,1035.284z"/>
			</g>
		</g>
		<path style="opacity:0.2;fill:#113D86;" d="M1047.499,904h-1.047c-1.925,0-3.5-1.575-3.5-3.5V778.745c0-1.925,1.575-3.5,3.5-3.5
			h1.047c1.925,0,3.5,1.575,3.5,3.5V900.5C1050.999,902.425,1049.424,904,1047.499,904z"/>
	</g>
	<g style="opacity:0.5;">
		<g>
			<g>
				<g>
					<path style="fill:#113D86;" d="M492.249,1043.417c0,0,0.059-0.033,0.17-0.094c0.108-0.066,0.266-0.165,0.468-0.289
						c0.41-0.24,0.97-0.619,1.633-1.088c1.315-0.952,2.946-2.394,4.343-4.045c1.387-1.659,2.533-3.506,3.244-4.966
						c0.346-0.734,0.632-1.349,0.795-1.797c0.176-0.442,0.276-0.694,0.276-0.694l2.573,0.942c-0.663,1.825-0.655,3.753-0.125,5.681
						c0.283,0.968,0.672,1.907,1.237,2.787c0.564,0.877,1.282,1.681,2.181,2.304c0,0-0.243,0.335-0.607,0.837
						c-0.352,0.51-0.886,1.142-1.401,1.789c-1.069,1.263-2.247,2.422-2.247,2.422c-0.769-0.78-1.677-1.345-2.641-1.754
						c-0.965-0.409-1.954-0.63-2.957-0.745c-1.99-0.193-3.895,0.125-5.578,1.085L492.249,1043.417z"/>
				</g>
				<g>
					<path style="fill:#113D86;" d="M475.54,1046.336c0,0,0.266,0.046,0.733,0.128c0.47,0.051,1.138,0.161,1.947,0.203
						c0.808,0.066,1.755,0.07,2.767,0.037c1.011-0.061,2.091-0.149,3.154-0.353c2.139-0.352,4.203-1.065,5.688-1.719
						c0.376-0.155,0.712-0.317,1.005-0.468c0.295-0.148,0.559-0.265,0.762-0.387c0.414-0.23,0.652-0.361,0.652-0.361l1.363,2.375
						c-1.68,0.964-2.913,2.453-3.745,4.279c-0.416,0.895-0.711,1.897-0.846,2.927c-0.135,1.023-0.102,2.097,0.186,3.156
						c0,0-0.396,0.118-0.997,0.262c-0.605,0.131-1.406,0.333-2.222,0.458c-1.625,0.301-3.276,0.419-3.276,0.419
						c-0.188-2.189-1.309-4.074-2.688-5.5c-1.403-1.439-3.063-2.417-4.968-2.762L475.54,1046.336z"/>
				</g>
				<g>
					<path style="fill:#113D86;" d="M460.861,1037.832c0,0,0.174,0.206,0.48,0.568c0.325,0.344,0.771,0.853,1.361,1.409
						c0.578,0.568,1.301,1.18,2.095,1.808c0.817,0.597,1.696,1.229,2.643,1.755c1.863,1.101,3.906,1.89,5.468,2.343
						c1.56,0.464,2.633,0.621,2.633,0.621l-0.483,2.696c-1.906-0.338-3.806-0.002-5.62,0.867c-1.787,0.863-3.486,2.249-4.415,4.239
						c0,0-0.094-0.043-0.258-0.117c-0.163-0.076-0.401-0.177-0.674-0.323c-0.547-0.288-1.292-0.647-1.998-1.076
						c-0.722-0.404-1.413-0.856-1.93-1.198c-0.26-0.169-0.476-0.311-0.62-0.42c-0.147-0.105-0.23-0.166-0.23-0.166
						c1.266-1.801,1.613-3.959,1.478-5.942c-0.15-2.002-0.794-3.819-2.033-5.308L460.861,1037.832z"/>
				</g>
				<g>
					<path style="fill:#113D86;" d="M455.073,1021.875c0,0-0.002,0.068,0.003,0.194c0.003,0.127,0.008,0.312,0.014,0.548
						c0.001,0.473,0.053,1.148,0.131,1.954c0.172,1.611,0.594,3.749,1.343,5.786c0.741,2.038,1.762,3.966,2.677,5.308
						c0.234,0.332,0.434,0.646,0.632,0.91c0.2,0.263,0.374,0.491,0.517,0.68c0.139,0.192,0.265,0.329,0.345,0.427
						c0.082,0.097,0.125,0.149,0.125,0.149l-2.103,1.755c-1.243-1.484-2.919-2.444-4.859-2.949c-0.48-0.126-0.981-0.217-1.494-0.27
						c-0.504-0.057-1.016-0.08-1.535-0.056c-1.037,0.047-2.093,0.267-3.086,0.733c0,0-0.048-0.091-0.122-0.255
						c-0.072-0.166-0.175-0.401-0.3-0.685c-0.258-0.563-0.557-1.332-0.843-2.105c-0.279-0.776-0.531-1.563-0.706-2.156
						c-0.164-0.597-0.273-0.995-0.273-0.995c2.116-0.563,3.789-1.998,4.954-3.604c1.155-1.629,1.832-3.439,1.84-5.374
						L455.073,1021.875z"/>
				</g>
				<g>
					<path style="fill:#113D86;" d="M460.905,1005.938c0,0-0.169,0.21-0.465,0.579c-0.151,0.182-0.33,0.407-0.517,0.678
						c-0.186,0.271-0.426,0.557-0.637,0.904c-0.908,1.342-1.943,3.255-2.696,5.295c-0.742,2.046-1.187,4.174-1.359,5.786
						c-0.063,0.401-0.064,0.773-0.097,1.101c-0.032,0.328-0.04,0.615-0.042,0.851c-0.013,0.472-0.019,0.743-0.019,0.743
						l-2.739-0.005c0.007-1.935-0.676-3.747-1.82-5.38c-1.157-1.61-2.829-3.052-4.942-3.623c0,0,0.112-0.397,0.28-0.992
						c0.158-0.599,0.446-1.371,0.704-2.153c0.307-0.764,0.586-1.539,0.852-2.099c0.256-0.563,0.427-0.938,0.427-0.938
						c1.983,0.928,4.19,0.905,6.113,0.422c1.928-0.508,3.618-1.452,4.862-2.934L460.905,1005.938z"/>
				</g>
				<g>
					<path style="fill:#113D86;" d="M475.625,997.487c0,0-0.067,0.012-0.192,0.033c-0.125,0.023-0.309,0.046-0.539,0.103
						c-0.232,0.051-0.512,0.113-0.834,0.185c-0.321,0.074-0.677,0.184-1.07,0.287c-1.566,0.435-3.59,1.248-5.471,2.326
						c-1.887,1.072-3.589,2.433-4.76,3.552c-0.581,0.565-1.055,1.048-1.362,1.408c-0.157,0.177-0.281,0.315-0.365,0.41
						c-0.086,0.094-0.127,0.146-0.127,0.146l-2.095-1.765c1.244-1.483,1.894-3.302,2.064-5.292c0.147-1.979-0.205-4.154-1.457-5.951
						c0,0,0.34-0.233,0.85-0.583c0.516-0.341,1.217-0.778,1.931-1.191c0.718-0.406,1.442-0.801,2.002-1.063
						c0.278-0.137,0.509-0.25,0.671-0.33c0.163-0.078,0.258-0.117,0.258-0.117c0.457,0.998,1.122,1.847,1.884,2.552
						c0.381,0.353,0.787,0.666,1.209,0.948c0.426,0.29,0.867,0.544,1.316,0.758c1.808,0.867,3.707,1.215,5.614,0.884
						L475.625,997.487z"/>
				</g>
				<g>
					<path style="fill:#113D86;" d="M492.327,1000.467c0,0-0.92-0.573-2.411-1.226c-1.485-0.662-3.555-1.378-5.689-1.739
						c-1.062-0.21-2.142-0.295-3.151-0.366c-1.012-0.032-1.959-0.032-2.767,0.029c-0.81,0.044-1.479,0.144-1.95,0.198
						c-0.467,0.079-0.733,0.123-0.733,0.123l-0.474-2.698c1.907-0.337,3.572-1.31,4.979-2.742c1.383-1.427,2.511-3.3,2.707-5.492
						c0,0,0.103,0.008,0.283,0.022c0.181,0.01,0.437,0.041,0.744,0.079c0.616,0.073,1.436,0.173,2.248,0.331
						c0.816,0.128,1.617,0.334,2.221,0.468c0.303,0.065,0.549,0.142,0.723,0.189c0.173,0.048,0.273,0.076,0.273,0.076
						c-0.575,2.119-0.172,4.274,0.635,6.087c0.824,1.834,2.059,3.317,3.733,4.289L492.327,1000.467z"/>
				</g>
				<g>
					<g>
						<path style="fill:#113D86;" d="M503.204,1013.481c0,0-0.097-0.253-0.265-0.696c-0.077-0.224-0.202-0.484-0.332-0.788
							c-0.127-0.305-0.279-0.645-0.466-1.006c-0.712-1.458-1.828-3.335-3.235-4.984c-0.681-0.841-1.449-1.606-2.182-2.305
							c-0.752-0.679-1.477-1.286-2.137-1.758c-0.645-0.49-1.226-0.837-1.618-1.102c-0.409-0.239-0.643-0.375-0.643-0.375
							l1.371-2.372c1.677,0.967,3.577,1.291,5.577,1.097c1.973-0.199,4.047-0.915,5.603-2.465c0,0,1.185,1.156,2.232,2.434
							c0.543,0.623,1.024,1.294,1.402,1.785c0.366,0.5,0.592,0.845,0.592,0.845c-0.904,0.622-1.622,1.421-2.18,2.29
							c-0.562,0.873-0.984,1.829-1.244,2.781c-0.544,1.932-0.563,3.865,0.098,5.686L503.204,1013.481z"/>
					</g>
				</g>
				<g>
					<path style="fill:#113D86;" d="M503.177,1030.444c0,0,0.087-0.257,0.237-0.708c0.165-0.447,0.343-1.101,0.553-1.886
						c0.4-1.574,0.717-3.724,0.728-5.887c-0.001-2.163-0.316-4.316-0.706-5.893c-0.204-0.786-0.387-1.438-0.545-1.885
						c-0.073-0.226-0.131-0.403-0.17-0.523c-0.045-0.119-0.069-0.182-0.069-0.182l2.574-0.933c0.667,1.819,1.916,3.292,3.56,4.429
						c0.84,0.56,1.738,1.03,2.739,1.34c1,0.31,2.058,0.464,3.149,0.364c0,0,0.151,1.647,0.152,3.301
						c-0.023,0.826-0.024,1.653-0.084,2.271c-0.046,0.618-0.077,1.031-0.077,1.031c-1.089-0.104-2.156,0.047-3.153,0.353
						c-1,0.307-1.903,0.773-2.744,1.329c-1.649,1.131-2.9,2.598-3.571,4.42L503.177,1030.444z"/>
				</g>
			</g>
			<g>
				<g>
					<path style="fill:#34A4DD;" d="M488.64,997.991c-13.215-4.836-27.849,1.956-32.685,15.171
						c-4.836,13.215,1.956,27.85,15.171,32.686c13.216,4.837,27.85-1.956,32.686-15.172
						C508.649,1017.461,501.856,1002.827,488.64,997.991z M473.235,1040.085c-10.032-3.672-15.189-14.781-11.517-24.814
						c3.672-10.033,14.781-15.189,24.813-11.517c10.033,3.672,15.19,14.781,11.518,24.813
						C494.378,1038.6,483.269,1043.757,473.235,1040.085z"/>
				</g>
			</g>
			<g style="opacity:0.4;">
				<g>
					<path style="fill:#34A4DD;" d="M505.624,1037.066c-0.529-1.928-0.538-3.857,0.125-5.681c0.671-1.822,1.922-3.289,3.571-4.42
						c0.841-0.557,1.744-1.023,2.744-1.329c0.998-0.306,2.064-0.457,3.153-0.353c0,0,0.031-0.413,0.077-1.031
						c0.061-0.618,0.061-1.445,0.084-2.271c-0.001-1.654-0.152-3.301-0.152-3.301c-1.091,0.1-2.149-0.055-3.149-0.364
						c-1.001-0.31-1.899-0.78-2.739-1.34c-1.645-1.137-2.894-2.61-3.56-4.429c-0.661-1.821-0.642-3.754-0.098-5.686
						c0.26-0.952,0.682-1.908,1.244-2.781c0.558-0.869,1.277-1.667,2.18-2.29c0,0-0.226-0.345-0.592-0.845
						c-0.377-0.49-0.859-1.161-1.402-1.785c-1.047-1.279-2.232-2.434-2.232-2.434c-1.556,1.55-3.629,2.267-5.603,2.465
						c-2,0.194-3.9-0.131-5.577-1.097c-1.674-0.972-2.908-2.456-3.733-4.289c-0.077-0.171-0.145-0.348-0.214-0.525l-3.765,10.289
						c0.182,0.06,0.364,0.118,0.545,0.184c10.033,3.672,15.19,14.781,11.518,24.813c-3.672,10.033-14.781,15.19-24.814,11.518
						c-0.181-0.066-0.357-0.14-0.535-0.211l-3.765,10.289c0.167-0.091,0.333-0.182,0.502-0.264c1.813-0.869,3.714-1.205,5.62-0.867
						c1.905,0.345,3.565,1.323,4.968,2.762c1.379,1.425,2.5,3.311,2.688,5.5c0,0,1.651-0.118,3.276-0.419
						c0.817-0.126,1.618-0.328,2.222-0.458c0.602-0.145,0.997-0.262,0.997-0.262c-0.288-1.058-0.321-2.133-0.186-3.156
						c0.135-1.03,0.43-2.033,0.846-2.927c0.832-1.826,2.065-3.315,3.745-4.28c1.684-0.959,3.588-1.278,5.578-1.085
						c1.003,0.114,1.992,0.335,2.957,0.745c0.964,0.409,1.871,0.974,2.641,1.754c0,0,1.178-1.16,2.247-2.422
						c0.516-0.646,1.049-1.278,1.401-1.789c0.364-0.502,0.606-0.837,0.606-0.837c-0.899-0.624-1.616-1.427-2.181-2.304
						C506.296,1038.973,505.907,1038.034,505.624,1037.066z"/>
				</g>
			</g>
		</g>
		<g>
			<g>
				<g>
					<path style="fill:#113D86;" d="M279.48,1024.243c0,0,0.079-0.091,0.226-0.26c0.139-0.176,0.342-0.436,0.601-0.765
						c0.535-0.648,1.236-1.618,2.051-2.8c1.606-2.381,3.438-5.767,4.755-9.358c1.295-3.599,2.076-7.363,2.369-10.221
						c0.129-1.43,0.23-2.626,0.228-3.467c0.023-0.84,0.036-1.321,0.036-1.321h4.845c0.007,3.434,1.194,6.632,3.245,9.513
						c1.059,1.436,2.275,2.759,3.749,3.877c1.471,1.114,3.15,2.013,5.023,2.502c0,0-0.199,0.704-0.499,1.759
						c-0.275,1.062-0.776,2.436-1.24,3.823c-1.008,2.747-2.259,5.39-2.259,5.39c-1.752-0.829-3.603-1.215-5.452-1.309
						c-1.851-0.094-3.629,0.142-5.364,0.56c-3.423,0.888-6.393,2.576-8.606,5.194L279.48,1024.243z"/>
				</g>
				<g>
					<path style="fill:#113D86;" d="M253.502,1039.249c0,0,0.471-0.085,1.295-0.233c0.812-0.201,1.988-0.425,3.357-0.847
						c1.382-0.381,2.957-0.951,4.618-1.62c1.643-0.717,3.383-1.519,5.025-2.503c3.339-1.884,6.333-4.323,8.403-6.312
						c0.53-0.486,0.989-0.959,1.386-1.388c0.4-0.426,0.767-0.78,1.031-1.106c0.549-0.634,0.863-0.996,0.863-0.996l3.709,3.117
						c-2.205,2.622-3.348,5.844-3.619,9.384c-0.147,1.739-0.028,3.584,0.375,5.377c0.398,1.781,1.106,3.546,2.228,5.129
						c0,0-0.586,0.436-1.497,1.042c-0.925,0.585-2.133,1.407-3.413,2.112c-2.516,1.488-5.186,2.687-5.186,2.687
						c-1.642-3.521-4.65-5.972-7.807-7.502c-3.205-1.538-6.558-2.153-9.931-1.568L253.502,1039.249z"/>
				</g>
				<g>
					<path style="fill:#113D86;" d="M223.949,1034.045c0,0,0.415,0.236,1.143,0.652c0.749,0.375,1.799,0.948,3.118,1.514
						c1.306,0.592,2.878,1.168,4.579,1.73c1.72,0.495,3.565,1.011,5.457,1.308c3.764,0.697,7.637,0.766,10.506,0.569
						c2.874-0.178,4.751-0.569,4.751-0.569l0.836,4.772c-3.371,0.598-6.324,2.311-8.807,4.856c-2.443,2.52-4.422,5.855-4.756,9.724
						c0,0-0.182-0.014-0.499-0.038c-0.318-0.028-0.773-0.05-1.317-0.127c-1.084-0.146-2.539-0.289-3.973-0.573
						c-1.444-0.232-2.867-0.562-3.935-0.817c-0.535-0.122-0.979-0.227-1.285-0.321c-0.308-0.086-0.484-0.136-0.484-0.136
						c1.008-3.76,0.273-7.557-1.158-10.769c-1.467-3.235-3.64-5.861-6.603-7.581L223.949,1034.045z"/>
				</g>
				<g>
					<path style="fill:#113D86;" d="M204.636,1011.06c0,0,0.037,0.114,0.122,0.32c0.082,0.209,0.204,0.513,0.357,0.902
						c0.29,0.785,0.785,1.875,1.406,3.167c1.265,2.571,3.266,5.867,5.747,8.794c2.469,2.935,5.337,5.516,7.673,7.19
						c0.59,0.409,1.114,0.808,1.603,1.127c0.491,0.315,0.919,0.589,1.273,0.816c0.347,0.234,0.64,0.385,0.833,0.499
						c0.195,0.112,0.298,0.172,0.298,0.172l-2.426,4.193c-2.967-1.709-6.333-2.285-9.863-1.945c-0.874,0.083-1.762,0.237-2.646,0.46
						c-0.872,0.211-1.736,0.485-2.584,0.839c-1.695,0.708-3.315,1.716-4.68,3.094c0,0-0.135-0.121-0.358-0.35
						c-0.22-0.231-0.535-0.56-0.914-0.955c-0.771-0.777-1.734-1.874-2.68-2.984c-0.935-1.119-1.832-2.273-2.483-3.151
						c-0.635-0.893-1.058-1.487-1.058-1.487c3.172-2.222,5.078-5.622,6.037-8.998c0.929-3.407,0.953-6.825-0.211-10.044
						L204.636,1011.06z"/>
				</g>
				<g>
					<path style="fill:#113D86;" d="M204.636,981.043c0,0-0.154,0.453-0.42,1.245c-0.141,0.394-0.3,0.876-0.447,1.44
						c-0.145,0.563-0.368,1.184-0.508,1.888c-0.693,2.781-1.248,6.587-1.26,10.435c0.012,3.849,0.566,7.655,1.26,10.436
						c0.14,0.704,0.363,1.324,0.508,1.887c0.147,0.565,0.307,1.046,0.447,1.44c0.266,0.792,0.42,1.245,0.42,1.245l-4.552,1.657
						c-1.165-3.218-3.4-5.813-6.293-7.83c-2.9-1.971-6.554-3.351-10.411-3.014c0,0-0.055-0.727-0.138-1.818
						c-0.101-1.091-0.093-2.548-0.139-4.004c0.046-1.456,0.037-2.913,0.139-4.004c0.083-1.091,0.138-1.817,0.138-1.817
						c3.857,0.335,7.51-1.044,10.411-3.015c2.893-2.016,5.128-4.612,6.293-7.83L204.636,981.043z"/>
				</g>
				<g>
					<path style="fill:#113D86;" d="M223.949,958.057c0,0-0.104,0.06-0.298,0.172c-0.193,0.114-0.486,0.264-0.833,0.5
						c-0.354,0.226-0.782,0.5-1.273,0.815c-0.489,0.318-1.013,0.718-1.603,1.127c-2.336,1.674-5.204,4.255-7.673,7.19
						c-2.482,2.928-4.482,6.224-5.747,8.794c-0.621,1.292-1.116,2.382-1.406,3.167c-0.153,0.389-0.275,0.694-0.357,0.902
						c-0.085,0.208-0.122,0.321-0.122,0.321l-4.552-1.657c1.164-3.219,1.14-6.636,0.211-10.044
						c-0.959-3.376-2.865-6.775-6.037-8.998c0,0,0.423-0.594,1.058-1.486c0.651-0.88,1.548-2.032,2.483-3.152
						c0.946-1.111,1.909-2.207,2.68-2.983c0.379-0.396,0.694-0.725,0.914-0.955c0.223-0.229,0.358-0.351,0.358-0.351
						c1.366,1.379,2.986,2.386,4.68,3.094c0.848,0.355,1.712,0.629,2.584,0.841c0.884,0.222,1.771,0.376,2.646,0.459
						c3.53,0.341,6.896-0.235,9.863-1.945L223.949,958.057z"/>
				</g>
				<g>
					<path style="fill:#113D86;" d="M253.502,952.856c0,0-1.877-0.392-4.751-0.57c-2.869-0.197-6.742-0.128-10.506,0.57
						c-1.892,0.297-3.737,0.812-5.457,1.307c-1.701,0.561-3.273,1.138-4.579,1.73c-1.319,0.566-2.369,1.139-3.118,1.515
						c-0.728,0.414-1.143,0.651-1.143,0.651l-2.426-4.193c2.963-1.719,5.136-4.347,6.603-7.582c1.43-3.211,2.165-7.007,1.158-10.768
						c0,0,0.176-0.05,0.484-0.136c0.306-0.094,0.75-0.198,1.285-0.321c1.067-0.253,2.49-0.585,3.935-0.817
						c1.434-0.284,2.889-0.427,3.973-0.573c0.543-0.077,0.999-0.098,1.317-0.126c0.317-0.026,0.499-0.04,0.499-0.04
						c0.333,3.87,2.312,7.205,4.756,9.725c2.484,2.545,5.436,4.258,8.807,4.856L253.502,952.856z"/>
				</g>
				<g>
					<g>
						<path style="fill:#113D86;" d="M279.48,967.86c0,0-0.314-0.362-0.863-0.996c-0.264-0.326-0.63-0.681-1.031-1.107
							c-0.396-0.429-0.855-0.902-1.386-1.388c-2.07-1.989-5.064-4.428-8.403-6.312c-1.642-0.983-3.383-1.786-5.025-2.502
							c-1.661-0.67-3.236-1.239-4.618-1.621c-1.37-0.422-2.546-0.646-3.357-0.847c-0.824-0.148-1.295-0.232-1.295-0.232l0.836-4.773
							c3.373,0.586,6.726-0.03,9.931-1.568c3.157-1.529,6.165-3.98,7.807-7.501c0,0,2.67,1.199,5.186,2.686
							c1.28,0.705,2.488,1.527,3.413,2.112c0.912,0.607,1.497,1.043,1.497,1.043c-1.122,1.583-1.83,3.347-2.228,5.129
							c-0.402,1.792-0.522,3.636-0.375,5.376c0.272,3.539,1.414,6.761,3.619,9.385L279.48,967.86z"/>
					</g>
				</g>
				<g>
					<path style="fill:#113D86;" d="M289.746,996.051c0,0-0.013-0.48-0.036-1.32c0.002-0.843-0.099-2.038-0.228-3.468
						c-0.293-2.858-1.074-6.622-2.369-10.221c-1.317-3.592-3.149-6.978-4.755-9.358c-0.816-1.181-1.517-2.153-2.051-2.799
						c-0.259-0.33-0.462-0.589-0.601-0.766c-0.147-0.169-0.226-0.26-0.226-0.26l3.709-3.115c2.213,2.617,5.183,4.304,8.606,5.193
						c1.735,0.42,3.513,0.654,5.364,0.56c1.849-0.094,3.7-0.48,5.452-1.309c0,0,1.251,2.644,2.259,5.391
						c0.463,1.386,0.965,2.76,1.24,3.823c0.299,1.054,0.499,1.758,0.499,1.758c-1.873,0.49-3.552,1.388-5.023,2.503
						c-1.474,1.117-2.691,2.44-3.749,3.876c-2.051,2.881-3.238,6.079-3.245,9.513H289.746z"/>
				</g>
			</g>
			<g>
				<g>
					<path style="fill:#34A4DD;" d="M245.874,950.983c-24.89,0-45.069,20.178-45.069,45.068c0,24.891,20.179,45.07,45.069,45.07
						c24.892,0,45.069-20.179,45.069-45.07C290.943,971.161,270.765,950.983,245.874,950.983z M245.874,1030.266
						c-18.895,0-34.214-15.319-34.214-34.215c0-18.896,15.319-34.214,34.214-34.214c18.897,0,34.215,15.317,34.215,34.214
						C280.089,1014.948,264.771,1030.266,245.874,1030.266z"/>
				</g>
			</g>
			<g style="opacity:0.4;">
				<g>
					<path style="fill:#34A4DD;" d="M297.837,1005.564c-2.051-2.881-3.238-6.079-3.245-9.513c0.007-3.434,1.194-6.631,3.245-9.513
						c1.059-1.436,2.275-2.759,3.749-3.876c1.472-1.115,3.15-2.013,5.023-2.503c0,0-0.199-0.704-0.499-1.758
						c-0.275-1.063-0.776-2.437-1.24-3.823c-1.008-2.747-2.259-5.391-2.259-5.391c-1.752,0.829-3.603,1.215-5.452,1.309
						c-1.851,0.094-3.629-0.141-5.364-0.56c-3.423-0.888-6.393-2.576-8.606-5.193c-2.205-2.623-3.348-5.845-3.619-9.385
						c-0.147-1.739-0.028-3.584,0.375-5.376c0.398-1.782,1.107-3.546,2.228-5.129c0,0-0.586-0.436-1.497-1.043
						c-0.925-0.585-2.133-1.407-3.413-2.112c-2.516-1.488-5.186-2.686-5.186-2.686c-1.642,3.52-4.65,5.971-7.807,7.501
						c-3.205,1.538-6.558,2.154-9.931,1.568c-3.371-0.598-6.324-2.311-8.807-4.856c-0.231-0.238-0.453-0.49-0.674-0.742v19.379
						c0.339-0.011,0.676-0.026,1.017-0.026c18.897,0,34.215,15.317,34.215,34.214c0,18.896-15.317,34.215-34.215,34.215
						c-0.341,0-0.679-0.016-1.017-0.025v19.379c0.222-0.252,0.443-0.505,0.674-0.743c2.484-2.545,5.436-4.258,8.807-4.856
						c3.373-0.585,6.726,0.03,9.931,1.568c3.157,1.529,6.165,3.98,7.807,7.502c0,0,2.67-1.199,5.186-2.687
						c1.28-0.705,2.488-1.527,3.413-2.112c0.912-0.606,1.497-1.042,1.497-1.042c-1.121-1.583-1.83-3.348-2.228-5.129
						c-0.402-1.793-0.522-3.637-0.375-5.377c0.272-3.539,1.414-6.761,3.619-9.385c2.213-2.617,5.183-4.304,8.606-5.193
						c1.735-0.42,3.513-0.654,5.364-0.56c1.849,0.094,3.7,0.48,5.452,1.309c0,0,1.251-2.643,2.259-5.39
						c0.463-1.387,0.965-2.761,1.24-3.824c0.299-1.055,0.499-1.759,0.499-1.759c-1.873-0.489-3.551-1.388-5.023-2.502
						C300.112,1008.323,298.895,1007,297.837,1005.564z"/>
				</g>
			</g>
		</g>
		<g style="opacity:0.5;">
			<g>
				<g>
					<path style="fill:#113D86;" d="M527.567,995.44c0,0,0.03-0.025,0.085-0.071c0.053-0.049,0.131-0.12,0.23-0.211
						c0.203-0.178,0.475-0.449,0.794-0.781c0.631-0.671,1.386-1.65,1.988-2.72c0.596-1.073,1.037-2.226,1.277-3.116
						c0.114-0.447,0.208-0.82,0.251-1.087c0.051-0.265,0.079-0.417,0.079-0.417l1.535,0.25c-0.174,1.088,0.037,2.162,0.538,3.181
						c0.261,0.509,0.579,0.991,0.988,1.421c0.409,0.429,0.894,0.8,1.463,1.051c0,0-0.099,0.213-0.249,0.532
						c-0.142,0.322-0.371,0.732-0.59,1.147c-0.461,0.818-0.993,1.591-0.993,1.591c-0.512-0.353-1.079-0.571-1.66-0.695
						c-0.582-0.125-1.157-0.142-1.728-0.099c-1.13,0.105-2.158,0.487-2.994,1.202L527.567,995.44z"/>
				</g>
				<g>
					<path style="fill:#113D86;" d="M518.564,998.856c0,0,0.154-0.003,0.422-0.007c0.268-0.022,0.652-0.032,1.107-0.095
						c0.458-0.05,0.986-0.149,1.547-0.275c0.557-0.143,1.15-0.307,1.721-0.534c1.155-0.425,2.229-1.043,2.987-1.567
						c0.193-0.127,0.363-0.253,0.51-0.368c0.149-0.114,0.283-0.207,0.384-0.297c0.206-0.173,0.325-0.271,0.325-0.271l1.014,1.178
						c-0.833,0.717-1.362,1.679-1.63,2.786c-0.136,0.543-0.193,1.134-0.158,1.723c0.034,0.585,0.168,1.18,0.442,1.74
						c0,0-0.208,0.108-0.528,0.253c-0.323,0.138-0.748,0.336-1.19,0.493c-0.874,0.342-1.781,0.584-1.781,0.584
						c-0.339-1.2-1.166-2.131-2.087-2.779c-0.936-0.652-1.967-1.02-3.065-1.008L518.564,998.856z"/>
				</g>
				<g>
					<path style="fill:#113D86;" d="M509.47,995.685c0,0,0.119,0.096,0.328,0.265c0.218,0.157,0.521,0.393,0.91,0.64
						c0.383,0.255,0.852,0.518,1.362,0.784c0.519,0.245,1.077,0.504,1.661,0.695c1.157,0.415,2.38,0.636,3.299,0.721
						c0.92,0.092,1.534,0.064,1.534,0.064l0.019,1.555c-1.099,0.016-2.122,0.407-3.04,1.085c-0.904,0.673-1.703,1.627-2.007,2.836
						c0,0-0.057-0.014-0.156-0.038c-0.099-0.025-0.242-0.056-0.411-0.108c-0.336-0.102-0.79-0.222-1.229-0.386
						c-0.446-0.148-0.879-0.326-1.204-0.461c-0.163-0.066-0.298-0.122-0.39-0.168c-0.093-0.043-0.146-0.068-0.146-0.068
						c0.513-1.139,0.476-2.38,0.188-3.471c-0.298-1.1-0.851-2.044-1.701-2.742L509.47,995.685z"/>
				</g>
				<g>
					<path style="fill:#113D86;" d="M504.535,987.409c0,0,0.006,0.038,0.022,0.108c0.015,0.07,0.038,0.173,0.067,0.304
						c0.051,0.264,0.152,0.634,0.282,1.076c0.268,0.88,0.732,2.027,1.368,3.082c0.631,1.057,1.407,2.022,2.061,2.673
						c0.166,0.16,0.311,0.313,0.45,0.44c0.139,0.125,0.261,0.234,0.361,0.324c0.098,0.092,0.183,0.155,0.238,0.201
						c0.056,0.045,0.086,0.07,0.086,0.07l-0.985,1.204c-0.852-0.694-1.889-1.05-3.024-1.124c-0.281-0.019-0.57-0.016-0.862,0.01
						c-0.287,0.022-0.575,0.064-0.862,0.133c-0.573,0.137-1.139,0.373-1.642,0.739c0,0-0.037-0.045-0.095-0.129
						c-0.058-0.085-0.141-0.205-0.24-0.35c-0.204-0.286-0.453-0.683-0.695-1.083c-0.239-0.403-0.463-0.814-0.624-1.126
						c-0.155-0.315-0.258-0.525-0.258-0.525c1.119-0.541,1.898-1.52,2.376-2.54c0.47-1.032,0.653-2.113,0.45-3.193L504.535,987.409z
						"/>
				</g>
				<g>
					<path style="fill:#113D86;" d="M506.081,977.899c0,0-0.072,0.135-0.197,0.373c-0.065,0.118-0.14,0.262-0.216,0.433
						c-0.075,0.171-0.178,0.356-0.258,0.572c-0.363,0.845-0.735,2.022-0.936,3.241c-0.195,1.22-0.215,2.454-0.138,3.371
						c0.008,0.23,0.047,0.438,0.064,0.624c0.017,0.186,0.043,0.347,0.068,0.479c0.044,0.265,0.069,0.416,0.069,0.416l-1.528,0.291
						c-0.203-1.079-0.778-2.017-1.59-2.805c-0.817-0.774-1.904-1.399-3.143-1.491c0,0,0.02-0.233,0.05-0.583
						c0.024-0.351,0.102-0.812,0.162-1.276c0.09-0.459,0.162-0.921,0.25-1.261c0.082-0.341,0.137-0.568,0.137-0.568
						c1.205,0.305,2.433,0.056,3.453-0.419c1.02-0.49,1.862-1.197,2.397-2.156L506.081,977.899z"/>
				</g>
				<g>
					<path style="fill:#113D86;" d="M513.383,971.612c0,0-0.036,0.014-0.103,0.039c-0.067,0.026-0.168,0.059-0.29,0.115
						c-0.124,0.053-0.273,0.118-0.445,0.193c-0.171,0.076-0.358,0.175-0.566,0.274c-0.826,0.41-1.868,1.08-2.801,1.883
						c-0.937,0.8-1.74,1.741-2.274,2.49c-0.263,0.377-0.476,0.697-0.608,0.931c-0.069,0.115-0.123,0.206-0.16,0.267
						c-0.038,0.061-0.055,0.095-0.055,0.095l-1.357-0.76c0.535-0.96,0.703-2.044,0.584-3.171c-0.13-1.119-0.559-2.294-1.449-3.162
						c0,0,0.165-0.167,0.412-0.416c0.251-0.245,0.595-0.564,0.949-0.871c0.357-0.303,0.718-0.601,1.003-0.807
						c0.141-0.106,0.257-0.194,0.339-0.256c0.082-0.061,0.131-0.093,0.131-0.093c0.362,0.507,0.823,0.91,1.323,1.221
						c0.25,0.156,0.51,0.287,0.775,0.399c0.269,0.116,0.542,0.21,0.815,0.282c1.101,0.29,2.197,0.281,3.225-0.108L513.383,971.612z"
						/>
				</g>
				<g>
					<path style="fill:#113D86;" d="M523.013,971.486c0,0-0.574-0.221-1.476-0.425c-0.899-0.21-2.129-0.388-3.358-0.36
						c-0.615-0.003-1.226,0.065-1.796,0.133c-0.568,0.09-1.096,0.192-1.54,0.312c-0.447,0.111-0.809,0.239-1.066,0.319
						c-0.252,0.094-0.396,0.147-0.396,0.147l-0.553-1.453c1.027-0.392,1.851-1.113,2.482-2.062c0.619-0.944,1.047-2.108,0.921-3.352
						c0,0,0.058-0.007,0.16-0.018c0.102-0.014,0.248-0.024,0.423-0.035c0.351-0.025,0.819-0.057,1.289-0.056
						c0.469-0.016,0.937,0.013,1.288,0.023c0.176,0.004,0.322,0.02,0.424,0.028c0.102,0.008,0.16,0.013,0.16,0.013
						c-0.094,1.243,0.362,2.401,1.006,3.326c0.656,0.934,1.503,1.629,2.54,1.992L523.013,971.486z"/>
				</g>
				<g>
					<g>
						<path style="fill:#113D86;" d="M530.471,977.577c0,0-0.081-0.131-0.222-0.36c-0.067-0.117-0.165-0.248-0.27-0.404
							c-0.103-0.156-0.225-0.33-0.368-0.511c-0.553-0.737-1.376-1.663-2.337-2.432c-0.47-0.396-0.98-0.74-1.463-1.051
							c-0.492-0.298-0.961-0.559-1.38-0.751c-0.412-0.204-0.773-0.336-1.02-0.441c-0.254-0.089-0.398-0.14-0.398-0.14l0.511-1.469
							c1.039,0.359,2.132,0.337,3.227,0.015c1.079-0.322,2.158-0.943,2.86-1.974c0,0,0.784,0.517,1.505,1.118
							c0.369,0.289,0.71,0.612,0.972,0.845c0.258,0.239,0.421,0.407,0.421,0.407c-0.437,0.444-0.752,0.966-0.97,1.51
							c-0.22,0.547-0.353,1.125-0.396,1.684c-0.096,1.135,0.1,2.215,0.663,3.159L530.471,977.577z"/>
					</g>
				</g>
				<g>
					<path style="fill:#113D86;" d="M532.271,987.037c0,0,0.021-0.153,0.057-0.42c0.044-0.267,0.073-0.651,0.106-1.11
						c0.054-0.92,0.001-2.153-0.224-3.36c-0.232-1.206-0.638-2.373-1.024-3.21c-0.198-0.416-0.37-0.76-0.506-0.992
						c-0.065-0.118-0.116-0.21-0.151-0.274c-0.038-0.061-0.058-0.094-0.058-0.094l1.335-0.796c0.566,0.943,1.42,1.63,2.459,2.088
						c0.528,0.222,1.079,0.388,1.67,0.454c0.591,0.065,1.197,0.038,1.795-0.134c0,0,0.26,0.902,0.438,1.824
						c0.076,0.463,0.164,0.924,0.196,1.275c0.04,0.349,0.067,0.583,0.067,0.583c-0.619,0.059-1.197,0.257-1.72,0.534
						c-0.525,0.278-0.978,0.635-1.387,1.035c-0.798,0.807-1.339,1.759-1.518,2.846L532.271,987.037z"/>
				</g>
			</g>
			<g>
				<g>
					<path style="fill:#34A4DD;" d="M520.693,970.5c-7.885-1.282-15.317,4.071-16.599,11.957
						c-1.282,7.886,4.072,15.317,11.957,16.599c7.886,1.282,15.317-4.072,16.599-11.957
						C533.932,979.213,528.579,971.782,520.693,970.5z M516.61,995.617c-5.986-0.973-10.05-6.615-9.077-12.601
						c0.973-5.986,6.615-10.05,12.601-9.077c5.987,0.973,10.051,6.615,9.078,12.601C528.239,992.526,522.597,996.59,516.61,995.617z
						"/>
				</g>
			</g>
			<g style="opacity:0.4;">
				<g>
					<path style="fill:#34A4DD;" d="M534.344,990.467c-0.502-1.018-0.713-2.092-0.538-3.181c0.179-1.087,0.72-2.039,1.518-2.846
						c0.409-0.4,0.863-0.757,1.387-1.035c0.524-0.277,1.102-0.475,1.72-0.534c0,0-0.027-0.233-0.067-0.583
						c-0.032-0.351-0.12-0.812-0.196-1.275c-0.178-0.922-0.438-1.824-0.438-1.824c-0.598,0.172-1.204,0.199-1.795,0.134
						c-0.591-0.066-1.142-0.231-1.67-0.454c-1.039-0.458-1.893-1.145-2.459-2.088c-0.563-0.945-0.76-2.024-0.663-3.159
						c0.043-0.559,0.176-1.137,0.396-1.684c0.218-0.544,0.533-1.066,0.97-1.51c0,0-0.163-0.168-0.421-0.407
						c-0.263-0.233-0.603-0.556-0.972-0.845c-0.72-0.601-1.505-1.118-1.505-1.118c-0.702,1.031-1.781,1.652-2.86,1.974
						c-1.095,0.322-2.188,0.345-3.227-0.015c-1.037-0.363-1.884-1.058-2.54-1.992c-0.061-0.087-0.118-0.179-0.175-0.27l-0.998,6.139
						c0.108,0.014,0.216,0.027,0.324,0.044c5.987,0.973,10.051,6.615,9.078,12.601c-0.973,5.986-6.615,10.051-12.601,9.078
						c-0.108-0.018-0.214-0.04-0.321-0.06l-0.998,6.139c0.083-0.068,0.166-0.137,0.252-0.201c0.918-0.678,1.942-1.069,3.04-1.085
						c1.099-0.012,2.129,0.356,3.065,1.008c0.921,0.647,1.748,1.578,2.087,2.779c0,0,0.908-0.242,1.781-0.584
						c0.442-0.157,0.867-0.356,1.19-0.493c0.32-0.145,0.528-0.253,0.528-0.253c-0.274-0.559-0.407-1.155-0.442-1.74
						c-0.035-0.589,0.022-1.179,0.158-1.723c0.268-1.107,0.796-2.069,1.63-2.787c0.836-0.715,1.864-1.097,2.994-1.202
						c0.571-0.044,1.147-0.026,1.728,0.099c0.581,0.125,1.148,0.343,1.66,0.695c0,0,0.533-0.773,0.993-1.591
						c0.218-0.415,0.448-0.825,0.59-1.148c0.149-0.319,0.249-0.531,0.249-0.531c-0.568-0.251-1.054-0.623-1.463-1.051
						C534.923,991.458,534.606,990.977,534.344,990.467z"/>
				</g>
			</g>
		</g>
		<g style="opacity:0.6;">
			<g>
				<g>
					<path style="fill:#113D86;" d="M442.636,992.438c0,0,0.126-0.145,0.36-0.415c0.221-0.281,0.546-0.695,0.959-1.221
						c0.853-1.034,1.972-2.582,3.274-4.469c2.564-3.799,5.488-9.204,7.589-14.936c2.067-5.744,3.313-11.752,3.781-16.313
						c0.205-2.283,0.367-4.191,0.364-5.533c0.037-1.341,0.058-2.108,0.058-2.108h7.733c0.012,5.481,1.906,10.584,5.18,15.183
						c1.69,2.291,3.631,4.403,5.984,6.188c2.347,1.778,5.028,3.213,8.017,3.993c0,0-0.318,1.124-0.796,2.808
						c-0.439,1.695-1.239,3.888-1.979,6.101c-1.608,4.384-3.606,8.602-3.606,8.602c-2.796-1.323-5.751-1.94-8.702-2.089
						c-2.954-0.15-5.792,0.226-8.561,0.894c-5.463,1.418-10.203,4.111-13.736,8.289L442.636,992.438z"/>
				</g>
				<g>
					<path style="fill:#113D86;" d="M401.174,1016.388c0,0,0.751-0.136,2.067-0.372c1.296-0.321,3.172-0.678,5.358-1.352
						c2.206-0.608,4.719-1.518,7.371-2.586c2.622-1.144,5.399-2.424,8.021-3.995c5.329-3.007,10.108-6.9,13.411-10.074
						c0.846-0.775,1.579-1.53,2.212-2.215c0.639-0.68,1.224-1.244,1.645-1.766c0.876-1.012,1.377-1.589,1.377-1.589l5.919,4.974
						c-3.519,4.185-5.343,9.328-5.776,14.977c-0.235,2.776-0.044,5.72,0.598,8.581c0.636,2.842,1.765,5.659,3.556,8.186
						c0,0-0.935,0.695-2.39,1.662c-1.476,0.933-3.404,2.246-5.447,3.371c-4.015,2.375-8.277,4.289-8.277,4.289
						c-2.621-5.62-7.422-9.532-12.461-11.973c-5.115-2.455-10.466-3.436-15.85-2.503L401.174,1016.388z"/>
				</g>
				<g>
					<path style="fill:#113D86;" d="M354.006,1008.083c0,0,0.663,0.377,1.824,1.04c1.195,0.598,2.871,1.513,4.976,2.416
						c2.084,0.945,4.594,1.865,7.308,2.761c2.746,0.79,5.69,1.614,8.709,2.088c6.007,1.112,12.189,1.222,16.768,0.908
						c4.587-0.284,7.582-0.908,7.582-0.908l1.334,7.616c-5.38,0.954-10.093,3.689-14.057,7.75c-3.9,4.022-7.058,9.344-7.59,15.521
						c0,0-0.29-0.022-0.797-0.061c-0.507-0.044-1.234-0.08-2.102-0.202c-1.73-0.233-4.053-0.461-6.341-0.914
						c-2.305-0.371-4.576-0.898-6.28-1.304c-0.853-0.195-1.562-0.362-2.05-0.512c-0.491-0.138-0.772-0.217-0.772-0.217
						c1.608-6.001,0.436-12.062-1.848-17.187c-2.341-5.163-5.809-9.355-10.538-12.1L354.006,1008.083z"/>
				</g>
				<g>
					<path style="fill:#113D86;" d="M323.182,971.398c0,0,0.06,0.182,0.195,0.512c0.131,0.333,0.325,0.82,0.57,1.44
						c0.462,1.253,1.253,2.992,2.244,5.054c2.019,4.104,5.212,9.364,9.173,14.035c3.941,4.685,8.519,8.804,12.247,11.475
						c0.942,0.652,1.778,1.29,2.558,1.799c0.784,0.503,1.467,0.94,2.031,1.302c0.554,0.374,1.022,0.614,1.33,0.796
						c0.311,0.179,0.476,0.274,0.476,0.274l-3.873,6.693c-4.736-2.728-10.108-3.647-15.742-3.104
						c-1.396,0.133-2.812,0.378-4.223,0.734c-1.392,0.337-2.771,0.774-4.124,1.34c-2.705,1.13-5.291,2.739-7.47,4.938
						c0,0-0.216-0.194-0.571-0.559c-0.352-0.369-0.853-0.894-1.459-1.525c-1.231-1.241-2.768-2.99-4.277-4.762
						c-1.493-1.787-2.924-3.628-3.963-5.03c-1.013-1.425-1.688-2.373-1.688-2.373c5.063-3.546,8.105-8.973,9.635-14.362
						c1.482-5.438,1.521-10.894-0.337-16.031L323.182,971.398z"/>
				</g>
				<g>
					<path style="fill:#113D86;" d="M323.182,923.489c0,0-0.245,0.722-0.67,1.987c-0.224,0.629-0.479,1.397-0.714,2.299
						c-0.231,0.899-0.588,1.89-0.811,3.014c-1.107,4.439-1.992,10.513-2.011,16.655c0.018,6.144,0.904,12.218,2.011,16.657
						c0.223,1.123,0.58,2.113,0.811,3.012c0.234,0.901,0.489,1.669,0.714,2.298c0.425,1.265,0.67,1.987,0.67,1.987l-7.266,2.645
						c-1.859-5.136-5.426-9.278-10.043-12.497c-4.629-3.147-10.46-5.348-16.616-4.811c0,0-0.088-1.161-0.221-2.902
						c-0.162-1.741-0.148-4.066-0.221-6.39c0.073-2.324,0.06-4.649,0.221-6.39c0.132-1.741,0.221-2.9,0.221-2.9
						c6.156,0.535,11.987-1.666,16.616-4.813c4.617-3.218,8.184-7.361,10.043-12.497L323.182,923.489z"/>
				</g>
				<g>
					<path style="fill:#113D86;" d="M354.006,886.803c0,0-0.165,0.095-0.476,0.274c-0.308,0.182-0.775,0.422-1.33,0.797
						c-0.564,0.36-1.248,0.797-2.031,1.3c-0.78,0.508-1.617,1.146-2.558,1.799c-3.728,2.672-8.306,6.791-12.247,11.475
						c-3.961,4.673-7.154,9.933-9.173,14.035c-0.991,2.062-1.781,3.801-2.244,5.054c-0.245,0.62-0.439,1.108-0.57,1.44
						c-0.136,0.332-0.195,0.512-0.195,0.512l-7.266-2.645c1.858-5.137,1.819-10.591,0.337-16.031
						c-1.53-5.389-4.573-10.814-9.635-14.362c0,0,0.675-0.948,1.688-2.372c1.039-1.404,2.47-3.243,3.963-5.03
						c1.509-1.773,3.046-3.522,4.277-4.762c0.605-0.632,1.107-1.158,1.459-1.525c0.355-0.365,0.571-0.561,0.571-0.561
						c2.18,2.201,4.765,3.808,7.47,4.938c1.353,0.566,2.732,1.003,4.124,1.341c1.411,0.355,2.827,0.6,4.223,0.733
						c5.634,0.544,11.006-0.376,15.742-3.104L354.006,886.803z"/>
				</g>
				<g>
					<path style="fill:#113D86;" d="M401.174,878.5c0,0-2.996-0.626-7.582-0.909c-4.579-0.315-10.761-0.204-16.768,0.909
						c-3.019,0.474-5.964,1.295-8.709,2.086c-2.715,0.896-5.224,1.816-7.308,2.761c-2.105,0.903-3.781,1.817-4.976,2.417
						c-1.161,0.661-1.824,1.039-1.824,1.039l-3.873-6.693c4.729-2.744,8.197-6.938,10.538-12.1
						c2.283-5.125,3.456-11.184,1.848-17.187c0,0,0.281-0.08,0.772-0.218c0.488-0.15,1.197-0.316,2.05-0.512
						c1.703-0.404,3.975-0.933,6.28-1.304c2.288-0.454,4.61-0.682,6.341-0.915c0.867-0.123,1.595-0.156,2.102-0.201
						c0.507-0.041,0.797-0.063,0.797-0.063c0.532,6.176,3.691,11.499,7.59,15.521c3.964,4.061,8.677,6.796,14.057,7.75
						L401.174,878.5z"/>
				</g>
				<g>
					<g>
						<path style="fill:#113D86;" d="M442.636,902.448c0,0-0.502-0.578-1.377-1.589c-0.421-0.52-1.006-1.086-1.645-1.766
							c-0.633-0.685-1.365-1.44-2.212-2.215c-3.303-3.174-8.082-7.067-13.411-10.074c-2.621-1.569-5.399-2.851-8.021-3.993
							c-2.652-1.069-5.164-1.977-7.371-2.587c-2.186-0.673-4.063-1.03-5.358-1.352c-1.316-0.236-2.067-0.37-2.067-0.37l1.334-7.618
							c5.384,0.935,10.735-0.048,15.85-2.502c5.039-2.441,9.84-6.353,12.461-11.971c0,0,4.262,1.914,8.277,4.287
							c2.043,1.125,3.971,2.438,5.447,3.371c1.455,0.969,2.39,1.664,2.39,1.664c-1.792,2.526-2.921,5.341-3.556,8.185
							c-0.642,2.859-0.833,5.804-0.598,8.58c0.433,5.649,2.258,10.791,5.776,14.979L442.636,902.448z"/>
					</g>
				</g>
				<g>
					<path style="fill:#113D86;" d="M459.021,947.443c0,0-0.02-0.767-0.058-2.106c0.004-1.345-0.158-3.252-0.364-5.535
						c-0.468-4.561-1.714-10.569-3.781-16.313c-2.101-5.733-5.025-11.137-7.589-14.936c-1.302-1.885-2.421-3.436-3.274-4.468
						c-0.413-0.527-0.738-0.94-0.959-1.222c-0.235-0.271-0.36-0.415-0.36-0.415l5.919-4.972c3.532,4.177,8.272,6.87,13.736,8.287
						c2.769,0.67,5.607,1.044,8.561,0.894c2.951-0.15,5.906-0.767,8.702-2.089c0,0,1.997,4.22,3.606,8.604
						c0.74,2.212,1.54,4.405,1.979,6.101c0.477,1.683,0.796,2.807,0.796,2.807c-2.989,0.782-5.67,2.215-8.017,3.995
						c-2.353,1.783-4.294,3.895-5.984,6.186c-3.274,4.598-5.168,9.702-5.18,15.182H459.021z"/>
				</g>
			</g>
			<g>
				<g>
					<path style="fill:#34A4DD;" d="M388.999,875.512c-39.725,0-71.931,32.204-71.931,71.931c0,39.727,32.206,71.933,71.931,71.933
						c39.728,0,71.933-32.206,71.933-71.933C460.931,907.716,428.727,875.512,388.999,875.512z M388.999,1002.052
						c-30.158,0-54.607-24.449-54.607-54.609c0-30.159,24.449-54.607,54.607-54.607c30.161,0,54.608,24.447,54.608,54.607
						C443.607,977.602,419.16,1002.052,388.999,1002.052z"/>
				</g>
			</g>
			<g style="opacity:0.4;">
				<g>
					<path style="fill:#34A4DD;" d="M471.934,962.626c-3.274-4.598-5.168-9.702-5.18-15.183c0.012-5.481,1.906-10.584,5.18-15.182
						c1.69-2.292,3.631-4.403,5.984-6.186c2.349-1.78,5.028-3.213,8.017-3.995c0,0-0.318-1.124-0.796-2.807
						c-0.439-1.697-1.239-3.89-1.979-6.101c-1.608-4.384-3.606-8.604-3.606-8.604c-2.796,1.323-5.751,1.94-8.702,2.089
						c-2.954,0.15-5.792-0.224-8.561-0.894c-5.463-1.418-10.203-4.111-13.736-8.287c-3.519-4.187-5.343-9.33-5.776-14.979
						c-0.235-2.776-0.044-5.72,0.598-8.58c0.636-2.844,1.766-5.659,3.556-8.185c0,0-0.935-0.695-2.39-1.664
						c-1.476-0.933-3.404-2.246-5.447-3.371c-4.015-2.375-8.277-4.287-8.277-4.287c-2.621,5.619-7.422,9.53-12.461,11.971
						c-5.115,2.455-10.466,3.437-15.85,2.502c-5.38-0.954-10.093-3.689-14.057-7.75c-0.369-0.379-0.723-0.782-1.076-1.185v30.93
						c0.54-0.017,1.08-0.041,1.624-0.041c30.161,0,54.608,24.447,54.608,54.607c0,30.159-24.447,54.609-54.608,54.609
						c-0.544,0-1.083-0.026-1.624-0.041v30.929c0.354-0.402,0.707-0.805,1.076-1.186c3.964-4.062,8.677-6.797,14.057-7.75
						c5.384-0.933,10.735,0.048,15.85,2.503c5.039,2.441,9.84,6.353,12.461,11.973c0,0,4.262-1.914,8.277-4.289
						c2.043-1.125,3.971-2.438,5.447-3.371c1.455-0.967,2.39-1.662,2.39-1.662c-1.79-2.526-2.921-5.344-3.556-8.186
						c-0.642-2.861-0.833-5.805-0.598-8.581c0.433-5.649,2.258-10.791,5.776-14.979c3.532-4.177,8.272-6.87,13.736-8.288
						c2.769-0.67,5.607-1.044,8.561-0.894c2.951,0.149,5.906,0.767,8.702,2.089c0,0,1.997-4.218,3.606-8.602
						c0.74-2.213,1.54-4.406,1.979-6.103c0.477-1.683,0.796-2.807,0.796-2.807c-2.989-0.78-5.668-2.215-8.017-3.993
						C475.565,967.029,473.624,964.917,471.934,962.626z"/>
				</g>
			</g>
		</g>
	</g>
</g>
</svg>
