<?xml version="1.0" encoding="iso-8859-1"?>
<!-- Generator: Adobe Illustrator 17.1.0, SVG Export Plug-In . SVG Version: 6.00 Build 0)  -->
<!DOCTYPE svg PUBLIC "-//W3C//DTD SVG 1.1//EN" "http://www.w3.org/Graphics/SVG/1.1/DTD/svg11.dtd">
<svg version="1.1" id="&#x56FE;&#x5C42;_1" xmlns="http://www.w3.org/2000/svg" xmlns:xlink="http://www.w3.org/1999/xlink" x="0px"
	 y="0px" viewBox="0 0 1471.11 1074.259" style="enable-background:new 0 0 1471.11 1074.259;" xml:space="preserve">
<g>
	<rect x="368.577" y="769.162" style="opacity:0.2;fill:#2A60A4;" width="260.111" height="166.91"/>
	<circle style="opacity:0.2;fill:#1283C3;" cx="347.79" cy="728.026" r="166.64"/>
	<rect x="331.079" y="730.549" style="opacity:0.3;fill:#2A60A4;" width="97.204" height="97.204"/>
	<rect x="0.064" y="881.411" style="opacity:0.15;fill:#2A60A4;" width="371.87" height="192.356"/>
</g>
<g style="opacity:0.3;">
	<g>
		<rect x="144.96" y="0.583" style="fill:#113D86;" width="93.462" height="50.357"/>
		<g>
			<rect x="134.671" y="294.932" style="fill:#113D86;" width="114.898" height="15.58"/>
			<rect x="141.316" y="310.512" style="fill:#113D86;" width="102.465" height="51.748"/>
			<g>
				<polygon style="fill:#113D86;" points="146.246,294.932 141.53,294.932 150.105,50.94 154.821,50.94 				"/>
				<polygon style="fill:#113D86;" points="238.208,294.932 242.924,294.932 234.349,50.94 229.633,50.94 				"/>
				<rect x="190.619" y="50.94" style="fill:#113D86;" width="4.073" height="243.993"/>
				<polygon style="fill:#113D86;" points="234.879,123.978 233.493,126.454 153.005,51.072 154.391,48.596 				"/>
				<polygon style="fill:#113D86;" points="148.825,126.621 150.211,129.097 233.517,51.057 232.131,48.581 				"/>
				<polygon style="fill:#113D86;" points="237.35,203.228 235.904,205.813 151.895,127.133 153.342,124.549 				"/>
				<polygon style="fill:#113D86;" points="147.532,205.987 148.979,208.571 235.929,127.118 234.483,124.534 				"/>
				<polygon style="fill:#113D86;" points="240.847,293.73 239.232,296.614 145.476,208.805 147.09,205.921 				"/>
				<polygon style="fill:#113D86;" points="140.606,296.809 142.221,299.693 239.261,208.788 237.646,205.904 				"/>
			</g>
		</g>
	</g>
	<g>
		<g>
			<g>
				<g>
					<polygon style="fill:#113D86;" points="119.545,392.745 146.882,461.24 75.909,559.482 35.502,559.482 					"/>
				</g>
			</g>
			<g>
				<g>
					<polygon style="fill:#113D86;" points="104.233,704.344 131.755,717.654 76.042,558.169 35.502,559.482 					"/>
				</g>
			</g>
		</g>
		<g>
			<g>
				<g>
					<polygon style="fill:#113D86;" points="272.659,395.435 245.318,463.931 316.291,562.173 356.698,562.173 					"/>
				</g>
			</g>
			<g>
				<g>
					<polygon style="fill:#113D86;" points="287.971,707.036 260.445,720.345 316.161,560.861 356.698,562.173 					"/>
				</g>
			</g>
		</g>
		<g>
			<polygon style="fill:#113D86;" points="138.47,474.1 110.629,405.476 138.47,336.849 249.893,336.849 277.737,405.476 
				249.893,474.1 			"/>
		</g>
		<g>
			<polygon style="fill:#113D86;" points="153.21,582.778 131.666,579.721 153.21,576.664 239.431,576.664 260.977,579.721 
				239.431,582.778 			"/>
		</g>
		<g>
			<polygon style="fill:#113D86;" points="119.932,650.615 83.183,639.613 119.932,628.61 267.004,628.61 303.757,639.613 
				267.004,650.615 			"/>
		</g>
		<g>
			<polygon style="fill:#113D86;" points="170.325,529.069 157.334,527.495 170.325,525.922 222.317,525.922 235.309,527.495 
				222.317,529.069 			"/>
		</g>
		<g>
			<polygon style="fill:#113D86;" points="120.882,508.934 83.183,506.106 120.882,503.277 271.757,503.277 309.461,506.106 
				271.757,508.934 			"/>
		</g>
		<g>
			<polygon style="fill:#113D86;" points="174.553,581.38 162.406,593.788 171.682,579.11 214.552,524.908 226.7,512.498 
				217.423,527.179 			"/>
		</g>
		<g>
			<polygon style="fill:#113D86;" points="217.809,581.38 229.956,593.788 220.679,579.11 177.81,524.908 165.661,512.498 
				174.939,527.179 			"/>
		</g>
		<g>
			<polygon style="fill:#113D86;" points="174.553,487.265 162.406,499.673 171.682,484.994 214.552,430.793 226.7,418.383 
				217.423,433.063 			"/>
		</g>
		<g>
			<polygon style="fill:#113D86;" points="217.809,487.265 229.956,499.673 220.679,484.994 177.81,430.793 165.661,418.383 
				174.939,433.063 			"/>
		</g>
		<g>
			<polygon style="fill:#113D86;" points="174.553,639.421 162.406,650.725 171.682,637.352 214.552,587.973 226.7,576.668 
				217.423,590.042 			"/>
		</g>
		<g>
			<polygon style="fill:#113D86;" points="217.809,639.421 229.956,650.725 220.679,637.352 177.81,587.973 165.661,576.668 
				174.939,590.042 			"/>
		</g>
		<g>
			<g>
				<g>
					<polygon style="fill:#113D86;" points="289.16,478.653 303.894,521.64 265.643,583.295 243.865,583.295 					"/>
				</g>
			</g>
			<g>
				<g>
					<polygon style="fill:#113D86;" points="280.908,684.948 295.741,682.563 265.714,582.471 243.865,583.295 					"/>
				</g>
			</g>
		</g>
		<g>
			<g>
				<g>
					<polygon style="fill:#113D86;" points="101.602,478.653 86.869,521.64 125.12,583.295 146.898,583.295 					"/>
				</g>
			</g>
			<g>
				<g>
					<polygon style="fill:#113D86;" points="109.855,684.948 95.022,682.563 125.049,582.471 146.898,583.295 					"/>
				</g>
			</g>
		</g>
		<g>
			<g>
				<g>
					<polygon style="fill:#113D86;" points="237.282,458.519 243.865,477.726 226.774,505.274 217.044,505.274 					"/>
				</g>
			</g>
			<g>
				<g>
					<polygon style="fill:#113D86;" points="233.595,550.693 240.222,549.627 226.806,504.906 217.044,505.274 					"/>
				</g>
			</g>
		</g>
		<g>
			<g>
				<g>
					<polygon style="fill:#113D86;" points="153.481,458.519 146.898,477.726 163.989,505.274 173.719,505.274 					"/>
				</g>
			</g>
			<g>
				<g>
					<polygon style="fill:#113D86;" points="157.168,550.693 150.54,549.627 163.957,504.906 173.719,505.274 					"/>
				</g>
			</g>
		</g>
		<g>
			<g>
				<g>
					<polygon style="fill:#113D86;" points="248.374,523.514 256.699,547.805 235.084,582.645 222.778,582.645 					"/>
				</g>
			</g>
			<g>
				<g>
					<polygon style="fill:#113D86;" points="243.71,640.087 252.092,638.739 235.125,582.18 222.778,582.645 					"/>
				</g>
			</g>
		</g>
		<g>
			<g>
				<g>
					<polygon style="fill:#113D86;" points="118.609,533.128 126.934,557.419 105.319,592.259 93.013,592.259 					"/>
				</g>
			</g>
			<g>
				<g>
					<polygon style="fill:#113D86;" points="113.945,649.701 122.327,648.353 105.36,591.794 93.013,592.259 					"/>
				</g>
			</g>
		</g>
		<g>
			<g>
				<g>
					<polygon style="fill:#113D86;" points="143.815,523.514 135.49,547.805 157.105,582.645 169.411,582.645 					"/>
				</g>
			</g>
			<g>
				<g>
					<polygon style="fill:#113D86;" points="148.479,640.087 140.097,638.739 157.064,582.18 169.411,582.645 					"/>
				</g>
			</g>
		</g>
		<g>
			<g>
				<g>
					<polygon style="fill:#113D86;" points="275.006,533.128 266.681,557.419 288.296,592.259 300.602,592.259 					"/>
				</g>
			</g>
			<g>
				<g>
					<polygon style="fill:#113D86;" points="279.67,649.701 271.288,648.353 288.255,591.794 300.602,592.259 					"/>
				</g>
			</g>
		</g>
		<g>
			<g>
				<g>
					<polygon style="fill:#113D86;" points="272.333,488.925 275.237,497.398 267.697,509.552 263.404,509.552 					"/>
				</g>
			</g>
			<g>
				<g>
					<polygon style="fill:#113D86;" points="270.706,529.59 273.63,529.119 267.711,509.389 263.404,509.552 					"/>
				</g>
			</g>
		</g>
		<g>
			<g>
				<g>
					<polygon style="fill:#113D86;" points="119.856,488.925 116.952,497.398 124.492,509.552 128.785,509.552 					"/>
				</g>
			</g>
			<g>
				<g>
					<polygon style="fill:#113D86;" points="121.483,529.59 118.559,529.119 124.478,509.389 128.785,509.552 					"/>
				</g>
			</g>
		</g>
		<g>
			<polygon style="fill:#ACD4E5;" points="157.252,450.965 138.796,405.475 157.252,359.984 231.112,359.984 249.569,405.475 
				231.112,450.965 			"/>
		</g>
		<g>
			<path style="fill:#ACD4E5;" d="M244.74,468.238H143.624l-25.463-62.762l25.463-62.764H244.74l25.466,62.764L244.74,468.238z
				 M147.465,462.534h93.434l23.151-57.058l-23.151-57.06h-93.434l-23.149,57.06L147.465,462.534z"/>
		</g>
	</g>
</g>
<g>
	<rect x="368.606" y="768.915" style="opacity:0.2;fill:#2A60A4;" width="260.111" height="166.91"/>
	<circle style="opacity:0.2;fill:#1283C3;" cx="347.819" cy="727.779" r="166.64"/>
	<rect x="331.108" y="730.303" style="opacity:0.3;fill:#2A60A4;" width="97.204" height="97.204"/>
	<rect x="0.093" y="881.164" style="opacity:0.15;fill:#2A60A4;" width="371.87" height="192.356"/>
</g>
<g style="opacity:0.3;">
	<g>
		<rect x="144.989" y="0.336" style="fill:#113D86;" width="93.462" height="50.357"/>
		<g>
			<rect x="134.7" y="294.685" style="fill:#113D86;" width="114.898" height="15.58"/>
			<rect x="141.345" y="310.265" style="fill:#113D86;" width="102.465" height="51.748"/>
			<g>
				<polygon style="fill:#113D86;" points="146.275,294.685 141.559,294.685 150.134,50.693 154.85,50.693 				"/>
				<polygon style="fill:#113D86;" points="238.237,294.685 242.953,294.685 234.378,50.693 229.662,50.693 				"/>
				<rect x="190.648" y="50.693" style="fill:#113D86;" width="4.073" height="243.993"/>
				<polygon style="fill:#113D86;" points="234.908,123.731 233.522,126.207 153.034,50.825 154.42,48.349 				"/>
				<polygon style="fill:#113D86;" points="148.854,126.374 150.24,128.85 233.546,50.81 232.161,48.334 				"/>
				<polygon style="fill:#113D86;" points="237.379,202.981 235.933,205.566 151.924,126.886 153.371,124.302 				"/>
				<polygon style="fill:#113D86;" points="147.561,205.74 149.008,208.324 235.958,126.871 234.512,124.287 				"/>
				<polygon style="fill:#113D86;" points="240.876,293.483 239.261,296.367 145.505,208.558 147.119,205.674 				"/>
				<polygon style="fill:#113D86;" points="140.635,296.562 142.25,299.446 239.29,208.541 237.676,205.657 				"/>
			</g>
		</g>
	</g>
	<g>
		<g>
			<g>
				<g>
					<polygon style="fill:#113D86;" points="119.574,392.498 146.911,460.993 75.938,559.235 35.532,559.235 					"/>
				</g>
			</g>
			<g>
				<g>
					<polygon style="fill:#113D86;" points="104.262,704.096 131.784,717.407 76.071,557.922 35.532,559.235 					"/>
				</g>
			</g>
		</g>
		<g>
			<g>
				<g>
					<polygon style="fill:#113D86;" points="272.688,395.188 245.347,463.684 316.32,561.926 356.727,561.926 					"/>
				</g>
			</g>
			<g>
				<g>
					<polygon style="fill:#113D86;" points="288,706.789 260.474,720.098 316.19,560.614 356.727,561.926 					"/>
				</g>
			</g>
		</g>
		<g>
			<polygon style="fill:#113D86;" points="138.499,473.853 110.658,405.229 138.499,336.602 249.922,336.602 277.766,405.229 
				249.922,473.853 			"/>
		</g>
		<g>
			<polygon style="fill:#113D86;" points="153.239,582.531 131.696,579.474 153.239,576.417 239.46,576.417 261.006,579.474 
				239.46,582.531 			"/>
		</g>
		<g>
			<polygon style="fill:#113D86;" points="119.961,650.368 83.212,639.366 119.961,628.363 267.033,628.363 303.786,639.366 
				267.033,650.368 			"/>
		</g>
		<g>
			<polygon style="fill:#113D86;" points="170.354,528.822 157.363,527.248 170.354,525.675 222.346,525.675 235.338,527.248 
				222.346,528.822 			"/>
		</g>
		<g>
			<polygon style="fill:#113D86;" points="120.911,508.687 83.212,505.859 120.911,503.03 271.786,503.03 309.49,505.859 
				271.786,508.687 			"/>
		</g>
		<g>
			<polygon style="fill:#113D86;" points="174.582,581.133 162.435,593.541 171.711,578.863 214.581,524.661 226.729,512.252 
				217.452,526.932 			"/>
		</g>
		<g>
			<polygon style="fill:#113D86;" points="217.838,581.133 229.985,593.541 220.708,578.863 177.839,524.661 165.69,512.252 
				174.968,526.932 			"/>
		</g>
		<g>
			<polygon style="fill:#113D86;" points="174.582,487.018 162.435,499.426 171.711,484.747 214.581,430.546 226.729,418.136 
				217.452,432.816 			"/>
		</g>
		<g>
			<polygon style="fill:#113D86;" points="217.838,487.018 229.985,499.426 220.708,484.747 177.839,430.546 165.69,418.136 
				174.968,432.816 			"/>
		</g>
		<g>
			<polygon style="fill:#113D86;" points="174.582,639.174 162.435,650.478 171.711,637.105 214.581,587.726 226.729,576.421 
				217.452,589.795 			"/>
		</g>
		<g>
			<polygon style="fill:#113D86;" points="217.838,639.174 229.985,650.478 220.708,637.105 177.839,587.726 165.69,576.421 
				174.968,589.795 			"/>
		</g>
		<g>
			<g>
				<g>
					<polygon style="fill:#113D86;" points="289.19,478.406 303.923,521.393 265.672,583.048 243.894,583.048 					"/>
				</g>
			</g>
			<g>
				<g>
					<polygon style="fill:#113D86;" points="280.937,684.701 295.77,682.316 265.743,582.224 243.894,583.048 					"/>
				</g>
			</g>
		</g>
		<g>
			<g>
				<g>
					<polygon style="fill:#113D86;" points="101.632,478.406 86.898,521.393 125.149,583.048 146.927,583.048 					"/>
				</g>
			</g>
			<g>
				<g>
					<polygon style="fill:#113D86;" points="109.884,684.701 95.051,682.316 125.078,582.224 146.927,583.048 					"/>
				</g>
			</g>
		</g>
		<g>
			<g>
				<g>
					<polygon style="fill:#113D86;" points="237.311,458.272 243.894,477.479 226.803,505.027 217.073,505.027 					"/>
				</g>
			</g>
			<g>
				<g>
					<polygon style="fill:#113D86;" points="233.624,550.446 240.251,549.38 226.835,504.659 217.073,505.027 					"/>
				</g>
			</g>
		</g>
		<g>
			<g>
				<g>
					<polygon style="fill:#113D86;" points="153.51,458.272 146.927,477.479 164.018,505.027 173.748,505.027 					"/>
				</g>
			</g>
			<g>
				<g>
					<polygon style="fill:#113D86;" points="157.197,550.446 150.57,549.38 163.986,504.659 173.748,505.027 					"/>
				</g>
			</g>
		</g>
		<g>
			<g>
				<g>
					<polygon style="fill:#113D86;" points="248.403,523.267 256.728,547.558 235.113,582.398 222.807,582.398 					"/>
				</g>
			</g>
			<g>
				<g>
					<polygon style="fill:#113D86;" points="243.739,639.84 252.121,638.492 235.154,581.933 222.807,582.398 					"/>
				</g>
			</g>
		</g>
		<g>
			<g>
				<g>
					<polygon style="fill:#113D86;" points="118.638,532.881 126.963,557.172 105.348,592.012 93.042,592.012 					"/>
				</g>
			</g>
			<g>
				<g>
					<polygon style="fill:#113D86;" points="113.974,649.454 122.356,648.106 105.389,591.547 93.042,592.012 					"/>
				</g>
			</g>
		</g>
		<g>
			<g>
				<g>
					<polygon style="fill:#113D86;" points="143.844,523.267 135.519,547.558 157.134,582.398 169.44,582.398 					"/>
				</g>
			</g>
			<g>
				<g>
					<polygon style="fill:#113D86;" points="148.508,639.84 140.126,638.492 157.093,581.933 169.44,582.398 					"/>
				</g>
			</g>
		</g>
		<g>
			<g>
				<g>
					<polygon style="fill:#113D86;" points="275.035,532.881 266.71,557.172 288.325,592.012 300.631,592.012 					"/>
				</g>
			</g>
			<g>
				<g>
					<polygon style="fill:#113D86;" points="279.699,649.454 271.317,648.106 288.284,591.547 300.631,592.012 					"/>
				</g>
			</g>
		</g>
		<g>
			<g>
				<g>
					<polygon style="fill:#113D86;" points="272.362,488.678 275.266,497.151 267.726,509.305 263.433,509.305 					"/>
				</g>
			</g>
			<g>
				<g>
					<polygon style="fill:#113D86;" points="270.735,529.343 273.659,528.872 267.74,509.142 263.433,509.305 					"/>
				</g>
			</g>
		</g>
		<g>
			<g>
				<g>
					<polygon style="fill:#113D86;" points="119.885,488.678 116.981,497.151 124.521,509.305 128.814,509.305 					"/>
				</g>
			</g>
			<g>
				<g>
					<polygon style="fill:#113D86;" points="121.512,529.343 118.588,528.872 124.507,509.142 128.814,509.305 					"/>
				</g>
			</g>
		</g>
		<g>
			<polygon style="fill:#ACD4E5;" points="157.281,450.718 138.825,405.228 157.281,359.737 231.141,359.737 249.598,405.228 
				231.141,450.718 			"/>
		</g>
		<g>
			<path style="fill:#ACD4E5;" d="M244.769,467.991H143.653l-25.463-62.762l25.463-62.764h101.116l25.466,62.764L244.769,467.991z
				 M147.494,462.287h93.434l23.151-57.058l-23.151-57.06h-93.434l-23.149,57.06L147.494,462.287z"/>
		</g>
	</g>
</g>
<g style="opacity:0.3;">
	<path style="fill:#113D86;" d="M998.202,144.564h-52.443v13.681h13.3c-0.001,0.027-0.008,0.052-0.008,0.078
		c0,0.872,0.118,1.713,0.304,2.528v12.078h-1.384v11.389h1.384v127.318c-0.185,0.816-0.304,1.656-0.304,2.527
		c0,4.355,2.471,8.095,6.059,10.014c-1.68,1.5-2.76,3.657-2.76,6.086v0.6c0,4.287,3.307,7.764,7.503,8.116v6.658
		c0,1.971-2.07,2.071-2.488,2.071c-0.415,0-2.485-0.1-2.485-2.071c0-1.305-1.058-2.363-2.363-2.363
		c-1.304,0-2.363,1.058-2.363,2.363c0,2.075,0.851,3.906,2.39,5.157c1.298,1.056,3.013,1.638,4.821,1.638
		c3.585,0,7.214-2.334,7.214-6.795v-7.698c2.463-1.411,4.141-4.034,4.141-7.076v-0.6c0-2.46-1.108-4.641-2.826-6.142
		c3.534-1.936,5.958-5.645,5.958-9.959c0-1.18-0.231-2.295-0.564-3.366V201.614h1.147v-11.389h-1.147v-28.535
		c0.333-1.07,0.564-2.185,0.564-3.366c0-0.026-0.008-0.051-0.008-0.078h16.358V144.564z M977.913,201.614v103.995
		c-2.003-1.75-4.594-2.846-7.462-2.846c-2.99,0-5.689,1.177-7.723,3.06V184.318h1.568v-11.389h-1.568v-6.265
		c2.034,1.884,4.733,3.06,7.723,3.06c2.869,0,5.459-1.096,7.462-2.845v23.345h-1.806v11.389H977.913z"/>
	<polygon style="fill:#113D86;" points="937.303,403.714 969.102,350.137 1007.524,403.714 1011.677,403.714 968.838,343.975 
		933.38,403.714 	"/>
	<path style="fill:#113D86;" d="M1461.449,141.726l-37.183-37.136l-3.62-1.258c-33.468,0-58.924,0-78.733,0v5.281v32.566v5.28
		c46.275,0,86.36,0,114.469,0c-0.316,1.331-0.24,2.65,0.376,4.022h-114.845v2.509h116.894c4.175,3.029,9.967,0.015,9.967-5.079
		C1468.774,144.141,1465.435,141.066,1461.449,141.726z M1418.986,107.233l-16.284,16.284l-16.284-16.284H1418.986z
		 M1379.76,107.233l-16.284,16.284l-16.284-16.284H1379.76z M1345.814,108.613l16.283,16.283l-16.283,16.282V108.613z
		 M1347.193,142.557l16.284-16.283l16.283,16.283H1347.193z M1381.139,141.179l-16.283-16.283l16.283-16.284V141.179z
		 M1385.041,108.613l16.283,16.283l-16.283,16.282V108.613z M1386.419,142.557l16.284-16.283l16.283,16.283H1386.419z
		 M1420.365,141.18l-16.283-16.284l16.283-16.284V141.18z M1424.547,108.612l16.284,16.284l-16.284,16.284V108.612z
		 M1425.926,142.557l16.284-16.283l16.282,16.283H1425.926z"/>
	<g>
		<rect x="793.536" y="150.481" style="fill:#113D86;" width="156.919" height="2.509"/>
		<path style="fill:#113D86;" d="M950.454,103.332c-97.823,0-57.303,0-156.919,0v5.28v32.568v5.279c54.753,0,109.135,0,156.919,0
			v-5.28l-16.284-16.283l16.284-16.284V103.332z M909.849,107.233l-16.284,16.284l-16.283-16.284H909.849z M870.624,107.233
			l-16.284,16.284l-16.284-16.284H870.624z M831.398,107.233l-16.283,16.284l-16.284-16.284H831.398z M797.451,108.612
			l16.284,16.284l-16.284,16.283V108.612z M798.83,142.557l16.284-16.283l16.283,16.283H798.83z M832.777,141.179l-16.284-16.283
			l16.284-16.284V141.179z M836.678,108.613l16.283,16.283l-16.283,16.282V108.613z M838.057,142.557l16.284-16.283l16.283,16.283
			H838.057z M872.002,141.179l-16.283-16.283l16.283-16.284V141.179z M875.904,108.613l16.283,16.283l-16.283,16.282V108.613z
			 M877.283,142.557l16.283-16.283l16.284,16.283H877.283z M911.228,141.179l-16.284-16.283l16.284-16.284V141.179z M915.13,108.613
			l16.283,16.283l-16.283,16.282V108.613z M949.075,142.557h-32.566l16.284-16.283L949.075,142.557z M932.792,123.516
			l-16.284-16.284h32.567L932.792,123.516z"/>
	</g>
	<g>
		<rect x="1106.682" y="150.481" style="fill:#113D86;" width="156.919" height="2.509"/>
		<path style="fill:#113D86;" d="M1263.6,103.332c-97.823,0-57.304,0-156.918,0v5.28v32.568v5.279c54.753,0,109.135,0,156.918,0
			v-5.28l-16.284-16.283l16.284-16.284V103.332z M1222.995,107.233l-16.284,16.284l-16.283-16.284H1222.995z M1183.77,107.233
			l-16.284,16.284l-16.283-16.284H1183.77z M1144.544,107.233l-16.284,16.284l-16.284-16.284H1144.544z M1110.597,108.612
			l16.283,16.284l-16.283,16.283V108.612z M1111.976,142.557l16.284-16.283l16.283,16.283H1111.976z M1145.922,141.179
			l-16.283-16.283l16.283-16.284V141.179z M1149.824,108.613l16.282,16.283l-16.282,16.282V108.613z M1151.203,142.557
			l16.283-16.283l16.284,16.283H1151.203z M1185.148,141.179l-16.283-16.283l16.283-16.284V141.179z M1189.05,108.613l16.283,16.283
			l-16.283,16.282V108.613z M1190.429,142.557l16.283-16.283l16.284,16.283H1190.429z M1224.374,141.179l-16.284-16.283
			l16.284-16.284V141.179z M1228.276,108.613l16.283,16.283l-16.283,16.282V108.613z M1262.221,142.557h-32.566l16.284-16.283
			L1262.221,142.557z M1245.938,123.516l-16.284-16.284h32.567L1245.938,123.516z"/>
	</g>
	<g>
		<rect x="1263.247" y="150.493" style="fill:#113D86;" width="82.394" height="2.491"/>
		<path style="fill:#113D86;" d="M1263.247,103.312v43.169h82.394v-43.169H1263.247z M1340.383,107.255l-16.327,16.257
			l-16.257-16.257H1340.383z M1301.158,107.255l-16.327,16.257l-16.257-16.257H1301.158z M1267.19,108.638l16.257,16.258
			l-16.257,16.257V108.638z M1268.574,142.536l16.257-16.257l16.327,16.257H1268.574z M1302.472,141.153l-16.257-16.257
			l16.257-16.258V141.153z M1306.415,108.638l16.257,16.258l-16.257,16.257V108.638z M1307.799,142.536l16.257-16.257l16.327,16.257
			H1307.799z M1341.698,141.153l-16.257-16.257l16.257-16.258V141.153z"/>
	</g>
	<g>
		<rect x="950.171" y="150.481" style="fill:#113D86;" width="156.919" height="2.509"/>
		<path style="fill:#113D86;" d="M1107.09,103.332c-97.823,0-57.303,0-156.919,0v5.28v32.568v5.279c54.753,0,109.135,0,156.919,0
			v-5.28l-16.284-16.283l16.284-16.284V103.332z M1066.485,107.233l-16.284,16.284l-16.283-16.284H1066.485z M1027.259,107.233
			l-16.284,16.284l-16.284-16.284H1027.259z M988.033,107.233l-16.284,16.284l-16.284-16.284H988.033z M954.087,108.612
			l16.284,16.284l-16.284,16.283V108.612z M955.466,142.557l16.284-16.283l16.284,16.283H955.466z M989.412,141.179l-16.284-16.283
			l16.284-16.284V141.179z M993.314,108.613l16.283,16.283l-16.283,16.282V108.613z M994.692,142.557l16.284-16.283l16.283,16.283
			H994.692z M1028.638,141.179l-16.283-16.283l16.283-16.284V141.179z M1032.539,108.613l16.283,16.283l-16.283,16.282V108.613z
			 M1033.918,142.557l16.283-16.283l16.284,16.283H1033.918z M1067.864,141.179l-16.284-16.283l16.284-16.284V141.179z
			 M1071.766,108.613l16.283,16.283l-16.283,16.282V108.613z M1105.71,142.557h-32.566l16.284-16.283L1105.71,142.557z
			 M1089.427,123.516l-16.284-16.284h32.567L1089.427,123.516z"/>
	</g>
	<polygon style="fill:#113D86;" points="1276.648,106.79 451.257,-7.997 451.831,-12.111 1277.216,102.675 	"/>
	
		<rect x="447.255" y="49.318" transform="matrix(0.9678 0.2517 -0.2517 0.9678 34.3033 -165.444)" style="fill:#113D86;" width="433.48" height="4.154"/>
	<path style="fill:#113D86;" d="M474.126,1036.274c0-591.614,0-0.127,0-615.58L493,401.014h4.471v-23.53h-23.344
		c0-12.023,0-19.111,0-23.177c0-3.23,0-4.578,0-4.783c0-5.017,0-14.696,0-32.407l18.397-19.184h4.947v-23.53h-23.344v-0.408
		l0.194,0.185l27.278-28.443h58.978V192.22l-26.106-27.412h-37.785V152.99h296.852v-2.509H496.684v-3.947l5.915-0.076
		c59.645,0,176.028,0,290.937,0v-5.278l-16.283-16.284l16.283-16.284v-5.28c-126.404,0-277.5,0-310.092,0h-2.361h-1.42v1.419
		l-9.785,9.772L462.16-1.229h-0.265c-0.357-1.712-1.032-3.29-1.858-4.772c0,0,0.167-0.983-5.947-6.242
		c-9.704-5.981-21.934-1.045-25.194,9.5L313.342,120.014h-22.949v22.514h-0.394v3.93h18.059v35.751h50.277V152.99h24.942v92.747
		h6.917l27.159,28.318v0.348h-24.036v23.53h6.189l17.846,18.609c0,27.632,0,37.693,0,40.944c0,0.926,0,1.315,0,1.381
		c0,2.146,0,7.278,0,18.616h-24.036v23.53h5.713l18.323,19.106c0,32.693,0,315.098,0,347.197c0,36.998,0,245.464,0,282.208
		 M405.987,380.858h5.84v16.781h-5.84V380.858z M402.612,397.639h-5.92v-16.781h5.92V397.639z M417.353,405.915v7.544
		l-11.934-12.446h11.934V405.915z M417.353,397.639h-2.151v-16.781h2.151V397.639z M405.987,277.778h5.84v16.781h-5.84V277.778z
		 M402.612,294.558h-5.92v-16.781h5.92V294.558z M417.353,302.64v7.241l-11.459-11.948h11.459V302.64z M417.353,294.558h-2.151
		v-16.781h2.151V294.558z M464.244,142.528h-0.934l-7.601-10.083l6.171-6.171l1.372,1.372L464.244,142.528z M450.904,18.324
		c1.79-0.642,3.42-1.569,4.878-2.733l1.844,27.662h-6.722V18.324z M450.904,46.995h6.972l2.929,43.936l-9.9-15.626V46.995z
		 M450.904,82.295l8.88,14.015h-8.88V82.295z M450.904,100.053h10.508l1.433,21.494l-8.757,8.747l-3.184-4.225V100.053z
		 M450.904,132.285l0.511,0.678l-0.511,0.51V132.285z M450.904,137.252l2.134-2.135l5.586,7.412h-7.72V137.252z M450.904,251.001
		h16.273l-16.273,16.274V251.001z M450.904,302.64h16.272l-16.272,16.272V302.64z M457.896,288.225v6.333h-5.84v-12.173
		L457.896,288.225z M452.056,278.755v-0.977h5.84v6.817L452.056,278.755z M464.228,294.558h-2.958V291.6L464.228,294.558z
		 M461.271,287.969v-10.191h5.839v16.031L461.271,287.969z M450.904,332.87l16.27,16.271h-16.27V332.87z M450.904,354.277h16.271
		l-16.271,16.273V354.277z M450.904,405.915h16.271l-16.271,16.272V405.915z M457.896,391.501v6.139h-5.84v-11.978L457.896,391.501z
		 M452.056,382.03v-1.171h5.84v7.012L452.056,382.03z M464.035,397.639h-2.764v-2.764L464.035,397.639z M461.271,391.244v-10.386
		h5.839v16.226L461.271,391.244z M450.904,436.145l16.27,16.271h-16.27V436.145z M450.904,457.553h16.271l-16.271,16.273V457.553z
		 M450.904,487.783l16.27,16.271h-16.27V487.783z M450.904,509.191h16.272l-16.272,16.273V509.191z M450.904,539.42l16.27,16.272
		h-16.27V539.42z M450.904,560.828h16.271L450.904,577.1V560.828z M450.904,591.058l16.27,16.272h-16.27V591.058z M450.904,612.466
		h16.271l-16.271,16.272V612.466z M450.904,642.696l16.27,16.271h-16.27V642.696z M450.904,664.104h16.271l-16.271,16.273V664.104z
		 M450.904,710.399v-16.066l16.208,16.209h-16.208V710.399z M450.904,715.742h16.21l-16.21,16.21V715.742z M450.904,745.909
		l16.27,16.271h-16.27V745.909z M450.904,767.316h16.272l-16.272,16.273V767.316z M450.904,797.546l16.27,16.272h-16.27V797.546z
		 M450.904,818.954h16.271l-16.271,16.272V818.954z M450.904,849.184l16.27,16.271h-16.27V849.184z M450.904,870.592h16.271
		l-16.271,16.272V870.592z M450.904,900.822l16.27,16.271h-16.27V900.822z M450.904,922.23h16.271l-16.271,16.272V922.23z
		 M450.904,952.459l16.27,16.272h-16.27V952.459z M450.904,975.292h15.301l-15.301,15.302V975.292z M450.904,1004.551l16.27,16.271
		h-16.27V1004.551z M450.904,1025.958h16.272l-16.272,16.273V1025.958z M434.54,15.59c0.881,0.705,1.826,1.318,2.838,1.839v25.824
		h-4.683L434.54,15.59z M437.378,46.995v6.963l-4.411-6.963H437.378z M432.074,52.578l5.304,8.37V96.31h-8.219L432.074,52.578z
		 M437.378,100.053v8.07l-6.084-8.07H437.378z M437.378,114.339v28.189h-11.301l2.645-39.673L437.378,114.339z M299.687,140.17
		h-0.177l0.177-0.187V140.17z M299.687,134.521l-5.317,5.648h-0.603v-16.78h5.92V134.521z M308.901,140.17h-0.843h-4.996v-3.773
		l5.84-6.203V140.17z M308.901,124.732l-5.84,6.204v-7.547h5.84V124.732z M318.116,140.17h-5.84v-13.561l3.031-3.219h2.809V140.17z
		 M420.684,11.442l-76.756,108.572h-25.445L420.684,11.442z M341.543,123.389l-1.626,2.299v-2.299H341.543z M327.33,140.17h-5.84
		v-16.78h5.84V140.17z M336.543,140.17h-2.281l2.281-3.227V140.17z M336.543,130.462l-5.839,8.259v-15.331h5.839V130.462z
		 M345.757,140.17h-5.839v-8l5.839-8.26V140.17z M354.971,140.17h-5.84v-16.78h5.84V140.17z M383.277,150.481h-24.942v-4.023
		l24.942,0.076V150.481z M358.345,140.17v-16.78h5.84v16.78H358.345z M367.559,140.17v-16.78h5.839v16.78H367.559z M376.774,140.17
		v-16.78h5.838v16.78H376.774z M391.171,140.17h-5.184v-16.78h5.184V140.17z M417.353,264.303l-17.806-18.567h17.806V264.303z
		 M394.544,142.528v-22.514H348.51L427.53,8.239l-8.952,134.289H394.544z M422.489,304.455l8.246,8.247h-8.246V304.455z
		 M422.489,1080.108 M440.381,1042.035l-16.077-16.077h16.077V1042.035z M440.381,1020.822h-16.075l16.075-16.076V1020.822z
		 M440.381,1001.115l-17.892,17.893v-42.872l17.892,17.893V1001.115z M440.381,990.398l-15.105-15.106h15.105V990.398z
		 M440.381,968.731h-16.075l16.075-16.076V968.731z M440.381,949.024l-17.892,17.893v-42.873l17.892,17.893V949.024z
		 M440.381,938.306l-16.076-16.076h16.076V938.306z M440.381,917.093h-16.076l16.076-16.076V917.093z M440.381,897.386
		l-17.892,17.892v-42.872l17.892,17.894V897.386z M440.381,886.669l-16.076-16.077h16.076V886.669z M440.381,865.455h-16.075
		l16.075-16.075V865.455z M440.381,845.749l-17.892,17.892v-42.872l17.892,17.893V845.749z M440.381,835.031l-16.076-16.077h16.076
		V835.031z M440.381,813.818h-16.075l16.075-16.076V813.818z M440.381,794.111l-17.892,17.893v-42.873l17.892,17.893V794.111z
		 M440.381,783.393l-16.077-16.077h16.077V783.393z M440.381,762.18h-16.075l16.075-16.076V762.18z M440.381,742.473l-17.892,17.893
		v-42.873l17.892,17.894V742.473z M440.381,731.756l-16.014-16.015h16.014V731.756z M440.381,695.999c0,6.242,0,8.322,0,8.259
		c0,1.754,0,3.822,0,6.284h-16.013l16.013-16.013C440.381,695.064,440.381,695.515,440.381,695.999z M440.381,690.898
		l-17.892,17.892v-42.872l17.892,17.893V690.898z M440.381,680.18l-16.076-16.077h16.076V680.18z M440.381,658.967h-16.076
		l16.076-16.077V658.967z M440.381,639.26l-17.892,17.893v-42.871l17.892,17.892V639.26z M440.381,628.543l-16.076-16.077h16.076
		V628.543z M440.381,607.33h-16.075l16.075-16.076V607.33z M440.381,587.623l-17.892,17.892v-42.873l17.892,17.894V587.623z
		 M440.381,576.906l-16.076-16.078h16.076V576.906z M440.381,555.692h-16.075l16.075-16.076V555.692z M440.381,535.985
		l-17.892,17.893v-42.873l17.892,17.893V535.985z M440.381,525.267l-16.077-16.077h16.077V525.267z M440.381,504.054h-16.075
		l16.075-16.076V504.054z M440.381,484.347l-17.892,17.893v-42.873l17.892,17.894V484.347z M440.381,473.629l-16.076-16.076h16.076
		V473.629z M440.381,452.416h-16.076l16.076-16.075V452.416z M440.381,432.71l-17.892,17.892V407.73l17.892,17.893V432.71z
		 M440.381,421.992l-16.076-16.077h16.076V421.992z M424.415,397.038v-16.18h5.84v10.34L424.415,397.038z M430.255,394.829v2.81
		h-2.811L430.255,394.829z M439.468,385.616v12.023h-5.838v-6.185L439.468,385.616z M433.63,387.823v-6.965h5.838v1.127
		L433.63,387.823z M440.381,377.484h-17.892v-21.391l17.892,17.893V377.484z M440.381,370.355l-16.076-16.078h16.076V370.355z
		 M440.381,329.344h-14.748v-11.61h10.134l4.614,4.614V329.344z M440.381,318.717l-0.982-0.983h0.982V318.717z M440.381,312.702
		h-6.015l-10.062-10.062h16.077V312.702z M424.415,293.762v-15.985h5.84v10.145L424.415,293.762z M430.255,291.554v3.005h-3.005
		L430.255,291.554z M439.468,282.341v12.217h-5.838v-6.379L439.468,282.341z M433.63,284.548v-6.77h5.838v0.932L433.63,284.548z
		 M440.381,274.403h-17.892v-21.587l17.892,17.894V274.403z M440.381,267.079l-16.078-16.078h16.078V267.079z M447.148,1020.822
		h-3.012v-19.831l1.604-1.604l1.407,1.407V1020.822z M447.148,994.349l-1.407,1.408l-1.604-1.604v-18.862h3.012V994.349z
		 M447.148,968.731h-3.012v-19.832l1.604-1.603l1.407,1.408V968.731z M447.148,942.258l-1.407,1.407l-1.604-1.603V922.23h3.012
		V942.258z M447.148,917.093h-3.012v-19.831l1.604-1.603l1.407,1.407V917.093z M447.148,890.62l-1.407,1.407l-1.604-1.604v-19.832
		h3.012V890.62z M447.148,865.455h-3.012v-19.831l1.604-1.603l1.407,1.407V865.455z M447.148,838.982l-1.407,1.408l-1.604-1.604
		v-19.833h3.012V838.982z M447.148,813.818h-3.012v-19.832l1.604-1.603l1.407,1.408V813.818z M447.148,787.344l-1.407,1.407
		l-1.604-1.603v-19.833h3.012V787.344z M447.148,762.18h-3.012v-19.832l1.604-1.603l1.407,1.407V762.18z M447.148,735.707
		l-1.407,1.407l-1.604-1.603v-19.77h3.012V735.707z M447.148,710.399v0.143h-3.012v-0.143v-19.626l1.604-1.603l1.407,1.408V710.399z
		 M447.148,684.131l-1.407,1.408l-1.604-1.603v-19.833h3.012V684.131z M447.148,658.967h-3.012v-19.831l1.604-1.604l1.407,1.408
		V658.967z M447.148,632.494l-1.407,1.407l-1.604-1.604v-19.832h3.012V632.494z M447.148,607.33h-3.012v-19.832l1.604-1.603
		l1.407,1.408V607.33z M447.148,580.856l-1.407,1.408l-1.604-1.604v-19.832h3.012V580.856z M447.148,555.692h-3.012V535.86
		l1.604-1.603l1.407,1.408V555.692z M447.148,529.218l-1.407,1.408l-1.604-1.603v-19.833h3.012V529.218z M447.148,504.054h-3.012
		v-19.831l1.604-1.604l1.407,1.408V504.054z M447.148,477.581l-1.407,1.407l-1.604-1.603v-19.833h3.012V477.581z M447.148,452.416
		h-3.012v-19.831l1.604-1.603l1.407,1.407V452.416z M447.148,425.943l-1.407,1.408l-1.604-1.603v-19.833h3.012V425.943z
		 M447.148,397.639h-3.012v-16.692l0.089-0.089h2.923V397.639z M447.148,374.305l-1.407,1.407l-1.604-1.603v-19.833h3.012V374.305z
		 M445.628,327.819v1.525h-1.492v-0.034L445.628,327.819z M444.136,322.472v-4.738h1.492v6.229L444.136,322.472z M447.148,312.702
		h-3.012V302.64h3.012V312.702z M447.148,294.558h-3.012v-16.781h3.012V294.558z M447.148,271.03l-1.407,1.408l-1.604-1.604v-19.833
		h3.012V271.03z M447.148,142.528h-1.522l1.522-1.521V142.528z M447.148,137.224l-5.311,5.304h-0.704v-23.206l6.015,7.98V137.224z
		 M447.148,121.086l-6.015-7.98v-13.053h6.015V121.086z M447.148,96.31h-6.015V66.876l6.015,9.492V96.31z M447.148,69.378
		l-6.015-9.493v-12.89h6.015V69.378z M447.148,43.253h-6.015V18.857c3.146,0.763,4.155,0.546,6.015,0.327V43.253z M468.99,1080.109
		 M468.99,1019.008l-18.087-18.088v-6.696l18.087-18.088V1019.008z M468.99,966.916l-18.087-18.088v-6.696l18.087-18.088V966.916z
		 M468.99,915.278l-18.087-18.088v-6.695l18.087-18.088V915.278z M468.99,863.641l-18.087-18.088v-6.696l18.087-18.088V863.641z
		 M468.99,812.004l-18.087-18.088v-6.695l18.087-18.088V812.004z M468.99,760.366l-18.087-18.089v-6.696l18.087-18.087V760.366z
		 M468.99,708.79l-18.087-18.088v-6.696l18.087-18.087V708.79z M468.99,657.153l-18.087-18.088v-6.695l18.087-18.088V657.153z
		 M468.99,605.515l-18.087-18.088v-6.696l18.087-18.088V605.515z M468.99,553.877l-18.087-18.088v-6.695l18.087-18.088V553.877z
		 M468.99,502.24l-18.087-18.088v-6.696l18.087-18.087V502.24z M468.99,450.602l-18.087-18.088v-6.696l18.087-18.088V450.602z
		 M468.99,377.484h-18.087v-3.303l18.087-18.088V377.484z M468.99,347.327l-18.087-18.088v-6.696l18.087-18.087V347.327z
		 M468.99,274.403h-18.087v-3.497l18.087-18.088V274.403z M497.562,172.145h32.163l21.661,22.318v7.877h-53.824V172.145z
		 M752.93,107.233l-16.284,16.284l-16.284-16.284H752.93z M713.704,107.233l-16.283,16.284l-16.284-16.284H713.704z
		 M674.478,107.233l-16.284,16.284l-16.283-16.284H674.478z M635.252,107.233l-16.284,16.284l-16.284-16.284H635.252z
		 M596.027,107.233l-16.284,16.284l-16.284-16.284H596.027z M556.735,107.233l-16.283,16.284l-16.284-16.284H556.735z
		 M517.51,107.233l-16.284,16.284l-16.283-16.284H517.51z M483.563,108.612l16.283,16.284l-16.283,16.283V108.612z M470.112,118.043
		l9.431-9.432v32.567l-8.453-8.452L470.112,118.043z M471.287,135.681l6.847,6.847h-6.391L471.287,135.681z M488.912,380.858h5.184
		v16.781h-5.184V380.858z M474.126,414.033v-8.118v-4.902h12.486L474.126,414.033z M479.7,380.858h5.838v16.781H479.7V380.858z
		 M476.324,380.858v16.781h-2.199v-16.781H476.324z M488.912,277.778h5.184v16.781h-5.184V277.778z M474.126,310.456v-7.816v-4.707
		h12.011L474.126,310.456z M479.7,277.778h5.838v16.781H479.7V277.778z M476.324,277.778v16.781h-2.199v-16.781H476.324z
		 M473.486,266.228v-20.491c5.829,0,8.791,0,10.269,0c0.935,0,1.322,0,1.316,0c1.205,0,3.373,0,7.174,0L473.486,266.228z
		 M502.599,142.557v-0.029h-17.628l16.254-16.254l16.283,16.283H502.599z M518.888,141.179l-16.283-16.283l16.283-16.284V141.179z
		 M522.79,108.613l16.283,16.283l-16.283,16.282V108.613z M524.168,142.557l16.284-16.283l16.283,16.283H524.168z M558.115,141.18
		l-16.285-16.284l16.285-16.284V141.18z M562.08,108.612l16.284,16.284l-16.284,16.283V108.612z M563.459,142.557l16.284-16.283
		l16.283,16.283H563.459z M597.405,141.179l-16.283-16.283l16.283-16.284V141.179z M601.308,108.613l16.283,16.283l-16.283,16.282
		V108.613z M602.686,142.557l16.283-16.283l16.284,16.283H602.686z M636.631,141.179l-16.283-16.283l16.283-16.284V141.179z
		 M640.534,108.613l16.282,16.283l-16.282,16.282V108.613z M641.911,142.557l16.283-16.283l16.284,16.283H641.911z M675.857,141.179
		l-16.284-16.283l16.284-16.284V141.179z M679.759,108.613l16.283,16.283l-16.283,16.282V108.613z M681.137,142.557l16.284-16.283
		l16.283,16.283H681.137z M715.083,141.179L698.8,124.896l16.283-16.284V141.179z M718.985,108.613l16.283,16.283l-16.283,16.282
		V108.613z M720.363,142.557l16.283-16.283l16.283,16.283H720.363z M754.309,141.179l-16.283-16.283l16.283-16.284V141.179z
		 M758.211,108.613l16.283,16.283l-16.283,16.282V108.613z M792.155,142.557h-32.566l16.284-16.283L792.155,142.557z
		 M775.872,123.516l-16.284-16.284h32.567L775.872,123.516z"/>
</g>
</svg>
