<?xml version="1.0" encoding="iso-8859-1"?>
<!-- Generator: Adobe Illustrator 17.1.0, SVG Export Plug-In . SVG Version: 6.00 Build 0)  -->
<!DOCTYPE svg PUBLIC "-//W3C//DTD SVG 1.1//EN" "http://www.w3.org/Graphics/SVG/1.1/DTD/svg11.dtd">
<svg version="1.1" id="&#x56FE;&#x5C42;_1" xmlns="http://www.w3.org/2000/svg" xmlns:xlink="http://www.w3.org/1999/xlink" x="0px"
	 y="0px" viewBox="0 0 50.182 61.818" style="enable-background:new 0 0 50.182 61.818;" xml:space="preserve">
<path id="XMLID_474_" style="fill:#292E4A;" d="M12.386,1.96c2.204,0.296,4.328,0.888,6.086,1.879
	c0.943,0.532,1.33,1.003,1.149,1.868c-0.12,0.57-0.253,1.092-0.098,1.665c0.588,2.177,3.599,3.066,6.472,3.15
	c-0.043,0.656,0.234,1.336,0.896,1.806c0.306,0.217,0.679,0.38,1.081,0.479c-0.498,1.796-1.015,3.589-1.554,5.378
	c-2.499-0.189-5.001-0.351-7.515-0.361c0.272-1.122,0.52-2.246,0.735-3.373c0.786,0.058,1.574,0.1,2.366,0.108
	c0.636,0.007,1.088-0.465,0.915-0.874c-0.138-0.325-0.402-0.562-0.761-0.705c-0.618-0.821-3.255-1.275-4.168-1.347
	c-0.956-0.075-2.357-0.043-3.113,0.445c-0.728,0.47-0.574,1.091,0.098,1.53c0.733,0.479,1.78,0.582,2.74,0.675
	c-0.289,1.379-0.594,2.756-0.94,4.129c-1.055,2.412-2.111,4.823-3.171,7.233c-0.324-0.515-0.843-0.919-1.671-1.102
	c-0.361-0.08-0.653-0.015-0.856,0.12c-1.197-0.137-2.03,0.637-2.795,1.283c-1.147,0.968-2.071,2.05-2.801,3.196
	c-1.568,2.461-2.365,5.127-2.96,7.774c-0.581,2.587-0.93,5.197-1.291,7.802c-0.366,2.643-0.709,5.295-0.649,7.953
	c0.026,1.168-0.293,4.568,2.784,4.039c1.167-0.2,1.825-1.04,2.336-1.715c0.818-1.079,1.508-2.201,2.127-3.342
	c2.552-4.705,4.165-9.831,5.3-14.79c0.554-2.419,0.916-4.868,0.932-7.32c0-0.073,0.002-0.151,0.005-0.231
	c0.991-2.231,1.967-4.464,2.936-6.699c0.039,3.134,0.131,6.27,0.285,9.404c-1.393,2.832-2.091,5.906-2.862,8.832
	c-0.754,2.864-1.349,5.75-1.691,8.653c-0.33,2.793-0.653,5.776-0.064,8.562c0.358,1.691,1.959,4.475,5.16,3.402
	c1.401-0.47,2.244-1.46,2.93-2.385c0.924-1.245,1.65-2.564,2.258-3.899c1.286-2.823,2.154-5.755,3.027-8.651
	c0.865-2.871,1.59-5.763,2.022-8.683c0.4-2.698,0.844-5.645,0.051-8.325c-0.261-0.882-0.746-2.182-2.175-2.464
	c-0.074-0.015-0.147-0.024-0.22-0.032c0.024-0.069,0.047-0.137,0.072-0.206c0.052-0.147,0.035-0.277-0.024-0.389
	c1.572-4.539,2.984-9.108,4.202-13.699c0.016-0.006,0.033-0.01,0.049-0.016c0.675-0.25,1.265-0.828,1.602-1.477
	c2.604,0.688,5.934,1.135,7.201-0.603c0.858-1.177,0.319-2.769,2.808-2.948c2.202-0.159,4.702,0.442,6.79,0.865
	c1.208,0.245,1.656-1.057,0.469-1.314C46,6.61,40.961,5.397,38.493,7.288C38.025,7.646,37.77,8.1,37.588,8.56
	c-0.237,0.599-0.164,1.47-1.045,1.778c-0.82,0.286-2.111-0.001-2.949-0.145c-0.583-0.1-1.148-0.225-1.703-0.37
	c-0.113-0.59-0.568-1.076-1.518-1.232c-0.088-0.015-0.172-0.019-0.252-0.019c-0.547-0.244-1.245-0.333-1.88-0.227
	c-0.69,0.114-1.24,0.426-1.624,0.823c-1.801,0.034-3.738-0.211-4.762-1.352c-0.983-1.095,0.169-2.297-0.367-3.464
	c-0.493-1.074-2.117-1.817-3.434-2.368c-1.598-0.668-3.368-1.112-5.196-1.351C11.623,0.474,11.145,1.794,12.386,1.96z M9.108,40.327
	c0.824-1.811,1.645-3.623,2.462-5.436c-0.257,1.382-0.594,2.757-0.98,4.124c-1.103,3.905-2.396,7.864-4.303,11.62
	c-0.496,0.977-1.058,1.938-1.703,2.873c-0.3,0.434-0.593,0.894-0.967,1.3c-0.386,0.419-0.65,0.561-0.923,0.047
	c-0.268-0.505-0.12-1.311-0.14-1.848c-0.016-0.432-0.02-0.863-0.015-1.295c0.011-0.988,0.071-1.975,0.161-2.961
	c0.379-4.151,0.925-8.354,1.95-12.453c0.472-1.89,1.058-3.786,2.02-5.589c0.488-0.913,1.088-1.802,1.823-2.632
	c0.479-0.542,1.428-1.741,2.38-2.083c0.243,0.018,0.469-0.024,0.657-0.108c0.852,0.308,0.565,2.641,0.572,3.154
	c0,0.007,0,0.015,0,0.022c-1.612,3.649-3.239,7.296-4.893,10.936C6.825,40.837,8.729,41.16,9.108,40.327z M19.781,39.273
	c-0.175-2.402-0.329-4.804-0.454-7.206c0.678-1.377,1.883-3.272,3.756-3.668c-0.006,0.016-0.041,0.052-0.017,0.049
	c0.049-0.007,0.095-0.008,0.143-0.013C21.942,32.025,20.792,35.641,19.781,39.273z M17.573,36.792
	c0.172,2.464,0.379,4.925,0.636,7.383c0.034,0.329,0.334,0.529,0.689,0.604c0.186,0.186,0.478,0.298,0.825,0.303
	c0.21,0.003,0.418-0.063,0.578-0.152c0.103-0.057,0.177-0.122,0.236-0.194c0.008-0.005,0.019-0.01,0.026-0.015
	c0.201-0.143,0.247-0.302,0.277-0.493c0.031-0.194-0.065-0.433-0.214-0.611c1.332-4.987,2.814-9.943,4.502-14.876
	c0.737,0.39,1.085,1.024,1.173,1.39c0.146,0.605,0.186,1.218,0.206,1.83c0.039,1.228-0.017,2.459-0.126,3.684
	c-0.227,2.555-0.742,5.092-1.4,7.609c-1.153,4.411-2.341,9.05-4.688,13.239c-0.581,1.037-1.231,2.205-2.236,3.085
	c-0.407,0.356-0.946,0.764-1.644,0.699c-0.797-0.075-1.172-0.741-1.408-1.211c-0.967-1.925-0.671-4.261-0.584-6.266
	c0.197-4.588,1.165-9.14,2.462-13.635C17.11,38.377,17.335,37.584,17.573,36.792z M26.012,19.515
	c-0.763,2.48-1.567,4.953-2.419,7.42c-1.856,0.053-3.324,1.038-4.403,2.207c-0.141-3.314-0.231-6.63-0.255-9.95
	C21.302,19.202,23.655,19.353,26.012,19.515z"/>
</svg>
