<?xml version="1.0" encoding="iso-8859-1"?>
<!-- Generator: Adobe Illustrator 17.1.0, SVG Export Plug-In . SVG Version: 6.00 Build 0)  -->
<!DOCTYPE svg PUBLIC "-//W3C//DTD SVG 1.1//EN" "http://www.w3.org/Graphics/SVG/1.1/DTD/svg11.dtd">
<svg version="1.1" id="&#x56FE;&#x5C42;_1" xmlns="http://www.w3.org/2000/svg" xmlns:xlink="http://www.w3.org/1999/xlink" x="0px"
	 y="0px" viewBox="0 0 270.909 231.273" style="enable-background:new 0 0 270.909 231.273;" xml:space="preserve">
<g>
	<g id="Group-29_1_" transform="translate(215.000000, 0.000000)">
		<g id="Group-28_3_">
			
				<linearGradient id="Rectangle-15-Copy-2_2_" gradientUnits="userSpaceOnUse" x1="-764.0294" y1="502.8718" x2="-764.0294" y2="502.2864" gradientTransform="matrix(-199.1614 0 0 74.8044 -152308.9688 -37393.3555)">
				<stop  offset="0" style="stop-color:#113D86"/>
				<stop  offset="1" style="stop-color:#34A4DD;stop-opacity:0"/>
			</linearGradient>
			<path id="Rectangle-15-Copy-2_1_" style="fill:url(#Rectangle-15-Copy-2_2_);" d="M-202.437,208.654l-13.745-33.724h121.389
				l23.314,54.35h-100.277l0,0C-185.225,229.281-197.354,221.127-202.437,208.654z"/>
			
				<linearGradient id="Rectangle-15_2_" gradientUnits="userSpaceOnUse" x1="-760.9232" y1="499.6205" x2="-761.4336" y2="498.9396" gradientTransform="matrix(221.5555 0 0 -316.1733 168556.8594 157991.6719)">
				<stop  offset="0" style="stop-color:#1F9FDA"/>
				<stop  offset="1" style="stop-color:#9DD6E3"/>
			</linearGradient>
			<path id="Rectangle-15_1_" style="fill:url(#Rectangle-15_2_);" d="M-79.05-0.033h65.983L-39.36,203.835l0,0
				c-1.907,14.784-14.494,25.852-29.4,25.852h-105.281l0,0l0,0c17.212,0,31.747-12.781,33.949-29.851l21.266-164.892l0,0
				C-116.248,14.942-99.217-0.033-79.05-0.033z"/>
			<path id="Rectangle-15-Copy-3_1_" style="fill:#C3E5EE;" d="M-81.042-0.033h97.379l0,0c15.592,0,29.074,10.871,32.378,26.109
				l6.125,28.241h-92.87l-5.766-24.777l0,0C-47.826,12.223-63.261-0.033-81.042-0.033L-81.042-0.033z"/>
		</g>
	</g>
	<g id="Group-49_1_" transform="translate(210.000000, 0.000000)">
		<g id="Path-135_2_">
			<path d="M-64.265,230.775c-0.126,0-0.255-0.022-0.38-0.069c-0.563-0.21-0.848-0.837-0.639-1.399l41.666-111.592
				c0.21-0.563,0.836-0.848,1.399-0.639c0.563,0.21,0.848,0.837,0.639,1.399l-41.666,111.592
				C-63.409,230.505-63.824,230.775-64.265,230.775z"/>
		</g>
		<g id="Path-135_1_">
			<path d="M4.83,215.483c-0.139,0-0.279-0.027-0.415-0.082c-0.555-0.229-0.819-0.865-0.59-1.42l29.14-70.574
				c0.23-0.555,0.867-0.818,1.42-0.59c0.555,0.229,0.819,0.865,0.59,1.42l-29.14,70.574C5.662,215.23,5.257,215.483,4.83,215.483z"
				/>
		</g>
		<g id="Path-134_1_">
			<path d="M45.43,228.501c-0.484,0-0.925-0.325-1.052-0.816l-23.387-90.543c-0.15-0.581,0.199-1.174,0.781-1.325
				c0.579-0.15,1.174,0.199,1.325,0.781l23.387,90.543c0.15,0.581-0.199,1.174-0.781,1.325
				C45.611,228.49,45.52,228.501,45.43,228.501z"/>
		</g>
		<g id="Path-134-Copy_1_">
			<path d="M-28.824,229.245c-0.556,0-1.03-0.424-1.082-0.989l-8.415-92.58c-0.054-0.598,0.386-1.127,0.984-1.181
				c0.594-0.051,1.127,0.386,1.181,0.984l8.415,92.58c0.054,0.598-0.386,1.127-0.984,1.181
				C-28.758,229.244-28.791,229.245-28.824,229.245z"/>
		</g>
		<g id="Group-47_1_" transform="translate(29.605458, 0.000000)">
			<g id="Rectangle-35-Copy_1_">
				<polygon style="fill:#EEC286;" points="-71.28,182.594 8.929,182.594 -1.169,71.795 -81.379,71.795 				"/>
			</g>
			<g id="Rectangle-35-Copy-2_1_">
				<polygon style="fill:#2A60A4;" points="-69.144,182.594 11.065,182.594 0.967,71.795 -79.242,71.795 				"/>
			</g>
			<g id="Path-142_1_" style="opacity:0.6;enable-background:new    ;">
				<path style="fill:#ACD4E5;" d="M-18.876,81.056h-50.346c-0.601,0-1.087-0.487-1.087-1.087s0.487-1.087,1.087-1.087h50.346
					c0.601,0,1.087,0.487,1.087,1.087S-18.275,81.056-18.876,81.056z"/>
			</g>
			<g id="Path-142-Copy_2_" style="opacity:0.6;enable-background:new    ;">
				<path style="fill:#ACD4E5;" d="M-34.499,86.81h-34.21c-0.601,0-1.087-0.487-1.087-1.087s0.487-1.087,1.087-1.087h34.21
					c0.601,0,1.087,0.487,1.087,1.087S-33.898,86.81-34.499,86.81z"/>
			</g>
			<g id="Path-142-Copy_1_" style="opacity:0.6;enable-background:new    ;">
				<path style="fill:#ACD4E5;" d="M-41.664,93.684h-27.045c-0.601,0-1.087-0.487-1.087-1.087c0-0.601,0.487-1.087,1.087-1.087
					h27.045c0.601,0,1.087,0.487,1.087,1.087C-40.576,93.198-41.063,93.684-41.664,93.684z"/>
			</g>
		</g>
	</g>
</g>
</svg>
