<?xml version="1.0" encoding="utf-8"?>
<!-- Generator: Adobe Illustrator 17.1.0, SVG Export Plug-In . SVG Version: 6.00 Build 0)  -->
<!DOCTYPE svg PUBLIC "-//W3C//DTD SVG 1.1//EN" "http://www.w3.org/Graphics/SVG/1.1/DTD/svg11.dtd">
<svg version="1.1" id="图层_1" xmlns="http://www.w3.org/2000/svg" xmlns:xlink="http://www.w3.org/1999/xlink" x="0px" y="0px"
	 viewBox="0 0 1080 1080" enable-background="new 0 0 1080 1080" xml:space="preserve">
<g>
	
		<linearGradient id="SVGID_1_" gradientUnits="userSpaceOnUse" x1="15.391" y1="1040.052" x2="87.393" y2="1040.052" gradientTransform="matrix(10.6072 0 0 -10.6072 0 11571.4482)">
		<stop  offset="0" style="stop-color:#FFFFFF"/>
		<stop  offset="0.109" style="stop-color:#EAF6F8;stop-opacity:0.891"/>
		<stop  offset="0.3021" style="stop-color:#C5E6EC;stop-opacity:0.6979"/>
		<stop  offset="0.4918" style="stop-color:#A5D9E2;stop-opacity:0.5082"/>
		<stop  offset="0.6747" style="stop-color:#8ACFDB;stop-opacity:0.3253"/>
		<stop  offset="0.8475" style="stop-color:#78CAD7;stop-opacity:0.1525"/>
		<stop  offset="1" style="stop-color:#72C8D5;stop-opacity:0"/>
	</linearGradient>
	<path opacity="0.3" fill="url(#SVGID_1_)" d="M819.7,804.6c1.9-2,3.8-3.9,5.7-6c2.1-2.2,4.1-4.5,6.1-6.8c1.8-2,3.5-4,5.2-6
		c2-2.4,4-4.8,5.9-7.2c1.6-2,3.2-4,4.8-6.1c1.9-2.5,3.9-5,5.8-7.6c1.5-2,2.9-4,4.3-6.1c1.9-2.7,3.8-5.4,5.6-8.1
		c1.2-1.9,2.4-3.8,3.6-5.6c6.8-10.6,13-21.5,18.8-32.7c0.9-1.8,1.8-3.5,2.7-5.3c1.5-3.2,3-6.4,4.5-9.6c0.9-2,1.9-4.1,2.8-6.2
		c1.4-3.2,2.7-6.4,4-9.6c0.9-2.2,1.7-4.3,2.6-6.5c1.2-3.2,2.4-6.5,3.6-9.7c0.8-2.2,1.5-4.4,2.2-6.6c1.1-3.3,2.2-6.7,3.2-10
		c0.7-2.2,1.3-4.4,1.9-6.6c1-3.5,1.9-6.9,2.8-10.4c0.5-2,0.9-4.1,1.4-6.1c3.6-15.7,6.4-31.8,8-48.3c0.1-0.7,0.1-1.4,0.2-2.1
		c0.5-5.6,1-11.2,1.3-16.8c0.3-6.4,0.5-12.8,0.5-19.3c0-22.9-2.1-45.4-6-67.2c-31.8-178.8-187.9-314.6-375.9-314.6
		c-180.4,0-331.5,125.1-371.4,293.3c-6.8,28.4-10.4,58.1-10.4,88.6c0,38.8,5.8,76.3,16.6,111.6l0,0l0,0c1,3.3,2.1,6.5,3.2,9.7
		c0.7,2.1,1.4,4.3,2.2,6.4c1.1,3.1,2.3,6.2,3.5,9.3c0.8,2.2,1.7,4.3,2.5,6.4c1.2,3,2.5,6.1,3.8,9.1c0.9,2.1,1.9,4.1,2.8,6.2
		c1.4,3,2.7,6,4.2,9c0.8,1.7,1.7,3.3,2.5,4.9c2.9,5.8,6,11.4,9.2,17c1.1,1.9,2.2,3.9,3.3,5.8c1.6,2.7,3.3,5.4,5,8.1
		c1.3,2,2.6,4.1,3.9,6.1c1.7,2.6,3.5,5.2,5.2,7.7c1.4,2,2.9,4,4.3,6.1c1.8,2.5,3.6,5,5.4,7.4c1.6,2.1,3.2,4.1,4.8,6.1
		c3,3.7,6,7.4,9.1,11c2.1,2.5,4.2,4.9,6.3,7.3c1.9,2.1,3.8,4.1,5.7,6.1c1.9,2,3.8,4.1,5.8,6c2,2,4,4,6,5.9c2,2,4.1,3.9,6.1,5.8
		c2,1.9,4,3.7,6.1,5.6c2.3,2,4.6,4,6.9,6c1.9,1.6,3.8,3.3,5.8,4.9c4.1,3.3,8.2,6.6,12.4,9.7c1.7,1.2,3.4,2.4,5,3.6
		c2.9,2.1,5.8,4.2,8.7,6.2c2,1.4,4,2.7,6.1,4c2.7,1.8,5.5,3.6,8.2,5.3c2.1,1.3,4.2,2.6,6.3,3.8c2.9,1.7,5.8,3.4,8.8,5.1
		c2,1.1,3.9,2.2,5.9,3.3c3.9,2.1,7.8,4.1,11.7,6c1.1,0.6,2.2,1.1,3.4,1.7c5,2.4,10,4.7,15.2,6.9c1.8,0.8,3.7,1.5,5.5,2.2
		c3.5,1.4,7,2.8,10.5,4.2c2.1,0.8,4.1,1.5,6.2,2.2c3.5,1.2,6.9,2.4,10.5,3.5c2,0.7,4.1,1.3,6.1,1.9c4,1.2,8,2.3,12,3.4
		c1.6,0.4,3.1,0.9,4.7,1.3c5.6,1.4,11.2,2.7,16.9,3.9c1.3,0.3,2.7,0.5,4.1,0.8c4.4,0.9,8.8,1.7,13.3,2.4c2,0.3,4.1,0.6,6.1,0.9
		c3.9,0.6,7.8,1.1,11.7,1.5c2.1,0.2,4.3,0.5,6.4,0.7c4.1,0.4,8.2,0.7,12.3,0.9c1.9,0.1,3.8,0.3,5.7,0.4c6,0.3,12,0.5,18.1,0.5
		c6.2,0,12.4-0.2,18.5-0.5c2-0.1,4-0.3,6-0.4c4.1-0.3,8.2-0.5,12.3-0.9c2.4-0.2,4.7-0.5,7-0.8c3.7-0.4,7.4-0.9,11.1-1.4
		c2.4-0.4,4.9-0.7,7.3-1.1c3.6-0.6,7.1-1.2,10.6-1.9c2.4-0.5,4.8-1,7.2-1.5c3.5-0.8,7-1.6,10.5-2.4c2.3-0.6,4.6-1.1,6.9-1.7
		c3.7-1,7.3-2,10.9-3.1c2.1-0.6,4.1-1.2,6.2-1.8c4.6-1.4,9.1-3,13.5-4.6c1.1-0.4,2.2-0.7,3.2-1.1c5.5-2,10.8-4.1,16.2-6.4
		c1.9-0.8,3.8-1.7,5.7-2.5c3.4-1.5,6.9-3,10.3-4.6c2.2-1.1,4.4-2.2,6.6-3.3c3-1.5,6-3,8.9-4.6c2.3-1.2,4.6-2.5,6.8-3.8
		c2.8-1.6,5.6-3.2,8.3-4.8c2.3-1.4,4.6-2.7,6.8-4.1c2.7-1.7,5.3-3.4,7.9-5.1c2.2-1.5,4.5-2.9,6.7-4.5c2.6-1.8,5.1-3.6,7.7-5.5
		c2.1-1.5,4.3-3.1,6.4-4.7c2.7-2,5.3-4.1,7.9-6.2c1.9-1.5,3.8-3,5.7-4.5c4.2-3.5,8.3-7.1,12.4-10.7c2.1-1.9,4.1-3.8,6.1-5.8
		c2.1-2,4.3-4,6.3-6C815.6,808.9,817.6,806.8,819.7,804.6z"/>
	
		<linearGradient id="SVGID_2_" gradientUnits="userSpaceOnUse" x1="94.6433" y1="1011.9016" x2="85.1318" y2="1030.8817" gradientTransform="matrix(10.6072 0 0 -10.6072 0 11571.4482)">
		<stop  offset="0" style="stop-color:#093B95"/>
		<stop  offset="1" style="stop-color:#72C8D5;stop-opacity:0"/>
	</linearGradient>
	<circle fill="url(#SVGID_2_)" cx="958.8" cy="748" r="113.1"/>
	
		<linearGradient id="SVGID_3_" gradientUnits="userSpaceOnUse" x1="1.3784" y1="1042.0935" x2="11.9818" y2="1049.0762" gradientTransform="matrix(10.6072 0 0 -10.6072 0 11571.4482)">
		<stop  offset="0" style="stop-color:#FFFFFF"/>
		<stop  offset="0.109" style="stop-color:#EAF6F8;stop-opacity:0.891"/>
		<stop  offset="0.3021" style="stop-color:#C5E6EC;stop-opacity:0.6979"/>
		<stop  offset="0.4918" style="stop-color:#A5D9E2;stop-opacity:0.5082"/>
		<stop  offset="0.6747" style="stop-color:#8ACFDB;stop-opacity:0.3253"/>
		<stop  offset="0.8475" style="stop-color:#78CAD7;stop-opacity:0.1525"/>
		<stop  offset="1" style="stop-color:#72C8D5;stop-opacity:0"/>
	</linearGradient>
	<circle fill="url(#SVGID_3_)" cx="78.4" cy="475.8" r="67.2"/>
	<g>
		<path fill="#FFFFFF" d="M264.4,394.6c-3.1,9.4-5.3,19-6.6,28.9l13.1,2.3c1.1-8.7,3-17.2,5.6-25.5L264.4,394.6z"/>
		<path fill="#FFFFFF" d="M346.7,300.4c-35.2,17-61.3,45.2-76.1,78.2l12,5.7c13.6-30.4,37.6-56.3,69.9-71.9
			c11.3-5.5,23-9.3,34.7-11.7l-2.7-13C371.7,290.3,359,294.5,346.7,300.4z"/>
	</g>
	<path opacity="0.5" fill="#D6206D" enable-background="new    " d="M545.1,125.8c-228.5,0-413.7,185.2-413.7,413.7
		s185.2,413.7,413.7,413.7s413.7-185.2,413.7-413.7S773.6,125.8,545.1,125.8z M925.2,575.5c-0.1,0.7-0.1,1.4-0.2,2.1
		c-1.6,16.4-4.4,32.5-8,48.3c-0.5,2-0.9,4.1-1.4,6.1c-0.9,3.5-1.8,6.9-2.8,10.4c-0.6,2.2-1.2,4.4-1.9,6.6c-1,3.4-2.1,6.7-3.2,10
		c-0.7,2.2-1.5,4.4-2.2,6.6c-1.1,3.3-2.3,6.5-3.6,9.7c-0.8,2.2-1.7,4.3-2.6,6.5c-1.3,3.2-2.6,6.4-4,9.6c-0.9,2.1-1.9,4.1-2.8,6.2
		c-1.5,3.2-2.9,6.4-4.5,9.6c-0.9,1.8-1.8,3.5-2.7,5.3c-5.7,11.2-12,22.1-18.8,32.7c-1.2,1.9-2.4,3.8-3.6,5.6
		c-1.8,2.7-3.7,5.4-5.6,8.1c-1.4,2-2.9,4.1-4.3,6.1c-1.9,2.6-3.8,5.1-5.8,7.6c-1.6,2-3.2,4.1-4.8,6.1c-2,2.4-3.9,4.8-5.9,7.2
		c-1.7,2-3.5,4-5.2,6c-2,2.3-4.1,4.6-6.1,6.8c-1.9,2-3.8,4-5.7,6c-2.1,2.1-4.1,4.3-6.2,6.4c-2.1,2-4.2,4-6.3,6
		c-2,1.9-4.1,3.9-6.1,5.8c-4.1,3.7-8.2,7.2-12.4,10.7c-1.9,1.5-3.8,3-5.7,4.5c-2.6,2.1-5.2,4.2-7.9,6.2c-2.1,1.6-4.3,3.1-6.4,4.7
		c-2.6,1.8-5.1,3.7-7.7,5.5c-2.2,1.5-4.5,3-6.7,4.5c-2.6,1.7-5.3,3.4-7.9,5.1c-2.3,1.4-4.6,2.8-6.8,4.1c-2.7,1.6-5.5,3.2-8.3,4.8
		c-2.3,1.3-4.5,2.5-6.8,3.8c-3,1.6-5.9,3.1-8.9,4.6c-2.2,1.1-4.4,2.2-6.6,3.3c-3.4,1.6-6.8,3.1-10.3,4.6c-1.9,0.8-3.8,1.7-5.7,2.5
		c-5.3,2.2-10.7,4.4-16.2,6.4c-1.1,0.4-2.1,0.7-3.2,1.1c-4.5,1.6-9,3.2-13.5,4.6c-2,0.6-4.1,1.2-6.2,1.8c-3.6,1.1-7.3,2.1-10.9,3.1
		c-2.3,0.6-4.6,1.2-6.9,1.7c-3.5,0.8-7,1.7-10.5,2.4c-2.4,0.5-4.8,1-7.2,1.5c-3.5,0.7-7.1,1.3-10.6,1.9c-2.4,0.4-4.9,0.8-7.3,1.1
		c-3.7,0.5-7.4,1-11.1,1.4c-2.3,0.3-4.7,0.6-7,0.8c-4.1,0.4-8.2,0.7-12.3,0.9c-2,0.1-4,0.3-6,0.4c-6.1,0.3-12.3,0.5-18.5,0.5
		c-6.1,0-12.1-0.2-18.1-0.5c-1.9-0.1-3.8-0.2-5.7-0.4c-4.1-0.3-8.2-0.6-12.3-0.9c-2.1-0.2-4.3-0.4-6.4-0.7
		c-3.9-0.4-7.8-0.9-11.7-1.5c-2-0.3-4.1-0.6-6.1-0.9c-4.5-0.7-8.9-1.5-13.3-2.4c-1.3-0.3-2.7-0.5-4.1-0.8
		c-5.7-1.2-11.3-2.5-16.9-3.9c-1.6-0.4-3.1-0.9-4.7-1.3c-4-1.1-8.1-2.2-12-3.4c-2-0.6-4.1-1.3-6.1-1.9c-3.5-1.1-7-2.3-10.5-3.5
		c-2.1-0.7-4.1-1.5-6.2-2.2c-3.5-1.3-7-2.7-10.5-4.2c-1.8-0.8-3.7-1.5-5.5-2.2c-5.1-2.2-10.2-4.5-15.2-6.9c-1.1-0.6-2.2-1.1-3.4-1.7
		c-3.9-1.9-7.8-3.9-11.7-6c-2-1.1-4-2.2-5.9-3.3c-2.9-1.7-5.9-3.3-8.8-5.1c-2.1-1.3-4.2-2.5-6.3-3.8c-2.8-1.7-5.5-3.5-8.2-5.3
		c-2-1.3-4.1-2.7-6.1-4c-2.9-2-5.8-4.1-8.7-6.2c-1.7-1.2-3.4-2.4-5-3.6c-4.2-3.2-8.3-6.4-12.4-9.7c-2-1.6-3.8-3.2-5.8-4.9
		c-2.3-2-4.6-3.9-6.9-6c-2-1.8-4.1-3.7-6.1-5.6c-2.1-1.9-4.1-3.9-6.1-5.8c-2-2-4-3.9-6-5.9c-2-2-3.9-4-5.8-6c-1.9-2-3.9-4.1-5.7-6.1
		c-2.2-2.4-4.2-4.9-6.3-7.3c-3.1-3.6-6.1-7.3-9.1-11c-1.6-2-3.2-4.1-4.8-6.1c-1.9-2.4-3.6-4.9-5.4-7.4c-1.5-2-2.9-4-4.3-6.1
		c-1.8-2.6-3.5-5.1-5.2-7.7c-1.3-2-2.6-4-3.9-6.1c-1.7-2.7-3.4-5.4-5-8.1c-1.1-1.9-2.2-3.9-3.3-5.8c-3.2-5.6-6.3-11.3-9.2-17
		c-0.8-1.6-1.7-3.3-2.5-4.9c-1.5-3-2.8-6-4.2-9c-0.9-2.1-1.9-4.1-2.8-6.2c-1.3-3-2.6-6-3.8-9.1c-0.9-2.1-1.7-4.3-2.5-6.4
		c-1.2-3.1-2.4-6.2-3.5-9.3c-0.8-2.1-1.5-4.3-2.2-6.4c-1.1-3.2-2.2-6.4-3.2-9.7c-10.8-35.3-16.6-72.8-16.6-111.6
		c0-30.5,3.7-60.1,10.4-88.6c40-168.2,191-293.3,371.4-293.3c187.9,0,344.1,135.8,375.9,314.6c3.9,21.8,6,44.3,6,67.2
		c0,6.5-0.2,12.9-0.5,19.3C926.2,564.3,925.8,569.9,925.2,575.5z"/>
</g>
</svg>
