<?xml version="1.0" encoding="utf-8"?>
<!-- Generator: Adobe Illustrator 17.1.0, SVG Export Plug-In . SVG Version: 6.00 Build 0)  -->
<!DOCTYPE svg PUBLIC "-//W3C//DTD SVG 1.1//EN" "http://www.w3.org/Graphics/SVG/1.1/DTD/svg11.dtd">
<svg version="1.1" id="图层_1" xmlns="http://www.w3.org/2000/svg" xmlns:xlink="http://www.w3.org/1999/xlink" x="0px" y="0px"
	 viewBox="0 0 1080 1080" enable-background="new 0 0 1080 1080" xml:space="preserve">
<g opacity="0.8">
	<image overflow="visible" width="1106" height="1106" xlink:href="E4BF02BEE2DACB01.png"  transform="matrix(1 0 0 1 -13 -13)">
	</image>
</g>
<path fill="#8FCDB8" d="M1035.7,541.1c0-273.8-222-495.9-495.9-495.9C266,45.3,44,267.3,44,541.1C44,815,266,1037,539.9,1037
	C813.7,1037,1035.7,815,1035.7,541.1z"/>
<path fill="#FFFFFF" d="M1028,541.1C1028,271.6,809.4,53,539.9,53C270.3,53,51.8,271.6,51.8,541.1c0,269.5,218.5,488.1,488.1,488.1
	C809.4,1029.2,1028,810.7,1028,541.1z"/>
<g>
	<path fill="#5BAB8B" d="M843.3,541.6c0,167.8-136,303.9-303.9,303.9c-167.8,0-303.9-136.1-303.9-303.9
		c0-167.8,136-303.9,303.9-303.9C707.3,237.7,843.3,373.8,843.3,541.6z"/>
	<g>
		<path fill="#364042" d="M818.4,541.6c0,154-124.9,279-279,279c-154,0-279-124.9-279-279c0-154,124.9-279,279-279
			C693.5,262.6,818.4,387.6,818.4,541.6z"/>
		<path fill="#EA8879" d="M638.2,541.6c0,54.6-44.2,98.8-98.8,98.8c-54.6,0-98.8-44.2-98.8-98.8s44.2-98.8,98.8-98.8
			C594,442.8,638.2,487,638.2,541.6z"/>
		<path fill="#FCFBFD" d="M593.5,541.6c0,29.9-24.2,54.1-54.1,54.1c-29.9,0-54.1-24.2-54.1-54.1c0-29.9,24.2-54.1,54.1-54.1
			C569.3,487.5,593.5,511.7,593.5,541.6z"/>
	</g>
	<path fill="#EA8879" d="M293.7,840.3c0,14.7-11.9,26.5-26.5,26.5c-14.6,0-26.5-11.9-26.5-26.5c0-14.6,11.9-26.5,26.5-26.5
		C281.8,813.8,293.7,825.7,293.7,840.3z"/>
</g>
</svg>
