<?xml version="1.0" encoding="iso-8859-1"?>
<!-- Generator: Adobe Illustrator 17.1.0, SVG Export Plug-In . SVG Version: 6.00 Build 0)  -->
<!DOCTYPE svg PUBLIC "-//W3C//DTD SVG 1.1//EN" "http://www.w3.org/Graphics/SVG/1.1/DTD/svg11.dtd">
<svg version="1.1" id="&#x56FE;&#x5C42;_1" xmlns="http://www.w3.org/2000/svg" xmlns:xlink="http://www.w3.org/1999/xlink" x="0px"
	 y="0px" viewBox="0 0 1080 1080" style="enable-background:new 0 0 1080 1080;" xml:space="preserve">
<g>
	<g>
		<path style="fill:#364042;" d="M907.482,288.31c0,40.235-32.616,72.856-72.839,72.856c-40.234,0-72.848-32.621-72.848-72.856
			c0-40.223,32.613-72.835,72.848-72.835C874.866,215.475,907.482,248.087,907.482,288.31z"/>
		<path style="fill:#EA8879;" d="M869.48,288.31c0,19.224-15.586,34.821-34.799,34.821c-19.254,0-34.859-15.597-34.859-34.821
			c0-19.232,15.604-34.826,34.859-34.826C853.894,253.484,869.48,269.078,869.48,288.31z"/>
	</g>
	<path style="fill:#878172;" d="M846.312,289.239c0,6.751-5.473,12.225-12.223,12.225c-6.76,0-12.239-5.473-12.239-12.225
		c0-6.771,5.479-12.239,12.239-12.239C840.838,277,846.312,282.468,846.312,289.239z"/>
	<g>
		<path style="fill:#5BAB8B;" d="M714.575,598.711l-9.372-19.145l56.54-27.072c41.982-6.744,52.09-63.498,52.207-64.12
			l9.833-204.638l21.288,1.024l-9.999,205.925c-0.652,4.176-12.798,72.409-68.366,82.551L714.575,598.711z"/>
		<path style="fill:#EA8879;" d="M751.595,571.451c6.149,11.43,1.895,25.648-9.521,31.838l-34.444,18.58
			c-11.408,6.161-25.69,1.868-31.834-9.537l0,0c-6.152-11.392-1.881-25.653,9.524-31.822l34.441-18.583
			C731.177,555.778,745.421,560.046,751.595,571.451L751.595,571.451z"/>
	</g>
</g>
</svg>
