<?xml version="1.0" encoding="iso-8859-1"?>
<!-- Generator: Adobe Illustrator 17.1.0, SVG Export Plug-In . SVG Version: 6.00 Build 0)  -->
<!DOCTYPE svg PUBLIC "-//W3C//DTD SVG 1.1//EN" "http://www.w3.org/Graphics/SVG/1.1/DTD/svg11.dtd">
<svg version="1.1" id="&#x56FE;&#x5C42;_1" xmlns="http://www.w3.org/2000/svg" xmlns:xlink="http://www.w3.org/1999/xlink" x="0px"
	 y="0px" viewBox="0 0 116.438 212.329" style="enable-background:new 0 0 116.438 212.329;" xml:space="preserve">
<g>
	<g>
		<g>
			<g>
				<g style="opacity:0.3;">
					<path style="fill:#FFFFFF;" d="M62.575,88.848c0.92,0.485,1.802,1.117,2.637,1.885"/>
					<path style="fill:#FFFFFF;" d="M59.85,87.88c0.64,0.122,1.266,0.312,1.878,0.568"/>
					<path style="fill:#FFFFFF;" d="M57.605,87.744c0.2-0.012,0.399-0.021,0.603-0.021c0.324,0.002,0.647,0.019,0.967,0.056"/>
					<path style="fill:#FFFFFF;" d="M55.643,88.1c0.454-0.135,0.913-0.234,1.381-0.296"/>
					<path style="fill:#FFFFFF;" d="M53.887,88.814c0.406-0.212,0.819-0.392,1.239-0.544"/>
					<path style="fill:#FFFFFF;" d="M66.795,92.408l3.726,6.465C69.508,96.357,68.245,94.167,66.795,92.408z"/>
					<path style="fill:#FFFFFF;" d="M71.487,101.618l-6.274-10.884c-0.835-0.768-1.717-1.4-2.637-1.885l9.997,17.342
						C72.293,104.595,71.928,103.066,71.487,101.618z"/>
					<path style="fill:#FFFFFF;" d="M72.801,107.658l-11.073-19.21c-0.612-0.257-1.238-0.447-1.878-0.568l13.277,23.034
						C73.057,109.805,72.949,108.719,72.801,107.658z"/>
					<path style="fill:#FFFFFF;" d="M73.215,113.762c0-0.563-0.009-1.124-0.03-1.68L59.174,87.779
						c-0.32-0.036-0.643-0.054-0.967-0.056c-0.203,0-0.403,0.009-0.603,0.021l15.598,27.061
						C73.211,114.459,73.215,114.112,73.215,113.762z"/>
					<path style="fill:#FFFFFF;" d="M66.407,106.772l6.59,11.433c0.078-0.786,0.135-1.582,0.172-2.391L57.023,87.804
						c-0.467,0.063-0.927,0.161-1.381,0.296l6.591,11.432C64.043,101.078,65.516,103.634,66.407,106.772z"/>
					<path style="fill:#FFFFFF;" d="M67.286,112.062l5.295,9.186c0.123-0.703,0.226-1.419,0.315-2.144l-6.052-10.499
						C67.063,109.708,67.213,110.865,67.286,112.062z"/>
					<path style="fill:#FFFFFF;" d="M61.177,98.77l-6.051-10.5c-0.42,0.151-0.832,0.332-1.239,0.544L59.181,98
						C59.872,98.128,60.54,98.39,61.177,98.77z"/>
					<path style="fill:#FFFFFF;" d="M58.204,97.909c0.106,0,0.21,0.005,0.316,0.01l-5.102-8.848
						c-0.381,0.221-0.756,0.469-1.122,0.742l4.739,8.225C57.418,97.951,57.807,97.908,58.204,97.909z"/>
					<path style="fill:#FFFFFF;" d="M67.338,113.758c0,0.685-0.026,1.36-0.074,2.023l4.74,8.225
						c0.157-0.638,0.301-1.285,0.428-1.947l-5.1-8.85C67.337,113.392,67.338,113.574,67.338,113.758z"/>
					<path style="fill:#FFFFFF;" d="M66.857,118.836l4.429,7.682c0.189-0.578,0.365-1.17,0.528-1.775l-4.634-8.039
						C67.1,117.433,66.991,118.145,66.857,118.836z"/>
					<path style="fill:#FFFFFF;" d="M56.503,98.183l-4.633-8.041c-0.35,0.28-0.691,0.585-1.025,0.911l4.429,7.684
						C55.671,98.505,56.082,98.32,56.503,98.183z"/>
					<path style="fill:#FFFFFF;" d="M54.823,99.025l-4.368-7.577c-0.322,0.335-0.634,0.69-0.939,1.063l4.254,7.379
						C54.108,99.565,54.459,99.276,54.823,99.025z"/>
					<path style="fill:#FFFFFF;" d="M66.19,121.44l4.254,7.377c0.216-0.526,0.421-1.067,0.613-1.622l-4.366-7.578
						C66.546,120.244,66.378,120.854,66.19,121.44z"/>
					<path style="fill:#FFFFFF;" d="M53.382,100.287l-4.221-7.322c-0.295,0.383-0.579,0.786-0.856,1.205l4.169,7.231
						C52.763,100.999,53.065,100.628,53.382,100.287z"/>
					<path style="fill:#FFFFFF;" d="M65.317,123.685l4.168,7.228c0.243-0.476,0.474-0.97,0.697-1.479l-4.221-7.323
						C65.765,122.659,65.549,123.185,65.317,123.685z"/>
					<path style="fill:#FFFFFF;" d="M64.258,125.607l4.158,7.214c0.268-0.432,0.527-0.881,0.776-1.346l-4.158-7.213
						C64.791,124.737,64.532,125.186,64.258,125.607z"/>
					<path style="fill:#FFFFFF;" d="M52.139,101.892l-4.157-7.214c-0.268,0.432-0.527,0.879-0.776,1.344l4.157,7.214
						C51.606,102.762,51.866,102.313,52.139,101.892z"/>
					<path style="fill:#FFFFFF;" d="M63.016,127.212l4.221,7.322c0.294-0.384,0.579-0.787,0.855-1.207l-4.168-7.231
						C63.634,126.499,63.332,126.871,63.016,127.212z"/>
					<path style="fill:#FFFFFF;" d="M51.081,103.814l-4.168-7.229c-0.243,0.476-0.474,0.971-0.697,1.48l4.221,7.321
						C50.632,104.839,50.848,104.314,51.081,103.814z"/>
					<path style="fill:#FFFFFF;" d="M61.574,128.473l4.369,7.577c0.32-0.334,0.632-0.689,0.937-1.063l-4.253-7.38
						C62.289,127.933,61.938,128.221,61.574,128.473z"/>
					<path style="fill:#FFFFFF;" d="M50.208,106.059l-4.254-7.378c-0.215,0.526-0.421,1.068-0.614,1.622l4.367,7.578
						C49.852,107.252,50.019,106.645,50.208,106.059z"/>
					<path style="fill:#FFFFFF;" d="M49.541,108.663l-4.43-7.685c-0.188,0.58-0.362,1.173-0.526,1.777l4.634,8.038
						C49.297,110.065,49.405,109.352,49.541,108.663z"/>
					<path style="fill:#FFFFFF;" d="M59.895,129.317l4.633,8.038c0.35-0.282,0.691-0.585,1.026-0.911l-4.429-7.685
						C60.726,128.993,60.315,129.179,59.895,129.317z"/>
					<path style="fill:#FFFFFF;" d="M58.194,129.59c-0.106,0-0.211-0.004-0.316-0.01l5.101,8.849
						c0.381-0.223,0.756-0.471,1.123-0.742l-4.74-8.223C58.979,129.548,58.59,129.59,58.194,129.59z"/>
					<path style="fill:#FFFFFF;" d="M49.058,113.74c0.001-0.686,0.027-1.361,0.075-2.024l-4.74-8.224
						c-0.157,0.636-0.301,1.285-0.429,1.946l5.1,8.85C49.06,114.106,49.058,113.925,49.058,113.74z"/>
					<path style="fill:#FFFFFF;" d="M55.221,128.729l6.052,10.5c0.419-0.152,0.832-0.334,1.238-0.544l-5.294-9.186
						C56.524,129.369,55.858,129.109,55.221,128.729z"/>
					<path style="fill:#FFFFFF;" d="M49.11,115.437l-5.295-9.188c-0.121,0.703-0.226,1.419-0.315,2.145l6.052,10.499
						C49.334,117.789,49.183,116.634,49.11,115.437z"/>
					<path style="fill:#FFFFFF;" d="M60.754,139.398l-6.589-11.433c-1.812-1.544-3.284-4.101-4.174-7.239l-6.59-11.433
						c-0.078,0.785-0.136,1.583-0.173,2.388l16.146,28.012C59.841,139.632,60.3,139.533,60.754,139.398z"/>
					<path style="fill:#FFFFFF;" d="M58.191,139.775c0.201,0,0.401-0.007,0.601-0.021l-15.597-27.061
						c-0.008,0.347-0.013,0.693-0.013,1.041c0,0.566,0.01,1.125,0.03,1.681l14.01,24.305
						C57.542,139.756,57.864,139.775,58.191,139.775z"/>
					<path style="fill:#FFFFFF;" d="M56.547,139.617L43.27,116.586c0.07,1.108,0.179,2.194,0.325,3.256l11.073,19.208
						C55.281,139.307,55.908,139.497,56.547,139.617z"/>
					<path style="fill:#FFFFFF;" d="M53.822,138.652l-9.996-17.344c0.278,1.593,0.643,3.124,1.084,4.573l6.276,10.886
						C52.019,137.533,52.903,138.165,53.822,138.652z"/>
					<path style="fill:#FFFFFF;" d="M49.602,135.09l-3.725-6.464C46.889,131.141,48.153,133.331,49.602,135.09z"/>
					<path style="fill:#FFFFFF;" d="M61.574,128.473c0.364-0.252,0.714-0.541,1.053-0.867"/>
					<path style="fill:#FFFFFF;" d="M50.208,106.059c-0.189,0.586-0.356,1.194-0.501,1.822"/>
					<path style="fill:#FFFFFF;" d="M59.895,129.317c0.42-0.138,0.831-0.324,1.23-0.558"/>
					<path style="fill:#FFFFFF;" d="M49.541,108.663c-0.136,0.689-0.243,1.402-0.323,2.13"/>
					<path style="fill:#FFFFFF;" d="M57.878,129.58c0.105,0.006,0.21,0.01,0.316,0.01c0.396,0,0.785-0.041,1.167-0.126"/>
					<path style="fill:#FFFFFF;" d="M49.133,111.716c-0.048,0.662-0.073,1.338-0.075,2.024c0,0.185,0.002,0.366,0.006,0.548"/>
				</g>
				<g style="opacity:0.5;">
					<path style="fill:#FFFFFF;" d="M59.169,126.919c0.485-0.108,0.961-0.295,1.419-0.556"/>
					<path style="fill:#FFFFFF;" d="M57.752,127.001c0.326,0.036,0.651,0.03,0.972-0.006"/>
					<path style="fill:#FFFFFF;" d="M56.616,126.737c0.099,0.036,0.2,0.07,0.301,0.1c0.165,0.047,0.327,0.085,0.49,0.114"/>
					<path style="fill:#FFFFFF;" d="M55.646,126.266c0.221,0.137,0.448,0.252,0.679,0.354"/>
					<path style="fill:#FFFFFF;" d="M54.798,125.647c0.194,0.165,0.393,0.318,0.596,0.456"/>
					<path style="fill:#FFFFFF;" d="M61.467,125.755l2.192-2.696C63.026,124.172,62.283,125.086,61.467,125.755z"/>
					<path style="fill:#FFFFFF;" d="M64.28,121.822l-3.693,4.54c-0.457,0.262-0.933,0.449-1.419,0.556l5.883-7.236
						C64.833,120.442,64.574,121.159,64.28,121.822z"/>
					<path style="fill:#FFFFFF;" d="M65.24,118.979l-6.516,8.015c-0.321,0.037-0.647,0.042-0.972,0.006l7.812-9.61
						C65.475,117.938,65.366,118.467,65.24,118.979z"/>
					<path style="fill:#FFFFFF;" d="M65.75,115.972c-0.029,0.284-0.063,0.563-0.098,0.839l-8.246,10.14
						c-0.163-0.029-0.325-0.067-0.49-0.114c-0.101-0.03-0.201-0.064-0.301-0.1l9.178-11.291
						C65.781,115.621,65.767,115.795,65.75,115.972z"/>
					<path style="fill:#FFFFFF;" d="M61.981,118.474l3.878-4.771c0,0.408-0.011,0.818-0.03,1.229l-9.503,11.687
						c-0.232-0.102-0.458-0.217-0.679-0.354l3.878-4.771C60.511,120.988,61.378,119.922,61.981,118.474z"/>
					<path style="fill:#FFFFFF;" d="M62.685,115.946l3.115-3.832c0.028,0.371,0.044,0.745,0.053,1.125l-3.561,4.38
						C62.456,117.097,62.588,116.537,62.685,115.946z"/>
					<path style="fill:#FFFFFF;" d="M58.955,121.724l-3.56,4.38c-0.203-0.138-0.402-0.291-0.596-0.456l3.116-3.834
						C58.269,121.853,58.618,121.821,58.955,121.724z"/>
					<path style="fill:#FFFFFF;" d="M57.419,121.716c0.054,0.013,0.106,0.027,0.159,0.04l-3.001,3.692
						c-0.182-0.168-0.356-0.35-0.528-0.54l2.789-3.43C57.026,121.576,57.221,121.656,57.419,121.716z"/>
					<path style="fill:#FFFFFF;" d="M62.794,115.101c0.034-0.344,0.055-0.686,0.063-1.028l2.788-3.432
						c0.048,0.342,0.089,0.689,0.121,1.04l-3.002,3.692C62.775,115.284,62.786,115.194,62.794,115.101z"/>
					<path style="fill:#FFFFFF;" d="M62.803,112.478l2.606-3.207c0.067,0.318,0.126,0.644,0.178,0.972l-2.728,3.353
						C62.855,113.217,62.837,112.844,62.803,112.478z"/>
					<path style="fill:#FFFFFF;" d="M56.577,121.325l-2.727,3.354c-0.161-0.193-0.319-0.398-0.47-0.611l2.606-3.206
						C56.175,121.038,56.372,121.193,56.577,121.325z"/>
					<path style="fill:#FFFFFF;" d="M55.773,120.651l-2.57,3.163c-0.145-0.217-0.285-0.441-0.419-0.675l2.503-3.077
						C55.441,120.272,55.603,120.47,55.773,120.651z"/>
					<path style="fill:#FFFFFF;" d="M62.597,111.069l2.502-3.079c0.083,0.296,0.16,0.6,0.229,0.907l-2.569,3.162
						C62.717,111.722,62.663,111.392,62.597,111.069z"/>
					<path style="fill:#FFFFFF;" d="M55.112,119.802l-2.484,3.057c-0.129-0.237-0.252-0.483-0.37-0.735l2.453-3.017
						C54.836,119.352,54.969,119.584,55.112,119.802z"/>
					<path style="fill:#FFFFFF;" d="M62.268,109.812l2.454-3.018c0.098,0.276,0.191,0.559,0.277,0.848l-2.483,3.055
						C62.443,110.391,62.36,110.096,62.268,109.812z"/>
					<path style="fill:#FFFFFF;" d="M61.831,108.687l2.447-3.009c0.113,0.257,0.22,0.52,0.323,0.79l-2.447,3.011
						C62.056,109.203,61.947,108.939,61.831,108.687z"/>
					<path style="fill:#FFFFFF;" d="M54.567,118.811l-2.447,3.011c-0.114-0.258-0.222-0.521-0.324-0.792l2.447-3.008
						C54.342,118.296,54.448,118.56,54.567,118.811z"/>
					<path style="fill:#FFFFFF;" d="M61.287,107.696l2.482-3.056c0.129,0.237,0.253,0.481,0.371,0.734l-2.453,3.018
						C61.562,108.146,61.428,107.913,61.287,107.696z"/>
					<path style="fill:#FFFFFF;" d="M54.129,117.687l-2.453,3.019c-0.099-0.278-0.192-0.56-0.277-0.848l2.484-3.056
						C53.954,117.107,54.037,117.403,54.129,117.687z"/>
					<path style="fill:#FFFFFF;" d="M60.624,106.848l2.57-3.163c0.145,0.216,0.283,0.441,0.418,0.674l-2.502,3.08
						C60.957,107.226,60.794,107.028,60.624,106.848z"/>
					<path style="fill:#FFFFFF;" d="M53.801,116.43l-2.503,3.077c-0.083-0.296-0.16-0.599-0.23-0.907l2.571-3.163
						C53.681,115.777,53.734,116.107,53.801,116.43z"/>
					<path style="fill:#FFFFFF;" d="M53.594,115.021l-2.605,3.206c-0.067-0.318-0.126-0.642-0.179-0.97l2.729-3.353
						C53.541,114.28,53.561,114.655,53.594,115.021z"/>
					<path style="fill:#FFFFFF;" d="M59.82,106.173l2.728-3.353c0.161,0.192,0.319,0.396,0.472,0.61l-2.608,3.205
						C60.222,106.46,60.025,106.305,59.82,106.173z"/>
					<path style="fill:#FFFFFF;" d="M58.979,105.786c-0.054-0.016-0.107-0.03-0.159-0.042l3.002-3.693
						c0.18,0.168,0.356,0.348,0.527,0.54l-2.789,3.433C59.372,105.923,59.178,105.843,58.979,105.786z"/>
					<path style="fill:#FFFFFF;" d="M53.602,112.397c-0.034,0.344-0.054,0.687-0.062,1.028l-2.79,3.433
						c-0.048-0.344-0.089-0.692-0.12-1.043l3.002-3.692C53.622,112.215,53.612,112.305,53.602,112.397z"/>
					<path style="fill:#FFFFFF;" d="M57.442,105.776l3.561-4.38c0.203,0.138,0.403,0.29,0.595,0.458l-3.115,3.833
						C58.129,105.647,57.78,105.678,57.442,105.776z"/>
					<path style="fill:#FFFFFF;" d="M53.713,111.552l-3.117,3.833c-0.027-0.371-0.044-0.746-0.053-1.125l3.562-4.381
						C53.941,110.402,53.809,110.96,53.713,111.552z"/>
					<path style="fill:#FFFFFF;" d="M60.751,101.233l-3.878,4.77c-0.987,0.509-1.853,1.574-2.456,3.021l-3.878,4.769
						c0-0.406,0.01-0.817,0.031-1.227l9.503-11.69C60.303,100.98,60.53,101.097,60.751,101.233z"/>
					<path style="fill:#FFFFFF;" d="M59.48,100.663c0.102,0.03,0.201,0.063,0.302,0.1l-9.18,11.29
						c0.014-0.175,0.028-0.35,0.046-0.525c0.027-0.285,0.06-0.564,0.098-0.841l8.244-10.14
						C59.154,100.577,59.317,100.615,59.48,100.663z"/>
					<path style="fill:#FFFFFF;" d="M58.646,100.498l-7.813,9.61c0.09-0.547,0.198-1.076,0.325-1.589l6.516-8.014
						C57.994,100.467,58.319,100.464,58.646,100.498z"/>
					<path style="fill:#FFFFFF;" d="M57.228,100.58l-5.882,7.237c0.218-0.76,0.477-1.476,0.772-2.139l3.692-4.541
						C56.268,100.874,56.742,100.687,57.228,100.58z"/>
					<path style="fill:#FFFFFF;" d="M54.931,101.742l-2.193,2.698C53.371,103.326,54.115,102.415,54.931,101.742z"/>
					<path style="fill:#FFFFFF;" d="M60.624,106.848c0.169,0.18,0.332,0.378,0.486,0.592"/>
					<path style="fill:#FFFFFF;" d="M53.801,116.43c-0.067-0.323-0.12-0.653-0.161-0.992"/>
					<path style="fill:#FFFFFF;" d="M59.82,106.173c0.206,0.132,0.403,0.287,0.592,0.462"/>
					<path style="fill:#FFFFFF;" d="M53.594,115.021c-0.034-0.366-0.053-0.742-0.056-1.118"/>
					<path style="fill:#FFFFFF;" d="M58.82,105.744c0.053,0.012,0.106,0.026,0.159,0.042c0.199,0.057,0.393,0.137,0.581,0.237"/>
					<path style="fill:#FFFFFF;" d="M53.541,113.425c0.008-0.341,0.028-0.683,0.062-1.028c0.009-0.092,0.02-0.182,0.03-0.275"/>
				</g>
				<path style="fill:none;stroke:#FFFFFF;stroke-width:0.5;" d="M60.18,127.911c-4.513,1.897-9.059-2.905-10.153-10.727
					c-1.095-7.822,1.676-15.702,6.189-17.597c4.514-1.898,9.06,2.906,10.153,10.727C67.465,118.137,64.692,126.015,60.18,127.911z"
					/>
				<path style="opacity:0.7;fill:#FFFFFF;" d="M59.105,120.229c-2.065,0.869-4.146-1.328-4.646-4.908
					c-0.5-3.578,0.767-7.183,2.832-8.051c2.065-0.87,4.145,1.329,4.646,4.908C62.438,115.757,61.171,119.361,59.105,120.229z"/>
				<path style="fill:#FFFFFF;" d="M58.544,116.221c-0.788,0.33-1.581-0.507-1.772-1.872c-0.191-1.365,0.293-2.741,1.08-3.072
					c0.788-0.332,1.581,0.507,1.772,1.874C59.816,114.515,59.333,115.889,58.544,116.221z"/>
			</g>
			<g>
				<g style="opacity:0.3;">
					<path style="fill:#FFFFFF;" d="M59.906,42.582c0.358,0.188,0.702,0.435,1.029,0.734"/>
					<path style="fill:#FFFFFF;" d="M58.842,42.204c0.25,0.049,0.495,0.12,0.733,0.22"/>
					<path style="fill:#FFFFFF;" d="M57.967,42.151c0.077-0.004,0.156-0.009,0.234-0.009c0.128,0.002,0.254,0.009,0.379,0.023"/>
					<path style="fill:#FFFFFF;" d="M57.202,42.292c0.176-0.053,0.355-0.092,0.538-0.116"/>
					<path style="fill:#FFFFFF;" d="M56.516,42.57c0.158-0.084,0.319-0.153,0.483-0.212"/>
					<path style="fill:#FFFFFF;" d="M61.552,43.971l1.453,2.522C62.61,45.511,62.117,44.656,61.552,43.971z"/>
					<path style="fill:#FFFFFF;" d="M63.381,47.563l-2.446-4.247c-0.327-0.299-0.671-0.546-1.029-0.734l3.899,6.764
						C63.697,48.725,63.555,48.128,63.381,47.563z"/>
					<path style="fill:#FFFFFF;" d="M63.894,49.92l-4.318-7.495c-0.238-0.1-0.483-0.171-0.733-0.22l5.179,8.983
						C63.994,50.757,63.952,50.332,63.894,49.92z"/>
					<path style="fill:#FFFFFF;" d="M64.056,52.301c0-0.221-0.004-0.44-0.011-0.657l-5.465-9.48
						c-0.124-0.014-0.251-0.021-0.379-0.023c-0.078,0-0.157,0.005-0.234,0.009l6.084,10.556
						C64.055,52.572,64.056,52.437,64.056,52.301z"/>
					<path style="fill:#FFFFFF;" d="M61.402,49.574l2.569,4.459c0.03-0.306,0.053-0.617,0.067-0.933L57.74,42.175
						c-0.183,0.024-0.362,0.063-0.538,0.116l2.569,4.458C60.479,47.353,61.052,48.35,61.402,49.574z"/>
					<path style="fill:#FFFFFF;" d="M61.744,51.636l2.065,3.584c0.047-0.275,0.089-0.554,0.123-0.837l-2.36-4.094
						C61.657,50.72,61.716,51.17,61.744,51.636z"/>
					<path style="fill:#FFFFFF;" d="M59.36,46.452l-2.362-4.095c-0.164,0.059-0.325,0.128-0.483,0.212l2.066,3.583
						C58.851,46.202,59.112,46.303,59.36,46.452z"/>
					<path style="fill:#FFFFFF;" d="M58.199,46.116c0.042,0,0.083,0.002,0.124,0.004l-1.988-3.452
						c-0.15,0.087-0.295,0.183-0.439,0.29l1.849,3.208C57.894,46.133,58.046,46.116,58.199,46.116z"/>
					<path style="fill:#FFFFFF;" d="M61.763,52.3c0,0.264-0.01,0.528-0.029,0.788l1.849,3.208c0.062-0.248,0.117-0.501,0.168-0.76
						l-1.99-3.45C61.763,52.155,61.763,52.228,61.763,52.3z"/>
					<path style="fill:#FFFFFF;" d="M61.576,54.28l1.728,2.997c0.073-0.227,0.141-0.458,0.205-0.693l-1.807-3.136
						C61.671,53.732,61.629,54.01,61.576,54.28z"/>
					<path style="fill:#FFFFFF;" d="M57.538,46.223l-1.808-3.137c-0.136,0.111-0.269,0.229-0.4,0.355l1.728,2.998
						C57.213,46.348,57.372,46.276,57.538,46.223z"/>
					<path style="fill:#FFFFFF;" d="M56.882,46.551l-1.704-2.954c-0.125,0.13-0.247,0.267-0.365,0.413l1.659,2.879
						C56.602,46.762,56.74,46.649,56.882,46.551z"/>
					<path style="fill:#FFFFFF;" d="M61.316,55.294l1.66,2.88c0.084-0.207,0.164-0.418,0.24-0.636l-1.705-2.955
						C61.455,54.828,61.389,55.067,61.316,55.294z"/>
					<path style="fill:#FFFFFF;" d="M56.32,47.043l-1.646-2.856c-0.114,0.15-0.226,0.307-0.333,0.471l1.626,2.821
						C56.078,47.321,56.198,47.177,56.32,47.043z"/>
					<path style="fill:#FFFFFF;" d="M60.974,56.17l1.626,2.823c0.096-0.189,0.187-0.381,0.273-0.579l-1.645-2.856
						C61.15,55.77,61.065,55.975,60.974,56.17z"/>
					<path style="fill:#FFFFFF;" d="M60.562,56.919l1.622,2.815c0.105-0.169,0.205-0.343,0.302-0.524l-1.622-2.815
						C60.77,56.582,60.669,56.755,60.562,56.919z"/>
					<path style="fill:#FFFFFF;" d="M55.835,47.669l-1.622-2.812c-0.104,0.168-0.206,0.343-0.303,0.523l1.622,2.814
						C55.627,48.01,55.729,47.834,55.835,47.669z"/>
					<path style="fill:#FFFFFF;" d="M60.078,57.547l1.646,2.856c0.115-0.148,0.226-0.307,0.333-0.47l-1.625-2.822
						C60.319,57.268,60.201,57.414,60.078,57.547z"/>
					<path style="fill:#FFFFFF;" d="M55.422,48.419l-1.627-2.821c-0.094,0.187-0.185,0.38-0.271,0.577l1.646,2.856
						C55.248,48.819,55.332,48.616,55.422,48.419z"/>
					<path style="fill:#FFFFFF;" d="M59.515,58.039l1.704,2.956c0.124-0.131,0.246-0.269,0.365-0.415l-1.659-2.88
						C59.795,57.827,59.657,57.941,59.515,58.039z"/>
					<path style="fill:#FFFFFF;" d="M55.082,49.297l-1.661-2.88c-0.083,0.206-0.164,0.416-0.239,0.633l1.705,2.956
						C54.943,49.761,55.008,49.523,55.082,49.297z"/>
					<path style="fill:#FFFFFF;" d="M54.822,50.31l-1.728-2.996c-0.074,0.224-0.143,0.457-0.206,0.691l1.808,3.137
						C54.727,50.858,54.769,50.579,54.822,50.31z"/>
					<path style="fill:#FFFFFF;" d="M58.859,58.367l1.808,3.136c0.137-0.11,0.269-0.23,0.4-0.358l-1.727-2.997
						C59.185,58.242,59.023,58.314,58.859,58.367z"/>
					<path style="fill:#FFFFFF;" d="M58.198,58.473c-0.042,0-0.082-0.002-0.124-0.003l1.99,3.451
						c0.149-0.087,0.295-0.182,0.439-0.289l-1.849-3.208C58.503,58.457,58.351,58.473,58.198,58.473z"/>
					<path style="fill:#FFFFFF;" d="M54.633,52.293c0-0.268,0.012-0.533,0.03-0.791l-1.849-3.208
						c-0.061,0.249-0.118,0.502-0.168,0.759l1.99,3.453C54.635,52.435,54.633,52.364,54.633,52.293z"/>
					<path style="fill:#FFFFFF;" d="M57.036,58.138l2.362,4.097c0.164-0.06,0.324-0.131,0.483-0.213l-2.066-3.584
						C57.546,58.388,57.285,58.287,57.036,58.138z"/>
					<path style="fill:#FFFFFF;" d="M54.653,52.953l-2.064-3.581c-0.049,0.273-0.09,0.551-0.124,0.835l2.36,4.095
						C54.741,53.871,54.682,53.42,54.653,52.953z"/>
					<path style="fill:#FFFFFF;" d="M59.196,62.3l-2.57-4.461c-0.707-0.603-1.281-1.6-1.628-2.823l-2.572-4.461
						c-0.029,0.306-0.051,0.617-0.066,0.933l6.298,10.927C58.839,62.39,59.019,62.352,59.196,62.3z"/>
					<path style="fill:#FFFFFF;" d="M58.196,62.446c0.079,0,0.157-0.001,0.234-0.008l-6.084-10.555
						c-0.003,0.134-0.004,0.269-0.004,0.406c0,0.221,0.004,0.439,0.011,0.655l5.465,9.481
						C57.942,62.438,58.069,62.446,58.196,62.446z"/>
					<path style="fill:#FFFFFF;" d="M57.555,62.385l-5.179-8.984c0.027,0.431,0.069,0.857,0.127,1.27l4.319,7.492
						C57.061,62.265,57.305,62.337,57.555,62.385z"/>
					<path style="fill:#FFFFFF;" d="M56.491,62.009l-3.9-6.766c0.11,0.621,0.251,1.219,0.424,1.783l2.448,4.247
						C55.788,61.572,56.132,61.819,56.491,62.009z"/>
					<path style="fill:#FFFFFF;" d="M54.846,60.619l-1.454-2.52C53.787,59.079,54.28,59.934,54.846,60.619z"/>
					<path style="fill:#FFFFFF;" d="M59.515,58.039c0.141-0.098,0.279-0.212,0.411-0.338"/>
					<path style="fill:#FFFFFF;" d="M55.082,49.297c-0.074,0.227-0.14,0.464-0.195,0.709"/>
					<path style="fill:#FFFFFF;" d="M58.859,58.367c0.164-0.054,0.326-0.126,0.482-0.218"/>
					<path style="fill:#FFFFFF;" d="M54.822,50.31c-0.053,0.269-0.095,0.549-0.126,0.832"/>
					<path style="fill:#FFFFFF;" d="M58.073,58.47c0.042,0.001,0.082,0.003,0.124,0.003c0.153,0,0.305-0.016,0.455-0.05"/>
					<path style="fill:#FFFFFF;" d="M54.663,51.501c-0.019,0.258-0.03,0.524-0.03,0.791c0,0.071,0.002,0.143,0.004,0.213"/>
				</g>
				<g style="opacity:0.5;">
					<path style="fill:#FFFFFF;" d="M58.578,57.433c0.189-0.044,0.374-0.116,0.553-0.217"/>
					<path style="fill:#FFFFFF;" d="M58.024,57.464c0.128,0.012,0.254,0.012,0.38-0.001"/>
					<path style="fill:#FFFFFF;" d="M57.582,57.361c0.038,0.015,0.077,0.029,0.116,0.04c0.064,0.018,0.128,0.033,0.192,0.043"/>
					<path style="fill:#FFFFFF;" d="M57.203,57.177c0.087,0.052,0.175,0.099,0.265,0.137"/>
					<path style="fill:#FFFFFF;" d="M56.873,56.936c0.075,0.064,0.153,0.123,0.232,0.178"/>
					<path style="fill:#FFFFFF;" d="M59.473,56.977l0.856-1.051C60.082,56.359,59.791,56.716,59.473,56.977z"/>
					<path style="fill:#FFFFFF;" d="M60.571,55.444l-1.439,1.772c-0.179,0.101-0.364,0.174-0.553,0.217l2.294-2.823
						C60.787,54.907,60.685,55.184,60.571,55.444z"/>
					<path style="fill:#FFFFFF;" d="M60.946,54.335l-2.542,3.127c-0.125,0.014-0.251,0.014-0.38,0.001l3.048-3.749
						C61.037,53.929,60.994,54.135,60.946,54.335z"/>
					<path style="fill:#FFFFFF;" d="M61.145,53.162c-0.012,0.11-0.024,0.22-0.039,0.326l-3.216,3.955
						c-0.064-0.011-0.127-0.025-0.192-0.043c-0.039-0.011-0.078-0.024-0.116-0.04l3.58-4.403
						C61.156,53.024,61.151,53.094,61.145,53.162z"/>
					<path style="fill:#FFFFFF;" d="M59.675,54.139l1.513-1.861c0,0.158-0.004,0.318-0.013,0.479l-3.706,4.558
						c-0.09-0.038-0.178-0.085-0.265-0.137l1.512-1.86C59.101,55.118,59.438,54.703,59.675,54.139z"/>
					<path style="fill:#FFFFFF;" d="M59.949,53.151l1.216-1.495c0.01,0.146,0.017,0.292,0.021,0.44l-1.39,1.708
						C59.859,53.602,59.912,53.383,59.949,53.151z"/>
					<path style="fill:#FFFFFF;" d="M58.494,55.405l-1.389,1.709c-0.079-0.054-0.157-0.114-0.232-0.178l1.216-1.496
						C58.226,55.456,58.362,55.444,58.494,55.405z"/>
					<path style="fill:#FFFFFF;" d="M57.894,55.403c0.021,0.007,0.041,0.01,0.063,0.015l-1.171,1.439
						c-0.071-0.064-0.14-0.135-0.206-0.209l1.089-1.339C57.742,55.346,57.817,55.38,57.894,55.403z"/>
					<path style="fill:#FFFFFF;" d="M59.991,52.823c0.013-0.134,0.022-0.269,0.025-0.402l1.087-1.339
						c0.019,0.134,0.035,0.271,0.048,0.407L59.98,52.93C59.983,52.893,59.988,52.859,59.991,52.823z"/>
					<path style="fill:#FFFFFF;" d="M59.995,51.799l1.016-1.25c0.027,0.124,0.048,0.251,0.07,0.379l-1.063,1.309
						C60.017,52.087,60.009,51.941,59.995,51.799z"/>
					<path style="fill:#FFFFFF;" d="M57.566,55.25l-1.063,1.308c-0.064-0.076-0.125-0.155-0.183-0.237l1.016-1.251
						C57.41,55.14,57.486,55.199,57.566,55.25z"/>
					<path style="fill:#FFFFFF;" d="M57.253,54.988L56.25,56.22c-0.056-0.084-0.112-0.171-0.165-0.263l0.977-1.199
						C57.122,54.84,57.187,54.915,57.253,54.988z"/>
					<path style="fill:#FFFFFF;" d="M59.914,51.251l0.977-1.202c0.032,0.117,0.063,0.234,0.089,0.355l-1.003,1.233
						C59.96,51.503,59.94,51.375,59.914,51.251z"/>
					<path style="fill:#FFFFFF;" d="M56.994,54.656l-0.969,1.194c-0.05-0.093-0.098-0.189-0.145-0.287l0.957-1.177
						C56.887,54.48,56.939,54.572,56.994,54.656z"/>
					<path style="fill:#FFFFFF;" d="M59.786,50.758l0.957-1.177c0.038,0.109,0.074,0.219,0.108,0.331l-0.97,1.194
						C59.854,50.986,59.822,50.869,59.786,50.758z"/>
					<path style="fill:#FFFFFF;" d="M59.615,50.321l0.954-1.174c0.044,0.101,0.087,0.204,0.126,0.308l-0.954,1.175
						C59.703,50.522,59.661,50.419,59.615,50.321z"/>
					<path style="fill:#FFFFFF;" d="M56.781,54.269l-0.953,1.174c-0.045-0.099-0.087-0.203-0.127-0.309l0.954-1.173
						C56.694,54.068,56.737,54.171,56.781,54.269z"/>
					<path style="fill:#FFFFFF;" d="M59.404,49.934l0.968-1.192c0.049,0.094,0.098,0.187,0.143,0.285l-0.955,1.179
						C59.511,50.109,59.457,50.017,59.404,49.934z"/>
					<path style="fill:#FFFFFF;" d="M56.611,53.832l-0.957,1.178c-0.038-0.109-0.074-0.22-0.108-0.332l0.969-1.193
						C56.543,53.604,56.575,53.721,56.611,53.832z"/>
					<path style="fill:#FFFFFF;" d="M59.145,49.603l1.003-1.233c0.057,0.084,0.111,0.172,0.164,0.264l-0.977,1.199
						C59.275,49.751,59.211,49.672,59.145,49.603z"/>
					<path style="fill:#FFFFFF;" d="M56.483,53.341l-0.976,1.2c-0.033-0.116-0.064-0.236-0.09-0.354l1.002-1.234
						C56.437,53.086,56.457,53.214,56.483,53.341z"/>
					<path style="fill:#FFFFFF;" d="M56.404,52.791l-1.018,1.25c-0.027-0.124-0.049-0.251-0.069-0.379l1.064-1.308
						C56.382,52.501,56.389,52.649,56.404,52.791z"/>
					<path style="fill:#FFFFFF;" d="M58.831,49.341l1.063-1.309c0.064,0.075,0.124,0.154,0.183,0.239l-1.017,1.25
						C58.989,49.453,58.912,49.391,58.831,49.341z"/>
					<path style="fill:#FFFFFF;" d="M58.503,49.189c-0.02-0.006-0.041-0.012-0.062-0.016l1.171-1.44
						c0.07,0.064,0.139,0.134,0.205,0.209L58.73,49.28C58.657,49.243,58.58,49.21,58.503,49.189z"/>
					<path style="fill:#FFFFFF;" d="M56.406,51.767c-0.012,0.135-0.021,0.269-0.025,0.403l-1.088,1.338
						c-0.019-0.134-0.035-0.27-0.046-0.407l1.171-1.44C56.413,51.696,56.41,51.731,56.406,51.767z"/>
					<path style="fill:#FFFFFF;" d="M57.904,49.185l1.387-1.71c0.08,0.055,0.157,0.115,0.233,0.181L58.31,49.15
						C58.172,49.136,58.035,49.146,57.904,49.185z"/>
					<path style="fill:#FFFFFF;" d="M56.449,51.437l-1.216,1.495c-0.011-0.144-0.017-0.291-0.021-0.438l1.389-1.709
						C56.538,50.99,56.486,51.209,56.449,51.437z"/>
					<path style="fill:#FFFFFF;" d="M59.195,47.413l-1.513,1.859c-0.386,0.201-0.723,0.616-0.958,1.178l-1.513,1.862
						c0-0.158,0.004-0.318,0.012-0.478l3.707-4.56C59.019,47.314,59.108,47.36,59.195,47.413z"/>
					<path style="fill:#FFFFFF;" d="M58.699,47.19c0.038,0.012,0.078,0.025,0.118,0.039l-3.582,4.406
						c0.005-0.069,0.012-0.137,0.017-0.206c0.013-0.112,0.024-0.22,0.04-0.328l3.216-3.955
						C58.571,47.156,58.634,47.172,58.699,47.19z"/>
					<path style="fill:#FFFFFF;" d="M58.373,47.126l-3.047,3.75c0.035-0.213,0.078-0.42,0.126-0.621l2.541-3.125
						C58.119,47.115,58.246,47.113,58.373,47.126z"/>
					<path style="fill:#FFFFFF;" d="M57.82,47.158l-2.295,2.822c0.085-0.297,0.186-0.574,0.302-0.834l1.439-1.772
						C57.446,47.274,57.63,47.201,57.82,47.158z"/>
					<path style="fill:#FFFFFF;" d="M56.924,47.611l-0.855,1.053C56.316,48.23,56.605,47.873,56.924,47.611z"/>
					<path style="fill:#FFFFFF;" d="M59.145,49.603c0.066,0.069,0.13,0.148,0.19,0.23"/>
					<path style="fill:#FFFFFF;" d="M56.483,53.341c-0.026-0.127-0.047-0.255-0.064-0.388"/>
					<path style="fill:#FFFFFF;" d="M58.831,49.341c0.081,0.05,0.157,0.112,0.23,0.181"/>
					<path style="fill:#FFFFFF;" d="M56.404,52.791c-0.014-0.143-0.022-0.29-0.023-0.437"/>
					<path style="fill:#FFFFFF;" d="M58.441,49.173c0.021,0.004,0.042,0.01,0.062,0.016c0.077,0.021,0.154,0.054,0.227,0.091"/>
					<path style="fill:#FFFFFF;" d="M56.381,52.169c0.004-0.133,0.012-0.268,0.025-0.403c0.004-0.036,0.007-0.071,0.012-0.105"/>
				</g>
				<path style="fill:none;stroke:#FFFFFF;stroke-width:0.5;" d="M58.972,57.819c-1.761,0.739-3.534-1.133-3.961-4.185
					c-0.426-3.051,0.654-6.124,2.415-6.862c1.76-0.741,3.533,1.131,3.96,4.183C61.813,54.005,60.732,57.079,58.972,57.819z"/>
				<path style="opacity:0.7;fill:#FFFFFF;" d="M58.552,54.822c-0.805,0.339-1.616-0.518-1.812-1.915
					c-0.195-1.394,0.3-2.801,1.105-3.14c0.806-0.337,1.616,0.52,1.812,1.915C59.853,53.078,59.358,54.485,58.552,54.822z"/>
				<path style="fill:#FFFFFF;" d="M58.334,53.259c-0.307,0.127-0.618-0.198-0.691-0.73c-0.075-0.534,0.114-1.069,0.421-1.199
					c0.308-0.129,0.617,0.198,0.692,0.73C58.829,52.594,58.641,53.13,58.334,53.259z"/>
			</g>
			<g>
				<g style="opacity:0.3;">
					<path style="fill:#FFFFFF;" d="M60.8,4.161c0.548,0.289,1.072,0.666,1.568,1.12"/>
					<path style="fill:#FFFFFF;" d="M59.181,3.586c0.38,0.073,0.752,0.186,1.116,0.338"/>
					<path style="fill:#FFFFFF;" d="M57.847,3.507c0.119-0.011,0.235-0.014,0.357-0.014c0.192,0.002,0.385,0.012,0.576,0.036"/>
					<path style="fill:#FFFFFF;" d="M56.679,3.718c0.269-0.081,0.543-0.138,0.82-0.177"/>
					<path style="fill:#FFFFFF;" d="M55.635,4.141c0.241-0.124,0.486-0.233,0.735-0.321"/>
					<path style="fill:#FFFFFF;" d="M63.309,6.279l2.215,3.841C64.922,8.626,64.171,7.323,63.309,6.279z"/>
					<path style="fill:#FFFFFF;" d="M66.098,11.754l-3.73-6.473c-0.497-0.455-1.02-0.831-1.568-1.12l5.943,10.309
						C66.578,13.524,66.36,12.614,66.098,11.754z"/>
					<path style="fill:#FFFFFF;" d="M66.879,15.344l-6.582-11.42c-0.364-0.152-0.736-0.265-1.116-0.338l7.893,13.693
						C67.032,16.619,66.968,15.974,66.879,15.344z"/>
					<path style="fill:#FFFFFF;" d="M67.126,18.973c0-0.335-0.007-0.669-0.019-0.997L58.779,3.528
						c-0.191-0.023-0.383-0.034-0.576-0.036c-0.122,0-0.238,0.003-0.357,0.014l9.272,16.086
						C67.123,19.388,67.126,19.18,67.126,18.973z"/>
					<path style="fill:#FFFFFF;" d="M63.078,14.819l3.918,6.796c0.047-0.468,0.081-0.943,0.102-1.422L57.499,3.541
						c-0.277,0.039-0.551,0.096-0.82,0.177l3.917,6.796C61.673,11.433,62.549,12.951,63.078,14.819z"/>
					<path style="fill:#FFFFFF;" d="M63.602,17.961l3.147,5.463c0.074-0.417,0.136-0.844,0.188-1.275l-3.597-6.242
						C63.468,16.562,63.557,17.249,63.602,17.961z"/>
					<path style="fill:#FFFFFF;" d="M59.968,10.059L56.37,3.82c-0.249,0.089-0.494,0.197-0.735,0.321l3.148,5.461
						C59.195,9.679,59.591,9.834,59.968,10.059z"/>
					<path style="fill:#FFFFFF;" d="M58.201,9.548c0.063,0,0.126,0.003,0.187,0.006l-3.031-5.26c-0.227,0.13-0.45,0.279-0.668,0.441
						l2.817,4.889C57.734,9.573,57.967,9.547,58.201,9.548z"/>
					<path style="fill:#FFFFFF;" d="M63.632,18.97c0,0.408-0.016,0.81-0.045,1.205l2.818,4.889c0.094-0.379,0.179-0.766,0.255-1.159
						l-3.032-5.259C63.631,18.753,63.632,18.862,63.632,18.97z"/>
					<path style="fill:#FFFFFF;" d="M63.345,21.989l2.634,4.568c0.113-0.343,0.217-0.696,0.313-1.056l-2.754-4.779
						C63.491,21.155,63.426,21.577,63.345,21.989z"/>
					<path style="fill:#FFFFFF;" d="M57.19,9.711l-2.756-4.779C54.228,5.1,54.024,5.28,53.826,5.474l2.633,4.567
						C56.696,9.903,56.94,9.793,57.19,9.711z"/>
					<path style="fill:#FFFFFF;" d="M56.191,10.212l-2.597-4.504c-0.19,0.199-0.376,0.41-0.557,0.631l2.528,4.386
						C55.767,10.534,55.976,10.361,56.191,10.212z"/>
					<path style="fill:#FFFFFF;" d="M62.949,23.537l2.529,4.387c0.128-0.313,0.251-0.636,0.365-0.967l-2.597-4.504
						C63.161,22.826,63.061,23.189,62.949,23.537z"/>
					<path style="fill:#FFFFFF;" d="M55.334,10.961l-2.508-4.353c-0.176,0.231-0.344,0.469-0.509,0.717l2.479,4.302
						C54.967,11.386,55.148,11.164,55.334,10.961z"/>
					<path style="fill:#FFFFFF;" d="M62.431,24.872l2.477,4.298c0.144-0.283,0.282-0.577,0.414-0.881l-2.508-4.353
						C62.697,24.262,62.568,24.575,62.431,24.872z"/>
					<path style="fill:#FFFFFF;" d="M61.801,26.015l2.472,4.287c0.159-0.255,0.313-0.522,0.462-0.8l-2.473-4.287
						C62.118,25.499,61.964,25.763,61.801,26.015z"/>
					<path style="fill:#FFFFFF;" d="M54.597,11.916l-2.473-4.287c-0.159,0.256-0.313,0.523-0.462,0.799l2.473,4.288
						C54.279,12.433,54.434,12.166,54.597,11.916z"/>
					<path style="fill:#FFFFFF;" d="M61.063,26.969l2.508,4.352c0.175-0.228,0.344-0.468,0.509-0.715l-2.478-4.301
						C61.431,26.545,61.25,26.767,61.063,26.969z"/>
					<path style="fill:#FFFFFF;" d="M53.966,13.058L51.489,8.76c-0.144,0.286-0.282,0.579-0.414,0.88l2.51,4.353
						C53.7,13.669,53.829,13.356,53.966,13.058z"/>
					<path style="fill:#FFFFFF;" d="M60.206,27.717l2.597,4.505c0.191-0.199,0.377-0.41,0.557-0.632l-2.527-4.387
						C60.63,27.396,60.421,27.569,60.206,27.717z"/>
					<path style="fill:#FFFFFF;" d="M53.448,14.393l-2.529-4.384c-0.129,0.312-0.251,0.634-0.366,0.964l2.597,4.505
						C53.237,15.103,53.336,14.742,53.448,14.393z"/>
					<path style="fill:#FFFFFF;" d="M53.051,15.942l-2.633-4.569c-0.112,0.344-0.217,0.697-0.313,1.055l2.754,4.782
						C52.906,16.774,52.972,16.352,53.051,15.942z"/>
					<path style="fill:#FFFFFF;" d="M59.207,28.22l2.755,4.779c0.207-0.167,0.41-0.348,0.608-0.542l-2.633-4.568
						C59.701,28.027,59.457,28.138,59.207,28.22z"/>
					<path style="fill:#FFFFFF;" d="M58.196,28.381c-0.063,0-0.125-0.004-0.188-0.006l3.033,5.259
						c0.226-0.131,0.449-0.278,0.668-0.44l-2.819-4.89C58.663,28.357,58.431,28.381,58.196,28.381z"/>
					<path style="fill:#FFFFFF;" d="M52.765,18.96c0-0.408,0.016-0.809,0.045-1.202l-2.818-4.889
						c-0.094,0.376-0.18,0.763-0.255,1.156l3.031,5.261C52.767,19.176,52.765,19.069,52.765,18.96z"/>
					<path style="fill:#FFFFFF;" d="M56.429,27.869l3.597,6.243c0.249-0.089,0.494-0.197,0.735-0.323l-3.148-5.462
						C57.204,28.253,56.806,28.098,56.429,27.869z"/>
					<path style="fill:#FFFFFF;" d="M52.796,19.968l-3.148-5.461c-0.072,0.418-0.134,0.843-0.187,1.277l3.598,6.239
						C52.928,21.369,52.84,20.68,52.796,19.968z"/>
					<path style="fill:#FFFFFF;" d="M59.718,34.213L55.8,27.416c-1.076-0.918-1.951-2.437-2.481-4.304l-3.918-6.796
						c-0.046,0.467-0.081,0.941-0.102,1.423l9.6,16.653C59.174,34.352,59.448,34.293,59.718,34.213z"/>
					<path style="fill:#FFFFFF;" d="M58.195,34.437c0.12,0,0.238-0.003,0.356-0.012l-9.273-16.087
						c-0.004,0.205-0.007,0.411-0.007,0.62c0,0.334,0.006,0.668,0.018,0.998l8.328,14.449
						C57.809,34.427,58.001,34.437,58.195,34.437z"/>
					<path style="fill:#FFFFFF;" d="M57.216,34.344l-7.893-13.691c0.042,0.657,0.106,1.303,0.195,1.935l6.581,11.419
						C56.465,34.158,56.837,34.272,57.216,34.344z"/>
					<path style="fill:#FFFFFF;" d="M55.597,33.768L49.654,23.46c0.165,0.947,0.382,1.856,0.644,2.719l3.73,6.47
						C54.526,33.104,55.049,33.481,55.597,33.768z"/>
					<path style="fill:#FFFFFF;" d="M53.088,31.653l-2.214-3.844C51.475,29.304,52.225,30.606,53.088,31.653z"/>
					<path style="fill:#FFFFFF;" d="M60.206,27.717c0.216-0.148,0.424-0.321,0.627-0.514"/>
					<path style="fill:#FFFFFF;" d="M53.448,14.393c-0.112,0.35-0.211,0.71-0.298,1.085"/>
					<path style="fill:#FFFFFF;" d="M59.207,28.22c0.25-0.082,0.494-0.193,0.73-0.331"/>
					<path style="fill:#FFFFFF;" d="M53.051,15.942c-0.08,0.41-0.145,0.832-0.193,1.268"/>
					<path style="fill:#FFFFFF;" d="M58.008,28.376c0.063,0.002,0.125,0.006,0.188,0.006c0.235,0,0.467-0.025,0.694-0.076"/>
					<path style="fill:#FFFFFF;" d="M52.81,17.758c-0.029,0.393-0.045,0.794-0.045,1.202c0,0.109,0.002,0.216,0.003,0.326"/>
				</g>
				<g style="opacity:0.5;">
					<path style="fill:#FFFFFF;" d="M58.776,26.795c0.288-0.065,0.571-0.175,0.843-0.334"/>
					<path style="fill:#FFFFFF;" d="M57.933,26.845c0.195,0.019,0.387,0.018,0.578-0.005"/>
					<path style="fill:#FFFFFF;" d="M57.259,26.686c0.058,0.02,0.118,0.041,0.178,0.059c0.097,0.029,0.195,0.052,0.291,0.069"/>
					<path style="fill:#FFFFFF;" d="M56.681,26.405c0.133,0.083,0.267,0.151,0.405,0.213"/>
					<path style="fill:#FFFFFF;" d="M56.178,26.039c0.115,0.098,0.233,0.189,0.354,0.269"/>
					<path style="fill:#FFFFFF;" d="M60.141,26.105l1.303-1.607C61.068,25.161,60.626,25.706,60.141,26.105z"/>
					<path style="fill:#FFFFFF;" d="M61.814,23.765l-2.195,2.696c-0.272,0.158-0.555,0.269-0.843,0.334l3.496-4.304
						C62.143,22.945,61.989,23.369,61.814,23.765z"/>
					<path style="fill:#FFFFFF;" d="M62.384,22.074l-3.873,4.766c-0.192,0.023-0.383,0.023-0.578,0.005l4.645-5.714
						C62.524,21.455,62.461,21.771,62.384,22.074z"/>
					<path style="fill:#FFFFFF;" d="M62.688,20.286c-0.016,0.168-0.037,0.334-0.059,0.5l-4.901,6.029
						c-0.096-0.017-0.194-0.041-0.291-0.069c-0.06-0.018-0.12-0.039-0.178-0.059l5.455-6.712
						C62.706,20.077,62.699,20.183,62.688,20.286z"/>
					<path style="fill:#FFFFFF;" d="M60.448,21.774l2.304-2.835c0,0.242-0.006,0.484-0.019,0.731l-5.648,6.948
						c-0.138-0.061-0.272-0.13-0.405-0.213l2.305-2.835C59.574,23.269,60.087,22.635,60.448,21.774z"/>
					<path style="fill:#FFFFFF;" d="M60.866,20.271l1.852-2.278c0.016,0.22,0.026,0.443,0.031,0.668l-2.117,2.605
						C60.73,20.956,60.809,20.624,60.866,20.271z"/>
					<path style="fill:#FFFFFF;" d="M58.649,23.705l-2.117,2.603c-0.121-0.081-0.239-0.171-0.354-0.269l1.852-2.281
						C58.24,23.781,58.447,23.764,58.649,23.705z"/>
					<path style="fill:#FFFFFF;" d="M57.735,23.702c0.032,0.009,0.064,0.015,0.095,0.024l-1.785,2.195
						c-0.106-0.1-0.211-0.206-0.313-0.321l1.659-2.039C57.502,23.618,57.617,23.666,57.735,23.702z"/>
					<path style="fill:#FFFFFF;" d="M60.932,19.769c0.02-0.206,0.031-0.41,0.037-0.612l1.659-2.039
						c0.028,0.204,0.051,0.411,0.072,0.621l-1.786,2.194C60.919,19.878,60.925,19.824,60.932,19.769z"/>
					<path style="fill:#FFFFFF;" d="M60.936,18.209l1.55-1.907c0.04,0.19,0.074,0.383,0.106,0.577l-1.622,1.995
						C60.968,18.649,60.957,18.427,60.936,18.209z"/>
					<path style="fill:#FFFFFF;" d="M57.234,23.469l-1.62,1.995c-0.097-0.116-0.191-0.237-0.28-0.364l1.55-1.906
						C56.996,23.3,57.112,23.392,57.234,23.469z"/>
					<path style="fill:#FFFFFF;" d="M56.757,23.069l-1.529,1.878c-0.085-0.127-0.168-0.262-0.248-0.399l1.488-1.831
						C56.558,22.844,56.656,22.961,56.757,23.069z"/>
					<path style="fill:#FFFFFF;" d="M60.814,17.371l1.487-1.83c0.049,0.178,0.096,0.358,0.136,0.539l-1.528,1.88
						C60.885,17.76,60.853,17.564,60.814,17.371z"/>
					<path style="fill:#FFFFFF;" d="M56.363,22.564l-1.476,1.817c-0.076-0.141-0.15-0.287-0.22-0.436l1.458-1.794
						C56.199,22.297,56.278,22.435,56.363,22.564z"/>
					<path style="fill:#FFFFFF;" d="M60.618,16.624l1.458-1.794c0.058,0.164,0.113,0.333,0.166,0.503l-1.478,1.819
						C60.723,16.968,60.673,16.794,60.618,16.624z"/>
					<path style="fill:#FFFFFF;" d="M60.358,15.956l1.456-1.79c0.067,0.154,0.132,0.31,0.192,0.469l-1.455,1.79
						C60.492,16.261,60.427,16.106,60.358,15.956z"/>
					<path style="fill:#FFFFFF;" d="M56.039,21.975l-1.455,1.79c-0.068-0.154-0.131-0.309-0.193-0.471l1.455-1.79
						C55.906,21.669,55.97,21.825,56.039,21.975z"/>
					<path style="fill:#FFFFFF;" d="M60.035,15.367l1.476-1.816c0.076,0.14,0.15,0.286,0.22,0.435l-1.458,1.793
						C60.198,15.634,60.119,15.496,60.035,15.367z"/>
					<path style="fill:#FFFFFF;" d="M55.78,21.307l-1.459,1.795c-0.058-0.165-0.113-0.333-0.165-0.505l1.477-1.817
						C55.675,20.962,55.725,21.138,55.78,21.307z"/>
					<path style="fill:#FFFFFF;" d="M59.641,14.862l1.528-1.88c0.086,0.129,0.169,0.264,0.249,0.402l-1.488,1.829
						C59.838,15.087,59.741,14.969,59.641,14.862z"/>
					<path style="fill:#FFFFFF;" d="M55.584,20.56l-1.488,1.831c-0.05-0.177-0.095-0.357-0.137-0.541l1.528-1.877
						C55.514,20.17,55.545,20.367,55.584,20.56z"/>
					<path style="fill:#FFFFFF;" d="M55.462,19.723l-1.55,1.905c-0.04-0.19-0.075-0.384-0.106-0.578l1.622-1.994
						C55.43,19.281,55.441,19.502,55.462,19.723z"/>
					<path style="fill:#FFFFFF;" d="M59.163,14.462l1.621-1.994c0.097,0.112,0.189,0.235,0.28,0.363l-1.55,1.905
						C59.402,14.632,59.283,14.541,59.163,14.462z"/>
					<path style="fill:#FFFFFF;" d="M58.662,14.231c-0.032-0.009-0.063-0.019-0.095-0.025l1.785-2.195
						c0.108,0.1,0.212,0.206,0.314,0.321l-1.659,2.039C58.896,14.312,58.78,14.265,58.662,14.231z"/>
					<path style="fill:#FFFFFF;" d="M55.466,18.163c-0.021,0.203-0.032,0.408-0.037,0.609l-1.659,2.042
						c-0.029-0.206-0.052-0.412-0.071-0.62l1.784-2.195C55.478,18.053,55.472,18.107,55.466,18.163z"/>
					<path style="fill:#FFFFFF;" d="M57.749,14.224l2.117-2.605c0.12,0.083,0.239,0.175,0.354,0.274l-1.852,2.278
						C58.156,14.148,57.95,14.167,57.749,14.224z"/>
					<path style="fill:#FFFFFF;" d="M55.531,17.659l-1.852,2.278c-0.016-0.219-0.025-0.442-0.03-0.67l2.117-2.602
						C55.668,16.974,55.59,17.306,55.531,17.659z"/>
					<path style="fill:#FFFFFF;" d="M59.717,11.525l-2.306,2.835c-0.587,0.303-1.102,0.936-1.462,1.795l-2.305,2.837
						c0-0.24,0.006-0.486,0.019-0.73l5.649-6.949C59.45,11.373,59.584,11.446,59.717,11.525z"/>
					<path style="fill:#FFFFFF;" d="M58.96,11.185c0.061,0.018,0.121,0.039,0.18,0.062l-5.458,6.711
						c0.009-0.105,0.018-0.209,0.027-0.313c0.018-0.17,0.036-0.336,0.059-0.5l4.901-6.029C58.766,11.134,58.863,11.155,58.96,11.185
						z"/>
					<path style="fill:#FFFFFF;" d="M58.464,11.087l-4.645,5.713c0.053-0.324,0.118-0.641,0.193-0.943l3.875-4.765
						C58.077,11.069,58.27,11.066,58.464,11.087z"/>
					<path style="fill:#FFFFFF;" d="M57.622,11.136l-3.497,4.303c0.131-0.453,0.284-0.877,0.457-1.272l2.197-2.702
						C57.052,11.312,57.333,11.2,57.622,11.136z"/>
					<path style="fill:#FFFFFF;" d="M56.256,11.827l-1.304,1.604C55.329,12.769,55.771,12.226,56.256,11.827z"/>
					<path style="fill:#FFFFFF;" d="M59.641,14.862c0.1,0.107,0.198,0.225,0.289,0.351"/>
					<path style="fill:#FFFFFF;" d="M55.584,20.56c-0.039-0.192-0.071-0.389-0.097-0.588"/>
					<path style="fill:#FFFFFF;" d="M59.163,14.462c0.121,0.079,0.239,0.171,0.352,0.275"/>
					<path style="fill:#FFFFFF;" d="M55.462,19.723c-0.021-0.22-0.031-0.441-0.034-0.667"/>
					<path style="fill:#FFFFFF;" d="M58.567,14.206c0.031,0.006,0.063,0.016,0.095,0.025c0.118,0.035,0.234,0.082,0.346,0.14"/>
					<path style="fill:#FFFFFF;" d="M55.43,18.772c0.004-0.201,0.016-0.406,0.037-0.609c0.005-0.056,0.012-0.11,0.018-0.164"/>
				</g>
				<path style="fill:none;stroke:#FFFFFF;stroke-width:0.5;" d="M59.376,27.385c-2.683,1.127-5.386-1.728-6.036-6.379
					c-0.651-4.65,0.996-9.334,3.68-10.462c2.683-1.127,5.386,1.728,6.036,6.379C63.708,21.574,62.06,26.256,59.376,27.385z"/>
				<path style="opacity:0.7;fill:#FFFFFF;" d="M58.737,22.816c-1.227,0.517-2.464-0.79-2.762-2.918
					c-0.298-2.127,0.456-4.27,1.685-4.785c1.226-0.517,2.463,0.79,2.761,2.915C60.718,20.156,59.966,22.302,58.737,22.816z"/>
				<path style="fill:#FFFFFF;" d="M58.404,20.436c-0.468,0.195-0.94-0.302-1.054-1.114c-0.114-0.812,0.174-1.629,0.643-1.826
					c0.467-0.197,0.938,0.3,1.053,1.114C59.161,19.419,58.873,20.236,58.404,20.436z"/>
			</g>
		</g>
		<rect x="57.951" y="18.752" style="fill:#FFFFFF;" width="0.495" height="95.308"/>
	</g>
	<g>
		<g>
			<path style="fill:none;stroke:#B3B3B3;stroke-width:0.25;" d="M40.95,170.677c18.217,16.529,40.715,4.333,50.25-27.238
				c9.535-31.571,2.499-70.56-15.718-87.089c-18.215-16.526-40.713-4.331-50.249,27.242C15.696,115.16,22.734,154.15,40.95,170.677z
				"/>
			
				<radialGradient id="SVGID_1_" cx="-123.4229" cy="-5454.1279" r="246.8875" gradientTransform="matrix(4.990900e-11 -1.1117 0.6414 2.879800e-11 3531.738 -181.5398)" gradientUnits="userSpaceOnUse">
				<stop  offset="0" style="stop-color:#FFFFFF"/>
				<stop  offset="0.0808" style="stop-color:#E6F1F6"/>
				<stop  offset="0.2532" style="stop-color:#A4CEDE"/>
				<stop  offset="0.5015" style="stop-color:#3D96B8"/>
				<stop  offset="0.5955" style="stop-color:#1480A9"/>
				<stop  offset="1" style="stop-color:#000000"/>
			</radialGradient>
			<path style="fill:url(#SVGID_1_);" d="M96.262,143.969c1.52-5.645,2.581-11.456,3.21-17.31l5.936,1.91
				c-0.72,6.703-1.935,13.359-3.678,19.826c-1.026,3.814-2.203,7.43-3.508,10.835l-5.024-5.797
				C94.338,150.459,95.365,147.301,96.262,143.969z M95.439,80.173l5.35-4.844c-0.854-2.838-1.804-5.592-2.847-8.251l-4.988,5.891
				C93.864,75.29,94.692,77.696,95.439,80.173z M72.788,181.201l2.059,9.832c2.81-1.766,5.526-3.995,8.104-6.649l-3.088-8.991
				C77.613,177.713,75.242,179.655,72.788,181.201z M21.788,146.856l-5.349,4.845c0.854,2.837,1.803,5.592,2.847,8.247l4.988-5.888
				C23.361,151.74,22.533,149.334,21.788,146.856z M81.646,53.573l3.347-8.705c-1.966-2.261-4.052-4.298-6.253-6.082
				c-6.345-5.129-13.006-7.628-19.578-7.751l-0.072,10.46c5.74,0.11,11.557,2.291,17.096,6.771
				C78.109,49.82,79.931,51.601,81.646,53.573z M97.942,67.078c-3.38-8.619-7.735-16.207-12.948-22.211l-3.347,8.705
				c4.554,5.242,8.355,11.872,11.307,19.396L97.942,67.078z M37.362,51.633l-3.088-8.989c-5.991,6.166-11.247,14.654-15.271,25.153
				l5.024,5.799C27.54,64.43,32.132,57.017,37.362,51.633z M44.439,45.827l-2.06-9.832c-2.81,1.769-5.524,3.994-8.104,6.649
				l3.088,8.989C39.615,49.314,41.985,47.371,44.439,45.827z M35.58,173.454l-3.346,8.708c1.966,2.263,4.051,4.299,6.253,6.08
				c6.344,5.133,13.005,7.629,19.578,7.754l0.069-10.462c-5.738-0.11-11.556-2.289-17.094-6.769
				C39.117,177.209,37.296,175.428,35.58,173.454z M17.753,100.369l-5.937-1.911c-1.976,18.392-0.226,37.13,4.622,53.243
				l5.349-4.845C17.555,132.789,16.026,116.426,17.753,100.369z"/>
			
				<radialGradient id="SVGID_2_" cx="-349.9003" cy="-5355.1396" r="242.078" gradientTransform="matrix(4.990900e-11 -1.1117 0.6414 2.879800e-11 3531.738 -181.5398)" gradientUnits="userSpaceOnUse">
				<stop  offset="0" style="stop-color:#FFFFFF"/>
				<stop  offset="0.1192" style="stop-color:#E6EDF1"/>
				<stop  offset="0.3713" style="stop-color:#A5C0CF"/>
				<stop  offset="0.5955" style="stop-color:#6795AD"/>
				<stop  offset="1" style="stop-color:#000000"/>
			</radialGradient>
			<path style="fill:url(#SVGID_2_);" d="M19.394,149.516c3.035,9.856,7.341,18.638,12.77,25.525l-2.322,5.484
				c-5.913-7.501-10.604-17.062-13.911-27.798L19.394,149.516z M93.717,158.664l3.164,4.024c1.405-3.322,2.684-6.868,3.82-10.629
				c3.272-10.831,5.028-22.343,5.402-33.803l-3.919-0.387c-0.343,10.523-1.956,21.089-4.959,31.034
				C96.181,152.357,95.005,155.612,93.717,158.664z M81.325,178.472l2.061,5.79c5.161-5.503,9.77-12.751,13.495-21.575l-3.164-4.024
				C90.296,166.764,86.064,173.421,81.325,178.472z M76.803,182.685l1.66,6.167c1.686-1.361,3.33-2.891,4.923-4.59l-2.061-5.79
				C79.864,180.031,78.354,181.437,76.803,182.685z M102.183,117.869l3.919,0.387c0.329-10.037-0.406-20.036-2.111-29.508
				l-3.748,2.027C101.811,99.47,102.484,108.652,102.183,117.869z M48.215,187.843l-0.893,6.627
				c10.593,4.294,21.558,2.098,31.141-5.618l-1.66-6.167C68.008,189.773,57.939,191.785,48.215,187.843z M84.268,51.988l2.322-5.485
				c-1.918-2.433-3.963-4.651-6.132-6.618c-3.677-3.336-7.488-5.763-11.348-7.328l-0.892,6.626c3.544,1.44,7.044,3.665,10.418,6.727
				C80.628,47.72,82.506,49.754,84.268,51.988z M100.243,90.775l3.748-2.027c-0.899-4.986-2.067-9.824-3.492-14.446l-3.462,3.209
				C98.346,81.756,99.42,86.197,100.243,90.775z M16.188,136.253l-3.748,2.028c0.898,4.985,2.067,9.825,3.491,14.446l3.463-3.21
				C18.086,145.271,17.013,140.83,16.188,136.253z M35.107,48.557l-2.061-5.792c-5.16,5.502-9.769,12.753-13.495,21.575l3.164,4.026
				C26.136,60.265,30.368,53.609,35.107,48.557z M14.25,109.159l-3.922-0.386c-0.327,10.035,0.406,20.035,2.113,29.507l3.748-2.028
				C14.621,127.555,13.949,118.376,14.25,109.159z M68.217,39.184l0.892-6.626c-10.591-4.293-21.558-2.101-31.139,5.621l1.658,6.167
				C48.424,37.259,58.493,35.242,68.217,39.184z"/>
			
				<radialGradient id="SVGID_3_" cx="-111.7924" cy="-5332.6201" r="285.7587" gradientTransform="matrix(4.990900e-11 -1.1117 0.6414 2.879800e-11 3531.738 -181.5398)" gradientUnits="userSpaceOnUse">
				<stop  offset="0" style="stop-color:#FFFFFF"/>
				<stop  offset="0.0808" style="stop-color:#E6F1F6"/>
				<stop  offset="0.2532" style="stop-color:#A4CEDE"/>
				<stop  offset="0.5015" style="stop-color:#3D96B8"/>
				<stop  offset="0.5955" style="stop-color:#1480A9"/>
				<stop  offset="1" style="stop-color:#000000"/>
			</radialGradient>
			<path style="fill:url(#SVGID_3_);" d="M103.899,101.991c-0.576-6.85-1.635-13.369-3.112-19.468l6.185-4.504
				c1.691,6.987,2.904,14.452,3.564,22.298c0.388,4.629,0.569,9.23,0.556,13.772l-6.708-0.072
				C104.397,110.051,104.239,106.033,103.899,101.991z M80.678,43.618l3.263-10.154c-1.792-1.732-3.644-3.288-5.548-4.653
				l-2.559,10.745C77.496,40.747,79.113,42.106,80.678,43.618z M95.205,161.384l5.374,6.955c1.988-4.614,3.724-9.551,5.186-14.746
				l-6.031-5.083C98.458,153.043,96.942,157.356,95.205,161.384z M35.755,183.413l-3.262,10.153
				c1.792,1.733,3.643,3.286,5.547,4.655l2.561-10.746C38.937,186.282,37.319,184.924,35.755,183.413z M58.505,33.497l0.043-11.62
				c-2.62-0.024-5.275,0.289-7.947,0.961c-7.697,1.945-14.764,6.669-20.91,13.5l3.619,9.791
				c5.365-5.968,11.535-10.094,18.256-11.789C53.9,33.751,56.217,33.479,58.505,33.497z M78.392,28.81
				c-6.174-4.432-12.889-6.876-19.844-6.934l-0.043,11.62c6.073,0.054,11.938,2.188,17.328,6.058L78.392,28.81z M16.698,78.519
				l-6.031-5.083c-3.392,12.058-5.287,25.5-5.328,39.503l6.707,0.071C12.083,100.784,13.738,89.047,16.698,78.519z M21.226,65.644
				l-5.373-6.953c-1.988,4.612-3.724,9.551-5.185,14.745l6.031,5.083C17.975,73.983,19.49,69.673,21.226,65.644z M57.926,193.531
				l-0.042,11.624c2.62,0.023,5.275-0.291,7.947-0.964c7.697-1.943,14.764-6.667,20.91-13.499l-3.618-9.789
				c-5.368,5.965-11.538,10.092-18.258,11.788C62.532,193.278,60.214,193.55,57.926,193.531z M15.644,144.509L9.46,149.01
				c4.637,19.169,12.859,34.72,23.033,44.556l3.262-10.153C26.872,174.823,19.692,161.246,15.644,144.509z"/>
			
				<radialGradient id="SVGID_4_" cx="-105.6205" cy="-5329.5059" r="297.2379" gradientTransform="matrix(4.990900e-11 -1.1117 0.6414 2.879800e-11 3531.738 -181.5398)" gradientUnits="userSpaceOnUse">
				<stop  offset="0" style="stop-color:#FFFFFF"/>
				<stop  offset="0.0808" style="stop-color:#E6F1F6"/>
				<stop  offset="0.2532" style="stop-color:#A4CEDE"/>
				<stop  offset="0.5015" style="stop-color:#3D96B8"/>
				<stop  offset="0.5955" style="stop-color:#1480A9"/>
				<stop  offset="1" style="stop-color:#000000"/>
			</radialGradient>
			<path style="opacity:0.3;fill:url(#SVGID_4_);" d="M16.014,153.63l-6.111,5.828c-1.311-4.142-2.461-8.501-3.43-13.072
				c-1.64-7.738-2.667-15.607-3.119-23.447l6.944-1.196c0.394,6.847,1.289,13.719,2.721,20.475
				C13.865,146.208,14.87,150.014,16.014,153.63z M20.825,61.023l-5.413-7.622c-1.35,2.879-2.597,5.892-3.741,9.017l5.888,6.48
				C18.556,66.174,19.645,63.543,20.825,61.023z M30.131,181.172l-4.061,9.832c2.821,3.49,5.822,6.514,8.958,9.023l2.925-10.974
				C35.214,186.862,32.594,184.223,30.131,181.172z M95.341,166.003l5.412,7.629c1.352-2.886,2.599-5.896,3.743-9.02l-5.888-6.482
				C97.611,160.855,96.521,163.487,95.341,166.003z M41.521,35.412c6.629-4.223,13.451-5.748,20.064-4.904l0.508-12.058
				c-7.573-0.968-15.385,0.78-22.979,5.618c-2.635,1.679-5.151,3.673-7.541,5.945l3.363,10.59
				C37.021,38.621,39.219,36.877,41.521,35.412z M20.825,61.023c3.823-8.166,8.573-15.156,14.111-20.42l-3.363-10.59
				C25.232,36.04,19.79,44.045,15.412,53.401L20.825,61.023z M100.153,73.399l6.111-5.828c-4.042-12.767-9.619-23.431-16.168-31.545
				l-4.061,9.831C91.755,52.937,96.623,62.249,100.153,73.399z M86.036,45.856l4.061-9.831c-2.822-3.493-5.821-6.515-8.958-9.026
				l-2.924,10.976C80.953,40.166,83.573,42.805,86.036,45.856z M74.644,191.616c-6.628,4.224-13.449,5.749-20.062,4.907
				l-0.508,12.057c7.573,0.97,15.386-0.781,22.978-5.617c2.635-1.68,5.151-3.674,7.542-5.946l-3.362-10.591
				C79.144,188.41,76.947,190.149,74.644,191.616z M98.609,158.13l5.888,6.482c6.489-17.731,9.559-39.012,8.317-60.524l-6.944,1.198
				C106.956,124.064,104.274,142.646,98.609,158.13z"/>
			
				<radialGradient id="SVGID_5_" cx="-171.196" cy="-5301.2949" r="241.3802" gradientTransform="matrix(4.990900e-11 -1.1117 0.6414 2.879800e-11 3531.738 -181.5398)" gradientUnits="userSpaceOnUse">
				<stop  offset="0" style="stop-color:#FFFFFF"/>
				<stop  offset="0.0778" style="stop-color:#E6EFF6"/>
				<stop  offset="0.2439" style="stop-color:#A4C5DE"/>
				<stop  offset="0.4831" style="stop-color:#3D83B9"/>
				<stop  offset="0.5955" style="stop-color:#0A62A7"/>
				<stop  offset="1" style="stop-color:#000000"/>
			</radialGradient>
			<path style="fill:url(#SVGID_5_);" d="M68.323,188.534l0.386,2.909c-10.039,3.996-20.753,2.234-30.351-5.581l0.732-2.707
				C48.334,190.682,58.653,192.379,68.323,188.534z M73.361,185.986l0.579,2.814c5.567-3.436,10.809-8.728,15.394-15.832
				l-1.148-2.231C83.771,177.581,78.722,182.679,73.361,185.986z M68.323,188.534l0.386,2.909c1.768-0.703,3.516-1.583,5.231-2.643
				l-0.579-2.814C71.707,187.006,70.025,187.855,68.323,188.534z M24.606,164.432l-1.286,1.991c1.544,2.993,3.236,5.828,5.075,8.466
				c3.116,4.472,6.465,8.125,9.964,10.974l0.732-2.707c-3.369-2.742-6.597-6.263-9.596-10.569
				C27.723,170.046,26.093,167.314,24.606,164.432z M13.385,119.744l-1.717,0.279c0.274,5.069,0.822,10.093,1.64,15.003l1.657-0.834
				C14.176,129.468,13.648,124.627,13.385,119.744z M13.106,91.141c-1.486,9.458-1.957,19.249-1.438,28.882l1.717-0.279
				c-0.5-9.275-0.049-18.708,1.384-27.813L13.106,91.141z M43.072,38.994l-0.58-2.815c-5.568,3.434-10.809,8.727-15.395,15.831
				l1.149,2.232C32.66,47.4,37.71,42.302,43.072,38.994z M48.109,36.447l-0.386-2.912c-1.768,0.705-3.515,1.586-5.231,2.644
				l0.58,2.815C44.723,37.973,46.407,37.123,48.109,36.447z M101.662,133.049l1.665,0.788c1.485-9.456,1.955-19.247,1.436-28.88
				l-1.715,0.276C103.547,114.51,103.094,123.944,101.662,133.049z M101.468,90.785l1.656-0.833
				c-1.896-11.396-5.25-22.162-10.012-31.395l-1.288,1.988C96.412,69.437,99.642,79.807,101.468,90.785z"/>
			
				<radialGradient id="SVGID_6_" cx="-356.2247" cy="-5489.6099" r="206.2293" fx="-374.7646" fy="-5496.4961" gradientTransform="matrix(4.990900e-11 -1.1117 0.6414 2.879800e-11 3531.738 -181.5398)" gradientUnits="userSpaceOnUse">
				<stop  offset="0" style="stop-color:#FFFFFF"/>
				<stop  offset="0.0778" style="stop-color:#E6EFF6"/>
				<stop  offset="0.2439" style="stop-color:#A4C5DE"/>
				<stop  offset="0.4831" style="stop-color:#3D83B9"/>
				<stop  offset="0.5955" style="stop-color:#0A62A7"/>
				<stop  offset="1" style="stop-color:#000000"/>
			</radialGradient>
			<path style="fill:url(#SVGID_6_);" d="M18.648,149.186l-0.74,0.669c-2.502-8.309-4.151-17.386-4.817-26.808l0.829-0.175
				C14.573,132.119,16.191,141.032,18.648,149.186z M23.203,161.368l-0.655,0.899c4.111,9.014,9.395,16.541,15.615,21.794
				l0.368-1.303C32.424,177.603,27.238,170.216,23.203,161.368z M31.951,49.411l0.482,1.183
				c8.007-9.773,17.803-14.901,27.872-14.005l0.042-1.447C50.089,34.231,40.109,39.453,31.951,49.411z M28.377,56.182l-0.558-1.078
				c-4.264,6.614-7.847,14.688-10.455,23.972l0.75,0.635C20.674,70.6,24.192,62.672,28.377,56.182z M92.902,65.72l0.655-0.9
				c-4.112-9.015-9.396-16.54-15.617-21.794l-0.366,1.301C83.68,49.483,88.867,56.869,92.902,65.72z M102.186,104.215l0.829-0.175
				c-0.668-9.421-2.315-18.5-4.816-26.808L97.458,77.9C99.913,86.055,101.53,94.966,102.186,104.215z M38.531,182.759l-0.368,1.303
				c2.017,1.703,4.134,3.17,6.341,4.37c3.739,2.032,7.514,3.177,11.253,3.511l0.043-1.444c-3.671-0.329-7.377-1.454-11.046-3.448
				C42.587,185.874,40.511,184.434,38.531,182.759z M97.991,147.376l0.75,0.637c0.983-3.498,1.829-7.164,2.522-10.989
				c1.993-11.017,2.513-22.223,1.752-32.984l-0.829,0.175c0.746,10.562,0.236,21.563-1.72,32.375
				C99.785,140.346,98.955,143.945,97.991,147.376z M83.67,176.494l0.483,1.181c1.437-1.754,2.817-3.654,4.132-5.692l-0.558-1.077
				C86.435,172.907,85.081,174.773,83.67,176.494z"/>
			
				<radialGradient id="SVGID_7_" cx="-327.968" cy="-5521.6113" r="206.4473" gradientTransform="matrix(4.990900e-11 -1.1117 0.6414 2.879800e-11 3531.738 -181.5398)" gradientUnits="userSpaceOnUse">
				<stop  offset="0" style="stop-color:#FFFFFF"/>
				<stop  offset="0.0778" style="stop-color:#E6EFF6"/>
				<stop  offset="0.2439" style="stop-color:#A4C5DE"/>
				<stop  offset="0.4831" style="stop-color:#3D83B9"/>
				<stop  offset="0.5955" style="stop-color:#0A62A7"/>
				<stop  offset="1" style="stop-color:#000000"/>
			</radialGradient>
			<path style="opacity:0.3;fill:url(#SVGID_7_);" d="M73.766,181.324l0.288,1.274c-4.76,3.221-9.85,4.976-15.027,5.092l-0.01-1.366
				C64.098,186.206,69.095,184.487,73.766,181.324z M80.837,175.156l0.421,1.157c5.308-5.768,9.929-13.598,13.414-23.187
				l-0.668-0.732C90.582,161.807,86.047,169.493,80.837,175.156z M21.048,149.433l0.69-0.662
				c-4.476-14.038-6.253-30.513-4.734-46.814l-0.779-0.215C14.679,118.35,16.487,135.132,21.048,149.433z M24.351,155.947
				l-0.64,0.798c3.148,7.62,7.158,14.28,11.92,19.48l0.422-1.154C31.377,169.965,27.44,163.429,24.351,155.947z M36.136,51.874
				l-0.419-1.16c-5.308,5.77-9.929,13.599-13.415,23.189l0.667,0.73C26.389,65.222,30.926,57.537,36.136,51.874z M57.955,40.706
				l-0.01-1.367c-5.175,0.117-10.266,1.87-15.026,5.093l0.288,1.271C47.878,42.542,52.875,40.821,57.955,40.706z M94.004,152.394
				l0.668,0.732c1.131-3.112,2.143-6.406,3.019-9.876c1.485-5.879,2.494-11.908,3.057-17.961l-0.78-0.217
				c-0.553,5.939-1.544,11.859-3,17.629C96.107,146.107,95.114,149.341,94.004,152.394z M80.921,51.959l0.421-1.157
				c-1.795-1.96-3.695-3.712-5.699-5.232c-5.766-4.376-11.788-6.366-17.698-6.232l0.01,1.367c5.802-0.134,11.712,1.824,17.372,6.118
				C77.293,48.315,79.16,50.036,80.921,51.959z M95.236,78.259l0.691-0.663c-0.804-2.52-1.693-4.961-2.663-7.313l-0.642,0.8
				C93.574,73.389,94.448,75.785,95.236,78.259z"/>
			<path style="fill:none;stroke:#808080;stroke-dasharray:2,3;" d="M40.18,173.225c19.028,17.262,42.528,4.523,52.489-28.453
				c9.96-32.978,2.609-73.703-16.418-90.967C57.225,36.543,33.724,49.28,23.763,82.258C13.802,115.234,21.153,155.962,40.18,173.225
				z"/>
			<path style="fill:none;stroke:#B3B3B3;stroke-width:0.75;" d="M12.072,64.776C-3.459,108.946,4.611,166.57,30.095,193.486
				c25.484,26.917,58.734,12.932,74.266-31.236c15.531-44.164,7.462-101.791-18.023-128.707
				C60.854,6.627,27.603,20.609,12.072,64.776z"/>
			<ellipse style="fill:#FFFFFF;" cx="79.494" cy="34.157" rx="0.941" ry="1.63"/>
			<ellipse style="fill:#FFFFFF;" cx="76.36" cy="31.876" rx="0.941" ry="1.63"/>
			<ellipse style="fill:#FFFFFF;" cx="34.538" cy="36.379" rx="0.94" ry="1.63"/>
		</g>
		<g>
			<path style="fill:none;stroke:#B3B3B3;stroke-width:0.25;" d="M86.327,105.143c-2.623-26.967-17.363-45.142-32.923-40.598
				c-15.559,4.548-26.046,30.094-23.423,57.061c2.622,26.964,17.362,45.142,32.923,40.595
				C78.463,157.655,88.951,132.111,86.327,105.143z"/>
			
				<radialGradient id="SVGID_8_" cx="-156.1029" cy="-5445.7563" r="190.4527" gradientTransform="matrix(4.990900e-11 -1.1117 0.6414 2.879800e-11 3531.738 -181.5398)" gradientUnits="userSpaceOnUse">
				<stop  offset="0" style="stop-color:#FFFFFF"/>
				<stop  offset="0.0808" style="stop-color:#E6F1F6"/>
				<stop  offset="0.2532" style="stop-color:#A4CEDE"/>
				<stop  offset="0.5015" style="stop-color:#3D96B8"/>
				<stop  offset="0.5955" style="stop-color:#1480A9"/>
				<stop  offset="1" style="stop-color:#000000"/>
			</radialGradient>
			<path style="fill:url(#SVGID_8_);" d="M51.242,58.938c-2.696,1.008-5.238,2.581-7.594,4.63l-2.081-7.174
				c2.699-2.347,5.61-4.149,8.7-5.304c1.822-0.681,3.642-1.112,5.449-1.311l0.286,8.013C54.424,57.966,52.835,58.342,51.242,58.938z
				 M29.124,89.411l-4.192-3.42c-0.604,2.222-1.135,4.507-1.588,6.843l4.391,2.551C28.131,93.347,28.595,91.347,29.124,89.411z
				 M75.267,66.531l2.512-6.743c-1.927-2.159-3.973-4.002-6.106-5.5l-1.738,7.44C71.797,63.036,73.582,64.647,75.267,66.531z
				 M86.816,136.495l4.19,3.419c0.605-2.219,1.137-4.502,1.59-6.842l-4.393-2.551C87.809,132.564,87.345,134.555,86.816,136.495z
				 M26.141,116.364l-4.624,0.495c0.114,3.131,0.363,6.287,0.756,9.444c1.133,9.102,3.344,17.318,6.349,24.339l3.724-4.78
				c-2.625-6.13-4.555-13.304-5.544-21.251C26.458,121.853,26.241,119.098,26.141,116.364z M23.344,92.834
				c-1.473,7.579-2.129,15.715-1.827,24.025l4.624-0.495c-0.264-7.256,0.31-14.36,1.594-20.979L23.344,92.834z M46.005,164.179
				l-1.739,7.441c4.955,3.484,10.387,5.117,15.957,4.509l-0.285-8.016C55.074,168.645,50.329,167.221,46.005,164.179z
				 M40.672,159.375l-2.512,6.743c1.927,2.159,3.972,4.001,6.105,5.502l1.739-7.441C44.142,162.869,42.356,161.261,40.672,159.375z
				 M89.798,109.542l4.624-0.495c-0.114-3.133-0.362-6.286-0.755-9.448c-1.134-9.1-3.345-17.315-6.351-24.338l-3.722,4.782
				c2.625,6.131,4.555,13.305,5.544,21.25C89.481,104.054,89.699,106.81,89.798,109.542z M72.292,162.339l2.081,7.176
				c7.404-6.438,13.201-16.988,16.634-29.601l-4.19-3.419C83.817,147.507,78.757,156.72,72.292,162.339z"/>
			
				<radialGradient id="SVGID_9_" cx="-330.1231" cy="-5369.23" r="185.7681" gradientTransform="matrix(4.990900e-11 -1.1117 0.6414 2.879800e-11 3531.738 -181.5398)" gradientUnits="userSpaceOnUse">
				<stop  offset="0" style="stop-color:#FFFFFF"/>
				<stop  offset="0.1192" style="stop-color:#E6EDF1"/>
				<stop  offset="0.3713" style="stop-color:#A5C0CF"/>
				<stop  offset="0.5955" style="stop-color:#6795AD"/>
				<stop  offset="1" style="stop-color:#000000"/>
			</radialGradient>
			<path style="fill:url(#SVGID_9_);" d="M88.865,137.798c2.069-7.789,3.167-16.425,3.078-25.374l3.011-0.082
				c0.099,9.745-1.099,19.15-3.35,27.635L88.865,137.798z M57.607,54.815l-0.049-5.22c-1.824,0.055-3.667,0.346-5.521,0.886
				c-5.338,1.56-10.214,5.04-14.428,9.962l1.681,4.333c3.87-4.518,8.347-7.714,13.248-9.147
				C54.239,55.133,55.932,54.867,57.607,54.815z M70.343,58.754l1.086-4.873c-4.336-2.914-9.031-4.431-13.871-4.285l0.049,5.22
				C62.051,54.682,66.363,56.078,70.343,58.754z M73.927,61.587l1.405-4.619c-1.262-1.156-2.564-2.188-3.903-3.088l-1.086,4.873
				C71.571,59.577,72.766,60.525,73.927,61.587z M39.289,64.776l-1.681-4.333c-3.693,4.308-6.879,9.724-9.429,15.929l2.454,3.027
				C32.974,73.705,35.901,68.731,39.289,64.776z M89.01,89.482l2.753-2.13c-3.4-13.214-9.263-23.813-16.431-30.383l-1.405,4.619
				C80.508,67.618,85.89,77.353,89.01,89.482z M24.366,114.323l-3.012,0.087c0.032,3.16,0.198,6.356,0.512,9.566
				c0.529,5.444,1.441,10.603,2.682,15.422l2.75-2.129c-1.137-4.424-1.976-9.163-2.462-14.159
				C24.548,120.16,24.396,117.225,24.366,114.323z M30.633,79.399l-2.454-3.027c-1.342,3.263-2.505,6.747-3.475,10.402l2.739,2.177
				C28.333,85.596,29.401,82.399,30.633,79.399z M85.675,147.348l2.455,3.03c1.341-3.267,2.507-6.75,3.475-10.402l-2.739-2.178
				C87.976,141.154,86.908,144.35,85.675,147.348z M45.965,167.996l-1.087,4.87c4.336,2.915,9.03,4.434,13.871,4.286l-0.048-5.219
				C54.257,172.067,49.946,170.672,45.965,167.996z M77.018,161.973l1.683,4.333c3.691-4.309,6.879-9.726,9.428-15.929l-2.455-3.03
				C83.335,153.042,80.408,158.015,77.018,161.973z M27.297,137.268l-2.75,2.129c3.399,13.212,9.261,23.81,16.43,30.382l1.406-4.618
				C35.801,159.131,30.418,149.399,27.297,137.268z"/>
			
				<radialGradient id="SVGID_10_" cx="-147.4118" cy="-5351.9595" r="219.2681" gradientTransform="matrix(4.990900e-11 -1.1117 0.6414 2.879800e-11 3531.738 -181.5398)" gradientUnits="userSpaceOnUse">
				<stop  offset="0" style="stop-color:#FFFFFF"/>
				<stop  offset="0.0808" style="stop-color:#E6F1F6"/>
				<stop  offset="0.2532" style="stop-color:#A4CEDE"/>
				<stop  offset="0.5015" style="stop-color:#3D96B8"/>
				<stop  offset="0.5955" style="stop-color:#1480A9"/>
				<stop  offset="1" style="stop-color:#000000"/>
			</radialGradient>
			<path style="fill:url(#SVGID_10_);" d="M32.893,70.325c-2.15,3.787-3.956,7.934-5.424,12.332l-4.458-4.465
				c1.68-5.032,3.75-9.783,6.211-14.122c1.452-2.56,2.992-4.886,4.6-6.978l3.087,7.138C35.506,66.058,34.162,68.089,32.893,70.325z
				 M23.08,122.011l-5.096,1.253c0.22,2.703,0.531,5.388,0.934,8.038l4.976-2.277C23.542,126.712,23.271,124.371,23.08,122.011z
				 M57.876,51.976l-0.041-8.919c-2.55,0.034-5.098,0.486-7.607,1.348l1.005,8.746C53.425,52.4,55.65,52.005,57.876,51.976z
				 M93.23,104.736l5.094-1.255c-0.219-2.701-0.531-5.383-0.932-8.035l-4.978,2.273C92.766,100.034,93.037,102.379,93.23,104.736z
				 M29.797,150.192l-4.119,5.35c1.207,2.786,2.55,5.453,4.027,7.972c4.257,7.253,9.201,12.547,14.463,15.887l1.774-8.375
				c-4.594-2.917-8.913-7.539-12.629-13.872C32.023,154.955,30.852,152.627,29.797,150.192z M18.917,131.302
				c1.302,8.597,3.555,16.844,6.761,24.24l4.119-5.35c-2.798-6.456-4.767-13.659-5.904-21.166L18.917,131.302z M65.075,173.597
				l1.006,8.747c5.826-2.002,11.446-6.231,16.404-12.686l-3.086-7.138C75.07,168.155,70.162,171.848,65.075,173.597z
				 M58.432,174.771l0.041,8.921c2.549-0.036,5.096-0.485,7.607-1.348l-1.006-8.747C62.884,174.348,60.658,174.743,58.432,174.771z
				 M86.511,76.555l4.12-5.35c-1.208-2.787-2.55-5.454-4.028-7.972c-4.257-7.251-9.201-12.547-14.463-15.888l-1.774,8.373
				c4.595,2.919,8.914,7.542,12.629,13.874C84.285,71.791,85.456,74.123,86.511,76.555z M88.838,144.093l4.458,4.464
				c4.61-13.807,6.278-29.735,5.027-45.076l-5.094,1.255C94.322,118.131,92.863,132.039,88.838,144.093z"/>
			
				<radialGradient id="SVGID_11_" cx="-142.8116" cy="-5349.3403" r="228.0606" gradientTransform="matrix(4.990900e-11 -1.1117 0.6414 2.879800e-11 3531.738 -181.5398)" gradientUnits="userSpaceOnUse">
				<stop  offset="0" style="stop-color:#FFFFFF"/>
				<stop  offset="0.0808" style="stop-color:#E6F1F6"/>
				<stop  offset="0.2532" style="stop-color:#A4CEDE"/>
				<stop  offset="0.5015" style="stop-color:#3D96B8"/>
				<stop  offset="0.5955" style="stop-color:#1480A9"/>
				<stop  offset="1" style="stop-color:#000000"/>
			</radialGradient>
			<path style="opacity:0.3;fill:url(#SVGID_11_);" d="M91.885,139.47l4.891,3.769c-0.852,3.31-1.856,6.553-3.018,9.7
				c-1.97,5.328-4.268,10.064-6.823,14.183l-3.643-6.802c2.232-3.593,4.24-7.73,5.959-12.384
				C90.263,145.19,91.141,142.359,91.885,139.47z M56.99,177.341l-0.178,9.272c1.644,0.094,3.285,0.019,4.917-0.22l-0.447-9.247
				C59.858,177.355,58.425,177.422,56.99,177.341z M95.048,111.734l5.353-0.26c-0.077-4.609-0.404-9.189-0.973-13.676L94.2,99.791
				C94.698,103.71,94.981,107.709,95.048,111.734z M59.443,49.69l0.177-9.274c-1.644-0.092-3.285-0.016-4.917,0.22l0.445,9.244
				C56.574,49.672,58.006,49.606,59.443,49.69z M38.353,167.301c-4.565-5.065-8.27-11.583-11.039-18.983l-4.49,5.058
				c3.173,8.472,7.415,15.937,12.644,21.737c1.815,2.013,3.686,3.754,5.596,5.23l2.175-8.475
				C41.573,170.577,39.938,169.058,38.353,167.301z M56.99,177.341c-4.654-0.26-9.325-2.052-13.75-5.473l-2.175,8.475
				c5.069,3.921,10.418,5.974,15.747,6.27L56.99,177.341z M24.547,87.561l-4.893-3.77c-2.626,10.205-3.801,21.062-3.623,31.766
				l5.352-0.26C21.226,105.95,22.251,96.471,24.547,87.561z M21.383,115.297l-5.352,0.26c0.077,4.607,0.403,9.187,0.973,13.675
				l5.227-1.991C21.733,123.32,21.449,119.32,21.383,115.297z M78.077,59.73c4.566,5.064,8.269,11.582,11.04,18.978l4.49-5.055
				c-3.173-8.474-7.416-15.936-12.644-21.736c-1.815-2.012-3.686-3.754-5.596-5.231l-2.176,8.475
				C74.859,56.453,76.493,57.974,78.077,59.73z M55.148,49.881l-0.445-9.244c-9.265,1.355-18.196,7.974-25.207,19.272l3.644,6.801
				C39.26,56.845,47.059,51.064,55.148,49.881z"/>
			
				<radialGradient id="SVGID_12_" cx="-193.8246" cy="-5328.7627" r="183.6702" gradientTransform="matrix(4.990900e-11 -1.1117 0.6414 2.879800e-11 3531.738 -181.5398)" gradientUnits="userSpaceOnUse">
				<stop  offset="0" style="stop-color:#FFFFFF"/>
				<stop  offset="0.0778" style="stop-color:#E6EFF6"/>
				<stop  offset="0.2439" style="stop-color:#A4C5DE"/>
				<stop  offset="0.4831" style="stop-color:#3D83B9"/>
				<stop  offset="0.5955" style="stop-color:#0A62A7"/>
				<stop  offset="1" style="stop-color:#000000"/>
			</radialGradient>
			<path style="fill:url(#SVGID_12_);" d="M79.924,67.86l0.848-1.762c6.067,8.781,10.417,20.95,12.114,34.747l-1.295,0.479
				C89.958,88.036,85.767,76.318,79.924,67.86z M76.688,63.704l0.724-1.921c-3.795-4.303-8.094-7.401-12.727-8.963l-0.253,2.252
				C68.893,56.575,73.034,59.558,76.688,63.704z M79.924,67.86l0.848-1.762c-1.069-1.546-2.191-2.987-3.36-4.315l-0.724,1.921
				C77.816,64.982,78.895,66.371,79.924,67.86z M91.707,125.355l1.3,0.44c0.34-3.025,0.555-6.134,0.631-9.307
				c0.133-5.372-0.133-10.615-0.752-15.643l-1.295,0.479c0.595,4.843,0.851,9.894,0.725,15.07
				C92.242,119.448,92.035,122.442,91.707,125.355z M81.154,157.976l0.893,1.692c1.662-2.643,3.179-5.555,4.531-8.698l-1.062-1.371
				C84.216,152.628,82.753,155.432,81.154,157.976z M71.194,171.545c4.025-2.814,7.698-6.858,10.853-11.877l-0.893-1.692
				c-3.041,4.836-6.578,8.733-10.454,11.44L71.194,171.545z M38.898,163.996l-0.724,1.919c3.793,4.305,8.093,7.403,12.726,8.963
				l0.255-2.25C46.692,171.124,42.551,168.141,38.898,163.996z M35.661,159.841l-0.847,1.759c1.069,1.548,2.19,2.988,3.36,4.315
				l0.724-1.919C37.77,162.718,36.69,161.331,35.661,159.841z M44.886,58.282l-0.494-2.127c-4.026,2.813-7.697,6.859-10.854,11.877
				l0.894,1.69C37.472,64.887,41.009,60.992,44.886,58.282z M30.068,78.099l-1.061-1.371c-3.139,7.301-5.381,15.85-6.428,25.176
				l1.298,0.44C24.885,93.363,27.044,85.129,30.068,78.099z"/>
			
				<radialGradient id="SVGID_13_" cx="-335.0418" cy="-5472.5039" r="157.7822" fx="-349.2263" fy="-5477.7725" gradientTransform="matrix(4.990900e-11 -1.1117 0.6414 2.879800e-11 3531.738 -181.5398)" gradientUnits="userSpaceOnUse">
				<stop  offset="0" style="stop-color:#FFFFFF"/>
				<stop  offset="0.0778" style="stop-color:#E6EFF6"/>
				<stop  offset="0.2439" style="stop-color:#A4C5DE"/>
				<stop  offset="0.4831" style="stop-color:#3D83B9"/>
				<stop  offset="0.5955" style="stop-color:#0A62A7"/>
				<stop  offset="1" style="stop-color:#000000"/>
			</radialGradient>
			<path style="fill:url(#SVGID_13_);" d="M89.095,138.742l0.58,0.472c-1.77,6.504-4.207,12.466-7.221,17.542l-0.447-0.794
				C84.967,150.976,87.36,145.128,89.095,138.742z M91.28,128.265l0.62,0.275c1.271-8.539,1.475-17.628,0.441-26.656l-0.63,0.214
				C92.727,110.964,92.528,119.881,91.28,128.265z M47.731,170.944l0.193-1.06c-7.162-3.949-13.515-11.947-17.872-23.029
				l-0.529,0.628C33.961,158.771,40.434,166.92,47.731,170.944z M51.778,171.587l-0.121,1.091c4.311,1.451,8.822,1.498,13.307-0.046
				l-0.125-1.088C60.437,173.058,56.009,173.008,51.778,171.587z M25.202,98.803l-0.621-0.275
				c-1.272,8.539-1.474,17.626-0.442,26.656l0.629-0.213C23.754,116.107,23.954,107.187,25.202,98.803z M34.474,71.109l-0.446-0.797
				c-3.015,5.078-5.453,11.035-7.222,17.54l0.58,0.475C29.122,81.94,31.515,76.094,34.474,71.109z M91.711,102.098l0.63-0.214
				c-0.337-2.927-0.8-5.85-1.4-8.746c-1.02-4.9-2.367-9.432-3.984-13.548l-0.528,0.625c1.586,4.039,2.909,8.489,3.908,13.301
				C90.928,96.357,91.383,99.225,91.711,102.098z M51.643,55.524l-0.124-1.091c-1.69,0.584-3.376,1.388-5.046,2.428
				c-4.811,3.001-9.004,7.65-12.446,13.45l0.446,0.797c3.378-5.693,7.494-10.258,12.216-13.201
				C48.329,56.886,49.984,56.094,51.643,55.524z M68.557,57.184l0.194-1.059c-1.286-0.707-2.597-1.288-3.926-1.735l-0.121,1.09
				C66.009,55.921,67.295,56.49,68.557,57.184z"/>
			
				<radialGradient id="SVGID_14_" cx="-313.0414" cy="-5497.4443" r="158.8876" gradientTransform="matrix(4.990900e-11 -1.1117 0.6414 2.879800e-11 3531.738 -181.5398)" gradientUnits="userSpaceOnUse">
				<stop  offset="0" style="stop-color:#FFFFFF"/>
				<stop  offset="0.0778" style="stop-color:#E6EFF6"/>
				<stop  offset="0.2439" style="stop-color:#A4C5DE"/>
				<stop  offset="0.4831" style="stop-color:#3D83B9"/>
				<stop  offset="0.5955" style="stop-color:#0A62A7"/>
				<stop  offset="1" style="stop-color:#000000"/>
			</radialGradient>
			<path style="opacity:0.3;fill:url(#SVGID_14_);" d="M74.856,65.437l0.315-0.896c3.345,3.548,6.325,8.128,8.768,13.557
				l-0.476,0.643C81.064,73.413,78.14,68.917,74.856,65.437z M69.399,60.809l0.214-0.985c-4.497-2.944-9.404-4.209-14.403-3.451
				l0.052,1.047C60.17,56.678,64.984,57.916,69.399,60.809z M88.069,136.083l-0.554-0.423c-2.874,11.254-7.86,20.781-14.314,26.736
				l0.285,0.926C80.062,157.254,85.141,147.552,88.069,136.083z M88.834,129.563l0.579,0.309c1.227-6.871,1.714-14.209,1.339-21.668
				l-0.603,0.088C90.518,115.614,90.039,122.817,88.834,129.563z M46.657,165.367l-0.214,0.983
				c4.498,2.945,9.403,4.208,14.404,3.452l-0.053-1.046C55.888,169.498,51.072,168.259,46.657,165.367z M32.595,147.434
				l-0.478,0.645c2.444,5.429,5.423,10.007,8.768,13.554l0.316-0.894C37.918,157.256,34.992,152.762,32.595,147.434z M55.262,57.42
				l-0.052-1.047c-1.621,0.247-3.254,0.703-4.883,1.386c-2.763,1.154-5.357,2.882-7.755,5.095l0.285,0.925
				c2.353-2.17,4.9-3.866,7.612-5.001C52.068,58.108,53.67,57.661,55.262,57.42z M25.909,117.881l-0.604,0.092
				c0.142,2.81,0.405,5.636,0.799,8.462c1.133,8.14,3.223,15.444,6.013,21.643l0.478-0.645c-2.739-6.085-4.791-13.255-5.902-21.243
				C26.306,123.417,26.047,120.642,25.909,117.881z M28.542,90.514l-0.554-0.426c-0.515,2.021-0.964,4.094-1.343,6.215l0.58,0.308
				C27.595,94.533,28.036,92.499,28.542,90.514z"/>
			<path style="fill:none;stroke:#808080;stroke-dasharray:2,3;" d="M87.583,104.776c-2.74-28.166-18.137-47.152-34.391-42.404
				c-16.252,4.748-27.207,31.432-24.467,59.599c2.74,28.169,18.137,47.151,34.39,42.403
				C79.368,159.628,90.322,132.944,87.583,104.776z"/>
			<path style="fill:none;stroke:#B3B3B3;stroke-width:0.75;" d="M62.375,184.872c22.785-4.039,39.365-39.326,37.035-78.814
				c-2.33-39.486-22.692-68.222-45.476-64.182C31.15,45.915,14.568,81.202,16.9,120.688C19.23,160.176,39.59,188.911,62.375,184.872
				z"/>
			<path style="fill:none;stroke:#B3B3B3;stroke-width:3;stroke-dasharray:4,4;" d="M76.164,108.11
				c-1.677-17.238-11.1-28.856-21.045-25.95c-9.947,2.907-16.651,19.237-14.974,36.473c1.676,17.241,11.1,28.858,21.044,25.952
				C71.138,141.681,77.841,125.352,76.164,108.11z"/>
			<path style="fill:#FFFFFF;" d="M20.866,126.897c-0.241-0.55-0.694-0.659-1.012-0.241c-0.317,0.418-0.379,1.204-0.138,1.752
				c0.241,0.551,0.693,0.659,1.012,0.24C21.044,128.232,21.107,127.446,20.866,126.897z"/>
			<path style="fill:#FFFFFF;" d="M21.516,131.274c-0.24-0.549-0.693-0.657-1.011-0.238c-0.317,0.416-0.379,1.203-0.138,1.752
				c0.241,0.549,0.693,0.658,1.01,0.24C21.695,132.61,21.756,131.825,21.516,131.274z"/>
			<path style="fill:#FFFFFF;" d="M42.509,173.493c-0.24-0.552-0.693-0.66-1.012-0.242c-0.317,0.419-0.379,1.203-0.138,1.753
				c0.241,0.55,0.694,0.657,1.011,0.24C42.688,174.828,42.749,174.041,42.509,173.493z"/>
		</g>
	</g>
</g>
</svg>
