<?xml version="1.0" encoding="iso-8859-1"?>
<!-- Generator: Adobe Illustrator 17.1.0, SVG Export Plug-In . SVG Version: 6.00 Build 0)  -->
<!DOCTYPE svg PUBLIC "-//W3C//DTD SVG 1.1//EN" "http://www.w3.org/Graphics/SVG/1.1/DTD/svg11.dtd">
<svg version="1.1" id="&#x56FE;&#x5C42;_1" xmlns="http://www.w3.org/2000/svg" xmlns:xlink="http://www.w3.org/1999/xlink" x="0px"
	 y="0px" viewBox="0 0 255.118 345.827" style="enable-background:new 0 0 255.118 345.827;" xml:space="preserve">
<g id="Group-36_1_" transform="translate(54.000000, 315.000000)">
	<g id="Path-44_2_" transform="translate(0.000000, 47.908629)">
		<g id="Mask_4_">
			<path id="path-7_41_" style="fill:#83CDDF;" d="M101.433-85.562c-4.109-69.78-25.622-115.155-64.541-136.125
				s-68.717-25.331-89.395-13.082c2.064,33.177,6.723,49.225,32.036,47.672c37.969-2.329,27.902,17.568,12.918,27.902
				c-19.529,13.468,54.092,4.818,55.288,29.452C52.251-117,90.109-120.441,101.433-85.562z"/>
		</g>
		<defs>
			<filter id="Adobe_OpacityMaskFilter" filterUnits="userSpaceOnUse" x="0.552" y="-249.802" width="144.525" height="176.043">
				<feColorMatrix  type="matrix" values="1 0 0 0 0  0 1 0 0 0  0 0 1 0 0  0 0 0 1 0"/>
			</filter>
		</defs>
		<mask maskUnits="userSpaceOnUse" x="0.552" y="-249.802" width="144.525" height="176.043" id="mask-8_10_">
			<g style="filter:url(#Adobe_OpacityMaskFilter);">
				<path id="path-7_10_" style="fill:#FFFFFF;" d="M101.433-85.562c-4.109-69.78-25.622-115.155-64.541-136.125
					s-68.717-25.331-89.395-13.082c2.064,33.177,15.752,48.99,41.065,47.437c37.969-2.329,34.203,2.504,23.706,23.779
					s42.301,8.846,49.069,27.96C65.848-122.851,79.214-106.174,101.433-85.562z"/>
			</g>
		</mask>
		<path style="mask:url(#mask-8_10_);fill:#357FC3;" d="M107.219-189.218C47.24-244.612,11.684-262.02,0.552-241.441
			c39.874,34.377,66.46,85.08,79.757,152.111c36.256,16.27,57.276,19.79,63.06,10.56c5.784-9.23-3.127-27.346-26.733-54.347
			L107.219-189.218z"/>
		<defs>
			
				<filter id="Adobe_OpacityMaskFilter_1_" filterUnits="userSpaceOnUse" x="-48.745" y="-236.338" width="144.968" height="141.356">
				<feColorMatrix  type="matrix" values="1 0 0 0 0  0 1 0 0 0  0 0 1 0 0  0 0 0 1 0"/>
			</filter>
		</defs>
		<mask maskUnits="userSpaceOnUse" x="-48.745" y="-236.338" width="144.968" height="141.356" id="mask-8_9_">
			<g style="filter:url(#Adobe_OpacityMaskFilter_1_);">
				<path id="path-7_9_" style="fill:#FFFFFF;" d="M101.433-85.562c-4.109-69.78-25.622-115.155-64.541-136.125
					s-68.717-25.331-89.395-13.082c2.064,33.177,15.752,48.99,41.065,47.437c37.969-2.329,34.203,2.504,23.706,23.779
					s42.301,8.846,49.069,27.96C65.848-122.851,79.214-106.174,101.433-85.562z"/>
			</g>
		</mask>
		<path id="Path-38_4_" style="mask:url(#mask-8_9_);fill:none;stroke:#2F2C48;stroke-miterlimit:10;" d="M95.731-95.073
			c-18.563-100.194-66.707-146.9-144.433-140.12"/>
		<defs>
			<filter id="Adobe_OpacityMaskFilter_2_" filterUnits="userSpaceOnUse" x="-18.561" y="-223.022" width="44.043" height="10.435">
				<feColorMatrix  type="matrix" values="1 0 0 0 0  0 1 0 0 0  0 0 1 0 0  0 0 0 1 0"/>
			</filter>
		</defs>
		<mask maskUnits="userSpaceOnUse" x="-18.561" y="-223.022" width="44.043" height="10.435" id="mask-8_8_">
			<g style="filter:url(#Adobe_OpacityMaskFilter_2_);">
				<path id="path-7_8_" style="fill:#FFFFFF;" d="M101.433-85.562c-4.109-69.78-25.622-115.155-64.541-136.125
					s-68.717-25.331-89.395-13.082c2.064,33.177,15.752,48.99,41.065,47.437c37.969-2.329,34.203,2.504,23.706,23.779
					s42.301,8.846,49.069,27.96C65.848-122.851,79.214-106.174,101.433-85.562z"/>
			</g>
		</mask>
		<path id="Path-45_4_" style="mask:url(#mask-8_8_);fill:none;stroke:#2F2C48;stroke-miterlimit:10;" d="M25.415-221.819
			c-16.301-2.192-30.871,0.744-43.71,8.809"/>
		<defs>
			<filter id="Adobe_OpacityMaskFilter_3_" filterUnits="userSpaceOnUse" x="21.415" y="-190.684" width="38.279" height="8.567">
				<feColorMatrix  type="matrix" values="1 0 0 0 0  0 1 0 0 0  0 0 1 0 0  0 0 0 1 0"/>
			</filter>
		</defs>
		<mask maskUnits="userSpaceOnUse" x="21.415" y="-190.684" width="38.279" height="8.567" id="mask-8_7_">
			<g style="filter:url(#Adobe_OpacityMaskFilter_3_);">
				<path id="path-7_7_" style="fill:#FFFFFF;" d="M101.433-85.562c-4.109-69.78-25.622-115.155-64.541-136.125
					s-68.717-25.331-89.395-13.082c2.064,33.177,15.752,48.99,41.065,47.437c37.969-2.329,34.203,2.504,23.706,23.779
					s42.301,8.846,49.069,27.96C65.848-122.851,79.214-106.174,101.433-85.562z"/>
			</g>
		</mask>
		<path id="Path-46_4_" style="mask:url(#mask-8_7_);fill:none;stroke:#2F2C48;stroke-miterlimit:10;" d="M59.623-189.726
			c-10.842-1.551-23.511,0.833-38.009,7.15"/>
		<defs>
			<filter id="Adobe_OpacityMaskFilter_4_" filterUnits="userSpaceOnUse" x="72.426" y="-184.954" width="6.352" height="15.7">
				<feColorMatrix  type="matrix" values="1 0 0 0 0  0 1 0 0 0  0 0 1 0 0  0 0 0 1 0"/>
			</filter>
		</defs>
		<mask maskUnits="userSpaceOnUse" x="72.426" y="-184.954" width="6.352" height="15.7" id="mask-8_6_">
			<g style="filter:url(#Adobe_OpacityMaskFilter_4_);">
				<path id="path-7_5_" style="fill:#FFFFFF;" d="M101.433-85.562c-4.109-69.78-25.622-115.155-64.541-136.125
					s-68.717-25.331-89.395-13.082c2.064,33.177,15.752,48.99,41.065,47.437c37.969-2.329,34.203,2.504,23.706,23.779
					s42.301,8.846,49.069,27.96C65.848-122.851,79.214-106.174,101.433-85.562z"/>
			</g>
		</mask>
		<path id="Path-47_4_" style="mask:url(#mask-8_6_);fill:none;stroke:#2F2C48;stroke-miterlimit:10;" d="M72.93-169.26
			c-0.1-8.917,1.799-13.989,5.698-15.218"/>
	</g>
	
		<g id="Group-10_1_" transform="translate(61.650385, 53.734919) rotate(14.000000) translate(-61.650385, -53.734919) translate(26.150385, 7.234919)">
		<path id="Combined-Shape_8_" style="fill:#83CDDF;" d="M51.632-51.736c-25.588-73.819-81.908-103.189-77.027-129.078
			c3.898-20.675,19.805-0.291,21.384-7.195c1.578-6.904-49.889-100.724-0.394-90.165c37.498,7.999,13.441-50.746,83.022-59.865
			c-14.816,8.778-19.639,22.853,14.596,69.075s-10.988,67.719-13.015,84.712s51.111-27.258,38.885,27.591
			C109.784-114.935,58.655-131.805,51.632-51.736z"/>
		<path id="Path-117_3_" style="fill:none;stroke:#2F2C48;stroke-miterlimit:10;" d="M52.782-51.7
			c-22.69-94.995-21.175-178.339,4.545-250.033"/>
		<path id="Path-118_3_" style="fill:none;stroke:#2F2C48;stroke-miterlimit:10;" d="M36.039-174.967
			c7.311-14.09,23.46-28.173,48.447-42.247"/>
		<path id="Path-119_3_" style="fill:none;stroke:#2F2C48;stroke-miterlimit:10;" d="M41.073-122.285
			c-14.102-30.755-34.1-45.62-59.995-44.596"/>
		<path id="Path-120_3_" style="fill:none;stroke:#2F2C48;stroke-miterlimit:10;" d="M48.209-271.704l17.808-10.836"/>
		<path id="Path-82_3_" style="fill:none;stroke:#2F2C48;stroke-miterlimit:10;" d="M15.03-246.265
			c14.023,12.258,21.856,24.864,23.5,37.819"/>
	</g>
	<polygon id="Rectangle-48_3_" style="fill:#2A99D6;" points="57.723,-47.164 137.541,-47.164 125.502,30.827 69.762,30.827 	"/>
	<path id="Combined-Shape_7_" style="fill:#2960A4;" d="M131.668-9.12l5.873-38.044H57.723L63.596-9.12H131.668z"/>
</g>
</svg>
