<?xml version="1.0" encoding="iso-8859-1"?>
<!-- Generator: Adobe Illustrator 17.1.0, SVG Export Plug-In . SVG Version: 6.00 Build 0)  -->
<!DOCTYPE svg PUBLIC "-//W3C//DTD SVG 1.1//EN" "http://www.w3.org/Graphics/SVG/1.1/DTD/svg11.dtd">
<svg version="1.1" id="&#x56FE;&#x5C42;_1" xmlns="http://www.w3.org/2000/svg" xmlns:xlink="http://www.w3.org/1999/xlink" x="0px"
	 y="0px" viewBox="0 0 249.449 286.299" style="enable-background:new 0 0 249.449 286.299;" xml:space="preserve">
<g>
	<g>
		<g id="Group-75-Copy-3_1_" transform="translate(91.236641, 180.597938)">
			<polygon id="Path-98_1_" style="fill:#C9E4C2;" points="17.612,-1.127 21.541,-38.172 36.818,-38.172 39.018,-1.127 			"/>
			<path id="Combined-Shape_10_" style="fill:#123671;" d="M26.041-133.116l-7.535-36.529h19.619l-7.535,36.529h-0.543v91.323h9.799
				c0.962,0,1.742,0.767,1.742,1.712s-0.78,1.712-1.742,1.712h-23.06l0,0c-0.962,0-1.742-0.767-1.742-1.712l0,0l0,0
				c0-0.946,0.78-1.712,1.742-1.712l0,0h9.799v-91.323H26.041z M18.506-0.698h19.619l-3.2,7.991H21.706L18.506-0.698z
				 M15.044-178.778h26.543v6.849H15.044V-178.778z"/>
			<path id="Rectangle-55_1_" style="fill:#123671;" d="M20.104-3.152h16.422l-3.081-32.995h-10.26L20.104-3.152z M18.975-40.698
				h18.681l3.931,42.097H15.044L18.975-40.698z"/>
		</g>
		<g>
			
				<linearGradient id="Path-76_1_" gradientUnits="userSpaceOnUse" x1="-433.4869" y1="546.4361" x2="-433.4869" y2="545.1268" gradientTransform="matrix(-139.5903 0 0 -73.0275 -60397.4219 40047.6797)">
				<stop  offset="0" style="stop-color:#F1F8F2;stop-opacity:0.4727"/>
				<stop  offset="1" style="stop-color:#DEEFE1;stop-opacity:0"/>
			</linearGradient>
			<polygon id="Path-76_4_" style="fill:url(#Path-76_1_);" points="131.712,142.801 224.662,257.518 1.634,257.518 105.09,142.801 
							"/>
		</g>
	</g>
	<g>
		<g>
			<g>
				<path style="fill:#FFFFFF;" d="M94.452,222.452v-7.988h-3.659v-1.954h3.659v-0.793h4.783v0.793h2.392v1.954h-2.392v7.224
					l2.392-0.369v2.012l-2.392,0.397v11.983h-8.442v-1.955h3.659v-9.264l-3.659,0.567v-2.04L94.452,222.452z M117.674,211.801
					v23.909H102.98v-1.926h9.911v-9.122h-9.911v-1.926h9.911v-9.008h-9.911v-1.926H117.674z"/>
				<path style="fill:#FFFFFF;" d="M124.761,225.256v-5.043h-5.157v-1.926h5.157v-3.824h-5.157v-1.954h8.96v-0.793h4.725v2.747
					h-3.774v3.824h5.273l-0.461-6.571h4.61l0.49,6.571h7.145v1.926h-7.001l0.576,7.365l1.901-0.368v-4.873h4.437v6.062l-6.166,1.19
					l0.317,4.193h5.935v1.954h-10.487l-0.403-5.268l-3.486,0.651v-2.039l3.342-0.623l-0.605-8.244h-5.417v4.221l3.573-0.651v2.012
					l-3.573,0.651v9.291h-9.911v-1.954h5.157v-6.488l-5.157,0.906v-2.039L124.761,225.256z M146.457,217.041h-4.322v-5.325h4.322
					V217.041z"/>
			</g>
			<g>
				<g>
					<path style="fill:#FFFFFF;" d="M110.99,256.477v2.464H96.123v7.394h14.867v12.35H91.369v-2.493h14.867l-0.029-7.393H91.369
						v-12.323H110.99z"/>
					<path style="fill:#FFFFFF;" d="M116.982,263.048l3.573,10.935l2.967-10.935h3.227l2.939,10.963l3.544-10.963h4.235
						l-5.187,15.637h-4.61l-2.506-9.093l-2.593,9.093h-4.581l-5.272-15.637H116.982z"/>
					<path style="fill:#FFFFFF;" d="M154.697,263.048v9.094h-10.545v4.108h10.574v2.436h-15.184v-15.637H154.697z M144.151,269.706
						h5.936v-4.25h-5.936V269.706z"/>
					<path style="fill:#FFFFFF;" d="M173.107,263.048v9.094h-10.545v4.108h10.574v2.436h-15.184v-15.637H173.107z M162.562,269.706
						h5.936v-4.25h-5.936V269.706z"/>
					<path style="fill:#FFFFFF;" d="M191.431,263.048l-0.058,15.637h-10.545v6.6h-4.581l0.058-22.237H191.431z M180.828,276.249
						h5.936l0.058-10.793h-5.964L180.828,276.249z"/>
					<path style="fill:#FFFFFF;" d="M229.116,263.048v15.637h-4.61v-13.229h-5.503v13.229h-4.494v-13.229h-5.503v13.229h-4.61
						v-15.637H229.116z"/>
					<path style="fill:#FFFFFF;" d="M247.786,263.048v9.094h-10.545v4.108h10.573v2.436h-15.184v-15.637H247.786z M237.241,269.706
						h5.935v-4.25h-5.935V269.706z"/>
				</g>
			</g>
		</g>
	</g>
</g>
</svg>
