<?xml version="1.0" encoding="iso-8859-1"?>
<!-- Generator: Adobe Illustrator 17.1.0, SVG Export Plug-In . SVG Version: 6.00 Build 0)  -->
<!DOCTYPE svg PUBLIC "-//W3C//DTD SVG 1.1//EN" "http://www.w3.org/Graphics/SVG/1.1/DTD/svg11.dtd">
<svg version="1.1" id="&#x56FE;&#x5C42;_1" xmlns="http://www.w3.org/2000/svg" xmlns:xlink="http://www.w3.org/1999/xlink" x="0px"
	 y="0px" viewBox="0 0 442.205 379.843" style="enable-background:new 0 0 442.205 379.843;" xml:space="preserve">
<g>
	<g>
		<rect x="102.478" y="55.728" style="fill:#2A99D6;" width="339.726" height="10.806"/>
		<rect x="102.075" y="124.074" style="fill:#2A99D6;" width="339.837" height="10.806"/>
		<rect x="116.392" y="66.534" style="fill:#2A99D6;" width="5.673" height="57.54"/>
		<rect x="160.965" y="66.534" style="fill:#2A99D6;" width="5.673" height="57.54"/>
		<rect x="205.539" y="66.534" style="fill:#2A99D6;" width="5.673" height="57.54"/>
		<rect x="250.112" y="66.534" style="fill:#2A99D6;" width="5.673" height="57.54"/>
		<rect x="294.685" y="66.534" style="fill:#2A99D6;" width="5.673" height="57.54"/>
		<rect x="339.258" y="66.534" style="fill:#2A99D6;" width="5.673" height="57.54"/>
		<rect x="383.832" y="66.534" style="fill:#2A99D6;" width="5.673" height="57.54"/>
		<rect x="102.478" y="134.88" style="fill:#2A99D6;" width="339.726" height="48.896"/>
	</g>
	<g id="Group-92-Copy_1_" transform="translate(92.000000, 130.000000)">
		<g id="Group-90_1_" transform="translate(0.000000, 137.733728)">
			<path id="Rectangle-61_1_" style="opacity:0.5;fill:#82CDDF;" d="M-83.56,34.118H32.832c1.821,0,3.298,1.476,3.298,3.298v69.519
				c0,1.821-1.476,3.298-3.298,3.298H-83.56c-1.821,0-3.298-1.476-3.298-3.298V37.416C-86.858,35.595-85.381,34.118-83.56,34.118z"
				/>
			<path id="Combined-Shape_9_" style="fill:#FFFFFF;" d="M-68.423,43.939h0.027l0,0c4.068,0,7.366,3.298,7.366,7.366l0,0
				c0,4.068-3.298,7.366-7.366,7.366h-0.027l0,0c-4.068,0-7.366-3.298-7.366-7.366S-72.491,43.939-68.423,43.939L-68.423,43.939z
				 M-52.421,50.078h77.482v3.683h-77.482V50.078z"/>
			<path id="Combined-Shape-Copy-3_1_" style="fill:#FFFFFF;" d="M-68.423,64.809h0.027l0,0c4.068,0,7.366,3.298,7.366,7.366l0,0
				c0,4.068-3.298,7.366-7.366,7.366h-0.027l0,0c-4.068,0-7.366-3.298-7.366-7.366C-75.789,68.107-72.491,64.809-68.423,64.809
				L-68.423,64.809z M-52.421,70.948h77.482v3.683h-77.482V70.948z"/>
			<path id="Combined-Shape-Copy-4_1_" style="fill:#FFFFFF;" d="M-68.423,85.68h0.027l0,0c4.068,0,7.366,3.298,7.366,7.366l0,0
				c0,4.068-3.298,7.366-7.366,7.366h-0.027l0,0c-4.068,0-7.366-3.298-7.366-7.366l0,0l0,0
				C-75.789,88.977-72.491,85.68-68.423,85.68L-68.423,85.68z M-52.421,91.818h77.482v3.683h-77.482V91.818z"/>
		</g>
		
			<g id="Group-91_1_" transform="translate(142.360294, 69.233728) scale(1, -1) translate(-142.360294, -69.233728) translate(56.860294, 0.733728)">
			<polyline id="Path-95_1_" style="fill:none;stroke:#1283C3;stroke-width:2;stroke-miterlimit:10;" points="-82.348,-18.773 
				-82.348,96.013 -53.066,96.013 			"/>
			<g id="Group-40_1_">
				<ellipse id="Oval-14_1_" style="fill:#1283C3;" cx="-81.967" cy="-26.495" rx="3.335" ry="-3.329"/>
				
					<ellipse id="Oval-14-Copy_1_" style="fill:none;stroke:#1283C3;stroke-width:2;stroke-miterlimit:10;" cx="-81.967" cy="-26.495" rx="7.312" ry="-7.298"/>
			</g>
		</g>
	</g>
	<g>
		<path style="fill:#FEF5F8;" d="M192.336,63.384c0,0,2.518,0.979,2.238,2.238c-0.28,1.259-1.399,3.217-3.078,3.637
			s-2.798-0.979-2.938-1.819S190.938,65.483,192.336,63.384z"/>
		<g>
			<path style="fill:#302D48;" d="M228.237,64.517c0,0,0.94,16.17-0.376,25.195s-3.196,25.195-3.008,28.58h-5.265
				c0,0,0.94-21.999,0.752-27.452c-0.188-5.453,0.188-24.443-0.752-26.323C218.648,62.637,228.237,64.517,228.237,64.517z"/>
			<path style="fill:#302D48;" d="M219.588,118.292c0,0-1.692,3.196,0.564,4.137c3.574,1.489,7.874,0.963,8.649,0.188
				c0.752-0.752-3.76-2.068-4.701-3.196c-0.94-1.128,0-3.76,0-3.76h-2.82L219.588,118.292z"/>
			<path style="fill:#302D48;" d="M217.52,62.261c0,0-1.446,17.689-3.76,26.511c-3.008,11.469-17.674,25.383-17.486,28.768h-5.265
				c0,0,10.153-18.614,13.914-29.332c1.806-5.148,2.068-22.375,2.82-25.007C208.32,61.179,217.52,62.261,217.52,62.261z"/>
			<path style="fill:#302D48;" d="M191.008,117.54c-0.13,1.036,1.207,1.778,0.564,4.137c-0.564,2.068,3.549,2.467,4.325,1.692
				c0.752-0.752,0.94-2.256,0.376-4.137c-0.422-1.407,0.564-3.196,0.564-3.196l-4.137-1.128
				C192.7,114.907,191.106,116.763,191.008,117.54z"/>
		</g>
		<path style="fill:#FEF5F8;" d="M267.741,32.752c0,0,1.539-0.42,1.679-1.259s0.28-2.098,0.979-2.378c0,0,0.699,0.56,0.56,1.399
			c-0.14,0.839,2.798-0.28,3.637-1.119c0.839-0.839,0.699,1.399-1.399,2.938c-2.098,1.539-2.378,1.958-3.777,2.658
			C268.02,35.69,267.741,32.752,267.741,32.752z"/>
		<path style="fill:#302D48;" d="M267.816,31.707l2.632,3.008c0,0-4.513,9.213-14.478,10.153c-9.965,0.94-16.358-4.889-17.486-6.581
			c-1.128-1.692-0.564,2.632-1.316,6.769s-5.077,19.178-5.077,20.871h-30.648c0,0,4.969-9.837,6.017-14.29
			c1.504-6.393,1.692-17.11,1.316-18.802c-0.376-1.692-7.521,7.897-8.837,10.717c-1.316,2.82-5.641,18.614-5.077,20.871h-3.76
			c0,0-1.128-17.298,3.572-26.135c4.701-8.837,13.162-19.931,17.862-21.623c4.701-1.692,11.281-0.752,12.41-0.94
			c1.128-0.188,6.393,1.316,10.905,2.82c4.513,1.504,5.829,10.341,7.897,12.222c1.278,1.162,2.915,4.262,5,6.328
			c1.289,1.278,2.749,2.16,4.402,1.945C257.475,38.476,264.62,36.971,267.816,31.707z"/>
		<path style="fill:#FEF5F8;" d="M236.125,3.655c0,0,2.846,1.092,2.658,4.476c-0.188,3.384-1.626,6.185-2.378,8.254
			c-0.575,1.58-3.28-0.378-4.22,1.126s-0.752,3.384-3.008,1.88c-1.837-1.225-2.46-2.037-2.256-3.76
			c0.046-0.393,0.376-1.316,0.376-1.88c0-2.378,0.94-5.265,2.256-5.641c1.316-0.376,1.504,0.752,2.068,0
			S231.801,4.219,236.125,3.655z"/>
		<path style="fill:#232134;" d="M235.946,2.657c0,0-3.384-1.692-5.923-0.094c-2.485,1.565-5.077,6.205-4.701,8.085
			c0.376,1.88-0.066,3.35,1.504,3.008c2.162-0.47,0.424-2.966,1.622-4.303c1.198-1.338,2.42,0.449,3.36-1.056
			c0.94-1.504,1.504-3.008,3.102-3.478C237.084,4.18,237.826,3.409,235.946,2.657z"/>
		<path style="fill:#C52069;" d="M228.895,18.921c0,0,1.692,20.871,0.94,26.511c-0.752,5.641-0.376,14.478,0.94,16.734
			c1.316,2.256,1.88,3.384,1.88,3.384s1.692-3.572,1.504-6.205c-0.188-2.632-0.752-12.41-0.752-17.11s-1.504-21.247-1.88-22.375
			C231.151,18.733,228.895,18.921,228.895,18.921z"/>
		<path style="fill:#C52069;" d="M226.921,15.631c0,0,0.564,2.444,1.88,3.196c1.316,0.752-0.037,1.398-0.037,1.398
			s-1.272,0.747-1.88-0.527C226.275,18.425,226.733,16.195,226.921,15.631z"/>
		<path style="fill:#C52069;" d="M232.373,17.323c-0.188-0.188-0.468,0.903-1.128,1.504c-1.12,1.021-0.752,0.94-0.752,0.94
			s1.167,1.567,1.815,0.485C232.873,19.312,232.561,17.511,232.373,17.323z"/>
		<path style="fill:#302D48;" d="M236.965,7.432c0,0-0.699-0.839-2.798,0.14C234.167,7.572,235.426,7.292,236.965,7.432z"/>
		<path style="fill:#302D48;" d="M236.965,8.831c0,0-0.699-0.839-2.518,0.42c0,0,0.507,0.21,1.119,0.14S236.895,8.971,236.965,8.831
			z"/>
		
			<ellipse transform="matrix(0.9176 0.3974 -0.3974 0.9176 22.9045 -93.1669)" style="opacity:0.7;fill:#FFFDFE;" cx="236.233" cy="8.677" rx="0.245" ry="0.406"/>
		<defs>
			<filter id="Adobe_OpacityMaskFilter" filterUnits="userSpaceOnUse" x="236.298" y="8.677" width="0.265" height="0.286">
				<feColorMatrix  type="matrix" values="1 0 0 0 0  0 1 0 0 0  0 0 1 0 0  0 0 0 1 0"/>
			</filter>
		</defs>
		<mask maskUnits="userSpaceOnUse" x="236.298" y="8.677" width="0.265" height="0.286" id="SVGID_1_">
			<g style="filter:url(#Adobe_OpacityMaskFilter);">
				
					<ellipse transform="matrix(0.9176 0.3974 -0.3974 0.9176 22.9045 -93.1669)" style="fill:#FFFDFE;" cx="236.233" cy="8.677" rx="0.245" ry="0.406"/>
			</g>
		</mask>
		
			<ellipse transform="matrix(0.9176 0.3974 -0.3974 0.9176 22.9776 -93.2337)" style="mask:url(#SVGID_1_);fill:#FFFDFE;" cx="236.431" cy="8.82" rx="0.13" ry="0.145"/>
		<circle style="opacity:0.9;fill:#FFFDFE;" cx="235.411" cy="9.389" r="0.187"/>
	</g>
</g>
</svg>
