<?xml version="1.0" encoding="iso-8859-1"?>
<!-- Generator: Adobe Illustrator 17.1.0, SVG Export Plug-In . SVG Version: 6.00 Build 0)  -->
<!DOCTYPE svg PUBLIC "-//W3C//DTD SVG 1.1//EN" "http://www.w3.org/Graphics/SVG/1.1/DTD/svg11.dtd">
<svg version="1.1" id="&#x56FE;&#x5C42;_1" xmlns="http://www.w3.org/2000/svg" xmlns:xlink="http://www.w3.org/1999/xlink" x="0px"
	 y="0px" viewBox="0 0 539.83 538.583" style="enable-background:new 0 0 539.83 538.583;" xml:space="preserve">
<g style="opacity:0.7;">
	<g>
		<path style="fill:#CDE3E9;" d="M88.946,72.04l54.312-38.134l17.911,29.082L88.946,72.04z M142.751,36.365L95.6,69.471
			l62.701-7.859L142.751,36.365z"/>
	</g>
	<g>
		<path style="fill:#CDE3E9;" d="M244.884,80.208l-86.871-17.374l53.43-54.738L244.884,80.208z M161.459,61.768l80.437,16.087
			l-30.964-66.771L161.459,61.768z"/>
	</g>
	<g>
		<path style="fill:#CDE3E9;" d="M307.62,97.407l-65.335-17.785l26.396-79.001L307.62,97.407z M244.495,78.44l60.235,16.397
			l-35.9-89.232L244.495,78.44z"/>
	</g>
	<g>
		<path style="fill:#CDE3E9;" d="M304.788,97.19l36.835-87.014l20.861,78.744L304.788,97.19z M341.247,15.479l-33.686,79.574
			l52.763-7.562L341.247,15.479z"/>
	</g>
	<g>
		<path style="fill:#CDE3E9;" d="M360.013,89.306l25.47-61.054l67.234,45.884L360.013,89.306z M386.258,30.865l-23.462,56.241
			l85.397-13.974L386.258,30.865z"/>
	</g>
	<g>
		<path style="fill:#CDE3E9;" d="M124.933,122.348H48.898l43.476-53.074L124.933,122.348z M52.533,120.627h69.325l-29.686-48.39
			L52.533,120.627z"/>
	</g>
	<g>
		<path style="fill:#CDE3E9;" d="M197.614,122.348h-75.756l37.878-61.693L197.614,122.348z M124.934,120.627h69.603l-34.802-56.682
			L124.934,120.627z"/>
	</g>
	<g>
		<path style="fill:#CDE3E9;" d="M270.272,122.348h-76.444l49.765-44.655L270.272,122.348z M198.323,120.627h68.915L243.187,80.37
			L198.323,120.627z"/>
	</g>
	<g>
		<path style="fill:#CDE3E9;" d="M319.682,162.436l-52.387-40.998l39.48-26.763L319.682,162.436z M270.215,121.538l46.918,36.719
			l-11.56-60.688L270.215,121.538z"/>
	</g>
	<g>
		<path style="fill:#CDE3E9;" d="M316.356,162.108l44.761-75.101l54.874,34.648L316.356,162.108z M361.692,89.406l-41.231,69.179
			l91.778-37.264L361.692,89.406z"/>
	</g>
	<g>
		<path style="fill:#CDE3E9;" d="M488.529,122.348h-76.148l38.074-50.137L488.529,122.348z M415.849,120.627h69.211l-34.606-45.57
			L415.849,120.627z"/>
	</g>
	<g>
		<path style="fill:#CDE3E9;" d="M12.523,182.048l38.011-61.909l43.468,40.645L12.523,182.048z M50.898,122.836l-34.669,56.466
			l74.315-19.394L50.898,122.836z"/>
	</g>
	<g>
		<path style="fill:#CDE3E9;" d="M192.896,193.122L90.817,160.788l32.522-40.606L192.896,193.122z M93.729,159.905l93.292,29.551
			l-63.569-66.662L93.729,159.905z"/>
	</g>
	<g>
		<path style="fill:#CDE3E9;" d="M188.996,192.417l6.449-73.6l38.318,62.408L188.996,192.417z M196.706,124.159l-5.784,66.003
			l40.146-10.036L196.706,124.159z"/>
	</g>
	<g>
		<path style="fill:#CDE3E9;" d="M269.616,242.909l-38.21-62.234l0.276-0.45l37.934-61.784V242.909z M233.425,180.675l34.469,56.141
			V124.534L233.425,180.675z"/>
	</g>
	<g>
		<path style="fill:#CDE3E9;" d="M266.257,242.239l52.172-83.551l24.196,41.02l-0.771,0.429L266.257,242.239z M318.387,162.005
			l-47.133,75.481l68.992-38.423L318.387,162.005z"/>
	</g>
	<g>
		<polygon style="fill:#CDE3E9;" points="342.065,199.972 340.805,198.798 377.147,159.759 413.486,120.9 414.744,122.075 
			414.739,122.081 342.065,199.972 342.065,199.971 		"/>
	</g>
	<g>
		<path style="fill:#CDE3E9;" d="M521.529,178.136l-147.508-17.365l113.152-40.332l0.362,0.608L521.529,178.136z M381.53,159.922
			l136.735,16.097l-31.847-53.482L381.53,159.922z"/>
	</g>
	<g>
		<path style="fill:#CDE3E9;" d="M50.644,301.748L12.949,178.961l69.418,36.202L50.644,301.748z M15.803,182.39l34.985,113.962
			l29.443-80.362L15.803,182.39z"/>
	</g>
	<g>
		<path style="fill:#CDE3E9;" d="M125.092,241.835l-44.757-25.822l11.667-58.72L125.092,241.835z M82.263,215.139L121.7,237.89
			L92.544,163.4L82.263,215.139z"/>
	</g>
	<g>
		<path style="fill:#CDE3E9;" d="M197.051,240.723h-76.295l69.874-50.989L197.051,240.723z M126.035,239.002H195.1l-5.812-46.157
			L126.035,239.002z"/>
	</g>
	<g>
		<path style="fill:#CDE3E9;" d="M270.294,240.723h-75.756l37.878-61.693L270.294,240.723z M197.614,239.002h69.603l-34.802-56.682
			L197.614,239.002z"/>
	</g>
	<g>
		<rect x="268.755" y="239.002" style="fill:#CDE3E9;" width="72.68" height="1.721"/>
	</g>
	<g>
		<path style="fill:#CDE3E9;" d="M417.429,240.723h-76.855V197.92L417.429,240.723z M342.296,239.002h68.505l-68.505-38.152V239.002
			z"/>
	</g>
	<g>
		<path style="fill:#CDE3E9;" d="M413.841,241.333l-38.247-83.689l70.246,52.448L413.841,241.333z M379.957,163.049l34.433,75.343
			l28.808-28.126L379.957,163.049z"/>
	</g>
	<g>
		<path style="fill:#CDE3E9;" d="M536.744,249.569l-94.413-39.37l78.18-34.332L536.744,249.569z M446.705,210.158l87.646,36.548
			l-15.069-68.42L446.705,210.158z"/>
	</g>
	<g>
		<path style="fill:#CDE3E9;" d="M121.69,299.91H49.484l31.718-86.573L121.69,299.91z M51.948,298.189h67.037l-37.589-80.375
			L51.948,298.189z"/>
	</g>
	<g>
		<path style="fill:#CDE3E9;" d="M161.274,299.91h-41.843l3.248-62.86L161.274,299.91z M121.244,298.189h36.954l-34.085-55.515
			L121.244,298.189z"/>
	</g>
	<g>
		<path style="fill:#CDE3E9;" d="M157.777,300.595l37.997-61.887l0.721,0.403l55.146,30.822L157.777,300.595z M196.377,241.017
			l-34.682,56.488l85.676-27.986L196.377,241.017z"/>
	</g>
	<g>
		<path style="fill:#CDE3E9;" d="M307.473,301.277l-59.199-31.228l20.499-31.803L307.473,301.277z M250.738,269.403l51.98,27.42
			l-33.98-55.344L250.738,269.403z"/>
	</g>
	<g>
		<path style="fill:#CDE3E9;" d="M302.644,301.397l39.205-63.854l7.569,37.847L302.644,301.397z M341.021,242.181l-33.475,54.521
			l39.937-22.206L341.021,242.181z"/>
	</g>
	<g>
		<path style="fill:#CDE3E9;" d="M452.271,300.363l-106.234-25.106l68.387-36.535l0.424,0.691L452.271,300.363z M350.865,274.629
			l97.774,23.107l-34.833-56.733L350.865,274.629z"/>
	</g>
	<g>
		<path style="fill:#CDE3E9;" d="M527.861,349.005l-78.235-49.461l-0.029-0.436l-6.177-92.468L527.861,349.005z M451.285,298.556
			l71.442,45.166l-77.109-130.004L451.285,298.556z"/>
	</g>
	<g>
		<path style="fill:#CDE3E9;" d="M51.577,360.752L3.085,298.189h48.491V360.752z M6.597,299.91l43.258,55.811V299.91H6.597z"/>
	</g>
	<g>
		<path style="fill:#CDE3E9;" d="M124.302,359.098H48.375l72.732-61.832L124.302,359.098z M53.057,357.376h69.433l-2.922-56.543
			L53.057,357.376z"/>
	</g>
	<g>
		<path style="fill:#CDE3E9;" d="M121.347,359.93l38.037-61.951l60.822,24.668L121.347,359.93z M160.088,300.121l-34.643,56.423
			l90.037-33.957L160.088,300.121z"/>
	</g>
	<g>
		<path style="fill:#CDE3E9;" d="M264.114,329.568l-47.682-6.269l33.435-55.851L264.114,329.568z M219.255,321.934l42.628,5.605
			l-12.737-55.535L219.255,321.934z"/>
	</g>
	<g>
		<path style="fill:#CDE3E9;" d="M343.487,359.934l-82.315-31.151l44.178-30.962L343.487,359.934z M264.825,328.324l74.559,28.216
			l-34.543-56.261L264.825,328.324z"/>
	</g>
	<g>
		<path style="fill:#CDE3E9;" d="M340.437,359.836l7.339-87.126l44.598,56.077L340.437,359.836z M349.127,277.175l-6.693,79.462
			l47.368-28.318L349.127,277.175z"/>
	</g>
	<g>
		<path style="fill:#CDE3E9;" d="M462.208,351.394l-73.432-22.652l62.294-30.958L462.208,351.394z M393.399,328.366l66.531,20.524
			l-10.091-48.573L393.399,328.366z"/>
	</g>
	<g>
		<path style="fill:#CDE3E9;" d="M459.298,351.108l77.437-106.056L526.074,347.18L459.298,351.108z M534.361,251.224l-71.52,97.952
			l61.673-3.628L534.361,251.224z"/>
	</g>
	<g>
		<path style="fill:#CDE3E9;" d="M43.212,413.179l6.801-56.301l57.246,30.985L43.212,413.179z M51.419,359.596l-6.151,50.92
			l57.925-22.897L51.419,359.596z"/>
	</g>
	<g>
		<path style="fill:#CDE3E9;" d="M162.157,419.723l-58.14-31.66l19.38-31.469L162.157,419.723z M106.435,387.419l50.88,27.707
			l-33.92-55.246L106.435,387.419z"/>
	</g>
	<g>
		<path style="fill:#CDE3E9;" d="M157.577,419.3l60.754-99.125l10.721,68.089L157.577,419.3z M217.357,325.058l-55.462,90.491
			l65.25-28.332L217.357,325.058z"/>
	</g>
	<g>
		<path style="fill:#CDE3E9;" d="M295.006,400.747l-68.277-12.38l36.389-61.712L295.006,400.747z M229.466,387.114l62.691,11.367
			l-29.279-68.03L229.466,387.114z"/>
	</g>
	<g>
		<path style="fill:#CDE3E9;" d="M349.464,417.737l-57.62-17.758l50.252-43.451L349.464,417.737z M295.32,399.249l52.119,16.063
			l-6.664-55.366L295.32,399.249z"/>
	</g>
	<g>
		<path style="fill:#CDE3E9;" d="M346.831,417.894l44.148-91.089l42.657,65.756L346.831,417.894z M391.196,330.302l-41.125,84.853
			l80.862-23.599L391.196,330.302z"/>
	</g>
	<g>
		<path style="fill:#CDE3E9;" d="M500.566,407.742l-69.716-15.115l30.229-44.021L500.566,407.742z M433.72,391.489l63.051,13.669
			l-35.712-53.482L433.72,391.489z"/>
	</g>
	<g>
		<path style="fill:#CDE3E9;" d="M158.875,515.371v-51.4l48.127-18.866L158.875,515.371z M160.596,465.145v44.667l41.823-61.061
			L160.596,465.145z"/>
	</g>
	<g>
		<path style="fill:#CDE3E9;" d="M306.816,537.856L156.093,512.86l113.042-36.375l0.354,0.576L306.816,537.856z M163.379,512.324
			l139.996,23.217l-34.999-57.003L163.379,512.324z"/>
	</g>
	<g>
		<path style="fill:#CDE3E9;" d="M303.877,537.961l22.482-86.182l41.405,67.072L303.877,537.961z M327.008,456.109l-20.694,79.327
			l58.805-17.59L327.008,456.109z"/>
	</g>
	<g>
		<path style="fill:#CDE3E9;" d="M161.413,465.435l-75.445-0.747l18.861-78.993L161.413,465.435z M88.144,462.989l69.914,0.692
			l-52.436-73.895L88.144,462.989z"/>
	</g>
	<g>
		<path style="fill:#CDE3E9;" d="M158.875,465.844v-49.987l47.697,30.335L158.875,465.844z M160.596,418.992v44.281l42.253-17.408
			L160.596,418.992z"/>
	</g>
	<g>
		<path style="fill:#CDE3E9;" d="M270.525,478.41l-66.913-31.953l24.435-60.899L270.525,478.41z M205.81,445.6l61.176,29.213
			l-38.836-84.89L205.81,445.6z"/>
	</g>
	<g>
		<path style="fill:#CDE3E9;" d="M267.37,478.104l25.964-80.525l34.618,55.878L267.37,478.104z M293.83,401.649l-23.689,73.47
			l55.274-22.487L293.83,401.649z"/>
	</g>
	<g>
		<path style="fill:#CDE3E9;" d="M417.303,478.362l-91.941-24.782l22.891-38.403L417.303,478.362z M328.004,452.509l82.923,22.352
			l-62.277-56.988L328.004,452.509z"/>
	</g>
	<g>
		<path style="fill:#CDE3E9;" d="M412.969,477.85l19.259-89.622l19.259,78.181L412.969,477.85z M432.342,395.888l-17.081,79.485
			l34.162-10.147L432.342,395.888z"/>
	</g>
	<g>
		<polygon style="fill:#CDE3E9;" points="141.488,35.957 140.899,34.34 211.072,8.777 211.174,8.765 268.843,2.246 268.948,2.26 
			341.612,12.032 341.692,12.06 390.745,28.828 390.189,30.457 341.215,13.716 268.825,3.98 211.469,10.464 		"/>
	</g>
	<g>
		<polygon style="fill:#CDE3E9;" points="366.905,519.153 365.873,517.782 413.425,475.986 414.561,477.279 375.507,511.605 
			449.956,463.967 497.847,406.098 524.578,345.89 526.152,346.589 499.324,407.013 499.249,407.104 451.11,465.272 
			450.997,465.344 		"/>
	</g>
	<g>
		<polygon style="fill:#CDE3E9;" points="159.239,513.389 86.549,465.264 86.466,465.161 43.575,412.237 43.525,412.096 
			3.922,299.05 3.936,298.869 13.447,180.489 15.163,180.627 5.667,298.825 45.1,411.386 87.72,463.975 160.189,511.954 		"/>
	</g>
</g>
</svg>
