<?xml version="1.0" encoding="iso-8859-1"?>
<!-- Generator: Adobe Illustrator 17.1.0, SVG Export Plug-In . SVG Version: 6.00 Build 0)  -->
<!DOCTYPE svg PUBLIC "-//W3C//DTD SVG 1.1//EN" "http://www.w3.org/Graphics/SVG/1.1/DTD/svg11.dtd">
<svg version="1.1" id="&#x56FE;&#x5C42;_1" xmlns="http://www.w3.org/2000/svg" xmlns:xlink="http://www.w3.org/1999/xlink" x="0px"
	 y="0px" viewBox="0 0 62.362 62.362" style="enable-background:new 0 0 62.362 62.362;" xml:space="preserve">
<path style="fill:#FFFFFF;" d="M52.869,0H9.493C4.25,0,0,4.25,0,9.494v43.374c0,5.244,4.25,9.494,9.493,9.494h43.376
	c5.243,0,9.493-4.25,9.493-9.494V9.494C62.362,4.25,58.113,0,52.869,0z M47.382,40.628c-0.737,0.384-1.89-0.491-2.974-2.105
	c-0.429,1.752-1.493,3.34-3.006,4.619c1.588,0.586,2.628,1.55,2.628,2.634c0,1.783-2.81,3.233-6.276,3.233
	c-3.125,0-5.721-1.178-6.2-2.716h-0.75c-0.479,1.544-3.069,2.716-6.194,2.716c-3.466,0-6.276-1.443-6.276-3.233
	c0-1.084,1.04-2.048,2.627-2.634c-1.519-1.273-2.577-2.861-3.006-4.619c-1.084,1.613-2.237,2.489-2.98,2.105
	c-1.071-0.561-0.851-3.554,0.479-6.693c1.046-2.464,2.47-4.285,3.547-4.682c-0.012-0.158-0.019-0.315-0.019-0.473
	c0-0.952,0.265-1.834,0.712-2.552c0-0.057-0.006-0.113-0.006-0.17c0-0.435,0.101-0.851,0.283-1.203
	c0.271-6.409,4.449-11.501,11.204-11.501c6.755,0,10.926,5.092,11.203,11.501c0.177,0.353,0.284,0.769,0.284,1.203
	c0,0.057,0,0.114-0.006,0.17c0.454,0.718,0.718,1.601,0.718,2.552c0,0.158-0.006,0.315-0.025,0.473
	c1.084,0.403,2.508,2.218,3.554,4.682C48.246,37.067,48.454,40.067,47.382,40.628z"/>
</svg>
