<?xml version="1.0" encoding="iso-8859-1"?>
<!-- Generator: Adobe Illustrator 17.1.0, SVG Export Plug-In . SVG Version: 6.00 Build 0)  -->
<!DOCTYPE svg PUBLIC "-//W3C//DTD SVG 1.1//EN" "http://www.w3.org/Graphics/SVG/1.1/DTD/svg11.dtd">
<svg version="1.1" id="&#x56FE;&#x5C42;_1" xmlns="http://www.w3.org/2000/svg" xmlns:xlink="http://www.w3.org/1999/xlink" x="0px"
	 y="0px" viewBox="0 0 62.362 62.362" style="enable-background:new 0 0 62.362 62.362;" xml:space="preserve">
<g>
	<path style="fill:#FFFFFF;" d="M17.666,17.72c-1.394,0-2.793,0.927-2.793,2.33c0,1.385,1.399,2.316,2.793,2.316
		c1.39,0,2.312-0.931,2.312-2.316C19.978,18.646,19.051,17.72,17.666,17.72L17.666,17.72z M36.664,31.181
		c-0.922,0-1.853,0.931-1.853,1.844c0,0.944,0.931,1.857,1.853,1.857c1.403,0,2.321-0.908,2.321-1.857
		C38.99,32.112,38.072,31.181,36.664,31.181L36.664,31.181z M36.664,31.181"/>
	<path style="fill:#FFFFFF;" d="M62.362,9.492c0-2.518-1.001-4.933-2.782-6.714c-1.781-1.78-4.197-2.78-6.715-2.779H9.497
		C4.254,0,0.002,4.249,0,9.492v43.369c0,5.256,4.254,9.501,9.497,9.501h43.368c2.52,0.002,4.938-0.998,6.719-2.781
		c1.782-1.782,2.781-4.2,2.778-6.721V9.492z M23.684,41.382c-2.316,0-4.174-0.472-6.494-0.931l-6.477,3.252l1.853-5.577
		c-4.641-3.248-7.416-7.417-7.416-12.517c0-8.815,8.343-15.764,18.535-15.764c9.118,0,17.105,5.55,18.709,13.025
		c-0.596-0.066-1.195-0.1-1.795-0.102c-8.802,0-15.751,6.561-15.751,14.66c0,1.354,0.205,2.655,0.57,3.884
		C24.84,41.355,24.262,41.378,23.684,41.382L23.684,41.382z M51.034,47.885l1.394,4.624l-5.096-2.775
		c-1.848,0.459-3.715,0.913-5.555,0.913c-8.82,0-15.769-6.031-15.769-13.444c0-7.412,6.949-13.457,15.769-13.457
		c8.326,0,15.742,6.049,15.742,13.457C57.524,41.382,54.754,45.092,51.034,47.885L51.034,47.885z M51.034,47.885"/>
	<path style="fill:#FFFFFF;" d="M46.856,31.181c-0.909,0-1.835,0.931-1.835,1.844c0,0.944,0.927,1.857,1.835,1.857
		c1.394,0,2.325-0.908,2.325-1.857C49.186,32.112,48.255,31.181,46.856,31.181L46.856,31.181z M30.637,22.366
		c1.394,0,2.325-0.931,2.325-2.316c0-1.403-0.926-2.33-2.325-2.33c-1.39,0-2.784,0.927-2.784,2.33
		C27.853,21.435,29.248,22.366,30.637,22.366L30.637,22.366z M30.637,22.366"/>
</g>
</svg>
