<?xml version="1.0" encoding="iso-8859-1"?>
<!-- Generator: Adobe Illustrator 17.1.0, SVG Export Plug-In . SVG Version: 6.00 Build 0)  -->
<!DOCTYPE svg PUBLIC "-//W3C//DTD SVG 1.1//EN" "http://www.w3.org/Graphics/SVG/1.1/DTD/svg11.dtd">
<svg version="1.1" id="&#x56FE;&#x5C42;_1" xmlns="http://www.w3.org/2000/svg" xmlns:xlink="http://www.w3.org/1999/xlink" x="0px"
	 y="0px" viewBox="0 0 62.362 62.362" style="enable-background:new 0 0 62.362 62.362;" xml:space="preserve">
<g>
	<path style="fill:#FFFFFF;" d="M26.079,28.429c-8.782,0.405-15.875,5.114-15.875,10.976c0,5.855,7.101,10.265,15.875,9.852
		c8.79-0.405,15.898-5.901,15.898-11.763C41.977,31.647,34.869,28.024,26.079,28.429L26.079,28.429z M32.064,43.189
		c-2.69,3.47-8.01,5.167-13.177,2.369c-2.461-1.33-2.37-3.952-2.37-3.952s-1.024-8.278,7.812-9.31
		C33.172,31.265,34.754,39.719,32.064,43.189L32.064,43.189z M26.14,37.648c-0.565,0.413-0.68,1.192-0.374,1.681
		c0.298,0.504,0.986,0.558,1.536,0.145c0.55-0.436,0.757-1.185,0.466-1.681C27.47,37.304,26.798,37.158,26.14,37.648L26.14,37.648z
		 M21.952,38.786c-1.651,0.168-2.828,1.605-2.828,2.981c0,1.376,1.33,2.331,2.973,2.14c1.643-0.191,2.981-1.46,2.981-2.828
		C25.078,39.696,23.847,38.603,21.952,38.786L21.952,38.786z M52.869,0.004H9.493C4.25,0.004,0,4.254,0,9.497v43.368
		c0,5.243,4.25,9.493,9.493,9.493h43.376c5.243,0,9.493-4.25,9.493-9.493V9.497C62.362,4.254,58.112,0.004,52.869,0.004
		L52.869,0.004z M49.827,41.393c-3.623,7.689-15.554,11.427-24.405,10.739c-8.408-0.665-19.215-3.455-20.331-13.628
		c0,0-0.589-4.609,3.875-10.571c0,0,6.428-8.973,13.911-11.534c7.49-2.545,8.362,1.766,8.362,4.311
		c-0.397,2.163-1.146,3.432,1.666,2.56c0,0,7.368-3.416,10.395-0.39c2.446,2.446,0.405,5.809,0.405,5.809s-1.009,1.124,1.078,1.529
		C46.869,30.638,53.45,33.688,49.827,41.393L49.827,41.393z M42.566,20.144c-0.802,0-1.445-0.65-1.445-1.445
		c0-0.81,0.642-1.46,1.445-1.46c0,0,9.027-1.666,7.949,8.033c0,0.053-0.008,0.099-0.023,0.153c-0.099,0.688-0.703,1.215-1.414,1.215
		c-0.803,0-1.46-0.642-1.46-1.444C47.618,25.196,49.047,18.715,42.566,20.144L42.566,20.144z M57.822,27.902h-0.008
		c-0.237,1.636-1.055,1.773-2.025,1.773c-1.162,0-2.102-0.726-2.102-1.888c0-1.001,0.42-2.026,0.42-2.026
		c0.122-0.42,1.108-3.057-0.65-6.994c-3.21-5.388-9.669-5.473-10.433-5.159c-0.772,0.298-1.911,0.451-1.911,0.451
		c-1.17,0-2.102-0.948-2.102-2.11c0-0.971,0.65-1.789,1.529-2.041c0,0,0.023-0.031,0.054-0.038c0.061-0.015,0.13-0.076,0.199-0.084
		c0.902-0.175,4.112-0.802,7.231-0.076C53.61,11.018,61.269,16.414,57.822,27.902L57.822,27.902z M57.822,27.902"/>
</g>
</svg>
