<?xml version="1.0" encoding="iso-8859-1"?>
<!-- Generator: Adobe Illustrator 17.1.0, SVG Export Plug-In . SVG Version: 6.00 Build 0)  -->
<!DOCTYPE svg PUBLIC "-//W3C//DTD SVG 1.1//EN" "http://www.w3.org/Graphics/SVG/1.1/DTD/svg11.dtd">
<svg version="1.1" id="&#x56FE;&#x5C42;_1" xmlns="http://www.w3.org/2000/svg" xmlns:xlink="http://www.w3.org/1999/xlink" x="0px"
	 y="0px" viewBox="0 0 96.364 121.818" style="enable-background:new 0 0 96.364 121.818;" xml:space="preserve">
<path style="fill:#6C4797;" d="M6.215,44.719c0,0-6.132,5.07-5.526,8.46s3.424,9.838,5.526,9.4s3.891-1.122,5.1-2.745
	S13.558,49.701,6.215,44.719z"/>
<path id="XMLID_740_" style="fill:#424359;" d="M26.931,9.651c-1.352-3.936-5.403-5.315-9.257-4.597
	c-5.18,0.965-8.962,5.239-9.969,10.305c-0.666,3.349,0.147,10.248,5.236,8.394c0.485-0.177,0.804-0.506,0.98-0.891
	c0.77,0.165,1.652-0.023,2.545-0.392c1.84,0.6,3.681-0.089,5.941-1.77C25.79,18.186,28.409,13.955,26.931,9.651z"/>
<path style="fill:#F3CBCC;" d="M24.621,18.407c-0.543,0.094-0.714-0.697-0.173-0.791c0.378-0.066,0.756-0.031,1.124,0.062
	c-0.253-3.573-1.245-6.408-5.9-6.503c-1.489-0.03-4.618,1.186-5.289,3.98c-0.683,2.842,0.18,7.752,1.926,10.052
	c1.485,1.957,4.177,2.282,5.055,2.121c1.9-0.349,3.254-1.974,3.93-3.444c0.539-1.172,0.379-4.112,0.332-5.284
	c-0.001-0.031-0.003-0.061-0.005-0.092c-0.018-0.005-0.034-0.002-0.052-0.009C25.256,18.384,24.949,18.35,24.621,18.407z"/>
<g id="XMLID_595_">
	<path id="XMLID_608_" style="fill:#F3CBCC;" d="M71.248,91.962c-0.286,4.508,1.796,24.931,1.796,24.931
		c0.035,0.099,1.669-0.662,1.666-0.927c0.053-4.555,3.594-21.005,1.778-23.955C76.957,91.12,71.478,88.334,71.248,91.962z"/>
	<path id="XMLID_607_" style="fill:#424359;" d="M74.517,118.826c0.588-0.814,0.223-1.413,0.377-2.522
		c0.04-0.287,0.047-0.402-0.008-0.448c-0.504-0.424-1.688-0.665-2.038-0.421c-1.31,0.913-2.198,1.559-3.729,2.098
		c-0.761,0.268-3.113,1.216-2.3,2.388c0.723,1.043,2.358,0.99,3.85,0.626c0.082-0.02,0.167-0.037,0.246-0.062
		c0.308-0.081,0.58-0.161,0.786-0.227C72.576,119.976,73.959,119.598,74.517,118.826z"/>
	<path id="XMLID_606_" style="fill:#F3CBCC;" d="M84.171,91.233c-0.286,4.508,1.796,24.931,1.796,24.931
		c0.035,0.099,1.669-0.662,1.666-0.927c0.053-4.555,3.594-21.005,1.778-23.955C89.88,90.391,84.401,87.604,84.171,91.233z"/>
	<path id="XMLID_605_" style="fill:#424359;" d="M87.441,118.097c0.588-0.814,0.223-1.413,0.377-2.522
		c0.04-0.287,0.047-0.402-0.008-0.448c-0.504-0.424-1.688-0.665-2.038-0.421c-1.309,0.913-2.198,1.559-3.729,2.098
		c-0.761,0.268-3.113,1.217-2.3,2.388c0.723,1.043,2.358,0.99,3.85,0.626c0.082-0.02,0.167-0.037,0.246-0.062
		c0.308-0.081,0.58-0.161,0.786-0.227C85.5,119.246,86.883,118.869,87.441,118.097z"/>
	<path id="XMLID_604_" style="fill:#AE755E;" d="M75.161,75.622c-0.442,1.638-0.828,3.285-1.189,4.937
		c-0.148-2.408-0.296-4.817-0.444-7.225c-0.099-1.609-2.158-2.242-3.242-1.483c-0.13-6.128-0.016-12.262,0.36-18.386
		c0.155-2.521-3.774-2.256-3.928,0.243c-0.556,9.044-0.589,18.107-0.021,27.151c0.277,4.414,0.689,8.82,1.24,13.209
		c0.487,3.878,1.713,12.374,2.603,16.141c0.166,0.704,3.128,0.494,5.868,0.141c0.815-0.105,1.1-5.416,1.401-7.968
		c1.035-8.793,1.836-17.62,1.242-26.476C78.898,73.634,75.73,73.511,75.161,75.622z"/>
	<path id="XMLID_603_" style="fill:#D9AEB1;" d="M84.277,15.857c0.002-0.067,0.006-0.133,0.008-0.2
		c0.006-0.245-0.083-0.42-0.217-0.533c-0.023-0.618-0.735-0.75-1.146-0.418c-0.13-0.089-0.283-0.137-0.442-0.14
		c-0.077-0.197-0.235-0.315-0.419-0.365c-0.191-0.598-1.212-0.684-1.366,0.03c-0.092,0.005-0.182,0.006-0.273,0.025
		c-0.254-0.085-0.53-0.047-0.703,0.161c-0.234,0.092-0.795-0.526-0.813-0.194c-0.044,0.799,0.301,2.424,0.29,3.224
		c-0.05,0.989-0.05,1.979,0.012,2.98c0.003,0.044,0.021,0.075,0.029,0.115c0.017,0.604,0.043,1.173,0.515,1.492
		c0,0.054,0,0.108,0,0.162c-0.006,0.92,1.421,0.923,1.429,0.002c0.001-0.091,0.002-0.181,0.002-0.272
		c0.155-0.016,0.308-0.07,0.43-0.174c0.013,0.002,0.025,0.004,0.037,0.006c0.014,0.001,0.027,0.006,0.041,0.006
		c0.259,0.305,0.785,0.299,1.076-0.01c0.039,0.032,0.084,0.055,0.13,0.076c0.21,0.723,1.327,0.462,1.374-0.268
		C84.395,19.658,84.395,17.761,84.277,15.857z"/>
	<path id="XMLID_602_" style="fill:#AE755E;" d="M88.071,75.354c-0.442,1.638-0.828,3.285-1.189,4.937
		c-0.148-2.408-0.296-4.817-0.444-7.225c-0.099-1.609-2.158-2.242-3.242-1.483c-0.13-6.128-0.016-12.262,0.36-18.386
		c0.155-2.521-3.774-2.256-3.928,0.243c-0.556,9.044-0.589,18.107-0.021,27.151c0.277,4.414,0.689,8.82,1.24,13.209
		c0.487,3.878,1.713,12.374,2.603,16.141c0.166,0.704,3.128,0.494,5.868,0.141c0.815-0.105,1.1-5.416,1.401-7.968
		c1.035-8.793,1.836-17.62,1.242-26.476C91.808,73.366,88.64,73.244,88.071,75.354z"/>
	<path id="XMLID_601_" style="fill:#F3CBCC;" d="M82.646,0.546c-1.519-0.314-4.954,0.336-6.173,3.07
		c-1.239,2.78-1.786,9.062-0.435,11.749c1.149,2.286,4.34,2.041,5.269,2.043c2.011,0.004,2.695-1.514,3.666-2.89
		c0.775-1.098,2.182-4.028,2.356-5.238C87.925,5.158,87.798,1.611,82.646,0.546z"/>
	<path id="XMLID_600_" style="fill:#FDF2E3;" d="M71.29,60.064c-0.064-2.04-0.148-4.053-0.922-5.96
		c-0.314-0.775-1.308-0.995-1.798-0.235c-0.033,0.051-0.054,0.109-0.085,0.161c-0.377-0.752-1.646-0.908-1.806,0.102
		c-1.087,6.89-1.472,13.807-1.113,20.774c0.04,0.773,1.098,1.399,1.679,0.696c1.821-2.201,4.762-4.426,4.574-7.463
		C71.651,65.428,71.376,62.79,71.29,60.064z"/>
	<path id="XMLID_599_" style="fill:#424359;" d="M95.472,81.187c-0.746-12.771-1.968-24.874-1.953-37.229
		c0.009-7.702,1.638-17.739-5.899-22.57c-0.003-0.051-0.002-0.102-0.019-0.158c-0.632-2.1-2.589-3.596-4.839-3.264
		c-2.221,0.328-4.164,1.101-5.317,2.873c-1.426,0.461-2.723,1.12-3.639,1.993c-5.512,5.249-6.1,18.555-9.535,24.035
		c-3.748,5.979,3.377,9.85,3.763,9.737c1.883,1.722,1.08,5.798,1.084,8.117c0.005,2.856,0.006,5.713,0.015,8.569
		c0.011,3.845-0.159,8.259,2.443,11.413c2.504,3.036,6.586,3.85,10.328,3.399C84.528,87.785,95.736,85.71,95.472,81.187z"/>
	<path id="XMLID_598_" style="fill:#313344;" d="M76.157,36.203c-1.453,7.031-4.242,13.663-8.254,19.617
		c-0.237,0.351,0.825,2.693,1.06,2.343c4.042-5.998,6.357-14.685,7.821-21.768C76.87,35.985,76.243,35.79,76.157,36.203z"/>
	<path id="XMLID_597_" style="fill:#313344;" d="M87.383,21.129c-1.937-0.884-7.328-0.669-9.413-0.545
		c-0.418,0.025-0.44,0.681-0.018,0.656c1.945-0.116,7.268-0.383,9.085,0.446C87.416,21.859,87.767,21.303,87.383,21.129z"/>
	<path id="XMLID_596_" style="fill:#909091;" d="M88.767,7.074c0.207-0.891,0.131-1.884-0.151-2.676
		c-0.68-1.912-2.558-3.141-4.438-3.661c-2.229-0.617-4.363-0.07-6.427,0.84c-2.302,1.015-3.091,2.917-2.5,4.174
		c0.25,0.533,0.962,0.532,1.415,0.551c3.295,0.132,3.075,1.578,3.562,2.316c1.257,1.907-0.517,3.261,0.083,5.113
		c0.342,1.056,1.684,2.301,2.671,2.753c0.302,0.138,0.698,0.217,0.993,0c1.595-1.171,3.005-3.466,4-5.138
		C88.719,10.094,89.327,8.475,88.767,7.074z"/>
</g>
<path id="XMLID_594_" style="fill:#F3CBCC;" d="M28.371,103.891c-1.162,5.991-2.37,11.662-2.37,11.662
	c-0.046,0.095-1.588-0.838-1.556-1.102c0.199-2.053-0.227-6.63-0.555-11.278C23.495,97.558,29.396,98.609,28.371,103.891z"/>
<path id="XMLID_593_" style="fill:#424359;" d="M24.551,115.941c-0.466-0.82-0.065-1.342-0.096-2.394
	c-0.008-0.272-0.003-0.38,0.053-0.417c0.513-0.345,1.645-0.45,1.947-0.187c1.131,0.985,1.895,1.679,3.271,2.338
	c0.683,0.328,2.283,1.445,1.406,2.456c-0.781,0.9-1.802,0.693-3.159,0.201c-0.075-0.027-0.152-0.051-0.224-0.083
	c-0.279-0.107-0.525-0.209-0.711-0.292C26.247,117.211,24.993,116.719,24.551,115.941z"/>
<path id="XMLID_592_" style="fill:#4190BD;" d="M29.6,83.767c-1.053-8.323-2.107-16.647-3.16-24.97
	c-0.146-1.157-1.475-1.511-2.188-1.047c-0.588-0.698-1.366-0.928-2.4-0.351c-0.489,0.272-0.895,0.783-1.239,1.41
	c-0.007-0.079-0.016-0.158-0.022-0.237c-0.139-1.664-2.73-1.697-2.623,0c0.164,2.616,0.413,5.219,0.718,7.814
	c-0.107,1.097-0.763,4.164-0.585,5.193c1.031,5.966,2.22,14.856,3.252,20.823c0.569,3.291,1.528,13.934,1.7,15.07
	c0.06,0.397,0.518,0.858,0.916,0.916c1.113,0.161,2.22,0.363,3.338,0.484c1.957,0.213,1.851-1.608,1.879-1.842
	c0.483-4.054,1.171-8.143,1.341-12.225C30.68,91.108,30.063,87.424,29.6,83.767z"/>
<path id="XMLID_591_" style="fill:#F3CBCC;" d="M17.519,106.497c-0.429,6.088-0.942,11.862-0.942,11.862
	c-0.034,0.099-1.678-0.64-1.678-0.906c-0.051-2.063-1.027-6.554-1.915-11.128C11.912,100.8,17.897,101.129,17.519,106.497z"/>
<path id="XMLID_590_" style="fill:#424359;" d="M15.184,118.92c-0.562-0.757-0.227-1.325-0.385-2.365
	c-0.041-0.269-0.049-0.377,0.002-0.421c0.468-0.405,1.578-0.646,1.91-0.421c1.241,0.841,2.085,1.438,3.53,1.926
	c0.718,0.242,2.441,1.158,1.692,2.268c-0.667,0.988-1.705,0.906-3.112,0.582c-0.077-0.018-0.157-0.033-0.232-0.055
	c-0.29-0.072-0.547-0.144-0.741-0.204C17.022,119.976,15.718,119.638,15.184,118.92z"/>
<path id="XMLID_589_" style="fill:#F3CBCC;" d="M21.54,27.322c0.009-0.066,0.022-0.132,0.031-0.198
	c0.034-0.243-0.035-0.426-0.154-0.554c0.048-0.617-0.644-0.829-1.091-0.546c-0.119-0.103-0.266-0.168-0.423-0.189
	c-0.054-0.205-0.198-0.34-0.374-0.41c-0.122-0.616-1.126-0.818-1.36-0.127c-0.092-0.006-0.182-0.015-0.274-0.006
	c-0.243-0.114-0.521-0.107-0.716,0.08c-0.243,0.064-0.729-0.613-0.785-0.285c-0.135,0.789-0.358,5.196-0.41,6.197
	c-0.002,0.044,0.012,0.077,0.016,0.117c-0.052,0.602-0.092,1.17,0.341,1.541c-0.007,0.054-0.012,0.107-0.019,0.161
	c-0.111,0.913,1.306,1.079,1.42,0.166c0.011-0.09,0.022-0.18,0.034-0.27c0.156,0.002,0.314-0.034,0.447-0.123
	c0.013,0.004,0.024,0.007,0.036,0.01c0.014,0.002,0.026,0.01,0.04,0.011c0.223,0.333,0.746,0.386,1.07,0.114
	c0.036,0.036,0.077,0.064,0.121,0.091c0.126,0.742,1.265,0.611,1.396-0.109C21.222,31.112,21.439,29.227,21.54,27.322z"/>
<path id="XMLID_588_" style="fill:#F3CBCC;" d="M32.507,70.256c-0.107-0.965-0.961-1.968-1.01-2.879
	c-0.053-0.76-0.178-2.655-0.202-3.717c-0.097-4.423-0.076-9.089-1.812-11.049c-0.179-7.039,0.534-12.471-1.981-17.455
	c-0.571-1.131-2.893,0.401-2.093,1.371c0.422,0.511,0.785,1.041,1.098,1.585c-0.167,0.159-0.271,0.389-0.254,0.691
	c0.265,4.835,0.587,9.666,0.951,14.495c-1.349,4.907,1.085,9.78,2.76,14.596c-0.027,0.038-0.031,0.072-0.025,0.103
	c-0.422,0.747-0.778,1.779-0.663,2.583c0.117,0.822,0.405,1.099,0.666,1.918c-0.033,1-0.091,2.046,0.242,2.89
	c0.058,0.148,0.173,0.221,0.328,0.228c1.221,0.06,1.973-1.478,1.99-2.502C32.517,72.088,32.62,71.276,32.507,70.256z"/>
<path id="XMLID_587_" style="fill:#4190BD;" d="M19.412,57.772c-0.042-0.248-8.099-2.223-8.419-1.004
	c-1.395,5.308-2.927,12.986-3.196,17.583c-0.559,9.547,1.53,18.526,4.013,31.504c0.01,0.051,0.197,2.276,0.647,3.135
	c0.439,0.838,5.938,0.828,6.209-0.734C18.831,107.307,20.138,62.044,19.412,57.772z"/>
<path id="XMLID_586_" style="fill:#FDF2E3;" d="M26.705,33.756c-0.046-0.052-0.098-0.076-0.15-0.09
	c-1.026-1.384-2.185-2.071-4.94-2.9c-1.564-0.471-4.728-0.165-4.992-0.192c-1.464-0.151-6.016,1.069-7.994,2.726
	c-2.96,2.48-1.352,19.868-0.303,23.346c0.977,3.239,14.442,2.087,18.227,2.124c1.946,0.019,1.284-6.452,0.621-14.136
	c-0.099-1.141-0.019-2.409,0.115-3.632c0.505,0.005,1.006-0.006,1.513-0.047c0.17-0.014,0.338-0.139,0.328-0.328
	C28.989,37.95,28.531,35.795,26.705,33.756z"/>
<path id="XMLID_585_" style="fill:#F3CBCC;" d="M9.555,37.542c0.084-0.763-0.891-1.198-1.48-0.849
	c-0.379,0.224-0.68,0.488-0.944,0.773c0.251-1.213-1.618-1.724-1.9-0.498c-1.342,5.819-0.918,11.648,1.336,17.184
	c0.263,0.646,1.087,1.025,1.644,0.434c1.498-1.588,0.945-3.707,0.875-5.728C8.953,45.074,9.141,41.302,9.555,37.542z"/>
<path id="XMLID_584_" style="fill:#FDF2E3;" d="M11.248,37.898c0.435-1.613,0.903-4.226-0.343-5.551
	c-0.232-0.246-0.7-0.345-0.964-0.117c-0.121-0.032-0.254-0.036-0.404,0.031c-2.025,0.912-3.696,1.943-4.609,4.054
	c-0.286,0.661-0.979,3.227-0.46,3.866c0.594,0.73,5.916,0.437,6.759,0.615C11.584,40.871,11.686,38.221,11.248,37.898z"/>
<path id="XMLID_583_" style="fill:#424359;" d="M14.375,30.301c-0.68-1.064-2.384-0.078-1.699,0.993
	c4.786,7.486,2.66,20.524-2.752,27.15c-0.343,0.42-0.611,0.834-0.364,1.187c0.325,0.465,1.299,0.762,1.755,0.204
	c3.273-4.007,4.892-8.759,5.448-13.868C17.333,40.723,17.3,34.877,14.375,30.301z"/>
<path id="XMLID_582_" style="fill:#E0B45E;" d="M25.874,15.224c-0.148-1.637-0.493-3.382-2.419-4.283
	c-0.782-0.366-2.051-0.645-2.581-0.071c-0.493,0.28-0.479,1.096,0.048,1.208c0.257,0.39,0.611,0.753,0.999,1.084
	c-0.019,0.001-0.038-0.001-0.057,0.001c-0.837,0.059-0.844,1.372,0,1.312c1.491-0.106,2.68,1.182,3.19,2.35
	c0.253,0.58,0.393,0.881,0.631,0.287C25.896,16.577,25.989,15.686,25.874,15.224z"/>
<path id="XMLID_522_" style="fill:#424359;" d="M76.152,6.997C76.699,7,77.233,7.139,77.719,7.394
	c0.556,0.291,0.095,0.998-0.463,0.705c-0.337-0.177-0.683-0.257-1.062-0.259C75.567,7.836,75.527,6.993,76.152,6.997z"/>
<path id="XMLID_521_" style="fill:#7A585A;" d="M75.874,8.769c0.07-0.113,0.243-0.141,0.32-0.015
	c0.093,0.153,0.138,0.32,0.141,0.488c0.01,0.215-0.055,0.417-0.194,0.599C76.072,9.93,75.9,9.918,75.848,9.817
	C75.675,9.481,75.672,9.095,75.874,8.769z"/>
<path id="XMLID_489_" style="fill:#4D2B2E;" d="M20.866,19.428c-0.066-0.099-0.221-0.12-0.287-0.004
	c-0.079,0.139-0.115,0.29-0.112,0.441c-0.003,0.192,0.061,0.372,0.19,0.53c0.063,0.078,0.217,0.063,0.261-0.03
	C21.064,20.06,21.056,19.714,20.866,19.428z"/>
<path id="XMLID_488_" style="fill:#4D2B2E;" d="M25.26,19.735c-0.061-0.102-0.216-0.13-0.286-0.017
	c-0.085,0.136-0.128,0.285-0.132,0.435c-0.012,0.192,0.044,0.374,0.166,0.538c0.06,0.081,0.214,0.072,0.262-0.018
	C25.429,20.375,25.437,20.029,25.26,19.735z"/>
<path id="XMLID_487_" style="fill:#DF9383;" d="M22.802,22.844c0.909,0.22,0.546-1.308,0.472-1.761
	c-0.03-0.183,0.25-0.262,0.281-0.077c0.115,0.696,0.451,2.429-0.83,2.119C22.542,23.081,22.619,22.8,22.802,22.844z"/>
<path id="XMLID_486_" style="fill:#B97029;" d="M19.647,17.814c0.513-0.211,1.068-0.295,1.623-0.258
	c0.635,0.042,0.483,0.849-0.154,0.807c-0.385-0.025-0.741,0.038-1.096,0.183C19.432,18.787,19.062,18.054,19.647,17.814z"/>
<path style="fill:#B97029;" d="M24.448,17.616c-0.541,0.094-0.369,0.885,0.173,0.791c0.328-0.057,0.635-0.023,0.946,0.093
	c0.019,0.007,0.034,0.004,0.052,0.009c-0.012-0.281-0.028-0.557-0.047-0.83C25.204,17.585,24.826,17.551,24.448,17.616z"/>
<path id="XMLID_485_" style="fill:#FFFFFF;" d="M23.681,24.251c0,0-1.457,0.087-2.381-0.115c0,0,0.231,1.039,1.068,1.27
	C23.204,25.637,23.349,24.627,23.681,24.251z"/>
<path id="XMLID_36_" style="fill:#E0B45E;" d="M22.592,12.839c-0.014-0.364-0.098-0.72-0.275-1.06
	c-1.275-2.45-6.351-1.238-7.751,0.533c-1.844,2.333-4.324,10.047-4.76,10.723c-1.407,2.179-4.956,4.811-3.033,7.888
	c0.401,0.641,2.718,2.07,2.871,3.643c0.044,0.328,0.088,0.655,0.133,0.983c0.391,1.231,0.684,2.393,1.882,3.113
	c2.213,1.329,4.093-0.285,4.461-2.525c0.265-1.615-0.209-2.844,0.329-4.504c0.528-1.63,1.817-2.596,2.435-4.124
	c0.729-1.803-0.002-3.482,0.059-5.32C19.059,18.703,23.965,16.371,22.592,12.839z"/>
<path id="XMLID_35_" style="fill:#F3CBCC;" d="M17.31,37.773c-0.306-0.784-0.692-1.55-1.171-2.315
	c-0.321-0.513-1.282-0.353-1.222,0.331c0.01,0.112-0.246,1.445-0.001,2.839c0.044,0.375,0.339,1.308,0.416,1.679
	c-0.285,2.256-3.808,6.328-4.847,7.57c-1.597,1.907-4.749,4.095-3.833,6.444c0.363,0.932,1.734,0.645,2.294,0.453
	c2.119-0.728,4.034-3.344,5.465-5.748c0.691-1.161,2.481-6.352,2.35-8.301C16.81,40.69,17.782,38.599,17.31,37.773z"/>
<path style="fill:#555873;" d="M9.214,65.173c0,0,4.183-1.469,4.91-6.234l0.802-0.024c0,0-0.327,3.036-2.226,5.09
	c-1.943,2.101-2.789,2.128-3.676,2.24L9.214,65.173z"/>
<path style="fill:#555873;" d="M23.872,58.826c0,0,0.755,2.72,3.01,3.463l0.127,1.001c0,0-3.028-1.107-3.887-4.351L23.872,58.826z"
	/>
</svg>
