<?xml version="1.0" encoding="iso-8859-1"?>
<!-- Generator: Adobe Illustrator 17.1.0, SVG Export Plug-In . SVG Version: 6.00 Build 0)  -->
<!DOCTYPE svg PUBLIC "-//W3C//DTD SVG 1.1//EN" "http://www.w3.org/Graphics/SVG/1.1/DTD/svg11.dtd">
<svg version="1.1" id="&#x56FE;&#x5C42;_1" xmlns="http://www.w3.org/2000/svg" xmlns:xlink="http://www.w3.org/1999/xlink" x="0px"
	 y="0px" viewBox="0 0 81.615 103.138" style="enable-background:new 0 0 81.615 103.138;" xml:space="preserve">
<g>
	<path style="fill:#F3CBCC;" d="M10.318,52.557c0,0,2.105,0.819,1.871,1.871c-0.234,1.053-1.155,2.754-2.573,3.041
		c-2.796,0.565-3.369-0.887-3.486-1.588C6.014,55.179,9.149,54.311,10.318,52.557z"/>
	<polygon style="fill:#CB7685;" points="0.485,38.357 0.485,54.131 9.734,54.131 9.734,51.248 9.734,38.357 	"/>
	<g>
		<path style="fill:#302D48;" d="M39.277,53.267c0,0,0.786,13.519-0.314,21.064c-1.1,7.545-2.672,21.064-2.515,23.894h-4.401
			c0,0,0.786-18.392,0.629-22.951c-0.157-4.559,0.157-20.435-0.629-22.007C31.26,51.695,39.277,53.267,39.277,53.267z"/>
		<path style="fill:#302D48;" d="M32.046,98.225c0,0-1.415,2.672,0.472,3.458c2.988,1.245,6.583,0.805,7.231,0.157
			c0.629-0.629-3.144-1.729-3.93-2.672c-0.786-0.943,0-3.144,0-3.144h-2.358L32.046,98.225z"/>
		<path style="fill:#302D48;" d="M30.317,51.38c0,0-1.209,14.789-3.144,22.165c-2.515,9.589-14.776,21.221-14.619,24.051H8.152
			c0,0,8.489-15.562,11.632-24.523c1.51-4.304,1.729-18.706,2.358-20.907C22.626,50.477,30.317,51.38,30.317,51.38z"/>
		<path style="fill:#302D48;" d="M8.152,97.596c-0.109,0.866,1.009,1.487,0.472,3.458c-0.472,1.729,2.967,2.063,3.615,1.415
			c0.629-0.629,0.786-1.886,0.314-3.458c-0.353-1.176,0.472-2.672,0.472-2.672l-3.458-0.943C9.567,95.395,8.234,96.947,8.152,97.596
			z"/>
	</g>
	<path style="fill:#F3CBCC;" d="M72.304,26.792c0,0,1.718-1.547,1.874-2.587c0.156-1.04,0.312-2.6,1.093-2.946
		c0,0,0.781,0.693,0.625,1.733c-0.156,1.04,4.275-2.24,5.212-3.28c0.937-1.04-0.371,3.627-2.713,5.533
		c-2.343,1.907-2.655,2.426-4.217,3.293S72.304,26.792,72.304,26.792z"/>
	<path style="fill:#302D48;" d="M72.367,25.836l2.201,2.515c0,0-3.773,7.703-12.104,8.489c-8.331,0.786-13.676-4.087-14.619-5.502
		c-0.943-1.415-0.472,2.201-1.1,5.659C46.115,40.455,42.5,53.031,42.5,54.446H16.877c0,0,4.154-8.224,5.03-11.947
		c1.258-5.345,1.415-14.305,1.1-15.72c-0.314-1.415-6.288,6.602-7.388,8.96c-1.1,2.358-4.716,15.562-4.244,17.449H8.231
		c0,0-0.943-14.462,2.987-21.85s11.004-16.663,14.934-18.077s9.432-0.629,10.375-0.786c0.943-0.157,5.345,1.1,9.117,2.358
		c3.773,1.258,4.873,8.646,6.602,10.218c1.068,0.971,2.437,3.563,4.18,5.291c1.078,1.068,2.298,1.806,3.68,1.626
		C63.721,31.495,69.695,30.238,72.367,25.836z"/>
	<path style="fill:#F3CBCC;" d="M45.872,2.384c0,0,2.379,0.913,2.222,3.743s-1.359,5.171-1.988,6.9
		c-0.48,1.321-2.742-0.316-3.528,0.941c-0.786,1.258-0.629,2.83-2.515,1.572c-1.536-1.024-2.057-1.703-1.886-3.144
		c0.039-0.329,0.314-1.1,0.314-1.572c0-1.988,0.786-4.401,1.886-4.716c1.1-0.314,1.258,0.629,1.729,0S42.257,2.855,45.872,2.384z"/>
	<path style="fill:#232134;" d="M45.722,1.549c0,0-3.356-2.249-6.669-0.16c-2.077,1.31-2.567,3.693-2.213,6.841
		c0.179,1.593-0.055,2.8,1.258,2.515c1.808-0.393,0.355-2.479,1.356-3.598c1.002-1.118,2.023,0.375,2.809-0.882
		c0.786-1.258,1.258-2.515,2.594-2.908C46.674,2.823,47.294,2.178,45.722,1.549z"/>
	<g>
		<path style="fill:#302D48;" d="M45.026,7.493c0.062,0.039,0.082,0.114,0.077,0.189c0.577-0.017,1.268-0.307,1.345-0.446
			c0,0-0.128-0.191-0.425-0.3c-0.011,0.063-0.013,0.124-0.045,0.189c-0.102,0.208-0.276,0.321-0.387,0.251
			c-0.112-0.07-0.12-0.295-0.017-0.503c0.002-0.004,0.006-0.005,0.008-0.01c-0.367,0.005-0.865,0.139-1.533,0.559
			c0,0,0.306,0.173,0.729,0.235c0.001-0.029-0.005-0.058,0.008-0.086C44.834,7.474,44.941,7.44,45.026,7.493z"/>
		<path style="fill:#302D48;" d="M46.576,5.756c0.42,0.095,0.573-0.222-0.127-0.383c-0.96-0.221-2.183,0.444-2.064,0.621
			C44.671,6.419,45.608,5.538,46.576,5.756z"/>
		<path style="fill:#302D48;" d="M45.591,7.375c0.112,0.07,0.285-0.043,0.387-0.251c0.032-0.065,0.034-0.126,0.045-0.189
			c-0.119-0.044-0.261-0.075-0.441-0.073c-0.002,0.004-0.006,0.005-0.008,0.01C45.472,7.08,45.479,7.306,45.591,7.375z"/>
		<path style="fill:#FFFDFE;" d="M46.056,7.236c-0.037,0.074-0.114,0.105-0.174,0.068c-0.059-0.037-0.078-0.127-0.041-0.202
			c0.037-0.074,0.114-0.105,0.174-0.068S46.093,7.162,46.056,7.236z"/>
		<path style="opacity:0.7;fill:#FFFDFE;" d="M45.591,7.375c0.112,0.07,0.285-0.043,0.387-0.251
			c0.032-0.065,0.034-0.126,0.045-0.189c-0.119-0.044-0.261-0.075-0.441-0.073c-0.002,0.004-0.006,0.005-0.008,0.01
			C45.472,7.08,45.479,7.306,45.591,7.375z"/>
		<path style="fill:#302D48;" d="M45.104,7.681c0.005-0.075-0.015-0.15-0.077-0.189c-0.085-0.053-0.192-0.018-0.239,0.078
			c-0.013,0.027-0.007,0.057-0.008,0.086c0.099,0.014,0.198,0.03,0.308,0.027C45.092,7.683,45.098,7.681,45.104,7.681z"/>
		<path style="opacity:0.9;fill:#FFFDFE;" d="M45.104,7.681c0.005-0.075-0.015-0.15-0.077-0.189
			c-0.085-0.053-0.192-0.018-0.239,0.078c-0.013,0.027-0.007,0.057-0.008,0.086c0.099,0.014,0.198,0.03,0.308,0.027
			C45.092,7.683,45.098,7.681,45.104,7.681z"/>
	</g>
	<path style="fill:#F5E8D8;" d="M40.527,39.888l-1.323,14.558l-3.065-0.314c0,0,2.501-10.631,2.805-12.698
		s1.126-12.392,1.126-12.392l-1.924-13.182l0.345-1.42l1.572,1.1c0,0,0.584,1.106,2.358-0.472l0.703,2.823L40.527,39.888z"/>
	<path style="fill:#5959A4;" d="M38.177,12.396l-4.022,0.034l1.354,3.128l-2.546,0.445c0,0,5.82,7.901,6.729,17.357
		C39.691,33.36,41.35,22.878,38.177,12.396z"/>
	<path style="fill:#5959A4;" d="M42.695,13.88l2.949,0.953l-1.341,3.648l2.546,0.445c0,0-5.171,4.978-6.08,14.435
		C40.768,33.36,39.522,24.362,42.695,13.88z"/>
	<path style="fill:#DF6F94;" d="M39.827,15.145c0,0,1.415,13.339,0.786,16.944c-0.629,3.605-0.314,9.253,0.786,10.695
		c1.1,1.442,1.572,2.163,1.572,2.163s1.415-2.283,1.258-3.966C44.072,39.299,43.6,33.05,43.6,30.046s-1.258-13.579-1.572-14.3
		S39.827,15.145,39.827,15.145z"/>
	<path style="fill:#DF6F94;" d="M38.177,12.396c0,0,0.472,2.044,1.572,2.672c1.1,0.629,0.314,0.472,0.314,0.472
		s-1.063-0.036-1.572-1.1C37.982,13.375,38.02,12.868,38.177,12.396z"/>
	<path style="fill:#DF6F94;" d="M42.735,13.811c-0.157-0.157-0.392,0.755-0.943,1.258c-0.936,0.854-0.629,0.786-0.629,0.786
		s0.715,0.118,1.258-0.786C42.893,14.282,42.893,13.968,42.735,13.811z"/>
	<path style="fill:#4B486B;" d="M39.549,34.541c0,0-2.278,18.091-4.717,19.591h1.307C36.139,54.131,39.822,40.728,39.549,34.541z"/>
</g>
</svg>
