<?xml version="1.0" encoding="iso-8859-1"?>
<!-- Generator: Adobe Illustrator 17.1.0, SVG Export Plug-In . SVG Version: 6.00 Build 0)  -->
<!DOCTYPE svg PUBLIC "-//W3C//DTD SVG 1.1//EN" "http://www.w3.org/Graphics/SVG/1.1/DTD/svg11.dtd">
<svg version="1.1" id="&#x56FE;&#x5C42;_1" xmlns="http://www.w3.org/2000/svg" xmlns:xlink="http://www.w3.org/1999/xlink" x="0px"
	 y="0px" viewBox="0 0 59.273 158.182" style="enable-background:new 0 0 59.273 158.182;" xml:space="preserve">
<g id="XMLID_913_">
	<path id="XMLID_925_" style="fill:#FAD6AF;" d="M26.167,130.811c0.093,6.224-0.088,12.795-0.113,19.022
		c-0.029,0.108-0.049,0.223-0.046,0.351c0.008,0.296,0.017,0.591,0.026,0.887c0.031,1.05,3.25,2.453,3.418,1.569
		c1.659-8.7,2.753-18.417,4.417-26.091C35.23,120.273,26.073,124.537,26.167,130.811z"/>
	<path id="XMLID_924_" style="fill:#292E4A;" d="M25.389,151.386c0.05-0.364,0.075-0.619,0.434-0.593
		c1.158,0.084,2.345,0.185,3.406,0.698c1.138,0.55,1.969,1.089,3.181,1.684c0.898,0.441,2.218,1.186,2.437,2.259
		c0.113,0.553-0.084,1.051-0.557,1.417c-0.781,0.604-2.317,0.037-3.137-0.117c-1.463-0.276-2.992-0.452-4.428-0.847
		C24.235,155.2,25.129,153.272,25.389,151.386z"/>
	<path id="XMLID_923_" style="fill:#FAD6AF;" d="M16.091,132.382c-1.427,6.059-2.662,12.516-3.974,18.602
		c0.005,0.112,0,0.228-0.031,0.353c-0.071,0.287-0.143,0.574-0.215,0.861c-0.256,1.019-3.701,1.698-3.675,0.799
		c0.248-8.854,1.266-18.579,1.288-26.431C9.502,120.143,17.53,126.274,16.091,132.382z"/>
	<path id="XMLID_922_" style="fill:#292E4A;" d="M12.165,151.386c-0.05-0.364-0.075-0.619-0.434-0.593
		c-1.158,0.084-2.345,0.185-3.406,0.698c-1.138,0.55-1.969,1.089-3.181,1.684c-0.898,0.441-2.218,1.186-2.437,2.259
		c-0.113,0.553,0.084,1.051,0.557,1.417c0.781,0.604,2.317,0.037,3.137-0.117c1.463-0.276,2.992-0.452,4.428-0.847
		C13.32,155.2,12.425,153.272,12.165,151.386z"/>
	<path id="XMLID_921_" style="fill:#B8B7B7;" d="M9.056,134.518c0.585-9.923,1.092-19.854,1.828-29.768
		c0.822-11.079,2.058-22.146,4.499-32.997c0.26-1.153,2.222-1.288,2.49-0.099c0.364-0.25,0.828-0.401,1.358-0.415
		c2.188-0.057,4.698,1.949,6.466,3.034c2.121,1.302,4.142,2.75,6.09,4.294c1.614-0.801,4.17-1.994,5.658-0.708
		c0.349,0.301,0.559,0.67,0.691,1.07c0.709-0.069,1.516,0.41,1.534,1.269c0.001,0.037,0,0.074,0.001,0.112
		c0.513-1.271,2.7-1.17,2.509,0.36c-1.464,11.711-2.928,23.425-4.76,35.085c-0.916,5.828-1.924,11.641-3.071,17.428
		c-0.562,2.834-1.157,5.662-1.791,8.481c-0.236,1.051-0.252,2.247-1.147,2.947c-0.726,0.568-1.608,0.727-2.508,0.603
		c-5.015-0.691-3.857-6.907-3.556-10.388c0.527-6.094,0.537-12.171,0.422-18.281c-0.11-5.833-0.222-11.665-0.333-17.498
		c-0.023-1.205-0.046-2.409-0.069-3.614c-0.986,3.55-1.83,7.141-2.682,10.725c-2.33,9.802-4.524,19.635-6.582,29.498
		c-0.569,2.729-0.713,9.419-4.92,9.13c-1.427-0.098-2.328-1.227-2.496-2.583C8.383,139.752,8.911,136.981,9.056,134.518z"/>
	<path id="XMLID_920_" style="fill:#FAD6AF;" d="M4.013,46.921c0.12-0.693,0.259-1.379,0.426-2.058
		c0.185-0.827,0.393-1.649,0.631-2.461c0.339-1.156,0.858-2.268,2.244-2.077c0.375,0.052,0.792,0.203,1.213,0.427
		c0.183,0.006,0.349,0.093,0.438,0.259c0.41,0.267,0.81,0.597,1.165,0.965c0.227,0.038,0.417,0.213,0.434,0.502
		c0.483,0.624,0.812,1.317,0.849,1.989c0.201,0.123,0.339,0.355,0.259,0.644c-1.193,4.271-2.25,8.611-3.617,12.83
		c-0.15,0.462-0.325,1.258-0.612,1.961c-0.395,3.93-0.26,7.937-0.659,11.871c-0.315,3.11-0.773,6.201-1.347,9.271
		c0.517,1.55,1.97,2.782,2.599,4.292c0.384,0.923,1.165,2.855,0.73,3.818c-0.388,0.859-0.995,0.731-1.606,0.237
		c0.099,0.451,0.145,0.903-0.085,1.328c-0.58,1.072-2.42,1.235-3.449,0.872c-1.449-0.511-1.545-2.348-1.637-3.659
		c-0.145-2.066,0.231-4.095,0.836-6.058c-1.075-4.342-2.117-10.448-2.276-14.898C0.404,62.92,3.467,48.574,4.013,46.921z"/>
	<path id="XMLID_919_" style="fill:#FAD6AF;" d="M22.871,2.468c0.6-0.598,1.216-0.91,1.839-1.019
		c0.934-0.372,1.917-0.489,2.918,0.025c0.664,0.341,1.162,0.933,1.71,1.421c0.544,0.485,1.99,1.129,2.197,1.213
		c5.035,2.03,10.38,2.849,15.686,3.844c3.106,0.582,7.47,0.631,10.175,2.776c0.617,0.489,1.003,1.67,0.94,2.586
		c0.043,0.102,0.048,0.224-0.011,0.366c-3.487,8.325-8.906,15.642-15.898,21.356c-0.42,0.343-0.978-0.029-0.978-0.427
		c-0.093-0.068-0.169-0.163-0.205-0.284c-0.6-2.016-1.061-4.059-1.34-6.145c-0.093-0.693-0.171-1.478,0.304-1.895
		c0.522-1.257,1.487-2.104,2.472-3.089c1.527-1.528,2.728-3.306,3.868-5.131c0.319-0.511,0.651-1.115,1.008-1.751
		c-1.425-0.337-2.842-0.94-3.734-1.282c-2.017-0.774-11.086-5.547-11.453-5.855c-0.007-0.006-0.012-0.013-0.018-0.019
		c-0.778-0.586-1.555-1.173-2.333-1.759c-0.21-0.159-0.266-0.392-0.223-0.6c-0.353-0.268-0.706-0.536-1.059-0.804
		c-0.152-0.116-0.222-0.271-0.233-0.427c-0.476-0.301-0.963-0.585-1.463-0.849c-0.965-0.426-1.93-0.852-2.895-1.278
		c-0.146-0.065-0.228-0.176-0.26-0.304c-0.112,0.068-0.224,0.137-0.336,0.209C23.009,3.69,22.426,2.912,22.871,2.468z"/>
	<path id="XMLID_918_" style="fill:#FAD6AF;" d="M17.856,7.9c1.97-3.846,7.097-5.933,10.79-3.096c3.15,2.42,3.913,7.43,3.243,11.237
		c-0.074,2.298-0.644,4.527-1.975,6.273c-0.57,0.748-1.232,1.285-1.945,1.646c0.274,1.442,0.099,7.466-0.212,8.695
		c-0.461,1.818-1.814-2.212-3.413-2.253c-0.458,0.067-0.916,0.103-1.334,0.136c-1.759,0.137-3.178,4.275-3.571,2.49
		c-0.502-2.281-0.336-9.593-0.159-11.931C16.672,17.445,15.777,11.958,17.856,7.9z"/>
	<path id="XMLID_917_" style="fill:#FAD6AF;" d="M19.075,29.473c1.493-0.175,7.174-0.615,10.731-0.581
		c-0.709,2.961-3.572,4.772-6.705,4.624c-2.717-0.129-5.104-1.581-6.546-3.762C17.403,29.651,18.251,29.57,19.075,29.473z"/>
	<path id="XMLID_916_" style="fill:#F5E8D8;" d="M2.57,46.163c1.04-2.242,2.08-4.484,3.12-6.726c1.587-3.42,2.865-7.42,6.737-8.808
		c1.323-0.475,2.752-0.708,4.178-0.881c1.444,2.166,3.822,3.608,6.529,3.736c3.121,0.148,5.973-1.651,6.696-4.592
		c1.148,0.012,2.074,0.073,2.56,0.21c1.384-0.33,2.71-0.881,3.918-1.644c1.515-0.958,2.617-2.438,4.155-3.346
		c3.38-1.996,4.282,3.148,5.237,5.298c0.354,0.798,0.745,1.58,1.207,2.321c0.441,0.709,1.116,1.301,1.513,2.024
		c0.786,1.432-0.044,2.567-1.157,3.451c-2.361,1.876-4.977,3.38-7.724,4.601c0.641,8.365,3.577,16.285,5.379,24.441
		c0.965,4.368,4.579,19.407-3.88,18.498c-1.997-0.215-3.915-1.117-5.885-1.521c-2.222-0.456-4.477-0.716-6.715-1.079
		c-3.96-0.641-7.977-1.667-11.203-4.167c-3.293-2.552-5.052-6.398-6.054-10.353c-1.167-4.609-1.72-9.429-2.172-14.165
		c-0.689-0.085-1.375-0.205-2.054-0.37c-1.575-0.382-4.174-1.051-5.253-2.365C0.563,49.343,1.959,47.481,2.57,46.163z"/>
	<path id="XMLID_915_" style="fill:#292E4A;" d="M21.1,2.237c2.037-0.1,4.334,0.357,6.172,1.41c0.151,0.062,2.434,1.623,2.427,2.009
		c-0.037,1.992-2.504,2.646-4.129,2.955c-1.194,0.227-2.37,0.165-3.576,0.152c-1.154-0.013-2.621,0.027-3.074,1.47
		c-0.296,0.943,0.386,1.487,0.605,2.29c0.218,0.8-0.138,1-0.446,1.706c-0.784,1.796,0.26,3.23,0.789,4.897
		c0.281,0.885,0.75,3.741-1.06,3.323c-1.659-0.383-3.004-3.343-3.691-4.674c-1.183-2.294-2.155-4.819-2.095-7.438
		C13.128,5.643,16.471,2.464,21.1,2.237z"/>
	<path id="XMLID_914_" style="fill:#292E4A;" d="M12.591,30.488c6.607,9.546,16.818,16.158,28.172,18.406
		c0.458-0.016,0.924,0.071,1.377,0.253c0.009,0.001,0.018,0.003,0.027,0.005c-0.001,0.002-0.001,0.003-0.002,0.005
		c0.06,0.025,0.121,0.042,0.18,0.07c0.821,0.387,0.194,1.488-0.574,1.361c-0.4-0.066-0.799-0.138-1.196-0.214
		c-0.343,0.079-0.628,0.29-0.835,0.581c0.192,1.029-0.068,2.302-0.291,3.154c-0.354,1.354-1.148,2.561-2.52,3.037
		c-1.652,0.573-3.62-0.021-5.246-0.43c-1.722-0.434-3.483-1.008-4.958-2.024c-1.759-1.212-2.619-2.799-2.922-4.556
		c-1.083-1.958-0.452-4.425,0.162-6.425c0.01-0.034,0.026-0.063,0.04-0.093c-4.951-3.253-9.288-7.447-12.7-12.376
		C10.758,30.449,12.049,29.704,12.591,30.488z"/>
</g>
</svg>
