<?xml version="1.0" encoding="iso-8859-1"?>
<!-- Generator: Adobe Illustrator 17.1.0, SVG Export Plug-In . SVG Version: 6.00 Build 0)  -->
<!DOCTYPE svg PUBLIC "-//W3C//DTD SVG 1.1//EN" "http://www.w3.org/Graphics/SVG/1.1/DTD/svg11.dtd">
<svg version="1.1" id="&#x56FE;&#x5C42;_1" xmlns="http://www.w3.org/2000/svg" xmlns:xlink="http://www.w3.org/1999/xlink" x="0px"
	 y="0px" viewBox="0 0 50.364 105.231" style="enable-background:new 0 0 50.364 105.231;" xml:space="preserve">
<g>
	<polygon style="fill:#BDDFE8;stroke:#D29E30;stroke-width:2;stroke-miterlimit:10;" points="43.499,23.578 35.124,42.146 
		21.502,34.908 29.877,16.34 	"/>
	<g>
		<polygon style="fill:#DEAC34;" points="35.117,36.067 34.186,38.131 24.999,33.249 25.93,31.186 		"/>
		<polygon style="fill:#DEAC34;" points="36.745,32.457 35.815,34.52 26.628,29.639 27.558,27.576 		"/>
		<polygon style="fill:#DEAC34;" points="38.373,28.847 37.443,30.91 28.256,26.028 29.186,23.965 		"/>
		<polygon style="fill:#DEAC34;" points="40.002,25.236 39.071,27.299 29.884,22.418 30.815,20.355 		"/>
	</g>
	<path style="fill:#FDEDF1;" d="M43.533,36.607c-0.637-0.378,3.062-0.379,2.641-1.329c-0.275-0.62-4.023-1.169-5.933,1.784
		c-0.142,0.22-0.268,0.631-0.419,0.845l2.274,2.729c0.356-0.387,1.849-0.617,2.746-0.86c1.68-0.457,2.162-0.829,3.598-2.128
		c0.389-0.352,1.506-1.239,1.412-1.474C49.509,35.313,45.177,37.582,43.533,36.607z"/>
	<path style="fill:#FDEDF1;" d="M18.676,2.966c0,0,2.388,0.763,2.388,3.052s0.682,3.433,0.682,4.577s-0.67,6.262-2.035,6.262
		c-3.472,0-7.365-2.143-7.422-4.548C12.17,7.242,14.582,4.111,18.676,2.966z"/>
	<path style="fill:#232134;" d="M18.035,0.096c0,0,2.234,0.859,2.435,2.87c0.226,2.266-0.442,4.424-1.222,4.677
		c-1.572,0.509-2.889-1.57-2.649,0.639c0.205,1.896,1.881,2.846,0.345,4.564s-3.119,1.362-4.655,0.504
		c-1.536-0.859-4.429-6.627-2.257-9.531C12.14,1.002,14.196,0.096,18.035,0.096z"/>
	<path style="fill:#302D48;" d="M6.064,77.016c0,0-1.54,24.912-1.893,25.295c-0.353,0.383,0.353,2.297,1.058,2.68
		c0.705,0.383,7.054,0,7.054,0c1.411-0.766-1.764-3.063-4.233-3.063c0,0,4.238-15.947,3.759-31.409L6.064,77.016z"/>
	<path style="fill:#302D48;" d="M19.083,67.224c0,0,1.589,35.125,1.323,35.583s0.091,1.637,0.857,1.842s7.591-0.468,7.591-0.468
		c-0.018-1.473-2.341-3.73-4.749-3.141c3.699-13.277,0.921-30.658-0.204-34.995L19.083,67.224z"/>
	<path style="fill:#023E97;" d="M2.533,17.052c1.742-1.903,6.131-1.053,7.542-1.819c1.436-0.78,1.021-2.27,1.197-2.079
		c0,0,6.584-0.646,6.584,3.378c0,1.429,1.526,0.684,6.464,2.599c4.938,1.914,5.77,23.843,7.601,23.843
		c1.556,0,5.743-2.507,7.871-5.526l2.696,3.353c-1.649,2.888-8.016,10.924-10.627,10.424c-4.07-0.78-4.848-1.884-6.763-10.59
		c-0.711-3.23,1.064,12.832,1.154,17.671c0.515,14.086,0.991,28.242,1.551,29.458l-2.567,1.734L21.91,67.583l-0.419,24.108
		c0,0-5.957,1.258-11.326,0c-6.908-1.618-9.671-4.953-9.671-4.953s0.496-31.41,0.86-40.004C1.833,35.43-1.541,21.502,2.533,17.052z"
		/>
</g>
</svg>
