<?xml version="1.0" encoding="iso-8859-1"?>
<!-- Generator: Adobe Illustrator 17.1.0, SVG Export Plug-In . SVG Version: 6.00 Build 0)  -->
<!DOCTYPE svg PUBLIC "-//W3C//DTD SVG 1.1//EN" "http://www.w3.org/Graphics/SVG/1.1/DTD/svg11.dtd">
<svg version="1.1" id="&#x56FE;&#x5C42;_1" xmlns="http://www.w3.org/2000/svg" xmlns:xlink="http://www.w3.org/1999/xlink" x="0px"
	 y="0px" viewBox="0 0 89.154 99.174" style="enable-background:new 0 0 89.154 99.174;" xml:space="preserve">
<g>
	<g id="XMLID_677_">
		<path id="XMLID_683_" style="fill:#4D2B2E;" d="M20.463,67.546l-2.394,18.312c0,0,0.895,1.246,2.122,0.619L24.1,68.049
			L20.463,67.546z"/>
		<path id="XMLID_682_" style="fill:#4D2B2E;" d="M40.389,63.901l2.98,19.632c0,0,1.112,0.808,2.013-0.034L43.66,62.895
			L40.389,63.901z"/>
		<path id="XMLID_681_" style="fill:#4D2B2E;" d="M52.727,75.362l2.368,19.484c0,0,1.184,0.887,2.21,0.051l-0.933-19.938
			L52.727,75.362z"/>
		<path id="XMLID_680_" style="fill:#4D2B2E;" d="M72.828,66.092l2.813,18.739c0,0,1.112,0.808,2.013-0.034l-1.554-19.711
			L72.828,66.092z"/>
		<linearGradient id="XMLID_2_" gradientUnits="userSpaceOnUse" x1="41.4544" y1="41.4121" x2="88.0848" y2="41.4121">
			<stop  offset="0" style="stop-color:#113D86"/>
			<stop  offset="1" style="stop-color:#34A4DD"/>
		</linearGradient>
		<path id="XMLID_679_" style="fill:url(#XMLID_2_);" d="M42.993,57c-0.244-0.311-3.052-34.254-0.421-35.162
			c2.631-0.908,13.154,2.957,26.624,2.393c13.47-0.565,16.311-0.918,18.416,0.522c2.105,1.439-3.368,11.979-5.683,19.548
			c-2.315,7.569-5.262,16.825-5.262,16.825s-3.473-0.232-9.155-0.477S45.413,60.077,42.993,57z"/>
		<path id="XMLID_678_" style="fill:#2B2964;" d="M42.993,57c0,0-22.836-1.078-25.362,0c-2.526,1.078-3.999,3.183,1.789,9.392
			c5.788,6.209,17.469,10.418,29.992,9.471c12.523-0.947,27.256-14.737,27.256-14.737s-3.999-1.68-11.892-1.404
			C60.042,59.886,46.36,59.499,42.993,57z"/>
	</g>
	<g id="XMLID_672_">
		<path id="XMLID_676_" style="fill:#EEB19D;" d="M29.162,27.694c-0.537-1.825-0.336-1.357-2.225-3.006
			c-1.596-1.393-1.886-3.261-2.157-3.101c-0.764,0.449-0.244,1.742,0.067,2.539c0.405,1.034-1.382,1.338-1.382,1.338
			s-2.269,0.43-4.239,0.9c-3.576,0.854-2.001,1.618-2.001,1.618s-0.651,0.406-0.471,0.719c0.251,0.436,1.19,0.227,1.19,0.227
			s-0.711,0.685,0.066,0.802c0.395,0.059,1.359-0.212,1.359-0.212s-0.914,0.545,0.118,0.805c0.606,0.153,7.033-0.542,7.289-0.472
			C27.033,29.922,29.699,29.52,29.162,27.694z"/>
		<path id="XMLID_675_" style="fill:#DF9383;" d="M21.638,26.736c-1.595,0.208-2.823,0.474-4.294,0.997
			c-0.233,0.083-0.31,0.452-0.079,0.37c1.437-0.511,2.931-0.862,4.488-1.064C22.005,27.006,21.889,26.704,21.638,26.736z"/>
		<path id="XMLID_674_" style="fill:#DF9383;" d="M22.349,27.623c-1.595,0.207-2.823,0.474-4.294,0.996
			c-0.233,0.083-0.31,0.452-0.079,0.37c1.437-0.511,2.931-0.861,4.488-1.063C22.716,27.894,22.6,27.591,22.349,27.623z"/>
		<path id="XMLID_673_" style="fill:#DF9383;" d="M22.864,28.644c-1.305,0.119-2.315,0.317-3.537,0.757
			c-0.194,0.07-0.278,0.434-0.085,0.365c1.194-0.43,2.425-0.697,3.698-0.813C23.146,28.934,23.069,28.626,22.864,28.644z"/>
	</g>
	<path id="XMLID_671_" style="fill:#F4EBE6;" d="M53.589,20.853l8.135-1.333c0,0,2.408,10.337,0.889,18.472
		c-1.519,8.135-4.492,21.444-4.492,21.444s-7.813-0.89-10.106-4.291C45.724,51.744,53.589,20.853,53.589,20.853z"/>
	<path id="XMLID_670_" style="fill:#9E3230;" d="M22.982,87.893l-1.618,3.302c0,0,2.577,1.71,4.524,1.144l1.588-2.902L22.982,87.893
		z"/>
	<path id="XMLID_669_" style="fill:#9E3230;" d="M13.677,85.209l-1.618,3.805c0,0,3.416,2.243,4.434,1.346l1.708-3.623
		L13.677,85.209z"/>
	<path id="XMLID_668_" style="fill:#EFB6A8;" d="M60.825,15.393c-0.719-2.121,2.057-5.36,1.767-8.065
		c-0.291-2.705-2.203-4.939-5.54-5.88c-2.502-0.705-4.003-0.093-5.004,0.62c-0.044,0.031-0.085,0.067-0.128,0.1
		c-0.196,0.125-0.38,0.257-0.556,0.394c-0.705,0.51-1.25,1.143-1.679,1.856c-0.768,1.189-1.047,2.718-1.304,5.471
		c-0.167,1.794-1.36,2.215-1.412,2.652c-0.095,0.794,0.897,0.831,1.183,1.186c0.286,0.355,0.269,0.613,0.431,1.15
		c0.166,0.553,0.2,0.889,0.48,1.862c0.099,0.346,0.283,1.833,0.783,2.167c1.204,0.805,2.612,0.059,3.167,0.108
		c0.874,0.077,1.065,2.884,1.065,2.884s2.524,4.497,8.097-1.315C62.173,20.583,61.154,16.364,60.825,15.393z"/>
	<path id="XMLID_667_" style="fill:#EFB6A8;" d="M55.767,9.88c0,0,0.565-2.007,2.085-1.902s1.425,3.995,0.401,4.688
		C57.23,13.358,55.232,13.605,55.767,9.88z"/>
	<path id="XMLID_666_" style="fill:#4D2B2E;" d="M54.533,7.399c0,0,0.759,3.895,0.26,4.674c-0.499,0.779-4.511,0.573-5.292,1.005
		c-0.781,0.433-1.226,0.827-1.226,0.827s0.198,1.014,0.322,2.332c0.124,1.318,0.149,2.966,0.841,3.206
		c0.691,0.24,2.243-0.148,3.355-0.418c1.112-0.271,3.269-0.72,4.018-2.338s-0.481-6.9-0.436-7.98
		C56.418,7.627,54.533,7.399,54.533,7.399z"/>
	<path id="XMLID_665_" style="fill:#4D2B2E;" d="M48.852,7.89c0.459-0.281,1.021-0.327,1.584-0.177
		c0.44,0.117,0.286,0.767-0.15,0.651c-0.39-0.104-0.762-0.031-1.073,0.16C48.859,8.741,48.499,8.106,48.852,7.89z"/>
	<path id="XMLID_664_" style="fill:#E8DFDA;" d="M44.449,54.947c0,0-18.697,0.66-20.974,1.708
		c-2.277,1.048-10.547,28.554-10.547,28.554s3.056,2.816,7.011,1.738c0,0,3.715-7.67,5.933-12.704
		c2.217-5.034,2.457-7.551,2.876-7.79c0.419-0.24,15.101-1.918,16.06-2.097c0.959-0.18,7.491-3.578,7.491-3.578
		S45.827,54.587,44.449,54.947z"/>
	<path id="XMLID_663_" style="fill:#F4EBE6;" d="M51.956,56.603c0,0-17.498,3.891-18.697,5.494
		C32.061,63.699,21.754,87.07,21.754,87.07s1.092,1.078,3.326,1.939c3.026,1.165,3.296,0.698,3.296,0.698
		c0.39,0.18,6.382-8.27,8.479-12.165c2.097-3.895,2.697-6.532,3.775-7.191c1.079-0.659,16.18-1.498,18.217-2.876
		c2.037-1.378,3.566-4.974,3.566-4.974L51.956,56.603z"/>
	<path id="XMLID_662_" style="fill:#4D2B2E;" d="M53.203,0c-1.281,0.192-3.407,0.993-4.284,1.956
		c-1.546,1.698-1.262,2.625-0.544,2.987c1.106,0.557,2.722-0.495,3.867,0.06c1.145,0.555,0.883,1.539,1.927,2.562
		c0.553,0.543,2.146,1.004,2.146,1.004c0.602-1.243,1.686-1.085,1.963-0.704c0.217,0.299,0.579,1.333,0.614,2.39
		c0.057,1.723-1.548,2.015-1.548,2.015c0.157,1.243,2.638,2.426,3.481,3.125c0,0-0.519-0.848,1.185-3.721
		c1.704-2.873,2.138-6.833-0.827-9.456C58.219-0.407,54.748-0.231,53.203,0z"/>
	<path id="XMLID_661_" style="fill:#4D2B2E;" d="M49.501,9.193c-0.076-0.097-0.239-0.106-0.297,0.019
		c-0.07,0.151-0.095,0.31-0.08,0.465c0.012,0.199,0.094,0.38,0.24,0.533c0.072,0.075,0.23,0.047,0.268-0.052
		C49.757,9.831,49.721,9.474,49.501,9.193z"/>
	<path id="XMLID_660_" style="fill:#E19C8A;" d="M48.856,15.095c0.256-0.063,0.502-0.155,0.737-0.274
		c0.206-0.104,0.035-0.421-0.172-0.316c-0.208,0.105-0.421,0.184-0.647,0.239C48.549,14.8,48.63,15.15,48.856,15.095z"/>
	<path id="XMLID_659_" style="fill:#6D242C;" d="M52.737,20.853c0,0-7.871,2.563-7.672,4.015c0.199,1.452,1.206,13.423,0.873,17.798
		c-0.333,4.375-4.228,9.888-4.109,10.187c0.12,0.3,3.004,3.066,4.109,3.75c1.105,0.684,2.412,1.171,2.77,0.933
		c0.358-0.238,5.676-8.909,6.08-15.815C55.192,34.815,52.737,20.853,52.737,20.853z"/>
	<path id="XMLID_658_" style="fill:#6D242C;" d="M62.413,18.156c0.09,0.18,11.291,4.668,11.96,4.82s-7.376,33.766-9.114,36.825
		c-1.738,3.059-1.909,3.658-1.909,3.658s-7.709-3.44-8.563-4.596c-0.854-1.156,2.861-16.677,2.861-16.677s3.835-10.142,4.195-12.412
		C62.203,27.504,62.413,18.156,62.413,18.156z"/>
	<g id="XMLID_654_">
		<path id="XMLID_655_" style="fill:#4D2B2E;" d="M48.948,12.24c-0.335,0-0.645-0.595-0.787-1.221
			c-0.151-0.665-0.116-1.381,0.243-1.462c0.12-0.027,0.304,0.011,0.512,0.341c0.141,0.224,0.261,0.533,0.337,0.873
			c0.077,0.339,0.103,0.671,0.072,0.933c-0.045,0.388-0.196,0.502-0.315,0.529C48.99,12.238,48.968,12.24,48.948,12.24z
			 M48.466,9.787c-0.117,0.025-0.237,0.463-0.074,1.18c0.162,0.717,0.465,1.06,0.566,1.036c0.047-0.011,0.108-0.117,0.132-0.325
			c0.027-0.236,0.003-0.539-0.068-0.853c-0.071-0.314-0.18-0.598-0.307-0.799C48.611,9.859,48.516,9.787,48.466,9.787z"/>
	</g>
	<g id="XMLID_652_">
		
			<rect id="XMLID_653_" x="52.535" y="5.603" transform="matrix(0.2579 0.9662 -0.9662 0.2579 48.1366 -43.9122)" style="fill:#4D2B2E;" width="0.237" height="7.551"/>
	</g>
	<g id="XMLID_647_">
		<path id="XMLID_651_" style="fill:#EEB19D;" d="M58.427,58.659c0,0-1.888,0.977-3.998,1.479c-2.11,0.501-3.111,0.424-4.117,1.16
			c-1.006,0.736-1.582,0.478-1.385-0.079c0,0-1.638,1.672-2.104,0.403c0,0-1.067,0.244-0.86-0.397
			c0.154-0.478,0.59-1.031,0.59-1.031s-0.697,0.197-0.402-0.704c0.48-1.464,2.311-3.286,3.51-3.741
			c1.745-0.662,7.442-0.603,7.442-0.603S58.747,58.131,58.427,58.659z"/>
		<path id="XMLID_650_" style="fill:#DF9383;" d="M52.162,58.875c0.203-0.078,0.317,0.245,0.116,0.322
			c-1.59,0.612-2.419,1.045-3.328,2.403c-0.115,0.172-0.433,0.004-0.317-0.17C49.593,59.995,50.483,59.52,52.162,58.875z"/>
		<path id="XMLID_649_" style="fill:#DF9383;" d="M50.873,57.89c0.211-0.094,0.313,0.251,0.104,0.344
			c-1.657,0.736-3.017,1.895-4.01,3.41c-0.126,0.192-0.444,0.024-0.317-0.17C47.7,59.873,49.124,58.667,50.873,57.89z"/>
		<path id="XMLID_648_" style="fill:#DF9383;" d="M50.358,56.618c0.2-0.087,0.301,0.239,0.102,0.325
			c-1.573,0.679-2.858,1.757-3.792,3.175c-0.118,0.18-0.423,0.019-0.304-0.163C47.351,58.457,48.697,57.334,50.358,56.618z"/>
	</g>
	<path id="XMLID_646_" style="fill:#F4EBE6;" d="M56.493,54.741c-0.192,0.15-1.66,0.404-1.66,0.404s0.27,3.515,1.468,4.657
		l2.168-0.938L56.493,54.741z"/>
	<path id="XMLID_645_" style="fill:#913652;" d="M53.662,19.764c0,0-4.689,4.385-3.976,4.684c0.712,0.3,3.289,1.289,3.289,1.513
		c0,0.224-2.116,2.725-1.883,3.084c2.959,4.554,3.695,12.676,3.695,12.676c0.338-3.116,1.646-12.899,0.786-15.356
		c-0.514-1.467-1.433-3.137-1.504-4.547C54.009,20.598,53.806,20.021,53.662,19.764z"/>
	<path id="XMLID_644_" style="fill:#913652;" d="M61.256,16.923c0,0,0.348,4.08-0.371,9.039c-0.719,4.959-2.517,13.049-3.236,16.224
		c0,0,2.354-6.592,5.702-10.008c3.347-3.416,3.407-4.082,3.107-4.558c-0.3-0.476-1.798-2.753-1.798-2.753s2.517-1.002,2.517-1.31
		C67.177,23.25,63.186,17.607,61.256,16.923z"/>
	<path id="XMLID_643_" style="fill:#772D41;" d="M74.608,23.01c-1.661-0.299-3.236,0.293-4.255,4.611
		c-1.019,4.318-1.978,16.663-2.577,17.741c-0.599,1.079-11.671,9.086-11.671,9.086s0.726,3.853,2.363,5.354
		c0,0,9.428-3.473,13.383-6.469c3.955-2.996,4.674-3.775,5.333-8.27C77.844,40.568,79.941,23.969,74.608,23.01z"/>
	<path id="XMLID_642_" style="fill:#D9D0CB;" d="M26.368,30.081l1.594,1.528c0,0,1.942-0.599,2.421-3.745l-1.15-1.348
		C29.234,26.516,28.166,29.212,26.368,30.081z"/>
	<path id="XMLID_641_" style="fill:#772D41;" d="M45.065,24.868c-0.599,0.599-3.715,11.026-3.895,11.026
		c-0.18,0-11.146-9.16-11.146-9.16s-0.3,3.767-2.757,4.726c0,0,7.611,9.768,10.966,12.405c3.356,2.637,6.18,3.536,7.704,0.539
		C47.462,41.407,45.065,24.868,45.065,24.868z"/>
	<g id="XMLID_637_">
		<path id="XMLID_640_" style="fill:#424359;" d="M15.22,89.817c-0.92-0.347-2.551-1.75-3.724-0.974
			c-1.173,0.777-5.296,3.322-6.504,3.591c-1.208,0.269-3.94-0.5-4.119,2.153c0,0,1.071,1.219,3.758,1.506
			c2.687,0.287,6.148-0.89,8.118-0.961c1.97-0.071,4.359,0.109,4.594-0.209c0.235-0.318-0.245-4.259-0.359-4.862
			C16.87,89.459,15.22,89.817,15.22,89.817z"/>
		<path id="XMLID_639_" style="fill:#4D2B2E;" d="M0.874,94.588c0,0-0.169-0.155-0.435,0.701c-0.067,0.215,1.43,1.55,3.891,1.726
			c4.389,0.314,6.77-1.141,7.615-1.365c0.846-0.224,0.846-0.224,0.846-0.224l-0.01,0.932l4.508-0.019l0.205-2.025
			c0,0-2.277-0.386-6.449,0.808C7.477,96.143,3.66,96.771,0.874,94.588z"/>
		<path id="XMLID_638_" style="fill:#4D2B2E;" d="M7.672,91.163c0,0,1.033,0.101,1.721,1.21c0.688,1.11,5.827-2.557,5.827-2.557
			s-2.039-2.188-3.423-1.374C9.42,89.841,7.672,91.163,7.672,91.163z"/>
	</g>
	<g id="XMLID_633_">
		<path id="XMLID_636_" style="fill:#424359;" d="M24.637,91.945c-0.891-0.415-2.412-1.938-3.64-1.251
			c-1.228,0.686-5.531,2.914-6.756,3.091c-1.224,0.177-3.891-0.796-4.27,1.836c0,0,0.976,1.296,3.634,1.785
			c2.658,0.489,6.198-0.425,8.167-0.347c1.969,0.078,4.339,0.437,4.596,0.138c0.258-0.299,0.077-4.266,0.009-4.875
			C26.309,91.713,24.637,91.945,24.637,91.945z"/>
		<path id="XMLID_635_" style="fill:#4D2B2E;" d="M9.971,95.621c0,0-0.157-0.167-0.486,0.666c-0.083,0.21,1.309,1.653,3.75,2.014
			c4.353,0.644,6.836-0.628,7.696-0.788c0.86-0.16,0.86-0.16,0.86-0.16l-0.08,0.929l4.496,0.321l0.357-2.004
			c0,0-2.242-0.556-6.492,0.32C16.439,97.669,12.585,98.009,9.971,95.621z"/>
		<path id="XMLID_634_" style="fill:#4D2B2E;" d="M17.009,92.718c0,0,1.022,0.178,1.625,1.337c0.602,1.159,6.003-2.11,6.003-2.11
			s-1.869-2.335-3.31-1.628C18.851,91.533,17.009,92.718,17.009,92.718z"/>
	</g>
	<path id="XMLID_632_" style="fill:#363F75;" d="M76.668,61.125c0,0-9.185-1.338-13.499,0.543
		c-4.315,1.881-3.473,11.668-13.681,14.194c0,0,7.472,0.059,17.469-4.338C76.954,67.128,76.247,65.751,76.668,61.125z"/>
</g>
</svg>
