<?xml version="1.0" encoding="iso-8859-1"?>
<!-- Generator: Adobe Illustrator 17.1.0, SVG Export Plug-In . SVG Version: 6.00 Build 0)  -->
<!DOCTYPE svg PUBLIC "-//W3C//DTD SVG 1.1//EN" "http://www.w3.org/Graphics/SVG/1.1/DTD/svg11.dtd">
<svg version="1.1" id="&#x56FE;&#x5C42;_1" xmlns="http://www.w3.org/2000/svg" xmlns:xlink="http://www.w3.org/1999/xlink" x="0px"
	 y="0px" viewBox="0 0 163.273 343.273" style="enable-background:new 0 0 163.273 343.273;" xml:space="preserve">
<g>
	<g id="Rectangle-34_1_">
		<path style="fill:#82CDDF;" d="M93.116,68.393H44.955V37.062c0-15.226,10.802-27.614,24.081-27.614s24.081,12.387,24.081,27.614
			V68.393z M49.905,63.442h38.26v-26.38c0-12.496-8.582-22.663-19.13-22.663s-19.13,10.167-19.13,22.663V63.442z"/>
	</g>
	<g id="Rectangle-34-Copy_1_">
		<path style="fill:#82CDDF;" d="M111.95,59.394H63.79v-31.33c0-15.226,10.802-27.614,24.081-27.614
			c13.277,0,24.08,12.387,24.08,27.614V59.394z M68.741,54.443H107V28.064C107,15.568,98.419,5.4,87.871,5.4
			s-19.13,10.167-19.13,22.663V54.443z"/>
	</g>
	<g id="Rectangle-22_1_">
		<polygon style="fill:#3E5092;" points="24.163,190.618 136.066,192.618 136.066,343.889 24.163,343.889 		"/>
	</g>
	<g id="Rectangle-22-Copy-5_1_">
		<rect x="85.101" y="190.618" style="fill:#2A468C;" width="54.29" height="153.271"/>
	</g>
	<g id="Rectangle-33_1_">
		<g>
			<defs>
				<path id="SVGID_1_" d="M113.904,200.902h18.841c0.61,0,1.105,0.576,1.105,1.286v0c0,0.71-0.495,1.286-1.105,1.286h-18.841
					c-0.61,0-1.105-0.576-1.105-1.286v0C112.799,201.478,113.294,200.902,113.904,200.902z"/>
			</defs>
			<clipPath id="SVGID_2_">
				<use xlink:href="#SVGID_1_"  style="overflow:visible;"/>
			</clipPath>
			<polygon style="clip-path:url(#SVGID_2_);fill:#57B3E1;" points="113.928,200.902 112.799,200.966 112.799,200.902 			"/>
			<polygon style="clip-path:url(#SVGID_2_);fill:#57B3E1;" points="116.439,200.902 112.799,201.108 112.799,200.966 
				113.928,200.902 			"/>
			<polygon style="clip-path:url(#SVGID_2_);fill:#54B2E0;" points="118.949,200.902 112.799,201.25 112.799,201.108 
				116.439,200.902 			"/>
			<polygon style="clip-path:url(#SVGID_2_);fill:#54B2E0;" points="121.46,200.902 112.799,201.392 112.799,201.25 
				118.949,200.902 			"/>
			<polygon style="clip-path:url(#SVGID_2_);fill:#51B1E0;" points="123.971,200.902 112.799,201.533 112.799,201.392 
				121.46,200.902 			"/>
			<polygon style="clip-path:url(#SVGID_2_);fill:#51B1E0;" points="126.482,200.902 112.799,201.675 112.799,201.533 
				123.971,200.902 			"/>
			<polygon style="clip-path:url(#SVGID_2_);fill:#4EB0E0;" points="128.993,200.902 112.799,201.817 112.799,201.675 
				126.482,200.902 			"/>
			<polygon style="clip-path:url(#SVGID_2_);fill:#4BAFDF;" points="131.504,200.902 112.799,201.959 112.799,201.817 
				128.993,200.902 			"/>
			<polygon style="clip-path:url(#SVGID_2_);fill:#4BAFDF;" points="133.851,200.911 112.799,202.101 112.799,201.959 
				131.504,200.902 133.851,200.902 			"/>
			<polygon style="clip-path:url(#SVGID_2_);fill:#4BAFDF;" points="133.851,201.053 112.799,202.243 112.799,202.101 
				133.851,200.911 			"/>
			<polygon style="clip-path:url(#SVGID_2_);fill:#47AEDF;" points="133.851,201.195 112.799,202.385 112.799,202.243 
				133.851,201.053 			"/>
			<polygon style="clip-path:url(#SVGID_2_);fill:#47AEDF;" points="133.851,201.337 112.799,202.526 112.799,202.385 
				133.851,201.195 			"/>
			<polygon style="clip-path:url(#SVGID_2_);fill:#43AEDF;" points="133.851,201.479 112.799,202.668 112.799,202.526 
				133.851,201.337 			"/>
			<polygon style="clip-path:url(#SVGID_2_);fill:#43AEDF;" points="133.851,201.621 112.799,202.81 112.799,202.668 
				133.851,201.479 			"/>
			<polygon style="clip-path:url(#SVGID_2_);fill:#3FADDE;" points="133.851,201.763 112.799,202.952 112.799,202.81 
				133.851,201.621 			"/>
			<polygon style="clip-path:url(#SVGID_2_);fill:#3FADDE;" points="133.851,201.905 112.799,203.094 112.799,202.952 
				133.851,201.763 			"/>
			<polygon style="clip-path:url(#SVGID_2_);fill:#3BACDE;" points="133.851,202.046 112.799,203.236 112.799,203.094 
				133.851,201.905 			"/>
			<polygon style="clip-path:url(#SVGID_2_);fill:#3BACDE;" points="133.851,202.188 112.799,203.378 112.799,203.236 
				133.851,202.046 			"/>
			<polygon style="clip-path:url(#SVGID_2_);fill:#37ABDD;" points="133.851,202.33 113.617,203.473 112.799,203.473 
				112.799,203.378 133.851,202.188 			"/>
			<polygon style="clip-path:url(#SVGID_2_);fill:#37ABDD;" points="133.851,202.472 116.128,203.473 113.617,203.473 
				133.851,202.33 			"/>
			<polygon style="clip-path:url(#SVGID_2_);fill:#32AADD;" points="133.851,202.614 118.639,203.473 116.128,203.473 
				133.851,202.472 			"/>
			<polygon style="clip-path:url(#SVGID_2_);fill:#2DA9DD;" points="133.851,202.756 121.15,203.473 118.639,203.473 
				133.851,202.614 			"/>
			<polygon style="clip-path:url(#SVGID_2_);fill:#2DA9DD;" points="133.851,202.898 123.661,203.473 121.15,203.473 
				133.851,202.756 			"/>
			<polygon style="clip-path:url(#SVGID_2_);fill:#27A9DC;" points="133.851,203.039 126.171,203.473 123.661,203.473 
				133.851,202.898 			"/>
			<polygon style="clip-path:url(#SVGID_2_);fill:#27A9DC;" points="133.851,203.181 128.682,203.473 126.171,203.473 
				133.851,203.039 			"/>
			<polygon style="clip-path:url(#SVGID_2_);fill:#27A9DC;" points="133.851,203.323 131.193,203.473 128.682,203.473 
				133.851,203.181 			"/>
			<polygon style="clip-path:url(#SVGID_2_);fill:#20A8DC;" points="133.851,203.465 133.704,203.473 131.193,203.473 
				133.851,203.323 			"/>
			<polygon style="clip-path:url(#SVGID_2_);fill:#20A8DC;" points="133.704,203.473 133.851,203.465 133.851,203.473 			"/>
		</g>
	</g>
	<g id="Rectangle-33-Copy_1_">
		<g>
			<defs>
				<path id="SVGID_3_" d="M113.904,207.33h18.841c0.61,0,1.105,0.576,1.105,1.286v0c0,0.71-0.495,1.286-1.105,1.286h-18.841
					c-0.61,0-1.105-0.576-1.105-1.286v0C112.799,207.906,113.294,207.33,113.904,207.33z"/>
			</defs>
			<clipPath id="SVGID_4_">
				<use xlink:href="#SVGID_3_"  style="overflow:visible;"/>
			</clipPath>
			<polygon style="clip-path:url(#SVGID_4_);fill:#57B3E1;" points="113.928,207.33 112.799,207.394 112.799,207.33 			"/>
			<polygon style="clip-path:url(#SVGID_4_);fill:#57B3E1;" points="116.439,207.33 112.799,207.536 112.799,207.394 
				113.928,207.33 			"/>
			<polygon style="clip-path:url(#SVGID_4_);fill:#54B2E0;" points="118.949,207.33 112.799,207.678 112.799,207.536 
				116.439,207.33 			"/>
			<polygon style="clip-path:url(#SVGID_4_);fill:#54B2E0;" points="121.46,207.33 112.799,207.819 112.799,207.678 118.949,207.33 
							"/>
			<polygon style="clip-path:url(#SVGID_4_);fill:#51B1E0;" points="123.971,207.33 112.799,207.961 112.799,207.819 121.46,207.33 
							"/>
			<polygon style="clip-path:url(#SVGID_4_);fill:#51B1E0;" points="126.482,207.33 112.799,208.103 112.799,207.961 
				123.971,207.33 			"/>
			<polygon style="clip-path:url(#SVGID_4_);fill:#4EB0E0;" points="128.993,207.33 112.799,208.245 112.799,208.103 
				126.482,207.33 			"/>
			<polygon style="clip-path:url(#SVGID_4_);fill:#4BAFDF;" points="131.504,207.33 112.799,208.387 112.799,208.245 
				128.993,207.33 			"/>
			<polygon style="clip-path:url(#SVGID_4_);fill:#4BAFDF;" points="133.851,207.339 112.799,208.529 112.799,208.387 
				131.504,207.33 133.851,207.33 			"/>
			<polygon style="clip-path:url(#SVGID_4_);fill:#4BAFDF;" points="133.851,207.481 112.799,208.671 112.799,208.529 
				133.851,207.339 			"/>
			<polygon style="clip-path:url(#SVGID_4_);fill:#47AEDF;" points="133.851,207.623 112.799,208.812 112.799,208.671 
				133.851,207.481 			"/>
			<polygon style="clip-path:url(#SVGID_4_);fill:#47AEDF;" points="133.851,207.765 112.799,208.954 112.799,208.812 
				133.851,207.623 			"/>
			<polygon style="clip-path:url(#SVGID_4_);fill:#43AEDF;" points="133.851,207.907 112.799,209.096 112.799,208.954 
				133.851,207.765 			"/>
			<polygon style="clip-path:url(#SVGID_4_);fill:#43AEDF;" points="133.851,208.049 112.799,209.238 112.799,209.096 
				133.851,207.907 			"/>
			<polygon style="clip-path:url(#SVGID_4_);fill:#3FADDE;" points="133.851,208.19 112.799,209.38 112.799,209.238 
				133.851,208.049 			"/>
			<polygon style="clip-path:url(#SVGID_4_);fill:#3FADDE;" points="133.851,208.332 112.799,209.522 112.799,209.38 
				133.851,208.19 			"/>
			<polygon style="clip-path:url(#SVGID_4_);fill:#3BACDE;" points="133.851,208.474 112.799,209.664 112.799,209.522 
				133.851,208.332 			"/>
			<polygon style="clip-path:url(#SVGID_4_);fill:#3BACDE;" points="133.851,208.616 112.799,209.805 112.799,209.664 
				133.851,208.474 			"/>
			<polygon style="clip-path:url(#SVGID_4_);fill:#37ABDD;" points="133.851,208.758 113.617,209.901 112.799,209.901 
				112.799,209.805 133.851,208.616 			"/>
			<polygon style="clip-path:url(#SVGID_4_);fill:#37ABDD;" points="133.851,208.9 116.128,209.901 113.617,209.901 
				133.851,208.758 			"/>
			<polygon style="clip-path:url(#SVGID_4_);fill:#32AADD;" points="133.851,209.042 118.639,209.901 116.128,209.901 
				133.851,208.9 			"/>
			<polygon style="clip-path:url(#SVGID_4_);fill:#2DA9DD;" points="133.851,209.184 121.15,209.901 118.639,209.901 
				133.851,209.042 			"/>
			<polygon style="clip-path:url(#SVGID_4_);fill:#2DA9DD;" points="133.851,209.325 123.661,209.901 121.15,209.901 
				133.851,209.184 			"/>
			<polygon style="clip-path:url(#SVGID_4_);fill:#27A9DC;" points="133.851,209.467 126.171,209.901 123.661,209.901 
				133.851,209.325 			"/>
			<polygon style="clip-path:url(#SVGID_4_);fill:#27A9DC;" points="133.851,209.609 128.682,209.901 126.171,209.901 
				133.851,209.467 			"/>
			<polygon style="clip-path:url(#SVGID_4_);fill:#27A9DC;" points="133.851,209.751 131.193,209.901 128.682,209.901 
				133.851,209.609 			"/>
			<polygon style="clip-path:url(#SVGID_4_);fill:#20A8DC;" points="133.851,209.893 133.704,209.901 131.193,209.901 
				133.851,209.751 			"/>
			<polygon style="clip-path:url(#SVGID_4_);fill:#20A8DC;" points="133.704,209.901 133.851,209.893 133.851,209.901 			"/>
		</g>
	</g>
	<g id="Rectangle-33-Copy-2_1_">
		<g>
			<defs>
				<path id="SVGID_5_" d="M113.904,213.758h18.841c0.61,0,1.105,0.576,1.105,1.286v0c0,0.71-0.495,1.286-1.105,1.286h-18.841
					c-0.61,0-1.105-0.576-1.105-1.286v0C112.799,214.333,113.294,213.758,113.904,213.758z"/>
			</defs>
			<clipPath id="SVGID_6_">
				<use xlink:href="#SVGID_5_"  style="overflow:visible;"/>
			</clipPath>
			<polygon style="clip-path:url(#SVGID_6_);fill:#57B3E1;" points="113.928,213.758 112.799,213.822 112.799,213.758 			"/>
			<polygon style="clip-path:url(#SVGID_6_);fill:#57B3E1;" points="116.439,213.758 112.799,213.963 112.799,213.822 
				113.928,213.758 			"/>
			<polygon style="clip-path:url(#SVGID_6_);fill:#54B2E0;" points="118.949,213.758 112.799,214.105 112.799,213.963 
				116.439,213.758 			"/>
			<polygon style="clip-path:url(#SVGID_6_);fill:#54B2E0;" points="121.46,213.758 112.799,214.247 112.799,214.105 
				118.949,213.758 			"/>
			<polygon style="clip-path:url(#SVGID_6_);fill:#51B1E0;" points="123.971,213.758 112.799,214.389 112.799,214.247 
				121.46,213.758 			"/>
			<polygon style="clip-path:url(#SVGID_6_);fill:#51B1E0;" points="126.482,213.758 112.799,214.531 112.799,214.389 
				123.971,213.758 			"/>
			<polygon style="clip-path:url(#SVGID_6_);fill:#4EB0E0;" points="128.993,213.758 112.799,214.673 112.799,214.531 
				126.482,213.758 			"/>
			<polygon style="clip-path:url(#SVGID_6_);fill:#4BAFDF;" points="131.504,213.758 112.799,214.815 112.799,214.673 
				128.993,213.758 			"/>
			<polygon style="clip-path:url(#SVGID_6_);fill:#4BAFDF;" points="133.851,213.767 112.799,214.957 112.799,214.815 
				131.504,213.758 133.851,213.758 			"/>
			<polygon style="clip-path:url(#SVGID_6_);fill:#4BAFDF;" points="133.851,213.909 112.799,215.098 112.799,214.957 
				133.851,213.767 			"/>
			<polygon style="clip-path:url(#SVGID_6_);fill:#47AEDF;" points="133.851,214.051 112.799,215.24 112.799,215.098 
				133.851,213.909 			"/>
			<polygon style="clip-path:url(#SVGID_6_);fill:#47AEDF;" points="133.851,214.193 112.799,215.382 112.799,215.24 
				133.851,214.051 			"/>
			<polygon style="clip-path:url(#SVGID_6_);fill:#43AEDF;" points="133.851,214.335 112.799,215.524 112.799,215.382 
				133.851,214.193 			"/>
			<polygon style="clip-path:url(#SVGID_6_);fill:#43AEDF;" points="133.851,214.476 112.799,215.666 112.799,215.524 
				133.851,214.335 			"/>
			<polygon style="clip-path:url(#SVGID_6_);fill:#3FADDE;" points="133.851,214.618 112.799,215.808 112.799,215.666 
				133.851,214.476 			"/>
			<polygon style="clip-path:url(#SVGID_6_);fill:#3FADDE;" points="133.851,214.76 112.799,215.95 112.799,215.808 
				133.851,214.618 			"/>
			<polygon style="clip-path:url(#SVGID_6_);fill:#3BACDE;" points="133.851,214.902 112.799,216.091 112.799,215.95 
				133.851,214.76 			"/>
			<polygon style="clip-path:url(#SVGID_6_);fill:#3BACDE;" points="133.851,215.044 112.799,216.233 112.799,216.091 
				133.851,214.902 			"/>
			<polygon style="clip-path:url(#SVGID_6_);fill:#37ABDD;" points="133.851,215.186 113.617,216.329 112.799,216.329 
				112.799,216.233 133.851,215.044 			"/>
			<polygon style="clip-path:url(#SVGID_6_);fill:#37ABDD;" points="133.851,215.328 116.128,216.329 113.617,216.329 
				133.851,215.186 			"/>
			<polygon style="clip-path:url(#SVGID_6_);fill:#32AADD;" points="133.851,215.469 118.639,216.329 116.128,216.329 
				133.851,215.328 			"/>
			<polygon style="clip-path:url(#SVGID_6_);fill:#2DA9DD;" points="133.851,215.611 121.15,216.329 118.639,216.329 
				133.851,215.469 			"/>
			<polygon style="clip-path:url(#SVGID_6_);fill:#2DA9DD;" points="133.851,215.753 123.661,216.329 121.15,216.329 
				133.851,215.611 			"/>
			<polygon style="clip-path:url(#SVGID_6_);fill:#27A9DC;" points="133.851,215.895 126.171,216.329 123.661,216.329 
				133.851,215.753 			"/>
			<polygon style="clip-path:url(#SVGID_6_);fill:#27A9DC;" points="133.851,216.037 128.682,216.329 126.171,216.329 
				133.851,215.895 			"/>
			<polygon style="clip-path:url(#SVGID_6_);fill:#27A9DC;" points="133.851,216.179 131.193,216.329 128.682,216.329 
				133.851,216.037 			"/>
			<polygon style="clip-path:url(#SVGID_6_);fill:#20A8DC;" points="133.851,216.321 133.704,216.329 131.193,216.329 
				133.851,216.179 			"/>
			<polygon style="clip-path:url(#SVGID_6_);fill:#20A8DC;" points="133.704,216.329 133.851,216.321 133.851,216.329 			"/>
		</g>
	</g>
	<g id="Path-131_1_">
		<g>
			<defs>
				<polygon id="SVGID_7_" points="111.806,56.919 111.691,172.532 114.585,174.082 114.585,56.919 				"/>
			</defs>
			<clipPath id="SVGID_8_">
				<use xlink:href="#SVGID_7_"  style="overflow:visible;"/>
			</clipPath>
			<polygon style="clip-path:url(#SVGID_8_);fill:#8797C5;" points="111.691,171.417 111.795,174.082 111.691,174.082 			"/>
			<polygon style="clip-path:url(#SVGID_8_);fill:#8595C4;" points="111.691,168.282 111.918,174.082 111.795,174.082 
				111.691,171.417 			"/>
			<polygon style="clip-path:url(#SVGID_8_);fill:#8595C4;" points="111.691,165.146 112.04,174.082 111.918,174.082 
				111.691,168.282 			"/>
			<polygon style="clip-path:url(#SVGID_8_);fill:#8192C3;" points="111.691,162.01 112.162,174.082 112.04,174.082 
				111.691,165.146 			"/>
			<polygon style="clip-path:url(#SVGID_8_);fill:#7F90C2;" points="111.691,158.874 112.285,174.082 112.162,174.082 
				111.691,162.01 			"/>
			<polygon style="clip-path:url(#SVGID_8_);fill:#7F90C2;" points="111.691,155.739 112.407,174.082 112.285,174.082 
				111.691,158.874 			"/>
			<polygon style="clip-path:url(#SVGID_8_);fill:#7B8DC0;" points="111.691,152.603 112.529,174.082 112.407,174.082 
				111.691,155.739 			"/>
			<polygon style="clip-path:url(#SVGID_8_);fill:#7B8DC0;" points="111.691,149.467 112.651,174.082 112.529,174.082 
				111.691,152.603 			"/>
			<polygon style="clip-path:url(#SVGID_8_);fill:#768ABE;" points="111.691,146.332 112.774,174.082 112.651,174.082 
				111.691,149.467 			"/>
			<polygon style="clip-path:url(#SVGID_8_);fill:#7489BD;" points="111.691,143.196 112.896,174.082 112.774,174.082 
				111.691,146.332 			"/>
			<polygon style="clip-path:url(#SVGID_8_);fill:#7489BD;" points="111.691,140.06 113.018,174.082 112.896,174.082 
				111.691,143.196 			"/>
			<polygon style="clip-path:url(#SVGID_8_);fill:#7086BB;" points="111.691,136.924 113.14,174.082 113.018,174.082 
				111.691,140.06 			"/>
			<polygon style="clip-path:url(#SVGID_8_);fill:#6E84BA;" points="111.691,133.789 113.263,174.082 113.14,174.082 
				111.691,136.924 			"/>
			<polygon style="clip-path:url(#SVGID_8_);fill:#6E84BA;" points="111.691,130.653 113.385,174.082 113.263,174.082 
				111.691,133.789 			"/>
			<polygon style="clip-path:url(#SVGID_8_);fill:#6C83B9;" points="111.691,127.517 113.507,174.082 113.385,174.082 
				111.691,130.653 			"/>
			<polygon style="clip-path:url(#SVGID_8_);fill:#6A81B9;" points="111.691,124.381 113.63,174.082 113.507,174.082 
				111.691,127.517 			"/>
			<polygon style="clip-path:url(#SVGID_8_);fill:#6880B8;" points="111.691,121.246 113.752,174.082 113.63,174.082 
				111.691,124.381 			"/>
			<polygon style="clip-path:url(#SVGID_8_);fill:#657EB7;" points="111.691,118.11 113.874,174.082 113.752,174.082 
				111.691,121.246 			"/>
			<polygon style="clip-path:url(#SVGID_8_);fill:#637DB6;" points="111.691,114.974 113.996,174.082 113.874,174.082 
				111.691,118.11 			"/>
			<polygon style="clip-path:url(#SVGID_8_);fill:#617BB5;" points="111.691,111.839 114.119,174.082 113.996,174.082 
				111.691,114.974 			"/>
			<polygon style="clip-path:url(#SVGID_8_);fill:#5F7AB4;" points="111.691,108.703 114.241,174.082 114.119,174.082 
				111.691,111.839 			"/>
			<polygon style="clip-path:url(#SVGID_8_);fill:#5C79B3;" points="111.691,105.567 114.363,174.082 114.241,174.082 
				111.691,108.703 			"/>
			<polygon style="clip-path:url(#SVGID_8_);fill:#5A77B2;" points="111.691,102.431 114.486,174.082 114.363,174.082 
				111.691,105.567 			"/>
			<polygon style="clip-path:url(#SVGID_8_);fill:#5876B2;" points="111.691,99.296 114.585,173.5 114.585,174.082 114.486,174.082 
				111.691,102.431 			"/>
			<polygon style="clip-path:url(#SVGID_8_);fill:#5574B1;" points="111.691,96.16 114.585,170.364 114.585,173.5 111.691,99.296 
							"/>
			<polygon style="clip-path:url(#SVGID_8_);fill:#5373B0;" points="111.691,93.024 114.585,167.229 114.585,170.364 111.691,96.16 
							"/>
			<polygon style="clip-path:url(#SVGID_8_);fill:#5172AF;" points="111.691,89.889 114.585,164.093 114.585,167.229 
				111.691,93.024 			"/>
			<polygon style="clip-path:url(#SVGID_8_);fill:#4E70AE;" points="111.691,86.753 114.585,160.957 114.585,164.093 
				111.691,89.889 			"/>
			<polygon style="clip-path:url(#SVGID_8_);fill:#4B6FAD;" points="111.691,83.617 114.585,157.822 114.585,160.957 
				111.691,86.753 			"/>
			<polygon style="clip-path:url(#SVGID_8_);fill:#496EAC;" points="111.691,80.481 114.585,154.686 114.585,157.822 
				111.691,83.617 			"/>
			<polygon style="clip-path:url(#SVGID_8_);fill:#466CAC;" points="111.691,77.346 114.585,151.55 114.585,154.686 111.691,80.481 
							"/>
			<polygon style="clip-path:url(#SVGID_8_);fill:#436BAB;" points="111.691,74.21 114.585,148.414 114.585,151.55 111.691,77.346 
							"/>
			<polygon style="clip-path:url(#SVGID_8_);fill:#416AAA;" points="111.691,71.074 114.585,145.279 114.585,148.414 111.691,74.21 
							"/>
			<polygon style="clip-path:url(#SVGID_8_);fill:#3E68A9;" points="111.691,67.938 114.585,142.143 114.585,145.279 
				111.691,71.074 			"/>
			<polygon style="clip-path:url(#SVGID_8_);fill:#3B67A8;" points="111.691,64.803 114.585,139.007 114.585,142.143 
				111.691,67.938 			"/>
			<polygon style="clip-path:url(#SVGID_8_);fill:#3866A8;" points="111.691,61.667 114.585,135.871 114.585,139.007 
				111.691,64.803 			"/>
			<polygon style="clip-path:url(#SVGID_8_);fill:#3565A7;" points="111.691,58.531 114.585,132.736 114.585,135.871 
				111.691,61.667 			"/>
			<polygon style="clip-path:url(#SVGID_8_);fill:#3263A6;" points="111.751,56.919 114.585,129.6 114.585,132.736 111.691,58.531 
				111.691,56.919 			"/>
			<polygon style="clip-path:url(#SVGID_8_);fill:#3263A6;" points="111.873,56.919 114.585,126.464 114.585,129.6 111.751,56.919 
							"/>
			<polygon style="clip-path:url(#SVGID_8_);fill:#2F62A5;" points="111.995,56.919 114.585,123.329 114.585,126.464 
				111.873,56.919 			"/>
			<polygon style="clip-path:url(#SVGID_8_);fill:#2C61A5;" points="112.118,56.919 114.585,120.193 114.585,123.329 
				111.995,56.919 			"/>
			<polygon style="clip-path:url(#SVGID_8_);fill:#2960A4;" points="112.24,56.919 114.585,117.057 114.585,120.193 112.118,56.919 
							"/>
			<polygon style="clip-path:url(#SVGID_8_);fill:#7FB5E2;" points="112.362,56.919 114.585,113.921 114.585,117.057 112.24,56.919 
							"/>
			<polygon style="clip-path:url(#SVGID_8_);fill:#7DB4E2;" points="112.485,56.919 114.585,110.786 114.585,113.921 
				112.362,56.919 			"/>
			<polygon style="clip-path:url(#SVGID_8_);fill:#7BB3E2;" points="112.607,56.919 114.585,107.65 114.585,110.786 112.485,56.919 
							"/>
			<polygon style="clip-path:url(#SVGID_8_);fill:#78B2E1;" points="112.729,56.919 114.585,104.514 114.585,107.65 112.607,56.919 
							"/>
			<polygon style="clip-path:url(#SVGID_8_);fill:#78B2E1;" points="112.851,56.919 114.585,101.378 114.585,104.514 
				112.729,56.919 			"/>
			<polygon style="clip-path:url(#SVGID_8_);fill:#76B1E1;" points="112.974,56.919 114.585,98.243 114.585,101.378 112.851,56.919 
							"/>
			<polygon style="clip-path:url(#SVGID_8_);fill:#74B0E0;" points="113.096,56.919 114.585,95.107 114.585,98.243 112.974,56.919 
							"/>
			<polygon style="clip-path:url(#SVGID_8_);fill:#74B0E0;" points="113.218,56.919 114.585,91.971 114.585,95.107 113.096,56.919 
							"/>
			<polygon style="clip-path:url(#SVGID_8_);fill:#72AFE0;" points="113.341,56.919 114.585,88.836 114.585,91.971 113.218,56.919 
							"/>
			<polygon style="clip-path:url(#SVGID_8_);fill:#72AFE0;" points="113.463,56.919 114.585,85.7 114.585,88.836 113.341,56.919 			
				"/>
			<polygon style="clip-path:url(#SVGID_8_);fill:#6FAEDF;" points="113.585,56.919 114.585,82.564 114.585,85.7 113.463,56.919 			
				"/>
			<polygon style="clip-path:url(#SVGID_8_);fill:#6DADDF;" points="113.707,56.919 114.585,79.428 114.585,82.564 113.585,56.919 
							"/>
			<polygon style="clip-path:url(#SVGID_8_);fill:#6AACDF;" points="113.83,56.919 114.585,76.293 114.585,79.428 113.707,56.919 
							"/>
			<polygon style="clip-path:url(#SVGID_8_);fill:#6AACDF;" points="113.952,56.919 114.585,73.157 114.585,76.293 113.83,56.919 
							"/>
			<polygon style="clip-path:url(#SVGID_8_);fill:#68ABDE;" points="114.074,56.919 114.585,70.021 114.585,73.157 113.952,56.919 
							"/>
			<polygon style="clip-path:url(#SVGID_8_);fill:#66AADE;" points="114.196,56.919 114.585,66.885 114.585,70.021 114.074,56.919 
							"/>
			<polygon style="clip-path:url(#SVGID_8_);fill:#66AADE;" points="114.585,66.885 114.196,56.919 114.585,56.919 			"/>
		</g>
	</g>
	<g id="Path-131-Copy_1_">
		<g>
			<defs>
				<polygon id="SVGID_9_" points="7.798,56.576 5.889,172.19 112.799,173.74 112.799,56.576 				"/>
			</defs>
			<clipPath id="SVGID_10_">
				<use xlink:href="#SVGID_9_"  style="overflow:visible;"/>
			</clipPath>
			<rect x="5.889" y="171.95" style="clip-path:url(#SVGID_10_);fill:#349BD7;" width="106.91" height="1.79"/>
			<rect x="5.889" y="168.685" style="clip-path:url(#SVGID_10_);fill:#349BD7;" width="106.91" height="3.265"/>
			<rect x="5.889" y="165.42" style="clip-path:url(#SVGID_10_);fill:#2F9AD7;" width="106.91" height="3.265"/>
			<rect x="5.889" y="162.155" style="clip-path:url(#SVGID_10_);fill:#2A99D6;" width="106.91" height="3.265"/>
			<rect x="5.889" y="158.89" style="clip-path:url(#SVGID_10_);fill:#2A99D6;" width="106.91" height="3.265"/>
			<rect x="5.889" y="155.625" style="clip-path:url(#SVGID_10_);fill:#4F5487;" width="106.91" height="3.265"/>
			<rect x="5.889" y="152.36" style="clip-path:url(#SVGID_10_);fill:#4F5487;" width="106.91" height="3.265"/>
			<rect x="5.889" y="149.095" style="clip-path:url(#SVGID_10_);fill:#4C5286;" width="106.91" height="3.265"/>
			<rect x="5.889" y="145.83" style="clip-path:url(#SVGID_10_);fill:#4C5286;" width="106.91" height="3.265"/>
			<rect x="5.889" y="142.565" style="clip-path:url(#SVGID_10_);fill:#4A5185;" width="106.91" height="3.265"/>
			<rect x="5.889" y="139.3" style="clip-path:url(#SVGID_10_);fill:#4A5185;" width="106.91" height="3.265"/>
			<rect x="5.889" y="136.035" style="clip-path:url(#SVGID_10_);fill:#474F83;" width="106.91" height="3.265"/>
			<rect x="5.889" y="132.77" style="clip-path:url(#SVGID_10_);fill:#474F83;" width="106.91" height="3.265"/>
			<rect x="5.889" y="129.505" style="clip-path:url(#SVGID_10_);fill:#454E82;" width="106.91" height="3.265"/>
			<rect x="5.889" y="126.24" style="clip-path:url(#SVGID_10_);fill:#454E82;" width="106.91" height="3.265"/>
			<rect x="5.889" y="122.975" style="clip-path:url(#SVGID_10_);fill:#424C81;" width="106.91" height="3.265"/>
			<rect x="5.889" y="119.709" style="clip-path:url(#SVGID_10_);fill:#424C81;" width="106.91" height="3.265"/>
			<rect x="5.889" y="116.444" style="clip-path:url(#SVGID_10_);fill:#404B80;" width="106.91" height="3.265"/>
			<rect x="5.889" y="113.179" style="clip-path:url(#SVGID_10_);fill:#404B80;" width="106.91" height="3.265"/>
			<rect x="5.889" y="109.914" style="clip-path:url(#SVGID_10_);fill:#3D497F;" width="106.91" height="3.265"/>
			<rect x="5.889" y="106.649" style="clip-path:url(#SVGID_10_);fill:#3D497F;" width="106.91" height="3.265"/>
			<rect x="5.889" y="103.384" style="clip-path:url(#SVGID_10_);fill:#3B487E;" width="106.91" height="3.265"/>
			<rect x="5.889" y="100.119" style="clip-path:url(#SVGID_10_);fill:#3B487E;" width="106.91" height="3.265"/>
			<rect x="5.889" y="96.854" style="clip-path:url(#SVGID_10_);fill:#38467D;" width="106.91" height="3.265"/>
			<rect x="5.889" y="93.589" style="clip-path:url(#SVGID_10_);fill:#38467D;" width="106.91" height="3.265"/>
			<rect x="5.889" y="90.324" style="clip-path:url(#SVGID_10_);fill:#35457C;" width="106.91" height="3.265"/>
			<rect x="5.889" y="87.059" style="clip-path:url(#SVGID_10_);fill:#35457C;" width="106.91" height="3.265"/>
			<rect x="5.889" y="83.794" style="clip-path:url(#SVGID_10_);fill:#33447B;" width="106.91" height="3.265"/>
			<rect x="5.889" y="80.529" style="clip-path:url(#SVGID_10_);fill:#33447B;" width="106.91" height="3.265"/>
			<rect x="5.889" y="77.264" style="clip-path:url(#SVGID_10_);fill:#30427A;" width="106.91" height="3.265"/>
			<rect x="5.889" y="76.641" style="clip-path:url(#SVGID_10_);fill:#30427A;" width="106.91" height="0.623"/>
			<rect x="5.889" y="76.018" style="clip-path:url(#SVGID_10_);fill:#30427A;" width="106.91" height="0.623"/>
			<rect x="5.889" y="75.395" style="clip-path:url(#SVGID_10_);fill:#2D4179;" width="106.91" height="0.623"/>
			<rect x="5.889" y="74.771" style="clip-path:url(#SVGID_10_);fill:#2D4179;" width="106.91" height="0.623"/>
			<rect x="5.889" y="74.148" style="clip-path:url(#SVGID_10_);fill:#2A4078;" width="106.91" height="0.623"/>
			<rect x="5.889" y="73.525" style="clip-path:url(#SVGID_10_);fill:#2A4078;" width="106.91" height="0.623"/>
			<rect x="5.889" y="72.902" style="clip-path:url(#SVGID_10_);fill:#273E77;" width="106.91" height="0.623"/>
			<rect x="5.889" y="72.278" style="clip-path:url(#SVGID_10_);fill:#273E77;" width="106.91" height="0.623"/>
			<rect x="5.889" y="71.655" style="clip-path:url(#SVGID_10_);fill:#243D77;" width="106.91" height="0.623"/>
			<rect x="5.889" y="71.032" style="clip-path:url(#SVGID_10_);fill:#243D77;" width="106.91" height="0.623"/>
			<rect x="5.889" y="70.409" style="clip-path:url(#SVGID_10_);fill:#213C76;" width="106.91" height="0.623"/>
			<rect x="5.889" y="69.785" style="clip-path:url(#SVGID_10_);fill:#213C76;" width="106.91" height="0.623"/>
			<rect x="5.889" y="69.162" style="clip-path:url(#SVGID_10_);fill:#1E3B75;" width="106.91" height="0.623"/>
			<rect x="5.889" y="68.539" style="clip-path:url(#SVGID_10_);fill:#1E3B75;" width="106.91" height="0.623"/>
			<rect x="5.889" y="67.916" style="clip-path:url(#SVGID_10_);fill:#1A3974;" width="106.91" height="0.623"/>
			<rect x="5.889" y="67.292" style="clip-path:url(#SVGID_10_);fill:#173873;" width="106.91" height="0.623"/>
			<rect x="5.889" y="66.669" style="clip-path:url(#SVGID_10_);fill:#173873;" width="106.91" height="0.623"/>
			<rect x="5.889" y="66.046" style="clip-path:url(#SVGID_10_);fill:#143772;" width="106.91" height="0.623"/>
			<rect x="5.889" y="65.423" style="clip-path:url(#SVGID_10_);fill:#143772;" width="106.91" height="0.623"/>
			<rect x="5.889" y="64.799" style="clip-path:url(#SVGID_10_);fill:#123671;" width="106.91" height="0.623"/>
			<rect x="5.889" y="64.176" style="clip-path:url(#SVGID_10_);fill:#485696;" width="106.91" height="0.623"/>
			<rect x="5.889" y="63.553" style="clip-path:url(#SVGID_10_);fill:#465495;" width="106.91" height="0.623"/>
			<rect x="5.889" y="62.93" style="clip-path:url(#SVGID_10_);fill:#465495;" width="106.91" height="0.623"/>
			<rect x="5.889" y="62.306" style="clip-path:url(#SVGID_10_);fill:#465495;" width="106.91" height="0.623"/>
			<rect x="5.889" y="61.683" style="clip-path:url(#SVGID_10_);fill:#435394;" width="106.91" height="0.623"/>
			<rect x="5.889" y="61.06" style="clip-path:url(#SVGID_10_);fill:#435394;" width="106.91" height="0.623"/>
			<rect x="5.889" y="60.437" style="clip-path:url(#SVGID_10_);fill:#405193;" width="106.91" height="0.623"/>
			<rect x="5.889" y="59.813" style="clip-path:url(#SVGID_10_);fill:#405193;" width="106.91" height="0.623"/>
			<rect x="5.889" y="56.576" style="clip-path:url(#SVGID_10_);fill:#405193;" width="106.91" height="3.237"/>
		</g>
	</g>
	<g id="Rectangle-32_1_">
		<rect x="61.834" y="144.337" style="fill:#3E5092;" width="43.21" height="14.141"/>
	</g>
	<g id="Rectangle-32-Copy_1_">
		<rect x="61.834" y="144.337" style="fill:#2A468C;" width="17.727" height="14.141"/>
	</g>
	<g id="Rectangle-25-Copy_1_">
		<g>
			<defs>
				<rect id="SVGID_11_" x="121.663" y="54.348" width="3.324" height="118.272"/>
			</defs>
			<clipPath id="SVGID_12_">
				<use xlink:href="#SVGID_11_"  style="overflow:visible;"/>
			</clipPath>
			<polygon style="clip-path:url(#SVGID_12_);fill:#5EA7DC;" points="121.663,171.342 121.72,172.62 121.663,172.62 			"/>
			<polygon style="clip-path:url(#SVGID_12_);fill:#5BA6DC;" points="121.663,167.911 121.872,172.62 121.72,172.62 
				121.663,171.342 			"/>
			<polygon style="clip-path:url(#SVGID_12_);fill:#5BA6DC;" points="121.663,164.48 122.024,172.62 121.872,172.62 
				121.663,167.911 			"/>
			<polygon style="clip-path:url(#SVGID_12_);fill:#59A5DC;" points="121.663,161.049 122.177,172.62 122.024,172.62 
				121.663,164.48 			"/>
			<polygon style="clip-path:url(#SVGID_12_);fill:#56A4DB;" points="121.663,157.618 122.329,172.62 122.177,172.62 
				121.663,161.049 			"/>
			<polygon style="clip-path:url(#SVGID_12_);fill:#56A4DB;" points="121.663,154.188 122.481,172.62 122.329,172.62 
				121.663,157.618 			"/>
			<polygon style="clip-path:url(#SVGID_12_);fill:#53A3DB;" points="121.663,150.757 122.633,172.62 122.481,172.62 
				121.663,154.188 			"/>
			<polygon style="clip-path:url(#SVGID_12_);fill:#53A3DB;" points="121.663,147.326 122.785,172.62 122.633,172.62 
				121.663,150.757 			"/>
			<polygon style="clip-path:url(#SVGID_12_);fill:#50A2DA;" points="121.663,143.895 122.938,172.62 122.785,172.62 
				121.663,147.326 			"/>
			<polygon style="clip-path:url(#SVGID_12_);fill:#4DA1DA;" points="121.663,140.464 123.09,172.62 122.938,172.62 
				121.663,143.895 			"/>
			<polygon style="clip-path:url(#SVGID_12_);fill:#4DA1DA;" points="121.663,137.033 123.242,172.62 123.09,172.62 
				121.663,140.464 			"/>
			<polygon style="clip-path:url(#SVGID_12_);fill:#4AA1DA;" points="121.663,133.603 123.394,172.62 123.242,172.62 
				121.663,137.033 			"/>
			<polygon style="clip-path:url(#SVGID_12_);fill:#47A0D9;" points="121.663,130.172 123.547,172.62 123.394,172.62 
				121.663,133.603 			"/>
			<polygon style="clip-path:url(#SVGID_12_);fill:#47A0D9;" points="121.663,126.741 123.699,172.62 123.547,172.62 
				121.663,130.172 			"/>
			<polygon style="clip-path:url(#SVGID_12_);fill:#439FD9;" points="121.663,123.31 123.851,172.62 123.699,172.62 
				121.663,126.741 			"/>
			<polygon style="clip-path:url(#SVGID_12_);fill:#439FD9;" points="121.663,119.879 124.003,172.62 123.851,172.62 
				121.663,123.31 			"/>
			<polygon style="clip-path:url(#SVGID_12_);fill:#409ED8;" points="121.663,116.448 124.156,172.62 124.003,172.62 
				121.663,119.879 			"/>
			<polygon style="clip-path:url(#SVGID_12_);fill:#3C9DD8;" points="121.663,113.017 124.308,172.62 124.156,172.62 
				121.663,116.448 			"/>
			<polygon style="clip-path:url(#SVGID_12_);fill:#389CD8;" points="121.663,109.587 124.46,172.62 124.308,172.62 
				121.663,113.017 			"/>
			<polygon style="clip-path:url(#SVGID_12_);fill:#349BD7;" points="121.663,106.156 124.612,172.62 124.46,172.62 
				121.663,109.587 			"/>
			<polygon style="clip-path:url(#SVGID_12_);fill:#349BD7;" points="121.663,102.725 124.765,172.62 124.612,172.62 
				121.663,106.156 			"/>
			<polygon style="clip-path:url(#SVGID_12_);fill:#2F9AD7;" points="121.663,99.294 124.917,172.62 124.765,172.62 
				121.663,102.725 			"/>
			<polygon style="clip-path:url(#SVGID_12_);fill:#2A99D6;" points="121.663,95.863 124.987,170.77 124.987,172.62 124.917,172.62 
				121.663,99.294 			"/>
			<polygon style="clip-path:url(#SVGID_12_);fill:#2A99D6;" points="121.663,92.432 124.987,167.339 124.987,170.77 
				121.663,95.863 			"/>
			<polygon style="clip-path:url(#SVGID_12_);fill:#4F5487;" points="121.663,89.002 124.987,163.908 124.987,167.339 
				121.663,92.432 			"/>
			<polygon style="clip-path:url(#SVGID_12_);fill:#4F5487;" points="121.663,85.571 124.987,160.477 124.987,163.908 
				121.663,89.002 			"/>
			<polygon style="clip-path:url(#SVGID_12_);fill:#4C5286;" points="121.663,82.14 124.987,157.046 124.987,160.477 
				121.663,85.571 			"/>
			<polygon style="clip-path:url(#SVGID_12_);fill:#4C5286;" points="121.663,78.709 124.987,153.615 124.987,157.046 
				121.663,82.14 			"/>
			<polygon style="clip-path:url(#SVGID_12_);fill:#4A5185;" points="121.663,75.278 124.987,150.185 124.987,153.615 
				121.663,78.709 			"/>
			<polygon style="clip-path:url(#SVGID_12_);fill:#4A5185;" points="121.663,71.847 124.987,146.754 124.987,150.185 
				121.663,75.278 			"/>
			<polygon style="clip-path:url(#SVGID_12_);fill:#474F83;" points="121.663,68.416 124.987,143.323 124.987,146.754 
				121.663,71.847 			"/>
			<polygon style="clip-path:url(#SVGID_12_);fill:#474F83;" points="121.663,64.986 124.987,139.892 124.987,143.323 
				121.663,68.416 			"/>
			<polygon style="clip-path:url(#SVGID_12_);fill:#454E82;" points="121.663,61.555 124.987,136.461 124.987,139.892 
				121.663,64.986 			"/>
			<polygon style="clip-path:url(#SVGID_12_);fill:#454E82;" points="121.663,58.124 124.987,133.03 124.987,136.461 
				121.663,61.555 			"/>
			<polygon style="clip-path:url(#SVGID_12_);fill:#424C81;" points="121.663,54.693 124.987,129.6 124.987,133.03 121.663,58.124 
							"/>
			<polygon style="clip-path:url(#SVGID_12_);fill:#424C81;" points="121.8,54.348 124.987,126.169 124.987,129.6 121.663,54.693 
				121.663,54.348 			"/>
			<polygon style="clip-path:url(#SVGID_12_);fill:#404B80;" points="121.952,54.348 124.987,122.738 124.987,126.169 121.8,54.348 
							"/>
			<polygon style="clip-path:url(#SVGID_12_);fill:#404B80;" points="122.104,54.348 124.987,119.307 124.987,122.738 
				121.952,54.348 			"/>
			<polygon style="clip-path:url(#SVGID_12_);fill:#3D497F;" points="122.257,54.348 124.987,115.876 124.987,119.307 
				122.104,54.348 			"/>
			<polygon style="clip-path:url(#SVGID_12_);fill:#3D497F;" points="122.409,54.348 124.987,112.445 124.987,115.876 
				122.257,54.348 			"/>
			<polygon style="clip-path:url(#SVGID_12_);fill:#3B487E;" points="122.561,54.348 124.987,109.015 124.987,112.445 
				122.409,54.348 			"/>
			<polygon style="clip-path:url(#SVGID_12_);fill:#3B487E;" points="122.713,54.348 124.987,105.584 124.987,109.015 
				122.561,54.348 			"/>
			<polygon style="clip-path:url(#SVGID_12_);fill:#38467D;" points="122.866,54.348 124.987,102.153 124.987,105.584 
				122.713,54.348 			"/>
			<polygon style="clip-path:url(#SVGID_12_);fill:#38467D;" points="123.018,54.348 124.987,98.722 124.987,102.153 
				122.866,54.348 			"/>
			<polygon style="clip-path:url(#SVGID_12_);fill:#38467D;" points="123.17,54.348 124.987,95.291 124.987,98.722 123.018,54.348 
							"/>
			<polygon style="clip-path:url(#SVGID_12_);fill:#35457C;" points="123.322,54.348 124.987,91.86 124.987,95.291 123.17,54.348 
							"/>
			<polygon style="clip-path:url(#SVGID_12_);fill:#33447B;" points="123.475,54.348 124.987,88.429 124.987,91.86 123.322,54.348 
							"/>
			<polygon style="clip-path:url(#SVGID_12_);fill:#33447B;" points="123.627,54.348 124.987,84.999 124.987,88.429 123.475,54.348 
							"/>
			<polygon style="clip-path:url(#SVGID_12_);fill:#30427A;" points="123.779,54.348 124.987,81.568 124.987,84.999 123.627,54.348 
							"/>
			<polygon style="clip-path:url(#SVGID_12_);fill:#30427A;" points="123.931,54.348 124.987,78.137 124.987,81.568 123.779,54.348 
							"/>
			<polygon style="clip-path:url(#SVGID_12_);fill:#30427A;" points="124.084,54.348 124.987,74.706 124.987,78.137 123.931,54.348 
							"/>
			<polygon style="clip-path:url(#SVGID_12_);fill:#2D4179;" points="124.236,54.348 124.987,71.275 124.987,74.706 124.084,54.348 
							"/>
			<polygon style="clip-path:url(#SVGID_12_);fill:#2D4179;" points="124.388,54.348 124.987,67.844 124.987,71.275 124.236,54.348 
							"/>
			<polygon style="clip-path:url(#SVGID_12_);fill:#2A4078;" points="124.54,54.348 124.987,64.414 124.987,67.844 124.388,54.348 
							"/>
			<polygon style="clip-path:url(#SVGID_12_);fill:#2A4078;" points="124.987,64.414 124.54,54.348 124.987,54.348 			"/>
		</g>
	</g>
	<g id="Rectangle-28_1_">
		<path style="fill:#B5D8E7;" d="M24.148,157.193h117.474c3.051,0,5.524,2.878,5.524,6.428l0,0c0,3.55-2.473,6.428-5.524,6.428
			H24.148c-3.051,0-5.524-2.878-5.524-6.428l0,0C18.623,160.071,21.097,157.193,24.148,157.193z"/>
	</g>
	<g id="Combined-Shape_13_">
		<path style="fill:#E2F0F6;" d="M146.686,161.05c0.296,0.787,0.46,1.657,0.46,2.571l0,0c0,3.55-2.473,6.428-5.524,6.428H24.148l0,0
			c-3.051,0-5.524-2.878-5.524-6.428l0,0l0,0c0-0.914,0.164-1.784,0.46-2.571H146.686z"/>
	</g>
	<g id="Rectangle-31_1_" style="opacity:0.2;enable-background:new    ;">
		<path style="fill:#113D86;" d="M70.854,157.193h26.978v4.471l0,0c0,3.211,2.237,5.814,4.996,5.814l0,0l-35.455-0.486l0,0l0,0
			c1.922,0,3.48-1.813,3.48-4.05V157.193z"/>
	</g>
	<g id="Rectangle-24_1_">
		<rect x="34.135" y="54.348" style="fill:#2A468C;" width="80.881" height="12.856"/>
	</g>
	<g id="Rectangle-26_1_">
		<path style="fill:#E2F0F6;" d="M18.166,76.202H122.12c0.359,0,0.651,0.339,0.651,0.757l0,0c0,0.418-0.291,0.757-0.651,0.757
			H18.166c-0.359,0-0.651-0.339-0.651-0.757l0,0C17.515,76.541,17.807,76.202,18.166,76.202z"/>
	</g>
	<g id="Rectangle-29_1_">
		<path style="fill:#3E5092;" d="M28.036,74.917h7.765c0.915,0,1.657,0.863,1.657,1.928v0c0,1.065-0.742,1.928-1.657,1.928h-7.765
			c-0.915,0-1.657-0.863-1.657-1.928v0C26.379,75.78,27.121,74.917,28.036,74.917z"/>
	</g>
	<g id="Rectangle-29-Copy_1_">
		<path style="fill:#3E5092;" d="M114.457,74.917h3.333c0.915,0,1.657,0.863,1.657,1.928v0c0,1.065-0.742,1.928-1.657,1.928h-3.333
			c-0.915,0-1.657-0.863-1.657-1.928v0C112.799,75.78,113.541,74.917,114.457,74.917z"/>
	</g>
	<g id="Rectangle-27_1_">
		<rect x="56.294" y="72.346" style="fill:#3E5092;" width="52.074" height="8.999"/>
	</g>
	<g id="Rectangle-27-Copy_1_">
		<rect x="56.294" y="72.346" style="fill:#2A468C;" width="11.08" height="8.999"/>
	</g>
	<g id="Oval-24_1_">
		<ellipse style="fill:#E2F0F6;" cx="58.51" cy="74.917" rx="1.301" ry="1.514"/>
	</g>
	<g id="Oval-24-Copy_1_">
		<ellipse style="fill:#3694B4;" cx="61.834" cy="74.917" rx="1.301" ry="1.514"/>
	</g>
	<g id="Oval-24-Copy-2_1_">
		<ellipse style="fill:#82CDDF;" cx="65.157" cy="74.917" rx="1.301" ry="1.514"/>
	</g>
	<g id="Combined-Shape_12_">
		<g>
			<defs>
				<path id="SVGID_13_" d="M91.094,32.43l-5.69,23.959v114.628l1.76,19.6H24.163l-23.548-20.24V57.893l27.681-25.574L91.094,32.43z
					 M14.767,63.433L14.767,63.433c-2.444,0-4.425,2.305-4.425,5.148v92.375c0,2.843,1.981,5.148,4.425,5.148h56.462
					c2.444,0,4.425-2.305,4.425-5.148V68.582c0-2.843-1.981-5.148-4.425-5.148H14.767z"/>
			</defs>
			<clipPath id="SVGID_14_">
				<use xlink:href="#SVGID_13_"  style="overflow:visible;"/>
			</clipPath>
			<polygon style="clip-path:url(#SVGID_14_);fill:#51B1E0;" points="19.224,63.433 10.342,70.621 10.342,63.433 			"/>
			<polygon style="clip-path:url(#SVGID_14_);fill:#4EB0E0;" points="30.098,63.433 10.342,79.422 10.342,70.621 19.224,63.433 			
				"/>
			<polygon style="clip-path:url(#SVGID_14_);fill:#4BAFDF;" points="40.972,63.433 10.342,88.223 10.342,79.422 30.098,63.433 			
				"/>
			<polygon style="clip-path:url(#SVGID_14_);fill:#4BAFDF;" points="51.846,63.433 10.342,97.024 10.342,88.223 40.972,63.433 			
				"/>
			<polygon style="clip-path:url(#SVGID_14_);fill:#4BAFDF;" points="62.72,63.433 10.342,105.824 10.342,97.024 51.846,63.433 			
				"/>
			<polygon style="clip-path:url(#SVGID_14_);fill:#47AEDF;" points="73.594,63.433 10.342,114.625 10.342,105.824 62.72,63.433 			
				"/>
			<polygon style="clip-path:url(#SVGID_14_);fill:#47AEDF;" points="75.654,70.567 10.342,123.426 10.342,114.625 73.594,63.433 
				75.654,63.433 			"/>
			<polygon style="clip-path:url(#SVGID_14_);fill:#43AEDF;" points="75.654,79.367 10.342,132.227 10.342,123.426 75.654,70.567 
							"/>
			<polygon style="clip-path:url(#SVGID_14_);fill:#43AEDF;" points="75.654,88.168 10.342,141.027 10.342,132.227 75.654,79.367 
							"/>
			<polygon style="clip-path:url(#SVGID_14_);fill:#3FADDE;" points="75.654,96.969 10.342,149.828 10.342,141.027 75.654,88.168 
							"/>
			<polygon style="clip-path:url(#SVGID_14_);fill:#3FADDE;" points="75.654,105.77 10.342,158.629 10.342,149.828 75.654,96.969 
							"/>
			<polygon style="clip-path:url(#SVGID_14_);fill:#3BACDE;" points="75.654,114.57 11.979,166.105 10.342,166.105 10.342,158.629 
				75.654,105.77 			"/>
			<polygon style="clip-path:url(#SVGID_14_);fill:#3BACDE;" points="75.654,123.371 22.853,166.105 11.979,166.105 75.654,114.57 
							"/>
			<polygon style="clip-path:url(#SVGID_14_);fill:#37ABDD;" points="75.654,132.172 33.727,166.105 22.853,166.105 75.654,123.371 
							"/>
			<polygon style="clip-path:url(#SVGID_14_);fill:#37ABDD;" points="75.654,140.973 44.601,166.105 33.727,166.105 75.654,132.172 
							"/>
			<polygon style="clip-path:url(#SVGID_14_);fill:#32AADD;" points="75.654,149.773 55.475,166.105 44.601,166.105 75.654,140.973 
							"/>
			<polygon style="clip-path:url(#SVGID_14_);fill:#2DA9DD;" points="75.654,158.574 66.349,166.105 55.475,166.105 75.654,149.773 
							"/>
			<polygon style="clip-path:url(#SVGID_14_);fill:#2DA9DD;" points="66.349,166.105 75.654,158.574 75.654,166.105 			"/>
			<polygon style="clip-path:url(#SVGID_14_);fill:#57B3E1;" points="3.297,32.319 0.615,34.491 0.615,32.319 			"/>
			<polygon style="clip-path:url(#SVGID_14_);fill:#57B3E1;" points="14.171,32.319 0.615,43.291 0.615,34.491 3.297,32.319 			"/>
			<polygon style="clip-path:url(#SVGID_14_);fill:#54B2E0;" points="25.045,32.319 0.615,52.092 0.615,43.291 14.171,32.319 			"/>
			<polygon style="clip-path:url(#SVGID_14_);fill:#54B2E0;" points="35.919,32.319 0.615,60.893 0.615,52.092 25.045,32.319 			"/>
			<polygon style="clip-path:url(#SVGID_14_);fill:#51B1E0;" points="46.793,32.319 0.615,69.694 0.615,60.893 35.919,32.319 			"/>
			<polygon style="clip-path:url(#SVGID_14_);fill:#51B1E0;" points="57.667,32.319 0.615,78.494 0.615,69.694 46.793,32.319 			"/>
			<polygon style="clip-path:url(#SVGID_14_);fill:#4EB0E0;" points="68.541,32.319 0.615,87.295 0.615,78.494 57.667,32.319 			"/>
			<polygon style="clip-path:url(#SVGID_14_);fill:#4BAFDF;" points="79.415,32.319 0.615,96.096 0.615,87.295 68.541,32.319 			"/>
			<polygon style="clip-path:url(#SVGID_14_);fill:#4BAFDF;" points="90.289,32.319 0.615,104.897 0.615,96.096 79.415,32.319 			
				"/>
			<polygon style="clip-path:url(#SVGID_14_);fill:#4BAFDF;" points="91.094,40.469 0.615,113.697 0.615,104.897 90.289,32.319 
				91.094,32.319 			"/>
			<polygon style="clip-path:url(#SVGID_14_);fill:#47AEDF;" points="91.094,49.27 0.615,122.498 0.615,113.697 91.094,40.469 			
				"/>
			<polygon style="clip-path:url(#SVGID_14_);fill:#47AEDF;" points="91.094,58.071 0.615,131.299 0.615,122.498 91.094,49.27 			
				"/>
			<polygon style="clip-path:url(#SVGID_14_);fill:#43AEDF;" points="91.094,66.872 0.615,140.1 0.615,131.299 91.094,58.071 			"/>
			<polygon style="clip-path:url(#SVGID_14_);fill:#43AEDF;" points="91.094,75.672 0.615,148.9 0.615,140.1 91.094,66.872 			"/>
			<polygon style="clip-path:url(#SVGID_14_);fill:#3FADDE;" points="91.094,84.473 0.615,157.701 0.615,148.9 91.094,75.672 			"/>
			<polygon style="clip-path:url(#SVGID_14_);fill:#3FADDE;" points="91.094,93.274 0.615,166.502 0.615,157.701 91.094,84.473 			
				"/>
			<polygon style="clip-path:url(#SVGID_14_);fill:#3BACDE;" points="91.094,102.075 0.615,175.303 0.615,166.502 91.094,93.274 			
				"/>
			<polygon style="clip-path:url(#SVGID_14_);fill:#3BACDE;" points="91.094,110.875 0.615,184.103 0.615,175.303 91.094,102.075 
							"/>
			<polygon style="clip-path:url(#SVGID_14_);fill:#37ABDD;" points="91.094,119.676 3.44,190.618 0.615,190.618 0.615,184.103 
				91.094,110.875 			"/>
			<polygon style="clip-path:url(#SVGID_14_);fill:#37ABDD;" points="91.094,128.477 14.314,190.618 3.44,190.618 91.094,119.676 
							"/>
			<polygon style="clip-path:url(#SVGID_14_);fill:#32AADD;" points="91.094,137.278 25.188,190.618 14.314,190.618 91.094,128.477 
							"/>
			<polygon style="clip-path:url(#SVGID_14_);fill:#2DA9DD;" points="91.094,146.078 36.062,190.618 25.188,190.618 91.094,137.278 
							"/>
			<polygon style="clip-path:url(#SVGID_14_);fill:#2DA9DD;" points="91.094,154.879 46.936,190.618 36.062,190.618 91.094,146.078 
							"/>
			<polygon style="clip-path:url(#SVGID_14_);fill:#27A9DC;" points="91.094,163.68 57.81,190.618 46.936,190.618 91.094,154.879 
							"/>
			<polygon style="clip-path:url(#SVGID_14_);fill:#27A9DC;" points="91.094,172.481 68.684,190.618 57.81,190.618 91.094,163.68 
							"/>
			<polygon style="clip-path:url(#SVGID_14_);fill:#27A9DC;" points="91.094,181.281 79.558,190.618 68.684,190.618 91.094,172.481 
							"/>
			<polygon style="clip-path:url(#SVGID_14_);fill:#20A8DC;" points="91.094,190.082 90.432,190.618 79.558,190.618 91.094,181.281 
							"/>
			<polygon style="clip-path:url(#SVGID_14_);fill:#20A8DC;" points="90.432,190.618 91.094,190.082 91.094,190.618 			"/>
		</g>
	</g>
	<g id="Path-133_1_" style="opacity:0.5;enable-background:new    ;">
		<polygon style="fill:#3E5092;" points="37.139,38.921 27.487,49.444 56.911,49.444 61.338,38.921 		"/>
	</g>
	<g id="Path-133-Copy_1_" style="opacity:0.5;enable-background:new    ;">
		<polygon style="fill:#3E5092;" points="37.139,38.921 35.979,49.444 56.828,49.444 61.338,38.921 		"/>
	</g>
	<g id="Rectangle-30_1_" style="opacity:0.3711;enable-background:new    ;">
		<path style="fill:#2A468C;" d="M71.492,170.156H14.505c-4.538,0-8.229-4.259-8.229-9.495V67.593c0-5.236,3.691-9.495,8.229-9.495
			h56.987c4.538,0,8.229,4.259,8.229,9.495v93.068C79.721,165.896,76.03,170.156,71.492,170.156z M14.505,59.068
			c-4.002,0-7.259,3.824-7.259,8.524v93.068c0,4.7,3.256,8.524,7.259,8.524h56.987c4.002,0,7.259-3.824,7.259-8.524V67.593
			c0-4.7-3.256-8.524-7.259-8.524H14.505z"/>
	</g>
	<g id="Combined-Shape_11_">
		<g>
			<defs>
				<path id="SVGID_15_" d="M90.134,32.431l46.773,0.081l25.858,25.382v112.484l-23.398,20.24H86.02l-1.888-21.016v-111.9
					L90.134,32.431z M99.987,63.378L99.987,63.378c-3.666,0-6.637,3.458-6.637,7.723v87.338c0,4.265,2.972,7.723,6.637,7.723l0,0
					h49.999c3.666,0,6.637-3.458,6.637-7.723l0,0V71.1c0-4.265-2.972-7.723-6.637-7.723H99.987z"/>
			</defs>
			<clipPath id="SVGID_16_">
				<use xlink:href="#SVGID_15_"  style="overflow:visible;"/>
			</clipPath>
			<polygon style="clip-path:url(#SVGID_16_);fill:#CDE4EF;" points="93.643,63.378 93.35,63.65 93.35,63.378 			"/>
			<polygon style="clip-path:url(#SVGID_16_);fill:#CDE4EF;" points="98.364,63.378 93.35,68.043 93.35,63.65 93.643,63.378 			"/>
			<polygon style="clip-path:url(#SVGID_16_);fill:#CCE4EF;" points="103.084,63.378 93.35,72.436 93.35,68.043 98.364,63.378 			
				"/>
			<polygon style="clip-path:url(#SVGID_16_);fill:#CCE4EF;" points="107.805,63.378 93.35,76.829 93.35,72.436 103.084,63.378 			
				"/>
			<polygon style="clip-path:url(#SVGID_16_);fill:#CBE3EE;" points="112.525,63.378 93.35,81.222 93.35,76.829 107.805,63.378 			
				"/>
			<polygon style="clip-path:url(#SVGID_16_);fill:#CBE3EE;" points="117.246,63.378 93.35,85.615 93.35,81.222 112.525,63.378 			
				"/>
			<polygon style="clip-path:url(#SVGID_16_);fill:#CAE3EE;" points="121.967,63.378 93.35,90.009 93.35,85.615 117.246,63.378 			
				"/>
			<polygon style="clip-path:url(#SVGID_16_);fill:#C9E2EE;" points="126.687,63.378 93.35,94.402 93.35,90.009 121.967,63.378 			
				"/>
			<polygon style="clip-path:url(#SVGID_16_);fill:#C8E2ED;" points="131.408,63.378 93.35,98.795 93.35,94.402 126.687,63.378 			
				"/>
			<polygon style="clip-path:url(#SVGID_16_);fill:#C8E2ED;" points="136.128,63.378 93.35,103.188 93.35,98.795 131.408,63.378 			
				"/>
			<polygon style="clip-path:url(#SVGID_16_);fill:#C6E1ED;" points="140.849,63.378 93.35,107.581 93.35,103.188 136.128,63.378 
							"/>
			<polygon style="clip-path:url(#SVGID_16_);fill:#C5E0ED;" points="145.569,63.378 93.35,111.974 93.35,107.581 140.849,63.378 
							"/>
			<polygon style="clip-path:url(#SVGID_16_);fill:#C5E0ED;" points="150.29,63.378 93.35,116.367 93.35,111.974 145.569,63.378 			
				"/>
			<polygon style="clip-path:url(#SVGID_16_);fill:#C4E0EC;" points="155.011,63.378 93.35,120.76 93.35,116.367 150.29,63.378 			
				"/>
			<polygon style="clip-path:url(#SVGID_16_);fill:#C4E0EC;" points="156.624,66.27 93.35,125.153 93.35,120.76 155.011,63.378 
				156.624,63.378 			"/>
			<polygon style="clip-path:url(#SVGID_16_);fill:#C3DFEC;" points="156.624,70.663 93.35,129.546 93.35,125.153 156.624,66.27 			
				"/>
			<polygon style="clip-path:url(#SVGID_16_);fill:#C3DFEC;" points="156.624,75.056 93.35,133.939 93.35,129.546 156.624,70.663 
							"/>
			<polygon style="clip-path:url(#SVGID_16_);fill:#C1DEEB;" points="156.624,79.449 93.35,138.332 93.35,133.939 156.624,75.056 
							"/>
			<polygon style="clip-path:url(#SVGID_16_);fill:#C0DEEB;" points="156.624,83.842 93.35,142.725 93.35,138.332 156.624,79.449 
							"/>
			<polygon style="clip-path:url(#SVGID_16_);fill:#C0DEEB;" points="156.624,88.235 93.35,147.118 93.35,142.725 156.624,83.842 
							"/>
			<polygon style="clip-path:url(#SVGID_16_);fill:#BFDDEA;" points="156.624,92.628 93.35,151.511 93.35,147.118 156.624,88.235 
							"/>
			<polygon style="clip-path:url(#SVGID_16_);fill:#BEDCEA;" points="156.624,97.021 93.35,155.904 93.35,151.511 156.624,92.628 
							"/>
			<polygon style="clip-path:url(#SVGID_16_);fill:#BEDCEA;" points="156.624,101.414 93.35,160.297 93.35,155.904 156.624,97.021 
							"/>
			<polygon style="clip-path:url(#SVGID_16_);fill:#BCDBEA;" points="156.624,105.807 93.35,164.69 93.35,160.297 156.624,101.414 
							"/>
			<polygon style="clip-path:url(#SVGID_16_);fill:#BCDBEA;" points="156.624,110.2 96.491,166.161 93.35,166.161 93.35,164.69 
				156.624,105.807 			"/>
			<polygon style="clip-path:url(#SVGID_16_);fill:#BBDBE9;" points="156.624,114.593 101.211,166.161 96.491,166.161 
				156.624,110.2 			"/>
			<polygon style="clip-path:url(#SVGID_16_);fill:#BADBE9;" points="156.624,118.986 105.932,166.161 101.211,166.161 
				156.624,114.593 			"/>
			<polygon style="clip-path:url(#SVGID_16_);fill:#B9DAE9;" points="156.624,123.379 110.652,166.161 105.932,166.161 
				156.624,118.986 			"/>
			<polygon style="clip-path:url(#SVGID_16_);fill:#B9DAE9;" points="156.624,127.772 115.373,166.161 110.652,166.161 
				156.624,123.379 			"/>
			<polygon style="clip-path:url(#SVGID_16_);fill:#B8DAE8;" points="156.624,132.165 120.093,166.161 115.373,166.161 
				156.624,127.772 			"/>
			<polygon style="clip-path:url(#SVGID_16_);fill:#B6D9E8;" points="156.624,136.558 124.814,166.161 120.093,166.161 
				156.624,132.165 			"/>
			<polygon style="clip-path:url(#SVGID_16_);fill:#B6D9E8;" points="156.624,140.951 129.534,166.161 124.814,166.161 
				156.624,136.558 			"/>
			<polygon style="clip-path:url(#SVGID_16_);fill:#B6D8E8;" points="156.624,145.344 134.255,166.161 129.534,166.161 
				156.624,140.951 			"/>
			<polygon style="clip-path:url(#SVGID_16_);fill:#B5D8E7;" points="156.624,149.737 138.976,166.161 134.255,166.161 
				156.624,145.344 			"/>
			<polygon style="clip-path:url(#SVGID_16_);fill:#B4D7E7;" points="156.624,154.13 143.696,166.161 138.976,166.161 
				156.624,149.737 			"/>
			<polygon style="clip-path:url(#SVGID_16_);fill:#B4D7E7;" points="156.624,158.523 148.417,166.161 143.696,166.161 
				156.624,154.13 			"/>
			<polygon style="clip-path:url(#SVGID_16_);fill:#B2D7E7;" points="156.624,162.916 153.137,166.161 148.417,166.161 
				156.624,158.523 			"/>
			<polygon style="clip-path:url(#SVGID_16_);fill:#B2D7E7;" points="153.137,166.161 156.624,162.916 156.624,166.161 			"/>
			<polygon style="clip-path:url(#SVGID_16_);fill:#D4E8F1;" points="84.412,32.431 84.133,32.691 84.133,32.431 			"/>
			<polygon style="clip-path:url(#SVGID_16_);fill:#D4E8F1;" points="89.133,32.431 84.133,37.084 84.133,32.691 84.412,32.431 			
				"/>
			<polygon style="clip-path:url(#SVGID_16_);fill:#D3E8F1;" points="93.854,32.431 84.133,41.477 84.133,37.084 89.133,32.431 			
				"/>
			<polygon style="clip-path:url(#SVGID_16_);fill:#D2E7F1;" points="98.574,32.431 84.133,45.87 84.133,41.477 93.854,32.431 			
				"/>
			<polygon style="clip-path:url(#SVGID_16_);fill:#D1E7F1;" points="103.295,32.431 84.133,50.263 84.133,45.87 98.574,32.431 			
				"/>
			<polygon style="clip-path:url(#SVGID_16_);fill:#D1E7F1;" points="108.015,32.431 84.133,54.656 84.133,50.263 103.295,32.431 
							"/>
			<polygon style="clip-path:url(#SVGID_16_);fill:#D0E6F0;" points="112.736,32.431 84.133,59.049 84.133,54.656 108.015,32.431 
							"/>
			<polygon style="clip-path:url(#SVGID_16_);fill:#D0E6F0;" points="117.456,32.431 84.133,63.442 84.133,59.049 112.736,32.431 
							"/>
			<polygon style="clip-path:url(#SVGID_16_);fill:#CFE5F0;" points="122.177,32.431 84.133,67.835 84.133,63.442 117.456,32.431 
							"/>
			<polygon style="clip-path:url(#SVGID_16_);fill:#CDE4EF;" points="126.898,32.431 84.133,72.228 84.133,67.835 122.177,32.431 
							"/>
			<polygon style="clip-path:url(#SVGID_16_);fill:#CDE4EF;" points="131.618,32.431 84.133,76.621 84.133,72.228 126.898,32.431 
							"/>
			<polygon style="clip-path:url(#SVGID_16_);fill:#CCE4EF;" points="136.339,32.431 84.133,81.015 84.133,76.621 131.618,32.431 
							"/>
			<polygon style="clip-path:url(#SVGID_16_);fill:#CCE4EF;" points="141.059,32.431 84.133,85.408 84.133,81.015 136.339,32.431 
							"/>
			<polygon style="clip-path:url(#SVGID_16_);fill:#CBE3EE;" points="145.78,32.431 84.133,89.801 84.133,85.408 141.059,32.431 			
				"/>
			<polygon style="clip-path:url(#SVGID_16_);fill:#CBE3EE;" points="150.5,32.431 84.133,94.194 84.133,89.801 145.78,32.431 			
				"/>
			<polygon style="clip-path:url(#SVGID_16_);fill:#CAE3EE;" points="155.221,32.431 84.133,98.587 84.133,94.194 150.5,32.431 			
				"/>
			<polygon style="clip-path:url(#SVGID_16_);fill:#C9E2EE;" points="159.942,32.431 84.133,102.98 84.133,98.587 155.221,32.431 
							"/>
			<polygon style="clip-path:url(#SVGID_16_);fill:#C8E2ED;" points="162.765,34.196 84.133,107.373 84.133,102.98 159.942,32.431 
				162.765,32.431 			"/>
			<polygon style="clip-path:url(#SVGID_16_);fill:#C8E2ED;" points="162.765,38.589 84.133,111.766 84.133,107.373 162.765,34.196 
							"/>
			<polygon style="clip-path:url(#SVGID_16_);fill:#C6E1ED;" points="162.765,42.982 84.133,116.159 84.133,111.766 162.765,38.589 
							"/>
			<polygon style="clip-path:url(#SVGID_16_);fill:#C5E0ED;" points="162.765,47.375 84.133,120.552 84.133,116.159 162.765,42.982 
							"/>
			<polygon style="clip-path:url(#SVGID_16_);fill:#C5E0ED;" points="162.765,51.768 84.133,124.945 84.133,120.552 162.765,47.375 
							"/>
			<polygon style="clip-path:url(#SVGID_16_);fill:#C4E0EC;" points="162.765,56.161 84.133,129.338 84.133,124.945 162.765,51.768 
							"/>
			<polygon style="clip-path:url(#SVGID_16_);fill:#C4E0EC;" points="162.765,60.554 84.133,133.731 84.133,129.338 162.765,56.161 
							"/>
			<polygon style="clip-path:url(#SVGID_16_);fill:#C3DFEC;" points="162.765,64.947 84.133,138.124 84.133,133.731 162.765,60.554 
							"/>
			<polygon style="clip-path:url(#SVGID_16_);fill:#C3DFEC;" points="162.765,69.34 84.133,142.517 84.133,138.124 162.765,64.947 
							"/>
			<polygon style="clip-path:url(#SVGID_16_);fill:#C1DEEB;" points="162.765,73.733 84.133,146.91 84.133,142.517 162.765,69.34 
							"/>
			<polygon style="clip-path:url(#SVGID_16_);fill:#C0DEEB;" points="162.765,78.127 84.133,151.303 84.133,146.91 162.765,73.733 
							"/>
			<polygon style="clip-path:url(#SVGID_16_);fill:#C0DEEB;" points="162.765,82.52 84.133,155.696 84.133,151.303 162.765,78.127 
							"/>
			<polygon style="clip-path:url(#SVGID_16_);fill:#BFDDEA;" points="162.765,86.913 84.133,160.089 84.133,155.696 162.765,82.52 
							"/>
			<polygon style="clip-path:url(#SVGID_16_);fill:#BEDCEA;" points="162.765,91.306 84.133,164.482 84.133,160.089 162.765,86.913 
							"/>
			<polygon style="clip-path:url(#SVGID_16_);fill:#BEDCEA;" points="162.765,95.699 84.133,168.875 84.133,164.482 162.765,91.306 
							"/>
			<polygon style="clip-path:url(#SVGID_16_);fill:#BCDBEA;" points="162.765,100.092 84.133,173.268 84.133,168.875 
				162.765,95.699 			"/>
			<polygon style="clip-path:url(#SVGID_16_);fill:#BCDBEA;" points="162.765,104.485 84.133,177.661 84.133,173.268 
				162.765,100.092 			"/>
			<polygon style="clip-path:url(#SVGID_16_);fill:#BBDBE9;" points="162.765,108.878 84.133,182.054 84.133,177.661 
				162.765,104.485 			"/>
			<polygon style="clip-path:url(#SVGID_16_);fill:#BADBE9;" points="162.765,113.271 84.133,186.447 84.133,182.054 
				162.765,108.878 			"/>
			<polygon style="clip-path:url(#SVGID_16_);fill:#B9DAE9;" points="162.765,117.664 84.372,190.618 84.133,190.618 
				84.133,186.447 162.765,113.271 			"/>
			<polygon style="clip-path:url(#SVGID_16_);fill:#B9DAE9;" points="162.765,122.057 89.092,190.618 84.372,190.618 
				162.765,117.664 			"/>
			<polygon style="clip-path:url(#SVGID_16_);fill:#B8DAE8;" points="162.765,126.45 93.813,190.618 89.092,190.618 
				162.765,122.057 			"/>
			<polygon style="clip-path:url(#SVGID_16_);fill:#B6D9E8;" points="162.765,130.843 98.534,190.618 93.813,190.618 
				162.765,126.45 			"/>
			<polygon style="clip-path:url(#SVGID_16_);fill:#B6D9E8;" points="162.765,135.236 103.254,190.618 98.534,190.618 
				162.765,130.843 			"/>
			<polygon style="clip-path:url(#SVGID_16_);fill:#B6D8E8;" points="162.765,139.629 107.975,190.618 103.254,190.618 
				162.765,135.236 			"/>
			<polygon style="clip-path:url(#SVGID_16_);fill:#B5D8E7;" points="162.765,144.022 112.695,190.618 107.975,190.618 
				162.765,139.629 			"/>
			<polygon style="clip-path:url(#SVGID_16_);fill:#B4D7E7;" points="162.765,148.415 117.416,190.618 112.695,190.618 
				162.765,144.022 			"/>
			<polygon style="clip-path:url(#SVGID_16_);fill:#B4D7E7;" points="162.765,152.808 122.136,190.618 117.416,190.618 
				162.765,148.415 			"/>
			<polygon style="clip-path:url(#SVGID_16_);fill:#B2D7E7;" points="162.765,157.201 126.857,190.618 122.136,190.618 
				162.765,152.808 			"/>
			<polygon style="clip-path:url(#SVGID_16_);fill:#B2D7E7;" points="162.765,161.594 131.577,190.618 126.857,190.618 
				162.765,157.201 			"/>
			<polygon style="clip-path:url(#SVGID_16_);fill:#B1D6E6;" points="162.765,165.987 136.298,190.618 131.577,190.618 
				162.765,161.594 			"/>
			<polygon style="clip-path:url(#SVGID_16_);fill:#B0D6E6;" points="162.765,170.38 141.019,190.618 136.298,190.618 
				162.765,165.987 			"/>
			<polygon style="clip-path:url(#SVGID_16_);fill:#AFD5E6;" points="162.765,174.773 145.739,190.618 141.019,190.618 
				162.765,170.38 			"/>
			<polygon style="clip-path:url(#SVGID_16_);fill:#AFD5E6;" points="162.765,179.166 150.46,190.618 145.739,190.618 
				162.765,174.773 			"/>
			<polygon style="clip-path:url(#SVGID_16_);fill:#AED5E5;" points="162.765,183.559 155.18,190.618 150.46,190.618 
				162.765,179.166 			"/>
			<polygon style="clip-path:url(#SVGID_16_);fill:#ADD4E5;" points="162.765,187.952 159.901,190.618 155.18,190.618 
				162.765,183.559 			"/>
			<polygon style="clip-path:url(#SVGID_16_);fill:#ACD4E5;" points="159.901,190.618 162.765,187.952 162.765,190.618 			"/>
		</g>
	</g>
	<g id="Rectangle-30-Copy_1_" style="opacity:0.3711;enable-background:new    ;">
		<path style="fill:#2A468C;" d="M151.265,170.156H97.601c-4.537,0-8.228-4.259-8.228-9.495V67.593c0-5.236,3.691-9.495,8.228-9.495
			h53.664c4.537,0,8.228,4.259,8.228,9.495v93.068C159.494,165.896,155.802,170.156,151.265,170.156z M97.601,59.068
			c-4.002,0-7.258,3.824-7.258,8.524v93.068c0,4.7,3.255,8.524,7.258,8.524h53.664c4.002,0,7.258-3.824,7.258-8.524V67.593
			c0-4.7-3.255-8.524-7.258-8.524H97.601z"/>
	</g>
	<g id="Oval-25_1_">
		<ellipse style="fill:#E2F0F6;" cx="41.89" cy="44.063" rx="1.301" ry="1.514"/>
	</g>
	<g id="Oval-25-Copy_1_">
		<ellipse style="fill:#E2F0F6;" cx="46.322" cy="44.063" rx="1.301" ry="1.514"/>
	</g>
	<g id="Oval-25-Copy-2_1_">
		<ellipse style="fill:#E2F0F6;" cx="51.862" cy="44.063" rx="1.301" ry="1.514"/>
	</g>
</g>
</svg>
