<?xml version="1.0" encoding="iso-8859-1"?>
<!-- Generator: Adobe Illustrator 17.1.0, SVG Export Plug-In . SVG Version: 6.00 Build 0)  -->
<!DOCTYPE svg PUBLIC "-//W3C//DTD SVG 1.1//EN" "http://www.w3.org/Graphics/SVG/1.1/DTD/svg11.dtd">
<svg version="1.1" id="&#x56FE;&#x5C42;_1" xmlns="http://www.w3.org/2000/svg" xmlns:xlink="http://www.w3.org/1999/xlink" x="0px"
	 y="0px" viewBox="0 0 104.877 169.178" style="enable-background:new 0 0 104.877 169.178;" xml:space="preserve">
<g>
	<g id="XMLID_777_">
		
			<rect id="XMLID_32_" x="42.872" y="32.11" transform="matrix(0.9746 0.2239 -0.2239 0.9746 9.6075 -9.3425)" style="fill:#E8B389;" width="6.244" height="11.155"/>
		<g id="XMLID_29_">
			<path id="XMLID_31_" style="fill:#E8B389;" d="M51.939,20.759c-0.034-0.01-0.071-0.018-0.106-0.028
				c-0.001,0.008,0,0.016-0.002,0.023C51.845,20.745,51.885,20.748,51.939,20.759z"/>
			<path id="XMLID_30_" style="fill:#E8B389;" d="M52.309,20.884c0.271,0.123,0.504,0.305,0.228,0.438
				c-1.294,0.622-1.394,2.083-2.984,2.368c-0.484,0.087-0.975,0.087-1.46,0.075c-1.702,0.466-2.374,1.751-2.727,3.425
				c-0.099,0.47-0.22,0.904-0.521,1.288c-0.453,0.577-1.065,0.894-1.234,1.679c-0.328,1.526,1.2,2.035,1.26,3.382
				c0.016,0.365-0.083,0.688-0.251,0.974c0.249,0.36,0.524,0.684,0.826,0.95c0.043,0.114,0.11,0.226,0.211,0.332
				c1.461,1.537,3.851,2.757,6.079,2.403c2.237-0.356,3.157-3.352,3.716-5.164C56.61,29.277,56.885,22.583,52.309,20.884z"/>
		</g>
		<path id="XMLID_28_" style="fill:#AB593E;" d="M55.367,23.852c-0.091-1.456-1.108-2.551-2.341-3.298
			c0.021-0.536-0.411-0.976-0.81-1.279c-1.645-1.253-4.195-1.251-6.099-0.75c-1.73,0.455-3.953,1.158-4.749,2.958
			c-2.377,5.373-0.15,9.061,1.447,13.16l-0.001,0.001c0,0,0.163,0.856,0.817,0.856c0.948,0,1.243-1.878,1.239-1.961
			c-0.06-1.348-1.588-1.857-1.26-3.382c0.169-0.785,0.781-1.102,1.234-1.679c0.301-0.384,0.422-0.818,0.521-1.288
			c0.353-1.675,1.025-2.96,2.727-3.425c0.486,0.013,0.976,0.012,1.46-0.075c1.476-0.264,1.67-1.541,2.724-2.22
			c0.212-0.088,0.404-0.202,0.543-0.364C54.022,21.699,54.84,22.677,55.367,23.852z"/>
		<path id="XMLID_24_" style="fill:#292E4A;" d="M56.659,28.072c-0.016-0.055-0.176-0.373-0.345-0.363
			c-0.887,0.053-1.775,0.107-2.662,0.16c-0.418,0.025-0.878-0.039-1.166,0.308c-0.12,0.145-0.202,0.349-0.249,0.58
			c-0.489-0.18-0.997-0.2-1.493-0.057c-0.049-0.207-0.126-0.39-0.236-0.523c-0.287-0.347-0.748-0.283-1.166-0.308
			c-0.887-0.053-1.775-0.107-2.662-0.16c-0.087-0.005-0.317,0.15-0.365,0.16c-0.649,0.133-1.372,0.076-2.033,0.097
			c-0.361,0.012-0.362,0.574,0,0.562c0.638-0.021,1.32,0.017,1.959-0.079c-0.19,0.878-0.189,1.951,0.702,2.387
			c0.479,0.234,1.041,0.211,1.559,0.213c0.507,0.002,1.227,0.124,1.679-0.175c0.408-0.271,0.624-0.964,0.625-1.608
			c0.452-0.145,0.916-0.141,1.36,0.064c0.009,0.004,0.016,0.003,0.025,0.006c0.016,0.623,0.231,1.276,0.624,1.537
			c0.451,0.3,1.172,0.178,1.679,0.175c0.519-0.002,1.081,0.021,1.559-0.213C57.076,30.335,56.924,28.992,56.659,28.072z
			 M50.092,30.076c-0.343,0.646-1.658,0.456-2.301,0.396c-1.228-0.115-1.181-1.256-0.934-2.188c0.73,0.044,1.46,0.088,2.189,0.132
			c0.306,0.018,0.831-0.069,1.046,0.187C50.301,28.85,50.227,29.82,50.092,30.076z M55.202,30.471
			c-0.642,0.06-1.958,0.25-2.301-0.396c-0.135-0.255-0.209-1.225,0-1.474c0.215-0.255,0.74-0.168,1.046-0.187
			c0.73-0.044,1.46-0.088,2.189-0.132C56.383,29.215,56.431,30.357,55.202,30.471z"/>
		<path id="XMLID_23_" style="fill:#E8B389;" d="M79.792,40.753c-0.858-0.61-2.699,1.647-2.892,2.719
			c-0.087,0.486-0.033,1.052-0.17,1.522c-0.046,0.156-0.11,0.281-0.182,0.393c-0.018-0.811-0.303-2.19-1.077-2.207
			c-0.329-0.007-0.529,0.266-0.563,0.563c-0.099,0.878-0.063,1.726,0.111,2.558c-0.613,0.875-0.821,1.598-1.292,2.522
			c-0.326,0.64,2.237,2.122,2.541,1.8c0.993-1.052,2.002-2.09,2.98-3.156c0.669-0.729,1.259-1.442,1.447-2.443
			C80.93,43.775,80.977,41.595,79.792,40.753z"/>
		<path id="XMLID_22_" style="fill:#F5E8D8;" d="M75.66,49.641c-0.596-0.444-1.449-1.199-2.235-0.761
			c-0.745,0.414-1.304,1.574-1.769,2.253c-0.411,0.599,0.561,1.157,0.971,0.567c0.187-0.269,0.376-0.537,0.566-0.804
			c0.032,0.051,0.067,0.098,0.105,0.144c0.034,0.112,0.102,0.217,0.214,0.302c0.182,0.137,0.453,0.387,0.751,0.605
			c0.329,0.321,0.576,0.695,0.66,1.218c0.001,0.005,0.003,0.009,0.004,0.014c-0.02,0.057-0.038,0.112-0.053,0.163
			c-0.159,0.541,0.554,0.955,0.945,0.55c0.607-0.627,1.11-1.435,1.22-2.318C77.154,50.637,76.336,50.145,75.66,49.641z"/>
		<polygon id="XMLID_21_" style="fill:#E8B389;" points="39.757,146.673 42.922,146.904 43.69,140.755 39.327,140.861 		"/>
		<path id="XMLID_20_" style="fill:#292E4A;" d="M39.628,147.039c-0.008-0.325-0.022-0.55,0.295-0.578
			c1.022-0.09,2.071-0.169,3.068,0.129c1.07,0.319,1.87,0.672,3.011,1.021c0.845,0.258,2.101,0.722,2.443,1.626
			c0.176,0.466,0.074,0.928-0.286,1.314c-0.596,0.637-2.015,0.359-2.752,0.339c-1.314-0.034-2.673,0.027-3.98-0.115
			C39.158,150.527,39.666,148.72,39.628,147.039z"/>
		<polygon id="XMLID_19_" style="fill:#E8B389;" points="63.253,143.063 66.329,142.283 64.384,136.419 61.011,137.683 		"/>
		<path id="XMLID_15_" style="fill:#292E4A;" d="M63.036,142.928c-0.03-0.324-0.061-0.547,0.253-0.597
			c1.013-0.162,2.054-0.314,3.07-0.087c1.09,0.243,1.913,0.539,3.075,0.807c0.862,0.198,2.146,0.572,2.551,1.451
			c0.209,0.453,0.14,0.921-0.193,1.331c-0.55,0.677-1.985,0.5-2.721,0.532c-1.313,0.058-2.664,0.215-3.978,0.165
			C62.812,146.44,63.193,144.602,63.036,142.928z"/>
		<path id="XMLID_14_" style="fill:#E0881E;" d="M65.712,139.741c-2.851-22.476-5.072-41.994-10.859-59.127
			c-0.631-1.867-3.602-1.07-2.971,0.819c0.003,0.01,0.006,0.019,0.01,0.029c-0.269-0.232-0.545-0.461-0.839-0.682
			c-0.553-0.416-1.42-0.192-1.88,0.243c-0.729,0.689-1.555,1.124-2.464,1.333c-0.907-1.075-2.316-1.662-3.671-1.934
			c-1.423-0.286-3.374-0.653-4.364,0.61c-0.808-0.486-5.093,0.064-5.337,1.241c-1.559,7.534,4.718,60.44,4.88,62.277
			c0.07,0.795,5.168,0.561,5.356-0.444c0.683-3.672,4.496-39.226,4.807-42.889c1.632,5.335,12.383,38.371,12.631,39.612
			C61.172,141.633,65.843,140.774,65.712,139.741z"/>
		<path id="XMLID_286_" style="fill:#E8B389;" d="M37.857,87.911c-0.435-0.797-2.182-4.292-3.387-2.769
			c-0.308,0.39-1.261,2.249-1.118,2.532c0.838,1.649,1.798,4.179,4.027,4.207C39.321,91.905,38.4,88.906,37.857,87.911z"/>
		<path id="XMLID_287_" style="fill:#292E4A;" d="M41.846,48.329c-0.699-1.202-1.398-2.403-2.097-3.605
			c-0.255-0.438-0.518-0.873-0.758-1.318c0.576-0.333,1.162-0.66,1.714-0.96c0.001-0.001,0.001-0.002,0.002-0.002
			c-1.775,0.964-8.22,3.879-9.113,4.723c-1.666,1.571-3.269,5.528-6.913,14.763c-0.919,2.329-1.406,9.649,2.687,15.745
			c1.979,2.948,4.209,7.842,5.823,10.368c0.662,1.037,1.777-2.76,1.777-2.76s4.467,2.939,6.501,2.058
			c1.125-0.487,2.367-2.813,2.541-3.971c0.907-6.045,0.897-20.338,0.33-30.754C43.508,51.186,42.677,49.758,41.846,48.329z"/>
		<g id="XMLID_289_">
			<path id="XMLID_288_" style="fill:#292E4A;" d="M76.269,53.45c-0.321-1.303-2.356-2.734-3.883-2.912
				c-1.006-0.117-3.459,3.786-4.56,5.379c-0.405,0.586-1.916,2.409-2.362,3.024c-0.875-1.534-3.759-7.707-4.678-9.081
				c-1.5-2.245-0.935-2.732-9.06-7.284c0.016,0.011,0.031,0.022,0.046,0.032c0.058,1.625-0.1,3.285-0.227,4.746
				c-0.26,2.983-0.982,5.913-2.694,8.41c-0.097,0.141-0.213,0.261-0.339,0.364l1.18,23.058c0,0-0.435,7.051,3.452,7.856
				c1.842,0.381,5.46-0.194,5.514-0.98c0.129-1.879-0.228-16.655-0.453-23.128c1.319,1.486,2.722,2.906,4.154,4.288
				c0.144,0.139,0.3,0.24,0.463,0.311c0.002,0.002,1.621,1.268,1.624,1.27C69.357,72.311,76.398,53.976,76.269,53.45z"/>
		</g>
		<path id="XMLID_290_" style="fill:#22253B;" d="M41.526,48.402c-0.061-0.312-0.122-0.625-0.183-0.937
			c-0.531-0.914-1.063-1.827-1.594-2.741c-0.255-0.438-0.518-0.873-0.758-1.318c0.469-0.271,0.941-0.535,1.399-0.787
			c0-0.001,0-0.002-0.001-0.003c-1.324,0.728-2.791,1.587-3.81,2.266c0.484,3.81,1.44,7.704,3.867,10.604
			c0.61,0.728,1.917,0.322,2.119-0.56c0.208-0.906-0.122-1.853-0.298-2.748C42.021,50.921,41.774,49.662,41.526,48.402z"/>
		<path id="XMLID_743_" style="fill:#22253B;" d="M51.733,42.576c0.016,0.011,0.031,0.022,0.046,0.032
			c0.058,1.625-0.1,3.285-0.227,4.746c-0.217,2.491-0.759,4.944-1.928,7.139c0.152,1.093,1.702,1.705,2.339,0.532
			c1.72-3.165,2.833-6.728,3.012-10.343C54.038,43.973,52.967,43.266,51.733,42.576z"/>
		<path id="XMLID_744_" style="fill:#B8B7B7;" d="M51.773,42.609c-0.018-0.012-0.035-0.025-0.054-0.037
			c-0.521-0.34-1.071-0.609-1.639-0.823c-0.218-0.769-0.809-1.603-1.52-1.896c-0.393-0.162-0.642,0.033-0.975,0.25
			c-0.544,0.354-1.075,0.729-1.603,1.106c-0.071,0.005-0.141,0.009-0.212,0.015c-0.765-0.702-1.929-1.197-2.763-1.403
			c-0.409-0.101-0.541-0.108-0.829,0.188c-0.637,0.654-0.884,1.683-1.472,2.423c-0.552,0.3-1.138,0.627-1.714,0.96
			c0.24,0.445,0.503,0.88,0.758,1.318c0.093,0.161,0.199,0.632,0.341,1.833c0.004,0.034,0.152,0.442,0.156,0.476
			c0.757,6.471,1.981,25.051,3.114,32.838c0.009,0.062-0.061,0.234-0.052,0.294c0.241,1.626,0.483,2.843,0.701,3.218
			c0.295,0.507,5.924,1.683,5.967-0.758c0.015-0.814,0.058-1.959,0.097-3.021c0.001-0.027-0.07-0.329-0.069-0.356
			c0.335-8.995,1.356-25.266,1.812-31.404c0.002-0.027,0.154-0.307,0.155-0.333c0.091-1.224,0.14-1.843,0.16-2.08
			C52.26,43.956,52.157,44.388,51.773,42.609z"/>
		<path id="XMLID_758_" style="fill:#42627F;" d="M48.077,58.455c0.015-0.021-0.015-3.404,0-3.425c-0.06-1.551-0.18-3.1-0.456-4.629
			c-0.071-0.392-0.154-0.781-0.246-1.168c-0.08-0.368-0.171-0.735-0.287-1.101c-0.005-0.015-0.015-0.025-0.021-0.038
			c-0.049-0.161-0.097-0.322-0.151-0.481c-0.24-0.713-0.609-1.404-0.846-2.12c0.312-0.272,0.613-0.554,0.892-0.861
			c0.209-0.23,0.608-0.576,0.688-0.882c0.139-0.535-1.696-2.584-1.882-2.379c-0.196,0.216-1.496,1.631-1.786,2.003
			c-0.055,0.07-0.061,0.211-0.009,0.284c0.45,0.627,0.927,1.23,1.433,1.812c-0.601,1.585-1.033,3.14-1.01,4.867
			c0.017,1.267-0.342,6.318-0.085,7.557C44.476,58.199,47.407,59.371,48.077,58.455z"/>
		<path id="XMLID_775_" style="fill:#1B1F31;" d="M46.601,73.428c0.745,2.31,1.842,4.452,3.473,6.161
			c0.347-9.189,1.492-26.177,1.915-32.117c-2.315,3.386-4.555,6.878-6.025,10.699c-0.268-1.054-0.584-2.097-1.05-3.105
			c-1.364-2.951-3.172-5.728-4.823-8.523c-0.007-0.012-0.015-0.023-0.023-0.035c0.732,6.071,2.079,25.713,3.241,33.643
			C44.657,78.072,46.035,75.823,46.601,73.428z"/>
		<path id="XMLID_776_" style="fill:#22253B;" d="M33.869,75.103c-0.889-2.782-1.423-5.407-0.453-8.251
			c1.376-4.036,5.254-8.271,2.6-12.6c-0.281-0.459-1.005-0.04-0.723,0.423c1.715,2.819,0.266,5.582-1.034,8.218
			c-0.911,1.849-1.864,3.732-2.168,5.794c-0.336,2.283,0.277,4.482,0.966,6.639c0.834,2.609,1.746,5.192,2.708,7.757
			c0.189,0.503,1.003,0.285,0.812-0.224C35.616,80.296,34.703,77.712,33.869,75.103z"/>
	</g>
	<path style="fill:#E0881E;" d="M53.005,34.059c0,0-2.573,0.287-3.38,0C49.625,34.059,51.81,35.462,53.005,34.059z"/>
</g>
</svg>
