<?xml version="1.0" encoding="iso-8859-1"?>
<!-- Generator: Adobe Illustrator 17.1.0, SVG Export Plug-In . SVG Version: 6.00 Build 0)  -->
<!DOCTYPE svg PUBLIC "-//W3C//DTD SVG 1.1//EN" "http://www.w3.org/Graphics/SVG/1.1/DTD/svg11.dtd">
<svg version="1.1" id="&#x56FE;&#x5C42;_1" xmlns="http://www.w3.org/2000/svg" xmlns:xlink="http://www.w3.org/1999/xlink" x="0px"
	 y="0px" viewBox="0 0 104.877 169.178" style="enable-background:new 0 0 104.877 169.178;" xml:space="preserve">
<g id="XMLID_445_">
	<polygon id="XMLID_473_" style="fill:#E8B389;" points="68.373,143.691 71.532,143.388 68.031,117.882 61.106,118.154 	"/>
	<path id="XMLID_472_" style="fill:#292E4A;" d="M68.332,143.776c-0.066-0.29-0.12-0.489,0.158-0.572
		c0.899-0.268,1.825-0.531,2.773-0.446c1.017,0.09,1.799,0.26,2.885,0.364c0.805,0.077,2.015,0.262,2.487,1.01
		c0.243,0.386,0.237,0.818-0.016,1.23c-0.417,0.68-1.74,0.69-2.404,0.808c-1.184,0.21-2.39,0.514-3.588,0.625
		C68.549,146.987,68.674,145.275,68.332,143.776z"/>
	<polygon id="XMLID_471_" style="fill:#E8B389;" points="29.606,129.539 31.478,132.102 51.629,116.077 47.861,110.261 	"/>
	<path id="XMLID_470_" style="fill:#292E4A;" d="M29.512,129.547c0.215-0.205,0.359-0.353,0.573-0.156
		c0.689,0.637,1.387,1.299,1.799,2.157c0.441,0.921,0.694,1.68,1.159,2.667c0.345,0.731,0.802,1.867,0.4,2.654
		c-0.207,0.406-0.583,0.621-1.066,0.614c-0.798-0.012-1.482-1.145-1.921-1.655c-0.784-0.911-1.661-1.794-2.368-2.767
		C26.861,131.372,28.398,130.607,29.512,129.547z"/>
	<path id="XMLID_469_" style="fill:#E8B389;" d="M86.309,52.033c-0.249-0.93-0.547-1.839-0.882-2.736
		c-0.164-1.578-1.615-4.288-2.014-4.778c-0.376-0.463-1.16-1.067-1.884-1.119c-0.653-0.246-1.457,0.012-1.322,0.886
		c0.067,0.432,0.311,0.849,0.466,1.253c0.169,0.439,0.255,0.874,0.361,1.331c0.047,0.202,0.105,0.393,0.178,0.571
		c-0.456,0.807-0.975-0.176-1.192-0.426c-0.138-0.158-0.448-0.082-0.487,0.128c-0.194,1.055,0.47,1.789,1.341,2.117
		c0.617,0.595,1.359,1.227,2.107,1.497c0.234,0.546,0.523,1.077,0.756,1.591c0.077,0.169,0.276,0.17,0.414,0.085
		c0.147,0.02,0.312-0.088,0.344-0.247c0.145,0.11,0.364,0.071,0.443-0.077c0.175,0.206,0.549,0.092,0.511-0.2
		c0.068,0.052,0.152,0.069,0.233,0.054c0.021,0.075,0.044,0.149,0.064,0.224C85.842,52.552,86.407,52.398,86.309,52.033z"/>
	<path id="XMLID_463_" style="fill:#EA8879;" d="M38.128,91.1c-0.299-1.067-1.042-1.925-1.807-2.692
		c-0.752-0.754-1.527-1.486-2.302-2.217c0.488-1.637,0.329-3.54-0.464-4.929c-1.336-2.341-3.795-2.191-5.783-1.071
		c-0.947-0.907-1.897-1.81-2.863-2.696c-0.823-0.755-1.595-1.3-2.539-0.395c-0.067,0.064-0.13,0.133-0.195,0.199
		c-0.072,0.032-0.143,0.072-0.211,0.127c-2.153,1.748-4.119,3.707-5.849,5.876c-1.4,1.755-3.426,3.943-2.982,6.373
		c0.442,2.415,2.668,4.553,4.143,6.415c1.9,2.396,3.881,4.819,6.129,6.902c1.899,1.76,3.778,1.269,5.737-0.222
		c2.189-1.666,3.994-3.913,5.885-5.898C36.558,95.264,38.831,93.611,38.128,91.1z M28.426,80.82
		c1.742-0.863,3.805-0.811,4.621,1.466c0.336,0.939,0.442,2.12,0.238,3.213c-0.2-0.189-0.401-0.378-0.6-0.568
		C31.26,83.569,29.848,82.19,28.426,80.82z"/>
	<path id="XMLID_462_" style="fill:#E8B389;" d="M37.426,72.467c-0.015,0.022-0.031,0.043-0.046,0.064
		c-0.134-0.098-0.312-0.129-0.458-0.033c-0.086-0.211-0.322-0.351-0.543-0.263c-0.064-0.288-0.468-0.46-0.709-0.243
		c-0.166-0.149-0.438-0.188-0.607,0.003c-0.599,0.678-1.1,1.397-1.516,2.171c-0.572,0.679-0.931,1.41-1.106,2.302
		c-0.012,0.061-0.011,0.12-0.001,0.174c-1.454,1.09-2.303,2.711-2.383,4.565c-0.282,0.369,1.674,2.289,1.745,2.24
		c0.928-0.288,3.055-2.605,3.25-3.209c0.153-0.474,0.063-0.935,0.073-1.419c0.021-1.1,0.329-1.885,0.799-2.878
		c0.017-0.037,0.028-0.074,0.035-0.11c0.773-0.955,1.514-1.932,2.224-2.936C38.504,72.439,37.746,72.013,37.426,72.467z"/>
	<path id="XMLID_461_" style="fill:#292E4A;" d="M65.763,21.503c-1.308-0.188-4.133-0.791-5.233,0.202
		c-0.963,0.869-0.523,1.934,0.208,2.705c-0.589,0.337-1.424,0.466-1.784,1.135c-0.226,0.421-0.079,0.938-0.352,1.25
		c-0.432,0.493-1.181,0.712-1.632,1.263c-0.712,0.868-0.981,2.056-0.558,3.117c0.208,0.52,0.558,0.918,1.015,1.236
		c0.321,0.223,0.407,0.169,0.453,0.498c0.027,0.195-0.251,0.647-0.272,0.874c-0.222,2.471,3.65,4.151,5.626,3.272
		c1.683-0.749,2.117-2.936,1.929-4.939c0.003-0.008,0.007-0.016,0.01-0.024c0.3-0.826,0.601-1.651,0.901-2.477
		c0.002-0.002,0.005-0.003,0.007-0.005c0.899-0.81,2.014-1.3,3.234-1.31c0.58-0.005,1.27,0.264,1.878,0.18
		c0.339,0.724,1.654,0.601,1.653-0.373C72.843,24.204,69.245,22.005,65.763,21.503z"/>
	<path id="XMLID_460_" style="fill:#292E4A;" d="M72.293,136.589c-0.991-4.598-1.65-13.603-2.368-18.249
		c-0.702-4.542-1.522-9.085-2.962-13.46c-0.049-0.15-0.103-0.299-0.154-0.448c0.427-0.892,0.753-1.831,0.941-2.826
		c0.439-2.319,0.238-4.728,0.195-7.073c-0.036-1.962-0.075-3.923-0.111-5.884c0.271-3.844,0.114-7.765,0.151-11.415
		c0.018-1.821-1.957-2.359-3.145-1.618c-0.609-0.554-1.421-0.872-2.395-0.779c-1.068,0.102-1.922,0.717-2.478,1.572
		c-2.556-0.744-5.095-1.542-7.613-2.409c-1.256-0.432-2.105,0.322-2.369,1.308c-0.946-0.217-2.033,0.148-2.393,1.343
		c-3.055,10.146-0.719,19.396,3.198,28.387c-3.116,2.191-6.065,4.535-8.633,7.41c-3.251,3.639-6.238,7.532-9.317,11.316
		c-0.377,0.464-0.625,1.209-0.227,1.759c0.975,1.346,1.278,1.502,2.252,2.848c0.414,0.572,1.319,1.038,1.988,0.521
		c6.169-4.764,12.429-10.652,18.599-15.415c3.907,7.589,8.429,17.488,10.04,25.467C65.628,139.612,72.722,138.579,72.293,136.589z"
		/>
	<path id="XMLID_459_" style="fill:#F5E8D8;" d="M89.604,60.414c-0.274-2.692-0.512-5.41-1.891-7.788
		c-0.021-0.157-0.042-0.314-0.063-0.472c-0.103-0.759-1.115-1.226-1.785-1.013c-0.827,0.262-1.654,0.525-2.48,0.787
		c-0.448,0.142-0.772,0.456-0.933,0.848c-0.162,0.281-0.247,0.613-0.234,0.937c0.017,0.454,0.164,0.94,0.319,1.397
		c-0.124,0.338-0.431,0.656-0.638,0.929c-0.287,0.377-0.55,0.759-0.772,1.162c-0.143-0.149-0.291-0.292-0.452-0.424
		c-0.904-0.74-1.597-1.583-2.577-2.002c-0.524-0.706-0.803-1.462-1.044-2.378c-0.278-1.057-0.59-2.052-1.175-2.881
		c-0.782-1.783-2.394-3.159-4.154-4.399c-1.425-1.004-3.092-1.664-4.751-2.174c-1.717-0.528-9.803-1.112-13.349,0.191
		c-4.779,1.755-8.828,6.471-11.722,10.689c-1.404,1.002-2.587,2.235-3.291,3.901c-0.457,1.081-0.758,2.231-1.128,3.352
		c-0.057,0.093-0.109,0.175-0.153,0.241c-0.943,1.397-1.767,2.743-2.37,4.254c-0.471,0.596-0.941,1.19-1.352,1.827
		c-0.397,0.396-0.722,0.838-0.914,1.297c-0.27,0.643-0.378,1.372-0.186,2.055c0.168,0.599,0.858,1.191,1.05,1.78
		c-0.208,0.384-0.414,0.77-0.612,1.159c-0.218,0.429-0.476,0.888-0.356,1.388c0.216,0.9,1.655,1.553,2.443,1.816
		c1.085,0.361,1.684-0.232,2.141-1.122c0.187-0.149,0.365-0.306,0.538-0.467c0.82-0.303,1.761-0.29,2.539-0.808
		c0.759-0.505,1.277-1.298,1.644-2.114c0.49-1.089,0.704-2.269,1.283-3.32c0.747-0.304,5.121-5.179,5.091-5.074
		c-0.706,2.44-2.895,3.391-2.256,8.73c0.133,1.113,0.79,2.098,1.071,3.185c0.361,1.396,0.25-0.032,0.123,1.391
		c-0.19,2.129,0.66,3.356,2.801,3.604c2.869,0.332,5.745,0.612,8.617,0.918c2.115,0.225,6.327,1.01,7.88,0.206
		c0.789-0.408,0.922-0.945,1.314-2.846c0.501-2.431,3.072-13.217,3.39-16.815c2.014,2.09,5.5,5.307,11.932,7.863
		c1.071,0.426,2.408,0.45,3.464-0.13c1.026-0.564,1.531-1.664,1.909-2.727C89.457,64.712,89.881,63.135,89.604,60.414z"/>
	<path id="XMLID_458_" style="fill:#E8B389;" d="M67.736,25.425c-3.929,0.907-5.744,5.759-4.325,9.323
		c-0.421,1.806-1.134,3.54-1.818,5.261c-0.695,1.75-0.656,2.72,1.113,3.632c1.671,0.861,3.061,1.486,4.272-0.284
		c0.758-1.108,1.26-2.356,1.663-3.636c2.14,0.018,3.611-1.77,4.225-3.721C74.023,32.328,73.549,24.082,67.736,25.425z"/>
	<path id="XMLID_451_" style="fill:#B1B6D8;" d="M67.819,63.974c-1.748,6.098-3.451,12.209-5.153,18.32
		c0.302,0.026,0.6,0.046,0.893,0.06c1.688-6.053,3.371-12.107,5.101-18.148c1.649-5.755,3.793-11.469,5.291-17.303
		c-0.234-0.223-0.479-0.439-0.732-0.65C71.711,52.23,69.508,58.078,67.819,63.974z M88.36,53.959
		c-1.635,5.452-3.409,10.86-5.321,16.221c0.035,0.014,0.069,0.028,0.104,0.042c0.235,0.094,0.485,0.164,0.74,0.217
		c1.778-4.97,3.428-9.986,4.955-15.038C88.707,54.912,88.55,54.431,88.36,53.959z M75.943,66.414
		c0.246,0.171,0.501,0.342,0.765,0.514c1.078-3.602,2.203-7.191,3.22-10.808c-0.243-0.223-0.481-0.44-0.725-0.64
		C78.178,59.141,77.037,62.771,75.943,66.414z M65.801,42.707c-3.697,12.998-7.863,25.856-12.492,38.552
		c0.299,0.032,0.597,0.064,0.896,0.095c4.627-12.671,8.782-25.513,12.458-38.492C66.43,42.809,66.14,42.757,65.801,42.707z
		 M55.76,42.626c-2.997,10.56-6.102,21.089-9.309,31.587c0.177,0.434,0.37,0.864,0.519,1.308
		c3.367-10.967,6.607-21.973,9.723-33.013C56.372,42.541,56.061,42.58,55.76,42.626z M45.604,49.071
		c-2.373,8.732-4.859,17.433-7.457,26.1c0.327-0.084,0.663-0.146,0.995-0.228c2.708-9.029,5.284-18.099,7.728-27.203
		C46.436,48.171,46.013,48.615,45.604,49.071z"/>
	<path id="XMLID_450_" style="fill:#DA7455;" d="M65.981,44.892c-0.495-0.491-1.646-0.441-2.274-0.368
		c-0.115,0.013-0.23,0.073-0.316,0.157c-0.265-0.007-0.537,0.201-0.432,0.526c0.154,0.476,0.307,0.952,0.46,1.427
		c0.072,0.222,0.127,0.485,0.236,0.71c-1.072,1.925-3.405,2.999-5.306,3.922c-1.938,0.941-3.942,1.747-5.836,2.778
		c-3.183,1.734-6.784,4.568-6.471,8.598c0.02,0.254,0.267,0.53,0.551,0.42c1.727-0.669,2.884-2.09,4.232-3.3
		c1.828-1.64,3.808-3.087,5.901-4.368c3.125-1.912,6.55-3.863,7.699-7.544c0.426-0.034,0.789-0.476,0.984-0.853
		c0.214-0.414,0.444-0.825,0.639-1.248C66.183,45.46,66.23,45.139,65.981,44.892z"/>
	<path id="XMLID_449_" style="fill:#292E4A;" d="M71.848,25.49c-0.711-0.207-1.443-0.304-2.171-0.299
		c0.114-0.616-0.565-1.355-1.309-0.969c-1.318,0.683-2.372,1.542-3.238,2.533c-0.209,0.164-0.413,0.338-0.605,0.527
		c-0.492,0.485-0.846,1.077-1.305,1.587c-0.459,0.509-0.916,0.902-1.235,1.526c-0.594,1.162-0.625,2.508-0.18,3.719
		c0.155,0.421,0.566,0.642,0.949,0.619c-0.195,0.344-0.397,0.569-0.493,0.372c-0.485-0.999-1.956-0.126-1.486,0.868
		c0.506,1.069,1.735,1.272,2.689,0.624c1.148-0.781,1.592-2.255,1.456-3.575c-0.106-1.027-0.428-1.51,0.591-2.225
		c0.635-0.446,0.959-0.757,1.411-1.424c1.044-1.538,2.519-2.514,4.462-2.2C72.469,27.346,72.949,25.812,71.848,25.49z"/>
	<path id="XMLID_446_" style="fill:#F5E8D8;" d="M68.775,45.732c-0.378-0.956-0.44-2.154-0.925-3.044
		c-0.208-0.382-0.535-0.691-1.006-0.685c-0.731,0.01-1.475,0.828-2.014,1.208c-0.236,0.166-0.471,0.332-0.707,0.498
		c-0.419-1.117-1.858-2.227-2.58-2.749c-0.14-0.101-0.417-0.072-0.527,0.068c-0.444,0.564-0.861,1.139-1.251,1.742
		c-0.228,0.353,0.138,0.684,0.463,0.628c-0.197,1.002,0.537,2.021,1.52,2.292c-0.005,0.078-0.014,0.158-0.029,0.241
		c-0.061,0.328,0.309,0.751,0.645,0.496c0.436-0.332,1.403-0.809,1.676-1.438c0.041-0.03,0.081-0.061,0.122-0.092
		c0.621,0.651,1.484,1.813,2.351,1.81c0.145,0,0.313-0.081,0.379-0.217c0.064-0.133,0.117-0.267,0.164-0.402
		c0.429,0.126,0.862,0.205,1.296,0.2C68.611,46.285,68.883,46.005,68.775,45.732z M67.273,44.98c0.088-0.07,0.148-0.179,0.146-0.327
		c-0.001-0.067,0-0.133,0-0.2c0.084,0.301,0.178,0.598,0.281,0.893c-0.15-0.029-0.301-0.066-0.453-0.111
		C67.257,45.149,67.267,45.065,67.273,44.98z"/>
</g>
</svg>
