<?xml version="1.0" encoding="iso-8859-1"?>
<!-- Generator: Adobe Illustrator 17.1.0, SVG Export Plug-In . SVG Version: 6.00 Build 0)  -->
<!DOCTYPE svg PUBLIC "-//W3C//DTD SVG 1.1//EN" "http://www.w3.org/Graphics/SVG/1.1/DTD/svg11.dtd">
<svg version="1.1" id="&#x56FE;&#x5C42;_1" xmlns="http://www.w3.org/2000/svg" xmlns:xlink="http://www.w3.org/1999/xlink" x="0px"
	 y="0px" viewBox="0 0 104.877 169.178" style="enable-background:new 0 0 104.877 169.178;" xml:space="preserve">
<g>
	<g>
		<path style="fill:#FFFDFE;" d="M70.166,32.812c0,0,2.835,0.081,2.268,7.29c-0.406,5.168-1.458,5.994-3.078,7.29
			c-1.62,1.296-3.888-5.508-3.888-8.586C65.468,35.728,68.222,32.812,70.166,32.812z"/>
		<path style="fill:#FFFDFE;" d="M79.157,102.876c0,0,1.62,6.966,1.134,15.552c-0.486,8.586-3.078,19.602-3.078,21.546
			s-3.078,2.43-2.592-0.162c0.486-2.592,1.021-13.571,0.81-18.63c-0.324-7.776-2.454-17.415-1.146-19.724
			C75.593,99.15,79.157,102.876,79.157,102.876z"/>
		<path style="fill:#FFFDFE;" d="M68.951,104.01c0,0,0.972,6.804-5.67,20.25c-3.717,7.524-6.544,11.748-8.262,13.122
			c-0.81,0.648-1.944,0.162-1.458-1.296c1.256-3.768,5.247-12.296,5.994-15.39c1.134-4.698,3.402-15.39,4.86-17.658
			C65.873,100.77,68.951,104.01,68.951,104.01z"/>
		<path style="fill:#FFFDFE;" d="M67.574,47.554c0,0-2.268,2.754-2.106,4.374c0.162,1.62-4.86,1.458-5.346,0s1.62-4.05,1.134-7.776
			C60.77,40.426,66.278,46.744,67.574,47.554z"/>
		<path style="fill:#FFFDFE;" d="M70.409,43.909c0,0-0.972,3.564,2.835,5.427c2.259,1.105,0,9.396-0.81,14.256
			c-0.81,4.86,2.649,6.602,3.673,6.055c1.025-0.547,1.349-5.245,1.025-13.507s0.648-9.396-0.972-10.368S73.325,45.367,70.409,43.909
			z"/>
		<path style="fill:#302D48;" d="M73.406,64.24c0,0,7.857,5.427,0.405,10.773c-0.949,0.681-2.592-0.324-5.103-5.103
			c-1.685-3.207-2.106-5.346-2.916-6.966c0,0,0.324,4.698-1.944,8.424c-3.202,5.26-7.128,15.552-5.022,18.954
			c0,0,15.39-1.62,20.574,1.944c0,0,4.374,0.972,2.592,13.284l-9.801,0.081l2.025-7.209H53.318l-1.296-23.328
			c0,0,1.863-8.505,1.782-12.798c0,0-2.835,0.729-3.807,1.539c-0.972,0.81-1.296-6.966-1.296-6.966s4.264-6.484,6.075-7.209
			c2.43-0.972,8.343,0.567,11.071,1.404C68.952,52.016,71.786,61.648,73.406,64.24z"/>
		<path style="fill:#302D48;" d="M71.705,30.301c0,0,1.134,3.078-0.648,6.318c-1.782,3.24-2.268,9.558,0.486,10.044
			c0,0-0.891,2.187-3.807,2.025c-1.941-0.108-6.642-0.972-9.801-2.511c-3.878-1.889-4.212-2.916-3.564-6.966
			s2.997-9.639,6.237-11.421C64.47,25.666,68.951,25.765,71.705,30.301z"/>
		<path style="fill:#C52069;" d="M52.913,135.924c0,0,0.81,2.106,2.106,1.782c1.296-0.324,0,1.62-1.134,2.592
			c-1.134,0.972-1.458,0.324-1.62,0C52.103,139.974,52.103,138.192,52.913,135.924z"/>
		<path style="fill:#C52069;" d="M53.885,135.6c0,0-1.775,0.486-1.212,3.402c0,0,1.698,0.972,3.318,0
			c1.62-0.972,2.916-3.402,2.268-3.888C57.611,134.628,53.885,135.6,53.885,135.6"/>
		<path style="fill:#C52069;" d="M74.621,139.488c0,0,4.536-1.458,5.022-0.486c0.486,0.972-2.268,3.726-2.916,3.726
			S74.945,142.08,74.621,139.488z"/>
	</g>
	<g>
		<path style="fill:#1283C3;" d="M22.458,49.903h26.244c0,0,5.994,33.696,4.86,48.438h20.25v9.269H27.48
			C27.48,107.61,30.558,68.695,22.458,49.903z"/>
		<rect x="45.785" y="105.63" style="fill:#1283C3;" width="10.53" height="14.904"/>
		<rect x="48.701" y="118.59" style="fill:#1283C3;" width="4.698" height="23.49"/>
		<rect x="26.994" y="137.706" style="fill:#1283C3;" width="6.156" height="4.374"/>
		<rect x="70.247" y="137.706" style="fill:#1283C3;" width="6.156" height="4.374"/>
		<polygon style="fill:#1283C3;" points="50.654,128.867 28.642,137.944 29.414,139.903 51.427,130.827 		"/>
		<polygon style="fill:#1283C3;" points="51.932,128.867 73.944,137.944 73.172,139.903 51.16,130.827 		"/>
	</g>
</g>
</svg>
