<?xml version="1.0" encoding="iso-8859-1"?>
<!-- Generator: Adobe Illustrator 17.1.0, SVG Export Plug-In . SVG Version: 6.00 Build 0)  -->
<!DOCTYPE svg PUBLIC "-//W3C//DTD SVG 1.1//EN" "http://www.w3.org/Graphics/SVG/1.1/DTD/svg11.dtd">
<svg version="1.1" id="&#x56FE;&#x5C42;_1" xmlns="http://www.w3.org/2000/svg" xmlns:xlink="http://www.w3.org/1999/xlink" x="0px"
	 y="0px" viewBox="0 0 104.877 169.178" style="enable-background:new 0 0 104.877 169.178;" xml:space="preserve">
<g>
	<path style="fill:#F4EFF4;" d="M39.962,33.157c0,0,1.066,5.086-1.182,5.985l4.644,0.599c0,0-0.3-1.798,0.749-3.296
		S39.962,33.157,39.962,33.157z"/>
	<path style="fill:#302D48;" d="M49.042,39.366c0,0-1.498-0.749-5.693-1.049c-4.195-0.3-7.191-0.15-8.09,1.049
		c-0.899,1.198-7.64,66.814-7.64,75.053s4.195,11.835,4.195,11.835l-1.049,16.329c0,0-1.124,1.124-0.449,2.097
		c0.06,0.087,6.741,0.3,6.741,0.3s4.419-0.375,2.846-1.648c-1.041-0.843-5.393-1.798-5.393-1.798s3.745-11.835,2.996-14.831
		s5.428-24.038,5.428-24.038s-0.334,6.661,0.415,9.807c0.749,3.146,1.798,25.167,3.146,28.613c0,0-1.498,1.498-0.899,2.547
		c0.599,1.049,7.822,1.068,8.689,0.449c0.524-0.375-1.723-2.622-4.644-3.296c0,0,2.097-19.325,1.798-24.269
		C51.139,111.573,49.042,39.366,49.042,39.366z"/>
	<path style="fill:#FEF5F9;" d="M79.378,58.167c0,0,3.41-3.073,4.794-0.899c1.049,1.648-0.151,2.477-0.3,2.996
		c-0.3,1.049-0.147,1.516-1.198,1.648c-2.397,0.3-5.442-1.873-5.442-1.873L79.378,58.167z"/>
	<path style="fill:#C3E5EF;" d="M47.918,38.393c0,0,5.468,0.524,6.517,4.12c1.333,4.57,2.397,7.79,3.446,11.685
		c0.826,3.069,2.913,7.994,6.292,8.539c2.322,0.375,6.966-1.124,9.063-2.322c2.097-1.198,4.494-2.846,5.842-1.648
		c1.348,1.198,2.697,2.697-0.899,3.595s-10.786,8.09-15.655,7.415c-3.527-0.488-9.213-7.565-10.262-11.61
		c0,0,5.693,11.385,3.895,33.407c-2.098,25.697,0.449,36.403,0.449,36.403h-6.741l-1.947-55.728
		C47.918,72.249,45.746,47.606,47.918,38.393z"/>
	<g>
		
			<rect x="64.395" y="49.262" transform="matrix(0.1321 -0.9912 0.9912 0.1321 11.2511 123.7811)" style="fill:#C3E5EF;stroke:#E3B134;stroke-width:2;stroke-miterlimit:10;" width="23.835" height="12.407"/>
		<g>
			
				<rect x="75.907" y="44.391" transform="matrix(0.1321 -0.9912 0.9912 0.1321 18.8789 118.711)" style="fill:#E3B134;" width="2.648" height="8.368"/>
			
				<rect x="74.07" y="58.173" transform="matrix(0.1321 -0.9912 0.9912 0.1321 3.6234 128.8511)" style="fill:#E3B134;" width="2.648" height="8.368"/>
			
				<rect x="74.683" y="53.579" transform="matrix(0.1321 -0.9912 0.9912 0.1321 8.7085 125.4711)" style="fill:#E3B134;" width="2.648" height="8.368"/>
			
				<rect x="75.295" y="48.985" transform="matrix(0.1321 -0.9912 0.9912 0.1321 13.7937 122.091)" style="fill:#E3B134;" width="2.648" height="8.368"/>
		</g>
	</g>
	<path style="fill:#FFFDFE;" d="M61.925,56.662c0,0,1.537,0,1.816-1.539c0.279-1.539,1.258-2.239,2.794-2.938
		c1.426-0.649,0.326,0.87-0.398,1.316c-0.024,0.015-0.006,0.061,0.019,0.046c1.287-0.733,3.317-0.673,4.571-0.943
		c2.304-0.496,2.864,0.49,0.699,0.979c-1.474,0.333-0.419,1.399-0.699,2.659c-0.343,1.545-1.956,1.819-3.633,1.679
		c-1.677-0.14-3.633,1.259-4.052,1.819L61.925,56.662z"/>
	<path style="fill:#FEF5F9;" d="M45.372,25.809c0,0,1.798,0.599,2.097,2.697c0.3,2.097,0.899,5.243,0,6.442
		c-0.899,1.198-1.798,2.697-3.446,2.697c-1.059,0-4.247-0.457-4.67-5.172c0,0-1.322-3.067,0.026-5.164S44.772,25.659,45.372,25.809z
		"/>
	<polygon style="fill:#C52069;" points="43.607,38.34 45.072,57.867 41.999,68.652 39.679,55.021 39.788,38.2 	"/>
	<path style="fill:#302D48;" d="M46.271,25.06c0,0,1.183,1.969-3.146,2.547c-2.247,0.3-3.644,1.361-3.446,2.846
		c0.3,2.247-0.155,3.588-0.899,2.547c-0.749-1.049-1.798-4.045-1.198-5.543c0.599-1.498,1.049-2.846,3.446-2.996
		C43.424,24.311,44.623,23.712,46.271,25.06z"/>
	<path style="fill:#C3E5EF;" d="M37.207,37.718c0,0-3.895-0.15-7.041,0.599c-1.866,0.444-3.745,2.697-4.494,4.944
		s0.375,21.335,0.375,35.879c0,11.086-0.749,19.625-1.498,26.366c-0.749,6.741-3.52,21.198-4.269,22.546h20.224
		c0,0,2.172-18.201,2.846-38.95c0.324-9.957-1.273-27.489-2.921-33.482C38.78,49.628,35.784,43.336,37.207,37.718z"/>
	<path style="fill:#ADD2DD;" d="M36.159,50.602c0.876,3.908,4.794,14.981,7.64,14.082c2.846-0.899,16.928-6.891,17.977-8.988
		l2.397,3.895c0,0-14.531,11.685-19.325,11.835c-4.794,0.15-8.689-1.798-11.685-6.442s-5.243-10.486-5.243-10.486
		s-2.609-7.049-1.573-9.812c1.348-3.595,3.296-5.842,6.142-4.794C35.335,40.939,35.283,46.694,36.159,50.602z"/>
	<defs>
		<filter id="Adobe_OpacityMaskFilter" filterUnits="userSpaceOnUse" x="46.749" y="28.889" width="2.731" height="2.04">
			<feColorMatrix  type="matrix" values="1 0 0 0 0  0 1 0 0 0  0 0 1 0 0  0 0 0 1 0"/>
		</filter>
	</defs>
	<mask maskUnits="userSpaceOnUse" x="46.749" y="28.889" width="2.731" height="2.04" id="SVGID_1_">
		<g style="filter:url(#Adobe_OpacityMaskFilter);">
			<path style="fill:#FEF5F9;" d="M45.372,25.809c0,0,1.798,0.599,2.097,2.697c0.3,2.097,0.899,5.243,0,6.442
				c-0.899,1.198-1.798,2.697-3.446,2.697c-1.059,0-3.947-0.457-4.37-5.172c0,0-1.622-3.067-0.274-5.164
				S44.772,25.659,45.372,25.809z"/>
		</g>
	</mask>
	<g style="mask:url(#SVGID_1_);">
		<path style="fill:#232134;" d="M46.749,29.496c0,0,0.697-1.226,2.731-0.193C49.481,29.303,47.892,29.023,46.749,29.496z"/>
		<path style="fill:#232134;" d="M46.845,30.712c0,0,0.261-1.209,2.348-0.541C49.194,30.171,48.435,31.041,46.845,30.712z"/>
		
			<ellipse transform="matrix(-0.8873 0.4612 -0.4612 -0.8873 103.4932 34.9734)" style="opacity:0.7;fill:#FFFDFE;" cx="47.473" cy="30.133" rx="0.233" ry="0.385"/>
		<defs>
			<filter id="Adobe_OpacityMaskFilter_1_" filterUnits="userSpaceOnUse" x="47.169" y="30.146" width="0.253" height="0.27">
				<feColorMatrix  type="matrix" values="1 0 0 0 0  0 1 0 0 0  0 0 1 0 0  0 0 0 1 0"/>
			</filter>
		</defs>
		<mask maskUnits="userSpaceOnUse" x="47.169" y="30.146" width="0.253" height="0.27" id="SVGID_1_">
			<g style="filter:url(#Adobe_OpacityMaskFilter_1_);">
				
					<ellipse transform="matrix(-0.8873 0.4612 -0.4612 -0.8873 103.4932 34.9734)" style="fill:#FFFDFE;" cx="47.473" cy="30.133" rx="0.233" ry="0.385"/>
			</g>
		</mask>
		
			<ellipse transform="matrix(-0.8873 0.4612 -0.4612 -0.8873 103.2268 35.3356)" style="fill:#FFFDFE;" cx="47.296" cy="30.281" rx="0.124" ry="0.138"/>
		<circle style="opacity:0.9;fill:#FFFDFE;" cx="48.299" cy="30.752" r="0.177"/>
	</g>
	<g>
		<path style="fill:#232134;" d="M44.464,29.658c0,0-0.863-1.115-2.731,0.193C41.732,29.851,43.265,29.351,44.464,29.658z"/>
		<path style="fill:#232134;" d="M44.54,30.875c0,0-0.429-1.16-2.401-0.205C42.139,30.67,43.012,31.425,44.54,30.875z"/>
		
			<ellipse transform="matrix(0.9434 0.3316 -0.3316 0.9434 12.5585 -12.8173)" style="opacity:0.7;fill:#FFFDFE;" cx="43.836" cy="30.39" rx="0.233" ry="0.385"/>
		<defs>
			<filter id="Adobe_OpacityMaskFilter_2_" filterUnits="userSpaceOnUse" x="43.908" y="30.376" width="0.251" height="0.272">
				<feColorMatrix  type="matrix" values="1 0 0 0 0  0 1 0 0 0  0 0 1 0 0  0 0 0 1 0"/>
			</filter>
		</defs>
		<mask maskUnits="userSpaceOnUse" x="43.908" y="30.376" width="0.251" height="0.272" id="SVGID_2_">
			<g style="filter:url(#Adobe_OpacityMaskFilter_2_);">
				
					<ellipse transform="matrix(0.9434 0.3316 -0.3316 0.9434 12.5585 -12.8173)" style="fill:#FFFDFE;" cx="43.836" cy="30.39" rx="0.233" ry="0.385"/>
			</g>
		</mask>
		
			<ellipse transform="matrix(0.9434 0.3316 -0.3316 0.9434 12.6101 -12.8756)" style="mask:url(#SVGID_2_);fill:#FFFDFE;" cx="44.033" cy="30.512" rx="0.124" ry="0.138"/>
		<circle style="opacity:0.9;fill:#FFFDFE;" cx="43.106" cy="31.119" r="0.177"/>
	</g>
</g>
</svg>
