<?xml version="1.0" encoding="iso-8859-1"?>
<!-- Generator: Adobe Illustrator 17.1.0, SVG Export Plug-In . SVG Version: 6.00 Build 0)  -->
<!DOCTYPE svg PUBLIC "-//W3C//DTD SVG 1.1//EN" "http://www.w3.org/Graphics/SVG/1.1/DTD/svg11.dtd">
<svg version="1.1" id="&#x56FE;&#x5C42;_1" xmlns="http://www.w3.org/2000/svg" xmlns:xlink="http://www.w3.org/1999/xlink" x="0px"
	 y="0px" viewBox="0 0 104.877 169.178" style="enable-background:new 0 0 104.877 169.178;" xml:space="preserve">
<g>
	<g id="XMLID_784_">
		<path id="XMLID_796_" style="fill:#F3CBCC;" d="M55.525,133.094c-0.087,5.841,0.082,12.008,0.106,17.851
			c0.028,0.102,0.046,0.209,0.043,0.329c-0.007,0.277-0.016,0.555-0.024,0.832c-0.03,0.985-3.05,2.302-3.208,1.473
			c-1.557-8.165-2.583-17.284-4.145-24.486C47.02,123.204,55.613,127.206,55.525,133.094z"/>
		<path id="XMLID_795_" style="fill:#292E4A;" d="M56.255,152.403c-0.047-0.342-0.07-0.581-0.407-0.556
			c-1.087,0.078-2.201,0.173-3.197,0.655c-1.068,0.516-1.848,1.022-2.986,1.581c-0.843,0.414-2.081,1.113-2.287,2.12
			c-0.106,0.519,0.079,0.986,0.523,1.33c0.733,0.567,2.175,0.035,2.944-0.11c1.373-0.259,2.808-0.424,4.155-0.795
			C57.339,155.982,56.499,154.173,56.255,152.403z"/>
		<path id="XMLID_794_" style="fill:#F3CBCC;" d="M64.981,134.568c1.34,5.686,2.498,11.746,3.729,17.458
			c-0.005,0.105,0,0.214,0.029,0.331c0.067,0.269,0.134,0.538,0.202,0.808c0.24,0.956,3.473,1.593,3.449,0.75
			c-0.233-8.309-1.188-17.435-1.209-24.805C71.165,123.082,63.631,128.836,64.981,134.568z"/>
		<path id="XMLID_793_" style="fill:#292E4A;" d="M68.665,152.403c0.047-0.342,0.07-0.581,0.407-0.556
			c1.087,0.078,2.201,0.173,3.197,0.655c1.068,0.516,1.848,1.022,2.986,1.581c0.843,0.414,2.081,1.113,2.287,2.12
			c0.106,0.519-0.079,0.986-0.523,1.33c-0.733,0.567-2.175,0.035-2.944-0.11c-1.373-0.259-2.808-0.424-4.155-0.795
			C67.582,155.982,68.421,154.173,68.665,152.403z"/>
		<path id="XMLID_792_" style="fill:#412C1D;" d="M71.583,136.572c-0.549-9.312-1.025-18.633-1.715-27.936
			c-0.771-10.397-1.931-20.783-4.222-30.966c-0.244-1.082-2.085-1.209-2.337-0.093c-0.342-0.234-0.777-0.376-1.274-0.389
			c-2.053-0.053-4.408,1.829-6.068,2.847c-1.99,1.222-3.887,2.581-5.716,4.03c-1.515-0.752-3.914-1.871-5.31-0.664
			c-0.327,0.283-0.524,0.628-0.648,1.004c-0.666-0.065-1.423,0.384-1.439,1.191c-0.001,0.035,0,0.07,0,0.105
			c-0.481-1.193-2.534-1.098-2.355,0.338c1.374,10.99,2.748,21.983,4.467,32.926c0.859,5.469,1.805,10.925,2.882,16.356
			c0.527,2.66,1.086,5.313,1.68,7.959c0.222,0.987,0.236,2.109,1.076,2.766c0.681,0.533,1.509,0.682,2.353,0.566
			c4.706-0.649,3.62-6.482,3.338-9.749c-0.494-5.719-0.504-11.422-0.396-17.156c0.103-5.474,0.208-10.947,0.313-16.421
			c0.022-1.131,0.043-2.261,0.064-3.392c0.926,3.332,1.718,6.701,2.517,10.065c2.187,9.198,4.246,18.427,6.177,27.682
			c0.534,2.561,0.67,8.839,4.617,8.568c1.339-0.092,2.184-1.152,2.342-2.424C72.214,141.485,71.72,138.884,71.583,136.572z"/>
		<path id="XMLID_791_" style="fill:#F3CBCC;" d="M76.316,54.366c-0.112-0.65-0.243-1.294-0.4-1.932
			c-0.174-0.776-0.368-1.548-0.592-2.31c-0.318-1.085-0.805-2.128-2.106-1.949c-0.352,0.048-0.743,0.19-1.138,0.401
			c-0.172,0.006-0.328,0.088-0.411,0.243c-0.385,0.251-0.76,0.56-1.093,0.906c-0.213,0.036-0.391,0.2-0.408,0.471
			c-0.453,0.586-0.762,1.236-0.797,1.867c-0.189,0.116-0.319,0.334-0.243,0.605c1.119,4.008,2.112,8.081,3.394,12.041
			c0.141,0.434,0.305,1.18,0.574,1.84c0.371,3.688,0.244,7.449,0.619,11.141c0.296,2.919,0.725,5.819,1.264,8.701
			c-0.485,1.455-1.849,2.611-2.439,4.028c-0.36,0.866-1.094,2.679-0.685,3.583c0.365,0.806,0.934,0.686,1.507,0.223
			c-0.093,0.423-0.136,0.847,0.079,1.246c0.544,1.006,2.271,1.159,3.237,0.818c1.359-0.48,1.45-2.203,1.536-3.434
			c0.136-1.939-0.217-3.843-0.785-5.685c1.009-4.075,1.987-9.805,2.136-13.981C79.703,69.381,76.829,55.918,76.316,54.366z"/>
		<path id="XMLID_790_" style="fill:#F3CBCC;" d="M58.618,12.649c-0.563-0.562-1.142-0.854-1.726-0.957
			c-0.876-0.349-1.799-0.459-2.739,0.024c-0.624,0.32-1.09,0.875-1.604,1.333c-0.51,0.455-1.868,1.06-2.062,1.138
			c-4.725,1.905-9.741,2.674-14.721,3.608c-2.915,0.547-7.01,0.592-9.548,2.605c-0.579,0.459-0.941,1.567-0.882,2.427
			c-0.041,0.095-0.045,0.211,0.01,0.343c3.272,7.813,8.358,14.679,14.92,20.042c0.394,0.322,0.918-0.027,0.918-0.401
			c0.088-0.064,0.158-0.153,0.192-0.267c0.563-1.892,0.996-3.81,1.258-5.767c0.087-0.65,0.161-1.387-0.285-1.778
			c-0.49-1.18-1.396-1.974-2.32-2.899c-1.433-1.434-2.56-3.102-3.63-4.815c-0.3-0.48-0.611-1.047-0.946-1.644
			c1.337-0.317,2.667-0.882,3.505-1.203c1.893-0.726,10.404-5.206,10.748-5.494c0.007-0.006,0.011-0.012,0.017-0.018
			c0.73-0.55,1.459-1.1,2.189-1.651c0.197-0.149,0.249-0.368,0.209-0.563c0.331-0.252,0.663-0.503,0.994-0.755
			c0.143-0.108,0.208-0.254,0.219-0.401c0.446-0.282,0.903-0.549,1.373-0.797c0.905-0.4,1.811-0.8,2.716-1.2
			c0.137-0.061,0.214-0.166,0.244-0.285c0.105,0.064,0.211,0.129,0.316,0.196C58.489,13.796,59.036,13.065,58.618,12.649z"/>
		<path id="XMLID_789_" style="fill:#F3CBCC;" d="M63.325,17.746c-1.849-3.609-6.683-5.554-10.148-2.892
			c-2.956,2.271-2.815,5.631-3.754,10.323c-0.206,1.032-0.288,3.946,0.938,5.631c1.288,1.769,3.889,2.318,3.754,3.754
			c-0.129,1.372-0.374,5.263-0.081,6.416c0.433,1.706,1.702-2.076,3.203-2.114c0.429,0.063,0.86,0.097,1.252,0.127
			c1.651,0.128,2.982,4.012,3.351,2.337c0.471-2.14,0.315-9.003,0.149-11.197C64.436,26.705,65.276,21.555,63.325,17.746z"/>
		<path id="XMLID_788_" style="fill:#F3CBCC;" d="M62.181,37.992c-1.401-0.164-6.732-0.577-10.07-0.545
			c0.666,2.779,3.352,4.478,6.292,4.339c2.55-0.121,4.79-1.484,6.143-3.53C63.75,38.159,62.954,38.083,62.181,37.992z"/>
		<path id="XMLID_787_" style="fill:#8BAABC;" d="M77.67,53.655c-0.976-2.104-1.952-4.208-2.928-6.312
			c-1.489-3.21-2.688-6.963-6.322-8.266c-1.242-0.445-2.582-0.664-3.921-0.826c-1.355,2.033-3.587,3.386-6.127,3.507
			c-2.929,0.139-5.606-1.549-6.283-4.31c-1.078,0.011-1.947,0.069-2.403,0.197c-1.299-0.31-2.543-0.827-3.677-1.543
			c-1.422-0.899-2.456-2.288-3.9-3.14c-3.172-1.873-4.019,2.954-4.914,4.972c-0.332,0.749-0.699,1.483-1.133,2.179
			c-0.414,0.665-1.047,1.221-1.42,1.9c-0.737,1.344,0.041,2.409,1.086,3.239c2.215,1.76,4.671,3.172,7.249,4.318
			c-0.602,7.85-3.357,15.283-5.048,22.937c-0.906,4.099-4.297,18.213,3.641,17.36c1.874-0.201,3.674-1.048,5.523-1.428
			c2.085-0.428,4.201-0.672,6.302-1.012c3.717-0.601,7.486-1.565,10.514-3.91c3.091-2.395,4.741-6.004,5.681-9.716
			c1.096-4.325,1.614-8.849,2.039-13.293c0.647-0.079,1.29-0.192,1.928-0.347c1.478-0.358,3.917-0.986,4.93-2.22
			C79.554,56.639,78.244,54.892,77.67,53.655z"/>
		<path id="XMLID_786_" style="fill:#292E4A;" d="M60.28,12.432c-1.911-0.094-4.067,0.335-5.792,1.323
			c-0.142,0.058-2.284,1.523-2.278,1.885c0.034,1.87,2.35,2.483,3.875,2.773c1.121,0.213,2.224,0.155,3.356,0.143
			c1.083-0.012,2.459,0.025,2.885,1.379c0.278,0.885-0.362,1.395-0.568,2.149c-0.205,0.751,0.129,0.938,0.418,1.601
			c0.735,1.686-0.244,3.031-0.74,4.596c-0.264,0.83-0.677,3.61,0.994,3.118c2.007-0.591,4.178-4.034,4.823-5.283
			c1.11-2.152,1.602-4.564,1.546-7.022C68.7,14.69,64.625,12.645,60.28,12.432z"/>
		<path id="XMLID_785_" style="fill:#292E4A;" d="M68.266,38.944c-6.2,8.959-15.783,15.164-26.439,17.273
			c-0.43-0.015-0.867,0.066-1.292,0.237c-0.009,0.001-0.017,0.003-0.025,0.005c0.001,0.002,0.001,0.003,0.002,0.005
			c-0.056,0.023-0.113,0.04-0.169,0.066c-0.771,0.363-0.182,1.396,0.539,1.278c0.375-0.062,0.749-0.129,1.122-0.201
			c0.322,0.074,0.59,0.272,0.784,0.545c-0.18,0.966,0.064,2.16,0.273,2.96c0.332,1.27,1.077,2.404,2.365,2.85
			c1.551,0.538,3.397-0.02,4.923-0.404c1.616-0.407,3.268-0.946,4.653-1.899c1.651-1.137,2.458-2.627,2.742-4.276
			c1.016-1.837,0.424-4.153-0.152-6.029c-0.01-0.032-0.025-0.059-0.037-0.088c4.647-3.053,8.717-6.989,11.918-11.615
			C69.986,38.908,68.775,38.209,68.266,38.944z"/>
	</g>
	<g>
		<path id="XMLID_783_" style="fill:#4D2B2E;" d="M55.088,22.917c0.099-0.08,0.263-0.051,0.293,0.088
			c0.035,0.167,0.023,0.332-0.028,0.484c-0.059,0.196-0.182,0.358-0.364,0.478c-0.089,0.059-0.241-0.006-0.256-0.114
			C54.684,23.495,54.803,23.146,55.088,22.917z"/>
		<path id="XMLID_782_" style="fill:#4D2B2E;" d="M50.524,21.817c0.095-0.084,0.261-0.062,0.296,0.074
			c0.043,0.165,0.038,0.33-0.006,0.485c-0.05,0.199-0.165,0.366-0.342,0.494c-0.087,0.063-0.241,0.005-0.261-0.102
			C50.147,22.413,50.25,22.059,50.524,21.817z"/>
		<path id="XMLID_781_" style="fill:#DF9383;" d="M52.024,25.766c-0.994-0.069-0.135-1.505,0.086-1.941
			c0.09-0.177-0.17-0.347-0.261-0.169c-0.34,0.67-1.239,2.323,0.163,2.42C52.212,26.09,52.224,25.78,52.024,25.766z"/>
		<path id="XMLID_780_" style="fill:#B97029;" d="M57.207,21.197c-0.454-0.379-0.99-0.643-1.567-0.784
			c-0.659-0.161-0.764,0.707-0.102,0.869c0.4,0.098,0.741,0.276,1.055,0.538C57.113,22.255,57.725,21.629,57.207,21.197z"/>
		<path id="XMLID_779_" style="fill:#B97029;" d="M50.66,19.493c0.493-0.137,1.004-0.135,1.499-0.005
			c0.566,0.149,0.312,0.973-0.256,0.824c-0.343-0.09-0.672-0.082-1.013,0.013C50.325,20.482,50.098,19.65,50.66,19.493z"/>
		<path id="XMLID_778_" style="fill:#D45565;" d="M50.679,26.914c0,0,1.906,0.753,2.909,0.844c0,0-1.021,0.785-1.946,0.751
			C50.718,28.475,50.896,27.402,50.679,26.914z"/>
	</g>
</g>
</svg>
