<?xml version="1.0" encoding="iso-8859-1"?>
<!-- Generator: Adobe Illustrator 17.1.0, SVG Export Plug-In . SVG Version: 6.00 Build 0)  -->
<!DOCTYPE svg PUBLIC "-//W3C//DTD SVG 1.1//EN" "http://www.w3.org/Graphics/SVG/1.1/DTD/svg11.dtd">
<svg version="1.1" id="&#x56FE;&#x5C42;_1" xmlns="http://www.w3.org/2000/svg" xmlns:xlink="http://www.w3.org/1999/xlink" x="0px"
	 y="0px" viewBox="0 0 535.75 98.311" style="enable-background:new 0 0 535.75 98.311;" xml:space="preserve">
<g>
	<g>
		<linearGradient id="SVGID_1_" gradientUnits="userSpaceOnUse" x1="229.9758" y1="45.1883" x2="324.102" y2="45.1883">
			<stop  offset="0" style="stop-color:#113D86"/>
			<stop  offset="1" style="stop-color:#34A4DD"/>
		</linearGradient>
		<path style="fill:url(#SVGID_1_);" d="M294.809,90.377h-60.777V74.515h60.777c10.039,0,12.769-3.684,13.292-6.774
			c0.387-2.292,1.035-6.13-8.667-8.56l-48.646-12.6c-5.732-1.436-10.372-3.693-13.792-6.709c-5.623-4.958-7.988-12.019-6.659-19.881
			C232.452,7.474,243.268,0,259.268,0h60.446v15.862h-60.446c-10.04,0-12.77,3.684-13.291,6.774c-0.388,2.293-1.036,6.13,8.666,8.56
			l48.646,12.6c5.732,1.436,10.372,3.693,13.792,6.709c5.623,4.958,7.988,12.018,6.66,19.881
			C321.625,82.903,310.809,90.377,294.809,90.377z"/>
		<linearGradient id="SVGID_2_" gradientUnits="userSpaceOnUse" x1="335.869" y1="45.1709" x2="431.7597" y2="45.1709">
			<stop  offset="0" style="stop-color:#113D86"/>
			<stop  offset="1" style="stop-color:#34A4DD"/>
		</linearGradient>
		<polygon style="fill:url(#SVGID_2_);" points="431.76,-0.035 335.869,-0.035 335.869,15.46 375.486,15.46 375.486,90.377 
			392.143,90.377 392.143,15.46 431.76,15.46 		"/>
		<linearGradient id="SVGID_3_" gradientUnits="userSpaceOnUse" x1="5.7341" y1="45.1709" x2="100.1107" y2="45.1709">
			<stop  offset="0" style="stop-color:#113D86"/>
			<stop  offset="1" style="stop-color:#34A4DD"/>
		</linearGradient>
		<path style="fill:url(#SVGID_3_);" d="M100.111,90.377L79.546,57.115c10.472-4.507,17.843-14.846,18.017-26.928
			c0.239-16.62-13.597-30.221-30.219-30.221l-55.276,0c-3.498,0-6.334,2.836-6.334,6.334v84.077h16.031V15.46h45.717
			c7.862,0,14.507,6.164,14.723,14.023c0.224,8.154-6.319,14.834-14.423,14.834H38.613v15.495h23.174l18.897,30.565H100.111z"/>
		<linearGradient id="SVGID_4_" gradientUnits="userSpaceOnUse" x1="447.3609" y1="45.1709" x2="535.7499" y2="45.1709">
			<stop  offset="0" style="stop-color:#113D86"/>
			<stop  offset="1" style="stop-color:#34A4DD"/>
		</linearGradient>
		<path style="fill:url(#SVGID_4_);" d="M535.75-0.035h-81.803c-3.637,0-6.586,2.949-6.586,6.586v77.239
			c0,3.637,2.949,6.586,6.586,6.586h81.803V74.882h-72.358V15.46h72.358V-0.035z M522.948,52.918V37.423H480.24v15.495H522.948z"/>
		<linearGradient id="SVGID_5_" gradientUnits="userSpaceOnUse" x1="112.373" y1="45.1709" x2="221.0886" y2="45.1709">
			<stop  offset="0" style="stop-color:#113D86"/>
			<stop  offset="1" style="stop-color:#34A4DD"/>
		</linearGradient>
		<path style="fill:url(#SVGID_5_);" d="M203.115,90.377h17.974L181.137,2.199c-0.636-1.326-1.981-2.234-3.581-2.234h-21.651
			c-1.6,0-2.946,0.908-3.581,2.234l-39.951,88.177h17.974l10.937-24.139h50.894L203.115,90.377z M148.304,50.743l17.689-39.042
			h1.475l17.689,39.042H148.304z"/>
	</g>
	<linearGradient id="SVGID_6_" gradientUnits="userSpaceOnUse" x1="-0.0028" y1="25.3776" x2="97.6605" y2="25.3776">
		<stop  offset="0" style="stop-color:#113D86"/>
		<stop  offset="1" style="stop-color:#34A4DD"/>
	</linearGradient>
	<path style="fill:url(#SVGID_6_);" d="M-0.003,12.11L6.944-0.116l63.909,0.278c0,0,19.126,1.713,25.332,20.608
		c0,0,6.345,15.236-7.271,30.102c0,0,8.336-16.533-1.667-30.218c0,0-6.808-12.759-24.961-13.685L-0.003,12.11z"/>
	<linearGradient id="SVGID_7_" gradientUnits="userSpaceOnUse" x1="33.1953" y1="46.5529" x2="75.7149" y2="46.5529">
		<stop  offset="0" style="stop-color:#113D86"/>
		<stop  offset="1" style="stop-color:#34A4DD"/>
	</linearGradient>
	<path style="fill:url(#SVGID_7_);" d="M33.195,51.404l5.418-7.087c0,0,31.683,2.803,37.102-2.615c0,0-3.195,10.142-13.893,9.447
		C61.822,51.149,33.195,51.241,33.195,51.404z"/>
	<linearGradient id="SVGID_8_" gradientUnits="userSpaceOnUse" x1="-0.0028" y1="93.9199" x2="21.7652" y2="93.9199">
		<stop  offset="0" style="stop-color:#113D86"/>
		<stop  offset="1" style="stop-color:#34A4DD"/>
	</linearGradient>
	<polygon style="fill:url(#SVGID_8_);" points="16.347,97.463 21.765,90.377 -0.003,90.606 0.316,97.463 	"/>
	<linearGradient id="SVGID_9_" gradientUnits="userSpaceOnUse" x1="19.0562" y1="93.0141" x2="19.0562" y2="22.6221">
		<stop  offset="0" style="stop-color:#272B58"/>
		<stop  offset="1" style="stop-color:#74C6BA"/>
	</linearGradient>
	<path style="fill:url(#SVGID_9_);" d="M16.347,22.547l5.323,0.029l0.095,67.801l-5.418,7.087
		C16.347,97.463,16.612,22.811,16.347,22.547z"/>
	<linearGradient id="SVGID_10_" gradientUnits="userSpaceOnUse" x1="86.1067" y1="95.067" x2="86.1067" y2="57.1554">
		<stop  offset="0" style="stop-color:#272B58"/>
		<stop  offset="1" style="stop-color:#74C6BA"/>
	</linearGradient>
	<polygon style="fill:url(#SVGID_10_);" points="74.128,64.201 94.693,97.463 100.111,90.377 79.546,57.115 72.103,61.893 	"/>
	<linearGradient id="SVGID_11_" gradientUnits="userSpaceOnUse" x1="146.9405" y1="48.7082" x2="221.0886" y2="48.7082">
		<stop  offset="0" style="stop-color:#272B58"/>
		<stop  offset="1" style="stop-color:#74C6BA"/>
	</linearGradient>
	<path style="fill:url(#SVGID_11_);" d="M146.94,8.729l7.086-8.776l23.673,0.016c0,0,2.475-0.189,3.691,2.798l39.699,87.61
		l-5.418,7.087L175.445,8.706c0,0-1.279-1.91-3.763-1.667L150.13,7.056L146.94,8.729z"/>
	<linearGradient id="SVGID_12_" gradientUnits="userSpaceOnUse" x1="124.9287" y1="58.1254" x2="162.4169" y2="58.1254">
		<stop  offset="0" style="stop-color:#272B58"/>
		<stop  offset="1" style="stop-color:#74C6BA"/>
	</linearGradient>
	<polygon style="fill:url(#SVGID_12_);" points="160.575,18.787 124.929,97.463 130.347,90.377 162.417,19.612 162.05,18.787 	"/>
	<linearGradient id="SVGID_13_" gradientUnits="userSpaceOnUse" x1="142.886" y1="54.2463" x2="179.7394" y2="54.2463">
		<stop  offset="0" style="stop-color:#272B58"/>
		<stop  offset="1" style="stop-color:#74C6BA"/>
	</linearGradient>
	<polygon style="fill:url(#SVGID_13_);" points="148.304,50.743 176.44,50.663 179.739,57.829 142.886,57.829 	"/>
	<g>
		<path style="fill:#C3E5EE;" d="M289.391,97.463h-60.777V81.602h60.777c10.039,0,12.769-3.684,13.292-6.774
			c0.387-2.292,1.035-6.13-8.667-8.56l-48.646-12.6c-5.732-1.436-10.372-3.693-13.792-6.709c-5.623-4.958-7.988-12.019-6.659-19.881
			C227.034,14.56,237.85,7.087,253.85,7.087h60.446v15.862H253.85c-10.04,0-12.77,3.684-13.291,6.774
			c-0.388,2.293-1.036,6.13,8.666,8.56l48.646,12.6c5.732,1.436,10.372,3.693,13.792,6.709c5.623,4.958,7.988,12.018,6.66,19.881
			C316.207,89.99,305.391,97.463,289.391,97.463z"/>
		<polygon style="fill:#C3E5EE;" points="426.342,7.052 330.451,7.052 330.451,22.547 370.068,22.547 370.068,97.463 
			386.725,97.463 386.725,22.547 426.342,22.547 		"/>
		<path style="fill:#C3E5EE;" d="M94.693,97.463L74.128,64.201C84.6,59.694,91.971,49.356,92.145,37.273
			c0.239-16.62-13.597-30.221-30.219-30.221H6.65c-3.498,0-6.334,2.836-6.334,6.334v84.077h16.031V22.547h45.717
			c7.862,0,14.507,6.164,14.723,14.023c0.224,8.154-6.319,14.834-14.423,14.834H33.195v15.495H56.37l18.897,30.565H94.693z"/>
		<path style="fill:#C3E5EE;" d="M530.332,7.052h-81.803c-3.637,0-6.586,2.949-6.586,6.586v77.239c0,3.637,2.949,6.586,6.586,6.586
			h81.803V81.968h-72.358V22.547h72.358V7.052z M517.53,60.005V44.51h-42.708v15.495H517.53z"/>
		<path style="fill:#C3E5EE;" d="M197.697,97.463h17.974L175.719,9.286c-0.636-1.326-1.981-2.234-3.581-2.234h-21.651
			c-1.6,0-2.946,0.908-3.581,2.234l-39.951,88.177h17.974l10.937-24.139h50.894L197.697,97.463z M142.886,57.829l17.689-39.042
			h1.475l17.689,39.042H142.886z"/>
	</g>
	<linearGradient id="SVGID_14_" gradientUnits="userSpaceOnUse" x1="228.6145" y1="77.4983" x2="302.8514" y2="77.4983">
		<stop  offset="0" style="stop-color:#272B58"/>
		<stop  offset="1" style="stop-color:#74C6BA"/>
	</linearGradient>
	<path style="fill:url(#SVGID_14_);" d="M228.615,81.602l5.418-7.087l60.968-0.008c0,0,4.058,0.197,7.85-1.152
		c0,0,0.156,4.399-3.855,6.362c0,0-1.754,0.973-3.369,1.25c0,0-2.727,0.874-6.154,0.631L228.615,81.602z"/>
	<linearGradient id="SVGID_15_" gradientUnits="userSpaceOnUse" x1="317.0052" y1="3.8457" x2="317.0052" y2="18.1285">
		<stop  offset="0" style="stop-color:#272B58"/>
		<stop  offset="1" style="stop-color:#74C6BA"/>
	</linearGradient>
	<polyline style="fill:url(#SVGID_15_);" points="314.296,22.948 319.714,15.862 319.714,0 314.296,7.087 	"/>
	<linearGradient id="SVGID_16_" gradientUnits="userSpaceOnUse" x1="335.214" y1="11.4599" x2="428.9881" y2="11.0432">
		<stop  offset="0" style="stop-color:#113D86"/>
		<stop  offset="1" style="stop-color:#34A4DD"/>
	</linearGradient>
	<polygon style="fill:url(#SVGID_16_);" points="330.451,7.052 335.869,-0.035 431.76,-0.035 431.76,15.46 426.342,22.547 
		426.342,7.052 	"/>
	<linearGradient id="SVGID_17_" gradientUnits="userSpaceOnUse" x1="429.0767" y1="3.8457" x2="429.0767" y2="18.1285">
		<stop  offset="0" style="stop-color:#272B58"/>
		<stop  offset="1" style="stop-color:#74C6BA"/>
	</linearGradient>
	<polyline style="fill:url(#SVGID_17_);" points="426.368,22.948 431.786,15.862 431.786,0 426.368,7.087 	"/>
	<linearGradient id="SVGID_18_" gradientUnits="userSpaceOnUse" x1="389.551" y1="94.6821" x2="389.3658" y2="21.6968">
		<stop  offset="0" style="stop-color:#272B58"/>
		<stop  offset="1" style="stop-color:#74C6BA"/>
	</linearGradient>
	<polygon style="fill:url(#SVGID_18_);" points="386.725,97.463 392.143,90.377 392.201,22.53 386.725,22.547 	"/>
	<linearGradient id="SVGID_19_" gradientUnits="userSpaceOnUse" x1="496.8619" y1="74.8817" x2="496.8619" y2="97.4633">
		<stop  offset="0" style="stop-color:#113D86"/>
		<stop  offset="1" style="stop-color:#34A4DD"/>
	</linearGradient>
	<polygon style="fill:url(#SVGID_19_);" points="530.332,97.463 535.75,90.377 535.75,74.882 463.392,74.882 457.974,81.968 
		530.332,81.968 	"/>
	<linearGradient id="SVGID_20_" gradientUnits="userSpaceOnUse" x1="533.0438" y1="93.722" x2="533.0438" y2="79.6604">
		<stop  offset="0" style="stop-color:#272B58"/>
		<stop  offset="1" style="stop-color:#74C6BA"/>
	</linearGradient>
	<polyline style="fill:url(#SVGID_20_);" points="530.335,97.508 535.753,90.421 535.753,74.915 530.335,81.992 	"/>
	<linearGradient id="SVGID_21_" gradientUnits="userSpaceOnUse" x1="533.0438" y1="18.7569" x2="533.0438" y2="4.6952">
		<stop  offset="0" style="stop-color:#272B58"/>
		<stop  offset="1" style="stop-color:#74C6BA"/>
	</linearGradient>
	<polyline style="fill:url(#SVGID_21_);" points="530.335,22.543 535.753,15.456 535.753,-0.05 530.335,7.027 	"/>
	<linearGradient id="SVGID_22_" gradientUnits="userSpaceOnUse" x1="478.4312" y1="40.9668" x2="519.6616" y2="40.9668">
		<stop  offset="0" style="stop-color:#113D86"/>
		<stop  offset="1" style="stop-color:#34A4DD"/>
	</linearGradient>
	<polygon style="fill:url(#SVGID_22_);" points="474.822,44.51 480.24,37.423 522.948,37.423 517.53,44.51 	"/>
	<linearGradient id="SVGID_23_" gradientUnits="userSpaceOnUse" x1="520.2393" y1="56.2208" x2="520.2393" y2="42.1661">
		<stop  offset="0" style="stop-color:#272B58"/>
		<stop  offset="1" style="stop-color:#74C6BA"/>
	</linearGradient>
	<polygon style="fill:url(#SVGID_23_);" points="517.53,60.005 522.948,52.918 522.948,37.423 517.53,44.51 	"/>
	<linearGradient id="SVGID_24_" gradientUnits="userSpaceOnUse" x1="460.6799" y1="77.5464" x2="460.6799" y2="23.0278">
		<stop  offset="0" style="stop-color:#272B58"/>
		<stop  offset="1" style="stop-color:#74C6BA"/>
	</linearGradient>
	<polygon style="fill:url(#SVGID_24_);" points="457.974,22.547 463.386,22.547 463.386,74.882 457.974,81.968 	"/>
</g>
</svg>
