<?xml version="1.0" encoding="iso-8859-1"?>
<!-- Generator: Adobe Illustrator 17.1.0, SVG Export Plug-In . SVG Version: 6.00 Build 0)  -->
<!DOCTYPE svg PUBLIC "-//W3C//DTD SVG 1.1//EN" "http://www.w3.org/Graphics/SVG/1.1/DTD/svg11.dtd">
<svg version="1.1" id="&#x56FE;&#x5C42;_1" xmlns="http://www.w3.org/2000/svg" xmlns:xlink="http://www.w3.org/1999/xlink" x="0px"
	 y="0px" viewBox="0 0 355.273 177.455" style="enable-background:new 0 0 355.273 177.455;" xml:space="preserve">
<polygon style="fill:#BF1E69;" points="68.708,79.561 68.708,97.065 75.21,97.065 75.21,89.99 75.21,79.561 "/>
<g>
	<g>
		<path style="fill:#EDE7EC;" d="M332.86,27.403c0,0-1.178,5.621,1.306,6.615l-5.133,0.662c0,0,0.331-1.987-0.828-3.643
			C327.046,29.381,332.86,27.403,332.86,27.403z"/>
		<path style="fill:#302D48;" d="M322.824,34.266c0,0,1.656-0.828,6.292-1.159s7.948-0.166,8.941,1.159s8.444,73.847,8.444,82.954
			s-4.636,13.081-4.636,13.081l1.159,18.048c0,0,1.242,1.242,0.497,2.318c-0.067,0.096-7.451,0.331-7.451,0.331
			s-4.885-0.414-3.146-1.821c1.151-0.932,5.961-1.987,5.961-1.987s-4.139-13.081-3.312-16.392
			c0.828-3.312-5.999-26.569-5.999-26.569s0.37,7.362-0.458,10.839c-0.828,3.477-1.987,27.817-3.477,31.625
			c0,0,1.656,1.656,0.993,2.815c-0.662,1.159-8.646,1.181-9.603,0.497c-0.58-0.414,1.904-2.898,5.133-3.643
			c0,0-2.318-21.359-1.987-26.823C320.506,114.074,322.824,34.266,322.824,34.266z"/>
		<path style="fill:#FBEDF4;" d="M289.294,55.046c0,0-3.769-3.397-5.298-0.993c-1.159,1.821,0.167,2.738,0.331,3.312
			c0.331,1.159,0.163,1.676,1.325,1.821c2.649,0.331,6.015-2.07,6.015-2.07L289.294,55.046z"/>
		<path style="fill:#BCDEE7;" d="M324.065,33.189c0,0-6.044,0.58-7.203,4.553c-1.473,5.052-2.649,8.61-3.808,12.915
			c-0.913,3.392-3.22,8.836-6.954,9.438c-2.566,0.414-7.699-1.242-10.017-2.566c-2.318-1.325-4.967-3.146-6.458-1.821
			c-1.49,1.325-2.98,2.98,0.993,3.974s11.922,8.941,17.303,8.196c3.899-0.54,10.183-8.362,11.342-12.832
			c0,0-6.292,12.584-4.305,36.924c2.319,28.402-0.497,40.235-0.497,40.235h7.451l2.152-61.595
			C324.065,70.61,326.466,43.372,324.065,33.189z"/>
		<g>
			
				<rect x="279.509" y="45.203" transform="matrix(-0.1321 -0.9912 0.9912 -0.1321 279.7485 349.0536)" style="fill:#BCDEE7;stroke:#DDAB33;stroke-width:2;stroke-miterlimit:10;" width="26.345" height="13.713"/>
			<g>
				
					<rect x="290.203" y="39.819" transform="matrix(-0.1321 -0.9912 0.9912 -0.1321 286.1488 339.4246)" style="fill:#DDAB33;" width="2.927" height="9.249"/>
				
					<rect x="292.233" y="55.052" transform="matrix(-0.1321 -0.9912 0.9912 -0.1321 273.3482 358.6827)" style="fill:#DDAB33;" width="2.927" height="9.249"/>
				
					<rect x="291.556" y="49.974" transform="matrix(-0.1321 -0.9912 0.9912 -0.1321 277.615 352.2633)" style="fill:#DDAB33;" width="2.927" height="9.249"/>
				
					<rect x="290.88" y="44.896" transform="matrix(-0.1321 -0.9912 0.9912 -0.1321 281.882 345.844)" style="fill:#DDAB33;" width="2.927" height="9.249"/>
			</g>
		</g>
		<path style="fill:#FEF4F6;" d="M308.584,53.382c0,0-1.699,0-2.008-1.701c-0.309-1.701-1.39-2.475-3.089-3.248
			c-1.576-0.718-0.36,0.962,0.44,1.455c0.027,0.017,0.007,0.067-0.021,0.051c-1.423-0.81-3.666-0.744-5.052-1.042
			c-2.547-0.548-3.166,0.541-0.772,1.083c1.629,0.368,0.463,1.547,0.772,2.938c0.379,1.708,2.162,2.011,4.015,1.856
			c1.853-0.155,4.015,1.392,4.479,2.011L308.584,53.382z"/>
		<path style="fill:#FBEDF4;" d="M326.88,19.281c0,0-1.987,0.662-2.318,2.98s-0.993,5.795,0,7.12c0.993,1.325,1.987,2.98,3.808,2.98
			c1.171,0,4.694-0.505,5.162-5.717c0,0,1.461-3.39-0.029-5.708S327.543,19.115,326.88,19.281z"/>
		<polygon style="fill:#BF1E69;" points="328.831,33.131 327.211,54.714 330.608,66.634 333.172,51.568 333.051,32.976 		"/>
		<path style="fill:#302D48;" d="M325.887,18.453c0,0-1.308,2.177,3.477,2.815c2.484,0.331,4.027,1.505,3.808,3.146
			c-0.331,2.484,0.171,3.966,0.993,2.815c0.828-1.159,1.987-4.471,1.325-6.126c-0.662-1.656-1.732-3.436-4.381-3.601
			C328.46,17.335,327.708,16.963,325.887,18.453z"/>
		<path style="fill:#BCDEE7;" d="M335.904,32.444c0,0,4.305-0.166,7.782,0.662c2.063,0.491,4.139,2.98,4.967,5.464
			c0.828,2.484-0.414,23.581-0.414,39.656c0,12.253,0.828,21.691,1.656,29.142c0.828,7.451,3.891,23.429,4.719,24.919h-22.353
			c0,0-2.401-20.118-3.146-43.05c-0.358-11.005,1.407-30.383,3.229-37.006S337.477,38.653,335.904,32.444z"/>
		<path style="fill:#A7CBD6;" d="M337.063,46.684c-0.968,4.32-5.298,16.558-8.444,15.564c-3.146-0.993-18.71-7.617-19.869-9.935
			l-2.649,4.305c0,0,16.061,12.915,21.359,13.081c5.298,0.166,9.603-1.987,12.915-7.12c3.312-5.133,5.795-11.59,5.795-11.59
			s2.884-7.791,1.739-10.845c-1.49-3.974-3.643-6.458-6.789-5.298S338.031,42.365,337.063,46.684z"/>
		<defs>
			<filter id="Adobe_OpacityMaskFilter" filterUnits="userSpaceOnUse" x="322.339" y="22.686" width="3.019" height="2.254">
				<feColorMatrix  type="matrix" values="1 0 0 0 0  0 1 0 0 0  0 0 1 0 0  0 0 0 1 0"/>
			</filter>
		</defs>
		<mask maskUnits="userSpaceOnUse" x="322.339" y="22.686" width="3.019" height="2.254" id="SVGID_1_">
			<g style="filter:url(#Adobe_OpacityMaskFilter);">
				<path style="fill:#FBEDF4;" d="M326.88,19.281c0,0-1.987,0.662-2.318,2.98s-0.993,5.795,0,7.12
					c0.993,1.325,1.987,2.98,3.808,2.98c1.171,0,4.362-0.505,4.83-5.717c0,0,1.793-3.39,0.302-5.708S327.543,19.115,326.88,19.281z"
					/>
			</g>
		</mask>
		<g style="mask:url(#SVGID_1_);">
			<path style="fill:#232134;" d="M325.358,23.357c0,0-0.771-1.355-3.019-0.214C322.339,23.143,324.094,22.834,325.358,23.357z"/>
			<path style="fill:#232134;" d="M325.251,24.7c0,0-0.288-1.336-2.595-0.598C322.656,24.102,323.494,25.064,325.251,24.7z"/>
			
				<ellipse transform="matrix(0.8873 0.4612 -0.4612 0.8873 47.679 -146.9804)" style="opacity:0.7;fill:#FEF4F6;" cx="324.558" cy="24.06" rx="0.257" ry="0.426"/>
			<defs>
				<filter id="Adobe_OpacityMaskFilter_1_" filterUnits="userSpaceOnUse" x="324.614" y="24.075" width="0.28" height="0.298">
					<feColorMatrix  type="matrix" values="1 0 0 0 0  0 1 0 0 0  0 0 1 0 0  0 0 0 1 0"/>
				</filter>
			</defs>
			<mask maskUnits="userSpaceOnUse" x="324.614" y="24.075" width="0.28" height="0.298" id="SVGID_1_">
				<g style="filter:url(#Adobe_OpacityMaskFilter_1_);">
					
						<ellipse transform="matrix(0.8873 0.4612 -0.4612 0.8873 47.679 -146.9804)" style="fill:#FEF4F6;" cx="324.558" cy="24.06" rx="0.257" ry="0.426"/>
				</g>
			</mask>
			
				<ellipse transform="matrix(0.8873 0.4612 -0.4612 0.8873 47.7769 -147.0523)" style="fill:#FEF4F6;" cx="324.754" cy="24.224" rx="0.137" ry="0.152"/>
			<circle style="opacity:0.9;fill:#FEF4F6;" cx="323.645" cy="24.744" r="0.196"/>
		</g>
		<g>
			<path style="fill:#232134;" d="M327.884,23.535c0,0,0.954-1.233,3.019,0.214C330.903,23.749,329.208,23.196,327.884,23.535z"/>
			<path style="fill:#232134;" d="M327.8,24.88c0,0,0.474-1.283,2.654-0.226C330.454,24.654,329.489,25.488,327.8,24.88z"/>
			
				<ellipse transform="matrix(-0.9434 0.3316 -0.3316 -0.9434 646.6342 -61.6508)" style="opacity:0.7;fill:#FEF4F6;" cx="328.577" cy="24.344" rx="0.257" ry="0.426"/>
			<defs>
				<filter id="Adobe_OpacityMaskFilter_2_" filterUnits="userSpaceOnUse" x="328.221" y="24.329" width="0.277" height="0.301">
					<feColorMatrix  type="matrix" values="1 0 0 0 0  0 1 0 0 0  0 0 1 0 0  0 0 0 1 0"/>
				</filter>
			</defs>
			<mask maskUnits="userSpaceOnUse" x="328.221" y="24.329" width="0.277" height="0.301" id="SVGID_2_">
				<g style="filter:url(#Adobe_OpacityMaskFilter_2_);">
					
						<ellipse transform="matrix(-0.9434 0.3316 -0.3316 -0.9434 646.6342 -61.6508)" style="fill:#FEF4F6;" cx="328.577" cy="24.344" rx="0.257" ry="0.426"/>
				</g>
			</mask>
			
				<ellipse transform="matrix(-0.9434 0.3316 -0.3316 -0.9434 646.2567 -61.3165)" style="mask:url(#SVGID_2_);fill:#FEF4F6;" cx="328.36" cy="24.479" rx="0.137" ry="0.152"/>
			<circle style="opacity:0.9;fill:#FEF4F6;" cx="329.384" cy="25.15" r="0.196"/>
		</g>
	</g>
	<path id="XMLID_520_" style="fill:#DF9383;" d="M326.775,27.079c-1.146-0.068-0.172-1.732,0.078-2.237
		c0.101-0.204-0.2-0.398-0.302-0.192c-0.385,0.776-1.401,2.69,0.214,2.786C326.995,27.45,327.005,27.092,326.775,27.079z"/>
	<path id="XMLID_519_" style="fill:#DF9383;" d="M325.819,29.192c0,0,1.393,0.705,2.924-0.071c0,0-0.294,0.928-1.323,1.123
		C326.39,30.44,326.222,29.533,325.819,29.192z"/>
</g>
<g>
	<g>
		<path style="fill:#232134;" d="M33.584,45.498c0,0,4.606,2.628,4.399,9.465c-0.131,4.307-1.658,3.937-2.789,3.38
			c-1.63-0.802-2.271-3.554-2.725-4.917s-2.725-7.721-2.271-8.63S33.584,45.498,33.584,45.498z"/>
		<path style="fill:#FEF4F6;" d="M27.001,57.449c0,0,1.865,2.901,1.819,5.919c-0.018,1.209-0.575,2.368-1.197,2.576
			c-0.964,0.321,0.076,7.694,5.527,9.965c1.875,0.781,1.847-8.6,0.689-9.758c-0.622-0.622-1.865-2.155-2.072-3.73
			c-0.266-2.024,0.162-3.914,0.928-4.681L27.001,57.449z"/>
		<defs>
			<filter id="Adobe_OpacityMaskFilter_3_" filterUnits="userSpaceOnUse" x="28.451" y="53.098" width="9.117" height="9.531">
				<feColorMatrix  type="matrix" values="1 0 0 0 0  0 1 0 0 0  0 0 1 0 0  0 0 0 1 0"/>
			</filter>
		</defs>
		<mask maskUnits="userSpaceOnUse" x="28.451" y="53.098" width="9.117" height="9.531" id="SVGID_3_">
			<g style="filter:url(#Adobe_OpacityMaskFilter_3_);">
				<path style="fill:#FEF4F6;" d="M27.001,57.449c0,0,1.865,2.901,1.819,5.919c-0.018,1.209-0.575,2.368-1.197,2.576
					c-0.964,0.321,0.076,7.694,5.527,9.965c1.875,0.781,1.847-8.6,0.689-9.758c-0.622-0.622-1.865-2.155-2.072-3.73
					c-0.266-2.024,0.162-3.914,0.928-4.681L27.001,57.449z"/>
			</g>
		</mask>
		<ellipse style="mask:url(#SVGID_3_);fill:#E4E9EB;" cx="33.01" cy="57.864" rx="4.558" ry="4.766"/>
		<path style="fill:#FEF4F6;" d="M31.9,46.306c0,0,2.831,1.669,2.831,4.849s0.524,6.359-1.573,8.176s-3.669-0.454-6.29-1.363
			s-3.145-5.905-2.621-8.176C24.772,47.522,31.69,46.454,31.9,46.306z"/>
		<path style="fill:#232134;" d="M32.241,43.661c0,0,1.391,3.428-4.618,7.158c-0.77,0.478-0.855,0.552-1.45,1.243
			c-0.646,0.749-1.865,0.414-1.658,1.865c0.198,1.387,2.558,1.875,3.73,3.73c0.348,0.551,1.036,1.658,0.622,2.694
			c-1.026,2.565-8.434-0.338-8.434-0.338s-1.363-10.447,1.817-13.626S28.607,41.844,32.241,43.661z"/>
		<path style="fill:#FEF4F6;" d="M49.501,66.825c0,0,1.363-0.454,2.725,0c0,0,1.363-18.622,0.454-20.439s-1.184-7.624,0-9.993
			c0.908-1.817,2.725,2.271,3.179,4.088s-0.908,3.634-0.908,4.996s1.817,8.176,1.817,15.897c0,3.634-0.454,7.267-0.908,9.084
			s-5.45,0.454-7.31,0.725C46.129,71.536,49.501,66.825,49.501,66.825z"/>
		<path style="fill:#FEF4F6;" d="M32.241,137.681c0,0,2.271,2.725,1.817,7.721c-0.454,4.996-2.271,23.164-1.817,25.89
			c0.454,2.725,0.908,3.179,2.271,4.088c1.363,0.908-2.271,1.363-3.634-0.454c-1.363-1.817-2.271-18.168-1.817-22.256
			c0.454-4.088-0.908-12.718-1.363-14.08C27.245,137.227,32.241,137.681,32.241,137.681z"/>
		<path style="fill:#FEF4F6;" d="M24.519,137.681c0,0,0.454,4.996-1.363,6.813S6.351,167.659,4.989,171.292
			s-1.817-1.817-0.454-4.542c1.016-2.031,5.905-14.08,8.63-18.168s5.45-5.905,5.905-7.721s0.454-4.542,0.454-4.542L24.519,137.681z"
			/>
		<path style="fill:#FEF4F6;" d="M19.296,87.492c0,0-0.492,2.07-1.363,3.179c0,0,12.15,6.067,13.84,5.804
			c1.69-0.263,6.057,1.311,7.326,3.145c0.974,1.407-2.74,1.789-4.251,1.635c-1.511-0.154-2.306-1.978-3.305-2.407
			c-0.999-0.429-6.711-0.904-12.372-3.334c-2.664-1.144-4.695-2.251-5.848-3.24s1.363-5.606,1.898-7.399
			C15.918,82.54,19.296,87.492,19.296,87.492z"/>
		<path style="fill:#EA5A4F;" d="M28.153,65.917c0,0-3.939-0.868-4.996,2.725c-2.271,7.721-9.993,15.443-9.993,18.168
			c0,0,4.996,1.817,5.45,3.634c0,0,5.678-8.403,5.678-11.582c0,0,1.136,7.949,0,13.626c-1.242,6.211-3.753,12.166-5.905,18.622
			c-2.498,7.494-3.179,25.435-1.817,28.161h17.26c0,0,1.644-19.521,1.136-30.205c-0.227-4.769-1.099-15.376,0.227-21.121
			c0.681-2.952,2.97-5.458,3.179-8.176c0.227-2.952-0.227-5.678-0.908-7.721c0,0,8.403-1.59,12.718,0c0,0,2.271-4.996,0.908-5.905
			c0,0-12.072-1.443-14.765-1.236c-1.663,0.128-3.73,0.207-3.176,1.917c0.61,1.883,0.887,9.069-0.681,7.949
			c-1.59-1.136-2.359-3.133-2.952-5.223C28.923,67.46,29.289,66.144,28.153,65.917z"/>
		<path style="fill:#BF1E69;" d="M2.968,168.112c0,0-1.361,0.064-1.298,1.425s-0.759,3.218-0.759,3.218l0.021,0.454l1.688-2.807
			c0,0-0.284,3.651,0.212,4.537s1.312,1.47,1.9,1.73c0.929,0.411,0.696-0.989,0.369-1.836c-0.517-1.34,0.369-1.836-0.127-2.722
			c-0.314-0.561-1.446-1.751-1.077-3.587C3.986,168.078,2.968,168.112,2.968,168.112z"/>
		<path style="fill:#BF1E69;" d="M29.054,170.803c0,0-1.068,0.847-0.221,1.914c0.847,1.068,0.809,3.51,0.809,3.51l0.328,0.062
			l0.139-2.97c0,0,0.757,2.086,1.678,2.516c0.92,0.43,2.083,0.454,2.725,0.454c1.363,0,0.306-0.866-0.454-1.363
			c-1.202-0.786-0.442-1.841-1.363-2.271c-0.582-0.272-1.874-0.355-2.647-2.061C29.861,170.181,29.054,170.803,29.054,170.803z"/>
		<path style="fill:#FEF4F6;" d="M34.849,101.255c1.511,0.154,5.225-0.228,4.252-1.635c-1.27-1.834-5.636-3.408-7.326-3.145
			c-1.064,0.165-6.266-2.174-9.98-3.933v3.969c4.699,1.579,8.906,1.974,9.75,2.337C32.543,99.277,33.338,101.101,34.849,101.255z"/>
		<path style="fill:#232134;" d="M30.878,51.837c0,0-0.908-1.363-3.179,0C27.699,51.837,29.516,51.382,30.878,51.837z"/>
		<path style="fill:#232134;" d="M36.353,51.199c0,0-1.058-1.25-3.159,0.363C33.194,51.562,34.947,50.903,36.353,51.199z"/>
		<path style="fill:#232134;" d="M36.329,52.291c0,0-0.625-1.159-2.725,0.454C33.603,52.745,34.512,53.653,36.329,52.291z"/>
		<path style="fill:#232134;" d="M30.867,53.252c0,0-0.401-1.379-2.764-0.434C28.102,52.818,29.052,53.764,30.867,53.252z"/>
		
			<ellipse transform="matrix(0.9176 0.3974 -0.3974 0.9176 23.3952 -7.6241)" style="opacity:0.7;fill:#FEF4F6;" cx="30.092" cy="52.633" rx="0.27" ry="0.448"/>
		<defs>
			<filter id="Adobe_OpacityMaskFilter_4_" filterUnits="userSpaceOnUse" x="30.163" y="52.633" width="0.293" height="0.315">
				<feColorMatrix  type="matrix" values="1 0 0 0 0  0 1 0 0 0  0 0 1 0 0  0 0 0 1 0"/>
			</filter>
		</defs>
		<mask maskUnits="userSpaceOnUse" x="30.163" y="52.633" width="0.293" height="0.315" id="SVGID_4_">
			<g style="filter:url(#Adobe_OpacityMaskFilter_4_);">
				
					<ellipse transform="matrix(0.9176 0.3974 -0.3974 0.9176 23.3952 -7.6241)" style="fill:#FEF4F6;" cx="30.092" cy="52.633" rx="0.27" ry="0.448"/>
			</g>
		</mask>
		
			<ellipse transform="matrix(0.9176 0.3974 -0.3974 0.9176 23.4758 -7.6976)" style="mask:url(#SVGID_4_);fill:#FEF4F6;" cx="30.31" cy="52.79" rx="0.144" ry="0.16"/>
		<circle style="opacity:0.9;fill:#FEF4F6;" cx="29.187" cy="53.417" r="0.206"/>
		
			<ellipse transform="matrix(0.9176 0.3974 -0.3974 0.9176 23.5669 -9.3775)" style="opacity:0.7;fill:#FEF4F6;" cx="34.408" cy="52.17" rx="0.27" ry="0.448"/>
		<defs>
			<filter id="Adobe_OpacityMaskFilter_5_" filterUnits="userSpaceOnUse" x="34.48" y="52.171" width="0.293" height="0.315">
				<feColorMatrix  type="matrix" values="1 0 0 0 0  0 1 0 0 0  0 0 1 0 0  0 0 0 1 0"/>
			</filter>
		</defs>
		<mask maskUnits="userSpaceOnUse" x="34.48" y="52.171" width="0.293" height="0.315" id="SVGID_5_">
			<g style="filter:url(#Adobe_OpacityMaskFilter_5_);">
				
					<ellipse transform="matrix(0.9176 0.3974 -0.3974 0.9176 23.5669 -9.3775)" style="fill:#FEF4F6;" cx="34.408" cy="52.17" rx="0.27" ry="0.448"/>
			</g>
		</mask>
		
			<ellipse transform="matrix(0.9176 0.3974 -0.3974 0.9176 23.6475 -9.451)" style="mask:url(#SVGID_5_);fill:#FEF4F6;" cx="34.626" cy="52.328" rx="0.144" ry="0.16"/>
	</g>
	<path id="XMLID_34_" style="fill:#DF9383;" d="M32.578,55.186c1.043,0.144,0.465-1.527,0.331-2.026
		c-0.054-0.202,0.251-0.322,0.306-0.118c0.207,0.767,0.778,2.671-0.692,2.468C32.314,55.48,32.369,55.157,32.578,55.186z"/>
	<path style="fill:#EA5A4F;" d="M33.752,57.071c0,0-1.147,0.313-2.294,0C31.458,57.071,32.785,58.278,33.752,57.071z"/>
</g>
<g>
	<path style="fill:#FDEDF1;" d="M76.044,93.063c0,0,3.001,1.167,2.668,2.668c-0.333,1.501-1.667,3.835-3.668,4.335
		c-2.001,0.5-3.335-1.167-3.501-2.167C71.375,96.898,74.376,95.564,76.044,93.063z"/>
	<g>
		<path style="fill:#302D48;" d="M117.327,94.075c0,0,1.12,19.272-0.448,30.029c-1.569,10.757-3.81,30.029-3.586,34.063h-6.275
			c0,0,1.12-26.219,0.896-32.718s0.224-29.133-0.896-31.374C105.898,91.834,117.327,94.075,117.327,94.075z"/>
		<path style="fill:#302D48;" d="M107.019,158.167c0,0-2.017,3.81,0.672,4.93c4.259,1.775,9.385,1.148,10.308,0.224
			c0.896-0.896-4.482-2.465-5.602-3.81c-1.12-1.345,0-4.482,0-4.482h-3.361L107.019,158.167z"/>
		<path style="fill:#302D48;" d="M104.554,91.386c0,0-1.724,21.083-4.482,31.598c-3.586,13.67-21.065,30.253-20.841,34.287h-6.275
			c0,0,12.101-22.186,16.583-34.959c2.153-6.136,2.465-26.668,3.361-29.805C93.589,90.097,104.554,91.386,104.554,91.386z"/>
		<path style="fill:#302D48;" d="M72.956,157.271c-0.155,1.234,1.439,2.12,0.672,4.93c-0.672,2.465,4.23,2.941,5.154,2.017
			c0.896-0.896,1.12-2.689,0.448-4.93c-0.503-1.676,0.672-3.81,0.672-3.81l-4.93-1.345
			C74.973,154.133,73.072,156.345,72.956,157.271z"/>
	</g>
	<path style="fill:#FDEDF1;" d="M164.41,56.216c0,0,1.834-0.5,2.001-1.501c0.167-1,0.393-3.378,1.226-3.711
		c0,0,0.69,0.653,0.667,1.667c-0.038,1.667,4.483-0.979,5.484-1.98c1-1,0.329,3.334-2.875,5.024
		c-2.743,1.447-2.834,2.334-4.502,3.168C164.743,59.717,164.41,56.216,164.41,56.216z"/>
	<path style="fill:#302D48;" d="M164.5,54.97l3.137,3.586c0,0-5.378,10.981-17.256,12.101c-11.877,1.12-19.496-5.827-20.841-7.843
		s-0.672,3.137-1.569,8.068s-6.051,22.858-6.051,24.875H85.393c0,0,5.922-11.724,7.171-17.031c1.793-7.619,2.017-20.393,1.569-22.41
		c-0.448-2.017-8.964,9.412-10.533,12.774c-1.569,3.361-6.723,22.186-6.051,24.875h-4.482c0,0-1.345-20.617,4.258-31.15
		s15.687-23.754,21.289-25.771c5.602-2.017,13.446-0.896,14.79-1.12c1.345-0.224,7.619,1.569,12.998,3.361
		c5.378,1.793,6.947,12.325,9.412,14.566c1.523,1.385,3.474,5.08,5.959,7.543c1.536,1.523,3.277,2.575,5.246,2.318
		C152.174,63.038,160.69,61.245,164.5,54.97z"/>
	<path style="fill:#FDEDF1;" d="M126.729,21.536c0,0,3.626,1.059,3.168,5.335c-0.43,4.017-1.324,7.229-2.834,9.837
		c-1.005,1.734-3.909-0.451-5.029,1.342c-1.12,1.793-0.896,4.034-3.586,2.241c-2.19-1.46-2.932-2.428-2.689-4.482
		c0.055-0.469,0.448-1.569,0.448-2.241c0-2.835,1.069-8.704,2.637-9.153c1.569-0.448,1.845,3.326,2.517,2.43
		C122.033,25.949,121.575,22.209,126.729,21.536z"/>
	<path style="fill:#232134;" d="M127.094,19.865c0,0-6.265-2.353-9.29-0.448c-2.962,1.865-4.399,8.214-3.951,10.455
		c0.448,2.241-0.04,4.424,1.793,3.869c3.94-1.192,1.821-5.3,3.249-6.894s0.906,4.005,2.963,1.175
		c1.243-1.71,2.028-4.797,3.991-5.096C129.087,22.429,129.335,20.761,127.094,19.865z"/>
	<path style="fill:#BF1E69;" d="M118.112,39.727c0,0,0.724,8.66,0.724,17.344c0,8.712-0.428,15.51,0.709,17.714
		c1.714,3.323,3.049,4.66,3.049,4.66s2.017-3.043,1.793-5.285s-0.896-10.57-0.896-14.574s-1.793-18.097-2.241-19.058
		C120.801,39.567,118.112,39.727,118.112,39.727z"/>
	<path style="fill:#BF1E69;" d="M115.759,35.81c0,0,0.672,2.913,2.241,3.81c1.569,0.896,0.471,1.331,0.471,1.331
		s-2.031-0.487-2.756-2.005C114.989,37.428,115.534,36.482,115.759,35.81z"/>
	<path style="fill:#BF1E69;" d="M122.257,37.827c-0.224-0.224-0.558,1.076-1.345,1.793c-1.335,1.217-0.896,1.12-0.896,1.12
		s1.15,0.779,1.924-0.51C122.612,39.109,122.481,38.051,122.257,37.827z"/>
	<path style="fill:#302D48;" d="M127.73,26.038c0,0-0.834-1-3.335,0.167C124.395,26.205,125.896,25.871,127.73,26.038z"/>
	<g>
		<path style="fill:#302D48;" d="M127.699,27.93c0,0-0.502-1.202-3.015-0.407c0,0,0.504,0.417,1.225,0.553
			C126.631,28.212,127.57,28.065,127.699,27.93z"/>
		
			<ellipse transform="matrix(0.7597 0.6503 -0.6503 0.7597 48.3836 -75.9273)" style="opacity:0.7;fill:#FEF4F6;" cx="126.92" cy="27.498" rx="0.292" ry="0.484"/>
		<defs>
			<filter id="Adobe_OpacityMaskFilter_6_" filterUnits="userSpaceOnUse" x="126.932" y="27.565" width="0.326" height="0.331">
				<feColorMatrix  type="matrix" values="1 0 0 0 0  0 1 0 0 0  0 0 1 0 0  0 0 0 1 0"/>
			</filter>
		</defs>
		<mask maskUnits="userSpaceOnUse" x="126.932" y="27.565" width="0.326" height="0.331" id="SVGID_6_">
			<g style="filter:url(#Adobe_OpacityMaskFilter_6_);">
				
					<ellipse transform="matrix(0.7597 0.6503 -0.6503 0.7597 48.3836 -75.9273)" style="fill:#FEF4F6;" cx="126.92" cy="27.498" rx="0.292" ry="0.484"/>
			</g>
		</mask>
		
			<ellipse transform="matrix(0.7597 0.6503 -0.6503 0.7597 48.5767 -75.9851)" style="mask:url(#SVGID_6_);fill:#FEF4F6;" cx="127.095" cy="27.731" rx="0.155" ry="0.173"/>
		<circle style="opacity:0.9;fill:#FEF4F6;" cx="125.734" cy="28.02" r="0.223"/>
	</g>
	<path id="XMLID_33_" style="fill:#FDEDF1;" d="M129.669,28.694c0.235,0.759,0.935,2.774-0.542,2.624
		C128.917,31.297,129.607,28.493,129.669,28.694z"/>
	<path style="fill:#BF1E69;" d="M128.594,33.259c0,0-1.216,0.236-1.737-0.192c0,0,0.679,0.985,1.53,0.785L128.594,33.259z"/>
</g>
<path style="fill:#FEF4F6;" d="M147.371,5.203c0,0-1.173-3.067,3.438-3.872c3.801-0.663,0.726,2.161,7.289,0.705
	c1.242-0.275,0.863,3.167-4.932,3.167S147.371,5.203,147.371,5.203z"/>
<path style="fill:#FEF4F6;" d="M237.945,0.84c-2.981,0.317-4.919-1.096-6.539-0.088c-1.083,0.674,2.29,2.739,5.462,2.739
	c1.969,0,3.702,1.358,4.655,0C242.412,2.226,240.25,0.595,237.945,0.84z"/>
<g>
	<g>
		<path style="fill:#033C46;" d="M176.761,123.508l0.993,15.73c0,0-5.63-1.49-5.63,2.98l10.431,0.662l0.662-19.373H176.761z"/>
		<path style="fill:#033C46;" d="M193.153,123.508l0.497,16.061c0,0-1.407,0.083-1.242,2.566c0,0,1.159,0.828,2.484,2.152
			c0,0,1.49,1.987,4.471,1.159c1.022-0.284,1.159-1.656,0-3.312c-1.159-1.656-2.07-0.911-2.07-3.394l2.98-16.227L193.153,123.508z"
			/>
		<path style="fill:#123F88;" d="M147.371,5.203h5.795c0,0-2.815,17.386,5.298,22.518s23.897,2.128,27.155,2.649
			c4.139,0.662,15.73,0.662,18.876,1.325s23.181,0.497,26.823-4.139s5.216-13.66,5.381-17.965c0.105-2.729-1.904-3.229-2.566-5.216
			c-0.45-1.351,3.54-0.865,6.14-0.415c1.224,0.212,2.139,0.415,2.139,0.415s-0.083,19.124-3.643,26.658
			c-4.418,9.35-15.859,10.25-21.028,11.425c-3.643,0.828-7.451,1.821-8.941,1.821l0.662,81.298h-37.42l5.05-81.712
			c0,0-15.73-0.497-21.359-6.292s-7.782-10.763-8.279-18.379C146.957,11.578,147.371,5.203,147.371,5.203z"/>
		<path style="fill:#FEF4F6;" d="M196.299,17.869c0,0-0.914-2.042-4.026-0.003c-2.401,1.573-4.004,4.556-3.921,8.282
			c0.038,1.728,1.159,5.795,2.815,6.789c1.656,0.993,4.217,0.17,7.631-2.932c2.182-1.982,2.635-6.837,1.973-8.162
			C200.107,20.519,196.299,17.869,196.299,17.869z"/>
		<path style="fill:#302D48;" d="M185.371,32.109c0,0,4.967,15.73,5.795,18.048c0,0,13.828-17.73,13.412-18.048
			c-1.407-1.076-19.207-1.821-19.207-1.821V32.109z"/>
		<path style="fill:#BF1E69;" d="M190.09,30.702l0.58,22.932c0,0,0.828,2.815,0.993,3.312c0.166,0.497,0,0,0,0
			s1.821-5.795,1.987-7.948c0.166-2.153,0.58-18.131,0.58-18.131L190.09,30.702z"/>
		<path style="fill:#232134;" d="M193.15,17.643c0,0,1.462,2.253,5.483,2.882c3.025,0.473-1.171,8.559,1.64,8.545
			c0.828-0.004,4.341-6.646,2.001-9.95c-1.712-2.417-2.223-1.21-3.717-2.445C195.472,14.125,193.647,16.65,193.15,17.643z"/>
		<g>
			<path style="fill:#302D48;" d="M191.124,20.751c0,0,0.983-0.84,3.237,0.72C194.36,21.471,192.947,20.894,191.124,20.751z"/>
			<path style="fill:#302D48;" d="M190.845,22.384c0,0,0.983-0.84,2.854,0.991c0,0-0.633,0.144-1.334-0.06
				C191.666,23.111,190.899,22.561,190.845,22.384z"/>
			
				<ellipse transform="matrix(-0.9714 0.2374 -0.2374 -0.9714 383.2829 -1.4627)" style="opacity:0.7;fill:#FEF4F6;" cx="191.73" cy="22.35" rx="0.29" ry="0.481"/>
			<defs>
				<filter id="Adobe_OpacityMaskFilter_7_" filterUnits="userSpaceOnUse" x="191.315" y="22.307" width="0.31" height="0.342">
					<feColorMatrix  type="matrix" values="1 0 0 0 0  0 1 0 0 0  0 0 1 0 0  0 0 0 1 0"/>
				</filter>
			</defs>
			<mask maskUnits="userSpaceOnUse" x="191.315" y="22.307" width="0.31" height="0.342" id="SVGID_7_">
				<g style="filter:url(#Adobe_OpacityMaskFilter_7_);">
					
						<ellipse transform="matrix(-0.9714 0.2374 -0.2374 -0.9714 383.2829 -1.4627)" style="fill:#FEF4F6;" cx="191.73" cy="22.35" rx="0.29" ry="0.481"/>
				</g>
			</mask>
			
				<ellipse transform="matrix(-0.9714 0.2374 -0.2374 -0.9714 382.8028 -1.1499)" style="mask:url(#SVGID_7_);fill:#FEF4F6;" cx="191.471" cy="22.477" rx="0.154" ry="0.172"/>
			<circle style="opacity:0.9;fill:#FEF4F6;" cx="192.547" cy="23.344" r="0.221"/>
		</g>
	</g>
	<polygon style="fill:#302D48;" points="200.683,98.799 199.163,125.577 202.02,125.577 	"/>
	<path style="fill:#BF1E69;" d="M188.351,26.148c0,0,0.766,0.572,2.139,0.787c0,0-1.05,0.606-2.033,0.239
		C188.457,27.175,188.356,26.613,188.351,26.148z"/>
</g>
<g>
	<g>
		<path style="fill:#FEF4F6;" d="M260.899,129.493c0,0,0.563,7.464,0,11.125c-0.563,3.662-1.056,12.674-0.352,19.434
			c0.704,6.76-0.141,7.886-0.141,7.886h2.817c0,0,2.464-18.871,2.042-24.081c-0.422-5.211,3.098-12.111,3.38-14.364
			S260.899,129.493,260.899,129.493z"/>
		<path style="fill:#ECCFCA;" d="M258.998,65.064c0,0-0.141,4.084-0.422,4.366s-1.127-0.141-1.549,0.563
			c-0.422,0.704-2.957,6.196-2.957,9.295s4.788,5.211,5.211,2.817c0.422-2.394,3.802-7.182,3.802-9.576
			c0-2.394,4.154-5.985-0.563-8.872C260.799,62.603,258.998,65.064,258.998,65.064z"/>
		<path style="fill:#FEF4F6;" d="M267.422,131.286c0,0-1.471,5.778-0.742,7.674c1.376,3.575,5.791,15.4,6.852,25.597
			c0,0-0.094,3.619,0.586,3.802c1.34,0.359,2.271-3.037,2.219-6.112c-0.041-2.459-1.844-17.817-3.635-21.82
			c-1.186-2.65,0.871-9.243,0.871-9.243L267.422,131.286z"/>
		<path style="fill:#FEF4F6;" d="M260.054,50.066c0,0-3.241,2.535-3.522,6.196c-0.319,4.141-0.154,8.394,1.833,9.717
			c1.862,1.24,6.935-0.697,7.498-3.514c0.563-2.817,0.247-6.767-0.175-8.316C265.265,52.601,261.322,49.08,260.054,50.066z"/>
		<path style="fill:#FEF4F6;" d="M235.11,43.816c0.159,1.41,1.114,3.537,2.69,5.975c0.994,1.537-0.22,2.554-2.19,9.363
			c-1.412,4.879-3.013,8.825-1.484,11.19c0.967,1.496,6.433,0.871,8.318,0.155S244,68.796,244,68.796s-4.225-1.408-5.985-1.609
			c0,0,1.272-3.09,1.76-7.263c0.34-2.911-0.009-7.874,1.37-9.11c1.009-0.904,1.412-1.836,1.35-2.969
			c-0.125-2.267-0.994-2.963-0.994-2.963s-0.717,0.967-0.814,2.371c0,0-1.161-0.758-1.62-1.468
			c-1.379-2.132-1.828-3.346-2.913-3.986C235.068,41.159,234.887,41.837,235.11,43.816z"/>
		<path style="fill:#FEF4F6;" d="M261.193,85.959c0.659,1.464-1.521,11.17-3.493,14.713c-2.716,4.88-6.07,10.297-7.285,11.48
			c0,0-0.492,0.953,0.735,0.671c1.243-0.285-1.388,2.967-2.59,1.95c-1.202-1.017-2.666-3.46-0.531-4.854
			c2.136-1.394,4.232-5.068,5.571-9.089c1.242-3.729,3.455-11.384,3.995-12.325C258.137,87.564,260.535,84.495,261.193,85.959z"/>
		<path style="fill:#302D48;" d="M264.42,65.416c0,0-1.831,3.943-4.225,8.027c-2.983,5.088-4.084,3.802-4.366,4.225
			c0,0-0.07-6.408,2.957-9.013c0,0-1.69-0.986-8.45-0.704c-5.98,0.249-10.21-0.915-10.21-0.915s-1.901,5.422,0.211,5.422
			s11.548,0.986,14.083,0.282c-1.831,3.098-4.436,9.506,2.042,15.843c3.003,2.938,3.84,6.756,4.366,12.674
			c0.563,6.337,0.506,13.485-0.563,18.73c-0.484,2.373-1.179,12.14-0.704,16.266h15.069c-1.127-5.14,4.366-16.97,1.127-28.236
			c-2.964-10.308-5.297-6.769-8.731-16.758c-3.098-9.013,2.957-16.618,0.141-20.279C264.349,67.317,265.265,65.557,264.42,65.416z"
			/>
		<path style="fill:#BF1E69;" d="M277.189,164.124c0,0,1.174,0.632,0.561,2.301c-0.634,1.73-1.527,4.304-1.527,4.304l-0.327,0.194
			l0.381-3.364c0,0-1.095,3.121-2.058,3.96c-0.963,0.839-2.413,0.383-3.07,0.28c-1.883-0.294-0.145-0.881,0.675-1.738
			c1.297-1.354,0.331-3.392,1.294-4.231c0.609-0.531,2.638,1.581,3.147-1.574C276.361,163.663,277.189,164.124,277.189,164.124z"/>
		<path style="fill:#BF1E69;" d="M264.565,164.174c0,0,0.7,0.737,0.418,2.331c-0.321,1.814-0.563,4.32-0.563,4.32l-0.438,0.054
			l-0.538-3.334c0,0-1.277,2.012-1.699,3.28c-0.282,0.845-3.032,0.779-3.682,0.636c-1.861-0.41-0.091-0.888,0.781-1.692
			c1.379-1.272,0.54-3.365,1.553-4.143c0.641-0.492,2.536,1.741,3.238-1.376C263.767,163.662,264.565,164.174,264.565,164.174z"/>
		<path style="fill:#232134;" d="M258.083,50.77c0,0-0.141,1.831,3.098,3.098c1.75,0.685,3.38,2.309,3.38,5.633
			c0,2.394-5.557,9.379-1.408,10.844c2.394,0.845,5.07,2.112,7.464,0.845c0,0-0.422-0.986-0.282-4.366
			c0.141-3.38,1.127-8.027,0.422-12.393c-0.546-3.383-3.802-5.351-6.478-6.056S257.66,49.08,258.083,50.77z"/>
		<g>
			<path style="fill:#232134;" d="M258.003,55.029c0,0,1.12-0.992,2.809,0.74C260.811,55.769,259.312,54.945,258.003,55.029z"/>
			<path style="fill:#232134;" d="M257.684,56.282c0,0,0.675-1.125,2.543,0.26C260.227,56.542,259.167,57.157,257.684,56.282z"/>
			
				<ellipse transform="matrix(-0.9634 -0.2682 0.2682 -0.9634 492.547 179.1646)" style="opacity:0.7;fill:#FEF4F6;" cx="258.51" cy="55.941" rx="0.247" ry="0.409"/>
			<defs>
				<filter id="Adobe_OpacityMaskFilter_8_" filterUnits="userSpaceOnUse" x="258.133" y="55.783" width="0.265" height="0.29">
					<feColorMatrix  type="matrix" values="1 0 0 0 0  0 1 0 0 0  0 0 1 0 0  0 0 0 1 0"/>
				</filter>
			</defs>
			<mask maskUnits="userSpaceOnUse" x="258.133" y="55.783" width="0.265" height="0.29" id="SVGID_8_">
				<g style="filter:url(#Adobe_OpacityMaskFilter_8_);">
					
						<ellipse transform="matrix(-0.9634 -0.2682 0.2682 -0.9634 492.547 179.1646)" style="fill:#FEF4F6;" cx="258.51" cy="55.941" rx="0.247" ry="0.409"/>
				</g>
			</mask>
			
				<ellipse transform="matrix(-0.9634 -0.2682 0.2682 -0.9634 492.0692 179.0729)" style="mask:url(#SVGID_8_);fill:#FEF4F6;" cx="258.265" cy="55.928" rx="0.131" ry="0.146"/>
			<circle style="opacity:0.9;fill:#FEF4F6;" cx="259.129" cy="56.819" r="0.188"/>
		</g>
	</g>
	<path style="fill:#BF1E69;" d="M256.939,61.624c0,0,0.501,0.47,2.19,0c0,0-0.619,1.04-2.044,1.04L256.939,61.624z"/>
	<path style="fill:#FEF4F6;" d="M256.472,57.162c0,0-1.572,2.054-0.709,2.671c0.67,0.479,1.92,0.316,1.92,0.316L256.472,57.162z"/>
</g>
</svg>
