<?xml version="1.0" encoding="iso-8859-1"?>
<!-- Generator: Adobe Illustrator 17.1.0, SVG Export Plug-In . SVG Version: 6.00 Build 0)  -->
<!DOCTYPE svg PUBLIC "-//W3C//DTD SVG 1.1//EN" "http://www.w3.org/Graphics/SVG/1.1/DTD/svg11.dtd">
<svg version="1.1" id="&#x56FE;&#x5C42;_1" xmlns="http://www.w3.org/2000/svg" xmlns:xlink="http://www.w3.org/1999/xlink" x="0px"
	 y="0px" viewBox="0 0 133.091 249.818" style="enable-background:new 0 0 133.091 249.818;" xml:space="preserve">
<g>
	<linearGradient id="Combined-Shape_1_" gradientUnits="userSpaceOnUse" x1="36.5292" y1="218.1138" x2="109.194" y2="-3.4916">
		<stop  offset="0" style="stop-color:#1F9FDA"/>
		<stop  offset="1" style="stop-color:#9DD6E3"/>
	</linearGradient>
	<path id="Combined-Shape_4_" style="fill:url(#Combined-Shape_1_);" d="M41.801,249.044
		c-6.358-70.987-49.727-109.412-39.693-131.25c8.013-17.44,17.595,4.113,20.515-1.65S0.695,15.981,42.174,36.249
		C73.599,51.605,65.27-5.702,128.871,1.582c-15.051,4.5-22.426,15.894-2.324,64.362s-24.67,57.515-30.215,72.109
		c-5.545,14.594,51.255-12.848,28.33,33.003C107.221,205.938,65.688,179.722,41.801,249.044z"/>
	<path id="Path-117_2_" style="fill:none;stroke:#013C46;stroke-width:1.3167;" d="M42.811,249.329
		c0.881-89.09,20.615-162.527,59.203-220.309"/>
	<path id="Path-118_2_" style="fill:none;stroke:#013C46;stroke-width:1.3167;" d="M55.195,136.527
		c9.581-10.858,26.982-19.759,52.205-26.702"/>
	<path id="Path-119_2_" style="fill:none;stroke:#013C46;stroke-width:1.3167;" d="M48.025,184.268
		c-5.695-30.334-20.115-47.905-43.261-52.713"/>
	<path id="Path-120_2_" style="fill:none;stroke:#013C46;stroke-width:1.3167;" d="M87.316,53.587l18.153-5.661"/>
	<path id="Path-82_2_" style="fill:none;stroke:#013C46;stroke-width:1.3167;" d="M52.334,68.782
		c9.707,13.944,13.859,26.831,12.455,38.661"/>
</g>
</svg>
