<?xml version="1.0" encoding="iso-8859-1"?>
<!-- Generator: Adobe Illustrator 17.1.0, SVG Export Plug-In . SVG Version: 6.00 Build 0)  -->
<!DOCTYPE svg PUBLIC "-//W3C//DTD SVG 1.1//EN" "http://www.w3.org/Graphics/SVG/1.1/DTD/svg11.dtd">
<svg version="1.1" id="&#x56FE;&#x5C42;_1" xmlns="http://www.w3.org/2000/svg" xmlns:xlink="http://www.w3.org/1999/xlink" x="0px"
	 y="0px" viewBox="0 0 183.562 165.176" style="enable-background:new 0 0 183.562 165.176;" xml:space="preserve">
<g>
	<g>
		<path style="fill:#2960A4;" d="M80.544,151.749c0,0-28.009-8.897-36.534-25.434C35.484,109.776,13.265,152.494,80.544,151.749z"/>
		<path style="fill:#2BA6DC;" d="M56.45,157.463c0,0-18.173-5.771-23.705-16.502C27.213,130.23,12.796,157.947,56.45,157.463z"/>
		<path style="fill:#FFFFFF;" d="M38.468,161.727c0,0-11.559-3.671-15.078-10.497C19.871,144.404,10.701,162.035,38.468,161.727z"/>
	</g>
	<g>
		<g>
			<path style="fill:#EDC59C;" d="M95.753,99.407l-1.367-11.008c0,0-2.812-12.667-0.579-18.324c0,0-2.782-0.759-3.76-0.968
				s0.399-9.894,0.399-9.894s8.274,1.279,9.456,2.636s4.033,5.239,3.93,8.775c-0.102,3.536-2.335,9.194-2.797,13.839
				c-0.462,4.645-0.452,8.615,0.122,12.623L95.753,99.407z"/>
			<path style="fill:#1283C3;" d="M57.993,68.78c0,0,2.646,9.675,11.386,7.78c8.74-1.895,22.565-6.081,22.877-6.331
				s1.562,0.028,1.562,0.028s-0.041-0.28-0.113-0.752c-0.366-2.424-1.524-9.902-1.944-10.423c-0.501-0.623-2.967-0.18-3.685-0.116
				c-0.718,0.064-3.682,1.164-4.214,0.822c-0.532-0.342-2.185,0.474-2.561,0.006c-0.376-0.468-1.311,0.284-2.093-0.37
				c-0.782-0.654-3.221-1.772-7.371-0.232C67.687,60.731,57.993,68.78,57.993,68.78z"/>
			<path style="fill:#FFFFFF;" d="M101.946,100.313c0,0-3.246,3.03-6.322,2.612c0,0,0.345-2.059,0.094-4.043
				c-0.033-0.26-0.077-0.613-0.133-1.039l0.002-0.002l5.62-1.636C101.321,98.326,101.946,100.313,101.946,100.313z"/>
			<g>
				<path style="fill:#1283C3;" d="M95.828,100.476c0,0-0.967,0.324-0.495,0.869s0.324,0.967-0.023,1.414
					c-0.347,0.447-0.692,2.506-0.641,2.903s0.014,0.923,0.15,1.19c0.41,0.802,1.142,1.065,3.523,0.765
					c2.381-0.3,8.309,0.362,9.128,0.461s6.2-0.379,7.167-0.703c0.967-0.324,1.115-0.745,1.065-1.142
					c-0.05-0.397-0.695-0.718-2.333-0.915c-1.637-0.196-5.012-1.383-5.062-1.78s0.297-0.844-0.324-0.967
					c-0.62-0.123-1.637-0.196-1.687-0.593s-0.869-0.495-1.067-0.47c-0.198,0.025-0.299-0.769-0.695-0.718s-2.855-1.857-3.103-2.229
					c-0.248-0.372,0.484,3.01-2.315,3.215C97.218,101.913,96.436,101.306,95.828,100.476z"/>
			</g>
		</g>
		
			<line style="fill:none;stroke:#1C2A53;stroke-width:4;stroke-miterlimit:10;" x1="105.407" y1="109.061" x2="107.672" y2="97.716"/>
		<g>
			<path style="fill:#EDC59C;" d="M74.885,18.99c0.512-0.456,1.984-0.741,2.439-1.254c0.507-0.57,0.126-1.455-0.606-2.991
				c-0.058-0.121-0.001-0.479-0.241-0.478c-0.239,0.001-1.316,0.123-0.958-0.237s0.954-1.199,0.594-1.558
				c-0.36-0.358-0.48-0.478-0.361-0.598c0.119-0.12,1.434-0.961,0.595-1.318c-0.839-0.357-2.516-0.831-2.756-1.309
				c-0.241-0.478-0.361-0.837-1.441-1.672s-2.759-2.267-3.358-2.385c-0.599-0.118-2.755-0.591-4.427,0.61s-3.46,4.198-3.575,5.994
				c0,0,0.369,3.71,0.969,4.306c0.6,0.597,2.28,2.029,2.281,2.508c0.001,0.479,0.48,0.478,0.481,0.717
				c0.001,0.239-0.358,0.599,0.122,0.838c0.479,0.238,3.596,2.145,3.596,2.145s3.476,2.026,3.716,2.264
				c0.24,0.239,1.789-2.399,1.788-2.877C73.743,21.217,74.336,19.478,74.885,18.99z"/>
			<path style="fill:#0A4550;" d="M68.463,3.501c0.709-0.293,0.902,0.644,0.902,0.644s0.764-0.252,1.023,0.005
				s0.909,1.975,0.444,2.352c-0.381,0.31-1.447-0.44-1.956-0.187c-0.509,0.253-1.141,0.889-0.498,1.276
				c0.643,0.387,1.168,1.668,1.305,2.563s0.153,2.429,0.153,2.429s-0.25,0.51-0.762,0.507c-0.511-0.003-1.666-0.392-2.43-0.141
				c-0.764,0.252-0.883,1.146-0.616,2.17c0.266,1.024,1.189,3.713,0.299,4.092c-0.891,0.379-2.044,0.117-2.044,0.117
				s-0.912-1.666-1.555-2.053c-0.643-0.387-3.856-2.065-2.998-5.512s0.754-1.274,1.111-3.701s4.317-2.789,5.076-3.552
				s1.074,0.232,1.534,0.008C67.773,4.361,68.131,3.638,68.463,3.501z"/>
		</g>
		<path style="fill:#A5C8DA;" d="M107.043,107.622l-7.874,0.021c-0.694,0.002-1.255,0.566-1.253,1.26l0,0
			c0.002,0.694,0.566,1.255,1.26,1.253l7.874-0.021c0.694-0.002,1.255-0.566,1.253-1.26l0,0
			C108.301,108.181,107.737,107.62,107.043,107.622z"/>
		<g>
			<path style="fill:#2F2C48;" d="M86.737,121.626c-2.476-5.479-0.975-11.83-0.083-17.498c0.975-6.195,1.602-12.631-0.934-18.556
				c-1.781-4.162-4.899-7.524-8.468-10.237c-0.391-0.298-0.943,0.248-0.547,0.55c3.238,2.462,6.108,5.437,7.907,9.122
				c1.489,3.049,2.114,6.413,2.15,9.79c0.065,6.206-1.747,12.212-2.08,18.381c-0.163,3.02,0.125,6.052,1.382,8.833
				C86.269,122.466,86.94,122.077,86.737,121.626L86.737,121.626z"/>
		</g>
		<g>
			<path style="fill:#2F2C48;" d="M110.638,110.13c-3.558,3.577-8.679,7.391-13.366,9.956c-3.886,2.126-8.964,4.218-11.084,2.109
				c-3.82-3.8,5.689-18.233,11.936-24.513c7.139-7.177,10.554-4.942,13.977-1.537C115.525,99.55,117.777,102.953,110.638,110.13z
				 M98.857,98.411c-3.493,3.511-7.213,8.562-9.709,13.18c-2.661,4.924-3.495,8.614-2.231,9.871
				c2.74,2.726,15.685-4.719,22.988-12.061c6.505-6.539,4.804-9.204,1.467-12.523S105.362,91.872,98.857,98.411z"/>
		</g>
		<g>
			<g>
				<g>
					<g>
						<path style="fill:#2F2C48;" d="M142.999,66.364c-8.599-0.335-16.587-3.294-23.632-8.175
							c-7.125-4.936-13.128-11.317-19.006-17.633c-0.34-0.365-0.886,0.185-0.547,0.55c9.05,9.726,18.789,19.97,31.808,24.101
							c3.688,1.171,7.516,1.782,11.378,1.932C143.501,67.159,143.497,66.384,142.999,66.364L142.999,66.364z"/>
					</g>
				</g>
			</g>
			<g>
				<g>
					<path style="fill:#2F2C48;" d="M123.411,51.091c-9.359,9.408-9.319,24.622,0.089,33.981s24.622,9.319,33.981-0.089
						s9.319-24.622-0.089-33.981C147.984,41.643,132.77,41.683,123.411,51.091z M155.649,83.161
						c-8.339,8.383-21.944,8.419-30.327,0.08s-8.419-21.944-0.08-30.327s21.944-8.419,30.327-0.08
						C163.953,61.173,163.989,74.778,155.649,83.161z"/>
					<g>
						<g>
							<path style="fill:#2F2C48;" d="M136.161,92.511c-0.145,0.145-0.357,0.218-0.573,0.173c-1.709-0.351-3.382-0.88-4.975-1.574
								c-2.867-1.248-5.455-3.01-7.691-5.234c-9.837-9.785-9.878-25.749-0.093-35.585c2.879-2.894,6.447-5.063,10.319-6.272
								c0.332-0.104,0.685,0.081,0.788,0.413c0.104,0.332-0.081,0.685-0.413,0.788c-3.677,1.148-7.066,3.209-9.801,5.958
								c-9.296,9.345-9.256,24.509,0.089,33.805c2.125,2.114,4.583,3.786,7.306,4.973c1.512,0.659,3.102,1.162,4.725,1.495
								c0.341,0.07,0.56,0.403,0.49,0.743C136.306,92.319,136.245,92.427,136.161,92.511z"/>
						</g>
					</g>
					<g>
						<g>
							<path style="fill:#2F2C48;" d="M154.001,81.521c-7.435,7.474-19.565,7.506-27.039,0.071
								c-7.474-7.435-7.506-19.565-0.071-27.039s19.565-7.506,27.039-0.071C161.404,61.918,161.436,74.047,154.001,81.521z
								 M127.258,54.918c-7.234,7.272-7.203,19.074,0.069,26.308c7.272,7.234,19.074,7.203,26.308-0.069s7.203-19.074-0.069-26.308
								C146.293,47.615,134.492,47.646,127.258,54.918z"/>
						</g>
					</g>
					<g>
						<g>
							<g>
								
									<rect x="131.674" y="52.585" transform="matrix(0.7052 -0.709 0.709 0.7052 -3.3323 111.0036)" style="fill:#2F2C48;" width="0.315" height="13.849"/>
							</g>
							<g>
								
									<rect x="148.632" y="69.455" transform="matrix(0.7052 -0.709 0.709 0.7052 -10.2937 127.999)" style="fill:#2F2C48;" width="0.315" height="13.849"/>
							</g>
						</g>
						<g>
							<g>
								<rect x="140.194" y="49.214" style="fill:#2F2C48;" width="0.258" height="13.694"/>
							</g>
							<g>
								<rect x="140.257" y="72.985" style="fill:#2F2C48;" width="0.258" height="13.694"/>
							</g>
						</g>
						<g>
							<g>
								
									<rect x="141.822" y="59.53" transform="matrix(0.7052 -0.709 0.709 0.7052 1.5271 123.048)" style="fill:#2F2C48;" width="13.849" height="0.315"/>
							</g>
							<g>
								<g>
									<g>
										
											<rect x="125.174" y="76.266" transform="matrix(0.7052 -0.709 0.709 0.7052 -15.2447 116.1781)" style="fill:#2F2C48;" width="13.849" height="0.315"/>
									</g>
								</g>
							</g>
						</g>
						<g>
							<g>
								
									<rect x="145.393" y="67.786" transform="matrix(1 -0.0026 0.0026 1 -0.1777 0.3998)" style="fill:#2F2C48;" width="13.694" height="0.258"/>
							</g>
							<g>
								
									<rect x="121.623" y="67.848" transform="matrix(1 -0.0026 0.0026 1 -0.178 0.3374)" style="fill:#2F2C48;" width="13.694" height="0.258"/>
							</g>
						</g>
					</g>
					<g>
						<g>
							<g>
								
									<rect x="133.391" y="51.376" transform="matrix(0.8178 -0.5755 0.5755 0.8178 -9.1792 87.4523)" style="fill:#2F2C48;" width="0.258" height="13.693"/>
							</g>
							<g>
								
									<rect x="147.059" y="70.823" transform="matrix(0.8178 -0.5755 0.5755 0.8178 -17.8811 98.862)" style="fill:#2F2C48;" width="0.258" height="13.693"/>
							</g>
						</g>
						<g>
							<g>
								<polyline style="fill:#2F2C48;" points="142.666,53.948 143.448,49.471 143.702,49.516 141.348,63.005 141.093,62.961 
									142.666,53.948 								"/>
							</g>
							<g>
								
									<rect x="138.182" y="72.808" transform="matrix(0.985 0.1728 -0.1728 0.985 15.8424 -22.6989)" style="fill:#2F2C48;" width="0.258" height="13.693"/>
							</g>
						</g>
						<g>
							<g>
								
									<rect x="143.231" y="60.983" transform="matrix(0.8181 -0.575 0.575 0.8181 -7.8473 97.4125)" style="fill:#2F2C48;" width="13.693" height="0.258"/>
							</g>
							<g>
								
									<rect x="123.784" y="74.651" transform="matrix(0.8181 -0.575 0.575 0.8181 -19.2435 88.7155)" style="fill:#2F2C48;" width="13.693" height="0.258"/>
							</g>
						</g>
						<g>
							<g>
								
									<rect x="145.216" y="69.86" transform="matrix(0.9851 0.1719 -0.1719 0.9851 14.2972 -25.1013)" style="fill:#2F2C48;" width="13.693" height="0.258"/>
							</g>
							<g>
								
									<rect x="121.8" y="65.774" transform="matrix(0.9851 0.1719 -0.1719 0.9851 13.2459 -21.1363)" style="fill:#2F2C48;" width="13.693" height="0.258"/>
							</g>
						</g>
					</g>
					<path style="fill:#2F2C48;" d="M144.225,71.82c-2.142,2.153-5.636,2.162-7.789,0.02s-2.162-5.636-0.02-7.789
						c2.142-2.153,5.636-2.162,7.789-0.02S146.367,69.666,144.225,71.82z"/>
				</g>
			</g>
			<g>
				<g>
					<g>
						<path style="fill:#2F2C48;" d="M107.885,33.597l-7.079,7.116c-0.279,0.281-0.656,0.359-0.84,0.175
							c-0.185-0.184-0.108-0.561,0.171-0.841l7.079-7.116c0.279-0.281,0.656-0.359,0.84-0.175
							C108.241,32.94,108.165,33.316,107.885,33.597z"/>
					</g>
				</g>
			</g>
			<g>
				<g>
					<path style="fill:#2F2C48;" d="M110.88,33.618c-0.963,0.968-2.535,0.973-3.504,0.009c-0.968-0.963-0.973-2.535-0.009-3.504
						c0.963-0.968,2.535-0.973,3.504-0.009C111.839,31.078,111.843,32.65,110.88,33.618z M108.177,30.93
						c-0.519,0.521-0.516,1.368,0.005,1.887c0.521,0.519,1.368,0.516,1.887-0.005s0.516-1.368-0.005-1.887
						C109.542,30.406,108.696,30.409,108.177,30.93z"/>
				</g>
			</g>
			<g>
				<g>
					<path style="fill:#2F2C48;" d="M109.977,32.72c-0.468,0.471-1.232,0.473-1.702,0.004c-0.471-0.468-0.473-1.232-0.004-1.702
						c0.468-0.471,1.232-0.473,1.702-0.004C110.443,31.485,110.445,32.249,109.977,32.72z"/>
				</g>
			</g>
		</g>
		<g>
			<g>
				<path style="fill:#2F2C48;" d="M83.11,145.842c-0.145,0.145-0.357,0.218-0.573,0.173c-1.709-0.351-3.382-0.88-4.975-1.574
					c-2.867-1.248-5.455-3.01-7.691-5.234c-9.837-9.785-9.878-25.749-0.093-35.585c2.879-2.894,6.447-5.063,10.319-6.272
					c0.332-0.104,0.685,0.081,0.788,0.413c0.104,0.332-0.081,0.685-0.413,0.788c-3.677,1.148-7.066,3.209-9.801,5.958
					c-9.296,9.345-9.256,24.509,0.089,33.805c2.125,2.113,4.583,3.786,7.306,4.973c1.512,0.659,3.102,1.162,4.725,1.495
					c0.341,0.07,0.56,0.403,0.49,0.743C83.254,145.649,83.193,145.758,83.11,145.842z"/>
			</g>
		</g>
		<g>
			<path style="fill:#2F2C48;" d="M106.113,47.429L73.132,80.583c-0.201,0.202-0.514,0.217-0.699,0.033
				c-0.185-0.184-0.172-0.497,0.03-0.699l32.981-33.154c0.201-0.202,0.514-0.217,0.699-0.033S106.314,47.226,106.113,47.429z"/>
		</g>
		<path style="fill:#A5C8DA;" d="M130.114,88.656l-6.213,4.836c-0.548,0.426-0.646,1.216-0.22,1.763l0,0
			c0.426,0.548,1.216,0.646,1.763,0.22l6.213-4.836c0.548-0.426,0.646-1.216,0.22-1.763l0,0
			C131.451,88.328,130.661,88.23,130.114,88.656z"/>
		<path style="fill:#2F2C48;" d="M82.76,67.294c0.201,0.76-0.266,1.589-0.609,2.262c-1.029,2.021-1.521,4.254-1.909,6.472
			c-0.43,2.46-3.135,3.584-5.266,4.377c-1.591,0.592-3.355,0.849-4.994,0.409c-0.465-0.125-0.929-0.313-1.264-0.658
			c-0.5-0.515-0.629-1.308-0.49-2.013s0.511-1.34,0.906-1.94c2.412-3.672,5.875-6.94,9.617-9.237c0.522-0.32,1.148-0.91,1.744-1.049
			c0.677-0.158,1.785,0.44,2.128,1.04C82.685,67.068,82.73,67.18,82.76,67.294z"/>
		<g>
			<path style="fill:#2F2C48;" d="M112.053,98.577c-0.075,0.075-0.173,0.128-0.285,0.146c-0.282,0.044-0.547-0.148-0.591-0.43
				l-7.719-48.923c-0.044-0.282,0.148-0.547,0.43-0.591c0.282-0.044,0.547,0.148,0.591,0.43l7.719,48.923
				C112.224,98.301,112.165,98.464,112.053,98.577z"/>
		</g>
		<g>
			<g>
				<path style="fill:#2F2C48;" d="M70.277,104.505c-9.359,9.408-9.319,24.622,0.089,33.981c9.408,9.359,24.622,9.319,33.981-0.089
					s9.319-24.622-0.089-33.981S79.636,95.096,70.277,104.505z M102.516,136.574c-8.339,8.383-21.944,8.419-30.327,0.08
					s-8.419-21.944-0.08-30.327s21.944-8.419,30.327-0.08S110.855,128.191,102.516,136.574z"/>
				<g>
					<g>
						<path style="fill:#2F2C48;" d="M100.867,134.934c-7.435,7.474-19.565,7.506-27.039,0.071
							c-7.474-7.435-7.506-19.565-0.071-27.039c7.435-7.474,19.565-7.506,27.039-0.071
							C108.27,115.331,108.302,127.46,100.867,134.934z M74.124,108.331c-7.234,7.272-7.203,19.074,0.069,26.308
							s19.074,7.203,26.308-0.069c7.234-7.272,7.203-19.074-0.069-26.308C93.16,101.028,81.358,101.059,74.124,108.331z"/>
					</g>
				</g>
				<g>
					<g>
						<g>
							
								<rect x="78.623" y="105.915" transform="matrix(0.7052 -0.709 0.709 0.7052 -56.7784 89.1116)" style="fill:#2F2C48;" width="0.315" height="13.849"/>
						</g>
						<g>
							
								<rect x="95.581" y="122.785" transform="matrix(0.7052 -0.709 0.709 0.7052 -63.7399 106.107)" style="fill:#2F2C48;" width="0.315" height="13.849"/>
						</g>
					</g>
					<g>
						<g>
							<rect x="87.061" y="102.628" style="fill:#2F2C48;" width="0.258" height="13.694"/>
						</g>
						<g>
							<rect x="87.123" y="126.398" style="fill:#2F2C48;" width="0.258" height="13.694"/>
						</g>
					</g>
					<g>
						<g>
							<g>
								<g>
									
										<rect x="88.77" y="112.861" transform="matrix(0.7052 -0.709 0.709 0.7052 -51.919 101.1561)" style="fill:#2F2C48;" width="13.849" height="0.315"/>
								</g>
							</g>
						</g>
						<g>
							
								<rect x="71.901" y="129.819" transform="matrix(0.7052 -0.709 0.709 0.7052 -68.9145 94.1946)" style="fill:#2F2C48;" width="13.849" height="0.315"/>
						</g>
					</g>
					<g>
						<g>
							
								<rect x="92.259" y="121.199" transform="matrix(1 -0.0026 0.0026 1 -0.3181 0.2606)" style="fill:#2F2C48;" width="13.694" height="0.258"/>
						</g>
						<g>
							
								<rect x="68.489" y="121.262" transform="matrix(1 -0.0026 0.0026 1 -0.3184 0.1982)" style="fill:#2F2C48;" width="13.694" height="0.258"/>
						</g>
					</g>
				</g>
				<g>
					<g>
						<g>
							
								<rect x="80.258" y="104.789" transform="matrix(0.8178 -0.5755 0.5755 0.8178 -49.6011 66.6054)" style="fill:#2F2C48;" width="0.258" height="13.693"/>
						</g>
						<g>
							
								<rect x="93.926" y="124.236" transform="matrix(0.8178 -0.5755 0.5755 0.8178 -58.3029 78.0151)" style="fill:#2F2C48;" width="0.258" height="13.693"/>
						</g>
					</g>
					<g>
						<g>
							
								<rect x="89.135" y="102.805" transform="matrix(0.985 0.1728 -0.1728 0.985 20.2875 -13.7737)" style="fill:#2F2C48;" width="0.258" height="13.693"/>
						</g>
						<g>
							
								<rect x="85.048" y="126.221" transform="matrix(0.985 0.1728 -0.1728 0.985 24.2718 -12.7154)" style="fill:#2F2C48;" width="0.258" height="13.693"/>
						</g>
					</g>
					<g>
						<g>
							
								<rect x="90.098" y="114.396" transform="matrix(0.8181 -0.575 0.575 0.8181 -48.2242 76.5733)" style="fill:#2F2C48;" width="13.693" height="0.258"/>
						</g>
						<g>
							
								<rect x="70.65" y="128.064" transform="matrix(0.8181 -0.575 0.575 0.8181 -59.6204 67.8763)" style="fill:#2F2C48;" width="13.693" height="0.258"/>
						</g>
					</g>
					<g>
						<g>
							
								<rect x="92.082" y="123.274" transform="matrix(0.9851 0.1719 -0.1719 0.9851 22.6892 -15.1709)" style="fill:#2F2C48;" width="13.693" height="0.258"/>
						</g>
						<g>
							
								<rect x="68.666" y="119.187" transform="matrix(0.9851 0.1719 -0.1719 0.9851 21.6379 -11.206)" style="fill:#2F2C48;" width="13.693" height="0.258"/>
						</g>
					</g>
				</g>
				<path style="fill:#2F2C48;" d="M91.276,125.27c-2.142,2.153-5.636,2.162-7.789,0.02c-2.153-2.142-2.162-5.636-0.02-7.789
					c2.142-2.153,5.636-2.162,7.789-0.02C93.409,119.623,93.418,123.117,91.276,125.27z"/>
			</g>
		</g>
		<circle style="fill:#2F2C48;" cx="113.076" cy="96.155" r="7.147"/>
		<line style="fill:none;stroke:#1C2A53;stroke-width:4;stroke-miterlimit:10;" x1="127.53" y1="92.941" x2="116.049" y2="98.983"/>
		<path style="fill:#035D7D;" d="M60.338,72.422c0,0,3.701,9.323,12.177,6.472s21.753-8.541,22.035-8.825
			c0.282-0.284,1.555-0.145,1.555-0.145s-0.072-0.274-0.195-0.735c-0.632-2.368-2.611-9.672-3.086-10.144
			c-0.567-0.564-2.969,0.149-3.676,0.292c-0.707,0.143-3.531,1.565-4.097,1.283c-0.566-0.281-2.119,0.713-2.544,0.289
			c-0.425-0.423-1.271,0.428-2.121-0.136c-0.85-0.563-3.397-1.405-7.351,0.585C69.081,63.35,60.338,72.422,60.338,72.422z"/>
		<path style="fill:#EDC59C;" d="M120.045,83.328c1.394,1.604,3.11,2.786,3.11,2.786s-0.695,4.385-3.378,5.948
			c0,0-0.995-1.836-2.412-3.246c-0.186-0.185-0.438-0.436-0.744-0.738c-2.024-2.011-6.32-6.253-8.045-7.723
			c-1.984-1.692-3.827-3.525-4.54-5.927c-0.713-2.402-1.996-6.216-1.996-6.216s-0.849-0.281-1.98,0.005s-4.098,1.001-4.098,1.001
			l-3.279-10.031c0,0,6.515-1.987,8.762-2.003c0.895-0.007,2.69,0.574,3.397,1.122c1.767,1.371,4.54,5.927,5.11,7.339
			c0.569,1.413,8.525,15.814,9.944,17.507C119.945,83.211,119.994,83.272,120.045,83.328z"/>
		<path style="fill:#FFFFFF;" d="M123.155,86.114c0,0-0.695,4.385-3.378,5.948c0,0-0.995-1.836-2.412-3.246
			c-0.186-0.185-0.438-0.436-0.744-0.738l0-0.003l3.425-4.747C121.44,84.933,123.155,86.114,123.155,86.114z"/>
		<g>
			<path style="fill:#1283C3;" d="M117.79,89.239c0,0-0.563,0.85,0.144,0.989c0.707,0.14,0.85,0.563,0.851,1.129
				s0.996,2.401,1.28,2.683c0.284,0.282,0.579,0.72,0.851,0.846c0.817,0.38,1.556,0.137,3.248-1.564
				c1.692-1.701,6.775-4.825,7.48-5.251c0.706-0.426,4.655-4.113,5.219-4.963s0.421-1.274,0.137-1.556
				c-0.284-0.282-0.99-0.139-2.402,0.713c-1.412,0.852-4.802,1.992-5.086,1.71c-0.284-0.282-0.285-0.848-0.85-0.563
				c-0.565,0.284-1.412,0.852-1.695,0.57c-0.284-0.282-0.989,0.144-1.13,0.286s-0.708-0.422-0.99-0.139
				c-0.282,0.284-3.393,0.292-3.817,0.151c-0.425-0.14,2.233,2.076,0.152,3.959C119.77,89.517,118.781,89.519,117.79,89.239z"/>
		</g>
		<path style="fill:#DFB890;" d="M109.678,26.695c0.146,0.121,0.246,0.291,0.334,0.461c0.302,0.579,0.517,1.202,0.634,1.847
			c0.034,0.19,0.06,0.389,0.019,0.578c-0.01,0.05-0.025,0.101-0.065,0.131c-0.084,0.068-0.21,0.005-0.293-0.063
			c-0.376-0.303-0.676-0.692-1.064-0.979c-0.258-0.192-0.592-0.339-0.903-0.248c-0.279,0.08-0.473,0.336-0.614,0.592
			c-0.282,0.519-0.431,1.101-0.682,1.635c-0.147,0.312-0.335,0.609-0.586,0.849c-0.245,0.231-0.537,0.327-0.827,0.482l-0.012,0.002
			c-0.055,0.01-0.144,0.034-0.263,0.078c-1.751,0.62-10.029,4.698-14.064,6.695c-4.333,2.142-7.44,2.111-8.952,1.889
			c-1.512-0.222-5.527-2.169-7.901-2.827s-4.196-2.329-4.196-2.329c-0.877-0.568,0.217-3.805,1.184-4.732
			c0.969-0.928,2.417-1.238,4.727-1.109c2.311,0.127,4.877,2.379,6.303,3.019c1.428,0.638,8.464-0.347,11.507-0.847
			c3.044-0.502,7.868-1.844,9.167-2.271c1.148-1.216,2.496-2.28,4.073-2.829c0.572-0.202,1.18-0.33,1.782-0.27
			C109.23,26.475,109.485,26.535,109.678,26.695z"/>
		<path style="fill:#E0881E;" d="M57.924,71.575c-0.182-0.217-1.597-15.974-1.042-19.935s0.238-17.251,1.081-19.233
			c0.843-1.982,0.276-2.546,0.84-3.113c0.564-0.567,1.119-4.528,3.8-6.656c0,0,1.271-0.71,1.269-1.276
			c-0.001-0.566-0.145-1.555,1.409-1.983c0,0,0.709,0.705,1.416,0.845c0.707,0.14,6.087,2.671,6.796,3.376
			c0.709,0.705,6.948,7.476,7.374,8.182c0.426,0.706,0.025,9.615,0.025,9.615l0.445,8.059c0,0,0.014,5.373-1.25,8.629
			c0,0,1.134,1.128,0.288,1.979c-0.846,0.851-7.024,2.602-9,4.021c-1.976,1.419-6.244,6.341-6.385,6.483s-1.649,2.23-2.78,2.516
			S58.633,72.422,57.924,71.575z"/>
		<path style="fill:#EDC59C;" d="M109.807,27.809c0.153,0.13,0.256,0.31,0.347,0.49c0.312,0.615,0.531,1.274,0.647,1.957
			c0.034,0.201,0.059,0.411,0.013,0.61c-0.011,0.052-0.028,0.106-0.07,0.138c-0.089,0.071-0.221,0.002-0.309-0.07
			c-0.393-0.324-0.705-0.738-1.111-1.046c-0.27-0.206-0.62-0.365-0.949-0.273c-0.295,0.081-0.503,0.349-0.655,0.617
			c-0.304,0.544-0.467,1.156-0.739,1.717c-0.159,0.328-0.361,0.639-0.628,0.889c-0.262,0.241-0.57,0.338-0.878,0.499l-0.013,0.002
			c-0.058,0.009-0.152,0.034-0.279,0.079c-1.854,0.633-10.636,4.837-14.917,6.896c-4.597,2.208-7.874,2.139-9.466,1.886
			c-1.593-0.252-5.805-2.354-8.302-3.076s-4.399-2.506-4.399-2.506c-0.918-0.609,0.274-4.012,1.305-4.978
			c1.033-0.968,2.565-1.277,5-1.114c2.437,0.161,5.117,2.568,6.614,3.259c1.499,0.69,8.933-0.265,12.149-0.757
			c3.218-0.494,8.323-1.852,9.698-2.287c1.226-1.27,2.661-2.376,4.331-2.937c0.606-0.206,1.249-0.334,1.883-0.263
			C109.337,27.572,109.605,27.639,109.807,27.809z"/>
	</g>
</g>
</svg>
