<?xml version="1.0" encoding="iso-8859-1"?>
<!-- Generator: Adobe Illustrator 17.1.0, SVG Export Plug-In . SVG Version: 6.00 Build 0)  -->
<!DOCTYPE svg PUBLIC "-//W3C//DTD SVG 1.1//EN" "http://www.w3.org/Graphics/SVG/1.1/DTD/svg11.dtd">
<svg version="1.1" id="&#x56FE;&#x5C42;_1" xmlns="http://www.w3.org/2000/svg" xmlns:xlink="http://www.w3.org/1999/xlink" x="0px"
	 y="0px" viewBox="0 0 907.087 788.031" style="enable-background:new 0 0 907.087 788.031;" xml:space="preserve">
<g>
	
		<path id="Path-129_2_" style="fill:none;stroke:#3B7ABE;stroke-width:4;stroke-linecap:round;stroke-linejoin:round;stroke-dasharray:1,10;" d="
		M341.631,717.774"/>
	<linearGradient id="SVGID_1_" gradientUnits="userSpaceOnUse" x1="365.255" y1="232.3098" x2="637.2549" y2="598.3098">
		<stop  offset="0" style="stop-color:#113D86"/>
		<stop  offset="1" style="stop-color:#34A4DD"/>
	</linearGradient>
	<polygon style="fill:url(#SVGID_1_);" points="638.064,193.118 638.064,150.545 560.322,150.545 560.322,193.118 539.961,193.118 
		539.961,141.29 365.968,141.29 365.968,193.118 338.203,193.118 338.203,644.762 660.276,644.762 660.276,193.118 	"/>
	<path style="opacity:0.5;fill:#82CDDF;" d="M639.006,190.698v-3.078h7.615v-29.686c0-8.966-7.294-16.259-16.258-16.259H566.64
		c-8.965,0-16.258,7.294-16.258,16.259v29.686h9.042v3.078h-14.66v-56.957H358.09v56.957h-20.308v459.828h322.166V190.698H639.006z
		 M624.051,150.336h1.732v10.088c0,0.478-0.387,0.867-0.865,0.867s-0.867-0.389-0.867-0.867V150.336z M597.634,150.336h1.734v10.088
		c0,0.478-0.389,0.867-0.867,0.867s-0.867-0.389-0.867-0.867V150.336z M571.356,150.336h1.732v10.088
		c0,0.478-0.387,0.867-0.865,0.867s-0.867-0.389-0.867-0.867V150.336z M566.64,150.336h0.386v10.088
		c0,2.866,2.332,5.197,5.198,5.197c2.866,0,5.196-2.332,5.196-5.197v-10.088h15.885v10.088c0,2.866,2.332,5.197,5.198,5.197
		c2.866,0,5.198-2.332,5.198-5.197v-10.088h16.021v10.088c0,2.866,2.332,5.197,5.198,5.197c2.866,0,5.198-2.332,5.198-5.197v-10.088
		h0.247c4.187,0,7.597,3.408,7.597,7.597v13.225h-78.917v-13.225C559.043,153.744,562.451,150.336,566.64,150.336z M559.043,178.957
		v-3.468h78.917v3.468h-78.536H559.043z M568.087,187.619h62.256v3.078h-62.256V187.619z M366.753,142.403h169.349v48.294h-8.057
		v-41.245H374.724v41.245h-7.971V142.403z M512.62,190.698H390.233v-25.892H512.62V190.698z M381.571,156.144v34.554h-2.516v-36.914
		h144.659v36.914h-2.431v-34.554H381.571z M358.09,199.36h23.481h139.712h23.48h14.66h79.582h12.281v20.792H346.444V199.36H358.09z
		 M651.286,224.483v397.651H346.444V224.483H651.286z M346.444,641.863v-15.398h304.843v15.398H346.444z"/>
	<rect x="411.409" y="114.265" style="opacity:0.5;fill:#82CDDF;" width="105.639" height="19.207"/>
	<g>
		<g>
			<path style="fill:#2A99D6;" d="M561.964,496.379c-1.115-12.534,11.488-27.865,28.777-26.862
				c10.953,0.635,26.327,10.929,25.56,28.498c-0.6,13.726-12.208,26.511-28.424,25.974
				C574.023,523.528,561.169,511.539,561.964,496.379z M586.029,495.688c-0.031,0-0.062,0-0.093,0c0,2.462,0.523,5.088-0.177,7.332
				c-0.498,1.599-2.498,3.479-4.091,3.764c-1.412,0.253-3.828-1.131-4.653-2.489c-1.243-2.047,0.478-3.597,2.421-4.566
				c0.544-0.272,1.249-0.579,1.474-1.06c0.483-1.032,1.237-2.432,0.877-3.224c-0.363-0.797-1.922-1.363-2.995-1.43
				c-1.009-0.063-2.142,0.524-3.091,1.054c-4.034,2.255-5.874,6.844-4.5,10.988c1.599,4.825,6.054,7.343,11.779,6.658
				c4.574-0.547,8.393-4.251,8.609-8.746c0.207-4.302,0.098-8.62,0.06-12.931c-0.025-2.801,1.397-4.74,4.018-4.774
				c1.663-0.022,4.064,0.983,4.866,2.3c1.536,2.522-0.924,3.68-2.704,5.114c-1.103,0.888-1.454,2.709-2.143,4.111
				c1.544,0.306,3.237,1.177,4.606,0.816c4.526-1.193,7.381-5.913,6.596-10.202c-0.894-4.883-5.535-8.498-10.72-8.352
				c-5.234,0.148-9.708,4.051-10.106,8.989C585.882,491.243,586.029,493.471,586.029,495.688z"/>
			<path style="fill:#2A99D6;" d="M574.593,318.518c-0.012-7.75,5.406-13.073,13.29-13.055c6.856,0.015,12.772,5.825,12.83,12.601
				c0.063,7.293-5.748,13.238-12.96,13.258C580.09,331.343,574.605,326.006,574.593,318.518z M587.298,308.69
				c-5.412,0.027-9.482,4.137-9.493,9.586c-0.011,5.305,4.091,9.833,8.936,9.866c6.167,0.042,10.428-3.971,10.488-9.879
				C597.284,312.845,592.945,308.662,587.298,308.69z"/>
			<path style="fill:#2A99D6;" d="M397.765,495.382c-0.011-7.668,5.283-13.025,12.907-13.06c7.225-0.034,13.057,5.601,13.052,12.61
				c-0.005,7.554-5.883,13.559-13.194,13.48C403.437,508.335,397.775,502.556,397.765,495.382z M400.976,495.133
				c-0.055,5.583,3.801,9.598,9.322,9.703c5.862,0.112,10.042-3.929,10.103-9.768c0.055-5.312-4.115-9.45-9.59-9.516
				C405.13,485.483,401.032,489.475,400.976,495.133z"/>
			<path style="fill:#2A99D6;" d="M397.747,318.225c-0.025-7.159,5.4-12.734,12.434-12.779c7.509-0.048,13.497,5.298,13.605,12.145
				c0.121,7.728-5.821,14.029-13.156,13.95C403.348,331.462,397.773,325.7,397.747,318.225z M410.913,308.666
				c-5.776-0.061-9.905,3.888-9.955,9.519c-0.05,5.72,3.811,9.694,9.6,9.88c5.364,0.172,9.778-4.177,9.897-9.751
				C420.568,313.033,416.306,308.723,410.913,308.666z"/>
			<path style="fill:#2A99D6;" d="M469.272,338.488c-0.371,0.566-0.835,1.796-1.228,1.774c-0.962-0.055-2.336-0.426-2.754-1.135
				c-1.551-2.636-2.822-5.44-4.126-8.216c-5.219-11.108-10.412-22.229-15.615-33.345c-0.052-0.111-0.17-0.215-0.171-0.323
				c-0.004-1.761,0.005-3.521,0.011-5.282c1.363,1.128,3.3,1.979,3.999,3.428c6.241,12.938,12.271,25.978,18.337,39
				C468.292,335.604,468.68,336.904,469.272,338.488z"/>
			<path style="fill:#2A99D6;" d="M485.168,271.495c-0.094-1.473-0.468-3.001-0.191-4.4c0.215-1.087,1.242-2.013,1.908-3.011
				c0.715,0.853,1.953,1.646,2.06,2.57c0.664,5.73,1.081,11.49,1.567,17.241c0.197,2.33,0.637,4.685,0.442,6.985
				c-0.131,1.538-1.186,2.998-1.828,4.493c-0.823-1.353-2.21-2.641-2.371-4.068c-0.742-6.58-1.143-13.198-1.666-19.802
				C485.115,271.498,485.142,271.496,485.168,271.495z"/>
			<path style="fill:#2A99D6;" d="M479.001,322.593c-0.542,0.74-1.186,1.618-1.83,2.497c-0.883-0.658-2.305-1.153-2.563-2.001
				c-1.997-6.566-3.842-13.183-5.511-19.839c-0.197-0.788,0.954-1.913,1.48-2.882c0.859,0.525,2.271,0.881,2.492,1.603
				C475.116,308.64,476.957,315.374,479.001,322.593z"/>
			<path style="fill:#2A99D6;" d="M587.227,449.983c-1.003-0.309-1.738-0.449-2.398-0.752c-5.571-2.556-11.192-5.018-16.639-7.817
				c-1.161-0.597-1.677-2.45-2.49-3.725c1.399-0.093,3.014-0.686,4.162-0.193c5.742,2.462,11.402,5.129,16.985,7.934
				c0.947,0.476,1.53,1.925,1.942,3.049C588.896,448.768,587.717,449.53,587.227,449.983z"/>
			<path style="fill:#2A99D6;" d="M412.914,345.506c-1.829,0.271-3.382,1.017-4.12,0.53c-5.925-3.917-11.73-8.019-17.459-12.219
				c-0.579-0.425-0.407-1.874-0.584-2.847c0.965-0.154,2.248-0.787,2.846-0.389c5.819,3.87,11.54,7.89,17.239,11.939
				C411.472,342.972,411.796,343.865,412.914,345.506z"/>
			<path style="fill:#2A99D6;" d="M565.85,471.678c-0.325,0.443-0.638,1.323-1.159,1.471c-0.733,0.209-1.921,0.184-2.396-0.276
				c-3.974-3.848-7.874-7.777-11.654-11.815c-0.411-0.44-0.189-1.911,0.251-2.554c0.293-0.429,1.858-0.621,2.232-0.265
				c4.177,3.973,8.24,8.067,12.307,12.155C565.662,470.625,565.665,471.081,565.85,471.678z"/>
			<path style="fill:#2A99D6;" d="M440.453,449.008c-1.39,1.775-1.841,2.702-2.577,3.232c-3.875,2.788-7.76,5.574-11.795,8.117
				c-0.844,0.532-2.336,0.038-3.529,0.017c0.365-1.13,0.38-2.714,1.155-3.312c3.972-3.062,8.071-5.979,12.302-8.669
				C436.787,447.897,438.377,448.679,440.453,449.008z"/>
			<path style="fill:#2A99D6;" d="M418.922,368.379c-1.649,0.598-2.929,1.564-3.686,1.254c-4.876-1.994-9.684-4.176-14.389-6.544
				c-0.728-0.367-0.817-2.005-1.201-3.055c0.963-0.235,2.119-0.935,2.857-0.628c4.642,1.928,9.214,4.033,13.751,6.202
				C417.051,365.989,417.573,366.945,418.922,368.379z"/>
			<path style="fill:#2A99D6;" d="M434.611,339.977c0.882,0.619,1.751,1.072,2.423,1.728c3.169,3.096,6.391,6.151,9.344,9.444
				c0.786,0.877,0.689,2.546,0.997,3.852c-1.297-0.235-2.988-0.033-3.823-0.783c-3.382-3.039-6.57-6.306-9.665-9.642
				c-0.716-0.771-0.936-2.131-1.052-3.254C432.799,340.977,433.867,340.517,434.611,339.977z"/>
			<path style="fill:#2A99D6;" d="M603.367,437.013c-5.59-1.531-10.806-2.876-15.948-4.464c-0.725-0.224-1.083-1.634-1.612-2.495
				c0.906-0.504,1.954-1.595,2.697-1.416c5.245,1.258,10.446,2.714,15.606,4.288c0.671,0.205,1.56,1.601,1.396,2.173
				C605.286,435.867,604.141,436.372,603.367,437.013z"/>
			<path style="fill:#2A99D6;" d="M537.635,326.097c-0.533-1.039-1.642-2.232-1.382-2.844c2.19-5.158,4.584-10.231,7.062-15.259
				c0.259-0.526,1.574-0.963,2.179-0.765c0.573,0.187,1.374,1.486,1.189,1.912c-2.324,5.353-4.793,10.643-7.284,15.922
				C539.234,325.415,538.603,325.548,537.635,326.097z"/>
			<path style="fill:#2A99D6;" d="M560.453,365.688c-0.448-0.343-1.435-0.725-1.647-1.365c-0.203-0.614,0.156-1.821,0.681-2.206
				c4.358-3.197,8.777-6.315,13.279-9.305c0.584-0.388,2.415-0.11,2.515,0.215c0.287,0.931,0.389,2.595-0.157,2.999
				c-4.434,3.286-9.031,6.352-13.589,9.469C561.353,365.621,561.06,365.587,560.453,365.688z"/>
			<path style="fill:#2A99D6;" d="M363.122,368.023c5.467,1.572,10.556,2.948,15.563,4.576c0.698,0.227,0.996,1.687,1.479,2.577
				c-0.916,0.452-1.965,1.453-2.727,1.268c-5.003-1.212-9.971-2.597-14.879-4.149c-0.756-0.239-1.628-1.669-1.56-2.473
				C361.056,369.148,362.408,368.585,363.122,368.023z"/>
			<path style="fill:#2A99D6;" d="M482.016,480.006c-1.589,5.331-3.017,10.408-4.687,15.403c-0.238,0.711-1.653,1.029-2.523,1.529
				c-0.433-1.028-1.422-2.192-1.208-3.061c1.198-4.885,2.606-9.725,4.154-14.511c0.254-0.784,1.621-1.755,2.367-1.672
				C480.81,477.77,481.357,479.141,482.016,480.006z"/>
			<path style="fill:#2A99D6;" d="M434.213,311.451c0.879,0.78,1.952,1.425,2.604,2.363c2.589,3.726,5.152,7.48,7.471,11.376
				c0.518,0.87,0.003,2.354-0.036,3.556c-1.14-0.389-2.751-0.429-3.34-1.225c-2.917-3.942-5.676-8.017-8.212-12.213
				c-0.52-0.86,0.151-2.441,0.273-3.689C433.385,311.563,433.799,311.507,434.213,311.451z"/>
			<path style="fill:#2A99D6;" d="M531.843,472.326c0.54,0.954,1.136,1.881,1.609,2.867c2.013,4.197,4.102,8.364,5.887,12.657
				c0.38,0.913-0.396,2.307-0.639,3.479c-1.063-0.593-2.626-0.921-3.103-1.823c-2.284-4.326-4.381-8.762-6.276-13.272
				c-0.359-0.854,0.496-2.219,0.791-3.348C530.69,472.699,531.267,472.512,531.843,472.326z"/>
			<path style="fill:#2A99D6;" d="M408.711,451.195c-1,0.467-1.999,0.936-3.001,1.4c-4.228,1.959-8.412,4.028-12.721,5.791
				c-0.969,0.396-2.375-0.276-3.58-0.456c0.55-1.062,0.827-2.641,1.696-3.1c4.332-2.29,8.774-4.394,13.289-6.295
				c0.896-0.377,2.285,0.416,3.447,0.669C408.131,449.868,408.421,450.531,408.711,451.195z"/>
			<path style="fill:#2A99D6;" d="M376.009,398.301c-2.164-0.292-4.373-0.412-6.468-0.964c-0.819-0.215-1.383-1.4-2.063-2.144
				c0.899-0.648,1.812-1.863,2.693-1.841c3.153,0.081,6.328,0.413,9.421,1.021c0.974,0.191,1.719,1.547,2.569,2.369
				c-1.076,0.578-2.098,1.364-3.246,1.668c-0.879,0.232-1.92-0.144-2.888-0.25C376.022,398.208,376.015,398.255,376.009,398.301z"/>
			<path style="fill:#2A99D6;" d="M526.353,500.066c-0.496,0.7-1.134,1.6-1.771,2.499c-0.882-0.686-2.236-1.2-2.56-2.089
				c-1.089-2.993-1.972-6.089-2.568-9.215c-0.164-0.858,0.953-1.96,1.482-2.95c0.877,0.55,2.271,0.917,2.54,1.681
				C524.573,493.11,525.327,496.347,526.353,500.066z"/>
			<path style="fill:#2A99D6;" d="M383.786,461.458c-1.297,1.411-1.808,2.358-2.597,2.754c-2.954,1.482-5.945,2.927-9.042,4.059
				c-0.833,0.304-2.09-0.55-3.152-0.872c0.444-0.911,0.649-2.265,1.373-2.656c3.118-1.681,6.334-3.221,9.641-4.48
				C380.827,459.953,382.12,460.892,383.786,461.458z"/>
			<path style="fill:#2A99D6;" d="M617.663,459.647c3.75,1.93,7.355,3.711,10.856,5.675c0.462,0.259,0.792,1.814,0.495,2.139
				c-0.548,0.599-1.799,1.219-2.421,0.975c-3.411-1.34-6.775-2.834-10.017-4.537c-0.649-0.341-0.96-1.823-0.923-2.76
				C615.671,460.668,616.818,460.24,617.663,459.647z"/>
			<path style="fill:#2A99D6;" d="M606.688,459.341c-3.524-1.65-6.978-3.168-10.304-4.927c-0.519-0.275-0.859-1.848-0.554-2.453
				c0.307-0.608,1.717-1.253,2.31-1.023c3.3,1.28,6.545,2.732,9.693,4.35c0.606,0.312,1.008,1.66,0.917,2.464
				C608.692,458.281,607.582,458.693,606.688,459.341z"/>
			<path style="fill:#2A99D6;" d="M617.956,353.671c-1.016-0.642-2.071-0.964-2.423-1.648c-0.241-0.468,0.288-1.842,0.829-2.121
				c3.371-1.743,6.807-3.379,10.317-4.817c0.588-0.241,2.074,0.46,2.358,1.083c0.275,0.605-0.21,2.138-0.799,2.457
				C624.919,350.424,621.469,351.98,617.956,353.671z"/>
			<path style="fill:#2A99D6;" d="M550.642,476.386c-0.629,0.994-0.884,1.9-1.408,2.1c-0.663,0.253-1.936,0.235-2.27-0.193
				c-2.327-2.985-4.539-6.066-6.62-9.227c-0.297-0.451,0.103-1.688,0.572-2.207c0.339-0.376,1.703-0.483,1.967-0.169
				C545.541,469.853,548.066,473.127,550.642,476.386z"/>
			<path style="fill:#2A99D6;" d="M417.913,464.926c-1.373,1.687-1.854,2.602-2.604,3.14c-2.496,1.79-5.012,3.586-7.694,5.064
				c-0.795,0.438-2.163-0.164-3.269-0.289c0.246-0.976,0.169-2.373,0.795-2.854c2.724-2.092,5.57-4.067,8.564-5.739
				C414.507,463.801,415.99,464.576,417.913,464.926z"/>
			<path style="fill:#2A99D6;" d="M603.116,418.243c-2.053-0.27-4.165-0.333-6.136-0.892c-1.07-0.304-1.901-1.451-2.839-2.218
				c1.157-0.734,2.31-2.073,3.472-2.081c2.652-0.018,5.348,0.45,7.945,1.065c1.048,0.249,1.883,1.399,2.815,2.139
				c-1.134,0.66-2.228,1.412-3.422,1.936c-0.494,0.217-1.202-0.053-1.813-0.102C603.13,418.141,603.123,418.192,603.116,418.243z"/>
			<path style="fill:#2A99D6;" d="M579.86,369.992c-1.269,1.413-1.76,2.353-2.531,2.748c-2.723,1.396-5.484,2.763-8.357,3.789
				c-0.854,0.305-2.12-0.548-3.198-0.87c0.473-1.019,0.674-2.532,1.467-2.968c2.78-1.527,5.708-2.843,8.704-3.88
				C576.811,368.513,578.094,369.42,579.86,369.992z"/>
			<path style="fill:#2A99D6;" d="M458.435,344.527c-0.719,1.172-0.967,2.099-1.471,2.269c-0.669,0.225-1.908,0.15-2.258-0.299
				c-2.247-2.88-4.381-5.855-6.381-8.911c-0.33-0.505-0.023-1.692,0.377-2.316c0.261-0.407,1.615-0.702,1.807-0.476
				C453.227,337.991,455.83,341.287,458.435,344.527z"/>
			<path style="fill:#2A99D6;" d="M429.642,506.836c-0.164-1.635-0.782-3.091-0.305-3.904c1.664-2.836,3.612-5.526,5.676-8.092
				c0.495-0.615,1.972-0.897,2.775-0.639c0.501,0.161,1.092,1.945,0.772,2.445c-1.968,3.077-4.157,6.017-6.349,8.945
				C431.897,506.011,431.165,506.12,429.642,506.836z"/>
			<path style="fill:#2A99D6;" d="M438.49,469.379c-0.49-0.313-1.381-0.568-1.574-1.084c-0.252-0.672-0.259-1.837,0.165-2.295
				c2.398-2.599,4.876-5.141,7.527-7.476c0.543-0.479,2.02-0.203,2.893,0.152c0.334,0.136,0.553,1.811,0.193,2.198
				c-2.566,2.762-5.287,5.379-7.984,8.016C439.47,469.123,439.045,469.165,438.49,469.379z"/>
			<path style="fill:#2A99D6;" d="M562.199,345.27c-0.859,1.663-1.066,2.428-1.546,2.931c-2.198,2.302-4.39,4.625-6.775,6.722
				c-0.618,0.543-1.927,0.299-2.919,0.416c-0.023-1.094-0.517-2.588,0.014-3.211c2.138-2.509,4.466-4.903,7.012-6.989
				C558.697,344.555,560.396,345.173,562.199,345.27z"/>
			<path style="fill:#2A99D6;" d="M599.274,382.939c-1.341-1.319-2.86-2.23-2.74-2.789c0.764-3.554,4.225-2.64,6.607-3.398
				c0.527-0.168,1.586,1.332,2.401,2.064C603.558,380.121,601.575,381.425,599.274,382.939z"/>
			<path style="fill:#2A99D6;" d="M410.121,385.214c-2.083-0.553-3.705-0.75-5.082-1.438c-0.803-0.401-1.215-1.587-1.803-2.419
				c0.948-0.573,1.902-1.621,2.843-1.61c1.527,0.017,3.146,0.531,4.532,1.223c0.805,0.401,1.861,1.758,1.681,2.331
				C412.023,384.155,410.762,384.698,410.121,385.214z"/>
			<path style="fill:#2A99D6;" d="M604.86,358.733c-1.372,1.144-2.223,2.306-3.338,2.678c-1.733,0.577-3.643,0.647-5.489,0.785
				c-0.083,0.006-0.593-1.993-0.366-2.124c2.156-1.241,4.386-2.394,6.707-3.273C602.799,356.637,603.735,357.824,604.86,358.733z"/>
			<path style="fill:#2A99D6;" d="M574.286,456.36c2.474,2.258,4.385,3.884,6.066,5.721c0.165,0.18-1.077,1.649-1.666,2.52
				c-2.061-1.563-4.184-3.057-6.091-4.789C572.389,459.623,573.434,458.057,574.286,456.36z"/>
			<path style="fill:#2A99D6;" d="M422.328,430.376c-1.317-1.393-2.116-2.238-2.915-3.083c2.185-1.111,4.313-2.38,6.602-3.2
				c0.469-0.168,1.541,1.349,2.335,2.089C426.498,427.472,424.646,428.762,422.328,430.376z"/>
			<path style="fill:#2A99D6;" d="M511.865,288.729c-0.3,1.584-0.255,2.419-0.612,3.01c-0.765,1.267-1.738,2.408-2.626,3.6
				c-0.533-1.475-1.137-2.931-1.561-4.437c-0.153-0.542-0.05-1.316,0.246-1.79c0.644-1.032,1.488-1.939,2.25-2.897
				C510.453,287.187,511.344,288.16,511.865,288.729z"/>
			<path style="fill:#2A99D6;" d="M463.104,490.328c-1.835,2.355-3.4,4.364-4.965,6.372c-0.636-0.867-1.749-1.698-1.818-2.608
				c-0.195-2.574,2.591-6.601,4.109-6.189C461.27,488.131,461.888,489.18,463.104,490.328z"/>
			<path style="fill:#2A99D6;" d="M594.877,395.458c1.043,0.908,1.964,1.71,2.885,2.512c-0.864,0.809-1.724,1.621-2.599,2.418
				c-0.068,0.062-0.237,0.026-0.357,0.015c-1.849-0.175-3.707-0.294-5.53-0.618c-0.199-0.035-0.434-1.751-0.234-1.85
				C590.81,397.052,592.672,396.359,594.877,395.458z"/>
			<path style="fill:#2A99D6;" d="M627.476,392.738c1.274,0.954,2.315,1.733,3.356,2.512c-0.95,0.777-1.828,2.074-2.866,2.219
				c-1.916,0.266-3.932-0.096-5.888-0.344c-0.205-0.026-0.516-1.465-0.387-1.536C623.429,394.636,625.236,393.811,627.476,392.738z"
				/>
			<path style="fill:#2A99D6;" d="M509.295,484.845c-1.292,1.791-2.122,2.941-2.951,4.09c-0.813-1.18-2.036-2.262-2.345-3.562
				c-0.474-1.997-1.535-4.9,1.603-5.378C506.501,479.858,507.887,482.917,509.295,484.845z"/>
			<path style="fill:#2A99D6;" d="M424.618,351.941c1.926,1.586,3.921,3.125,5.753,4.838c0.305,0.285,0.131,1.518-0.241,1.967
				c-0.369,0.446-1.472,0.829-1.896,0.594c-1.909-1.058-3.77-2.247-5.467-3.613c-0.46-0.37-0.554-1.611-0.327-2.289
				C422.618,352.909,423.553,352.633,424.618,351.941z"/>
			<path style="fill:#2A99D6;" d="M572.691,389.941c-1.202-0.851-2.106-1.491-3.009-2.13c0.627-0.799,1.25-1.602,1.887-2.393
				c0.065-0.081,0.219-0.113,0.336-0.128c1.973-0.249,3.945-0.554,5.926-0.634c0.181-0.007,0.778,1.976,0.578,2.106
				C576.658,387.9,574.77,388.827,572.691,389.941z"/>
			<path style="fill:#2A99D6;" d="M634.861,367.434c1.19,1.313,1.906,2.103,2.623,2.894c-2.165,1.119-4.274,2.388-6.543,3.226
				c-0.428,0.158-1.491-1.403-2.26-2.17C630.619,370.145,632.557,368.906,634.861,367.434z"/>
			<path style="fill:#2A99D6;" d="M576.662,300.645c-2.163,2.182-3.922,3.987-5.793,5.669c-0.047,0.042-2.01-1.77-1.921-1.896
				c1.551-2.188,3.284-4.247,4.978-6.335C574.617,298.731,575.309,299.378,576.662,300.645z"/>
			<path style="fill:#2A99D6;" d="M464.742,535.759c0.335,0.644,1.064,1.383,0.936,1.917c-0.575,2.395-1.349,4.747-2.187,7.066
				c-0.089,0.246-1.532,0.314-1.558,0.226c-0.422-1.391-1.186-2.918-0.919-4.219c0.345-1.683,1.535-3.193,2.361-4.777
				C463.83,535.901,464.286,535.83,464.742,535.759z"/>
			<path style="fill:#2A99D6;" d="M557.059,289.226c-1.797,2.325-3.289,4.253-4.78,6.182c-0.692-0.79-2.13-1.954-1.952-2.308
				c1.079-2.152,2.526-4.118,3.85-6.147C554.94,287.555,555.703,288.157,557.059,289.226z"/>
			<path style="fill:#2A99D6;" d="M494.511,331.109c-0.365,0.495-1.189,1.611-2.013,2.728c-0.748-1.182-1.52-2.351-2.227-3.557
				c-0.171-0.292-0.277-0.764-0.164-1.058c0.574-1.495,1.23-2.959,1.857-4.433c0.775,1.282,1.592,2.542,2.298,3.861
				C494.474,329.044,494.376,329.603,494.511,331.109z"/>
			<path style="fill:#2A99D6;" d="M495.698,483.171c-1.492,2.165-3.17,5.643-3.883,5.455c-3.083-0.812-1.84-3.736-1.439-5.877
				c0.204-1.094,1.342-2.013,2.057-3.011C493.345,480.697,494.256,481.655,495.698,483.171z"/>
			<path style="fill:#2A99D6;" d="M374.013,443.439c-1.218-1.433-1.918-2.256-2.618-3.08c2.177-1.057,4.302-2.26,6.57-3.057
				c0.5-0.176,1.506,1.088,2.279,1.69C378.292,440.386,376.338,441.78,374.013,443.439z"/>
			<path style="fill:#2A99D6;" d="M531.718,274.218c1.265-1.902,2.53-3.804,3.795-5.707c0.742,0.81,2.268,1.919,2.093,2.379
				c-0.854,2.237-2.05,4.381-3.44,6.334c-0.195,0.274-2.133-0.694-3.265-1.088C531.173,275.496,531.446,274.857,531.718,274.218z"/>
			<path style="fill:#2A99D6;" d="M376.058,420.339c-1.132-0.954-2.124-1.79-3.116-2.626c0.934-0.77,1.829-2.125,2.809-2.189
				c2.029-0.133,4.109,0.389,6.146,0.761c0.143,0.026,0.3,1.437,0.123,1.522C380.233,418.666,378.378,419.383,376.058,420.339z"/>
			<path style="fill:#2A99D6;" d="M390.02,439.296c-1.199-1.477-1.852-2.281-2.506-3.086c2.025-1.082,3.979-2.366,6.121-3.114
				c0.597-0.208,1.748,1.171,2.644,1.822C394.34,436.275,392.399,437.632,390.02,439.296z"/>
			<path style="fill:#2A99D6;" d="M514.064,546.579c-0.965,1.123-1.829,2.128-2.693,3.133c-0.74-1.005-2.007-1.962-2.105-3.025
				c-0.177-1.94,0.297-3.95,0.639-5.907c0.029-0.168,1.532-0.366,1.615-0.194C512.391,542.385,513.11,544.257,514.064,546.579z"/>
			<path style="fill:#2A99D6;" d="M531.343,538.941c1.513-1.233,2.319-1.889,3.125-2.546c1.098,2.163,2.331,4.274,3.174,6.532
				c0.162,0.433-1.212,1.439-1.878,2.18C534.394,543.197,533.025,541.287,531.343,538.941z"/>
			<path style="fill:#2A99D6;" d="M610.049,331.857c-0.529-1.084-1.415-2.135-1.178-2.555c0.832-1.484,1.85-3.018,3.185-4.014
				c1.005-0.75,2.597-0.754,3.949-0.912c0.101-0.012,0.772,1.835,0.494,2.102C614.764,328.134,612.834,329.587,610.049,331.857z"/>
			<path style="fill:#2A99D6;" d="M425.649,390.209c-2.328-1.485-4.286-2.735-6.244-3.984c0.845-0.719,1.979-2.212,2.486-2.023
				c2.243,0.836,4.307,2.155,6.435,3.299C427.581,388.254,426.837,389.008,425.649,390.209z"/>
			<path style="fill:#2A99D6;" d="M392.822,418.851c-1.135-0.981-2.121-1.834-3.107-2.687c0.941-0.706,1.88-1.415,2.829-2.111
				c0.085-0.062,0.239-0.055,0.357-0.045c1.727,0.139,3.467,0.208,5.164,0.515c0.233,0.042,0.516,1.77,0.329,1.867
				C396.753,417.252,395.01,417.922,392.822,418.851z"/>
			<path style="fill:#2A99D6;" d="M511.399,512.619c-1.177,1.567-1.97,2.624-2.764,3.681c-0.769-1.03-1.541-2.057-2.3-3.094
				c-0.062-0.085-0.024-0.24-0.048-0.359c-0.427-2.136-1.343-4.76,1.468-5.475C508.436,507.198,510.018,510.563,511.399,512.619z"/>
			<path style="fill:#2A99D6;" d="M424.021,518.338c-2.253,2.334-4.041,4.186-5.828,6.038c-0.647-0.706-1.968-1.851-1.837-2.052
				c1.345-2.068,2.877-4.026,4.534-5.855C421.015,516.33,422.487,517.409,424.021,518.338z"/>
			<path style="fill:#2A99D6;" d="M555.437,330.432c-1.171-1.831-2.328-3.018-2.106-3.397c1.228-2.1,2.793-4.004,4.242-5.975
				c0.721,0.618,2.159,1.575,2.052,1.803C558.544,325.158,557.209,327.334,555.437,330.432z"/>
			<path style="fill:#2A99D6;" d="M446.654,518.1c0.459,0.817,1.511,1.935,1.276,2.398c-1.101,2.163-2.557,4.144-3.886,6.19
				c-0.622-0.764-1.916-1.751-1.749-2.253c0.745-2.24,1.907-4.341,2.918-6.492C445.693,517.996,446.173,518.048,446.654,518.1z"/>
			<path style="fill:#2A99D6;" d="M401.044,401.276c-2.337-1.273-4.138-2.253-5.938-3.234c1.181-0.751,2.44-2.213,3.527-2.094
				c1.82,0.199,3.53,1.405,5.286,2.187C403.059,399.074,402.199,400.014,401.044,401.276z"/>
			<path style="fill:#2A99D6;" d="M493.607,506.155c-1.371,1.71-2.518,3.139-3.664,4.568c-0.613-1.185-1.842-2.449-1.702-3.536
				c0.247-1.916-0.557-4.954,2.644-5.092C491.612,502.064,492.437,504.337,493.607,506.155z"/>
			<path style="fill:#2A99D6;" d="M574.522,334.672c-2.565,2.068-4.442,3.649-6.45,5.042c-0.13,0.09-1.887-1.828-1.845-1.874
				c1.634-1.816,3.334-3.591,5.208-5.151C571.646,332.513,572.932,333.628,574.522,334.672z"/>
			<path style="fill:#2A99D6;" d="M479.94,336.957c-0.957-1.216-1.933-1.915-1.894-2.552c0.043-0.702,1.018-1.347,1.587-2.016
				c0.651,0.577,1.712,1.08,1.835,1.753C481.585,334.785,480.725,335.605,479.94,336.957z"/>
			<path style="fill:#2A99D6;" d="M426.495,336.97c-0.872-1.306-1.789-2.079-1.699-2.707c0.098-0.683,1.123-1.692,1.76-1.705
				c0.591-0.011,1.615,1.06,1.688,1.737C428.313,334.934,427.391,335.68,426.495,336.97z"/>
			<path style="fill:#2A99D6;" d="M508.323,332.159c-1.232,0.779-2.045,1.695-2.668,1.581c-0.7-0.129-1.763-1.255-1.693-1.828
				c0.086-0.696,1.154-1.704,1.863-1.761C506.45,330.1,507.166,331.172,508.323,332.159z"/>
			<path style="fill:#2A99D6;" d="M458.71,468.402c-1.25,0.755-2.058,1.629-2.653,1.502c-0.685-0.146-1.703-1.246-1.628-1.805
				c0.092-0.685,1.129-1.662,1.825-1.721C456.853,466.327,457.547,467.387,458.71,468.402z"/>
			<path style="fill:#2A99D6;" d="M437.618,366.448c-0.889-1.369-1.842-2.207-1.704-2.784c0.164-0.686,1.207-1.425,1.986-1.59
				c0.389-0.083,1.472,1.071,1.459,1.647C439.342,364.434,438.514,365.129,437.618,366.448z"/>
			<path style="fill:#2A99D6;" d="M622.335,374.691c-1.314,0.897-2.126,1.869-2.719,1.75c-0.717-0.144-1.248-1.212-1.859-1.881
				c0.663-0.572,1.286-1.528,2-1.601C620.384,372.895,621.112,373.819,622.335,374.691z"/>
			<path style="fill:#2A99D6;" d="M506.714,318.439c0.749,1.237,1.611,2.037,1.479,2.603c-0.158,0.673-1.203,1.618-1.805,1.577
				c-0.649-0.044-1.689-1.075-1.711-1.706C504.655,320.284,505.683,319.619,506.714,318.439z"/>
			<path style="fill:#2A99D6;" d="M424.496,402.816c-1.007-1.258-2.028-1.979-1.976-2.614c0.059-0.723,1.073-1.368,1.673-2.047
				c0.635,0.613,1.653,1.151,1.791,1.861C426.107,400.65,425.259,401.472,424.496,402.816z"/>
			<path style="fill:#2A99D6;" d="M531.615,283.336c0.746,1.507,1.55,2.382,1.397,3.034c-0.153,0.656-1.258,1.09-1.945,1.622
				c-0.475-0.629-1.372-1.296-1.319-1.877C529.817,285.369,530.648,284.693,531.615,283.336z"/>
			<path style="fill:#2A99D6;" d="M443.015,489.137c-0.732-1.397-1.472-2.184-1.422-2.92c0.037-0.555,1.235-1.565,1.647-1.446
				c0.739,0.214,1.74,1.107,1.767,1.752C445.035,487.185,444.026,487.889,443.015,489.137z"/>
			<path style="fill:#2A99D6;" d="M453.165,507.634c-0.858-1.385-1.649-2.112-1.646-2.835c0.002-0.569,1.094-1.672,1.503-1.587
				c0.741,0.155,1.766,0.953,1.864,1.605C454.982,505.454,454.07,506.243,453.165,507.634z"/>
			<path style="fill:#2A99D6;" d="M531.31,524.725c0.905,1.258,1.876,2.023,1.824,2.708c-0.049,0.64-1.111,1.448-1.878,1.679
				c-0.356,0.107-1.539-0.999-1.515-1.517C529.776,526.805,530.534,526.049,531.31,524.725z"/>
			<path style="fill:#2A99D6;" d="M427.093,299.953c-1.379,0.837-2.174,1.705-2.776,1.587c-0.729-0.142-1.295-1.119-1.931-1.734
				c0.669-0.574,1.292-1.517,2.021-1.608C425.022,298.12,425.761,299.031,427.093,299.953z"/>
			<path style="fill:#2A99D6;" d="M469.268,288.546c0.381,0.874,1.124,1.788,1.034,2.611c-0.079,0.719-1.018,1.732-1.722,1.87
				c-0.555,0.108-1.791-0.848-1.885-1.461c-0.104-0.671,0.756-1.49,1.197-2.245C468.35,289.063,468.809,288.805,469.268,288.546z"/>
			<path style="fill:#2A99D6;" d="M521.16,479.491c-1.529,0.79-2.404,1.622-3.031,1.465c-0.694-0.174-1.161-1.253-1.726-1.937
				c0.634-0.484,1.293-1.382,1.896-1.346C519.046,477.717,519.745,478.537,521.16,479.491z"/>
			<path style="fill:#2A99D6;" d="M574.366,425.839c-1.34,0.988-2.077,1.95-2.715,1.889c-0.688-0.067-1.523-0.999-1.807-1.741
				c-0.125-0.327,0.926-1.554,1.487-1.585C572.082,424.36,572.875,425.082,574.366,425.839z"/>
			<path style="fill:#2A99D6;" d="M431.141,435.938c0.777,1.342,1.538,2.104,1.557,2.885c0.013,0.517-1.191,1.59-1.582,1.478
				c-0.766-0.219-1.829-1.061-1.871-1.704C429.202,437.918,430.204,437.171,431.141,435.938z"/>
			<path style="fill:#2A99D6;" d="M620.118,436.47c0.654,1.349,1.353,2.15,1.299,2.898c-0.038,0.526-1.259,1.483-1.67,1.353
				c-0.76-0.239-1.83-1.147-1.816-1.753C617.947,438.292,619.027,437.641,620.118,436.47z"/>
			<path style="fill:#2A99D6;" d="M426.98,413.624c-1.299,0.771-2.106,1.635-2.731,1.519c-0.715-0.132-1.268-1.137-1.891-1.762
				c0.679-0.61,1.315-1.624,2.052-1.704C425.021,411.61,425.753,412.641,426.98,413.624z"/>
			<path style="fill:#2A99D6;" d="M389.578,374.497c0.718,1.392,1.564,2.287,1.406,2.935c-0.161,0.658-1.264,1.306-2.058,1.479
				c-0.316,0.069-1.36-1.221-1.274-1.766C387.773,376.373,388.635,375.717,389.578,374.497z"/>
			<path style="fill:#2A99D6;" d="M430.977,377.668c-0.902-1.409-1.831-2.229-1.71-2.84c0.132-0.663,1.186-1.424,1.947-1.568
				c0.405-0.077,1.469,1.064,1.462,1.646C432.668,375.622,431.854,376.329,430.977,377.668z"/>
			<path style="fill:#2A99D6;" d="M530.791,336.075c0.909,1.273,1.734,1.952,1.822,2.715c0.059,0.518-1.049,1.709-1.404,1.625
				c-0.81-0.192-1.891-0.873-2.076-1.564C528.98,338.275,529.948,337.401,530.791,336.075z"/>
			<path style="fill:#2A99D6;" d="M521.038,334.497c-1.385,0.742-2.217,1.56-2.858,1.432c-0.711-0.143-1.248-1.151-1.861-1.782
				c0.684-0.567,1.35-1.551,2.057-1.58C519.045,332.539,519.756,333.511,521.038,334.497z"/>
			<path style="fill:#2A99D6;" d="M541.949,347.996c-0.871-1.325-1.805-2.14-1.674-2.711c0.143-0.624,1.235-1.313,1.985-1.408
				c0.453-0.057,1.505,1.003,1.46,1.486C543.655,346.08,542.857,346.73,541.949,347.996z"/>
			<path style="fill:#2A99D6;" d="M594.957,341.651c-1.262,0.88-1.948,1.713-2.667,1.743c-0.55,0.023-1.664-1.047-1.599-1.496
				c0.113-0.773,0.86-1.898,1.505-2.022C592.804,339.759,593.625,340.74,594.957,341.651z"/>
			<path style="fill:#2A99D6;" d="M525.545,318.234c-1.365,0.955-2.134,1.906-2.755,1.818c-0.7-0.1-1.267-1.135-1.892-1.764
				c0.56-0.546,1.104-1.51,1.686-1.534C523.323,316.725,524.092,317.458,525.545,318.234z"/>
			<path style="fill:#2A99D6;" d="M566.955,313.455c-1.363,0.929-2.147,1.87-2.737,1.761c-0.713-0.132-1.49-1.07-1.77-1.832
				c-0.113-0.308,1.004-1.502,1.585-1.519C564.76,311.843,565.511,312.617,566.955,313.455z"/>
			<path style="fill:#2A99D6;" d="M560.601,452.536c-0.936-1.424-1.858-2.218-1.742-2.809c0.138-0.701,1.09-1.443,1.852-1.72
				c0.292-0.106,1.448,1.007,1.465,1.586C562.195,450.314,561.444,451.056,560.601,452.536z"/>
			<path style="fill:#2A99D6;" d="M423.612,442.969c-1.14,0.853-1.804,1.69-2.578,1.808c-0.516,0.079-1.747-0.978-1.677-1.333
				c0.158-0.806,0.844-1.997,1.462-2.094C421.503,441.243,422.35,442.182,423.612,442.969z"/>
			<path style="fill:#2A99D6;" d="M399.478,478.406c-1.174,0.945-1.897,1.962-2.485,1.888c-0.677-0.084-1.527-1.051-1.73-1.792
				c-0.116-0.423,0.901-1.63,1.421-1.638C397.418,476.854,398.163,477.627,399.478,478.406z"/>
			<path style="fill:#2A99D6;" d="M585.056,411.372c0.833,1.479,1.694,2.324,1.571,2.985c-0.12,0.645-1.192,1.36-1.958,1.525
				c-0.349,0.075-1.386-1.119-1.358-1.701C583.347,413.444,584.15,412.745,585.056,411.372z"/>
			<path style="fill:#2A99D6;" d="M553.895,522.268c1.042,1.119,2.043,1.724,2.11,2.419c0.05,0.518-1.039,1.475-1.75,1.626
				c-0.504,0.107-1.703-0.775-1.735-1.27C552.475,524.325,553.204,523.559,553.895,522.268z"/>
			<path style="fill:#2A99D6;" d="M508.501,528.32c-0.276-0.813-0.879-1.689-0.737-2.421c0.15-0.773,1.01-1.409,1.56-2.104
				c0.639,0.603,1.552,1.11,1.811,1.847c0.145,0.412-0.794,1.205-1.245,1.827C509.427,527.752,508.964,528.036,508.501,528.32z"/>
			<path style="fill:#2A99D6;" d="M408.831,412.924c0,1.145,0,2.289,0,3.434c-0.768-0.022-2.177,0.062-2.201-0.084
				c-0.185-1.119-0.102-2.283-0.102-3.432C407.296,412.869,408.063,412.897,408.831,412.924z"/>
			<path style="fill:#2A99D6;" d="M426.768,476.623c0.748,1.357,1.49,2.115,1.464,2.847c-0.019,0.554-1.197,1.615-1.542,1.5
				c-0.757-0.252-1.756-1.063-1.824-1.73C424.802,478.61,425.804,477.872,426.768,476.623z"/>
			<path style="fill:#2A99D6;" d="M623.495,420.202c-0.898-1.214-1.838-1.931-1.813-2.612c0.024-0.635,1.056-1.688,1.679-1.713
				c0.596-0.025,1.666,0.988,1.738,1.634C625.173,418.175,624.294,418.946,623.495,420.202z"/>
			<path style="fill:#2A99D6;" d="M499.469,340.903c-36.937,0.182-66.1,28.853-66.191,65.628
				c-0.76,35.434,28.419,66.291,65.674,66.276c36.663-0.015,64.808-28.5,66.109-63.305
				C566.549,369.709,534.237,340.732,499.469,340.903z M523.996,376.966c1.759,1.216,3.593,2.339,5.259,3.671
				c-1.665-1.332-3.499-2.453-5.257-3.669L523.996,376.966z M528.095,425.352c-0.978-0.679-1.751-0.969-2.473-0.873
				C526.344,424.382,527.117,424.673,528.095,425.352c3.358,2.331,4.647,3.176,3.911,5.056
				C532.742,428.527,531.452,427.682,528.095,425.352z M532.001,430.423c-0.066,0.165-0.154,0.343-0.25,0.525
				C531.847,430.765,531.935,430.588,532.001,430.423z M531.714,431.025c-0.098,0.18-0.219,0.375-0.346,0.576
				C531.496,431.4,531.616,431.205,531.714,431.025z M531.306,431.705c-0.135,0.208-0.292,0.434-0.457,0.667
				C531.013,432.138,531.171,431.913,531.306,431.705z M531.718,384.816c-0.127-0.132-0.257-0.261-0.383-0.393
				C531.461,384.555,531.592,384.684,531.718,384.816c1.588,1.662,1.205,3.048-0.794,4.096c-0.19,0.1-0.382,0.201-0.571,0.305
				c0.19-0.104,0.381-0.205,0.571-0.305C532.923,387.864,533.305,386.478,531.718,384.816z M529.245,389.89
				c-0.176,0.123-0.347,0.252-0.511,0.389c-0.101,0.085-0.2,0.161-0.3,0.237c0.099-0.076,0.198-0.152,0.3-0.237
				C528.898,390.141,529.069,390.012,529.245,389.89z M522.839,389.699c-0.948-0.985-1.964-1.886-3.029-2.713
				C520.876,387.813,521.891,388.714,522.839,389.699c1.171,1.216,2.195,1.832,3.257,1.809
				C525.034,391.531,524.01,390.915,522.839,389.699z M473.14,412.494c2.073,12.158,11.861,21.548,23.896,22.759
				c9.598,0.966,18.202-1.133,25.068-7.912c-6.867,6.779-15.47,8.878-25.068,7.912C485.002,434.042,475.214,424.652,473.14,412.494
				c-0.618-3.625-0.548-7.148,0.14-10.454C472.593,405.346,472.522,408.869,473.14,412.494z M473.837,399.846
				c0.1-0.331,0.206-0.659,0.319-0.985C474.043,399.187,473.937,399.515,473.837,399.846z M476.328,394.183
				c0.469-0.788,0.977-1.554,1.531-2.29C477.305,392.63,476.797,393.396,476.328,394.183z M478.619,390.937
				c0.422-0.508,0.862-1.004,1.326-1.483c0.75-0.775,1.554-1.511,2.411-2.204c1.028-0.832,2.136-1.598,3.312-2.299
				c-1.175,0.701-2.283,1.467-3.312,2.299c-0.856,0.693-1.661,1.429-2.411,2.204C479.481,389.933,479.04,390.429,478.619,390.937z
				 M486.88,384.263c0.402-0.215,0.809-0.425,1.226-0.624l0,0C487.689,383.839,487.282,384.048,486.88,384.263z M502.953,380.763
				c0.046,0.003,0.091,0.006,0.136,0.009C503.043,380.769,502.998,380.766,502.953,380.763z M505.087,380.961
				c0.182,0.023,0.364,0.048,0.546,0.074C505.451,381.009,505.269,380.984,505.087,380.961z M507.408,381.343
				c0.161,0.033,0.322,0.067,0.482,0.103C507.73,381.41,507.569,381.375,507.408,381.343z M509.587,381.869
				c0.218,0.061,0.436,0.125,0.653,0.191C510.023,381.994,509.805,381.93,509.587,381.869z M513.785,383.384
				c0.705,0.315,1.398,0.656,2.078,1.025C515.183,384.04,514.49,383.698,513.785,383.384z M516.745,384.908
				c0.418,0.246,0.83,0.502,1.236,0.769C517.575,385.41,517.163,385.154,516.745,384.908z M526.128,391.505
				c0.303-0.01,0.61-0.076,0.925-0.19C526.739,391.429,526.431,391.495,526.128,391.505z M532.329,432.296
				c-0.119,0.162-0.248,0.317-0.384,0.466C532.081,432.613,532.21,432.458,532.329,432.296z M531.508,433.198
				c0.113-0.104,0.219-0.213,0.324-0.323C531.727,432.985,531.621,433.094,531.508,433.198z M532.395,432.212
				c0.765-1.014,1.492-1.463,2.269-1.511C533.887,430.749,533.16,431.198,532.395,432.212z M532.331,383.783
				c-0.84-0.882-1.686-1.916-2.562-2.714C530.645,381.868,531.49,382.901,532.331,383.783c0.242,0.254,0.483,0.496,0.725,0.715
				C532.814,384.279,532.572,384.037,532.331,383.783z M524.023,376.994c0.019,0.019,0.039,0.039,0.058,0.058
				c-5.899-1.94-11.67-4.669-17.725-5.655c-20.556-3.348-40.083,10.419-43.414,30.398c-4.337,26.011,16.921,45.711,41.647,43.198
				c8.931-0.908,16.7-4.352,23.868-9.485c0.636-0.813,1.192-1.523,1.667-2.15c-0.475,0.627-1.031,1.337-1.667,2.15l0,0
				c-0.005,0.006-0.009,0.011-0.014,0.018l0,0v0l0,0l0,0c0,0,0.067-0.051,0.107-0.082l0.012-0.009
				c0.01-0.008,0.019-0.014,0.019-0.014l0,0l0.001-0.001v0c-5.813,6.748-13.687,9.439-22.072,10.699
				c-17.556,2.638-33.247-4.872-41.441-20.637c-12.547-24.141,2.219-51.005,27.922-55.014c8.714-1.36,17.213-0.659,25.321,2.945
				C520.345,374.316,522.132,375.773,524.023,376.994z M530.775,432.478c-0.192,0.268-0.405,0.555-0.636,0.861
				C530.37,433.033,530.583,432.746,530.775,432.478z M531.399,433.293c-0.121,0.108-0.244,0.215-0.371,0.319
				C531.156,433.508,531.278,433.401,531.399,433.293z M530.975,433.653c-0.77,0.618-1.632,1.167-2.41,1.779
				C529.343,434.82,530.205,434.27,530.975,433.653z M473.92,453.582c-0.367-0.186-0.731-0.377-1.092-0.573
				C473.19,453.204,473.553,453.396,473.92,453.582z M527.694,452.498c-1.673,0.892-3.378,1.69-5.114,2.396
				C524.316,454.188,526.021,453.39,527.694,452.498z M520.621,455.649c-1.151,0.418-2.314,0.799-3.49,1.141
				C518.307,456.448,519.47,456.067,520.621,455.649z M542.294,434.975c0.563,0.489,0.993,0.956,1.291,1.417
				C543.287,435.931,542.857,435.465,542.294,434.975z M539.95,433.252c0.231,0.152,0.452,0.3,0.664,0.446
				C540.402,433.552,540.18,433.404,539.95,433.252z M535.253,385.634c-0.621-0.013-1.23-0.336-1.835-0.824
				C534.024,385.299,534.632,385.622,535.253,385.634c0.678,0.014,1.356-0.193,2.037-0.52
				C536.61,385.442,535.931,385.648,535.253,385.634z M535.132,368.212c-6.845-5.325-14.224-8.691-22.027-10.319
				c-0.879-0.184-1.765-0.342-2.655-0.482c0.89,0.14,1.776,0.298,2.655,0.482C520.908,359.521,528.286,362.887,535.132,368.212z
				 M490.528,357.638c3.653-0.593,7.246-0.904,10.771-0.914C497.774,356.735,494.181,357.046,490.528,357.638
				c-5.679,0.922-10.93,2.659-15.677,5.054c-0.742,0.375-1.468,0.77-2.186,1.176c0.717-0.406,1.444-0.801,2.186-1.176
				C479.598,360.297,484.849,358.56,490.528,357.638z M463.263,446.135c-3.484-3.252-6.575-7.125-9.229-11.631
				c-7.876-13.37-9.08-28.09-5.111-41.084c0.294-0.962,0.616-1.916,0.967-2.858c0.276-0.743,0.575-1.477,0.885-2.206
				c-0.31,0.729-0.608,1.463-0.885,2.206c-0.35,0.942-0.673,1.895-0.967,2.858c-3.969,12.994-2.765,27.713,5.111,41.084
				C456.688,439.01,459.779,442.882,463.263,446.135c0.774,0.723,1.568,1.415,2.38,2.077
				C464.831,447.55,464.037,446.858,463.263,446.135z M468.547,450.385c-0.25-0.173-0.499-0.348-0.747-0.526
				C468.048,450.037,468.297,450.212,468.547,450.385z M542.544,381.691c-1.457,0.784-2.889,2.02-4.307,2.899
				C539.656,383.711,541.087,382.476,542.544,381.691c2.019-1.087,2.632-2.398,1.503-4.058
				C545.176,379.293,544.564,380.604,542.544,381.691z"/>
			<path style="fill:#FFFFFF;" d="M586.029,495.688c0-2.217-0.147-4.446,0.03-6.648c0.397-4.938,4.872-8.841,10.106-8.989
				c5.185-0.146,9.826,3.469,10.72,8.352c0.786,4.289-2.069,9.009-6.596,10.202c-1.368,0.361-3.061-0.51-4.606-0.816
				c0.689-1.402,1.04-3.223,2.143-4.111c1.78-1.434,4.24-2.592,2.704-5.114c-0.802-1.317-3.203-2.322-4.866-2.3
				c-2.62,0.035-4.042,1.973-4.018,4.774c0.038,4.311,0.147,8.629-0.06,12.931c-0.216,4.495-4.035,8.199-8.609,8.746
				c-5.725,0.685-10.18-1.833-11.779-6.658c-1.373-4.144,0.467-8.733,4.5-10.988c0.95-0.531,2.082-1.118,3.091-1.054
				c1.073,0.067,2.633,0.634,2.995,1.43c0.361,0.792-0.394,2.192-0.877,3.224c-0.225,0.481-0.93,0.789-1.474,1.06
				c-1.943,0.969-3.665,2.519-2.421,4.566c0.825,1.358,3.241,2.742,4.653,2.489c1.593-0.285,3.593-2.165,4.091-3.764
				c0.699-2.245,0.177-4.87,0.177-7.332C585.967,495.688,585.998,495.688,586.029,495.688z"/>
			<path style="fill:#113D86;" d="M400.976,495.133c0.056-5.658,4.154-9.65,9.834-9.581c5.475,0.067,9.645,4.205,9.59,9.516
				c-0.06,5.839-4.24,9.88-10.103,9.768C404.777,504.731,400.921,500.716,400.976,495.133z"/>
			<path style="fill:#113D86;" d="M410.913,308.666c5.392,0.057,9.655,4.367,9.542,9.648c-0.119,5.574-4.533,9.924-9.897,9.751
				c-5.789-0.186-9.651-4.16-9.6-9.88C401.008,312.554,405.137,308.605,410.913,308.666z"/>
			<path style="fill:#113D86;" d="M587.776,308.666c5.392,0.057,9.655,4.367,9.542,9.648c-0.119,5.574-4.533,9.924-9.897,9.751
				c-5.789-0.186-9.651-4.16-9.6-9.88C577.871,312.554,582,308.605,587.776,308.666z"/>
			<path style="fill:#2A99D6;" d="M524.146,377.074c-5.922-1.941-11.713-4.688-17.79-5.678
				c-20.556-3.348-40.083,10.419-43.414,30.398c-4.337,26.011,16.922,45.711,41.647,43.198c8.983-0.913,16.791-4.39,23.993-9.572
				c-5.813,6.748-13.687,9.44-22.072,10.699c-17.556,2.638-33.247-4.872-41.44-20.638c-12.547-24.141,2.219-51.005,27.922-55.014
				c8.714-1.359,17.213-0.659,25.321,2.945C520.389,374.336,522.208,375.838,524.146,377.074z"/>
		</g>
	</g>
	
		<path id="Path-129_1_" style="fill:none;stroke:#3B7ABE;stroke-width:4;stroke-linecap:round;stroke-linejoin:round;stroke-dasharray:1,10;" d="
		M120.554,592.34c-62.112,115.407-49.541,179.322,37.713,191.744c87.255,12.423,235.507-51.706,444.758-192.386"/>
	
		<path id="Path-128_1_" style="fill:none;stroke:#3B7ABE;stroke-width:4;stroke-linecap:round;stroke-linejoin:round;stroke-dasharray:1,10;" d="
		M89.767,499.715C-6.922,569.509-22.096,630.008,44.245,681.212c99.512,76.805,985.116-215.929,843.867-337.352
		c-20.04-17.227-66.899-11.424-140.575,17.408"/>
	<g id="Group-41_1_" transform="translate(397.000000, 339.000000)">
		<polygon id="Path-127_1_" style="fill:#2960A4;" points="-263.516,316.164 -174.277,289.669 -246.427,285.704 		"/>
		<polygon id="Path-126_1_" style="fill:#2A99D6;" points="-250.705,280.384 -263.583,316.263 -243.496,297.029 -150.826,286.145 
			-150.949,276.672 		"/>
		<polygon id="Path-125_1_" style="fill:#9DD6E3;" points="-264.139,241.192 -250.449,280.614 -153.641,281.299 -243.501,297.018 
			-226.58,342.428 -125.49,277.683 		"/>
	</g>
	<g>
		<path style="fill:#FFFFFF;" d="M503.45,416.568h-12.711v-3.317h12.711c2.1,0,2.671-0.77,2.78-1.417
			c0.081-0.479,0.217-1.282-1.813-1.79l-10.174-2.635c-1.199-0.3-2.169-0.772-2.885-1.403c-1.176-1.037-1.671-2.514-1.393-4.158
			c0.442-2.618,2.705-4.181,6.051-4.181h12.642v3.317h-12.642c-2.1,0-2.671,0.77-2.78,1.417c-0.081,0.48-0.217,1.282,1.812,1.79
			l10.174,2.635c1.199,0.3,2.169,0.772,2.885,1.403c1.176,1.037,1.671,2.514,1.393,4.158
			C509.059,415.005,506.797,416.568,503.45,416.568z"/>
		<polygon style="fill:#FFFFFF;" points="532.093,397.638 512.038,397.638 512.038,400.878 520.323,400.878 520.323,416.547 
			523.807,416.547 523.807,400.878 532.093,400.878 		"/>
		<path style="fill:#FFFFFF;" d="M462.729,416.547l-4.301-6.957c2.19-0.943,3.732-3.105,3.768-5.632
			c0.05-3.476-2.844-6.321-6.32-6.321h-11.561c-0.732,0-1.325,0.593-1.325,1.325v17.585h3.353v-15.669h9.562
			c1.644,0,3.034,1.289,3.079,2.933c0.047,1.705-1.322,3.103-3.017,3.103h-6.101v3.241h4.847l3.952,6.393H462.729z"/>
		<path style="fill:#FFFFFF;" d="M553.842,397.638h-17.109c-0.761,0-1.378,0.617-1.378,1.377v16.154
			c0,0.761,0.617,1.377,1.377,1.377h17.109v-3.241h-15.134v-12.428h15.134V397.638z M551.165,408.713v-3.241h-8.932v3.241H551.165z"
			/>
		<path style="fill:#FFFFFF;" d="M484.272,416.547h3.759l-8.356-18.442c-0.133-0.277-0.414-0.467-0.749-0.467h-4.528
			c-0.335,0-0.616,0.19-0.749,0.467l-8.356,18.442h3.759l2.287-5.049h10.644L484.272,416.547z M472.809,408.258l3.7-8.166h0.309
			l3.7,8.166H472.809z"/>
	</g>
	<g>
		<path style="fill:#123671;" d="M251.996,531.665c0,0,12.1-3.168,17.593-1.981c5.806,1.254,7.806,2.488,9.397,6.245
			c2.877,6.79-4.553,8.726-7.85,8.975c-3.822,0.288-8.373-0.457-13.477,1.119c-7.244,2.236-12.802,4.076-16.122,6.286
			c-3.882,2.583-7.626,4.315-11.201,5.949c-3.575,1.634-9.102,2.097-9.556-2.483c-0.342-3.449,1.977-6.531,5.302-9.073
			c2.505-1.915,6.922-4.357,6.922-4.357l-1.074-3.313c0,0-11.941,5.643-16.979,13.353c-3.205,4.905-2.522,10.303-0.12,13.295
			c2.822,3.516,8.701,4.432,13.636,2.955c4.174-1.249,6.143-2.046,8.654-3.33c0,0,4.295,9.81,9.048,15.733
			c5.816,7.248,6.618,15.295,5.529,18.24c-1.494,4.041-6.506,7.588-12.481,9.188c-5.445,1.457-11.464,1.582-11.639,0.544
			c-0.257-1.526-2.005-1.728-2.599-0.34c-0.594,1.388-1.524,5.69-0.643,6.58c0,0,3.533-0.93,3.487-3.258
			c0,0,7.498,2.915,15.826,1.043c7.723-1.736,14.847-5.134,18.757-9.997c2.883-3.586,3.807-8.065,3.807-8.065
			s8.771,1.447,15.309,5.511c6.539,4.064,12.002,9.932,13.549,11.883c1.546,1.951,0.437,2.689,1.592,4.279
			c0.813,1.119,7.218-3.851,7.218-3.851s-2.107-2.212-5.459-0.12c0,0-4.787-11.382-11.458-16.681
			c-6.671-5.3-6.927-4.109-8.983-6.079c-2.056-1.97,0.085-9.243-0.768-17.532c-0.853-8.288-1.026-13.939-2.5-18.559
			c0,0,11.366-1.245,14.08-9.396c2.614-7.849-2.512-13.89-6.216-16.39c-4.858-3.279-14.253-4.09-21.759-2.516
			c-4.479,0.939-8.857,2.362-9.628,2.903L251.996,531.665z"/>
		<path style="fill:#FEF5F8;" d="M247.085,538.381c0,0,3.485-0.857,5.063,1.846c1.577,2.702,2.583,3.882,2.62,5.264
			c0.037,1.382,0.147,3.392-1.3,3.748c-3.485,0.857-5.738,1.453-7.402-0.344c-0.98-1.058-2.196-1.435-2.399-2.404
			c-0.203-0.968-0.352-1.379-0.555-2.348c-0.203-0.969-0.195-2.739,1.168-2.267C245.642,542.349,244.473,539.182,247.085,538.381z"
			/>
		<path style="fill:#302D48;" d="M249.157,536.81c0,0-2.731-1.576-4.797,0.626c-2.066,2.202-3.583,3.405-3.062,4.686
			s1.356,4.96,2.668,5.191c1.312,0.231,2.022,0.903,1.723,0.081s-2.023-3.62-0.894-4.868s0.678-2.796,2.952-3.399
			S249.678,538.091,249.157,536.81z"/>
		<path style="fill:#C52069;" d="M250.03,550.022c0,0,1.485,5.881-0.797,8.255s-4.354,3.946-6.367,3.988
			c0,0,0.472,6.473-0.944,8.159c0,0,5.637,0.967,9.445-4.381c3.808-5.348,2.256-15.764,1.952-17.217L250.03,550.022z"/>
		<g>
			<path style="fill:#232134;" d="M248.566,541.219c0,0-1.286-0.272-1.824,1.784C246.742,543.003,247.529,541.723,248.566,541.219z"
				/>
			<path style="fill:#232134;" d="M249.353,542.038c0,0-1.004-0.566-1.829,1.302C247.524,543.34,248.599,543.349,249.353,542.038z"
				/>
			
				<ellipse transform="matrix(0.9339 -0.3574 0.3574 0.9339 -177.3555 124.6623)" style="opacity:0.7;fill:#FFFDFE;" cx="248.561" cy="542.117" rx="0.217" ry="0.359"/>
			<defs>
				<filter id="Adobe_OpacityMaskFilter" filterUnits="userSpaceOnUse" x="248.658" y="541.959" width="0.234" height="0.253">
					<feColorMatrix  type="matrix" values="1 0 0 0 0  0 1 0 0 0  0 0 1 0 0  0 0 0 1 0"/>
				</filter>
			</defs>
			<mask maskUnits="userSpaceOnUse" x="248.658" y="541.959" width="0.234" height="0.253" id="SVGID_2_">
				<g style="filter:url(#Adobe_OpacityMaskFilter);">
					
						<ellipse transform="matrix(0.9339 -0.3574 0.3574 0.9339 -177.3555 124.6623)" style="fill:#FFFDFE;" cx="248.561" cy="542.117" rx="0.217" ry="0.359"/>
				</g>
			</mask>
			
				<ellipse transform="matrix(0.9339 -0.3574 0.3574 0.9339 -177.33 124.7364)" style="mask:url(#SVGID_2_);fill:#FFFDFE;" cx="248.775" cy="542.085" rx="0.115" ry="0.128"/>
			<circle style="opacity:0.9;fill:#FFFDFE;" cx="248.482" cy="543.075" r="0.165"/>
		</g>
		<g>
			<path style="fill:#232134;" d="M250.08,540.184c0,0-0.272-1.286,1.784-1.823C251.865,538.36,250.585,539.147,250.08,540.184z"/>
			<path style="fill:#232134;" d="M250.899,540.971c0,0-0.566-1.004,1.302-1.829C252.201,539.143,252.211,540.218,250.899,540.971z"
				/>
			
				<ellipse transform="matrix(-0.3578 0.9338 -0.9338 -0.3578 845.1957 499.0716)" style="opacity:0.7;fill:#FFFDFE;" cx="250.978" cy="540.18" rx="0.217" ry="0.359"/>
			<defs>
				<filter id="Adobe_OpacityMaskFilter_1_" filterUnits="userSpaceOnUse" x="250.82" y="540.276" width="0.253" height="0.234">
					<feColorMatrix  type="matrix" values="1 0 0 0 0  0 1 0 0 0  0 0 1 0 0  0 0 0 1 0"/>
				</filter>
			</defs>
			<mask maskUnits="userSpaceOnUse" x="250.82" y="540.276" width="0.253" height="0.234" id="SVGID_3_">
				<g style="filter:url(#Adobe_OpacityMaskFilter_1_);">
					
						<ellipse transform="matrix(-0.3578 0.9338 -0.9338 -0.3578 845.1957 499.0716)" style="fill:#FFFDFE;" cx="250.978" cy="540.18" rx="0.217" ry="0.359"/>
				</g>
			</mask>
			
				<ellipse transform="matrix(-0.3578 0.9338 -0.9338 -0.3578 845.3516 499.3908)" style="mask:url(#SVGID_3_);fill:#FFFDFE;" cx="250.946" cy="540.393" rx="0.115" ry="0.128"/>
		</g>
	</g>
	<g>
		<linearGradient id="SVGID_4_" gradientUnits="userSpaceOnUse" x1="540.0464" y1="50.1583" x2="607.1148" y2="50.1583">
			<stop  offset="0" style="stop-color:#F1F8F2;stop-opacity:0.4727"/>
			<stop  offset="1" style="stop-color:#DEEFE1;stop-opacity:0"/>
		</linearGradient>
		<path style="fill:url(#SVGID_4_);" d="M573.581,23.307c-18.52,0-33.534,10.886-33.534,24.315c0,9.018,6.771,14.658,16.829,18.855
			c0.148,0.062,0.299,0.12,0.448,0.18l-0.028,0.003c-0.203,7.508-3.45,10.349-3.45,10.349c8.929,0,12.663-4.219,14.27-7.628
			c1.779,0.211,3.604,0.322,5.464,0.322c18.52,0,33.534-8.654,33.534-22.083C607.115,34.193,592.101,23.307,573.581,23.307z"/>
		<path style="fill:#D3E6F0;" d="M604.691,19.073c0,0,0.799,2.435,0,2.841s8.255,5.073,10.917,3.856s3.407-3.022,1.864-3.247
			c-2.2-0.32-7.662-6.063-6.065-9.513C613.006,9.56,604.691,19.073,604.691,19.073z"/>
		<path style="fill:#FFFDFE;" d="M607.521,4.056c0,0-3.639-0.171-5.092,3.113c-1.089,2.46-0.996,3.942-0.59,5.151
			c0.406,1.209,0.406,3.023,0.406,4.636s2.232,3.625,5.276,3.424c3.044-0.202,5.276-3.827,5.276-6.044s0.406-6.249,0-7.256
			C612.391,6.072,607.521,4.056,607.521,4.056z"/>
		<path style="fill:#302D48;" d="M601.027,20.9c0,0-6.494,0.812-8.523,6.697c0,0,10.958,5.276,12.176,12.176l-18.872,29.831
			l-2.232,7.305h4.059c0,0-1.725,9.233-0.812,18.467c0.466,4.714,1.421,15.829,6.494,20.09c5.073,4.262,19.075,5.682,27.598,3.45
			c0,0,2.029-1.623,3.45,1.015c1.421,2.638,2.435,2.435,3.044,1.826c0.609-0.609,1.218-2.638-2.029-7.305
			c-3.247-4.667-3.247-0.203-3.247-0.203s-6.088,3.247-15.017-0.812c-8.929-4.059-8.727-8.615-9.031-16.625
			c-0.304-8.016,2.943-13.814,3.349-11.988s-0.203,18.872,0.812,22.728c1.015,3.856,3.653,26.99,4.87,30.237
			c0,0-5.479,0.812-5.682,3.044c-0.203,2.232,9.23,1.711,10.349,1.421c2.74-0.71,1.218-2.841,0-3.653s-1.826-18.061-0.812-28.613
			s4.059-25.772,4.059-31.657l7.103-0.203c0,0,1.421-24.352,1.015-36.527c-0.406-12.176-0.609-14.842-3.856-18.292
			S608.535,18.667,601.027,20.9z"/>
		<g>
			<path style="fill:#232134;" d="M603.492,8.76c0,0,1.409-1.631,4.153,0.52C607.645,9.28,605.347,8.389,603.492,8.76z"/>
			<path style="fill:#232134;" d="M603.276,10.611c0,0,0.75-1.736,3.682-0.115C606.958,10.496,605.563,11.576,603.276,10.611z"/>
			
				<ellipse transform="matrix(-0.9599 0.2803 -0.2803 -0.9599 1187.3345 -149.945)" style="opacity:0.7;fill:#FFFDFE;" cx="604.389" cy="9.929" rx="0.356" ry="0.589"/>
			<defs>
				<filter id="Adobe_OpacityMaskFilter_2_" filterUnits="userSpaceOnUse" x="603.888" y="9.89" width="0.382" height="0.418">
					<feColorMatrix  type="matrix" values="1 0 0 0 0  0 1 0 0 0  0 0 1 0 0  0 0 0 1 0"/>
				</filter>
			</defs>
			<mask maskUnits="userSpaceOnUse" x="603.888" y="9.89" width="0.382" height="0.418" id="SVGID_5_">
				<g style="filter:url(#Adobe_OpacityMaskFilter_2_);">
					
						<ellipse transform="matrix(-0.9599 0.2803 -0.2803 -0.9599 1187.3345 -149.945)" style="fill:#FFFDFE;" cx="604.389" cy="9.929" rx="0.356" ry="0.589"/>
				</g>
			</mask>
			
				<ellipse transform="matrix(-0.9599 0.2803 -0.2803 -0.9599 1186.7744 -149.5246)" style="mask:url(#SVGID_5_);fill:#FFFDFE;" cx="604.079" cy="10.099" rx="0.189" ry="0.21"/>
			<circle style="opacity:0.9;fill:#FFFDFE;" cx="605.444" cy="11.101" r="0.271"/>
		</g>
		<path style="fill:#232134;" d="M604.238,4.056c0,0,1.253,1.826,5.312,3.044s2.323,3.913,3.946,3.913
			c1.623,0,1.939-4.243-1.611-6.957C607.115,0.41,604.238,4.056,604.238,4.056z"/>
		<path style="fill:#FFFDFE;" d="M582.154,66.356c0,0-2.232-0.406-4.261,0.812c-1.522,0.913-1.924,2.084-1.015,2.841
			c1.218,1.015,3.247,2.232,4.261,1.218s2.841-1.623,3.247-2.029C584.792,68.791,582.154,66.356,582.154,66.356z"/>
		<path style="fill:#302D48;" d="M608.332,32.061c0,0-19.075,30.237-26.99,33.686l2.638,4.464c0,0,17.858-9.944,21.714-17.655
			s10.146-13.393,9.538-16.234C614.623,33.481,608.332,32.061,608.332,32.061z"/>
		<circle style="fill:#E3B134;" cx="561.658" cy="47.567" r="4.464"/>
		<circle style="fill:#E3B134;" cx="573.631" cy="47.567" r="4.464"/>
		<circle style="fill:#E3B134;" cx="585.604" cy="47.567" r="4.464"/>
		<path style="fill:#FFFDFE;" d="M602.15,10.408c-0.145-0.278-1.589,1.767-1.315,2.714c0.155,0.535,1.501,0.527,1.501,0.527
			C602.503,13.025,602.3,11.894,602.15,10.408z"/>
		<path style="fill:#E2A9CB;" d="M602.232,15.413c0,0,1.239,0.591,2.007,0.379c0,0-0.951,0.551-1.997,0.254L602.232,15.413z"/>
	</g>
</g>
</svg>
