<?xml version="1.0" encoding="iso-8859-1"?>
<!-- Generator: Adobe Illustrator 17.1.0, SVG Export Plug-In . SVG Version: 6.00 Build 0)  -->
<!DOCTYPE svg PUBLIC "-//W3C//DTD SVG 1.1//EN" "http://www.w3.org/Graphics/SVG/1.1/DTD/svg11.dtd">
<svg version="1.1" id="&#x56FE;&#x5C42;_1" xmlns="http://www.w3.org/2000/svg" xmlns:xlink="http://www.w3.org/1999/xlink" x="0px"
	 y="0px" viewBox="0 0 366.545 226.909" style="enable-background:new 0 0 366.545 226.909;" xml:space="preserve">
<g id="Group-69_2_" transform="translate(555.973282, 390.661856)">
	<path id="Path-83_5_" style="fill:#013C46;" d="M-446.67-164.029h108.998c-14.282-27.749-32.448-41.762-54.499-42.041
		C-414.222-206.349-432.388-192.336-446.67-164.029z"/>
	<path id="Combined-Shape_14_" style="fill:#113D86;" d="M-389.153-281.455c-8.013,24.162-12.233,57.36-12.66,99.595
		c21.353,4.633,24.317,4.394,40.102,4.936C-359.587-220.671-365.734-257.684-389.153-281.455z"/>
	<g id="Group-67_5_" transform="translate(0.000000, 12.974489)">
		<linearGradient id="Path-31_1_" gradientUnits="userSpaceOnUse" x1="-554.9929" y1="-269.6633" x2="-361.7109" y2="-269.6633">
			<stop  offset="0" style="stop-color:#113D86"/>
			<stop  offset="1" style="stop-color:#34A4DD"/>
		</linearGradient>
		<path id="Path-31_5_" style="fill:url(#Path-31_1_);" d="M-361.711-189.898c-35.536-93.026-82.681-145.328-141.434-156.905
			c-16.2-3.192-33.37-5.706-51.509-7.543c-5.658,52.334,61.63,39.196,53.688,53.545c-10.965,19.811-15.171,27.998,38.019,50.923
			c67.23,28.976,12.251,9.471,2.872,19.635c-24.705,26.773,27.933,47.825,54.449,45.009L-361.711-189.898z"/>
		<path id="Path-33_5_" style="fill:none;stroke:#0E6371;stroke-width:0.8797;" d="M-444.546-256.89
			c19.793-4.177,36.076,1.483,48.852,16.979"/>
		<path id="Path-33-Copy-3_5_" style="fill:none;stroke:#0E6371;stroke-width:0.8797;" d="M-419.058-223.889
			c15.258,0.051,28.002,6.155,38.232,18.31"/>
		<path id="Path-33-Copy-2_5_" style="fill:none;stroke:#82CDDF;stroke-width:0.8797;" d="M-493.398-288.03
			c20.434-12.868,43.798-12.086,70.091,2.345"/>
		<path id="Path-33-Copy_5_" style="fill:none;stroke:#82CDDF;stroke-width:0.8797;" d="M-518.885-314.488
			c22.911-11.515,47.691-10.305,74.339,3.628"/>
		<path id="Path-34_5_" style="fill:none;stroke:#82CDDF;stroke-width:0.8797;" d="M-544.373-347.479
			c82.951,2.879,138.175,54.756,165.67,155.632"/>
	</g>
	
		<linearGradient id="Path-83-Copy_1_" gradientUnits="userSpaceOnUse" x1="-382.9507" y1="-187.4719" x2="-273.9532" y2="-187.4719">
		<stop  offset="0" style="stop-color:#113D86"/>
		<stop  offset="1" style="stop-color:#34A4DD"/>
	</linearGradient>
	<path id="Path-83-Copy_5_" style="fill:url(#Path-83-Copy_1_);" d="M-382.951-164.029h108.998
		c-21.32-30.976-43.005-46.603-65.056-46.882C-361.059-211.19-375.706-195.563-382.951-164.029z"/>
</g>
</svg>
