<?xml version="1.0" encoding="iso-8859-1"?>
<!-- Generator: Adobe Illustrator 17.1.0, SVG Export Plug-In . SVG Version: 6.00 Build 0)  -->
<!DOCTYPE svg PUBLIC "-//W3C//DTD SVG 1.1//EN" "http://www.w3.org/Graphics/SVG/1.1/DTD/svg11.dtd">
<svg version="1.1" id="&#x56FE;&#x5C42;_1" xmlns="http://www.w3.org/2000/svg" xmlns:xlink="http://www.w3.org/1999/xlink" x="0px"
	 y="0px" viewBox="0 0 212.364 226.909" style="enable-background:new 0 0 212.364 226.909;" xml:space="preserve">
<g id="Group-69_2_" transform="translate(555.973282, 390.661856)">
	<g id="Group-68_5_" transform="translate(44.604488, 0.000000)">
		
			<linearGradient id="Combined-Shape_1_" gradientUnits="userSpaceOnUse" x1="-600.5996" y1="-281.6715" x2="-388.8504" y2="-281.6715">
			<stop  offset="0" style="stop-color:#1F9FDA"/>
			<stop  offset="1" style="stop-color:#9DD6E3"/>
		</linearGradient>
		<path id="Combined-Shape_15_" style="fill:url(#Combined-Shape_1_);" d="M-600.6-181.86c81.897,17.77,122.845,5.45,122.845-36.96
			c0-63.615,110.361-41.697,67.88-81.542c-36.254-34.004-3.851-40.527,5.29-47.916c9.047-7.312,24.245-24.611,9.713-34.045
			c-22.097-14.344-57.923-9.559-82.883,40.974c-6.843,13.855-19.558-47.186-28.129-32.761
			c-12.807,21.553-12.475,84.62-28.368,87.916c-10.816,2.243-19.455-42.173-29.736-34.004
			C-587.653-301.392-599.857-255.28-600.6-181.86z M-559.633-287.808c5.4,21.893,3.771,31.934-4.888,30.124
			C-573.179-259.493-571.55-269.535-559.633-287.808z"/>
		<path id="Path-86_5_" style="fill:none;stroke:#0E6371;stroke-width:0.926;" d="M-554.125-225.482
			c27.754-13.499,48.286-17.998,61.595-13.499"/>
		<path id="Path-86-Copy_5_" style="fill:none;stroke:#0E6371;stroke-width:0.926;" d="M-524.39-266.679
			c27.754-13.499,48.286-17.998,61.595-13.499"/>
		<path id="Path-86-Copy-2_5_" style="fill:none;stroke:#0E6371;stroke-width:0.926;" d="M-494.654-303.298
			c27.754-13.499,48.286-17.998,61.595-13.499"/>
		<path id="Path-87-Copy_5_" style="fill:none;stroke:#0E6371;stroke-width:0.926;" d="M-552.241-281.865
			c4.357,28.263,2.313,48.66-6.133,61.193"/>
		<path id="Path-85_5_" style="fill:none;stroke:#0E6371;stroke-width:0.926;" d="M-574.411-194.751
			c62.735-102.841,122.425-160.315,179.069-172.424"/>
		<path id="Path-87_5_" style="fill:none;stroke:#0E6371;stroke-width:0.926;" d="M-503.389-348.237
			c4.357,28.263,2.313,48.66-6.133,61.194"/>
	</g>
</g>
</svg>
