<?xml version="1.0" encoding="iso-8859-1"?>
<!-- Generator: Adobe Illustrator 17.1.0, SVG Export Plug-In . SVG Version: 6.00 Build 0)  -->
<!DOCTYPE svg PUBLIC "-//W3C//DTD SVG 1.1//EN" "http://www.w3.org/Graphics/SVG/1.1/DTD/svg11.dtd">
<svg version="1.1" id="&#x56FE;&#x5C42;_1" xmlns="http://www.w3.org/2000/svg" xmlns:xlink="http://www.w3.org/1999/xlink" x="0px"
	 y="0px" viewBox="0 0 183.562 165.176" style="enable-background:new 0 0 183.562 165.176;" xml:space="preserve">
<g>
	<g>
		<g>
			<g>
				<path style="opacity:0.5;fill:#1283C3;" d="M97.216,6.14c-0.681-0.08-1.365-0.148-2.055-0.199
					c-25.531-1.87-47.745,17.31-49.615,42.842c-0.056,0.771-0.093,1.538-0.111,2.302c2.1-1.152,4.545-1.734,7.112-1.546
					c4.492,0.329,8.27,2.931,10.304,6.594c-1.012-4.059-1.416-8.339-1.094-12.733C63.192,23.804,78.412,8.453,97.216,6.14z"/>
			</g>
			<g>
				<path style="opacity:0.5;fill:#1283C3;" d="M116.757,27.696c-2.721-8.151-7.927-15.023-14.891-19.8
					C95.981,11.653,91.2,16.941,88,23.348c-5.953,11.92-5.215,25.458,0.769,36.332c2.357-4.246,7.022-6.974,12.184-6.596
					c5.305,0.389,9.615,3.946,11.23,8.682c0.9-1.353,1.731-2.763,2.468-4.241C119.314,48.189,120.062,37.596,116.757,27.696z"/>
			</g>
			<g style="opacity:0.5;">
				<path style="fill:#1283C3;" d="M86.698,22.698c3.131-6.269,7.727-11.497,13.36-15.341c-19.336,1.037-35.398,16.341-36.849,36.15
					c-0.358,4.89,0.213,9.636,1.549,14.073c2.412-4.057,6.966-6.636,11.993-6.267c3.325,0.244,6.254,1.737,8.38,3.979
					C81.211,45.047,81.423,33.26,86.698,22.698z"/>
			</g>
			<g>
				<path style="opacity:0.5;fill:#1283C3;" d="M103.603,7.347c6.765,4.921,11.833,11.795,14.535,19.889
					c3.365,10.078,2.67,20.847-1.929,30.399c2.441-1.947,5.587-3.022,8.947-2.776c5.512,0.404,9.956,4.226,11.414,9.239
					c0.728-2.748,1.216-5.602,1.432-8.541C139.659,32.929,124.781,12.91,103.603,7.347z"/>
			</g>
		</g>
		<g>
			<polygon style="opacity:0.5;fill:#1283C3;" points="89.003,58.085 89.017,57.998 88.203,57.339 78.561,115.891 74.462,40.029 
				73.62,39.867 77.641,114.295 65.351,55.427 64.59,55.811 76.443,112.586 55.164,48.749 54.565,49.631 75.424,112.205 
				46.26,49.149 45.874,50.426 77.928,119.731 77.921,119.772 77.938,119.785 77.941,119.837 77.958,119.84 77.978,119.935 
				77.997,119.925 78.039,120.051 78.061,120.019 78.116,120.138 78.167,119.971 78.736,120.431 			"/>
			<polygon style="opacity:0.5;fill:#1283C3;" points="136.642,62.161 94.703,114.353 133.275,56.422 133.315,56.362 133.01,55.37 
				92.095,116.82 122.278,53.755 121.681,53.183 92.876,113.368 114.546,55.917 114.615,55.732 113.792,55.643 90.599,117.133 
				103.622,51.707 103.677,51.43 102.729,51.811 88.68,122.392 89.341,122.126 89.34,122.336 89.433,122.22 89.443,122.252 
				89.521,122.136 89.541,122.156 89.586,122.063 89.596,122.064 89.614,122.017 89.628,122.011 89.637,121.966 136.636,63.477 			
				"/>
		</g>
	</g>
	<g>
		<path style="fill:#FEF5F7;" d="M91.681,110.077c0,0-0.172-0.562-0.181-1.149c-0.011-0.71-1.299-0.786-1.79-0.27
			c-0.314,0.33,0.088,0.478,0.028,0.595c0,0-0.845-0.659-0.924-0.139c-0.044,0.289,1.336,1.323,2.06,1.61
			C91.599,111.009,91.681,110.077,91.681,110.077z"/>
		<path style="fill:#FEF5F7;" d="M64.435,110.056c0.022,0.112,0.034,0.246,0.026,0.401c0,0-0.375-0.647-0.796-0.593
			c-0.422,0.054-1.093,1.37-0.674,1.729c0.418,0.358,0.646,0.806,0.81,0.89s1.065-0.016,1.216-0.23
			c0.15-0.214-0.164-0.084-0.123-1.141c0.019-0.481,0.092-1.045-0.159-1.245C64.598,109.759,64.401,109.885,64.435,110.056z"/>
		<path style="fill:#113D86;" d="M90.495,110.695c0,0,1.244,1.829,1.878,4.771c0.868,4.028,0.28,7.21-1.187,10.213
			c-0.94,1.925-2.576,4.158-3.886,3.842c-1.31-0.316-2.228-1.705-4.074-2.741c-2.45-1.373-4.203-1.107-5.79-1.937
			c-1.587-0.83-3.419-1.992-6.46-4.931c-2.734-2.642-5.212-6.16-5.559-8.161l-2.045,0.636c0,0,1.971,4.549,3.237,6.334
			c1.266,1.785,2.2,3.816,3.806,5.298c3.198,2.95,4.337,2.957,4.399,4.502c0.062,1.545-2.254,9.462-3.002,8.936
			c-0.859-0.605-1.892-2.043-4.106-2.922c-2.395-0.952-5.257-0.38-6.822,0.211c-1.665,0.628-4.082,2.396-5.198,4.707
			c0,0-0.447-0.953-1.925-0.94l-0.096,0.635l1.41,2.398c0,0,0.514,0.12,1.17-0.709c0.876-1.108,3.411-3.002,5.078-3.131
			c2.33-0.18,5.395,0.637,6.54,2.05c1.145,1.413,3.459,3.297,4.356,3.61c0.898,0.313-3.961-0.361-7.017,1.894
			c-3.056,2.255-4.425,5.06-4.848,7.476c-0.394,2.246-0.569,4.166-0.235,4.688c0.334,0.523-1.871,0.662-1.65,1.936l3.852-0.482
			c0,0,0.431-1.293-0.51-1.317c-0.471-0.012,0.726-4.635,2.255-6.332c2.341-2.599,7.448-2.762,9.977-2.333
			c3.109,0.528,5.251,1.206,7.118-0.993c1.867-2.198,5.384-6.332,7.848-14.05c0,0,3.677-2.457,5.151-7.135
			c1.171-3.718,1.923-7.268,0.616-11.126c-1.009-2.978-2.017-5.028-3.049-6.011L90.495,110.695z"/>
		<path style="fill:#C01F69;" d="M81.802,127.216l1.542,0.233c0,0-0.722,2.548-0.458,4.714c0.174,1.431,0.567,2.506,1.917,2.946
			c0,0-0.417,1.59,0.211,2.512c0,0-2.188,0.024-2.996-1.279C81.212,135.039,80.92,132.279,81.802,127.216z"/>
		<path style="fill:#FEF5F7;" d="M81.985,126.004c0,0,0.212-1.798,1.041-2.205c0.829-0.406,1.967-1.297,1.967-1.297
			s1.114-0.46,1.937,0.469c1.539,1.738,0.063,3.493-1.453,4.15C83.961,127.778,82.763,127.892,81.985,126.004z"/>
		<path style="fill:#232134;" d="M86.505,122.464c0,0,0.016,1.065,0.547,1.854c0.531,0.789,0.265,0.985-0.166,1.097
			s-1.259,0.519-0.974,0.975s1.782,0.536,2.258-0.486c0.655-1.407,0.121-2.757-0.249-3.049
			C87.553,122.563,86.94,121.732,86.505,122.464z"/>
	</g>
	<path style="fill:#2F2C48;" d="M88.859,134.798c-0.032,0.473-2.498,4.589-8.529,2.217c-8.326-3.275-5.47-7.915-5.439-8.388
		c0.032-0.473-0.133,5.776,5.508,7.36C85.745,137.488,88.891,134.325,88.859,134.798z"/>
	<path style="fill:#2F2C48;" d="M85.028,136.766c-0.333-0.101,0.993-3.925,2.96-8.54c1.967-4.615,3.832-8.275,4.165-8.174
		c0.805,0.245-1.316,4.685-2.96,8.54C87.225,133.207,85.361,136.867,85.028,136.766z"/>
	<path style="fill:#2F2C48;" d="M79.424,136.128c-0.336,0.09-1.235-3.856-2.008-8.813c-0.773-4.957-1.128-9.049-0.792-9.139
		c0.336-0.09,1.235,3.856,2.008,8.813S79.76,136.037,79.424,136.128z"/>
	
		<ellipse transform="matrix(0.9935 0.1141 -0.1141 0.9935 14.159 -8.8237)" style="fill:#2F2C48;" cx="84.194" cy="119.33" rx="11.393" ry="0.834"/>
</g>
</svg>
