<?xml version="1.0" encoding="utf-8"?>
<!-- Generator: Adobe Illustrator 17.1.0, SVG Export Plug-In . SVG Version: 6.00 Build 0)  -->
<!DOCTYPE svg PUBLIC "-//W3C//DTD SVG 1.1//EN" "http://www.w3.org/Graphics/SVG/1.1/DTD/svg11.dtd">
<svg version="1.1" id="图层_1" xmlns="http://www.w3.org/2000/svg" xmlns:xlink="http://www.w3.org/1999/xlink" x="0px" y="0px"
	 viewBox="0 0 1080 1080" enable-background="new 0 0 1080 1080" xml:space="preserve">
<g>
	<g>
		<path fill="#2965AF" d="M540,786.3c-135.8,0-246.3-110.5-246.3-246.3S404.2,293.7,540,293.7S786.3,404.2,786.3,540
			S675.8,786.3,540,786.3z M540,301.7c-131.4,0-238.3,106.9-238.3,238.3S408.6,778.3,540,778.3S778.3,671.4,778.3,540
			S671.4,301.7,540,301.7z"/>
	</g>
	<g>
		<path fill="#153F8F" d="M540,754.7c-118.4,0-214.7-96.3-214.7-214.7S421.6,325.3,540,325.3S754.7,421.6,754.7,540
			S658.4,754.7,540,754.7z M540,332.2c-114.6,0-207.8,93.2-207.8,207.8S425.4,747.8,540,747.8S747.8,654.6,747.8,540
			S654.6,332.2,540,332.2z"/>
	</g>
	<g>
		<g>
			<path fill="#2965AF" d="M640.4,491.8c-24-13.9-86.2-49.6-106.8-61.4c-5-2.9-10.5-5-16.4-5.9c-48.4-7.6-79.9,28.2-79.9,66.9v116.9
				c0,8.8,2.5,18.1,7.6,25.7c14.7,22.7,37,33.6,58.9,33.6c8.8,0,17.2-1.7,25.2-5h-6.3c-36.2,0-65.6-26.1-65.6-58.9
				c0-5,2.5-114,2.5-114c0-16,8.4-30.3,21.9-38.3c6.7-3.8,14.3-5.9,21.9-5.9c7.6,0,15.1,2.1,21.9,5.9l96.7,55.9
				c14.3,8.4,22.7,23.1,21.9,39.9c-0.4,15.6-9.7,29.4-23.1,37l-60.1,34.5c-6.3,3.8-11.8,9.3-15.6,15.6l-16.4,28.2l104.3-59.7
				c30.7-17.7,43.3-56.3,24.4-92.9C654.3,502.3,648,496,640.4,491.8L640.4,491.8z M640.4,491.8"/>
			<path fill="#2965AF" d="M603.8,532.6l-88.3-50.9c-10.1-5.9-22.7,1.3-22.7,13v102.2c0,11.4,12.6,18.9,22.7,13l88.3-50.9
				C613.9,552.8,613.9,538.5,603.8,532.6L603.8,532.6z M603.8,532.6"/>
		</g>
	</g>
</g>
</svg>
