<?xml version="1.0" encoding="iso-8859-1"?>
<!-- Generator: Adobe Illustrator 17.1.0, SVG Export Plug-In . SVG Version: 6.00 Build 0)  -->
<!DOCTYPE svg PUBLIC "-//W3C//DTD SVG 1.1//EN" "http://www.w3.org/Graphics/SVG/1.1/DTD/svg11.dtd">
<svg version="1.1" id="&#x56FE;&#x5C42;_1" xmlns="http://www.w3.org/2000/svg" xmlns:xlink="http://www.w3.org/1999/xlink" x="0px"
	 y="0px" viewBox="0 0 106.909 20.364" style="enable-background:new 0 0 106.909 20.364;" xml:space="preserve">
<g>
	<path style="fill:#0E3C7E;" d="M20.597,1.392v7.266H0.908V1.392H20.597z M10.263,9.852v9.269H0.93V9.852H10.263z M4.446,7.188
		H17.06V2.862H4.446V7.188z M4.467,17.651h2.237v-6.329H4.467V17.651z M20.555,9.852v9.269h-9.312V9.852H20.555z M14.802,17.651
		h2.216v-6.329h-2.216V17.651z"/>
	<path style="fill:#0E3C7E;" d="M29.824,7.124h0.66v1.47h-5.029v1.875h4.581v8.821H26.84v-7.373h-1.385v7.373h-3.303V1.18h3.303
		v5.945h1.385V1.18h2.983v5.944H29.824z M32.189,15.796l0.469-3.196H31.06V1.776h3.281V1.03h3.303v0.746h4.368V12.6h-2.557v3.196
		h2.621v1.471h-2.621v2.024H36.28v-2.024h-5.135v-1.471H32.189z M34.107,6.464h1.087V3.247h-1.087V6.464z M34.107,11.13h1.087V7.912
		h-1.087V11.13z M35.065,15.796h1.215V12.6h-0.724L35.065,15.796z M37.899,3.246v3.217h1.065V3.246H37.899z M38.965,11.13V7.912
		H37.9v3.218H38.965z"/>
	<path style="fill:#0E3C7E;" d="M44.164,17.651l3.558-11.677h-4.155V1.243h3.537v3.282h1.065l1.002-3.282h3.793l-1.023,3.282h7.394
		V1.243h3.793v4.731H51.494l-0.49,1.555h12.082v1.449l-4.155,5.113l3.431,3.538h0.916v1.491h-4.049l-2.344-2.493l-2.024,2.493
		h-6.073v-1.47h2.855l2.834-3.559l-3.282-3.494h4.39l0.895,0.938l2.046-2.557h-7.969L47.404,19.12h-4.049v-1.47h0.809V17.651z"/>
	<path style="fill:#0E3C7E;" d="M76.723,5.846h7.82v13.488h-5.86v-1.471h2.301V7.316h-4.261V19.27h-3.558V7.316h-4.326V19.27h-3.537
		V7.316h-0.639v-1.47h1.065L67.07,3.31h-2.408V1.84h3.175l0.32-0.597h3.857l-0.32,0.597h12.998v1.47H70.906l-1.364,2.536h3.622
		V4.589h3.558L76.723,5.846L76.723,5.846z"/>
	<path style="fill:#0E3C7E;" d="M86.674,5.185l0.533-3.835h17.473l0.639,3.835h0.682v1.471h-4.177l-0.639-3.836H90.701l-0.554,3.836
		H85.97V5.185H86.674z M106,7.657v1.47H85.97v-1.47H106z M106,11.492v1.47H90.658l-0.831,4.646h12.423l-0.213-3.218h3.452
		l0.341,4.688H86.141v-1.47l0.831-4.646h-1.001v-1.47H106z"/>
</g>
</svg>
