<?xml version="1.0" encoding="utf-8"?>
<!-- Generator: Adobe Illustrator 17.1.0, SVG Export Plug-In . SVG Version: 6.00 Build 0)  -->
<!DOCTYPE svg PUBLIC "-//W3C//DTD SVG 1.1//EN" "http://www.w3.org/Graphics/SVG/1.1/DTD/svg11.dtd">
<svg version="1.1" id="图层_1" xmlns="http://www.w3.org/2000/svg" xmlns:xlink="http://www.w3.org/1999/xlink" x="0px" y="0px"
	 viewBox="0 2.8 535.8 283.6" enable-background="new 0 2.8 535.8 283.6" xml:space="preserve">
<g>
	<rect x="0.3" y="2.7" fill="#ACD4E5" width="535.2" height="283.6"/>
	<polygon fill="#2A82C2" points="236.4,104 26.3,2.7 509.5,2.7 296.5,104 	"/>
	<polygon fill="#20A8DC" points="239.4,94.2 49.9,2.7 485.8,2.7 293.8,94.2 	"/>
	<polygon fill="#2A82C2" points="236.4,185.2 26.3,286.4 509.5,286.4 296.5,185.2 	"/>
	<polygon fill="#20A8DC" points="239.4,194.9 49.9,286.4 485.8,286.4 293.8,194.9 	"/>
	<polygon fill="#2A82C2" points="218.6,182.2 0.3,286.4 0.3,2.7 218.6,111.7 	"/>
	<polygon fill="#20A8DC" points="207.5,176.5 0.3,272.5 0.3,16.6 207.5,117.3 	"/>
	<polygon fill="#2A82C2" points="317.2,182.2 535.5,286.4 535.5,2.7 317.2,111.7 	"/>
	<polygon fill="#20A8DC" points="328.2,176.5 535.5,272.5 535.5,16.6 328.2,117.3 	"/>
</g>
</svg>
