<?xml version="1.0" encoding="iso-8859-1"?>
<!-- Generator: Adobe Illustrator 17.1.0, SVG Export Plug-In . SVG Version: 6.00 Build 0)  -->
<!DOCTYPE svg PUBLIC "-//W3C//DTD SVG 1.1//EN" "http://www.w3.org/Graphics/SVG/1.1/DTD/svg11.dtd">
<svg version="1.1" id="&#x56FE;&#x5C42;_1" xmlns="http://www.w3.org/2000/svg" xmlns:xlink="http://www.w3.org/1999/xlink" x="0px"
	 y="0px" viewBox="0 0 226.772 226.772" style="enable-background:new 0 0 226.772 226.772;" xml:space="preserve">
<g>
	<g>
		<path style="fill:#2A60A4;" d="M113.341,165.519c-28.807,0-52.243-23.436-52.243-52.243s23.436-52.243,52.243-52.243
			s52.243,23.436,52.243,52.243S142.148,165.519,113.341,165.519z M113.341,62.719c-27.877,0-50.558,22.68-50.558,50.558
			s22.68,50.558,50.558,50.558s50.558-22.68,50.558-50.558S141.219,62.719,113.341,62.719z"/>
	</g>
	<g>
		<path style="fill:#113D86;" d="M113.341,158.822c-25.114,0-45.546-20.432-45.546-45.546S88.227,67.73,113.341,67.73
			s45.546,20.432,45.546,45.546S138.456,158.822,113.341,158.822z M113.341,69.199c-24.304,0-44.077,19.773-44.077,44.077
			s19.773,44.077,44.077,44.077s44.077-19.773,44.077-44.077S137.645,69.199,113.341,69.199z"/>
	</g>
	<g>
		<path style="fill:#FFFFFF;" d="M114.23,180.26l-0.048-3.37c0.544-0.007,1.085-0.021,1.625-0.042l0.128,3.368
			C115.369,180.237,114.8,180.252,114.23,180.26z M105.695,179.833c-0.567-0.065-1.133-0.136-1.696-0.215l0.465-3.338
			c0.536,0.074,1.073,0.143,1.612,0.204L105.695,179.833z M124.437,179.35l-0.555-3.324c0.535-0.089,1.069-0.185,1.599-0.288
			l0.64,3.309C125.562,179.155,125.001,179.255,124.437,179.35z M95.625,177.896c-0.551-0.151-1.1-0.308-1.645-0.473l0.974-3.226
			c0.518,0.156,1.038,0.306,1.561,0.448L95.625,177.896z M134.393,176.89l-1.058-3.2c0.515-0.17,1.026-0.347,1.535-0.53l1.141,3.171
			C135.475,176.524,134.935,176.711,134.393,176.89z M85.966,174.433c-0.522-0.234-1.041-0.475-1.555-0.722l1.457-3.039
			c0.489,0.235,0.982,0.463,1.478,0.685L85.966,174.433z M143.853,172.928l-1.537-2.999c0.481-0.246,0.958-0.499,1.432-0.757
			l1.614,2.959C144.863,172.403,144.36,172.669,143.853,172.928z M76.954,169.529c-0.48-0.311-0.955-0.627-1.426-0.95l1.905-2.781
			c0.447,0.306,0.898,0.607,1.353,0.901L76.954,169.529z M152.586,167.571l-1.977-2.73c0.439-0.317,0.872-0.64,1.302-0.968
			l2.046,2.678C153.505,166.897,153.048,167.237,152.586,167.571z M68.797,163.31c-0.426-0.379-0.847-0.764-1.263-1.154l2.306-2.458
			c0.395,0.37,0.795,0.736,1.199,1.096L68.797,163.31z M160.406,160.945l-2.368-2.398c0.386-0.381,0.766-0.767,1.142-1.157
			l2.427,2.338C161.213,160.139,160.812,160.544,160.406,160.945z M61.683,155.928c-0.363-0.439-0.72-0.883-1.073-1.331l2.652-2.08
			c0.334,0.426,0.674,0.847,1.018,1.264L61.683,155.928z M167.134,153.207l-2.706-2.01c0.324-0.435,0.641-0.874,0.954-1.318
			l2.756,1.941C167.809,152.287,167.474,152.749,167.134,153.207z M55.775,147.553c-0.291-0.488-0.576-0.98-0.855-1.477l2.937-1.653
			c0.266,0.472,0.537,0.939,0.813,1.403L55.775,147.553z M172.607,144.531l-2.98-1.573c0.253-0.48,0.501-0.963,0.742-1.45
			l3.02,1.498C173.134,143.518,172.874,144.026,172.607,144.531z M51.215,138.379c-0.214-0.528-0.421-1.059-0.621-1.594l3.156-1.183
			c0.19,0.508,0.387,1.013,0.59,1.514L51.215,138.379z M176.688,135.116l-3.185-1.101c0.177-0.512,0.347-1.028,0.511-1.546
			l3.214,1.015C177.055,134.032,176.875,134.576,176.688,135.116z M48.115,128.603c-0.13-0.554-0.253-1.11-0.369-1.67l3.301-0.685
			c0.11,0.532,0.227,1.061,0.35,1.587L48.115,128.603z M179.274,125.185l-3.318-0.595c0.095-0.532,0.185-1.066,0.267-1.603
			l3.332,0.51C179.468,124.062,179.375,124.625,179.274,125.185z M46.551,118.47c-0.044-0.567-0.08-1.135-0.109-1.706l3.366-0.174
			c0.028,0.543,0.063,1.084,0.104,1.623L46.551,118.47z M180.309,114.986l-3.37-0.085c0.014-0.54,0.021-1.082,0.021-1.625v-0.132
			h3.37v0.132C180.33,113.848,180.323,114.418,180.309,114.986z M49.902,108.471l-3.361-0.251c0.043-0.57,0.093-1.138,0.149-1.703
			l3.354,0.335C49.99,107.39,49.942,107.929,49.902,108.471z M176.432,105.045c-0.07-0.538-0.146-1.074-0.228-1.607l3.33-0.518
			c0.088,0.562,0.168,1.127,0.241,1.694L176.432,105.045z M51.367,98.846l-3.283-0.762c0.129-0.556,0.265-1.11,0.408-1.661
			l3.263,0.844C51.619,97.791,51.489,98.317,51.367,98.846z M174.448,95.515c-0.151-0.521-0.309-1.04-0.473-1.556l3.212-1.021
			c0.173,0.542,0.338,1.087,0.498,1.635L174.448,95.515z M54.293,89.554l-3.127-1.258c0.214-0.531,0.434-1.058,0.66-1.582
			l3.094,1.336C54.705,88.549,54.495,89.05,54.293,89.554z M171.022,86.401c-0.229-0.49-0.464-0.977-0.704-1.46l3.017-1.503
			c0.253,0.509,0.499,1.02,0.741,1.535L171.022,86.401z M58.613,80.82l-2.897-1.722c0.292-0.491,0.59-0.978,0.894-1.461l2.853,1.794
			C59.174,79.89,58.89,80.353,58.613,80.82z M166.243,77.926c-0.301-0.449-0.607-0.894-0.92-1.336l2.752-1.947
			c0.329,0.465,0.652,0.934,0.969,1.408L166.243,77.926z M64.217,72.85l-2.6-2.144c0.362-0.44,0.731-0.875,1.104-1.305l2.547,2.208
			C64.912,72.017,64.562,72.432,64.217,72.85z M160.226,70.274c-0.366-0.399-0.737-0.793-1.113-1.183l2.425-2.34
			c0.396,0.41,0.787,0.825,1.172,1.245L160.226,70.274z M70.965,65.825l-2.246-2.513c0.425-0.38,0.855-0.754,1.29-1.123l2.181,2.57
			C71.776,65.109,71.368,65.464,70.965,65.825z M153.115,63.62c-0.424-0.339-0.851-0.673-1.282-1.002l2.042-2.682
			c0.454,0.345,0.903,0.696,1.348,1.053L153.115,63.62z M78.697,59.909l-1.837-2.826c0.477-0.31,0.958-0.614,1.443-0.913
			l1.765,2.871C79.607,59.325,79.15,59.615,78.697,59.909z M145.07,58.122c-0.47-0.271-0.943-0.536-1.42-0.794l1.608-2.962
			c0.502,0.273,1.001,0.552,1.496,0.837L145.07,58.122z M87.235,55.243L85.85,52.17c0.518-0.234,1.039-0.461,1.564-0.681
			l1.305,3.108C88.221,54.806,87.726,55.022,87.235,55.243z M136.282,53.92c-0.506-0.196-1.016-0.386-1.528-0.569l1.135-3.174
			c0.539,0.193,1.075,0.393,1.608,0.598L136.282,53.92z M96.388,51.941l-0.897-3.249c0.548-0.151,1.1-0.296,1.655-0.434l0.814,3.271
			C97.434,51.66,96.91,51.797,96.388,51.941z M126.946,51.116c-0.528-0.115-1.058-0.223-1.591-0.325l0.632-3.31
			c0.562,0.107,1.121,0.221,1.677,0.343L126.946,51.116z M105.945,50.083l-0.388-3.348c0.565-0.065,1.132-0.123,1.701-0.175
			l0.304,3.357C107.021,49.966,106.482,50.021,105.945,50.083z M117.3,49.779c-0.539-0.033-1.08-0.06-1.623-0.079l0.122-3.368
			c0.571,0.021,1.141,0.049,1.708,0.084L117.3,49.779z"/>
	</g>
	<g>
		<path style="fill:#FFFFFF;" d="M157.913,150.418l-39.29,32.273v30.025c0,2.513-2.037,4.55-4.55,4.55
			c-2.513,0-4.55-2.037-4.55-4.55v-30.025l-39.29-32.273c-1.942-1.595-2.223-4.462-0.628-6.404c0.9-1.095,2.204-1.662,3.519-1.662
			c1.016,0,2.039,0.339,2.886,1.034l38.063,31.266l38.063-31.266c0.847-0.695,1.869-1.034,2.885-1.034
			c1.315,0,2.619,0.567,3.519,1.662C160.136,145.955,159.855,148.822,157.913,150.418z"/>
	</g>
	<g>
		<path style="fill:#FFFFFF;" d="M68.736,76.77l38.979-32.647l-0.287-30.024c-0.024-2.513,1.994-4.569,4.506-4.593
			c2.513-0.024,4.569,1.994,4.593,4.506l0.287,30.024l39.596,31.896c1.957,1.577,2.265,4.441,0.689,6.398
			c-0.889,1.104-2.188,1.683-3.503,1.695c-1.016,0.01-2.042-0.319-2.895-1.007l-38.36-30.901L74.579,83.747
			c-0.84,0.703-1.859,1.052-2.875,1.062c-1.315,0.013-2.625-0.542-3.534-1.628C66.556,81.254,66.809,78.384,68.736,76.77z"/>
	</g>
</g>
</svg>
