<?xml version="1.0" encoding="iso-8859-1"?>
<!-- Generator: Adobe Illustrator 17.1.0, SVG Export Plug-In . SVG Version: 6.00 Build 0)  -->
<!DOCTYPE svg PUBLIC "-//W3C//DTD SVG 1.1//EN" "http://www.w3.org/Graphics/SVG/1.1/DTD/svg11.dtd">
<svg version="1.1" id="&#x56FE;&#x5C42;_1" xmlns="http://www.w3.org/2000/svg" xmlns:xlink="http://www.w3.org/1999/xlink" x="0px"
	 y="0px" viewBox="0 0 1964.007 925.386" style="enable-background:new 0 0 1964.007 925.386;" xml:space="preserve">
<linearGradient id="SVGID_1_" gradientUnits="userSpaceOnUse" x1="489.2077" y1="373.3074" x2="1469.9612" y2="903.572">
	<stop  offset="0" style="stop-color:#113D86"/>
	<stop  offset="1" style="stop-color:#34A4DD"/>
</linearGradient>
<path style="fill:url(#SVGID_1_);" d="M1463.683,923.584H500.352c-11.474,0-20.808-9.335-20.808-20.808V376.735
	c0-11.474,9.335-20.808,20.808-20.808h963.331c11.474,0,20.808,9.335,20.808,20.808v526.041
	C1484.491,914.25,1475.157,923.584,1463.683,923.584z"/>
<path style="fill:#113D86;" d="M1426.11,924.867H537.925c-10.262,0-18.581-8.319-18.581-18.581V417.82
	c0-10.262,8.319-18.581,18.581-18.581h888.185c10.262,0,18.581,8.319,18.581,18.581v488.465
	C1444.691,916.547,1436.372,924.867,1426.11,924.867z"/>
<linearGradient id="SVGID_2_" gradientUnits="userSpaceOnUse" x1="526.929" y1="662.0528" x2="1437.1064" y2="662.0528">
	<stop  offset="0" style="stop-color:#34A4DD"/>
	<stop  offset="1" style="stop-color:#113D86"/>
</linearGradient>
<path style="fill:url(#SVGID_2_);" d="M1418.525,918.04H545.51c-10.262,0-18.581-8.319-18.581-18.581V424.647
	c0-10.262,8.319-18.581,18.581-18.581h873.015c10.262,0,18.581,8.319,18.581,18.581v474.812
	C1437.106,909.721,1428.787,918.04,1418.525,918.04z"/>
<polygon style="fill:#20A8DC;" points="1316.48,307.432 647.555,307.432 711.164,373.093 1252.871,373.093 "/>
<linearGradient id="SVGID_3_" gradientUnits="userSpaceOnUse" x1="981.9899" y1="295.3484" x2="982.2222" y2="396.3374">
	<stop  offset="0" style="stop-color:#272B58"/>
	<stop  offset="1" style="stop-color:#74C6BA"/>
</linearGradient>
<polygon style="fill:url(#SVGID_3_);" points="1307.247,307.432 656.789,307.432 718.642,373.093 1245.393,373.093 "/>
<linearGradient id="SVGID_4_" gradientUnits="userSpaceOnUse" x1="982.0177" y1="307.432" x2="982.0177" y2="373.0934">
	<stop  offset="0" style="stop-color:#113D86"/>
	<stop  offset="1" style="stop-color:#34A4DD"/>
</linearGradient>
<rect x="709.625" y="307.432" style="fill:url(#SVGID_4_);" width="544.785" height="65.661"/>
<g>
	<path style="fill:#A5C8DA;" d="M973.596,366.451l0.214-1.18l-0.549,0.008c-5.38-14.844-49.722-26.424-103.627-26.424
		c-57.527,0-104.164,13.188-104.176,29.457l-0.431,0.006l4.305,18.288h18.622c19.082,6.808,48.576,11.176,81.68,11.176
		c33.104,0,62.598-4.368,81.68-11.176h18.622l2.431-13.385c0.944-1.595,1.444-3.232,1.444-4.902
		C973.81,367.691,973.732,367.069,973.596,366.451z"/>
	<g>
		
			<image style="overflow:visible;" width="1170" height="499" xlink:href="7AF096609D97ACE6.png"  transform="matrix(0.24 0 0 0.24 729.0272 302.8554)">
		</image>
	</g>
	<ellipse style="fill:#ACD4E5;" cx="869.634" cy="380.309" rx="100.302" ry="19.807"/>
	<ellipse style="fill:#FFFFFF;" cx="869.634" cy="382.714" rx="100.302" ry="19.807"/>
	<ellipse style="fill:#113D86;" cx="869.634" cy="385.155" rx="93.414" ry="15.636"/>
	<ellipse style="fill:#83CDDF;" cx="869.634" cy="385.155" rx="85.666" ry="16.235"/>
	<ellipse style="fill:#2A60A4;" cx="869.634" cy="385.155" rx="58.816" ry="9.845"/>
	<ellipse style="fill:#EEC286;" cx="869.634" cy="385.155" rx="20.233" ry="2.481"/>
</g>
<g>
	<path style="fill:#A5C8DA;" d="M957.652,312.616l0.255-1.406l-0.654,0.009c-6.411-17.689-59.251-31.488-123.487-31.488
		c-68.552,0-124.126,15.715-124.141,35.103l-0.513,0.007l5.13,21.793h22.191c22.739,8.113,57.885,13.318,97.333,13.318
		c39.448,0,74.594-5.205,97.333-13.318h22.191l2.896-15.951c1.125-1.9,1.72-3.851,1.72-5.842
		C957.908,314.094,957.815,313.352,957.652,312.616z"/>
	<g>
		
			<image style="overflow:visible;" width="1337" height="538" xlink:href="7AF096609D97ACEA.png"  transform="matrix(0.24 0 0 0.24 673.1124 243.7311)">
		</image>
	</g>
	<ellipse style="fill:#ACD4E5;" cx="833.767" cy="329.129" rx="119.524" ry="23.603"/>
	<ellipse style="fill:#FFFFFF;" cx="833.767" cy="331.995" rx="119.524" ry="23.603"/>
	<ellipse style="fill:#113D86;" cx="833.767" cy="334.904" rx="111.317" ry="18.633"/>
	<ellipse style="fill:#83CDDF;" cx="833.767" cy="334.904" rx="102.083" ry="19.346"/>
	<ellipse style="fill:#2A60A4;" cx="833.767" cy="334.904" rx="70.088" ry="11.732"/>
	<ellipse style="fill:#EEC286;" cx="833.767" cy="334.904" rx="24.11" ry="2.957"/>
</g>
<g>
	<path style="fill:#A5C8DA;" d="M990.44,366.451l-0.214-1.18l0.549,0.008c5.38-14.844,49.722-26.424,103.627-26.424
		c57.527,0,104.164,13.188,104.176,29.457l0.431,0.006l-4.305,18.288h-18.622c-19.082,6.808-48.576,11.176-81.68,11.176
		s-62.598-4.368-81.68-11.176H994.1l-2.431-13.385c-0.944-1.595-1.444-3.232-1.444-4.902
		C990.225,367.691,990.303,367.069,990.44,366.451z"/>
	<g>
		
			<image style="overflow:visible;" width="1170" height="499" xlink:href="7AF096609D97ACED.png"  transform="matrix(0.24 0 0 0.24 954.2253 302.8554)">
		</image>
	</g>
	<ellipse style="fill:#ACD4E5;" cx="1094.401" cy="380.309" rx="100.302" ry="19.807"/>
	<ellipse style="fill:#FFFFFF;" cx="1094.401" cy="382.714" rx="100.302" ry="19.807"/>
	<ellipse style="fill:#113D86;" cx="1094.401" cy="385.155" rx="93.414" ry="15.636"/>
	<ellipse style="fill:#83CDDF;" cx="1094.401" cy="385.155" rx="85.666" ry="16.235"/>
	<ellipse style="fill:#2A60A4;" cx="1094.401" cy="385.155" rx="58.816" ry="9.845"/>
	<ellipse style="fill:#EEC286;" cx="1094.401" cy="385.155" rx="20.233" ry="2.481"/>
</g>
<g>
	<path style="fill:#A5C8DA;" d="M1006.383,312.616l-0.255-1.406l0.654,0.009c6.411-17.689,59.25-31.488,123.487-31.488
		c68.552,0,124.126,15.715,124.141,35.103l0.513,0.007l-5.13,21.793h-22.191c-22.739,8.113-57.885,13.318-97.333,13.318
		c-39.448,0-74.594-5.205-97.333-13.318h-22.191l-2.896-15.951c-1.125-1.9-1.72-3.851-1.72-5.842
		C1006.128,314.094,1006.22,313.352,1006.383,312.616z"/>
	<g>
		
			<image style="overflow:visible;" width="1337" height="538" xlink:href="7AF096609D97ACEE.png"  transform="matrix(0.24 0 0 0.24 970.1277 243.7311)">
		</image>
	</g>
	<ellipse style="fill:#ACD4E5;" cx="1130.269" cy="329.129" rx="119.524" ry="23.603"/>
	<ellipse style="fill:#FFFFFF;" cx="1130.269" cy="331.995" rx="119.524" ry="23.603"/>
	<ellipse style="fill:#113D86;" cx="1130.269" cy="334.904" rx="111.317" ry="18.633"/>
	<ellipse style="fill:#83CDDF;" cx="1130.269" cy="334.904" rx="102.083" ry="19.346"/>
	<ellipse style="fill:#2A60A4;" cx="1130.269" cy="334.904" rx="70.088" ry="11.732"/>
	<ellipse style="fill:#EEC286;" cx="1130.269" cy="334.904" rx="24.11" ry="2.957"/>
</g>
<linearGradient id="SVGID_5_" gradientUnits="userSpaceOnUse" x1="656.7885" y1="229.4591" x2="1306.2209" y2="229.4591">
	<stop  offset="0" style="stop-color:#113D86"/>
	<stop  offset="1" style="stop-color:#34A4DD"/>
</linearGradient>
<rect x="656.789" y="161.746" style="fill:url(#SVGID_5_);" width="649.432" height="135.427"/>
<rect x="686.541" y="240.745" style="fill:#C3E5EE;" width="590.953" height="10.26"/>
<linearGradient id="SVGID_6_" gradientUnits="userSpaceOnUse" x1="686.5411" y1="285.3739" x2="1277.494" y2="285.3739">
	<stop  offset="0" style="stop-color:#34A4DD"/>
	<stop  offset="1" style="stop-color:#113D86"/>
</linearGradient>
<rect x="686.541" y="279.731" style="fill:url(#SVGID_6_);" width="590.953" height="11.286"/>
<rect x="686.541" y="285.887" style="fill:#20A8DC;" width="590.953" height="11.286"/>
<rect x="686.541" y="190.473" style="fill:#C3E5EE;" width="590.953" height="5.13"/>
<g>
	<g id="Group-44_3_" transform="translate(57.940075, 0.000000)">
		<path id="Path-75_3_" style="fill:none;stroke:#287C8A;stroke-width:4;" d="M923.539,381.135v22.552"/>
		<g id="Rectangle-49_3_">
			<g>
				<g>
					<linearGradient id="SVGID_7_" gradientUnits="userSpaceOnUse" x1="923.8983" y1="374.7345" x2="923.8983" y2="354.417">
						<stop  offset="0" style="stop-color:#D8ECDC;stop-opacity:0"/>
						<stop  offset="1" style="stop-color:#EBF5ED;stop-opacity:0.8"/>
					</linearGradient>
					<rect x="913.699" y="354.417" style="fill:url(#SVGID_7_);" width="20.398" height="20.318"/>
				</g>
			</g>
			<g>
				<g>
					<rect x="913.699" y="402.588" style="fill:#FFFFFF;" width="20.398" height="20.318"/>
				</g>
			</g>
		</g>
		<g>
			<g>
				<path style="fill:#0A535A;" d="M946.856,402.588H900.94c-1.403,0-2.54,1.137-2.54,2.54s1.137,2.54,2.54,2.54h45.916
					c1.403,0,2.54-1.137,2.54-2.54S948.259,402.588,946.856,402.588z"/>
			</g>
		</g>
	</g>
	<linearGradient id="SVGID_8_" gradientUnits="userSpaceOnUse" x1="981.8591" y1="440.7172" x2="981.8591" y2="376.1554">
		<stop  offset="0" style="stop-color:#D8ECDC;stop-opacity:0"/>
		<stop  offset="1" style="stop-color:#9DD6E3;stop-opacity:0.4727"/>
	</linearGradient>
	<ellipse style="fill:url(#SVGID_8_);" cx="981.859" cy="408.436" rx="56.141" ry="32.281"/>
</g>
<g>
	<polygon style="fill:#20A8DC;" points="1316.48,307.432 1277.494,297.172 1277.494,285.849 1316.48,297.676 	"/>
	<polygon style="fill:#FFFFFF;" points="1316.48,297.676 1277.494,285.849 1277.494,269.661 1316.48,283.182 	"/>
	<polygon style="fill:#5BA686;" points="1308.273,248.978 1308.273,259.769 1277.494,252.669 1277.494,241.878 	"/>
	<polygon style="fill:#C3E5EE;" points="1308.273,247.989 1308.273,257.278 1277.494,251.167 1277.494,241.878 	"/>
	<polygon style="fill:#113D86;" points="1308.273,280.335 1277.494,269.661 1277.494,161.746 1308.273,161.746 	"/>
	<polygon style="fill:#FFFFFF;" points="1308.273,261.595 1277.494,251.22 1277.494,241.771 1308.273,252.468 	"/>
	<polygon style="fill:#FFFFFF;" points="1308.273,205.9 1277.494,195.524 1277.494,190.473 1308.273,201.17 	"/>
</g>
<g>
	<polygon style="fill:#20A8DC;" points="647.555,307.432 686.541,297.172 686.541,285.849 647.555,297.676 	"/>
	<polygon style="fill:#FFFFFF;" points="647.555,297.676 686.541,285.849 686.541,269.661 647.555,283.182 	"/>
	<polygon style="fill:#5BA686;" points="655.763,248.978 655.763,259.769 686.541,252.669 686.541,241.878 	"/>
	<polygon style="fill:#C3E5EE;" points="655.762,247.989 655.762,257.278 686.541,251.167 686.541,241.878 	"/>
	<polygon style="fill:#113D86;" points="655.763,280.335 686.541,269.661 686.541,161.746 655.763,161.746 	"/>
	<polygon style="fill:#FFFFFF;" points="655.763,261.595 686.541,251.22 686.541,241.771 655.763,252.468 	"/>
	<polygon style="fill:#FFFFFF;" points="655.763,205.9 686.541,195.524 686.541,190.473 655.763,201.17 	"/>
</g>
<g>
	<g>
		<g>
			<linearGradient id="SVGID_9_" gradientUnits="userSpaceOnUse" x1="1600.7925" y1="242.7243" x2="1749.146" y2="242.7243">
				<stop  offset="0" style="stop-color:#113D86"/>
				<stop  offset="1" style="stop-color:#34A4DD"/>
			</linearGradient>
			<polygon style="fill:url(#SVGID_9_);" points="1632.958,225.235 1682.499,171.19 1749.146,222.983 1668.988,314.258 
				1600.792,261.751 			"/>
			<polygon style="fill:#2A99D6;" points="1601.431,261.265 1668.988,315.31 1646.469,341.281 1578.274,288.774 			"/>
		</g>
		<polygon style="fill:#2A60A4;" points="1599.707,349.089 1662.232,401.613 1641.39,426.852 1578.274,375.823 		"/>
		<linearGradient id="SVGID_10_" gradientUnits="userSpaceOnUse" x1="1471.384" y1="424.5266" x2="1632.9578" y2="424.5266">
			<stop  offset="0" style="stop-color:#113D86"/>
			<stop  offset="1" style="stop-color:#34A4DD"/>
		</linearGradient>
		<path style="fill:url(#SVGID_10_);" d="M1632.958,448.171c0,0-90.075-63.053-105.838-105.838l-54.045,54.045
			c0,0-22.519,15.763,96.831,110.342L1632.958,448.171z"/>
		<polygon style="fill:#2A99D6;" points="1786.587,44.452 1626.704,220.099 1599.682,195.328 1752.809,19.681 		"/>
		<linearGradient id="SVGID_11_" gradientUnits="userSpaceOnUse" x1="1590.172" y1="111.5154" x2="1777.078" y2="111.5154">
			<stop  offset="0" style="stop-color:#272B58"/>
			<stop  offset="1" style="stop-color:#74C6BA"/>
		</linearGradient>
		<polygon style="fill:url(#SVGID_11_);" points="1777.078,36.077 1617.195,211.724 1590.172,186.953 1743.3,11.307 		"/>
		<path style="fill:#113D86;" d="M1655.477,425.652l-22.519,22.519c0,0-90.075-63.053-105.838-105.838h45.037
			C1572.157,342.333,1590.172,373.859,1655.477,425.652z"/>
		<polyline style="fill:#83CDDF;" points="1632.958,225.235 1623.95,234.243 1581.165,195.961 1590.172,186.953 		"/>
		<linearGradient id="SVGID_12_" gradientUnits="userSpaceOnUse" x1="1539.406" y1="340.5703" x2="1597.745" y2="207.7426">
			<stop  offset="0" style="stop-color:#272B58"/>
			<stop  offset="1" style="stop-color:#74C6BA"/>
		</linearGradient>
		<path style="fill:url(#SVGID_12_);" d="M1572.157,342.333c0,0,2.252-60.801,51.793-108.09l-42.786-38.282
			c0,0-25.955,21.529-42.786,60.801c-20.267,47.289-20.267,67.556-11.259,85.571H1572.157z"/>
		<linearGradient id="SVGID_13_" gradientUnits="userSpaceOnUse" x1="1486.187" y1="383.2354" x2="1528.3224" y2="269.7561">
			<stop  offset="0" style="stop-color:#113D86"/>
			<stop  offset="1" style="stop-color:#34A4DD"/>
		</linearGradient>
		<path style="fill:url(#SVGID_13_);" d="M1563.583,214.705c0,0-63.486,75.834-70.242,84.842
			c-6.756,9.008-31.526,74.312-20.267,96.831l54.045-54.045c0,0-9.008-13.511-3.807-39.865
			C1528.91,274.103,1545.135,236.495,1563.583,214.705z"/>
		<path style="fill:#ACD4E5;" d="M1581.165,355.844L1889.672,4.551l36.03,29.274l-65.305,72.06
			c-20.267-15.763-81.068,74.312-153.128,150.876c-45.887,48.755-105.838,120.623-105.838,120.623L1581.165,355.844z"/>
		<path style="fill:#2A60A4;" d="M1576.661,351.341L1885.168,0.047l36.03,29.274l-65.304,72.06
			c-20.267-15.763-81.068,74.312-153.128,150.876c-45.887,48.755-105.838,120.623-105.838,120.623L1576.661,351.341z"/>
		<path style="fill:#2A60A4;" d="M1621.698,367.104l306.255-351.293l36.03,29.274l-65.304,72.06
			c-9.008-6.756-128.357,137.365-177.898,189.158c-21.171,22.134,6.756,42.786,6.756,42.786l-58.549,60.801L1621.698,367.104z"/>
		<linearGradient id="SVGID_14_" gradientUnits="userSpaceOnUse" x1="1621.6984" y1="212.85" x2="1963.9839" y2="212.85">
			<stop  offset="0" style="stop-color:#272B58"/>
			<stop  offset="1" style="stop-color:#74C6BA"/>
		</linearGradient>
		<path style="fill:url(#SVGID_14_);" d="M1621.698,367.104l306.255-351.293l36.03,29.274l-65.304,72.06
			c-9.008-6.756-128.357,137.365-177.898,189.158c-21.171,22.134,6.756,42.786,6.756,42.786l-58.549,60.801L1621.698,367.104z"/>
		<path style="fill:#2A99D6;" d="M1734.292,337.829l-6.756,11.259c0,0-29.274-20.267-6.756-42.786
			C1720.781,306.303,1709.522,326.57,1734.292,337.829z"/>
		<path style="fill:#ACD4E5;" d="M1471.384,366.055l49.971-47.068c0,0,0.393,3.034,0.827,10.938l-52.001,48.153L1471.384,366.055z"
			/>
	</g>
	<g>
		<g>
			<linearGradient id="SVGID_15_" gradientUnits="userSpaceOnUse" x1="214.8893" y1="242.7243" x2="363.2429" y2="242.7243">
				<stop  offset="0" style="stop-color:#34A4DD"/>
				<stop  offset="1" style="stop-color:#113D86"/>
			</linearGradient>
			<polygon style="fill:url(#SVGID_15_);" points="331.078,225.235 281.536,171.19 214.889,222.983 295.048,314.258 
				363.243,261.751 			"/>
			<polygon style="fill:#2A99D6;" points="362.604,261.265 295.048,315.31 317.566,341.281 385.762,288.774 			"/>
		</g>
		<polygon style="fill:#2A60A4;" points="364.329,349.089 301.803,401.613 322.645,426.852 385.762,375.823 		"/>
		<linearGradient id="SVGID_16_" gradientUnits="userSpaceOnUse" x1="488.0275" y1="356.1934" x2="364.0275" y2="480.1934">
			<stop  offset="0" style="stop-color:#113D86"/>
			<stop  offset="1" style="stop-color:#34A4DD"/>
		</linearGradient>
		<path style="fill:url(#SVGID_16_);" d="M331.078,448.171c0,0,90.075-63.053,105.838-105.838l54.045,54.045
			c0,0,22.519,15.763-96.831,110.342L331.078,448.171z"/>
		<polygon style="fill:#2A99D6;" points="177.448,44.452 337.331,220.099 364.354,195.328 211.226,19.681 		"/>
		
			<linearGradient id="SVGID_17_" gradientUnits="userSpaceOnUse" x1="-2406.3308" y1="111.5154" x2="-2219.4248" y2="111.5154" gradientTransform="matrix(-1 0 0 1 -2032.4674 0)">
			<stop  offset="0" style="stop-color:#272B58"/>
			<stop  offset="1" style="stop-color:#74C6BA"/>
		</linearGradient>
		<polygon style="fill:url(#SVGID_17_);" points="186.957,36.077 346.841,211.724 373.863,186.953 220.736,11.307 		"/>
		<path style="fill:#113D86;" d="M308.559,425.652l22.519,22.519c0,0,90.075-63.053,105.838-105.838h-45.038
			C391.878,342.333,373.863,373.859,308.559,425.652z"/>
		<polygon style="fill:#83CDDF;" points="331.078,225.235 340.085,234.243 382.871,195.961 373.863,186.953 		"/>
		
			<linearGradient id="SVGID_18_" gradientUnits="userSpaceOnUse" x1="-2457.0967" y1="340.5703" x2="-2398.7578" y2="207.7426" gradientTransform="matrix(-1 0 0 1 -2032.4674 0)">
			<stop  offset="0" style="stop-color:#272B58"/>
			<stop  offset="1" style="stop-color:#74C6BA"/>
		</linearGradient>
		<path style="fill:url(#SVGID_18_);" d="M391.878,342.333c0,0-2.252-60.801-51.793-108.09l42.786-38.282
			c0,0,25.955,21.529,42.786,60.801c20.267,47.289,20.267,67.556,11.259,85.571H391.878z"/>
		<linearGradient id="SVGID_19_" gradientUnits="userSpaceOnUse" x1="416.9669" y1="376.6512" x2="486.9669" y2="203.6512">
			<stop  offset="0" style="stop-color:#113D86"/>
			<stop  offset="1" style="stop-color:#34A4DD"/>
		</linearGradient>
		<path style="fill:url(#SVGID_19_);" d="M400.452,214.705c0,0,63.486,75.834,70.242,84.842
			c6.756,9.008,31.526,74.312,20.267,96.831l-54.045-54.045c0,0,9.008-13.511,3.807-39.865
			C435.125,274.103,418.901,236.495,400.452,214.705z"/>
		<path style="fill:#ACD4E5;" d="M382.871,355.844L74.363,4.551l-36.03,29.274l65.304,72.06
			c20.267-15.763,81.068,74.312,153.128,150.876c45.887,48.755,105.838,120.623,105.838,120.623L382.871,355.844z"/>
		<path style="fill:#2A60A4;" d="M387.375,351.341L78.867,0.047l-36.03,29.274l65.304,72.06
			c20.267-15.763,81.068,74.312,153.128,150.876c45.887,48.755,105.838,120.623,105.838,120.623L387.375,351.341z"/>
		<path style="fill:#2A60A4;" d="M342.337,367.104L36.082,15.811L0.051,45.085l65.304,72.06
			c9.008-6.756,128.357,137.365,177.898,189.158c21.171,22.134-6.756,42.786-6.756,42.786l58.549,60.801L342.337,367.104z"/>
		
			<linearGradient id="SVGID_20_" gradientUnits="userSpaceOnUse" x1="-2374.8044" y1="212.85" x2="-2032.5189" y2="212.85" gradientTransform="matrix(-1 0 0 1 -2032.4674 0)">
			<stop  offset="0" style="stop-color:#272B58"/>
			<stop  offset="1" style="stop-color:#74C6BA"/>
		</linearGradient>
		<path style="fill:url(#SVGID_20_);" d="M342.337,367.104L36.082,15.811L0.051,45.085l65.304,72.06
			c9.008-6.756,128.357,137.365,177.898,189.158c21.171,22.134-6.756,42.786-6.756,42.786l58.549,60.801L342.337,367.104z"/>
		<path style="fill:#2A99D6;" d="M229.743,337.829l6.756,11.259c0,0,29.274-20.267,6.756-42.786
			C243.254,306.303,254.514,326.57,229.743,337.829z"/>
		<path style="fill:#ACD4E5;" d="M492.651,366.055l-49.971-47.068c0,0-0.393,3.034-0.827,10.938l52.001,48.153L492.651,366.055z"/>
	</g>
</g>
</svg>
