<?xml version="1.0" encoding="iso-8859-1"?>
<!-- Generator: Adobe Illustrator 17.1.0, SVG Export Plug-In . SVG Version: 6.00 Build 0)  -->
<!DOCTYPE svg PUBLIC "-//W3C//DTD SVG 1.1//EN" "http://www.w3.org/Graphics/SVG/1.1/DTD/svg11.dtd">
<svg version="1.1" id="&#x56FE;&#x5C42;_1" xmlns="http://www.w3.org/2000/svg" xmlns:xlink="http://www.w3.org/1999/xlink" x="0px"
	 y="0px" viewBox="0 0 106.781 106.781" style="enable-background:new 0 0 106.781 106.781;" xml:space="preserve">
<path style="fill:#20A8DC;" d="M53.389-0.002C23.946-0.002,0,23.953,0,53.392c0,29.442,23.946,53.39,53.389,53.39
	c29.446,0,53.392-23.948,53.392-53.39C106.781,23.953,82.835-0.002,53.389-0.002z M93.998,53.392c0,4.844-0.856,9.491-2.419,13.802
	L66.751,53.467c0-0.025,0.004-0.049,0.004-0.074c0-5.062-2.817-9.465-6.969-11.731V13.298C79.15,16.375,93.998,33.181,93.998,53.392
	z M47,13.297v28.361c-4.154,2.265-6.974,6.67-6.974,11.735c0,0.294,0.025,0.581,0.044,0.87L16.104,69.449
	c-2.131-4.928-3.317-10.355-3.317-16.056C12.786,33.178,27.64,16.371,47,13.297z M53.389,93.995c-12.1,0-22.975-5.328-30.421-13.755
	l23.941-15.168c1.92,1.067,4.128,1.68,6.48,1.68c2.64,0,5.093-0.775,7.166-2.094l24.811,13.719
	C77.926,87.873,66.363,93.995,53.389,93.995z"/>
</svg>
